<svg xmlns="http://www.w3.org/2000/svg" width="688.633" height="994.162" viewBox="0 0 688.633 994.162">
  <g id="Group_4122" data-name="Group 4122" transform="translate(-1087.45)">
    <path id="Path_10553" data-name="Path 10553" d="M396.919,95.322c-7.139,67.373,66.418,45.048,99.96,138.7,46.507,129.833-69.184,218.48-165.26,218.48s-211.761-88.647-165.265-218.48c33.541-93.656,107.1-71.331,99.96-138.7,35.916-9.677,94.69-9.677,130.605,0" transform="translate(1013.333 400.712)" fill="#0b3c69" fill-rule="evenodd"/>
    <path id="Path_10556" data-name="Path 10556" d="M295.278,80.363c40.6,15.09,59.291,57.184,59.859,121.638.182,16.578-6.781,29.827-17.821,27.385-37.108-13.505-111.937-13.505-149.028,0-11.057,2.442-18.014-10.808-17.833-27.385.568-64.453,19.27-106.548,59.865-121.638,18.821-27.113,46.132-27.113,64.959,0" transform="translate(1082.154 269.528)" fill="#0b3c69" fill-rule="evenodd"/>
    <path id="Path_10557" data-name="Path 10557" d="M173.153,218.093a45.325,45.325,0,0,1-2.7-16.708c.568-64.453,19.27-106.548,59.865-121.638,7.593-10.944,16.572-17.469,25.818-19.588,6.775,2.993,13.233,8.542,18.906,16.708,38.437,14.283,56.145,54.146,56.69,115.186.17,15.686-6.429,28.237-16.9,25.931-35.126-12.812-105.991-12.812-141.112,0-.2.028-.392.068-.574.108" transform="translate(1082.153 270.143)" fill="#0b3c69" fill-rule="evenodd"/>
    <path id="Path_10558" data-name="Path 10558" d="M347.738,124.4c-10.115-21.087-25.312-35.949-46.07-44.025a58.708,58.708,0,0,0-13.908-14.033,35.763,35.763,0,0,0-42.742,0,58.378,58.378,0,0,0-13.9,14.033c-20.752,8.076-35.961,22.938-46.081,44.025-10.1,21.053-15.061,48.307-15.345,81.184a54.56,54.56,0,0,0,1.215,12.364,32.113,32.113,0,0,0,6.088,13.528,15.429,15.429,0,0,0,15.567,5.821,4,4,0,0,0,.8-.2c26.124-9.513,71.564-12.154,108.666-7.94,7.2.812,14.062,1.891,20.383,3.226a126.53,126.53,0,0,1,16.992,4.708l.006-.011c.182.068.369.125.557.176a16.241,16.241,0,0,0,3.674.386,15.7,15.7,0,0,0,12.154-6.162,32.193,32.193,0,0,0,6.094-13.528,54.892,54.892,0,0,0,1.21-12.364c-.3-32.877-5.259-60.132-15.351-81.184M297.516,88.126c19.1,7.15,33.076,20.672,42.361,40.033,9.535,19.877,14.227,45.894,14.5,77.487a47.154,47.154,0,0,1-1.005,10.433,23.675,23.675,0,0,1-4.311,9.836,6.724,6.724,0,0,1-6.957,2.874,137.146,137.146,0,0,0-17.924-4.958c-6.622-1.386-13.755-2.5-21.195-3.351-38.091-4.339-84.972-1.55-112.312,8.309a6.678,6.678,0,0,1-6.957-2.874,23.454,23.454,0,0,1-4.3-9.836,45.812,45.812,0,0,1-1.011-10.433c.284-31.594,4.952-57.61,14.493-77.487,9.314-19.417,23.347-32.974,42.537-40.1a4.4,4.4,0,0,0,2.09-1.636A50.751,50.751,0,0,1,249.97,73.513a27.191,27.191,0,0,1,32.832,0A51.139,51.139,0,0,1,295.279,86.45,4.375,4.375,0,0,0,297.516,88.126Z" transform="translate(1078.564 265.923)" fill="#0b3c69"/>
    <path id="Path_10559" data-name="Path 10559" d="M195.162,218.946c7.678-3.527,17.77-6.082,28.953-7.61-.7,1.664-1.448,3.311-2.249,4.913a73.4,73.4,0,0,1-10.3,15.618l-.165.165-.023.028.011.006-.023.023A44.376,44.376,0,0,1,197.644,242.7a16.806,16.806,0,0,1-6.866,1.772,7.119,7.119,0,0,1-4.833-1.755,12.062,12.062,0,0,1-2.851-4.061c-3.822-8.309,1.675-14.925,12.068-19.707m96.195,13.142a75.218,75.218,0,0,1-12.739-20.752c11.16,1.528,21.257,4.083,28.947,7.61,10.376,4.782,15.885,11.4,12.057,19.707a11.746,11.746,0,0,1-2.845,4.061,7.139,7.139,0,0,1-4.833,1.755,16.849,16.849,0,0,1-6.866-1.772A44.217,44.217,0,0,1,291.357,232.087ZM282.781,94.111a4.374,4.374,0,0,0-8.275-2.84l-.006.028-.068.216c-2.033,6.009-3.936,12.415-5.611,19.088-1.7,6.7-3.18,13.738-4.35,20.973-3.754,23.092-4.248,47.768,1.573,69.707-4.839-.329-9.763-.488-14.681-.488s-9.825.159-14.664.488l.3-1.164c8.973-35.3,1.795-77.624-8.786-108.831a4.369,4.369,0,0,0-8.275,2.806c10.166,29.941,17.083,70.422,8.593,103.884-.363,1.4-.744,2.777-1.153,4.14-13.749,1.584-26.374,4.543-35.83,8.9-15.129,6.946-22.785,17.322-16.385,31.253a20.37,20.37,0,0,0,5.049,7.008,15.624,15.624,0,0,0,10.563,3.89,25.123,25.123,0,0,0,10.5-2.556,53.184,53.184,0,0,0,16.634-12.755h0l.017-.023a3.214,3.214,0,0,0,.222-.267A82.215,82.215,0,0,0,229.7,220.116a94.973,94.973,0,0,0,4.2-9.859c5.708-.477,11.586-.71,17.464-.71s11.762.239,17.481.71a86.136,86.136,0,0,0,15.947,27.573,53.153,53.153,0,0,0,16.657,12.79,25.14,25.14,0,0,0,10.5,2.556,15.682,15.682,0,0,0,10.575-3.89,20.651,20.651,0,0,0,5.038-7.008c6.412-13.931-1.261-24.307-16.368-31.253-9.479-4.367-22.115-7.326-35.864-8.9-6.383-21.32-5.992-46.024-2.243-69.15,1.124-6.895,2.556-13.676,4.208-20.252,1.619-6.435,3.459-12.6,5.4-18.367l.08-.21Z" transform="translate(1093.589 401.895)" fill="#0b3c69"/>
    <path id="Path_10560" data-name="Path 10560" d="M175.473,169.045a13.062,13.062,0,0,0,14.408-21.791l.011-.011c-.045-.04.028,0-.051-.079a5.309,5.309,0,0,1-.608-.767c-1.812-2.624-2.982-6.724-3.413-10.541a13.1,13.1,0,1,0-26.034,2.879c.841,7.519,3.544,16.157,7.911,22.535a32.829,32.829,0,0,0,3.283,4.049,27.283,27.283,0,0,0,4.356,3.652l.011-.017.091.074Zm131.434,84.865a13.094,13.094,0,1,0-1.749-26.13l-.074.006-.125.006a83.652,83.652,0,0,1-12.852-.216,110.851,110.851,0,0,1-14.454-2.363c-25.051-5.776-51.352-20.326-62.682-42.975a13.106,13.106,0,0,0-23.467,11.676c15.186,30.418,48.745,49.551,80.3,56.815a133.736,133.736,0,0,0,17.941,2.879,107.965,107.965,0,0,0,16.742.329l.335-.023Z" transform="translate(1031.878 569.782)" fill="#0b3c69"/>
    <path id="Path_10561" data-name="Path 10561" d="M169.307,203.363a4.359,4.359,0,0,0,3.141,8.133c36.62-14.2,73.04-21.757,109.262-21.984,36.194-.233,72.24,6.861,108.115,21.933a4.356,4.356,0,0,0,3.379-8.03c-36.989-15.544-74.171-22.859-111.534-22.626-37.33.239-74.8,8-112.363,22.575m14.209-95.842a4.376,4.376,0,0,0,3.2,8.144C218.557,103.091,250.2,96.4,281.642,96.2s62.738,6.071,93.923,19.406a4.36,4.36,0,1,0,3.413-8.025c-32.281-13.812-64.743-20.3-97.365-20.1C248.992,87.7,216.285,94.589,183.516,107.521Zm-4.725,31.951a4.364,4.364,0,1,0,3.169,8.133c33.422-13.108,66.668-20.093,99.7-20.3,33.008-.2,65.9,6.338,98.654,20.252a4.364,4.364,0,0,0,3.419-8.03c-33.848-14.4-67.9-21.149-102.107-20.928C247.447,118.805,213.162,126,178.791,139.472Zm-4.748,31.946a4.364,4.364,0,1,0,3.169,8.133c35.03-13.653,69.843-20.928,104.475-21.144,34.609-.216,69.088,6.6,103.384,21.093a4.36,4.36,0,0,0,3.4-8.03c-35.427-14.97-71.03-22-106.809-21.78S210.016,157.39,174.043,171.418ZM241.751,69.334a4.362,4.362,0,0,0,2.766,8.275,120.763,120.763,0,0,1,38-6.662,106.752,106.752,0,0,1,37.511,6.622,4.361,4.361,0,0,0,2.987-8.2,115.542,115.542,0,0,0-40.533-7.139A129.458,129.458,0,0,0,241.751,69.334Z" transform="translate(1063.754 279.842)" fill="#0b3c69"/>
    <rect id="Rectangle_2847" data-name="Rectangle 2847" width="10.721" height="325.873" transform="translate(1339.468)" fill="#0b3c69"/>
    <g id="Group_4121" data-name="Group 4121">
      <path id="Path_10554" data-name="Path 10554" d="M323.8,92.945c-7.139,67.373,66.418,45.048,99.96,138.7,46.507,129.833-69.184,218.48-165.26,218.48-28.936,0-59.609-8.053-87.131-22.808,21.473,8.377,44,12.841,65.555,12.841,96.075,0,211.761-88.63,165.265-218.474-32.582-90.953-102.9-72.518-100.363-133.115A186.983,186.983,0,0,1,323.8,92.945" transform="translate(1086.453 403.089)" fill="#305d7a" fill-rule="evenodd"/>
      <path id="Path_10555" data-name="Path 10555" d="M437.9,154.942c-20.508-13.761-36.273-24.33-33.053-55.361a4.386,4.386,0,0,0-3.192-4.89c-20.417-5.5-48.041-7.94-74.773-7.292-5.3.119-10.473.358-15.4.716C295.847,89.2,281.036,91.4,268.8,94.691h0a4.373,4.373,0,0,0-3.231,4.663c3.305,31.2-12.472,41.788-33.042,55.588-22.177,14.874-49.5,33.2-66.691,81.2-7.485,20.905-10.864,40.788-10.864,59.461h.006c0,37.931,13.937,70.78,35.756,96.967,21.746,26.079,51.3,45.519,82.678,56.752a176.974,176.974,0,0,0,123.608,0c31.372-11.233,60.938-30.679,82.672-56.752,21.825-26.181,35.756-59.036,35.756-96.967h.017c0-18.673-3.385-38.556-10.87-59.461-17.191-48-44.508-66.328-66.7-81.2M395.87,102.227c-2.283,33.473,14.948,45.048,37.187,59.956,21.093,14.158,47.081,31.576,63.312,76.9C503.5,259,506.728,277.9,506.728,295.6h.006c0,35.728-13.136,66.691-33.729,91.384-20.689,24.818-48.91,43.349-78.918,54.1a168.363,168.363,0,0,1-117.73,0c-30.02-10.751-58.24-29.282-78.913-54.1C176.839,362.3,163.7,331.333,163.7,295.6h.023c0-17.7,3.226-36.608,10.347-56.52,16.237-45.326,42.214-62.744,63.323-76.9,22.223-14.908,39.465-26.482,37.188-59.956a231.062,231.062,0,0,1,37.483-5.407c5.066-.358,10.092-.591,15.027-.71C351.492,95.537,376.594,97.57,395.87,102.227Z" transform="translate(1009.732 397.124)" fill="#0b3c69"/>
      <path id="Path_10562" data-name="Path 10562" d="M412.6,90.551c-7.139,67.378,66.413,45.053,99.954,138.7,46.513,129.833-69.178,218.485-165.26,218.485s-211.761-88.653-165.26-218.485c33.53-93.65,107.087-71.325,99.954-138.7,35.921-9.677,94.69-9.677,130.611,0" transform="translate(1086.688 378.388)" fill="#ffd729" fill-rule="evenodd"/>
      <path id="Path_10563" data-name="Path 10563" d="M339.477,88.169c-7.139,67.378,66.413,45.053,99.954,138.7,46.513,129.833-69.179,218.485-165.259,218.485-28.93,0-59.6-8.053-87.125-22.813,21.473,8.383,44,12.846,65.55,12.846,96.075,0,211.767-88.63,165.26-218.485C385.286,125.964,314.971,144.4,317.5,83.8a188.276,188.276,0,0,1,21.979,4.367" transform="translate(1159.809 380.77)" fill="#d0af1f" fill-rule="evenodd"/>
      <path id="Path_10564" data-name="Path 10564" d="M453.588,150.175c-20.513-13.766-36.279-24.335-33.059-55.367a4.376,4.376,0,0,0-3.186-4.884c-20.423-5.5-48.04-7.94-74.773-7.3-5.31.119-10.473.358-15.4.716-15.641,1.085-30.446,3.288-42.685,6.577v.006a4.36,4.36,0,0,0-3.226,4.663c3.3,31.2-12.477,41.788-33.047,55.588-22.183,14.874-49.494,33.195-66.691,81.19-7.479,20.905-10.87,40.794-10.87,59.467h.006c0,37.937,13.937,70.78,35.768,96.967,21.74,26.073,51.295,45.519,82.678,56.752a176.959,176.959,0,0,0,123.6,0c31.378-11.233,60.938-30.679,82.678-56.752,21.825-26.181,35.751-59.03,35.751-96.967h.017c0-18.673-3.379-38.562-10.864-59.467-17.2-48-44.508-66.316-66.7-81.19M411.55,97.455c-2.283,33.473,14.953,45.048,37.188,59.955,21.1,14.153,47.086,31.577,63.318,76.9,7.127,19.917,10.353,38.823,10.353,56.525h.011c0,35.728-13.142,66.691-33.74,91.39-20.678,24.812-48.9,43.349-78.913,54.095a168.381,168.381,0,0,1-117.736,0c-30.009-10.745-58.229-29.282-78.907-54.095-20.6-24.7-33.746-55.662-33.746-91.39h.023c0-17.7,3.226-36.608,10.347-56.525,16.237-45.32,42.214-62.744,63.329-76.9,22.217-14.908,39.459-26.482,37.188-59.955a231.525,231.525,0,0,1,37.477-5.407c5.072-.358,10.092-.591,15.027-.7C367.173,90.765,392.28,92.8,411.55,97.455Z" transform="translate(1083.079 374.8)" fill="#313132"/>
      <path id="Path_10565" data-name="Path 10565" d="M310.944,75.6c40.612,15.084,59.3,57.178,59.865,121.632.187,16.583-6.775,29.833-17.816,27.385-37.108-13.505-111.943-13.505-149.028,0-11.063,2.448-18.014-10.8-17.833-27.385C186.688,132.775,205.4,90.68,246,75.6c18.815-27.118,46.132-27.118,64.948,0" transform="translate(1155.51 247.205)" fill="#3d6a8a" fill-rule="evenodd"/>
      <path id="Path_10566" data-name="Path 10566" d="M188.819,213.318a45.547,45.547,0,0,1-2.686-16.708C186.689,132.156,205.4,90.062,246,74.978c7.587-10.95,16.572-17.475,25.818-19.588,6.775,2.987,13.233,8.542,18.9,16.708,38.431,14.278,56.15,54.14,56.684,115.18.182,15.686-6.423,28.237-16.884,25.931-35.126-12.807-106-12.807-141.117,0-.2.028-.386.074-.579.108" transform="translate(1155.51 247.823)" fill="#6489a6" fill-rule="evenodd"/>
      <path id="Path_10567" data-name="Path 10567" d="M363.414,119.629C353.3,98.547,338.1,83.679,317.344,75.6A58.725,58.725,0,0,0,303.43,61.57a35.769,35.769,0,0,0-42.73,0A58.483,58.483,0,0,0,246.8,75.6c-20.763,8.076-35.961,22.944-46.087,44.025-10.1,21.053-15.056,48.307-15.345,81.184a54.231,54.231,0,0,0,1.221,12.364,31.938,31.938,0,0,0,6.082,13.528,15.429,15.429,0,0,0,15.567,5.821,4.15,4.15,0,0,0,.8-.2c26.119-9.513,71.564-12.153,108.666-7.94,7.2.812,14.056,1.9,20.383,3.226a126.777,126.777,0,0,1,16.992,4.708l.006-.011a4.237,4.237,0,0,0,.557.176,15.863,15.863,0,0,0,3.674.386,15.694,15.694,0,0,0,12.154-6.162,32.119,32.119,0,0,0,6.088-13.528,54.565,54.565,0,0,0,1.21-12.364c-.29-32.877-5.253-60.132-15.351-81.184M313.192,83.35c19.1,7.15,33.076,20.672,42.367,40.033,9.53,19.877,14.221,45.894,14.5,77.487a47.41,47.41,0,0,1-1.011,10.433,23.534,23.534,0,0,1-4.316,9.836,7.256,7.256,0,0,1-5.492,3.01,6.594,6.594,0,0,1-1.46-.136,136.532,136.532,0,0,0-17.929-4.952c-6.616-1.391-13.749-2.5-21.184-3.351-38.09-4.339-84.972-1.556-112.318,8.3a6.578,6.578,0,0,1-1.46.142,7.281,7.281,0,0,1-5.492-3.016,23.389,23.389,0,0,1-4.311-9.836,46.391,46.391,0,0,1-1.017-10.433c.284-31.594,4.964-57.61,14.5-77.487,9.314-19.417,23.347-32.974,42.537-40.1a4.392,4.392,0,0,0,2.1-1.636,50.347,50.347,0,0,1,12.449-12.909,27.152,27.152,0,0,1,32.82,0,50.929,50.929,0,0,1,12.483,12.932A4.4,4.4,0,0,0,313.192,83.35Z" transform="translate(1151.916 243.603)" fill="#313132"/>
      <path id="Path_10568" data-name="Path 10568" d="M210.84,214.176c7.678-3.527,17.77-6.082,28.947-7.616-.693,1.664-1.443,3.305-2.249,4.907a73.12,73.12,0,0,1-10.3,15.618l-.165.17-.017.028.011.011-.023.011a44.236,44.236,0,0,1-13.727,10.62,16.826,16.826,0,0,1-6.872,1.761,7.088,7.088,0,0,1-4.827-1.755,11.849,11.849,0,0,1-2.851-4.049c-3.828-8.314,1.675-14.925,12.068-19.707m96.195,13.13a75.278,75.278,0,0,1-12.75-20.746c11.16,1.533,21.269,4.089,28.953,7.616,10.382,4.782,15.891,11.393,12.063,19.707a11.625,11.625,0,0,1-2.851,4.049,7.092,7.092,0,0,1-4.833,1.755,16.825,16.825,0,0,1-6.866-1.761A44.057,44.057,0,0,1,307.035,227.306ZM298.453,89.341a4.371,4.371,0,0,0-8.269-2.84l-.011.023-.068.216c-2.027,6.014-3.93,12.42-5.605,19.088-1.7,6.7-3.192,13.738-4.356,20.973-3.754,23.1-4.248,47.762,1.579,69.712-4.844-.329-9.768-.488-14.686-.488s-9.825.159-14.664.488l.3-1.164c8.968-35.3,1.8-77.629-8.786-108.837a4.37,4.37,0,0,0-8.275,2.811c10.166,29.941,17.089,70.422,8.6,103.879-.364,1.4-.744,2.783-1.153,4.146-13.749,1.573-26.386,4.538-35.842,8.9-15.124,6.94-22.774,17.316-16.373,31.253a20.45,20.45,0,0,0,5.037,7.014A15.69,15.69,0,0,0,206.45,248.4a25.257,25.257,0,0,0,10.5-2.556,53.4,53.4,0,0,0,16.634-12.756h0l.017-.023a2.4,2.4,0,0,0,.221-.267A82.289,82.289,0,0,0,245.37,215.34a94.477,94.477,0,0,0,4.2-9.859c5.708-.477,11.58-.71,17.464-.71s11.762.239,17.481.71a86.03,86.03,0,0,0,15.947,27.573,53.221,53.221,0,0,0,16.657,12.79,25.3,25.3,0,0,0,10.5,2.556,15.728,15.728,0,0,0,10.58-3.885,20.752,20.752,0,0,0,5.037-7.014c6.406-13.937-1.266-24.313-16.367-31.253-9.484-4.362-22.121-7.326-35.87-8.905-6.389-21.32-5.992-46.024-2.238-69.15,1.119-6.895,2.556-13.676,4.208-20.246,1.619-6.44,3.453-12.608,5.4-18.367l.079-.216Z" transform="translate(1166.945 379.575)" fill="#313132"/>
      <path id="Path_10569" data-name="Path 10569" d="M251.044,114.5c-5.06-2.624-1.045-10.382,4.044-7.758l6.707,3.493c5.055,2.618,1.039,10.387-4.043,7.758Zm-1.38,99.653c-5.639-.534-4.822-9.223.858-8.689l43.52,4.362c5.645.522,4.833,9.212-.846,8.672Zm-34.814-3.493c-5.64-.517-4.827-9.212.858-8.672l8.706.863c5.645.528,4.833,9.217-.863,8.689Zm-69.639-6.957c-5.639-.54-4.827-9.212.858-8.689l43.526,4.362c5.651.534,4.827,9.206-.858,8.672Zm115.01,108.189c-5.316,1.959-8.309-6.236-2.948-8.2l41.14-14.845c5.316-1.942,8.309,6.241,2.948,8.2ZM229.06,323.134c-5.316,1.948-8.3-6.241-2.936-8.2l6.463-2.34c5.316-1.942,8.3,6.236,2.947,8.212Zm88.107,80.821c-3.924,4.112-10.234-1.925-6.287-6.043l30.265-31.571c3.93-4.112,10.234,1.925,6.287,6.048Zm-24.222,25.261c-3.93,4.106-10.223-1.925-6.287-6.048l6.054-6.315c3.924-4.106,10.228,1.931,6.293,6.043Zm-48.432,50.517c-3.93,4.106-10.228-1.925-6.287-6.054L268.5,442.1c3.924-4.095,10.228,1.942,6.281,6.06ZM396.7,448.912c-2.476,5.128-10.331,1.352-7.866-3.76L407.722,405.7c2.476-5.123,10.336-1.34,7.86,3.76Zm87.119,23.432c0,5.679-8.712,5.64-8.712-.068l.437-43.736c0-5.651,8.706-5.645,8.706.068Zm-.369,34.99c0,5.662-8.706,5.651-8.706-.062l.085-8.752c0-5.639,8.718-5.639,8.718.074Zm-.63,62.227c0,5.651-8.706,5.634-8.706-.074l.358-35.972c0-5.651,8.723-5.645,8.723.068Zm85.62-113.743c1.766,5.458-6.554,8.15-8.3,2.754l-13.71-41.549c-1.766-5.446,6.548-8.127,8.3-2.726Zm81.7-38.159c3.924,4.117-2.232,10.115-6.258,6.082l-30.548-31.293c-3.936-4.112,2.215-10.115,6.258-6.082ZM674.572,442.7c3.936,4.1-2.221,10.115-6.253,6.082l-6.105-6.253c-3.93-4.117,2.209-10.126,6.247-6.094Zm48.875,50.079c3.941,4.106-2.2,10.115-6.236,6.082l-30.554-31.3c-3.93-4.112,2.215-10.126,6.247-6.088Zm-22.762-134.7c5.026,2.681,1.017,10.325-4.027,7.718L657.92,345.488c-5.015-2.7-1.005-10.342,4.038-7.741ZM723.3,285.646c5.594,1.056,4,9.615-1.579,8.581l-43-7.962c-5.611-1.051-4.01-9.632,1.562-8.576Zm34.4,6.372c5.611,1.039,4.015,9.621-1.567,8.57l-8.6-1.59c-5.606-1.051-4.015-9.621,1.573-8.576Zm68.821,12.739c5.594,1.039,4,9.621-1.579,8.576l-43-7.968c-5.606-1.045-4-9.615,1.562-8.587ZM724.855,214.61c5.628-.7,6.7,7.974,1.017,8.678l-43.418,5.242c-5.64.7-6.707-7.962-1.028-8.684Zm34.734-4.191c5.639-.7,6.707,7.968,1.028,8.684l-8.683,1.045c-5.634.7-6.713-7.979-1.028-8.689Zm-55.668-77.084c5.253-2.272,8.729,5.742,3.521,7.991l-40.027,17.634c-5.248,2.277-8.729-5.736-3.521-8Zm32.019-14.107c5.248-2.277,8.735,5.742,3.521,8l-8.008,3.521c-5.236,2.266-8.723-5.742-3.515-8Zm60.3-26.556c5.248-2.283,8.735,5.742,3.515,7.985l-36.285,15.993c-5.242,2.266-8.723-5.736-3.515-8ZM323.857,142.563c5.06,2.618,1.039,10.376-4.027,7.758l-38.789-20.207c-5.072-2.618-1.051-10.376,4.032-7.752Z" transform="translate(946.079 420.378)" fill="#fff"/>
      <path id="Path_10570" data-name="Path 10570" d="M191.158,164.27a13.062,13.062,0,0,0,14.408-21.791l.011-.011c-.051-.034.023,0-.057-.074a6.14,6.14,0,0,1-.6-.767c-1.812-2.635-2.987-6.73-3.425-10.541a13.1,13.1,0,0,0-26.034,2.874c.852,7.525,3.55,16.157,7.923,22.535a31.945,31.945,0,0,0,3.283,4.044,26.863,26.863,0,0,0,4.356,3.663l.006-.023.091.074Zm131.429,84.87A13.1,13.1,0,1,0,320.843,223l-.079.006-.119.006a83.617,83.617,0,0,1-12.852-.21,111.941,111.941,0,0,1-14.459-2.368c-25.045-5.776-51.351-20.326-62.676-42.969a13.109,13.109,0,1,0-23.478,11.671c15.2,30.424,48.75,49.557,80.31,56.815a135.484,135.484,0,0,0,17.941,2.885,109.3,109.3,0,0,0,16.737.329l.335-.028Z" transform="translate(1105.227 547.461)" fill="#e3c027"/>
      <path id="Path_10571" data-name="Path 10571" d="M184.977,198.6a4.358,4.358,0,0,0,3.152,8.127c36.614-14.2,73.04-21.751,109.257-21.984,36.2-.233,72.245,6.861,108.115,21.933a4.356,4.356,0,0,0,3.379-8.03c-36.989-15.544-74.171-22.859-111.528-22.626-37.335.239-74.8,8.008-112.375,22.581m14.215-95.848a4.377,4.377,0,0,0,3.209,8.144c31.832-12.574,63.482-19.264,94.922-19.468s62.738,6.071,93.917,19.406a4.358,4.358,0,1,0,3.413-8.019c-32.275-13.818-64.737-20.3-97.359-20.1S231.967,89.818,199.192,102.749Zm-4.731,31.957a4.364,4.364,0,1,0,3.18,8.127c33.417-13.108,66.663-20.093,99.7-20.3,33.013-.2,65.9,6.338,98.654,20.252a4.363,4.363,0,1,0,3.413-8.03c-33.848-14.391-67.889-21.149-102.1-20.928C263.123,114.04,228.844,121.224,194.462,134.706Zm-4.748,31.946a4.363,4.363,0,1,0,3.175,8.127c35.029-13.647,69.843-20.922,104.481-21.144,34.6-.216,69.082,6.6,103.385,21.1a4.357,4.357,0,0,0,3.385-8.03c-35.416-14.976-71.024-22.007-106.8-21.785S225.692,152.619,189.714,166.652Zm67.708-102.09a4.364,4.364,0,0,0,2.777,8.275,120.738,120.738,0,0,1,38-6.662A106.9,106.9,0,0,1,335.71,72.8a4.36,4.36,0,1,0,2.982-8.2,115.641,115.641,0,0,0-40.527-7.139A129.662,129.662,0,0,0,257.421,64.562Z" transform="translate(1137.105 257.517)" fill="#313132"/>
      <rect id="Rectangle_2848" data-name="Rectangle 2848" width="10.72" height="298.78" transform="translate(1428.5)" fill="#313132"/>
    </g>
  </g>
</svg>
