<svg xmlns="http://www.w3.org/2000/svg" width="585.846" height="308.166" viewBox="0 0 585.846 308.166">
  <g id="Group_4123" data-name="Group 4123" transform="translate(-126 -286.708)">
    <g id="Group_4120" data-name="Group 4120" transform="translate(103.848 223.408)">
      <path id="Path_10549" data-name="Path 10549" d="M578.132,165.891q0-12.512-6.341-19.693c-4.23-4.818-10.012-7.222-17.289-7.222-7.516,0-13.4,2.4-17.629,7.158q-6.346,7.185-6.332,19.758c0,8.4,2.065,14.967,6.24,19.62q6.249,7.048,17.519,7.029,11.219,0,17.528-7.029c4.2-4.653,6.3-11.223,6.3-19.62m24.8,45.783q0,14.908-1.771,20.969a24.4,24.4,0,0,1-6.1,10.471,36.5,36.5,0,0,1-15.784,9.819c-6.405,2.12-14.178,3.175-23.364,3.175q-23,0-34.9-7.323-11.948-7.282-12.994-22.18h30.1a10.364,10.364,0,0,0,4.992,8.076c2.882,1.734,7.149,2.588,12.8,2.588q11.177,0,16.105-5.772c3.313-3.845,4.965-10.278,4.965-19.235v-13.49a36.232,36.232,0,0,1-13.233,13,37.581,37.581,0,0,1-18.308,4.23q-19.45,0-31.054-13.618-11.659-13.586-11.645-36.661,0-23.483,11.352-36.753,11.329-13.242,31.348-13.26a35.09,35.09,0,0,1,18.308,4.754,38.382,38.382,0,0,1,13.426,13.976V118.9h25.759Zm-198.632,1.542V118.9H431.12V133.69c4.955-6.13,10.232-10.691,15.913-13.618a40.726,40.726,0,0,1,18.9-4.359q10.971,0,18.409,3.707a27.427,27.427,0,0,1,11.783,11.287,29.81,29.81,0,0,1,3.019,8.892,92.993,92.993,0,0,1,.918,15.527v58.089h-27.4V166.58c0-11.581-1.349-19.262-4.038-22.979s-7.323-5.57-13.848-5.57a23.133,23.133,0,0,0-10.434,2.358,21.921,21.921,0,0,0-11.517,14.38c-.762,2.882-1.12,7.25-1.12,13.159v45.287Zm-37.661,0V118.9h27.3v94.319ZM364.212,80.162A16.138,16.138,0,0,1,380.2,64.185a15.675,15.675,0,0,1,11.379,4.662,15.833,15.833,0,0,1,0,22.639A15.591,15.591,0,0,1,380.2,96.212a15.163,15.163,0,0,1-11.26-4.818A15.473,15.473,0,0,1,364.212,80.162ZM231.047,213.216H203.636V118.9h27.411V133.69q6.745-9.292,14.38-13.646a34.449,34.449,0,0,1,17.353-4.331q11.714,0,19.069,4.827c4.928,3.175,8.369,8.03,10.434,14.5a47.06,47.06,0,0,1,14.876-14.472,35.312,35.312,0,0,1,18.207-4.854c6.662,0,12.306,1.248,16.968,3.707a25.37,25.37,0,0,1,10.829,11.095,33.019,33.019,0,0,1,2.891,9.149,103.009,103.009,0,0,1,.853,15.463v58.089h-27.4V166.58c0-11.453-1.184-19.1-3.515-22.878s-6.433-5.671-12.269-5.671q-10.544,0-15.325,7.874c-3.194,5.249-4.763,13.848-4.763,25.768v41.543h-27.4V166.58q0-16.642-3.285-22.483c-2.166-3.937-5.91-5.873-11.223-5.873-7.25,0-12.508,2.625-15.793,7.947q-4.873,7.915-4.882,25.5ZM200.8,166.378q0,21.722-14.866,36.175-14.811,14.412-37.643,14.408-22.933,0-37.873-14.408-14.908-14.44-14.9-36.175c0-14.4,4.992-26.484,15-36.166s22.612-14.5,37.772-14.5q22.891,0,37.707,14.334T200.8,166.378Zm-27.9-.165q0-11.563-6.727-18.436c-4.5-4.57-10.5-6.864-18.051-6.864-7.58,0-13.554,2.267-17.987,6.828s-6.626,10.7-6.626,18.473c0,7.69,2.193,13.82,6.626,18.455s10.406,6.919,17.987,6.919q11.232,0,18.023-6.919C170.637,180.033,172.9,173.9,172.9,166.213ZM98.36,210.426a44.745,44.745,0,0,1-11.728,4.955,54.39,54.39,0,0,1-13.481,1.578q-22.3,0-36.331-14.178t-14.05-36.891q0-22.2,14.151-36.2,14.123-13.972,36.625-13.976A57.758,57.758,0,0,1,87,117.154a42.27,42.27,0,0,1,11.361,4.533l-.2,27.494a30.251,30.251,0,0,0-22.024-9.25c-7.681,0-13.811,2.358-18.436,7.057-4.634,4.726-6.928,10.957-6.928,18.711,0,7.938,2.368,14.27,7.057,19q7.089,7.048,19.1,7.057a27.568,27.568,0,0,0,11.792-2.4,28.6,28.6,0,0,0,9.443-7.479Z" transform="translate(5.061 7.236)" fill="#313132"/>
      <path id="Path_10550" data-name="Path 10550" d="M453.74,207.19q0-9.5,7.947-16.252a28.744,28.744,0,0,1,19.262-6.727c7.608,0,14.1,2.239,19.427,6.727q7.97,6.759,7.975,16.252,0,9.594-7.947,16.344-7.915,6.745-19.455,6.727c-7.617,0-14.086-2.23-19.335-6.727s-7.874-9.948-7.874-16.344m3.377-33.835V80.569h47.692v92.786ZM335.075,187.139V87.727h46.838v13.756a43.3,43.3,0,0,1,13.848-12.765,34.714,34.714,0,0,1,17.1-4.175c10.608,0,18.968,3.221,25.144,9.617q9.292,9.608,9.287,26.255v66.724H399.01V136.96c0-4.955-.532-8.342-1.542-10.2s-2.826-2.8-5.387-2.8a7.27,7.27,0,0,0-6.424,3.285c-1.477,2.166-2.2,5.414-2.2,9.718v50.179Zm.4-49.426a49.939,49.939,0,0,1-4.79,21.428,54.73,54.73,0,0,1-31.6,28.228,69.256,69.256,0,0,1-43.314.064,55.851,55.851,0,0,1-17.987-10.305,52.592,52.592,0,0,1-13.692-17.821,50.471,50.471,0,0,1,0-43.2A53.829,53.829,0,0,1,237.783,98.3,55.851,55.851,0,0,1,255.77,87.993a69.083,69.083,0,0,1,43.314.064A56.226,56.226,0,0,1,317.1,98.3a52.407,52.407,0,0,1,13.591,17.785A50.827,50.827,0,0,1,335.479,137.713ZM277.4,151.267a10.68,10.68,0,0,0,8.461-3.744,14.283,14.283,0,0,0,3.285-9.81c0-4.1-1.083-7.387-3.221-9.847a11.74,11.74,0,0,0-17.124,0c-2.138,2.459-3.221,5.745-3.221,9.847s1.083,7.387,3.221,9.847A10.868,10.868,0,0,0,277.4,151.267Zm-53.161-13.554a49.938,49.938,0,0,1-4.79,21.428,54.729,54.729,0,0,1-31.6,28.228,69.256,69.256,0,0,1-43.314.064,55.85,55.85,0,0,1-17.987-10.305,52.592,52.592,0,0,1-13.692-17.821,50.47,50.47,0,0,1,0-43.2A53.829,53.829,0,0,1,126.542,98.3a55.85,55.85,0,0,1,17.987-10.306,69.082,69.082,0,0,1,43.314.064A56.323,56.323,0,0,1,205.857,98.3a52.522,52.522,0,0,1,13.591,17.785A50.827,50.827,0,0,1,224.238,137.713Zm-58.089,13.554a10.686,10.686,0,0,0,8.47-3.744c2.2-2.5,3.276-5.772,3.276-9.81q0-6.153-3.212-9.847a11.751,11.751,0,0,0-17.133,0c-2.129,2.459-3.221,5.745-3.221,9.847s1.092,7.387,3.221,9.847A10.894,10.894,0,0,0,166.149,151.267ZM22.771,180.018l12.8-30.687a87.952,87.952,0,0,0,14.609,8.177,30.172,30.172,0,0,0,11.352,2.781,9.748,9.748,0,0,0,5.846-1.477,4.952,4.952,0,0,0,2.037-4.194c0-2.5-2.863-4.341-8.571-5.488-1.909-.358-3.414-.688-4.5-.945-9.388-2.3-16.179-5.708-20.446-10.241S29.5,127.435,29.5,120.02q0-15.651,13.031-25.557,13.049-9.9,34-9.92a99.558,99.558,0,0,1,20.06,1.973,79.814,79.814,0,0,1,17.913,5.9l-11.811,29.9a75.654,75.654,0,0,0-12.113-6.754,24.739,24.739,0,0,0-9.324-2.267,9.115,9.115,0,0,0-5.286,1.386,4.345,4.345,0,0,0-2.028,3.707c0,2.5,3.772,4.561,11.352,6.167,1.771.358,3.184.688,4.2.945q14.522,3.455,21.364,10.14,6.841,6.7,6.828,17.463c0,11.159-4.5,20.216-13.453,27.246q-13.5,10.53-35.578,10.526A100.37,100.37,0,0,1,45.1,188.121,102.367,102.367,0,0,1,22.771,180.018Z" transform="translate(5.061 141.205)" fill="#313132"/>
      <path id="Path_10551" data-name="Path 10551" d="M577.5,165.006q0-12.5-6.332-19.693c-4.231-4.818-10.012-7.213-17.289-7.213q-11.287,0-17.629,7.158-6.346,7.185-6.332,19.748c0,8.406,2.065,14.967,6.24,19.629q6.249,7.034,17.518,7.02,11.219,0,17.528-7.02c4.194-4.662,6.3-11.223,6.3-19.629m24.814,45.783q0,14.921-1.771,20.969a24.49,24.49,0,0,1-6.1,10.471,36.48,36.48,0,0,1-15.793,9.819q-9.594,3.194-23.364,3.175-22.974,0-34.881-7.314-11.962-7.282-13-22.189h30.1a10.335,10.335,0,0,0,4.992,8.076c2.882,1.744,7.149,2.6,12.792,2.6q11.177,0,16.114-5.781c3.313-3.836,4.955-10.269,4.955-19.225V197.9a36.113,36.113,0,0,1-13.224,12.994q-7.722,4.24-18.317,4.23-19.436,0-31.045-13.618-11.659-13.586-11.645-36.661,0-23.47,11.352-36.753,11.329-13.242,31.339-13.26a35.1,35.1,0,0,1,18.317,4.763,38.313,38.313,0,0,1,13.426,13.976V118.012h25.759Zm-198.641,1.542V118.012h26.815v14.8c4.965-6.139,10.241-10.7,15.922-13.618a40.7,40.7,0,0,1,18.9-4.368q10.971,0,18.409,3.707a27.5,27.5,0,0,1,11.783,11.3,29.982,29.982,0,0,1,3.019,8.892,92.925,92.925,0,0,1,.918,15.527v58.08h-27.4V165.7c0-11.59-1.349-19.271-4.038-22.979s-7.323-5.579-13.857-5.579a23.2,23.2,0,0,0-10.434,2.368A22.008,22.008,0,0,0,432.2,153.884c-.753,2.891-1.11,7.259-1.11,13.16v45.287Zm-37.662,0V118.012h27.31v94.319ZM363.584,79.286a16.154,16.154,0,0,1,16-15.986,15.675,15.675,0,0,1,11.379,4.662,15.844,15.844,0,0,1,0,22.648,15.627,15.627,0,0,1-11.379,4.726,15.143,15.143,0,0,1-11.26-4.827A15.462,15.462,0,0,1,363.584,79.286ZM230.428,212.331H203.017V118.012h27.411v14.8q6.731-9.305,14.38-13.655a34.543,34.543,0,0,1,17.353-4.331q11.714,0,19.069,4.827c4.919,3.184,8.369,8.039,10.434,14.509a47,47,0,0,1,14.876-14.481,35.336,35.336,0,0,1,18.207-4.854c6.662,0,12.306,1.248,16.968,3.707a25.467,25.467,0,0,1,10.829,11.095,32.686,32.686,0,0,1,2.891,9.158,103.018,103.018,0,0,1,.853,15.463v58.08h-27.4V165.7c0-11.453-1.184-19.106-3.515-22.878s-6.433-5.68-12.279-5.68q-10.53,0-15.325,7.883-4.776,7.874-4.754,25.759v41.543h-27.4V165.7q0-16.642-3.285-22.483c-2.166-3.937-5.91-5.882-11.223-5.882-7.259,0-12.508,2.634-15.793,7.947q-4.873,7.929-4.882,25.5ZM200.182,165.5q0,21.708-14.866,36.166-14.825,14.412-37.643,14.408-22.933,0-37.873-14.408Q94.892,187.242,94.9,165.5q0-21.611,15-36.166,15-14.522,37.772-14.508,22.891,0,37.707,14.343T200.182,165.5Zm-27.9-.165q0-11.563-6.727-18.445c-4.5-4.561-10.5-6.855-18.051-6.855-7.58,0-13.554,2.267-17.986,6.818-4.423,4.57-6.626,10.7-6.626,18.482q0,11.521,6.626,18.445c4.432,4.625,10.406,6.928,17.986,6.928q11.219,0,18.014-6.928Q172.28,176.844,172.284,165.337Zm-74.543,44.2A44.261,44.261,0,0,1,86.013,214.5a53.96,53.96,0,0,1-13.481,1.578q-22.3,0-36.331-14.178t-14.05-36.891q0-22.189,14.151-36.193,14.123-13.986,36.625-13.985a57.245,57.245,0,0,1,13.453,1.45A42.248,42.248,0,0,1,97.741,120.8l-.2,27.5a30.252,30.252,0,0,0-22.024-9.25q-11.508,0-18.436,7.048c-4.634,4.726-6.928,10.966-6.928,18.711q0,11.921,7.057,19,7.089,7.048,19.1,7.057a27.526,27.526,0,0,0,11.783-2.386,28.686,28.686,0,0,0,9.452-7.488Z" transform="translate(0 0)" fill="#fff"/>
      <path id="Path_10552" data-name="Path 10552" d="M453.121,206.306c0-6.341,2.661-11.755,7.938-16.252a28.738,28.738,0,0,1,19.271-6.727c7.608,0,14.1,2.23,19.427,6.727s7.975,9.911,7.975,16.252q0,9.594-7.947,16.344-7.929,6.731-19.455,6.717c-7.617,0-14.086-2.23-19.336-6.717s-7.874-9.948-7.874-16.344m3.377-33.844V79.685H504.19v92.777ZM334.456,186.246v-99.4h46.838V100.59a43.409,43.409,0,0,1,13.848-12.765,34.783,34.783,0,0,1,17.1-4.166q15.9,0,25.135,9.617,9.305,9.594,9.3,26.246v66.724H398.391V136.067c0-4.956-.532-8.333-1.542-10.2s-2.826-2.79-5.387-2.79a7.276,7.276,0,0,0-6.433,3.285c-1.468,2.156-2.193,5.405-2.193,9.709v50.179Zm.413-49.417a49.978,49.978,0,0,1-4.8,21.428,54.671,54.671,0,0,1-31.6,28.219,69.169,69.169,0,0,1-43.314.073,55.754,55.754,0,0,1-17.987-10.306,52.477,52.477,0,0,1-13.692-17.821,50.471,50.471,0,0,1,0-43.2,53.743,53.743,0,0,1,13.692-17.821A55.754,55.754,0,0,1,255.151,87.1a69.256,69.256,0,0,1,43.314.064,56.539,56.539,0,0,1,18.023,10.241A52.442,52.442,0,0,1,330.07,115.2,50.776,50.776,0,0,1,334.869,136.829Zm-58.1,13.545a10.679,10.679,0,0,0,8.47-3.735,14.344,14.344,0,0,0,3.285-9.81c0-4.111-1.092-7.387-3.221-9.856a11.771,11.771,0,0,0-17.133,0c-2.129,2.469-3.212,5.745-3.212,9.856,0,4.093,1.083,7.378,3.212,9.838A10.865,10.865,0,0,0,276.771,150.374Zm-53.152-13.545a49.844,49.844,0,0,1-4.8,21.428,54.691,54.691,0,0,1-31.6,28.219,69.2,69.2,0,0,1-43.324.073,55.851,55.851,0,0,1-17.987-10.306,52.565,52.565,0,0,1-13.683-17.821,50.47,50.47,0,0,1,0-43.2,53.835,53.835,0,0,1,13.683-17.821A55.851,55.851,0,0,1,143.9,87.1a69.284,69.284,0,0,1,43.324.064,56.5,56.5,0,0,1,18.014,10.241A52.326,52.326,0,0,1,218.82,115.2,50.64,50.64,0,0,1,223.619,136.829ZM165.53,150.374a10.691,10.691,0,0,0,8.47-3.735,14.339,14.339,0,0,0,3.276-9.81c0-4.111-1.083-7.387-3.212-9.856a11.771,11.771,0,0,0-17.133,0c-2.138,2.469-3.221,5.745-3.221,9.856,0,4.093,1.083,7.378,3.221,9.838A10.865,10.865,0,0,0,165.53,150.374ZM22.152,179.125l12.8-30.687a87.96,87.96,0,0,0,14.609,8.177,30.032,30.032,0,0,0,11.352,2.79,9.813,9.813,0,0,0,5.846-1.477,4.973,4.973,0,0,0,2.028-4.2c0-2.487-2.854-4.331-8.562-5.479-1.909-.367-3.414-.688-4.5-.954-9.388-2.294-16.179-5.708-20.446-10.232s-6.4-10.507-6.4-17.922q0-15.665,13.022-25.567,13.049-9.9,34-9.911a99.411,99.411,0,0,1,20.051,1.964,80.219,80.219,0,0,1,17.922,5.91l-11.82,29.9a75.221,75.221,0,0,0-12.1-6.754,24.778,24.778,0,0,0-9.324-2.267,9.115,9.115,0,0,0-5.286,1.377,4.354,4.354,0,0,0-2.037,3.707q0,3.744,11.361,6.176c1.771.358,3.184.679,4.2.945q14.522,3.441,21.364,10.14t6.828,17.463q0,16.738-13.453,27.237-13.49,10.53-35.578,10.535a100.5,100.5,0,0,1-23.566-2.762A101.818,101.818,0,0,1,22.152,179.125Z" transform="translate(0 133.977)" fill="#ffd729"/>
    </g>
  </g>
</svg>
