<svg xmlns="http://www.w3.org/2000/svg" width="2939.151" height="295.939" viewBox="0 0 2939.151 295.939">
  <path id="Path_3489" data-name="Path 3489" d="M619.589,2433.025s-58.057-47.4-161.543-45.7S304.915,2501.6,284.5,2526.134s-84.444-13.418-122.429,8.786-63.328,121.055-94.547,90.452-31.812-41.035-20.866-47.332,49.881-17.994,52.32-20.518-11.577-9.5-11.2-15.657,30.165-69.819,25.027-85.214-9.963,1.085-13.831-2.595-17.136-45.432-17.136-45.432-7.932,4.448-15.439,17.452-29.937,6.657-32.515,0-2.87,39.521-12.405,40.467S-7.441,2402.4-8.5,2400.474s-7.044,1.833-8.7,5.085-7.4,15.21-14.676,12.848-45.579-30.858-46.641-30.659,2.748,56.472,0,58.443-26.9,2.427-27.628,4.446,45.5,58.777,42.557,61.853-26.777-2.15-37.33-8.416,2.412,16.333-9.194,21.449-34.167,7.593-34.565,8.456,29.537,34.318,27.627,39.211-8.778,11.7-7.185,13.061,38.641,16.594,64.065,16.941,29.494,24.49,29.83,25.95,26.679-24.525,36.191-28.357,18.244-9.823,24.85,0,18.065,33.98,15.952,40.395S31.7,2686.638-60.171,2664.193s-88.778-38.4-161.265-86.153-94.428-68.754-206.128-20.518-158.3,83.53-306.75,28.731-162.177-38.512-423.674,16.941-428.68-109.817-560.141-77.06-600.11,154.134-600.11,154.134" transform="translate(2318.613 -2385.781)" fill="none" stroke="#ffd729" stroke-width="3"/>
</svg>
