<?xml version="1.0" encoding="UTF-8"?><svg xmlns="http://www.w3.org/2000/svg" viewBox="100 0 1600 500">
    <defs>
        <style>
            .cls-1 {
                fill: #fff;
            }

            .cls-2 {
                fill: #ffd729;
            }

            .cls-3 {
                fill: #454545;
            }

            .cls-4 {
                fill: #0b315e;
                opacity: .3;
            }
        </style>
    </defs>
    <path class="cls-4"
        d="M881.13,1058.57c1.84,.01,3.19-1.31,3.21-3.14,.01-1.84-1.32-3.19-3.14-3.21-1.84-.01-3.18,1.31-3.19,3.14-.01,1.85,1.29,3.19,3.13,3.2Z" />
    <g>
        <path class="cls-3"
            d="M427.91,149.59c6.16,0,10.6-1.54,13.2-3.55v-21.61h-15.51v5.98h8.88v11.66c-1.48,.89-3.32,1.3-6.1,1.3-9.35,0-12.49-6.45-12.49-16.69s2.96-16.69,13.08-16.69c4.56,0,7.52,1.72,9,2.9l2.9-4.97c-1.78-1.54-5.86-4.14-12.43-4.14-14.27,0-19.36,9.29-19.42,22.91,0,13.38,4.68,22.91,18.88,22.91Z" />
        <path class="cls-3"
            d="M460.17,149.59c10.54,0,13.14-6.39,13.14-15.51s-2.6-15.51-13.14-15.51-13.14,6.39-13.14,15.51,2.6,15.51,13.14,15.51Zm0-5.56c-5.62,0-6.45-3.61-6.45-9.95s.83-9.95,6.45-9.95,6.45,3.61,6.45,9.95-.83,9.95-6.45,9.95Z" />
        <path class="cls-3"
            d="M491.55,124.19c3.14,0,5.21,1.07,6.39,1.72v16.34c-1.18,.65-3.26,1.72-6.39,1.72-5.8,0-6.69-4.38-6.69-9.89s.89-9.89,6.69-9.89Zm-1.54-5.62c-8.64,0-11.84,5.86-11.84,15.51s3.2,15.51,11.84,15.51c3.97,0,6.99-1.18,9.59-3.08l1.07,2.37h3.91v-44.4h-6.63v16.4c-2.13-1.36-4.97-2.31-7.93-2.31Z" />
        <path class="cls-3"
            d="M516.77,127.92c0-2.66,2.19-3.79,5.68-3.79,3.73,0,5.51,1.18,6.93,2.25l2.66-4.68c-1.36-1.42-4.68-3.14-9.71-3.14-8.7,0-12.02,4.44-12.02,9.53s2.19,7.76,11.13,8.52c3.97,.36,4.91,1.36,4.91,3.55,0,2.6-2.31,3.79-6.28,3.79-3.73,0-5.98-1.07-7.52-2.49l-2.78,4.8c1.95,1.84,5.86,3.32,10.95,3.32,9,0,12.14-4.56,12.14-9.65,0-5.51-2.31-8.05-11.19-8.82-3.85-.36-4.91-1.12-4.91-3.2Z" />
        <path class="cls-3"
            d="M551.64,143.96c-3.14,0-5.21-1.07-6.39-1.72v-16.34c1.18-.65,3.26-1.72,6.39-1.72,5.8,0,6.69,4.38,6.69,9.89s-.89,9.89-6.69,9.89Zm1.54,5.62c8.64,0,11.84-5.86,11.84-15.51s-3.2-15.51-11.84-15.51c-3.97,0-6.99,1.18-9.59,3.08l-1.07-2.37h-3.91v44.4h6.63v-16.4c2.13,1.36,4.97,2.31,7.93,2.31Z" />
        <path class="cls-3"
            d="M583.01,124.31c5.15,0,5.39,3.55,5.39,7.58h-11.84c.24-4.44,1.6-7.58,6.45-7.58Zm1.01,19.54c-5.74,0-7.34-2.9-7.46-7.34h18.41c.06-.95,.12-1.89,.12-2.9,0-8.17-1.66-15.04-12.08-15.04-9.65,0-13.14,5.98-13.14,15.51,0,8.94,2.96,15.51,14.21,15.51,5.03,0,8.88-1.84,11.19-3.79l-2.66-4.74c-1.66,1.36-4.74,2.78-8.58,2.78Z" />
        <path class="cls-3"
            d="M613.2,124.31c5.15,0,5.39,3.55,5.39,7.58h-11.84c.24-4.44,1.6-7.58,6.45-7.58Zm1.01,19.54c-5.74,0-7.34-2.9-7.46-7.34h18.41c.06-.95,.12-1.89,.12-2.9,0-8.17-1.66-15.04-12.08-15.04-9.65,0-13.14,5.98-13.14,15.51,0,8.94,2.96,15.51,14.21,15.51,5.03,0,8.88-1.84,11.19-3.79l-2.66-4.74c-1.66,1.36-4.74,2.78-8.58,2.78Z" />
        <path class="cls-3"
            d="M643.63,124.19c3.14,0,5.21,1.07,6.39,1.72v16.34c-1.18,.65-3.26,1.72-6.39,1.72-5.8,0-6.69-4.38-6.69-9.89s.89-9.89,6.69-9.89Zm-1.54-5.62c-8.64,0-11.84,5.86-11.84,15.51s3.2,15.51,11.84,15.51c3.97,0,6.99-1.18,9.59-3.08l1.07,2.37h3.91v-44.4h-6.63v16.4c-2.13-1.36-4.97-2.31-7.93-2.31Z" />
        <path class="cls-3"
            d="M694.78,149.59c6.16,0,10.6-1.54,13.2-3.55v-21.61h-15.51v5.98h8.88v11.66c-1.48,.89-3.32,1.3-6.1,1.3-9.35,0-12.49-6.45-12.49-16.69s2.96-16.69,13.08-16.69c4.56,0,7.52,1.72,9,2.9l2.9-4.97c-1.78-1.54-5.86-4.14-12.43-4.14-14.27,0-19.36,9.29-19.42,22.91,0,13.38,4.68,22.91,18.88,22.91Z" />
        <path class="cls-3"
            d="M732.84,119.22c-.65-.3-2.25-.65-3.79-.65-3.79,0-7.16,1.3-9.35,3.08l-1.07-2.37h-3.91v29.6h6.63v-22.85c1.95-1.07,4.08-1.78,7.58-1.78,1.07,0,2.55,.3,3.08,.53l.83-5.56Z" />
        <path class="cls-3"
            d="M748.71,149.59c10.54,0,13.14-6.39,13.14-15.51s-2.6-15.51-13.14-15.51-13.14,6.39-13.14,15.51,2.6,15.51,13.14,15.51Zm0-5.56c-5.62,0-6.45-3.61-6.45-9.95s.83-9.95,6.45-9.95,6.45,3.61,6.45,9.95-.83,9.95-6.45,9.95Z" />
        <path class="cls-3"
            d="M767.3,119.28v20.9c0,5.68,2.66,9.41,10.18,9.41,3.2,0,6.57-1.01,9.59-3.08l1.07,2.37h3.91v-29.6h-6.63v22.97c-1.6,.89-3.73,1.72-6.81,1.72s-4.68-1.36-4.68-4.38v-20.31h-6.63Z" />
        <path class="cls-3"
            d="M811.58,143.96c-3.14,0-5.21-1.07-6.39-1.72v-16.34c1.18-.65,3.26-1.72,6.39-1.72,5.8,0,6.69,4.38,6.69,9.89s-.89,9.89-6.69,9.89Zm1.54,5.62c8.64,0,11.84-5.86,11.84-15.51s-3.2-15.51-11.84-15.51c-3.97,0-6.99,1.18-9.59,3.08l-1.07-2.37h-3.91v44.4h6.63v-16.4c2.13,1.36,4.97,2.31,7.93,2.31Z" />
    </g>
    <rect class="cls-3" x="864.97" y="104.48" width="6.63" height="44.4" />
    <path class="cls-3"
        d="M885.09,127.92c0-2.66,2.19-3.79,5.68-3.79,3.73,0,5.51,1.18,6.93,2.25l2.66-4.68c-1.36-1.42-4.68-3.14-9.71-3.14-8.7,0-12.02,4.44-12.02,9.53s2.19,7.76,11.13,8.52c3.97,.36,4.91,1.36,4.91,3.55,0,2.6-2.31,3.79-6.28,3.79-3.73,0-5.98-1.07-7.52-2.49l-2.78,4.8c1.95,1.84,5.86,3.32,10.95,3.32,9,0,12.14-4.56,12.14-9.65,0-5.51-2.31-8.05-11.19-8.82-3.85-.36-4.91-1.12-4.91-3.2Z" />
    <path class="cls-3"
        d="M941.33,132.6h-11.37l5.68-19.65,5.68,19.65Zm4.56,16.28h7.22l-14.09-44.93h-6.75l-14.09,44.93h7.22l3.14-10.83h14.21l3.14,10.83Z" />
    <path class="cls-3"
        d="M982.6,148.88v-20.9c0-5.68-2.66-9.41-10.18-9.41-3.2,0-6.57,1.01-9.59,3.08l-1.07-2.37h-3.91v29.6h6.63v-22.97c1.6-.89,3.73-1.72,6.81-1.72s4.68,1.36,4.68,4.38v20.31h6.63Z" />
    <rect class="cls-3" x="1003.2" y="104.48" width="6.63" height="44.4" />
    <path class="cls-3"
        d="M1042.39,148.88v-20.9c0-5.68-2.66-9.41-10.18-9.41-3.2,0-6.57,1.01-9.59,3.08l-1.07-2.37h-3.91v29.6h6.63v-22.97c1.6-.89,3.73-1.72,6.81-1.72s4.68,1.36,4.68,4.38v20.31h6.63Z" />
    <path class="cls-3"
        d="M1064.65,142.84c-.59,.47-1.54,1.12-3.43,1.12s-3.02-.95-3.02-4.14v-14.92h8.35v-5.62h-8.35v-8.52l-6.63,1.01v7.58l-5.39,.83v4.74h5.39v15.75c0,6.1,3.26,8.94,8.29,8.94,3.79,0,5.74-.95,7.16-2.13l-2.37-4.62Z" />
    <path class="cls-3"
        d="M1084.06,124.31c5.15,0,5.39,3.55,5.39,7.58h-11.84c.24-4.44,1.6-7.58,6.45-7.58Zm1.01,19.54c-5.74,0-7.34-2.9-7.46-7.34h18.41c.06-.95,.12-1.89,.12-2.9,0-8.17-1.66-15.04-12.08-15.04-9.65,0-13.14,5.98-13.14,15.51,0,8.94,2.96,15.51,14.21,15.51,5.03,0,8.88-1.84,11.19-3.79l-2.66-4.74c-1.66,1.36-4.74,2.78-8.58,2.78Z" />
    <path class="cls-3"
        d="M1107.09,129.81c0-3.37,1.12-5.98,6.1-5.98s6.1,2.6,6.1,5.98-1.12,5.98-6.1,5.98-6.1-2.6-6.1-5.98Zm12.43,21.02c2.43,.3,3.43,1.18,3.43,3.2,0,3.55-4.56,5.09-9.77,5.09s-7.81-1.3-7.81-4.62c0-2.84,2.72-4.2,5.74-4.74l8.41,1.07Zm6.04-21.02c0-1.89-.24-3.67-1.18-5.45l4.5-.89v-4.2h-10.24c-1.54-.47-3.32-.71-5.45-.71-9.06,0-12.37,4.5-12.37,11.25,0,4.32,1.36,7.76,4.74,9.65-1.36,1.07-2.66,2.6-2.66,4.8,0,1.6,.83,3.26,2.31,4.08v.06c-3.14,.95-6.16,3.32-6.16,7.34,0,6.1,5.74,8.64,13.67,8.64,8.58,0,16.63-2.9,16.63-10.54,0-4.91-2.07-7.58-7.93-8.29l-10.72-1.3c-1.24-.18-1.78-.71-1.78-1.72,0-.59,.36-1.24,.83-1.72,1.01,.18,2.19,.24,3.43,.24,9.06,0,12.37-4.5,12.37-11.25Z" />
    <path class="cls-3"
        d="M1151.08,119.22c-.65-.3-2.25-.65-3.79-.65-3.79,0-7.16,1.3-9.35,3.08l-1.07-2.37h-3.91v29.6h6.63v-22.85c1.95-1.07,4.08-1.78,7.58-1.78,1.07,0,2.55,.3,3.08,.53l.83-5.56Z" />
    <path class="cls-3"
        d="M1169.84,134.49v7.7c-1.84,1.18-3.67,1.95-6.33,1.95-3.61,0-4.56-2.13-4.56-4.38,0-3.08,1.72-4.2,4.68-4.56l6.22-.71Zm-5.33-10.24c3.73,0,5.33,1.18,5.33,4.2v1.48l-6.63,.53c-6.69,.53-10.83,3.26-10.83,9.65,0,4.74,2.55,9.47,10.18,9.47,3.26,0,6.57-1.12,8.94-3.08l1.07,2.37h3.91v-19.77c0-6.28-2.37-10.54-12.08-10.54-4.74,0-8.52,1.78-11.07,3.91l2.78,4.68c2.19-1.78,5.15-2.9,8.41-2.9Z" />
    <path class="cls-3"
        d="M1198.79,142.84c-.59,.47-1.54,1.12-3.43,1.12s-3.02-.95-3.02-4.14v-14.92h8.35v-5.62h-8.35v-8.52l-6.63,1.01v7.58l-5.39,.83v4.74h5.39v15.75c0,6.1,3.26,8.94,8.29,8.94,3.79,0,5.74-.95,7.16-2.13l-2.37-4.62Z" />
    <path class="cls-3"
        d="M1218.21,124.31c5.15,0,5.39,3.55,5.39,7.58h-11.84c.24-4.44,1.6-7.58,6.45-7.58Zm1.01,19.54c-5.74,0-7.34-2.9-7.46-7.34h18.41c.06-.95,.12-1.89,.12-2.9,0-8.17-1.66-15.04-12.08-15.04-9.65,0-13.14,5.98-13.14,15.51,0,8.94,2.96,15.51,14.21,15.51,5.03,0,8.88-1.84,11.19-3.79l-2.66-4.74c-1.66,1.36-4.74,2.78-8.58,2.78Z" />
    <path class="cls-3"
        d="M1248.64,124.19c3.14,0,5.21,1.07,6.39,1.72v16.34c-1.18,.65-3.26,1.72-6.39,1.72-5.8,0-6.69-4.38-6.69-9.89s.89-9.89,6.69-9.89Zm-1.54-5.62c-8.64,0-11.84,5.86-11.84,15.51s3.2,15.51,11.84,15.51c3.97,0,6.99-1.18,9.59-3.08l1.07,2.37h3.91v-44.4h-6.63v16.4c-2.13-1.36-4.97-2.31-7.93-2.31Z" />
    <path class="cls-3"
        d="M1296.47,110.04c4.91,0,8.05,1.72,9.71,2.96l3.08-5.27c-1.78-1.48-6.1-3.97-12.91-3.97-12.08,0-15.75,6.33-15.75,12.85,0,8.11,4.2,11.01,15.04,12.37,5.98,.77,8.05,1.95,8.05,6.87,0,4.38-2.6,7.46-9.35,7.46s-9.95-2.13-11.66-3.43l-3.08,5.21c3.14,2.6,8.41,4.5,14.86,4.5,11.43,0,16.16-6.28,16.16-14.15,0-9.06-5.39-11.13-14.62-12.37-5.86-.77-8.58-1.6-8.58-6.39,0-3.79,1.84-6.63,9.06-6.63Z" />
    <path class="cls-3"
        d="M1328.73,124.31c5.15,0,5.39,3.55,5.39,7.58h-11.84c.24-4.44,1.6-7.58,6.45-7.58Zm1.01,19.54c-5.74,0-7.34-2.9-7.46-7.34h18.41c.06-.95,.12-1.89,.12-2.9,0-8.17-1.66-15.04-12.08-15.04-9.65,0-13.14,5.98-13.14,15.51,0,8.94,2.96,15.51,14.21,15.51,5.03,0,8.88-1.84,11.19-3.79l-2.66-4.74c-1.66,1.36-4.74,2.78-8.58,2.78Z" />
    <path class="cls-3"
        d="M1364.72,119.22c-.65-.3-2.25-.65-3.79-.65-3.79,0-7.16,1.3-9.35,3.08l-1.07-2.37h-3.91v29.6h6.63v-22.85c1.95-1.07,4.08-1.78,7.58-1.78,1.07,0,2.55,.3,3.08,.53l.83-5.56Z" />
    <polygon class="cls-3"
        points="1365.79 119.28 1377.1 149.41 1382.54 149.41 1393.85 119.28 1386.69 119.28 1379.82 140.71 1372.95 119.28 1365.79 119.28" />
    <path class="cls-3"
        d="M1397.76,110.52c0,2.25,1.78,4.03,4.03,4.03s4.03-1.78,4.03-4.03-1.78-4.03-4.03-4.03-4.03,1.78-4.03,4.03Zm7.34,8.76h-6.63v29.6h6.63v-29.6Z" />
    <path class="cls-3"
        d="M1411.37,134.08c0,9.18,3.55,15.51,13.91,15.51,4.74,0,7.28-1.84,8.82-3.32l-2.66-4.62c-.89,.83-2.66,2.07-5.68,2.07-6.33,0-7.7-4.38-7.7-9.65s1.36-9.65,7.7-9.65c3.02,0,4.8,1.24,5.68,2.07l2.66-4.62c-1.54-1.48-4.08-3.32-8.82-3.32-10.36,0-13.91,6.33-13.91,15.51Z" />
    <path class="cls-3"
        d="M1451.16,124.31c5.15,0,5.39,3.55,5.39,7.58h-11.84c.24-4.44,1.6-7.58,6.45-7.58Zm1.01,19.54c-5.74,0-7.34-2.9-7.46-7.34h18.41c.06-.95,.12-1.89,.12-2.9,0-8.17-1.66-15.04-12.08-15.04-9.65,0-13.14,5.98-13.14,15.51,0,8.94,2.96,15.51,14.21,15.51,5.03,0,8.88-1.84,11.19-3.79l-2.66-4.74c-1.66,1.36-4.74,2.78-8.58,2.78Z" />
    <path class="cls-3"
        d="M1474.72,127.92c0-2.66,2.19-3.79,5.68-3.79,3.73,0,5.51,1.18,6.93,2.25l2.66-4.68c-1.36-1.42-4.68-3.14-9.71-3.14-8.7,0-12.02,4.44-12.02,9.53s2.19,7.76,11.13,8.52c3.97,.36,4.91,1.36,4.91,3.55,0,2.6-2.31,3.79-6.28,3.79-3.73,0-5.98-1.07-7.52-2.49l-2.78,4.8c1.95,1.84,5.86,3.32,10.95,3.32,9,0,12.14-4.56,12.14-9.65,0-5.51-2.31-8.05-11.19-8.82-3.85-.36-4.91-1.12-4.91-3.2Z" />
    <g>
        <path class="cls-3"
            d="M369.23,202.67c8.41,0,10.3,6.33,10.3,16.87s-1.89,16.87-10.3,16.87-10.3-6.33-10.3-16.87,1.89-16.87,10.3-16.87Zm0,39.78c14.27,0,17.11-10.36,17.11-22.91s-2.84-22.91-17.11-22.91-17.11,10.36-17.11,22.91,2.84,22.91,17.11,22.91Z" />
        <path class="cls-3"
            d="M410.73,212.08c-.65-.3-2.25-.65-3.79-.65-3.79,0-7.16,1.3-9.35,3.08l-1.07-2.37h-3.91v29.6h6.63v-22.85c1.95-1.07,4.08-1.78,7.58-1.78,1.07,0,2.55,.3,3.08,.53l.83-5.56Z" />
        <path class="cls-3"
            d="M419.43,222.67c0-3.37,1.12-5.98,6.1-5.98s6.1,2.6,6.1,5.98-1.12,5.98-6.1,5.98-6.1-2.6-6.1-5.98Zm12.43,21.02c2.43,.3,3.43,1.18,3.43,3.2,0,3.55-4.56,5.09-9.77,5.09s-7.81-1.3-7.81-4.62c0-2.84,2.72-4.2,5.74-4.74l8.41,1.07Zm6.04-21.02c0-1.89-.24-3.67-1.18-5.45l4.5-.89v-4.2h-10.24c-1.54-.47-3.32-.71-5.45-.71-9.06,0-12.37,4.5-12.37,11.25,0,4.32,1.36,7.76,4.74,9.65-1.36,1.07-2.66,2.6-2.66,4.8,0,1.6,.83,3.26,2.31,4.08v.06c-3.14,.95-6.16,3.32-6.16,7.34,0,6.1,5.74,8.64,13.67,8.64,8.58,0,16.63-2.9,16.63-10.54,0-4.91-2.07-7.58-7.93-8.29l-10.72-1.3c-1.24-.18-1.78-.71-1.78-1.72,0-.59,.36-1.24,.83-1.72,1.01,.18,2.19,.24,3.43,.24,9.06,0,12.37-4.5,12.37-11.25Z" />
        <path class="cls-3"
            d="M461.7,227.35v7.7c-1.84,1.18-3.67,1.95-6.33,1.95-3.61,0-4.56-2.13-4.56-4.38,0-3.08,1.72-4.2,4.68-4.56l6.22-.71Zm-5.33-10.24c3.73,0,5.33,1.18,5.33,4.2v1.48l-6.63,.53c-6.69,.53-10.83,3.26-10.83,9.65,0,4.74,2.55,9.47,10.18,9.47,3.26,0,6.57-1.12,8.94-3.08l1.07,2.37h3.91v-19.77c0-6.28-2.37-10.54-12.08-10.54-4.74,0-8.52,1.78-11.07,3.91l2.78,4.68c2.19-1.78,5.15-2.9,8.41-2.9Z" />
        <path class="cls-3"
            d="M499.41,241.74v-20.9c0-5.68-2.66-9.41-10.18-9.41-3.2,0-6.57,1.01-9.59,3.08l-1.07-2.37h-3.91v29.6h6.63v-22.97c1.6-.89,3.73-1.72,6.81-1.72s4.68,1.36,4.68,4.38v20.31h6.63Z" />
        <path class="cls-3"
            d="M505.57,203.38c0,2.25,1.78,4.03,4.03,4.03s4.03-1.78,4.03-4.03-1.78-4.03-4.03-4.03-4.03,1.78-4.03,4.03Zm7.34,8.76h-6.63v29.6h6.63v-29.6Z" />
        <polygon class="cls-3"
            points="541.98 241.74 541.98 235.88 526.29 235.94 541.33 216.81 541.33 212.14 518.83 212.14 518.83 218 532.8 217.94 517.76 237.06 517.76 241.74 541.98 241.74" />
        <path class="cls-3"
            d="M561.81,227.35v7.7c-1.84,1.18-3.67,1.95-6.33,1.95-3.61,0-4.56-2.13-4.56-4.38,0-3.08,1.72-4.2,4.68-4.56l6.22-.71Zm-5.33-10.24c3.73,0,5.33,1.18,5.33,4.2v1.48l-6.63,.53c-6.69,.53-10.83,3.26-10.83,9.65,0,4.74,2.55,9.47,10.18,9.47,3.26,0,6.57-1.12,8.94-3.08l1.07,2.37h3.91v-19.77c0-6.28-2.37-10.54-12.08-10.54-4.74,0-8.52,1.78-11.07,3.91l2.78,4.68c2.19-1.78,5.15-2.9,8.41-2.9Z" />
        <path class="cls-3"
            d="M590.76,235.7c-.59,.47-1.54,1.12-3.43,1.12s-3.02-.95-3.02-4.14v-14.92h8.35v-5.62h-8.35v-8.52l-6.63,1.01v7.58l-5.39,.83v4.74h5.39v15.75c0,6.1,3.26,8.94,8.29,8.94,3.79,0,5.74-.95,7.16-2.13l-2.37-4.62Z" />
        <path class="cls-3"
            d="M597.74,203.38c0,2.25,1.78,4.03,4.03,4.03s4.03-1.78,4.03-4.03-1.78-4.03-4.03-4.03-4.03,1.78-4.03,4.03Zm7.34,8.76h-6.63v29.6h6.63v-29.6Z" />
        <path class="cls-3"
            d="M624.5,242.45c10.54,0,13.14-6.39,13.14-15.51s-2.6-15.51-13.14-15.51-13.14,6.39-13.14,15.51,2.6,15.51,13.14,15.51Zm0-5.56c-5.62,0-6.45-3.61-6.45-9.95s.83-9.95,6.45-9.95,6.45,3.61,6.45,9.95-.83,9.95-6.45,9.95Z" />
        <path class="cls-3"
            d="M668.07,241.74v-20.9c0-5.68-2.66-9.41-10.18-9.41-3.2,0-6.57,1.01-9.59,3.08l-1.07-2.37h-3.91v29.6h6.63v-22.97c1.6-.89,3.73-1.72,6.81-1.72s4.68,1.36,4.68,4.38v20.31h6.63Z" />
        <path class="cls-3"
            d="M702.64,202.9c4.91,0,8.05,1.72,9.71,2.96l3.08-5.27c-1.78-1.48-6.1-3.97-12.91-3.97-12.08,0-15.75,6.33-15.75,12.85,0,8.11,4.2,11.01,15.04,12.37,5.98,.77,8.05,1.95,8.05,6.87,0,4.38-2.6,7.46-9.35,7.46s-9.95-2.13-11.66-3.43l-3.08,5.21c3.14,2.6,8.41,4.5,14.86,4.5,11.43,0,16.16-6.28,16.16-14.15,0-9.06-5.39-11.13-14.62-12.37-5.86-.77-8.58-1.6-8.58-6.39,0-3.79,1.84-6.63,9.06-6.63Z" />
        <path class="cls-3"
            d="M735.62,236.82c-3.14,0-5.21-1.07-6.39-1.72v-16.34c1.18-.65,3.26-1.72,6.39-1.72,5.8,0,6.69,4.38,6.69,9.89s-.89,9.89-6.69,9.89Zm1.54,5.62c8.64,0,11.84-5.86,11.84-15.51s-3.2-15.51-11.84-15.51c-3.97,0-6.99,1.18-9.59,3.08l-1.07-2.37h-3.91v44.4h6.63v-16.4c2.13,1.36,4.97,2.31,7.93,2.31Z" />
        <path class="cls-3"
            d="M766.99,217.17c5.15,0,5.39,3.55,5.39,7.58h-11.84c.24-4.44,1.6-7.58,6.45-7.58Zm1.01,19.54c-5.74,0-7.34-2.9-7.46-7.34h18.41c.06-.95,.12-1.89,.12-2.9,0-8.17-1.66-15.04-12.08-15.04-9.65,0-13.14,5.98-13.14,15.51,0,8.94,2.96,15.51,14.21,15.51,5.03,0,8.88-1.84,11.19-3.79l-2.66-4.74c-1.66,1.36-4.74,2.78-8.58,2.78Z" />
        <path class="cls-3"
            d="M784.04,226.94c0,9.18,3.55,15.51,13.91,15.51,4.74,0,7.28-1.84,8.82-3.32l-2.66-4.62c-.89,.83-2.66,2.07-5.68,2.07-6.33,0-7.7-4.38-7.7-9.65s1.36-9.65,7.7-9.65c3.02,0,4.8,1.24,5.68,2.07l2.66-4.62c-1.54-1.48-4.08-3.32-8.82-3.32-10.36,0-13.91,6.33-13.91,15.51Z" />
        <path class="cls-3"
            d="M811.39,203.38c0,2.25,1.78,4.03,4.03,4.03s4.03-1.78,4.03-4.03-1.78-4.03-4.03-4.03-4.03,1.78-4.03,4.03Zm7.34,8.76h-6.63v29.6h6.63v-29.6Z" />
        <path class="cls-3"
            d="M842.23,227.35v7.7c-1.84,1.18-3.67,1.95-6.33,1.95-3.61,0-4.56-2.13-4.56-4.38,0-3.08,1.72-4.2,4.68-4.56l6.22-.71Zm-5.33-10.24c3.73,0,5.33,1.18,5.33,4.2v1.48l-6.63,.53c-6.69,.53-10.83,3.26-10.83,9.65,0,4.74,2.55,9.47,10.18,9.47,3.26,0,6.57-1.12,8.94-3.08l1.07,2.37h3.91v-19.77c0-6.28-2.37-10.54-12.08-10.54-4.74,0-8.52,1.78-11.07,3.91l2.78,4.68c2.19-1.78,5.15-2.9,8.41-2.9Z" />
        <rect class="cls-3" x="855.79" y="197.34" width="6.63" height="44.4" />
        <path class="cls-3"
            d="M869.41,203.38c0,2.25,1.78,4.03,4.03,4.03s4.03-1.78,4.03-4.03-1.78-4.03-4.03-4.03-4.03,1.78-4.03,4.03Zm7.34,8.76h-6.63v29.6h6.63v-29.6Z" />
        <polygon class="cls-3"
            points="905.81 241.74 905.81 235.88 890.13 235.94 905.16 216.81 905.16 212.14 882.67 212.14 882.67 218 896.64 217.94 881.6 237.06 881.6 241.74 905.81 241.74" />
        <path class="cls-3"
            d="M909.72,203.38c0,2.25,1.78,4.03,4.03,4.03s4.03-1.78,4.03-4.03-1.78-4.03-4.03-4.03-4.03,1.78-4.03,4.03Zm7.34,8.76h-6.63v29.6h6.63v-29.6Z" />
        <path class="cls-3"
            d="M948.91,241.74v-20.9c0-5.68-2.66-9.41-10.18-9.41-3.2,0-6.57,1.01-9.59,3.08l-1.07-2.37h-3.91v29.6h6.63v-22.97c1.6-.89,3.73-1.72,6.81-1.72s4.68,1.36,4.68,4.38v20.31h6.63Z" />
        <path class="cls-3"
            d="M960.34,222.67c0-3.37,1.12-5.98,6.1-5.98s6.1,2.6,6.1,5.98-1.12,5.98-6.1,5.98-6.1-2.6-6.1-5.98Zm12.43,21.02c2.43,.3,3.43,1.18,3.43,3.2,0,3.55-4.56,5.09-9.77,5.09s-7.81-1.3-7.81-4.62c0-2.84,2.72-4.2,5.74-4.74l8.41,1.07Zm6.04-21.02c0-1.89-.24-3.67-1.18-5.45l4.5-.89v-4.2h-10.24c-1.54-.47-3.32-.71-5.45-.71-9.06,0-12.37,4.5-12.37,11.25,0,4.32,1.36,7.76,4.74,9.65-1.36,1.07-2.66,2.6-2.66,4.8,0,1.6,.83,3.26,2.31,4.08v.06c-3.14,.95-6.16,3.32-6.16,7.34,0,6.1,5.74,8.64,13.67,8.64,8.58,0,16.63-2.9,16.63-10.54,0-4.91-2.07-7.58-7.93-8.29l-10.72-1.3c-1.24-.18-1.78-.71-1.78-1.72,0-.59,.36-1.24,.83-1.72,1.01,.18,2.19,.24,3.43,.24,9.06,0,12.37-4.5,12.37-11.25Z" />
        <rect class="cls-3" x="1000.53" y="197.34" width="6.63" height="44.4" />
        <path class="cls-3"
            d="M1039.72,241.74v-20.9c0-5.68-2.66-9.41-10.18-9.41-3.2,0-6.57,1.01-9.59,3.08l-1.07-2.37h-3.91v29.6h6.63v-22.97c1.6-.89,3.73-1.72,6.81-1.72s4.68,1.36,4.68,4.38v20.31h6.63Z" />
        <polygon class="cls-2"
            points="1069.09 232.32 1063.28 197.34 1056.24 197.34 1064.59 242.27 1072.7 242.27 1080.75 205.27 1088.8 242.27 1096.91 242.27 1105.26 197.34 1098.21 197.34 1092.41 232.32 1084.89 197.34 1076.6 197.34 1069.09 232.32" />
        <path class="cls-2"
            d="M1120.11,242.45c10.54,0,13.14-6.39,13.14-15.51s-2.6-15.51-13.14-15.51-13.14,6.39-13.14,15.51,2.6,15.51,13.14,15.51Zm0-5.56c-5.62,0-6.45-3.61-6.45-9.95s.83-9.95,6.45-9.95,6.45,3.61,6.45,9.95-.83,9.95-6.45,9.95Z" />
        <path class="cls-2"
            d="M1157.05,212.08c-.65-.3-2.25-.65-3.79-.65-3.79,0-7.16,1.3-9.35,3.08l-1.07-2.37h-3.91v29.6h6.63v-22.85c1.95-1.07,4.08-1.78,7.58-1.78,1.07,0,2.55,.3,3.08,.53l.83-5.56Z" />
        <polygon class="cls-2"
            points="1186.3 212.14 1177.72 212.14 1167.24 223.62 1167.24 197.34 1160.61 197.34 1160.61 241.74 1167.24 241.74 1167.24 231.5 1170.08 228.59 1179.31 241.74 1187.54 241.74 1174.28 224.33 1186.3 212.14" />
        <path class="cls-2"
            d="M1210.45,199.05c-.95-.95-2.84-2.43-7.04-2.43-6.63,0-9.77,3.43-9.77,9.53v6.04l-5.39,.83v4.74h5.39v23.98h6.63v-23.98h8.35v-5.62h-8.35v-5.45c0-3.32,1.95-4.32,4.2-4.32,2.07,0,2.96,.83,3.67,1.48l2.31-4.8Z" />
        <path class="cls-2"
            d="M1224.36,242.45c10.54,0,13.14-6.39,13.14-15.51s-2.6-15.51-13.14-15.51-13.14,6.39-13.14,15.51,2.6,15.51,13.14,15.51Zm0-5.56c-5.62,0-6.45-3.61-6.45-9.95s.83-9.95,6.45-9.95,6.45,3.61,6.45,9.95-.83,9.95-6.45,9.95Z" />
        <path class="cls-2"
            d="M1261.3,212.08c-.65-.3-2.25-.65-3.79-.65-3.79,0-7.16,1.3-9.35,3.08l-1.07-2.37h-3.91v29.6h6.63v-22.85c1.95-1.07,4.08-1.78,7.58-1.78,1.07,0,2.55,.3,3.08,.53l.83-5.56Z" />
        <path class="cls-2"
            d="M1264.03,226.94c0,9.18,3.55,15.51,13.91,15.51,4.74,0,7.28-1.84,8.82-3.32l-2.66-4.62c-.89,.83-2.66,2.07-5.68,2.07-6.33,0-7.7-4.38-7.7-9.65s1.36-9.65,7.7-9.65c3.02,0,4.8,1.24,5.68,2.07l2.66-4.62c-1.54-1.48-4.08-3.32-8.82-3.32-10.36,0-13.91,6.33-13.91,15.51Z" />
        <path class="cls-2"
            d="M1303.81,217.17c5.15,0,5.39,3.55,5.39,7.58h-11.84c.24-4.44,1.6-7.58,6.45-7.58Zm1.01,19.54c-5.74,0-7.34-2.9-7.46-7.34h18.41c.06-.95,.12-1.89,.12-2.9,0-8.17-1.66-15.04-12.08-15.04-9.65,0-13.14,5.98-13.14,15.51,0,8.94,2.96,15.51,14.21,15.51,5.03,0,8.88-1.84,11.19-3.79l-2.66-4.74c-1.66,1.36-4.74,2.78-8.58,2.78Z" />
        <path class="cls-2"
            d="M1349.98,202.9c4.91,0,8.05,1.72,9.71,2.96l3.08-5.27c-1.78-1.48-6.1-3.97-12.91-3.97-12.08,0-15.75,6.33-15.75,12.85,0,8.11,4.2,11.01,15.04,12.37,5.98,.77,8.05,1.95,8.05,6.87,0,4.38-2.6,7.46-9.35,7.46s-9.95-2.13-11.66-3.43l-3.08,5.21c3.14,2.6,8.41,4.5,14.86,4.5,11.43,0,16.16-6.28,16.16-14.15,0-9.06-5.39-11.13-14.62-12.37-5.86-.77-8.58-1.6-8.58-6.39,0-3.79,1.84-6.63,9.06-6.63Z" />
        <path class="cls-2"
            d="M1382.25,242.45c10.54,0,13.14-6.39,13.14-15.51s-2.6-15.51-13.14-15.51-13.14,6.39-13.14,15.51,2.6,15.51,13.14,15.51Zm0-5.56c-5.62,0-6.45-3.61-6.45-9.95s.83-9.95,6.45-9.95,6.45,3.61,6.45,9.95-.83,9.95-6.45,9.95Z" />
        <rect class="cls-2" x="1401.66" y="197.34" width="6.63" height="44.4" />
        <path class="cls-2"
            d="M1415.16,212.14v20.9c0,5.68,2.66,9.41,10.18,9.41,3.2,0,6.57-1.01,9.59-3.08l1.07,2.37h3.91v-29.6h-6.63v22.97c-1.6,.89-3.73,1.72-6.81,1.72s-4.68-1.36-4.68-4.38v-20.31h-6.63Z" />
        <path class="cls-2"
            d="M1462.4,235.7c-.59,.47-1.54,1.12-3.43,1.12s-3.02-.95-3.02-4.14v-14.92h8.35v-5.62h-8.35v-8.52l-6.63,1.01v7.58l-5.39,.83v4.74h5.39v15.75c0,6.1,3.26,8.94,8.29,8.94,3.79,0,5.74-.95,7.16-2.13l-2.37-4.62Z" />
        <path class="cls-2"
            d="M1469.39,203.38c0,2.25,1.78,4.03,4.03,4.03s4.03-1.78,4.03-4.03-1.78-4.03-4.03-4.03-4.03,1.78-4.03,4.03Zm7.34,8.76h-6.63v29.6h6.63v-29.6Z" />
        <path class="cls-2"
            d="M1496.15,242.45c10.54,0,13.14-6.39,13.14-15.51s-2.6-15.51-13.14-15.51-13.14,6.39-13.14,15.51,2.6,15.51,13.14,15.51Zm0-5.56c-5.62,0-6.45-3.61-6.45-9.95s.83-9.95,6.45-9.95,6.45,3.61,6.45,9.95-.83,9.95-6.45,9.95Z" />
        <path class="cls-2"
            d="M1539.72,241.74v-20.9c0-5.68-2.66-9.41-10.18-9.41-3.2,0-6.57,1.01-9.59,3.08l-1.07-2.37h-3.91v29.6h6.63v-22.97c1.6-.89,3.73-1.72,6.81-1.72s4.68,1.36,4.68,4.38v20.31h6.63Z" />
        <path class="cls-2"
            d="M1551.68,220.78c0-2.66,2.19-3.79,5.68-3.79,3.73,0,5.51,1.18,6.93,2.25l2.66-4.68c-1.36-1.42-4.68-3.14-9.71-3.14-8.7,0-12.02,4.44-12.02,9.53s2.19,7.76,11.13,8.52c3.97,.36,4.91,1.36,4.91,3.55,0,2.6-2.31,3.79-6.28,3.79-3.73,0-5.98-1.07-7.52-2.49l-2.78,4.8c1.95,1.84,5.86,3.32,10.95,3.32,9,0,12.14-4.56,12.14-9.65,0-5.51-2.31-8.05-11.19-8.82-3.85-.36-4.91-1.12-4.91-3.2Z" />
    </g>
    <path class="cls-3"
        d="M642.67,318.32h-11.37l5.68-19.65,5.68,19.65Zm4.56,16.28h7.22l-14.09-44.93h-6.75l-14.09,44.93h7.22l3.14-10.83h14.21l3.14,10.83Z" />
    <path class="cls-3"
        d="M683.94,334.6v-20.9c0-5.68-2.66-9.41-10.18-9.41-3.2,0-6.57,1.01-9.59,3.08l-1.07-2.37h-3.91v29.6h6.63v-22.97c1.6-.89,3.73-1.72,6.81-1.72s4.68,1.36,4.68,4.38v20.31h6.63Z" />
    <path class="cls-3"
        d="M702.76,309.91c3.14,0,5.21,1.07,6.39,1.72v16.34c-1.18,.65-3.26,1.72-6.39,1.72-5.8,0-6.69-4.38-6.69-9.89s.89-9.89,6.69-9.89Zm-1.54-5.62c-8.64,0-11.84,5.86-11.84,15.51s3.2,15.51,11.84,15.51c3.97,0,6.99-1.18,9.59-3.08l1.07,2.37h3.91v-44.4h-6.63v16.4c-2.13-1.36-4.97-2.31-7.93-2.31Z" />
    <path class="cls-2"
        d="M750.59,295.76c4.91,0,8.05,1.72,9.71,2.96l3.08-5.27c-1.78-1.48-6.1-3.97-12.91-3.97-12.08,0-15.75,6.33-15.75,12.85,0,8.11,4.2,11.01,15.04,12.37,5.98,.77,8.05,1.95,8.05,6.87,0,4.38-2.6,7.46-9.35,7.46s-9.95-2.13-11.66-3.43l-3.08,5.21c3.14,2.6,8.41,4.5,14.86,4.5,11.43,0,16.16-6.28,16.16-14.15,0-9.06-5.39-11.13-14.62-12.37-5.86-.77-8.58-1.6-8.58-6.39,0-3.79,1.84-6.63,9.06-6.63Z" />
    <path class="cls-2"
        d="M770.31,305v20.9c0,5.68,2.66,9.41,10.18,9.41,3.2,0,6.57-1.01,9.59-3.08l1.07,2.37h3.91v-29.6h-6.63v22.97c-1.6,.89-3.73,1.72-6.81,1.72s-4.68-1.36-4.68-4.38v-20.31h-6.63Z" />
    <path class="cls-2"
        d="M814.59,329.68c-3.14,0-5.21-1.07-6.39-1.72v-16.34c1.18-.65,3.26-1.72,6.39-1.72,5.8,0,6.69,4.38,6.69,9.89s-.89,9.89-6.69,9.89Zm1.54,5.62c8.64,0,11.84-5.86,11.84-15.51s-3.2-15.51-11.84-15.51c-3.97,0-6.99,1.18-9.59,3.08l-1.07-2.37h-3.91v44.4h6.63v-16.4c2.13,1.36,4.97,2.31,7.93,2.31Z" />
    <path class="cls-2"
        d="M846.67,329.68c-3.14,0-5.21-1.07-6.39-1.72v-16.34c1.18-.65,3.26-1.72,6.39-1.72,5.8,0,6.69,4.38,6.69,9.89s-.89,9.89-6.69,9.89Zm1.54,5.62c8.64,0,11.84-5.86,11.84-15.51s-3.2-15.51-11.84-15.51c-3.97,0-6.99,1.18-9.59,3.08l-1.07-2.37h-3.91v44.4h6.63v-16.4c2.13,1.36,4.97,2.31,7.93,2.31Z" />
    <rect class="cls-2" x="866.33" y="290.2" width="6.63" height="44.4" />
    <polygon class="cls-2"
        points="877.58 305 888.65 333.59 881.31 349.4 888.71 349.4 905.64 305 898.3 305 891.61 326.13 884.92 305 877.58 305" />
    <path class="cls-2"
        d="M922.39,312.4c.06,13.79,5.21,22.91,18.77,22.91,5.86,0,9.83-2.31,11.66-3.85l-2.96-4.97c-1.36,1.07-4.32,2.66-8.11,2.66-9.29,0-12.49-6.22-12.49-16.75s3.2-16.75,12.49-16.75c3.79,0,6.75,1.6,8.11,2.66l2.96-4.97c-1.84-1.54-5.8-3.85-11.66-3.85-13.56,0-18.71,9.12-18.77,22.91Z" />
    <path class="cls-2"
        d="M975.55,314.29v20.31h6.63v-20.9c0-5.68-2.66-9.41-10.18-9.41-3.02,0-5.62,.83-7.93,2.19v-16.28h-6.63v44.4h6.63v-22.97c1.6-.89,3.73-1.72,6.81-1.72s4.68,1.36,4.68,4.38Z" />
    <path class="cls-2"
        d="M1004.85,320.21v7.7c-1.84,1.18-3.67,1.95-6.33,1.95-3.61,0-4.56-2.13-4.56-4.38,0-3.08,1.72-4.2,4.68-4.56l6.22-.71Zm-5.33-10.24c3.73,0,5.33,1.18,5.33,4.2v1.48l-6.63,.53c-6.69,.53-10.83,3.26-10.83,9.65,0,4.74,2.55,9.47,10.18,9.47,3.26,0,6.57-1.12,8.94-3.08l1.07,2.37h3.91v-19.77c0-6.28-2.37-10.54-12.08-10.54-4.74,0-8.52,1.78-11.07,3.91l2.78,4.68c2.19-1.78,5.15-2.9,8.41-2.9Z" />
    <path class="cls-2"
        d="M1017.7,296.24c0,2.25,1.78,4.03,4.03,4.03s4.03-1.78,4.03-4.03-1.78-4.03-4.03-4.03-4.03,1.78-4.03,4.03Zm7.34,8.76h-6.63v29.6h6.63v-29.6Z" />
    <path class="cls-2"
        d="M1056.89,334.6v-20.9c0-5.68-2.66-9.41-10.18-9.41-3.2,0-6.57,1.01-9.59,3.08l-1.07-2.37h-3.91v29.6h6.63v-22.97c1.6-.89,3.73-1.72,6.81-1.72s4.68,1.36,4.68,4.38v20.31h6.63Z" />
    <path class="cls-2"
        d="M1091.46,295.76c4.91,0,8.05,1.72,9.71,2.96l3.08-5.27c-1.78-1.48-6.1-3.97-12.91-3.97-12.08,0-15.75,6.33-15.75,12.85,0,8.11,4.2,11.01,15.04,12.37,5.98,.77,8.05,1.95,8.05,6.87,0,4.38-2.6,7.46-9.35,7.46s-9.95-2.13-11.66-3.43l-3.08,5.21c3.14,2.6,8.41,4.5,14.86,4.5,11.43,0,16.16-6.28,16.16-14.15,0-9.06-5.39-11.13-14.62-12.37-5.86-.77-8.58-1.6-8.58-6.39,0-3.79,1.84-6.63,9.06-6.63Z" />
    <path class="cls-2"
        d="M1123.73,310.03c5.15,0,5.39,3.55,5.39,7.58h-11.84c.24-4.44,1.6-7.58,6.45-7.58Zm1.01,19.54c-5.74,0-7.34-2.9-7.46-7.34h18.41c.06-.95,.12-1.89,.12-2.9,0-8.17-1.66-15.04-12.08-15.04-9.65,0-13.14,5.98-13.14,15.51,0,8.94,2.96,15.51,14.21,15.51,5.03,0,8.88-1.84,11.19-3.79l-2.66-4.74c-1.66,1.36-4.74,2.78-8.58,2.78Z" />
    <path class="cls-2"
        d="M1159.72,304.94c-.65-.3-2.25-.65-3.79-.65-3.79,0-7.16,1.3-9.35,3.08l-1.07-2.37h-3.91v29.6h6.63v-22.85c1.95-1.07,4.08-1.78,7.58-1.78,1.07,0,2.55,.3,3.08,.53l.83-5.56Z" />
    <polygon class="cls-2"
        points="1160.78 305 1172.09 335.13 1177.54 335.13 1188.84 305 1181.68 305 1174.81 326.43 1167.95 305 1160.78 305" />
    <path class="cls-2"
        d="M1192.75,296.24c0,2.25,1.78,4.03,4.03,4.03s4.03-1.78,4.03-4.03-1.78-4.03-4.03-4.03-4.03,1.78-4.03,4.03Zm7.34,8.76h-6.63v29.6h6.63v-29.6Z" />
    <path class="cls-2"
        d="M1206.37,319.8c0,9.18,3.55,15.51,13.91,15.51,4.74,0,7.28-1.84,8.82-3.32l-2.66-4.62c-.89,.83-2.66,2.07-5.68,2.07-6.33,0-7.7-4.38-7.7-9.65s1.36-9.65,7.7-9.65c3.02,0,4.8,1.24,5.68,2.07l2.66-4.62c-1.54-1.48-4.08-3.32-8.82-3.32-10.36,0-13.91,6.33-13.91,15.51Z" />
    <path class="cls-2"
        d="M1246.15,310.03c5.15,0,5.39,3.55,5.39,7.58h-11.84c.24-4.44,1.6-7.58,6.45-7.58Zm1.01,19.54c-5.74,0-7.34-2.9-7.46-7.34h18.41c.06-.95,.12-1.89,.12-2.9,0-8.17-1.66-15.04-12.08-15.04-9.65,0-13.14,5.98-13.14,15.51,0,8.94,2.96,15.51,14.21,15.51,5.03,0,8.88-1.84,11.19-3.79l-2.66-4.74c-1.66,1.36-4.74,2.78-8.58,2.78Z" />
    <path class="cls-2"
        d="M1269.71,313.64c0-2.66,2.19-3.79,5.68-3.79,3.73,0,5.51,1.18,6.93,2.25l2.66-4.68c-1.36-1.42-4.68-3.14-9.71-3.14-8.7,0-12.02,4.44-12.02,9.53s2.19,7.76,11.13,8.52c3.97,.36,4.91,1.36,4.91,3.55,0,2.6-2.31,3.79-6.28,3.79-3.73,0-5.98-1.07-7.52-2.49l-2.78,4.8c1.95,1.84,5.86,3.32,10.95,3.32,9,0,12.14-4.56,12.14-9.65,0-5.51-2.31-8.05-11.19-8.82-3.85-.36-4.91-1.12-4.91-3.2Z" />
    <path class="cls-1"
        d="M1290.79,331.16c0,2.25,1.78,4.03,4.03,4.03s4.03-1.78,4.03-4.03-1.78-4.03-4.03-4.03-4.03,1.78-4.03,4.03Z" />
    <path class="cls-2"
        d="M818.72,107.32c-34.19-15.35-70.47-25.34-107.51-30.84-36.58-5.43-73.64-6.69-110.58-5.79-37.42,.92-74.74,4.02-112.01,7.31-15.4,1.36-30.76,2.44-45.93,5.56-14.47,2.97-28.93,6.89-42.55,12.67-6,2.55-11.74,5.55-16.91,9.55-5.8,4.5-11.8,10.74-12.08,18.52-.3,8.21,6.61,14.74,12.41,19.57,6.29,5.24,13.32,9.49,20.7,13.01,15.9,7.58,33.12,12,50.3,15.59,19.48,4.07,39.21,6.88,58.99,8.97,39.88,4.21,80.11,6.44,120.21,5.75,19.89-.35,39.75-1.28,59.61-2.34,10.1-.54,20.2-1.24,30.31-1.61,9.31-.34,18.63-.14,27.95-.29s17.77-.69,26.5-2.39c9.38-1.82,18.47-5.16,27.54-8.12,7.96-2.6,15.97-5.3,23.54-8.91,5.62-2.68,11.13-5.94,14.83-11.07,5.07-7.02,10.2-15.15,10.82-24.03,.58-8.38-3.83-15.2-10.26-20.14-6.96-5.34-15.17-9.3-23.08-13.04-8.24-3.91-16.71-7.34-25.34-10.3-8.62-2.96-17.4-5.42-26.29-7.44-2.26-.51-3.22,2.96-.96,3.47,17.62,4,34.83,9.79,51.15,17.56,7.76,3.69,15.99,7.56,22.76,12.92,3.18,2.52,6.03,5.57,7.42,9.44,1.46,4.05,1.25,8.34,.06,12.43-1.26,4.33-3.47,8.33-5.88,12.12-1.9,3-3.82,6.09-6.5,8.47-5.25,4.65-12.22,7.46-18.67,9.94-8.27,3.19-16.75,5.81-25.19,8.51s-17.51,5.21-26.75,6.14c-8.57,.86-17.19,.88-25.79,.89-9.22,0-18.4,.22-27.6,.72-19.26,1.05-38.52,2.14-57.8,2.85-19.12,.7-38.27,1-57.4,.53-19.46-.47-38.92-1.73-58.32-3.23-19.44-1.5-38.85-3.47-58.12-6.44-18.1-2.79-36.26-6.24-53.8-11.57-15.63-4.75-31.39-11.26-43.81-22.15-6-5.26-12.56-12.3-8.69-20.76,3.07-6.71,9.89-11.67,16.12-15.24,11.75-6.73,25.22-10.7,38.27-14.04s27.11-5.72,40.99-6.96c35.98-3.2,71.97-6.49,108.06-8.1,35.82-1.61,71.8-1.56,107.5,2.03,35.64,3.59,70.97,10.87,104.68,23.11,8.55,3.1,16.97,6.52,25.27,10.25,2.1,.94,3.93-2.16,1.82-3.11h0Z" />
    <g>
        <path class="cls-2"
            d="M192.51,122.29c6.2-20.72,19.9-38.88,37.57-51.25,8.85-6.2,18.66-11,29.05-13.97,11.24-3.22,23.84-4.93,35.3-1.89,6.38,1.69,12.15,5.01,16.31,10.2,3.82,4.77,6.06,11.06,4.98,17.18l3.01-.79c-3.3-4.07,.63-10.27,3.26-13.57,3.48-4.37,7.4-8.4,11.61-12.07,8.35-7.26,18.05-13.06,28.39-17,21.16-8.07,44.5-8.06,65.72-.21,11.99,4.43,23.06,11.31,32.3,20.15,1.67,1.6,4.22-.94,2.55-2.55-17.5-16.75-41.28-26.57-65.5-27.14-23.7-.55-47.18,8.2-65.2,23.5-4.94,4.19-9.57,8.9-13.45,14.09-3.67,4.9-6.57,11.97-2.22,17.33,.82,1.01,2.78,.48,3.01-.79,2.14-12.17-5.82-23.88-16.53-29.1-11.73-5.71-25.58-5.05-38.04-2.42-22.44,4.73-43,17.75-57.46,35.49-8.16,10.01-14.42,21.48-18.13,33.86-.67,2.22,2.81,3.17,3.47,.96h0Z" />
        <path class="cls-2"
            d="M460.9,51.99c2.35,3.98,4.69,7.97,7.04,11.95,.68-.88,1.36-1.76,2.03-2.64-4.78-1.72-9.8-2.69-14.87-2.92-.97-.05-1.8,.86-1.8,1.8,0,1.01,.83,1.75,1.8,1.8,4.76,.22,9.43,1.18,13.91,2.8,1.52,.55,2.79-1.36,2.03-2.64-2.35-3.98-4.69-7.97-7.04-11.95-1.18-1.99-4.29-.19-3.11,1.82h0Z" />
    </g>
</svg>