<?xml version="1.0" encoding="utf-8"?>
<!-- Generator: Adobe Illustrator 24.1.3, SVG Export Plug-In . SVG Version: 6.00 Build 0)  -->
<svg version="1.1" id="Group_4136" xmlns="http://www.w3.org/2000/svg" xmlns:xlink="http://www.w3.org/1999/xlink" x="0px" y="0px"
	 viewBox="0 0 1447.1 316.4" style="enable-background:new 0 0 1447.1 316.4;" xml:space="preserve">
<style type="text/css">
	.st0{fill:none;}
	.st1{fill:#FFD729;}
	.st2{fill:#454545;}
	.st3{font-family:'ArialMT';}
	.st4{font-size:65px;}
	.st5{fill:#024778;}
	.st6{fill:#FFFFFF;}
</style>
<rect id="Rectangle_2860" x="-259.6" y="-68.1" class="st0" width="1920" height="1080"/>
<g id="Group_4133">
	<path id="Path_10704" class="st1" d="M110,111.5c-1.4,0-2.5-1.1-2.5-2.5c0-1.1,0.8-2.1,1.9-2.4c8.1-2.2,10.5-2.5,15.8-3
		c9-0.7,18.1-1.4,27-2.1c18.8-1.5,38.3-3,57.5-4.3c39.4-2.8,72.3-4.7,103.5-5.9c26.4-1,51.3-1.5,75.1-1.5c18,0,35.5,0.3,52.5,0.9
		c21.8,0.7,43.2,2,63.6,3.7c21.6,1.8,42.9,4.2,63.3,7.2c1.4,0.2,2.3,1.5,2.1,2.8s-1.5,2.3-2.8,2.1c-20.3-2.9-41.5-5.3-63-7.2
		c-20.3-1.7-41.7-3-63.4-3.7c-16.9-0.6-34.3-0.9-52.3-0.9c-23.7,0-48.5,0.5-74.9,1.5c-31.1,1.2-64,3.1-103.3,5.9
		c-19.2,1.4-38.6,2.9-57.5,4.3c-8.8,0.7-18,1.4-27,2.1c-5,0.4-7.1,0.7-14.9,2.8C110.4,111.5,110.2,111.5,110,111.5z"/>
	<text transform="matrix(1 0 0 1 114.1934 81.1259)" class="st2 st3 st4">Godspeed Group Is An Integrated Services </text>
	<text transform="matrix(1 0 0 1 29.6934 176.1259)" class="st2 st3 st4">Organization Specializing In</text>
	<text transform="matrix(1 0 0 1 835.4332 176.1259)" class="st5 st3 st4"> </text>
	<text transform="matrix(1 0 0 1 853.4923 176.1259)" class="st1 st3 st4">Workforce Solutions </text>
	<text transform="matrix(1 0 0 1 324.9885 271.1259)" class="st2 st3 st4">And</text>
	<text transform="matrix(1 0 0 1 440.6428 271.1259)" class="st5 st3 st4"> </text>
	<text transform="matrix(1 0 0 1 458.7018 271.1259)" class="st1 st3 st4">Supply Chain Services</text>
	<text transform="matrix(1 0 0 1 1112.6375 271.1259)" class="st6 st3 st4">.</text>
</g>
</svg>
