<svg xmlns="http://www.w3.org/2000/svg" xmlns:xlink="http://www.w3.org/1999/xlink" width="93.097" height="99.423" viewBox="0 0 93.097 99.423">
  <defs>
    <clipPath id="clip-path">
      <rect id="Rectangle_2358" data-name="Rectangle 2358" width="93.097" height="99.423" transform="translate(0 0)" fill="none"/>
    </clipPath>
  </defs>
  <g id="Group_1135" data-name="Group 1135" transform="translate(0 0)" clip-path="url(#clip-path)">
    <path id="Path_3931" data-name="Path 3931" d="M92.543,11.995c.588-.572.623-.93.489-1.321-.146-.428-.4-.734-1.153-.841C89.5,9.5,86.958,9.131,84.446,8.7a2.4,2.4,0,0,1-1.6-1.178c-.489-.941-.955-1.9-1.422-2.849-.549-1.123-1.117-2.283-1.711-3.4a4.726,4.726,0,0,0-.849-1C78.772.186,78.679.093,78.588,0H78.16c-.086.1-.173.193-.261.29a6.019,6.019,0,0,0-.882,1.125c-.97,1.809-1.914,3.725-2.808,5.7a2.788,2.788,0,0,1-2.427,1.76c-1.38.167-2.757.37-4.134.573-.928.138-1.857.274-2.787.4-.755.1-.969.452-1.078.78a1.113,1.113,0,0,0,.358,1.273c.282.267.551.523.806.792l4.388,4.646.408.224-.024.529a.906.906,0,0,1-.52.766l-.462.323L68.66,19.1l-1.467.65q-7.656,3.388-15.326,6.746a1.9,1.9,0,0,1-1.9-.413,7.042,7.042,0,0,0-12.215,5.17,1.971,1.971,0,0,1-1.357,2.108c-2.71,1.167-5.409,2.358-8.108,3.55L17.112,41.834l-.412-.456a7.555,7.555,0,0,0-5.653-2.714,7.024,7.024,0,0,0-3.9,1.194,7.071,7.071,0,0,0,5.133,12.853c3.862-.737,5.775-3.426,5.845-8.223l.006-.383.291-.249a1.156,1.156,0,0,1,.352-.25l1.941-.857q8.5-3.753,17.016-7.474a1.918,1.918,0,0,1,1.889.443,7.114,7.114,0,0,0,7.971,1.655,7,7,0,0,0,4.236-6.817,2.04,2.04,0,0,1,1.393-2.182c3.418-1.484,6.826-2.992,10.234-4.5l3.833-1.695c.217-.1.437-.183.707-.291l1.874-.757-.9,5.154c-.163.931.037,1.277.41,1.532s.764.33,1.538-.083q1.353-.722,2.714-1.429c1.218-.638,2.436-1.275,3.644-1.931a2.161,2.161,0,0,1,2.259-.009c1.619.883,3.253,1.739,4.887,2.594l1.638.859a1.176,1.176,0,0,0,1.412-.022,1.14,1.14,0,0,0,.4-1.281c-.165-.915-.32-1.832-.474-2.749-.232-1.38-.464-2.761-.732-4.134a2.792,2.792,0,0,1,.928-2.849c1.181-1.083,2.347-2.232,3.474-3.344q.735-.723,1.473-1.445M14.431,49.184a4.763,4.763,0,0,1-3.358,1.374h-.051a4.864,4.864,0,0,1-4.77-4.869,4.86,4.86,0,0,1,4.873-4.741,4.807,4.807,0,0,1,3.306,8.236M48.107,34.343a4.728,4.728,0,0,1-3.3,1.356l-.1,0A4.849,4.849,0,0,1,39.981,30.8a4.733,4.733,0,0,1,1.441-3.359,4.8,4.8,0,1,1,6.685,6.9M88.074,12.922c-.34.357-.672.713-1,1.065-.784.839-1.523,1.63-2.327,2.4a1.8,1.8,0,0,0-.626,1.8c.2,1.106.387,2.217.579,3.393l.543,3.263-1.518-.8c-.448-.237-.887-.461-1.316-.681-.972-.5-1.89-.968-2.791-1.5a2.148,2.148,0,0,0-2.463,0c-.9.528-1.815,1-2.786,1.5-.43.221-.872.448-1.326.688l-1.52.8.285-1.694c.09-.534.174-1.055.256-1.566.194-1.2.377-2.336.608-3.477a1.524,1.524,0,0,0-.488-1.55c-.809-.811-1.6-1.641-2.416-2.5l-2.213-2.308,1.624-.246q.708-.108,1.415-.223c1.093-.175,2.223-.357,3.349-.481a1.673,1.673,0,0,0,1.484-1.12c.46-.99.951-1.964,1.478-3.007l1.48-2.963,1.472,2.964c.533,1.069,1.027,2.058,1.5,3.056A1.651,1.651,0,0,0,82.795,10.8c1.136.13,2.278.309,3.382.481.469.073.938.146,1.407.216l1.62.24Z" fill="#ffc810"/>
    <path id="Path_3932" data-name="Path 3932" d="M89.57,97.774q-.024-16.787-.017-33.571l0-18.146a5.081,5.081,0,0,0-5.424-5.392q-5.139-.018-10.279,0h-.772c-3.575.005-5.626,2.04-5.628,5.584q-.006,10.542,0,21.082,0,15.169-.011,30.339c0,1.068.319,1.49.848,1.755h20.5a1.819,1.819,0,0,0,.8-1.649m-2.279-2.246c0,.167-.011.332-.023.519l-.06,1.074h-17.4l-.059-1.166c-.015-.267-.03-.52-.03-.774q0-24.34,0-48.68c0-2.609.981-3.579,3.619-3.579h2.37q4.149,0,8.3,0c2.177,0,3.282,1.093,3.282,3.234q.007,23.142,0,46.286Z"/>
    <path id="Path_3933" data-name="Path 3933" d="M55.838,97.721q-.029-14.544-.019-29.089l0-14.544c0-3.438-2.058-5.5-5.5-5.506q-5.526-.015-11.052,0c-3.445.009-5.5,2.066-5.5,5.5l0,13.834q0,14.9-.019,29.8a1.694,1.694,0,0,0,.792,1.706H55.041a1.689,1.689,0,0,0,.8-1.7M53.555,95.5c0,.166-.01.332-.022.529l-.058,1.1H36.017V54.26c0-2.36,1.044-3.413,3.383-3.415h.522q5.217,0,10.435,0a2.864,2.864,0,0,1,3.2,3.2q.006,19.245,0,38.489Z"/>
    <path id="Path_3934" data-name="Path 3934" d="M22.147,97.672q-.018-7.8-.011-15.6,0-6.014,0-12.028c0-3.509-2.109-5.609-5.63-5.617q-5.374-.011-10.754,0c-3.639,0-5.725,2.088-5.726,5.716v7.513q0,9.961-.022,19.923a1.978,1.978,0,0,0,.789,1.847h20.5c.534-.266.858-.687.855-1.751m-2.292-2.228a6.064,6.064,0,0,1-.041.613l-.09,1.054H2.281V70.228c0-2.477,1.045-3.536,3.494-3.54q5.379-.009,10.757,0c2.232.007,3.318,1.088,3.321,3.3q.012,11.877,0,23.754Z"/>
  </g>
</svg>
