<svg xmlns="http://www.w3.org/2000/svg" xmlns:xlink="http://www.w3.org/1999/xlink" width="119.131" height="111.377" viewBox="0 0 119.131 111.377">
  <defs>
    <clipPath id="clip-path">
      <rect id="Rectangle_2164" data-name="Rectangle 2164" width="119.131" height="111.377" fill="none"/>
    </clipPath>
  </defs>
  <g id="Group_912" data-name="Group 912" transform="translate(0 0)">
    <g id="Group_911" data-name="Group 911" transform="translate(0 0)" clip-path="url(#clip-path)">
      <path id="Path_3475" data-name="Path 3475" d="M20.057,37.568H49.517c.635-7.733-2.151-13.15-8.51-16.553l-.853-.457.676-.685A9.541,9.541,0,0,0,43.743,13a8.97,8.97,0,0,0-8.959-8.825h-.132a8.916,8.916,0,0,0-8.829,8.838,9.494,9.494,0,0,0,2.9,6.849l.685.7-.849.457c-6.386,3.388-9.171,8.8-8.506,16.555M28.27,13.218A6.519,6.519,0,0,1,30.2,8.571l-.006,0a6.521,6.521,0,0,1,4.6-1.917h0A6.527,6.527,0,0,1,34.8,19.7a6.587,6.587,0,0,1-6.533-6.485M22.491,34.4a12.153,12.153,0,0,1,3.663-8.684l0,0a12.258,12.258,0,0,1,8.63-3.576c.074,0,.147,0,.221,0a12.56,12.56,0,0,1,8.759,3.938,11.59,11.59,0,0,1,3.284,8.354v.7H22.491Z" transform="translate(17.119 3.578)" fill="#ffca0a"/>
      <rect id="Rectangle_2154" data-name="Rectangle 2154" width="10.063" height="2.35" transform="translate(72.045 38.785)" fill="#ffca0a"/>
      <rect id="Rectangle_2155" data-name="Rectangle 2155" width="10.022" height="2.419" transform="translate(72.056 31.025)" fill="#ffca0a"/>
      <rect id="Rectangle_2156" data-name="Rectangle 2156" width="10.022" height="2.439" transform="translate(72.087 23.292)" fill="#ffca0a"/>
      <rect id="Rectangle_2157" data-name="Rectangle 2157" width="10.022" height="2.42" transform="translate(72.099 15.555)" fill="#ffca0a"/>
      <rect id="Rectangle_2158" data-name="Rectangle 2158" width="9.996" height="2.344" transform="translate(72.091 7.891)" fill="#ffca0a"/>
      <path id="Path_3476" data-name="Path 3476" d="M54.919,49.06l-.063-.165,0-.006c-2.692-6.7-9.093-9.414-12.927-9.191v2.333A12.053,12.053,0,0,1,52.668,50.2c1.919,5.378.528,10.12-4.137,14.094l1.3,1.963a14.663,14.663,0,0,0,5.086-17.2" transform="translate(35.959 34.034)" fill="#0f0f0f"/>
      <path id="Path_3477" data-name="Path 3477" d="M44.717,56.4,44,54.059l-2.092.325V56.83Z" transform="translate(35.944 46.361)" fill="#0f0f0f"/>
      <path id="Path_3478" data-name="Path 3478" d="M99.221,92.53l.113-.581h4.115l5.361-25.417,10.321-48.463L89.8,11.827V0H29.281V11.85L0,18.082,13.025,79.33l-2.667,0c-.574,0-1.122-.006-1.676.013A8.967,8.967,0,0,0,.249,87.8a9.206,9.206,0,0,0,2.5,6.734,9.3,9.3,0,0,0,6.665,2.72q10.95.022,21.89,0h5.838c.145,0,.292-.009.45-.022v-3.89H54.916l.137.535a23.024,23.024,0,0,0,21.817,17.04v.007h.123A23.15,23.15,0,0,0,99.221,92.53m16.835-72.6-.071.9a4.146,4.146,0,0,1-.058.559L114.7,27.165q-3.812,17.9-7.616,35.807l-.1.468-5.426,24.7H99.637v-.711A22.764,22.764,0,0,0,90.2,69.97l-.3-.223-.022-55.388ZM29.322,28.6h-.017v2.255c-.011.92-.022,1.865.024,2.786a2.014,2.014,0,0,1-1.449,2.157,5.905,5.905,0,0,1-2.324.466.2.2,0,0,1-.033,0,6.514,6.514,0,0,1-4.98-10.705A6.257,6.257,0,0,1,28.185,23.9a2.355,2.355,0,0,1,1.09,1.754c.069,1,.058,1.989.046,2.944M28.8,50.259h0l.457.093a1.759,1.759,0,0,1-1.2,1.33c-2.422.552-4.858,1.068-7.209,1.562l-2.543.541-.2-.615a10.887,10.887,0,0,1,1.579-9.342,11.84,11.84,0,0,1,8.829-5.394l.788-.063v2.976c0,3.061,0,5.946-.032,8.911l-.464-.006ZM3.206,21.4l0-.013a3.528,3.528,0,0,1-.058-.526,2.137,2.137,0,0,0-.017-.24l-.061-.691L29.207,14.38v7.085l-.927-.275a8.979,8.979,0,0,0-11.211,5.552,9.189,9.189,0,0,0,3.92,10.807l.84.535-.763.628c-5.513,4.536-7.111,10.436-4.874,18.028l13.018-2.751v5.385L17.257,61.936l3.587,17-.593.214a1.776,1.776,0,0,1-.52.15c-.37,0-.73.022-1.079.052-.379.032-.711.054-1.053.054-.065.006-.13.007-.2.007a2.89,2.89,0,0,1-1.5-.433,3.712,3.712,0,0,1-1.048-2.664c-.043-.331-.084-.643-.145-.927Q8.95,48.4,3.206,21.4m26.04,40.5V79.25H23.439L20.16,63.834Zm5.168,32.812q-.109.014-.212.033a4.22,4.22,0,0,1-.663.065H9.442c-.08,0-.162,0-.24,0A6.54,6.54,0,0,1,3.97,84.375a6.608,6.608,0,0,1,5.406-2.612c5.855-.026,11.814-.02,17.58-.013h6.617c.16,0,.32.009.492.02l.979.054.006,12.812Zm20.042-4.555.02.279.037.5h-.776c-1.311.013-3.375.017-5.588.017-2.549,0-5.29,0-7.3-.009h-3.23V85.59h16.9l-.058.778c-.05.682-.071,1.289-.061,1.854a18.665,18.665,0,0,0,.056,1.936m.474-7.014H37.5V79.291H31.82V2.413H87.405v29.8c0,9.947,0,25.848.017,34.872v1.135l-1.031-.479a22.425,22.425,0,0,0-3.836-1.382l-.535-.147V46.475H37.131V74H59.443l-.83,1.15a21.97,21.97,0,0,0-3.539,7.46ZM79.659,65l-.437,0h.44v.789l-.786-.065c-.732-.063-1.451-.093-2.159-.084a22.722,22.722,0,0,0-14.641,5.7l-.132.117-.247.061H39.568V48.888h40.09l0,7.122c0,3.169-.006,6.959,0,8.987m-2.593,43.377H77a20.091,20.091,0,0,1-.093-40.181h.119a20.091,20.091,0,0,1,.035,40.181" transform="translate(0 0)" fill="#0f0f0f"/>
      <path id="Path_3479" data-name="Path 3479" d="M41.377,59.958Z" transform="translate(35.484 51.42)" fill="#0f0f0f"/>
      <rect id="Rectangle_2159" data-name="Rectangle 2159" width="2.347" height="10.062" transform="translate(93.291 55.507) rotate(-77.988)" fill="#0f0f0f"/>
      <rect id="Rectangle_2160" data-name="Rectangle 2160" width="2.418" height="10.02" transform="matrix(0.208, -0.978, 0.978, 0.208, 94.898, 47.99)" fill="#0f0f0f"/>
      <rect id="Rectangle_2161" data-name="Rectangle 2161" width="2.438" height="10.021" transform="matrix(0.208, -0.978, 0.978, 0.208, 96.533, 40.452)" fill="#0f0f0f"/>
      <rect id="Rectangle_2162" data-name="Rectangle 2162" width="2.42" height="10.02" transform="translate(98.157 32.867) rotate(-77.991)" fill="#0f0f0f"/>
      <rect id="Rectangle_2163" data-name="Rectangle 2163" width="2.344" height="9.995" transform="translate(99.754 25.295) rotate(-78.013)" fill="#0f0f0f"/>
    </g>
  </g>
</svg>
