<svg id="Group_1044" data-name="Group 1044" xmlns="http://www.w3.org/2000/svg" xmlns:xlink="http://www.w3.org/1999/xlink" width="97.559" height="97.561" viewBox="0 0 97.559 97.561">
  <defs>
    <clipPath id="clip-path">
      <rect id="Rectangle_2278" data-name="Rectangle 2278" width="97.559" height="97.561" fill="none"/>
    </clipPath>
  </defs>
  <g id="Group_1043" data-name="Group 1043" transform="translate(0 0)" clip-path="url(#clip-path)">
    <path id="Path_3848" data-name="Path 3848" d="M86.078,57.495c5.647.006,9.449,3.808,9.457,9.458l0,12.243c0,1.316.681,1.335.971,1.345a.959.959,0,0,0,.7-.223,1.547,1.547,0,0,0,.339-1.118l0-2.143c0-3.57.01-7.143,0-10.715a10.785,10.785,0,0,0-8.1-10.488c-.524-.139-1.063-.238-1.611-.339l-1.868-.364.691-.819A10.248,10.248,0,0,0,86.2,40.1a10.145,10.145,0,0,0-13.352-.483c-3.01,2.462-5.951,8.639-1.034,14.74l.659.819-1.685.331c-.589.12-1.175.239-1.765.322a1.662,1.662,0,0,1-1.223-.339,14.308,14.308,0,0,0-10.129-3.3l-1.616.067,1.141-1.147a13.158,13.158,0,0,0,4.125-9.628A12.512,12.512,0,0,0,40.8,31.971a12.164,12.164,0,0,0-4.464,8.218,12.514,12.514,0,0,0,4,10.757l.523.507-.575.447a.815.815,0,0,1-.548.255,14.445,14.445,0,0,0-9.959,3.361,1.533,1.533,0,0,1-1.15.326c-.6-.093-1.2-.219-1.814-.345l-1.72-.35.676-.816C30,49.2,28.635,43.5,25.565,40.385a10.067,10.067,0,0,0-13-1.231,9.758,9.758,0,0,0-4.253,7.181A10.178,10.178,0,0,0,11,54.376l.824.944-1.248.1A11.207,11.207,0,0,0,.01,67.083C.128,69.84.1,72.642.07,75.35c-.013,1.266-.027,2.53-.025,3.8,0,1.394.706,1.4,1.007,1.4a.874.874,0,0,0,.726-.285,1.789,1.789,0,0,0,.282-1.107V74.212q0-3.707,0-7.41a8.93,8.93,0,0,1,9.3-9.3q6.178-.021,12.364,0l1.426,0c.279,0,.558.022.871.048l1.372.093-.505,1.12a4.012,4.012,0,0,1-.211.44,14.3,14.3,0,0,0-1.947,7.524c.029,2.8.022,5.6.017,8.408l-.006,3.946a1.789,1.789,0,0,0,.345,1.25.942.942,0,0,0,.683.215c.32-.006.988-.017.988-1.424l0-3.749c0-2.834-.008-5.668.017-8.5a14.277,14.277,0,0,1,.345-3.2,12.073,12.073,0,0,1,11.716-9.449c5.468-.065,11.027-.041,16.4-.019l3.567.014a11.113,11.113,0,0,1,2.481.3,12.122,12.122,0,0,1,9.549,12.083c.021,2.731.016,5.463.011,8.2l0,4.361a1.623,1.623,0,0,0,.334,1.152.841.841,0,0,0,.683.227c.323,0,1-.009,1-1.41q0-1.913-.008-3.826c-.011-2.707-.021-5.414.027-8.12a14.962,14.962,0,0,0-2.072-8.2,1.424,1.424,0,0,1-.157-.44l-.255-.944,1.229-.067c.31-.019.592-.036.874-.036q4.17,0,8.337,0,2.623,0,5.246,0M18.364,55.469h-.049A8.114,8.114,0,0,1,10.3,47.45a8.089,8.089,0,0,1,8.019-8.063,7.646,7.646,0,0,1,5.649,2.337,8.013,8.013,0,0,1-5.6,13.745M48.892,52.18h-.068A10.609,10.609,0,0,1,38.287,41.624,10.632,10.632,0,0,1,48.759,31.152h.029a10.582,10.582,0,0,1,10.52,10.5A10.651,10.651,0,0,1,48.892,52.18m30.343,3.289a8.111,8.111,0,0,1-8.019-8.036,8.088,8.088,0,0,1,8.034-8.045,8.041,8.041,0,0,1,.014,16.081Z" transform="translate(0 17.014)" fill="#1a1818"/>
    <path id="Path_3849" data-name="Path 3849" d="M79.176,49.969c1.142-.3,2.641-.713,4.1-1.188a4.238,4.238,0,0,0,2.989-4.139q.017-4.061,0-8.123a4.226,4.226,0,0,0-3.062-4.18c-.558-.177-1.12-.336-1.684-.494-.757-.215-1.514-.429-2.259-.684a2.278,2.278,0,0,1-1.245-1.153c-.757-1.684-1.4-3.246-1.971-4.774a2.475,2.475,0,0,1,.086-1.795c.348-.729.748-1.432,1.148-2.135.215-.377.431-.756.637-1.136A4.27,4.27,0,0,0,77.2,14.7q-2.761-2.828-5.589-5.59a4.26,4.26,0,0,0-5.471-.7c-.361.2-.719.4-1.077.607-.722.412-1.445.825-2.194,1.183a2.478,2.478,0,0,1-1.795.073c-1.64-.607-3.216-1.258-4.684-1.933a2.593,2.593,0,0,1-1.278-1.377c-.26-.735-.466-1.487-.673-2.241-.149-.54-.3-1.079-.466-1.613A4.228,4.228,0,0,0,49.79.048q-1.026,0-2.051.017C46.414.082,45.046.1,43.69.029c-4.831-.265-5.947,1.293-6.737,5.12C36.49,7.4,35.43,8.548,33.414,9A6.694,6.694,0,0,0,31.9,9.63a4.834,4.834,0,0,1-2.538.771A6.39,6.39,0,0,1,26.45,9.089c-.374-.249-.749-.5-1.128-.7a4.265,4.265,0,0,0-5.463.745q-2.82,2.773-5.593,5.593a4.248,4.248,0,0,0-.719,5.381c.217.4.442.8.667,1.194.406.714.809,1.429,1.164,2.169a2.486,2.486,0,0,1,.059,1.793c-.616,1.655-1.267,3.231-1.934,4.684a2.605,2.605,0,0,1-1.384,1.272c-.746.263-1.508.472-2.273.681-.5.136-.995.274-1.489.426a4.217,4.217,0,0,0-3.129,4.223q-.007,1.392,0,2.788l0,1.221,0,1.259c0,.95,0,1.9,0,2.851a4.241,4.241,0,0,0,3.011,4.122c1.326.425,2.669.794,4.012,1.156a1.123,1.123,0,0,0,1.522-.684c.16-.558-.209-1.061-.939-1.283-.706-.215-1.416-.418-2.127-.618l-1.413-.407A2.4,2.4,0,0,1,7.247,44.3q-.017-3.7,0-7.412A2.419,2.419,0,0,1,9.36,34.176l1.435-.413c1.034-.3,2.069-.6,3.11-.881a1.779,1.779,0,0,0,1.3-1.3c.779-2.086,1.655-4.2,2.6-6.282a1.742,1.742,0,0,0-.029-1.828c-.672-1.142-1.305-2.3-1.94-3.466l-.371-.68A2.4,2.4,0,0,1,15.9,16q1.16-1.171,2.329-2.333,1.492-1.485,2.973-2.983a2.5,2.5,0,0,1,3.266-.428q.839.473,1.684.935c.851.467,1.7.936,2.536,1.426a1.655,1.655,0,0,0,1.736.033c2.26-1.023,4.347-1.887,6.377-2.641a1.782,1.782,0,0,0,1.274-1.324c.223-.832.459-1.66.7-2.489.2-.718.41-1.437.607-2.156A2.523,2.523,0,0,1,42.01,2.059q3.752.024,7.5,0h.022a2.493,2.493,0,0,1,2.595,2.007c.2.737.41,1.47.619,2.2.231.811.464,1.624.683,2.439a1.78,1.78,0,0,0,1.291,1.308c2.037.759,4.123,1.622,6.379,2.639a1.6,1.6,0,0,0,1.647,0c.878-.507,1.763-1,2.649-1.489l1.657-.924a2.874,2.874,0,0,1,1.405-.4,2.588,2.588,0,0,1,1.861.865q2.628,2.675,5.3,5.3a2.507,2.507,0,0,1,.448,3.268l-.9,1.627c-.5.9-.992,1.795-1.506,2.68a1.6,1.6,0,0,0,0,1.647c1.045,2.327,1.907,4.413,2.637,6.377a1.785,1.785,0,0,0,1.316,1.285c.817.22,1.633.453,2.447.684.73.209,1.461.417,2.194.616a2.5,2.5,0,0,1,2,2.626q-.021,3.752,0,7.5a2.5,2.5,0,0,1-2,2.63c-1.213.328-2.425.67-3.629,1.036-.721.219-1.076.727-.9,1.294a1.07,1.07,0,0,0,1.448.691" transform="translate(3.05 0)" fill="#ffc810"/>
    <path id="Path_3850" data-name="Path 3850" d="M59.052,30.679A20.662,20.662,0,0,0,38.508,12.5H38.5l-.236,0a19.9,19.9,0,0,0-9.693,2.5A20.657,20.657,0,0,0,17.938,36.548a20.027,20.027,0,0,0,3.035,7.938c.234.368.619.757,1.112.524a1.729,1.729,0,0,0,.814-.946c.052-.227-.325-.878-.467-1.122A18.711,18.711,0,1,1,54.446,23.563c3.729,6.371,3.723,12.916-.021,19.457-.8,1.4-.177,1.765.059,1.9s.9.52,1.722-.859a20.388,20.388,0,0,0,2.847-13.384" transform="translate(10.336 7.297)" fill="#ffc810"/>
    <path id="Path_3851" data-name="Path 3851" d="M22.829,55.214a1,1,0,0,0-.976-1.136h-.036a.945.945,0,0,0-.687.244,1.237,1.237,0,0,0-.309.9q-.019,4.783,0,9.565a1.326,1.326,0,0,0,.285.906.828.828,0,0,0,.724.277c.819,0,1-.656,1-1.2.01-1.1.006-2.191,0-3.287l0-1.441,0-1.443c0-1.129.006-2.257-.006-3.385" transform="translate(12.155 31.585)" fill="#1a1818"/>
    <path id="Path_3852" data-name="Path 3852" d="M39.527,64.782c0,.444.139,1.188,1,1.188h0c.825,0,1-.649,1-1.193q.017-4.733,0-9.463c0-.8-.331-1.22-.976-1.236h-.041a.92.92,0,0,0-.667.231,1.394,1.394,0,0,0-.328,1.015c-.008,1.071-.006,2.14,0,3.211l0,1.416,0,1.472c0,1.12,0,2.238,0,3.358" transform="translate(23.083 31.585)" fill="#1a1818"/>
    <path id="Path_3853" data-name="Path 3853" d="M57.129,55.264c0-.542-.184-1.186-1.006-1.186h0c-.824,0-1,.651-1,1.194q-.017,4.731,0,9.463c0,.8.331,1.218.976,1.234a.829.829,0,0,0,.706-.231,1.4,1.4,0,0,0,.329-1.017c.008-1.084.006-2.165,0-3.249l0-1.377,0-1.441c0-1.131,0-2.26,0-3.39" transform="translate(32.188 31.585)" fill="#1a1818"/>
  </g>
</svg>
