<svg xmlns="http://www.w3.org/2000/svg" width="109.945" height="109.947" viewBox="0 0 109.945 109.947">
  <g id="Group_1804" data-name="Group 1804" transform="translate(-432.166 -597.824)">
    <path id="Path_6458" data-name="Path 6458" d="M542.087,600.139a4.159,4.159,0,0,0-2.316-2.315H519.89l-.428.28c-.473.309-.945.618-1.436.9a3.8,3.8,0,0,1-1.664.656c-1.286.054-2.571.043-3.85.034l-1.064-.007h-.018a2.823,2.823,0,0,0-2.387.958,2.365,2.365,0,0,1-2.082.889l-13.843,0q-10.614,0-21.227-.016h-.027a9.116,9.116,0,0,0-5.571,1.8q-2.583,1.892-5.175,3.769c-3.941,2.864-8.013,5.825-11.963,8.808a12.819,12.819,0,0,0-2.866,3.437,34.079,34.079,0,0,0-1.829,3.561c-.251.54-.5,1.081-.763,1.614L440.5,630.98q-3.816,7.746-7.616,15.5a6.471,6.471,0,0,0,2.5,8.521,6.389,6.389,0,0,0,8.489-1.986c.089-.121.186-.238.284-.358l.636-.784.49.627c1.773,2.26,3.218,3.195,5.153,3.332a6.253,6.253,0,0,0,6.769-4.868q2.96-11.324,5.843-22.667a2.513,2.513,0,0,1,1.823-1.978l.782-.249a25.689,25.689,0,0,0,4.187-1.6,6.317,6.317,0,0,1,2.914-.837,4.791,4.791,0,0,1,3.823,2.194c.688.891,1.142,1.673.2,2.936q-5.616,7.556-11.159,15.169l-2.658,3.63a6.683,6.683,0,0,0,1.147,9.168,6.594,6.594,0,0,0,9.257-.875l1.977-2.28q7.047-8.131,14.115-16.242a3.731,3.731,0,0,1,1.932-1.167,18.591,18.591,0,0,0,12.442-8.716,3.142,3.142,0,0,1,2.41-1.292,3.222,3.222,0,0,1,2.658.837,3.138,3.138,0,0,0,2.409,1.063h.013l.4,0c1.61-.007,3.216-.015,4.826.014a1.965,1.965,0,0,1,1.427.562,3.706,3.706,0,0,0,3.258,1.306l2.967-.014c4.439-.022,9.027-.043,13.546.036,2.259-.023,3.572-.649,4.331-2.284ZM457.081,641.8c-.726,2.829-1.453,5.659-2.2,8.485a3.982,3.982,0,0,1-3.849,3.128c-.1,0-.2,0-.3-.013a3.855,3.855,0,0,1-3.634-3.614,6.481,6.481,0,0,1,.692-3.24c3.151-5.479,6.447-11,9.632-16.331l.341-.569a3.661,3.661,0,0,1,.847-.894c.116-.094.231-.19.336-.291l.414-.394,1.032.88Zm51.034-18.038-1.612.007c-.734.009-1.456.014-2.181-.016a1.784,1.784,0,0,0-1.877,1.182A15.925,15.925,0,0,1,490,633.913a2.975,2.975,0,0,0-1.6.923q-6.3,7.191-12.552,14.435l-4.174,4.821a4.534,4.534,0,0,1-3.4,1.706,4.171,4.171,0,0,1-2.654-1,4.236,4.236,0,0,1-.51-6.008l13.85-18.912c1.5-2.04,1.35-3.8-.461-5.545-.833-.8-1.662-1.6-2.515-2.369a3.641,3.641,0,0,0-3.979-.844q-5.038,1.837-10.068,3.691l-3.97,1.458a4.672,4.672,0,0,0-2.41,2.237q-3.206,5.44-6.425,10.874-3.518,5.955-7.032,11.913a3.983,3.983,0,0,1-4.091,2.222,3.854,3.854,0,0,1-2.952-1.935,4.029,4.029,0,0,1-.143-3.681c.49-1.079,1.019-2.137,1.548-3.195l3.952-8.012q3.881-7.879,7.744-15.765a9.249,9.249,0,0,1,2.94-3.518q8.22-5.944,16.392-11.958a7.484,7.484,0,0,1,4.588-1.509h.018q13.026.033,26.053.016h9.967Zm9.21,1.811h-6.653V602.195h6.653Zm22.3,1.818H519.962V600.323h19.659Z" transform="translate(0.024)"/>
    <path id="Path_6459" data-name="Path 6459" d="M480.906,677.107c2.069,0,4.125-.005,6.189-.009,1.83,0,3.69-.007,5.556-.007,2.958,0,5.937.009,8.892.049,2.2,0,3.446-.676,4.159-2.349v-3.9c-.1-.327-.2-.652-.3-.981a18.045,18.045,0,0,0-.766-2.23,10.239,10.239,0,0,0-4.647-4.814l-.49-.264.517-1.353c.255-.677.5-1.33.786-1.964a2.87,2.87,0,0,1,1-1.207,3.94,3.94,0,0,0,2.013-3.422l.014-1.183c.027-2.022.058-4.114-.051-6.154A12.311,12.311,0,0,0,492.488,635.8c-6.732-.327-12.238,4.006-13.093,10.321a41.474,41.474,0,0,0-.222,5.867c.007.8.014,1.6,0,2.4a3.976,3.976,0,0,0,2.063,3.686,1.95,1.95,0,0,1,.867.862c.3.754.567,1.521.84,2.307l.481,1.373-.453.262c-3.988,2.3-5.844,5.777-5.675,10.625C477.385,675.962,478.53,677.105,480.906,677.107Zm4.5-36.786a9.833,9.833,0,0,1,15.877,8.823l-.155,1.5-.961-1.167c-1.053-1.281-2.331-1.646-4.02-2.022a8.93,8.93,0,0,1-3.437-1.792c-1.061-.824-1.5-.82-2.354.016a6.41,6.41,0,0,1-3.915,1.888,5.046,5.046,0,0,0-3.527,1.816l-.764.909-.327-1.14C481.051,646.455,482.659,642.493,485.407,640.321Zm-2.078,15.855a2.1,2.1,0,0,1-1.456-.719,1.317,1.317,0,0,1-.182-1.05c.148-.7,1.006-1.191,1.547-1.355a1.407,1.407,0,0,0,1.146-1.111,2.469,2.469,0,0,1,2.1-1.932c.864-.248,1.707-.56,2.553-.875.587-.217,1.174-.432,1.769-.631a2.409,2.409,0,0,1,1.429.005c.582.2,1.155.408,1.731.62.844.314,1.718.638,2.586.883a2.515,2.515,0,0,1,2.1,1.946c.126.609.457.907,1.227,1.1a2.1,2.1,0,0,1,1.025.757c.083.094.166.19.253.271l.475.439-.448.464a3.229,3.229,0,0,0-.239.291,1.876,1.876,0,0,1-1.046.82,1.427,1.427,0,0,0-1.292,1.444c-.575,3.937-3.016,6.015-7.056,6.015-.047,0-.09,0-.136,0-4.183-.047-6.479-2.06-7.013-6.154C484.278,656.449,483.79,656.247,483.329,656.176Zm1.209,8.716a2.707,2.707,0,0,1,1.988.023,11.563,11.563,0,0,0,9.961-.031,2.531,2.531,0,0,1,1.912-.031,7.8,7.8,0,0,1,4.839,6.8,13.2,13.2,0,0,1,.025,1.568c-.005.248-.013.5-.013.77v.631h-23.2l-.108-.495A8.088,8.088,0,0,1,484.538,664.893Z" transform="translate(36.409 30.631)" fill="#ffc810"/>
    <path id="Path_6460" data-name="Path 6460" d="M484.852,660.395a7.211,7.211,0,0,1-2.5-5.54l0-1.727c0-1.662.009-3.326-.013-4.99a12.385,12.385,0,0,0-10.89-12.292,13.356,13.356,0,0,0-1.44-.076,11.988,11.988,0,0,0-11.981,9.683,34.712,34.712,0,0,0-.376,7.437l.014.846a8.541,8.541,0,0,1-3.171,7.256,2.879,2.879,0,0,0-1.059,2.5,3.226,3.226,0,0,0,1.664,2.5c.338.19.687.36,1.015.522l.876.439-.141.5c-.1.378-.22.743-.332,1.1a15.4,15.4,0,0,0-.582,2.23,19.311,19.311,0,0,0-.107,3.272A2.932,2.932,0,0,0,458.7,677.1c7.21.038,14.8.038,22.557,0a2.964,2.964,0,0,0,2.9-2.949,12.292,12.292,0,0,0-1.088-6.536l-.3-.576,1.178-.58c1.552-.734,2.452-1.673,2.607-2.718S486.119,661.542,484.852,660.395Zm-19.464-20.967a9.242,9.242,0,0,1,10.375.73c3.063,2.213,4.44,5.506,4.094,9.786l-.043.531-.531.049c-1.841.168-2.542-.239-3.164-1.9-.92-2.448-2.121-3.03-4.765-2.318a54.913,54.913,0,0,1-6.219,1.238,5.776,5.776,0,0,0-3.941,2.085l-1.109,1.312-.007-1.717C460.06,644.574,461.8,641.367,465.388,639.428Zm-5.094,14.751a3.336,3.336,0,0,0,.246-.291,1.921,1.921,0,0,1,1.035-.808c.8-.173,1.156-.5,1.288-1.149a2.3,2.3,0,0,1,2.094-1.892c1.975-.322,3.95-.658,5.964-1l2.51-.427.19.475c.011.027.107.269.192.515a4.784,4.784,0,0,0,4.27,3.4,2.09,2.09,0,0,1,1.491.634,1.3,1.3,0,0,1,.237,1,2.162,2.162,0,0,1-1.494,1.482,1.889,1.889,0,0,0-1.268,1.089l-.365.65a19.246,19.246,0,0,1-2.194,3.363A6.05,6.05,0,0,1,470,663.591h0a6.112,6.112,0,0,1-4.533-2.4A20.82,20.82,0,0,1,463,657.352c-.39-.728-.721-1.122-1.437-1.241a1.8,1.8,0,0,1-1.028-.764c-.078-.094-.155-.192-.235-.271l-.455-.444Zm-3.758,9.909-.952-.226,4.653-6.051,2.559,4.143-.477.343c-.3.213-.589.441-.876.667A11.1,11.1,0,0,1,459.1,664.5a1.411,1.411,0,0,1-.582.114,4.113,4.113,0,0,1-1.333-.314A6.448,6.448,0,0,0,456.537,664.088Zm25.089,10-.069.555h-23l-.116-.486a8.128,8.128,0,0,1,5.824-9.669,2.234,2.234,0,0,1,1.547.266,7.59,7.59,0,0,0,8.375-.009,2.325,2.325,0,0,1,1.671-.217C479.878,665.635,482.2,669.476,481.625,674.093Zm1.9-10.229a3.678,3.678,0,0,1-1.792.784,3.55,3.55,0,0,1-1.865-.909c-.47-.336-.969-.634-1.48-.94l-1.236-.755,2.607-4.27L484.1,663.5Z" transform="translate(17.159 30.617)" fill="#ffc810"/>
    <path id="Path_6461" data-name="Path 6461" d="M435.536,677.122q10.847.016,21.7,0a3.1,3.1,0,0,0,3.35-3.207c.275-5.05-1.561-8.642-5.607-10.979l-.152-.087-.378-.549.452-1.012a15.458,15.458,0,0,0,.613-1.552,3,3,0,0,1,1.38-1.825,3.729,3.729,0,0,0,1.827-3.375c.022-2.271.04-4.544-.005-6.817a12.454,12.454,0,0,0-10.764-11.859,12.344,12.344,0,0,0-13.412,8.886,24.443,24.443,0,0,0-.486,7.3c.031.934.06,1.868.051,2.8a3.714,3.714,0,0,0,2.024,3.269,2.606,2.606,0,0,1,.943,1.155c.275.647.513,1.31.757,1.989l.453,1.249-.374.282c-.257.193-.519.381-.782.569a16.333,16.333,0,0,0-1.57,1.223c-2.427,2.242-3.531,5.229-3.373,9.132C432.271,675.906,433.462,677.118,435.536,677.122Zm4.071-36.2a9.9,9.9,0,0,1,10.863-1.814c3.888,1.792,5.992,5.478,5.769,10.113l-.081,1.684-1.046-1.321c-1.178-1.489-2.7-1.807-4.306-2.141a8.3,8.3,0,0,1-3.229-1.771c-1.012-.8-1.48-.813-2.271-.036a6.533,6.533,0,0,1-3.993,1.955,4.9,4.9,0,0,0-3.446,1.742l-.678.815-.394-.981C435.926,647.014,437.242,643.161,439.607,640.923Zm-1.55,15.207a2.107,2.107,0,0,1-1.062-.828c-.09-.107-.177-.215-.271-.305l-.493-.481.522-.452c.092-.079.181-.173.271-.267a2.259,2.259,0,0,1,1.023-.723c.743-.2,1.082-.511,1.207-1.133a2.46,2.46,0,0,1,2.013-1.9c.871-.255,1.722-.564,2.577-.875.616-.226,1.232-.45,1.852-.656a2.4,2.4,0,0,1,1.429.029c.562.188,1.118.4,1.675.607.829.313,1.686.632,2.535.873a2.544,2.544,0,0,1,2.192,1.971c.085.419.3.875,1.234,1.084a2.056,2.056,0,0,1,1.043.752c.087.1.173.193.264.275l.493.444-.472.472a3.306,3.306,0,0,0-.246.291,1.928,1.928,0,0,1-1.053.811,1.374,1.374,0,0,0-1.3,1.317c-.528,4.042-2.905,6.111-7.061,6.142h-.014c-4.327-.061-6.872-2.257-7.162-6.18C439.206,656.805,438.987,656.362,438.056,656.129Zm1.382,8.772a2.7,2.7,0,0,1,1.984.04,11.635,11.635,0,0,0,9.878.007,2.841,2.841,0,0,1,2.083-.02c3.435,1.474,5.171,4.895,4.647,9.152l-.069.553H434.84l-.081-.535C434.116,669.979,435.953,666.369,439.439,664.9Z" transform="translate(0 30.613)" fill="#ffc810"/>
  </g>
</svg>
