<svg xmlns="http://www.w3.org/2000/svg" width="143.695" height="103.381" viewBox="0 0 143.695 103.381">
  <g id="Group_1803" data-name="Group 1803" transform="translate(-326.225 -607.551)">
    <path id="Path_6452" data-name="Path 6452" d="M469.914,683.833v-2.769c0-1.178.01-2.356.006-3.534l-.006-1.458V643.8c0-6.8-3.882-10.7-10.653-10.705l-29.251,0-12.34,0v-14.9c-.006-6.645-3.982-10.613-10.632-10.615l-28.293,0-9.431,0-3.6,0c-.677,0-1.359,0-2.036,0l-.393,0c-2.786-.019-24.861-.042-27.695.029a9.632,9.632,0,0,0-9.082,7.25c-.065.24-.148.476-.232.708l-.052.152v45.966c2.448,6.662,4.711,8.2,11.956,8.2h5.628l.006,4.2c.008,2.7.013,5.33-.021,7.961-.025,1.637.474,2.567,1.664,3.112,1.146.524,2.141.278,3.431-.85q7.748-6.767,15.556-13.457a3.055,3.055,0,0,1,1.781-.929c2.057-.031,4.112-.038,6.192-.038q1.292,0,2.6,0l3.45,0-.01,6.534c-.012,3.074-.021,6.152.023,9.226a9.6,9.6,0,0,0,9.773,9.744c2.763.032,22.8.021,25.555.006l.491,0c4.943,0,9.807,0,14.721.04a4.669,4.669,0,0,1,2.732.994c1.79,1.462,3.529,2.986,5.271,4.509l3.086,2.686q3.765,3.267,7.533,6.528a2.777,2.777,0,0,0,4.682-2.124V695.382l3.122.008c1.646.006,3.245.01,4.843-.014a9.57,9.57,0,0,0,9.612-9.6c.006-.4,0-.791,0-1.186,0-.132.015-.263.011-.4ZM366.755,667.127h-.029a5.426,5.426,0,0,0-3.936,1.481c-2.316,2.084-4.678,4.118-7.04,6.15l-9.222,7.956,0-6.037c0-2.082.006-4.166-.006-6.25-.01-2.214-1.046-3.254-3.256-3.272-1.1-.008-2.193,0-3.283,0-1.268,0-2.541.006-3.809-.006-4.387-.044-7.224-2.892-7.228-7.259q-.014-21.132,0-42.261c0-4.429,2.88-7.305,7.33-7.332,1.209-.006,13.148-.008,19.772-.006l0,0,.95,0,.32,0H407.1c5.06,0,7.848,2.79,7.848,7.844q.006,20.565,0,41.128c0,5.233-2.663,7.886-7.915,7.888l-8.57,0Q382.609,667.163,366.755,667.127Zm93.511,25.532c-1.562.021-3.128.017-4.69.011l-2.266,0c-2.8,0-3.7.9-3.7,3.671l0,6.6,0,5.286-5.707-4.933c-3.738-3.224-7.361-6.355-10.968-9.5a4.769,4.769,0,0,0-3.1-1.138c-5.15.023-10.3.019-15.454.019-.474,0-3.314,0-6.762,0-.092,0-.184-.006-.282-.011s-.211-.013-.313-.013a.614.614,0,0,0-.154.011l-.017.013-13.386,0c-1.76.006-3.521.01-5.283-.011a6.686,6.686,0,0,1-6.939-6.5c-.1-3.629-.067-7.313-.031-10.874.013-1.439.027-2.878.031-4.319a.989.989,0,0,1,.28-.656l.23-.324.487-.117,8.487,0q8.189,0,16.379,0c6.6-.006,10.548-3.939,10.554-10.523l0-14.088,0-9.358,1.151-.061c.234-.016.42-.029.608-.029l9.5,0q15.6-.006,31.208.013a6.826,6.826,0,0,1,7.057,7.165q.02,7.685.008,15.37l-.01,25.9c0,.025,0,.048,0,.071,0,.453,0,.908,0,1.361A6.84,6.84,0,0,1,460.266,692.66Z" transform="translate(0 0)"/>
    <path id="Path_6453" data-name="Path 6453" d="M423.034,646.781a1.145,1.145,0,0,0,1.14-1.163,1.189,1.189,0,0,0-.982-1.42,4.153,4.153,0,0,0-1.053-.092q-13.755-.006-27.516-.006-15.92,0-31.841.008a4.414,4.414,0,0,0-1.184.113,1.312,1.312,0,0,0,.178,2.552,6.123,6.123,0,0,0,1.094.048l.334,0,22,0,7.334,0,7.261,0,21.781,0,.313,0A8.46,8.46,0,0,0,423.034,646.781Z" transform="translate(31.642 33.583)" fill="#ffc810"/>
    <path id="Path_6454" data-name="Path 6454" d="M357.795,631.982a9.069,9.069,0,0,0,5.279-4.864,9.4,9.4,0,0,0-5.1-12.553,9.394,9.394,0,0,0-12.795,8.282,1.77,1.77,0,0,0,.345,1.337,1.281,1.281,0,0,0,.923.413c.873.071,1.324-.47,1.439-1.52a10.931,10.931,0,0,1,.175-1.2,6.618,6.618,0,0,1,12.16-2.038,6.586,6.586,0,0,1,.294,6.317,6.667,6.667,0,0,1-5.236,3.688c-1.936.228-2.115.434-2.12,2.427l0,2.345h.01l-.01,2.024c-.01.94-.019,1.882.021,2.823a1.431,1.431,0,0,0,1.4,1.539c.768-.027,1.259-.616,1.282-1.535.036-1.426.077-3.039-.006-4.615A2.527,2.527,0,0,1,357.795,631.982Z" transform="translate(17.403 5.833)" fill="#ffc810"/>
    <path id="Path_6455" data-name="Path 6455" d="M380.505,630.314q12.624.04,25.239.006a2.187,2.187,0,0,0,1.6-.491,1.237,1.237,0,0,0,.3-.944c-.013-.411-.046-1.268-1.934-1.272q-4.456-.011-8.913-.006l-7.046,0q-4.637.009-9.285-.006h-.015c-1.1,0-1.46.349-1.669.877a1.184,1.184,0,0,0,.081,1.138A1.948,1.948,0,0,0,380.505,630.314Z" transform="translate(48.192 18.425)" fill="#ffc810"/>
    <path id="Path_6456" data-name="Path 6456" d="M380.862,635.856a5.056,5.056,0,0,0-1.215.1,1.129,1.129,0,0,0-.95,1.222,1.16,1.16,0,0,0,.992,1.3,4.931,4.931,0,0,0,1.243.084c3.252.008,6.376.01,9.5.008l14.3-.006.253,0a10.975,10.975,0,0,0,1.487-.061,1.144,1.144,0,0,0,1.128-1.27,1.168,1.168,0,0,0-1.092-1.322,5.3,5.3,0,0,0-1.044-.059C397.22,635.85,389.042,635.848,380.862,635.856Z" transform="translate(48.213 26.003)" fill="#ffc810"/>
    <path id="Path_6457" data-name="Path 6457" d="M350.709,633.786h.01a1.329,1.329,0,0,0,.963-.387,1.349,1.349,0,0,0,.368-.99,1.372,1.372,0,0,0-1.309-1.343h-.031a1.443,1.443,0,0,0-1.387,1.362,1.307,1.307,0,0,0,.39.944A1.4,1.4,0,0,0,350.709,633.786Z" transform="translate(21.224 21.606)" fill="#ffc810"/>
  </g>
</svg>
