<svg xmlns="http://www.w3.org/2000/svg" xmlns:xlink="http://www.w3.org/1999/xlink" width="97.542" height="97.562" viewBox="0 0 97.542 97.562">
  <defs>
    <clipPath id="clip-path">
      <rect id="Rectangle_2275" data-name="Rectangle 2275" width="97.542" height="97.561" fill="none"/>
    </clipPath>
  </defs>
  <g id="Group_1040" data-name="Group 1040" transform="translate(0 0)">
    <g id="Group_1039" data-name="Group 1039" transform="translate(0 0.001)" clip-path="url(#clip-path)">
      <path id="Path_3834" data-name="Path 3834" d="M25.351,73.279q4.468,4.468,8.939,8.933a1.515,1.515,0,0,0,1.138.573,1.524,1.524,0,0,0,.965-.821c.4-.663.8-1.331,1.2-2l4.245-7.06,1.7,1.836c.831.891,1.608,1.727,2.368,2.578a2.153,2.153,0,0,1,.451,1.179c.559,3.829,1.106,7.633,1.652,11.438.1.7.369.923.742,1.048s.69.09,1.209-.43l3.808-3.806Q59.9,80.623,66,74.475a2.141,2.141,0,0,0,.551-1.132c.573-4.859,1.1-9.724,1.618-14.589l.192-1.779a3.86,3.86,0,0,1,1.2-2.532c1.5-1.42,2.979-2.925,4.409-4.379l.383-.389c.706-.719,1.423-1.429,2.138-2.14C78.215,45.82,80,44.049,81.608,42.2c4.033-4.641,7.051-10.409,9.495-18.158A93.839,93.839,0,0,0,95.142,1.734,1.672,1.672,0,0,0,94.472,0H91.82l-.625.116c-.584.1-1.168.2-1.755.252a86,86,0,0,0-20.729,4.47A47.337,47.337,0,0,0,49.231,17c-2.513,2.67-5.182,5.264-7.76,7.774l-.853.829a4.149,4.149,0,0,1-2.279,1.127c-5.79.693-10.512,1.209-14.862,1.622a5.741,5.741,0,0,0-3.9,1.779c-3.746,3.863-7.624,7.717-11.373,11.443l-3.438,3.42c-.69.688-.745,1.007-.6,1.424s.388.643,1.356.779l3.308.461q3.433.477,6.866.965l.326.038a3.148,3.148,0,0,1,1.812.608c.844.747,1.613,1.568,2.357,2.361.286.305.573.609.861.908l.54.56-.443.641a1.267,1.267,0,0,1-.443.486l-7.388,4.449c-.6.364-.958.736-1,1.043s.207.734.69,1.219Zm40.59-12.614-.255,2.268c-.355,3.159-.707,6.291-1.07,9.422a2.143,2.143,0,0,1-.571,1.238c-3.653,3.666-7.317,7.323-11.033,11.031l-2.888,2.885-.575-1.679a3.021,3.021,0,0,1-.2-.673c-.4-2.719-.8-5.44-1.159-8.164a2.1,2.1,0,0,1,.513-1.654q7.635-7.68,15.3-15.316a1.293,1.293,0,0,1,.535-.31l1.421-.489ZM74.563,5.138a94.52,94.52,0,0,1,17.4-3l1.1-.089-.079,1.1a92.025,92.025,0,0,1-2.982,17.421l-.429,1.581L72.989,5.571ZM20.153,46.126a2.5,2.5,0,0,1-1.866.818,3.624,3.624,0,0,1-.582-.051c-1.7-.28-3.408-.516-5.117-.752l-2.243-.312c-.237-.033-.472-.079-.742-.133l-2.151-.4,1.485-1.583c.2-.215.367-.4.541-.57L12.7,39.922q4.086-4.081,8.157-8.175A4.155,4.155,0,0,1,23.5,30.4c2.672-.264,5.343-.563,8.083-.872l5.544-.616-2.023,2.2c-.184.2-.331.364-.486.519l-3.794,3.792q-5.344,5.342-10.675,10.7m.269,2.616.8-.837c.15-.161.339-.361.532-.556l8.987-8.977q10.377-10.36,20.719-20.756a46.243,46.243,0,0,1,18.033-10.9,2,2,0,0,1,1.883.416q8.335,8.278,16.614,16.615a2.084,2.084,0,0,1,.421,1.967A46.779,46.779,0,0,1,77.07,44.155c-5.717,5.6-11.459,11.372-17.011,16.952Q56.686,64.5,53.311,67.88a4.621,4.621,0,0,0-.389.47L52,69.495l-1.068-.989c-.215-.2-.391-.358-.562-.529L46.994,64.6q-5.273-5.275-10.571-10.531a1.937,1.937,0,0,0-1.022-.62,1.45,1.45,0,0,0-.907.5,2.687,2.687,0,0,0,.139,1.178c.019.016.195.177.3.274l.241.228Q42.029,62.5,48.9,69.349a1.968,1.968,0,0,0,.385.244c.119.065.236.13.347.2l1.005.631L46.379,74.7Zm2.983,6.228L40.173,71.739l-4.91,8.176L15.228,59.88Z" transform="translate(2.391 0)" fill="#1a1818"/>
      <path id="Path_3835" data-name="Path 3835" d="M21.417,47.639a2.534,2.534,0,0,0-1.375.706Q10.6,57.692,1.235,67.119c-.348.35-.663.734-.98,1.119L0,68.543v.506c.364.468.688.733.926.752.169.016.551-.074,1.3-.825q9.605-9.6,19.2-19.208a4.2,4.2,0,0,0,.65-.779.975.975,0,0,0-.03-.992.669.669,0,0,0-.632-.359" transform="translate(0 27.757)" fill="#ffc810"/>
      <path id="Path_3836" data-name="Path 3836" d="M14.938,44.162l-.044,0a2.371,2.371,0,0,0-1.291.666c-3.042,2.98-6.049,6-9.055,9.012l-2.065,2.07a4.538,4.538,0,0,0-.568.665c-.348.524-.142.768-.074.847a4.1,4.1,0,0,0,.84.657c.025.017.054.035.079.054.049-.032.1-.062.147-.092a5.514,5.514,0,0,0,.931-.665Q9.071,52.2,14.262,46.97l.753-.757a3.45,3.45,0,0,0,.573-.685.987.987,0,0,0-.03-1,.733.733,0,0,0-.62-.364" transform="translate(1 25.733)" fill="#ffc810"/>
      <path id="Path_3837" data-name="Path 3837" d="M20.854,51.486q-5.883,5.835-11.71,11.723a2.758,2.758,0,0,0-.405.7c-.033.071-.066.142-.1.214a1.177,1.177,0,0,0,.7.831c.283.133.644.2,1.146-.3Q16.4,58.783,22.272,52.87a1.214,1.214,0,0,0,.393-.853.924.924,0,0,0-.29-.662.992.992,0,0,0-1.521.13" transform="translate(5.033 29.746)" fill="#ffc810"/>
      <path id="Path_3838" data-name="Path 3838" d="M32.528,26.272A10.781,10.781,0,0,0,43.257,36.979h.006a10.705,10.705,0,1,0,0-21.411H43.24a10.741,10.741,0,0,0-10.712,10.7m10.682-8.7h.051a8.708,8.708,0,0,1,8.68,8.593,8.591,8.591,0,0,1-2.505,6.163A8.694,8.694,0,0,1,43.3,34.951h-.093a8.545,8.545,0,0,1-6.043-2.539A8.654,8.654,0,0,1,43.21,17.569" transform="translate(18.954 9.071)" fill="#ffc810"/>
      <path id="Path_3839" data-name="Path 3839" d="M20.033,30.531a1.048,1.048,0,0,0-.293.747.955.955,0,0,0,.981.926.939.939,0,0,0,.663-1.652,1.165,1.165,0,0,0-.69-.326.941.941,0,0,0-.662.305" transform="translate(11.503 17.612)" fill="#1a1818"/>
    </g>
  </g>
</svg>
