<svg id="Group_1045" data-name="Group 1045" xmlns="http://www.w3.org/2000/svg" xmlns:xlink="http://www.w3.org/1999/xlink" width="101.086" height="101.123" viewBox="0 0 101.086 101.123">
  <defs>
    <clipPath id="clip-path">
      <rect id="Rectangle_2281" data-name="Rectangle 2281" width="101.086" height="101.123" fill="none"/>
    </clipPath>
  </defs>
  <g id="Group_1045-2" data-name="Group 1045" transform="translate(0 0)" clip-path="url(#clip-path)">
    <path id="Path_3854" data-name="Path 3854" d="M99.475,39.487l-11.8,0-.819-1.97c-.513-1.25-1-2.431-1.551-3.584a1.736,1.736,0,0,1,.41-2.281c2.554-2.5,5.076-5.043,7.6-7.581a1.735,1.735,0,0,0,.589-1.054,1.043,1.043,0,0,0-.377-.714c-1.063-1.044-2.107-2.11-3.153-3.176a99.926,99.926,0,0,0-7.969-7.549C70.519,1.887,56.859-1.745,41.805.775A48.378,48.378,0,0,0,12.367,17.341,49.312,49.312,0,0,0,.329,56.121a47.625,47.625,0,0,0,10.8,25.8c2.324,2.793,4.956,5.426,7.5,7.972,1.092,1.09,2.179,2.181,3.252,3.286.5.515.86.755,1.137.758.322.062.681-.253,1.234-.806l1.518-1.513c1.952-1.946,3.906-3.893,5.837-5.86a1.868,1.868,0,0,1,1.337-.678,2.171,2.171,0,0,1,.944.247c1.433.7,2.933,1.265,4.349,1.786a1.641,1.641,0,0,1,1.235,1.742c-.025,2.678-.023,5.354-.018,8.031l0,2.6c0,1.419.209,1.633,1.59,1.633l19.14,0c1.617,0,1.766-.15,1.766-1.778V87.693l6.924-2.854,8.306,8.327c1.026,1.025,1.339,1.026,2.382-.016L93.106,79.619c1.049-1.049,1.053-1.362.031-2.387l-2.673-2.674q-2.423-2.423-4.839-4.857c-.086-.087-.829-.867-.553-1.553.6-1.493,1.245-2.967,1.9-4.461l.742-1.7H99.4c1.485,0,1.691-.2,1.691-1.64V41.1c0-1.4-.211-1.609-1.612-1.609M15.321,83.611C5.239,72.277,1.028,59.453,2.8,45.494,5.4,25.073,16.639,11.367,36.2,4.757A47.414,47.414,0,0,1,83.486,15.379l.51.485-3.365,3.1-.446-.393C70.9,10.357,60.088,6.558,48.057,7.295A42.96,42.96,0,0,0,19.831,20.061C5.555,34.129,1.042,61.185,18.649,80.368l.426.464-3.29,3.3ZM66,36.283c5.5,6.2,7.035,13.229,4.544,20.88-2.508,7.7-8.094,12.591-16.155,14.128A20.216,20.216,0,0,1,36.325,66.1c-1.156-1.041-1.438-1.038-2.5.021q-5.9,5.9-11.8,11.808a5.194,5.194,0,0,0-.456.553l-.752.949-.518-.558A41.423,41.423,0,0,1,78.713,20.212l.482.447-.684.737c-.178.2-.357.39-.544.577L66.011,33.93c-.956.957-.959,1.288-.012,2.354m32.93,23.622-4.632,0c-2.416,0-4.834.01-7.25-.016-.832.015-1.158.263-1.485,1.113-.813,2.109-1.739,4.354-2.913,7.069-.431.993-.391,1.266.281,1.941,1.87,1.873,3.745,3.742,5.581,5.572l2.6,2.592L78.106,91.185l-1.153-1.2c-.559-.584-1.169-1.222-1.791-1.849q-1.142-1.15-2.291-2.293c-.993-.99-1.985-1.979-2.967-2.977a1.3,1.3,0,0,0-1.678-.275c-2.469,1.056-4.959,2.064-7.447,3.069a1.228,1.228,0,0,0-.911,1.324c.018,2.421.015,4.842.012,7.262l0,4.725H41.539l0-5.428c0-2.164-.01-4.327.018-6.49a1.337,1.337,0,0,0-1.044-1.441c-2.465-.974-4.906-1.982-7.255-2.993a1.353,1.353,0,0,0-1.766.276C29.7,84.708,27.9,86.5,26.094,88.3l-1.748,1.743c-.179.179-.363.352-.558.535l-.707.673L17.624,85.8,35.275,68.137l.464.385c10.24,8.538,24,6,31.377-1.383A23.558,23.558,0,0,0,68.4,35.648l-.385-.462L85.588,17.607l5.543,5.551-.551.6c-.138.153-.314.349-.5.535l-7.138,7.146c-.684.688-.727.959-.3,1.936,1.031,2.38,2.013,4.757,2.921,7.061.4,1.01.561,1.127,1.582,1.127l11.785,0Z" transform="translate(0 0)" fill="#1a1818"/>
    <path id="Path_3855" data-name="Path 3855" d="M39.419,47.373a6.282,6.282,0,0,0,5.22-5.286A6.207,6.207,0,0,0,40.878,35.6l-1.319-.525,0-6.928q0-6.067,0-12.133a1.474,1.474,0,0,0-.355-1.084.975.975,0,0,0-.762-.225c-.262.018-.956.064-.956,1.344l0,1.291q-.007,8.174.012,16.344a1.78,1.78,0,0,1-1.28,1.926,5.485,5.485,0,0,0-3.332,3.317,1.838,1.838,0,0,1-2.02,1.313c-3.572-.03-7.145-.035-10.717.008a1.79,1.79,0,0,0-.975.247,1.942,1.942,0,0,0-.235,1.309c.086.419.587.5,1.01.5h3.814c2.34,0,4.678.007,7.017-.021l.059,0a1.969,1.969,0,0,1,2.1,1.413,6.067,6.067,0,0,0,6.49,3.679m-3.778-8.919a4.075,4.075,0,0,1,2.836-1.25h.043a4.131,4.131,0,0,1,4.056,4.01,4.141,4.141,0,0,1-4.015,4.1h-.035A4.121,4.121,0,0,1,34.465,41.3a4.05,4.05,0,0,1,1.176-2.85" transform="translate(12.189 9.476)" fill="#ffc810"/>
    <path id="Path_3856" data-name="Path 3856" d="M51.812,34.58a15.783,15.783,0,0,0-4.62-10.5,1.06,1.06,0,0,0-1.614-.169.923.923,0,0,0-.322.73,1.565,1.565,0,0,0,.487.961,14.767,14.767,0,0,1,4.165,10.03l0,.054-.008.056c-.046.324-.084.651-.122.979a17.538,17.538,0,0,1-.354,2.22,14.1,14.1,0,0,1-9.6,10.273,14.616,14.616,0,0,1-14.173-3.4,1.761,1.761,0,0,0-1.087-.538.9.9,0,0,0-.686.331c-.582.635-.174,1.27.27,1.691a15.663,15.663,0,0,0,12.967,4.487A16.236,16.236,0,0,0,51.812,34.58" transform="translate(15.213 15.223)" fill="#ffc810"/>
    <path id="Path_3857" data-name="Path 3857" d="M14.5,40.567a1.177,1.177,0,0,0-.539.137c-.859.438-1.775.962-2.882,1.653a1.034,1.034,0,0,0-.438,1.474,1,1,0,0,0,1.433.357,27.6,27.6,0,0,0,2.939-1.714,2.08,2.08,0,0,0,.475-.627l.063-.109a1.253,1.253,0,0,0-.533-1.023.963.963,0,0,0-.518-.148" transform="translate(6.757 26.156)" fill="#ffc810"/>
    <path id="Path_3858" data-name="Path 3858" d="M32.278,8.509A.993.993,0,0,0,31.25,7.456h-.008a.967.967,0,0,0-1.026,1.02c-.036,1.2-.036,2.365,0,3.465a1.029,1.029,0,0,0,2.056,0c.025-.395.018-.793.012-1.189l0-.579,0-.51c.007-.387.012-.775-.007-1.16" transform="translate(19.464 4.807)" fill="#ffc810"/>
    <path id="Path_3859" data-name="Path 3859" d="M7.443,31.261a.959.959,0,0,0,.928,1.023c1.316.049,2.515.049,3.666,0a.875.875,0,0,0,.623-.291,1.018,1.018,0,0,0,.255-.748.931.931,0,0,0-.926-1,8.068,8.068,0,0,0-1.146-.02c-.2.007-.4,0-.586.012l-.594-.008c-.2,0-.4-.007-.594-.007-.227,0-.456,0-.681.02a.97.97,0,0,0-.946,1.028" transform="translate(4.799 19.475)" fill="#ffc810"/>
    <path id="Path_3860" data-name="Path 3860" d="M42.46,15.036a29.4,29.4,0,0,0,1.753-3.053.915.915,0,0,0-.015-.9,1.342,1.342,0,0,0-1.043-.571l-.1.059a2.139,2.139,0,0,0-.674.5,25.474,25.474,0,0,0-1.7,2.944.98.98,0,0,0,.367,1.363,1,1,0,0,0,1.418-.339" transform="translate(26.137 6.777)" fill="#ffc810"/>
    <path id="Path_3861" data-name="Path 3861" d="M11.069,20.818c.839.531,1.712,1.012,2.584,1.49l.324.179a2,2,0,0,0,.388.132l.238.067.112-.1a3.08,3.08,0,0,0,.75-.78.83.83,0,0,0-.391-1.081C14.2,20.17,13.23,19.6,12.1,19a1.289,1.289,0,0,0-.609-.169.971.971,0,0,0-.839.507,1.037,1.037,0,0,0,.418,1.48" transform="translate(6.762 12.141)" fill="#ffc810"/>
    <path id="Path_3862" data-name="Path 3862" d="M12.924,21.541l-.028.038.035-.031Z" transform="translate(8.314 13.889)" fill="#1a1818"/>
    <path id="Path_3863" data-name="Path 3863" d="M12.9,21.564Z" transform="translate(8.315 13.904)" fill="#1a1818"/>
    <path id="Path_3864" data-name="Path 3864" d="M22.443,13.939a24.772,24.772,0,0,0-1.66-2.85,2.242,2.242,0,0,0-.676-.516c-.035-.02-.069-.039-.1-.059a1.361,1.361,0,0,0-1.059.564.892.892,0,0,0-.026.883,28.772,28.772,0,0,0,1.75,3.053,1.036,1.036,0,1,0,1.771-1.074" transform="translate(12.133 6.778)" fill="#ffc810"/>
    <path id="Path_3865" data-name="Path 3865" d="M50.967,49.738l-1.395-1.4-1.214,1.15,1.278,1.536Z" transform="translate(31.179 31.166)" fill="#1a1818"/>
    <rect id="Rectangle_2279" data-name="Rectangle 2279" width="1.956" height="1.949" transform="translate(92.256 49.777)" fill="#1a1818"/>
    <rect id="Rectangle_2280" data-name="Rectangle 2280" width="1.985" height="1.91" transform="translate(49.741 92.326)" fill="#1a1818"/>
  </g>
</svg>
