<svg xmlns="http://www.w3.org/2000/svg" width="109.939" height="109.947" viewBox="0 0 109.939 109.947">
  <g id="Group_1809" data-name="Group 1809" transform="translate(-259 -1768)">
    <g id="Group_1808" data-name="Group 1808">
      <g id="Group_1801" data-name="Group 1801" transform="translate(158.106 1168.162)">
        <path id="Path_6441" data-name="Path 6441" d="M210.833,670.09q-.006-6.152,0-12.307,0-6.608-.006-13.218a8.414,8.414,0,0,0-3.128-6.732,12.717,12.717,0,0,0-1.5-1.029c-.256-.159-.51-.317-.76-.482l-.719-.478.66-.56a14.6,14.6,0,0,0,5.392-10.045,14.434,14.434,0,0,0-3.261-10.336,14.273,14.273,0,0,0-18.6-2.74,13.4,13.4,0,0,0-5.857,7.906c-1.5,5.521-.119,10.308,4.209,14.64l1.107,1.107-3.971.006c-2.229,0-4.344.011-6.458-.037a3.175,3.175,0,0,1-2.015-.851c-2.746-2.7-5.466-5.423-8.187-8.147l-3.126-3.126c-1.112-1.113-1.561-1.109-2.668-.011q-3.232,3.218-6.448,6.452c-1.1,1.1-1.1,1.574,0,2.674l5.316,5.314q5.217,5.212,10.423,10.435a2.536,2.536,0,0,0,1.941.816c3.174-.028,6.352-.019,9.53-.019l5.223,0v14.245h-33.49l9.472-14.233-1.989-1.326c-.1.145-.2.284-.293.423l-2.364,3.545q-3.513,5.276-7.04,10.538a2.119,2.119,0,0,1-1.413,1.066c-1.01.065-2.01.056-3.067.046l-1.819-.007,0-4.138q0-2.545,0-5.091c0-1.608-.282-1.889-1.858-1.895q-4.486-.006-8.97,0h-5.835l0-2.922c0-1.585,0-3.111,0-4.635a8.611,8.611,0,0,0-3.1-7.075,13.033,13.033,0,0,0-1.541-1.062c-.263-.165-.527-.33-.784-.5l-.577-.384.421-.551a1.647,1.647,0,0,1,.224-.278l.421-.374a13.746,13.746,0,0,0,4.865-9.867,14.127,14.127,0,0,0-26.813-7.014A19.53,19.53,0,0,0,101.313,621c-.135.491-.269.983-.419,1.465v3.274c.156.48.295.968.432,1.455a14.624,14.624,0,0,0,1.164,3.18,28.509,28.509,0,0,0,2.534,3.578c.41.521.82,1.04,1.214,1.572l.406.549-1.125.74c-.471.3-1.027.649-1.541,1.051a9.678,9.678,0,0,0-3.085,5.232v28.372a9.222,9.222,0,0,0,3.441,5.748,7.527,7.527,0,0,0,4.112,1.631c1.218.059,1.758.642,1.75,1.895-.028,5.412-.024,10.824-.019,16.236l0,3.608c0,.215.009.432.022.651h2.427l-.028-21.16a1.224,1.224,0,0,1,.085-.423l.148-.439.512-.146h13.5l0,6.5q0,6.761-.015,13.518a2.37,2.37,0,0,0,.777,2.149h13.755a1.806,1.806,0,0,0,.875-1.826q-.044-13.363-.007-26.726a9.532,9.532,0,0,0-1.663-5.57l-.675-1.009h14.678v32.7h-7.4v2.434h17.385v-2.39h-7.418V666.111H172.1l-.862,1.059c-1.8,2.212-1.772,4.745-1.739,7.427l.009,5.853q.006,9.428-.017,18.858c-.006,1.044.234,1.583.868,1.934H184.12a2.369,2.369,0,0,0,.775-2.149q-.028-6.644-.013-13.29l0-6.721H198.8l.156.425a1.279,1.279,0,0,1,.163.575q-.006,9.814-.024,19.629l0,1.531h2.429c.011-.219.02-.434.02-.651q.006-9.937,0-19.877c0-.629-.011-1.745,1.433-1.832A8.607,8.607,0,0,0,210.833,670.09ZM103.3,623.959a11.817,11.817,0,0,1,11.749-11.708h.046a11.778,11.778,0,0,1,0,23.556h-.056A11.922,11.922,0,0,1,103.3,623.959Zm40.186,39.571H118.124V648.843H115.71v15.094c0,1.817.282,2.091,2.145,2.091H123.7q4.681,0,9.357,0c4.22.007,6.741,2.51,6.747,6.695q.011,8.6,0,17.194l0,8.834H129.265V678.693c0-1.906-.2-2.1-2.106-2.1l-16.723,0c-4.668,0-7.138-2.462-7.138-7.112V645.257c0-4.535,2.479-7.034,6.977-7.036l.986,0q4.444,0,8.9,0c4.077.011,6.637,2.561,6.678,6.652.017,1.628.013,3.254.009,4.88,0,1.055,0,2.108,0,3.163.006,1.671.326,1.986,2.026,1.987l14.615,0Zm41.41-39.469a11.844,11.844,0,0,1,11.751-11.81h.006a11.778,11.778,0,0,1,.065,23.556c-.032,0-.063,0-.095,0a11.594,11.594,0,0,1-8.178-3.408A11.739,11.739,0,0,1,184.9,624.061Zm16.707,52.52q-5.518.022-11.037.009l-6.018,0c-1.871,0-2.086.221-2.086,2.125l0,20.05H171.993l-.044-1c-.015-.252-.028-.495-.028-.738v-2.679q0-10.718,0-21.437c0-4.366,2.514-6.873,6.893-6.877l9.775,0c1.493,0,1.834-.347,1.836-1.834q.008-7.712,0-15.424c0-1.556-.3-1.85-1.912-1.85h-4.044q-5.153.011-10.3-.022a2.723,2.723,0,0,1-1.778-.675q-5.851-5.785-11.656-11.619l-2.264-2.268c-.1-.106-.2-.219-.282-.323l-.363-.452.315-.528,5.164-5.191.7.651c.191.174.391.358.584.549l2.151,2.147q4.08,4.066,8.137,8.156a2.744,2.744,0,0,0,2.128.89h.007q10.551-.034,21.108-.015l3.332,0c4.429,0,6.971,2.527,6.973,6.934q.006,12.276,0,24.55C208.427,673.995,205.876,676.566,201.6,676.581Z" transform="translate(0 8.543)"/>
        <path id="Path_6442" data-name="Path 6442" d="M126.108,637.368c.577.224.994.048,1.784-.74l3.908-3.912c2.334-2.33,4.667-4.657,6.977-7.008a3.716,3.716,0,0,1,2.868-1.239l.048,0c5.859.052,11.723.037,17.589.022,3.567-.013,5.534-1.989,5.54-5.566q.008-6.736,0-13.469c0-3.669-1.943-5.61-5.607-5.612l-24.056,0q-2.522,0-5.045,0-3.535,0-7.068.013a4.772,4.772,0,0,0-5.093,4.676c-.109,4.859-.111,10,0,15.287a4.7,4.7,0,0,0,4.6,4.637c.447.037.9.054,1.383.069l1.374.059,0,4.389c0,2.193,0,4.389-.009,6.584C125.3,636.687,125.491,637.128,126.108,637.368Zm-1.3-15.287c-.528,0-1.055.005-1.58-.008-1.988-.043-2.915-1-2.92-2.994q-.014-4.45-.006-8.9l0-3.484c0-3.992.456-4.448,4.44-4.448H158.96c2.618,0,3.458.844,3.46,3.476v12.923c0,2.6-.821,3.428-3.378,3.428l-4.329.007c-4.607,0-9.211.015-13.815-.031a3.786,3.786,0,0,0-3.167,1.283c-1.939,2.032-3.968,4.04-5.929,5.983l-2.277,2.264c-.1.1-.213.2-.384.341l-1.42,1.237v-9.064c0-1.724-.28-2.006-1.98-2.017Z" transform="translate(14.499 0)" fill="#ffc810"/>
        <rect id="Rectangle_2602" data-name="Rectangle 2602" width="31.961" height="2.265" transform="translate(139.872 614.743)" fill="#ffc810"/>
        <rect id="Rectangle_2603" data-name="Rectangle 2603" width="17.115" height="2.269" transform="translate(154.71 607.323)" fill="#ffc810"/>
        <rect id="Rectangle_2604" data-name="Rectangle 2604" width="9.686" height="2.263" transform="translate(139.869 607.328)" fill="#ffc810"/>
      </g>
    </g>
  </g>
</svg>
