<svg id="Group_1042" data-name="Group 1042" xmlns="http://www.w3.org/2000/svg" xmlns:xlink="http://www.w3.org/1999/xlink" width="84.997" height="101.123" viewBox="0 0 84.997 101.123">
  <defs>
    <clipPath id="clip-path">
      <rect id="Rectangle_2277" data-name="Rectangle 2277" width="84.997" height="101.122" fill="none"/>
    </clipPath>
  </defs>
  <g id="Group_1041" data-name="Group 1041" transform="translate(0 0)" clip-path="url(#clip-path)">
    <path id="Path_3840" data-name="Path 3840" d="M82.64,94.224V5.645C82.64,2.061,80.6,0,77.04,0L37.749,0a3.892,3.892,0,0,0-.632.021A1.023,1.023,0,0,0,36.235,1.1c.01.306.028,1.016,1.471,1.016l39.064,0c2.635,0,3.76,1.115,3.76,3.722V94.313c0,2.624-1.118,3.744-3.737,3.744H5.839c-2.611,0-3.726-1.123-3.727-3.755V69.692l0-27.5c0-.541-.135-1.455-1.039-1.479a.821.821,0,0,0-.652.236A1.763,1.763,0,0,0,0,42.216Q0,43.749,0,45.28L0,58.653,0,94.822a5.036,5.036,0,0,0,3,4.911c.26.127.528.234.8.343l.229.094h74.4a1.117,1.117,0,0,1,.159-.076c3.139-1.2,4.046-2.513,4.046-5.87" transform="translate(0 0)" fill="#1a1818"/>
    <path id="Path_3841" data-name="Path 3841" d="M54.21,47.44a24.863,24.863,0,0,0,5.878-22.434A24.566,24.566,0,0,0,50.119,9.794,25.379,25.379,0,0,0,31.492,5.138a1.336,1.336,0,0,0-1.091.7.989.989,0,0,0,.106.985c.226.345.541.535,1.382.426a23.443,23.443,0,0,1,25.27,31.18,21.967,21.967,0,0,1-4.116,7.1l-.845.992L51.53,45.4a19.434,19.434,0,0,0-9.851-8.272l-1.118-.447.852-1.172a2.071,2.071,0,0,1,.3-.379c2.944-2.8,2.7-9.493.983-12.38a8.622,8.622,0,0,0-6.656-4.1,8.938,8.938,0,0,0-7.5,2.767C25.9,24.314,25.661,30.677,27.4,33.489c.312.5.653.992,1.009,1.5l1.209,1.759-1.1.426a19.113,19.113,0,0,0-9.779,8.171l-.6,1-.844-.8a20.227,20.227,0,0,1-4.191-7.048c-.291-.888-.52-1.8-.751-2.7-.114-.455-.229-.91-.351-1.362-.146-.53-.361-.8-.639-.811h-.037a2.272,2.272,0,0,0-1.252.4c-.25.189-.219.58-.059,1.385a24.6,24.6,0,0,0,6.312,12.386c6.585,6.873,14.643,9.467,23.947,7.713A23.982,23.982,0,0,0,54.21,47.44M28.568,30.356a9.9,9.9,0,0,1,.51-5.818,6.638,6.638,0,0,1,7.453-3.745,6.762,6.762,0,0,1,5.309,6.556c.011.218.01.434.007.673l0,.315A6.959,6.959,0,0,1,38.9,34.786a6.637,6.637,0,0,1-10.332-4.429m21.314,18.22a22.727,22.727,0,0,1-14.8,5.273A22.543,22.543,0,0,1,20.362,48.6l-.509-.439.255-.623c2.188-5.358,8.638-9.41,15-9.428,6.258-.041,12.789,4.021,15.025,9.4l.26.626Z" transform="translate(6.192 3.071)" fill="#ffc810"/>
    <path id="Path_3842" data-name="Path 3842" d="M15.426,0h-.013a15.4,15.4,0,0,0-.073,30.806h.041A15.4,15.4,0,1,0,15.426,0m9.308,24.818a13.149,13.149,0,0,1-9.3,3.875h-.075A13.354,13.354,0,0,1,2.115,15.44,13.384,13.384,0,0,1,15.4,2.116h.01a13.252,13.252,0,0,1,9.324,22.7" transform="translate(0.001 0.002)" fill="#1a1818"/>
    <path id="Path_3843" data-name="Path 3843" d="M18.673,43c.01.957,1.123,1.044,1.465,1.047l.213,0,27.047,0,.2,0a4.191,4.191,0,0,0,.572-.018,1,1,0,0,0,.907-1.105c-.013-.242-.05-.98-1.313-.982q-5.052-.012-10.107,0H30.086l-9.989,0a1.63,1.63,0,0,0-1.169.395.89.89,0,0,0-.255.663" transform="translate(11.68 26.23)" fill="#1a1818"/>
    <path id="Path_3844" data-name="Path 3844" d="M19.984,50.907q4.808.017,9.62.007l4.21,0,5.291,0c2.915,0,5.827,0,8.739-.008a1.311,1.311,0,0,0,1.04-.395,1.108,1.108,0,0,0,.159-.927c-.044-.215-.159-.779-1.336-.779l-14.7,0-6.874,0c-2.034,0-4.067,0-6.1-.008-.853-.037-1.094.31-1.252.653a.923.923,0,0,0,.031.915,1.358,1.358,0,0,0,1.17.541" transform="translate(11.682 30.521)" fill="#1a1818"/>
    <path id="Path_3845" data-name="Path 3845" d="M14.492,41.937a1.049,1.049,0,0,0-.725,1.793,1.051,1.051,0,1,0,.738-1.793Z" transform="translate(8.418 26.232)" fill="#1a1818"/>
    <path id="Path_3846" data-name="Path 3846" d="M14.508,50.9a1.048,1.048,0,1,0,0-2.1l-.013,0a1.017,1.017,0,0,0-.728.307,1.06,1.06,0,0,0-.306.774,1.009,1.009,0,0,0,1.05,1.018" transform="translate(8.418 30.527)" fill="#1a1818"/>
    <path id="Path_3847" data-name="Path 3847" d="M12.191,11.849l-2.36,2.365-1.313-1.4c-.424-.458-.823-.892-1.245-1.3a1.653,1.653,0,0,0-1.06-.546H6.195a.957.957,0,0,0-.673.345c-.647.684.031,1.486.255,1.715.992,1.019,2,2.019,3.014,3.019.922.909,1.344.907,2.276-.02q3.565-3.55,7.113-7.115a3.635,3.635,0,0,0,.507-.6A.908.908,0,0,0,18.7,7.234c-.375-.621-.743-.522-.884-.488a2.9,2.9,0,0,0-1.175.684c-1.482,1.435-2.939,2.9-4.452,4.418" transform="translate(3.283 4.203)" fill="#1a1818"/>
  </g>
</svg>
