<svg xmlns="http://www.w3.org/2000/svg" xmlns:xlink="http://www.w3.org/1999/xlink" width="104.473" height="104.478" viewBox="0 0 104.473 104.478">
  <defs>
    <clipPath id="clip-path">
      <rect id="Rectangle_2165" data-name="Rectangle 2165" width="104.473" height="104.478" fill="none"/>
    </clipPath>
  </defs>
  <g id="Group_915" data-name="Group 915" transform="translate(0 0)">
    <path id="Path_3480" data-name="Path 3480" d="M52.128,54.424l.007-.054h0l-.006-.007Z" transform="translate(44.704 46.62)" fill="#0f0f0f"/>
    <g id="Group_914" data-name="Group 914" transform="translate(0 0)">
      <g id="Group_913" data-name="Group 913" clip-path="url(#clip-path)">
        <path id="Path_3481" data-name="Path 3481" d="M11.883,24.094h0l-.037-.046Z" transform="translate(10.159 20.622)" fill="#0f0f0f"/>
        <path id="Path_3482" data-name="Path 3482" d="M34.542,2.136Z" transform="translate(29.623 1.831)" fill="#0f0f0f"/>
        <path id="Path_3483" data-name="Path 3483" d="M36.193,32.746l-.1.143c-.069.1-.152.215-.234.329l-.167.228a2.038,2.038,0,0,0-.113.2,23.817,23.817,0,0,0-2.5,5.517l-.141.459h-.49c-2,0-4.009,0-6.011.024a10.672,10.672,0,0,0-10.659,10.5c-.087,3.45-.087,7.105,0,11.851A13.367,13.367,0,0,0,19.191,70.7c.134.154.247.308.381.489l.918,1.2L19,72.6c-.277.037-.494.067-.713.089A20.184,20.184,0,0,0,.271,90.363a75.357,75.357,0,0,0-.234,7.854C.045,99.6.052,101,.019,102.381a1.974,1.974,0,0,0,1.135,2.1H98.081a7.208,7.208,0,0,0,4.88-2.941,25.548,25.548,0,0,0,1.5-3.346V96.24a8.079,8.079,0,0,0-2.389-4.271l-.492-.464.483-.472a8.6,8.6,0,0,0,2.411-4.428l-.013-1.936a8.43,8.43,0,0,0-2.378-4.3l-.472-.463.468-.466a8.646,8.646,0,0,0,2.394-4.414l-.019-1.878A7.426,7.426,0,0,0,98,67.011l-.578-.067,0-.583c.017-3.65.069-18.819-.041-20.772A24.877,24.877,0,0,0,93.68,33.552l-.173-.264a25.26,25.26,0,0,0-2.294-3l-.294-.359a23.874,23.874,0,0,0-8.666-6.108l-.446-.186c-.15-.059-.312-.139-.507-.24L80.5,23l.368-.938c.089-.234.176-.461.271-.684L87.875,5.636c.645-1.5.5-1.973-.875-2.781l-.412-.243c-.687-.4-1.373-.81-2.069-1.2l-.227-.128c-.234-.137-.455-.254-.678-.37l.117-.665L83.378.8c-.141-.067-.279-.126-.412-.18A9.013,9.013,0,0,0,81.927.255a6.681,6.681,0,0,0-2.8-.184,7.234,7.234,0,0,0-.988.23A8.578,8.578,0,0,0,75.752,1.47c-.123.084-.236.171-.351.26l-.21.162a5.87,5.87,0,0,1-2.1,1.1,4.558,4.558,0,0,1-3.45-.671c-.2-.126-.307-.189-.414-.267A7.785,7.785,0,0,0,65.006.472l-.737,0A7.752,7.752,0,0,0,60.1,2.046c-.113.08-.206.141-.3.2a4.683,4.683,0,0,1-3.515.762A5.925,5.925,0,0,1,54.1,1.875l-.111-.085c-.139-.108-.28-.217-.424-.318A8.467,8.467,0,0,0,51.249.324,7.538,7.538,0,0,0,50.237.078,6.708,6.708,0,0,0,47.43.244a8.49,8.49,0,0,0-.966.329c-.214.087-.372.152-.522.227l-.169.072c-.293.15-.513.267-.734.4l-.24.137c-.7.394-1.4.8-2.09,1.211l-.392.232c-1.373.808-1.521,1.276-.877,2.779l6.73,15.741c.095.221.182.448.271.684l.373.944L48,23.4c-.188.095-.346.175-.509.238l-.494-.5.258.6-.215.087A23.847,23.847,0,0,0,38.4,29.917c-.071.08-.137.165-.2.249l-.271.333c-.277.329-.552.656-.817,1l-.656-.217h0l.52.392c-.267.353-.522.715-.776,1.077M21.63,44.213A7.566,7.566,0,0,1,26.309,42.5c3.21-.032,6.416-.026,9.615-.022l3.39,0a2.414,2.414,0,0,1,.505.076l.49.123v.507c0,.665.013,1.328.028,1.986a39.344,39.344,0,0,1-.078,4.581,5.153,5.153,0,0,1-4.7,4.5c-2.348.052-4.709.069-7.05.069-1.534,0-3.061-.007-4.564-.013Q21.62,54.3,19.278,54.3h-.609l-.039-.607c-.23-3.563-.175-6.968,3-9.477M20.1,67.113c-1.69-2.723-1.6-5.658-1.508-8.768l.035-1.163,5.731,0c2.586,0,5.181-.007,7.77,0l.459,0c2.432.037,4.711.039,6.854-1.462l1.055-.741-.032,1.289c-.02.8-.006,1.588.006,2.37.05,3,.1,5.837-1.588,8.536A10.526,10.526,0,0,1,29.7,72.521c-.093,0-.188,0-.28,0a10.4,10.4,0,0,1-9.323-5.4M36.11,75.389l-6.643,6.656L22.85,75.389ZM56.129,97.932c-.02.985-.041,1.973-.041,2.968l-.006.286,0,.353-.635.015H2.911V94.371H9.773q5.094.006,10.185,0a1.884,1.884,0,0,0,1.551-.626,1.33,1.33,0,0,0,.156-1.222c-.124-.42-.453-.977-1.848-.979q-7.484-.014-14.967-.007H2.916L3,90.81A17.348,17.348,0,0,1,8.194,80.356a16.5,16.5,0,0,1,9.228-4.65,2.4,2.4,0,0,1,1.835.559c2.251,2.2,4.443,4.4,6.633,6.591l1.895,1.9c1.5,1.5,1.923,1.5,3.464-.035l2.025-2.027q3.188-3.182,6.362-6.377A2.05,2.05,0,0,1,41.7,75.68,17.264,17.264,0,0,1,56.043,91.49a61.658,61.658,0,0,1,.085,6.442M101.6,96.81a4.395,4.395,0,0,1-3.9,4.828c-.154.015-.31.024-.464.024s-.308-.009-.463-.024v-.006q-10.8.014-21.607,0a4.357,4.357,0,0,1-1.267-8.58,6.784,6.784,0,0,1,1.6-.145c2.341-.007,4.7,0,7.066,0l3.542,0,3.578,0q3.572-.006,7.155,0a4.372,4.372,0,0,1,4.757,3.9m.017-11.064h-.3l.3.006a4.416,4.416,0,0,1-4.415,4.33,3.706,3.706,0,0,1-.411-.019c-7.174.009-14.394.009-21.619,0A4.365,4.365,0,0,1,74,81.446a6.85,6.85,0,0,1,1.5-.108c3.518-.007,7.061-.007,10.607,0H96.834A4.309,4.309,0,0,1,100,82.31a4.385,4.385,0,0,1,1.6,2.968,4.32,4.32,0,0,1,.02.468m-1.588-14.989a4.375,4.375,0,0,1,1.572,2.976c.011.121.015.241.017.36l-.353.006h.353a4.4,4.4,0,0,1-4.4,4.4h0c-.123,0-.243,0-.37-.013-7.2.013-14.461.013-21.717,0a4.356,4.356,0,0,1-4.529-4.148A4.358,4.358,0,0,1,73.928,69.9a6.832,6.832,0,0,1,1.609-.134c2.335-.007,4.7,0,7.061,0l3.542,0,3.578,0q3.572-.006,7.157,0a4.309,4.309,0,0,1,3.15,1M44.89,6.338a1.709,1.709,0,0,1,.1-1.679,2.414,2.414,0,0,1,.217-.2l.308-.219h0a13.066,13.066,0,0,1,2.5-1.222,5.579,5.579,0,0,1,4.363,1.135,7.655,7.655,0,0,0,5.2,1.765,8.4,8.4,0,0,0,4.159-1.575,5.889,5.889,0,0,1,2.173-1l.206-.026a2.929,2.929,0,0,1,1.087,0,.808.808,0,0,1,.178.02,5.9,5.9,0,0,1,2.192,1,8.411,8.411,0,0,0,4.187,1.581,7.627,7.627,0,0,0,5.159-1.759,5.568,5.568,0,0,1,4.239-1.176,12.672,12.672,0,0,1,2.675,1.282l.2.139a3.75,3.75,0,0,1,.286.254c.555.58.1,1.674.095,1.685q-2.809,6.7-5.671,13.38c-.074.18-.145.373-.214.57-.2.468-.385.9-.574,1.332l-.078.182a2.269,2.269,0,0,1-.193.349,2.3,2.3,0,0,1-.479.494,1.571,1.571,0,0,1-.377.21,2.8,2.8,0,0,1-.788.123H74.24c-.149-.006-.258-.011-.364-.011H55.43c-.089,0-.2,0-.3.009l-1.876,0h-.041a2.353,2.353,0,0,1-.7-.11,1.651,1.651,0,0,1-.409-.219,2.229,2.229,0,0,1-.468-.476,2.577,2.577,0,0,1-.2-.362l-.639-1.484c-.085-.238-.156-.431-.232-.611Q47.714,13.043,44.89,6.338M38.1,34.884l.269-.386a22.6,22.6,0,0,1,2.229-2.85,23.254,23.254,0,0,1,7.9-5.331,6.661,6.661,0,0,1,2.138-.446c4.085-.065,8.4-.093,13.993-.093,5.707,0,10.016.028,14.034.091a6.646,6.646,0,0,1,2.088.425,23.3,23.3,0,0,1,7.952,5.346,22.222,22.222,0,0,1,2.238,2.866l.227.327a22.821,22.821,0,0,1,3.184,9.078c.258,1.839.243,10.67.232,17.116,0,2.339-.006,4.261.006,5.214l.009.646-.645.011c-3.587.076-7.23.058-10.759.033-1.7-.011-3.4-.022-5.093-.022l-.944,0c-.812-.011-1.625-.017-2.43.026a7.151,7.151,0,0,0-6.934,7.35,7.73,7.73,0,0,0,.1.992,7.568,7.568,0,0,0,2.214,4.183l.5.483-.513.466a7.1,7.1,0,0,0-2.315,5.24,7.291,7.291,0,0,0,2.3,5.341l.559.435-.561.513a7.424,7.424,0,0,0-1.549,8.7l.461.934H59l0-3.254c0-1.705.007-3.4,0-5.084A20.364,20.364,0,0,0,41.482,72.788c-.36-.058-.708-.1-1.074-.154l-1.817-.254.635-.873c3.312-4.547,3.99-6.189,4.033-9.756.067-5.851.046-11.8.026-17.558l-.007-2.786A1.533,1.533,0,0,0,42,39.628a1.37,1.37,0,0,0-.418,0l-5.658-.007.314-.869A21.054,21.054,0,0,1,38.1,34.884" transform="translate(0 -0.001)" fill="#0f0f0f"/>
        <path id="Path_3484" data-name="Path 3484" d="M41.61,42.08a2.587,2.587,0,0,1,1.235,1.289,1.416,1.416,0,0,0,1.4,1.089,1.2,1.2,0,0,0,1.269-.938,1.974,1.974,0,0,1,1.347-1.484,5.82,5.82,0,0,0,2.537-9.072,6.791,6.791,0,0,0-4.746-2.391,8.184,8.184,0,0,1-2.251-.528,2.739,2.739,0,0,1-1.785-2.628A2.917,2.917,0,0,1,42.349,24.7a3.716,3.716,0,0,1,5.571,2.777,1.371,1.371,0,0,0,2.437.776,1.413,1.413,0,0,0,.316-1.037,5.964,5.964,0,0,0-3.854-5.322,1.768,1.768,0,0,1-1.265-1.514,1.353,1.353,0,0,0-2.658.006,1.89,1.89,0,0,1-1.38,1.549,5.672,5.672,0,0,0-3.674,4.683,5.757,5.757,0,0,0,1.207,4.356,6.778,6.778,0,0,0,4.722,2.4v0a8.052,8.052,0,0,1,2.159.468,2.816,2.816,0,0,1,1.908,2.792,2.989,2.989,0,0,1-1.83,2.666,3.712,3.712,0,0,1-5.474-2.809,1.383,1.383,0,0,0-2.435-.817,1.364,1.364,0,0,0-.327,1.007l.028.215A6,6,0,0,0,41.61,42.08" transform="translate(32.387 16.534)" fill="#ffca0a"/>
        <path id="Path_3485" data-name="Path 3485" d="M15.135,50.7a1.4,1.4,0,0,0,1.4,1.386,1.759,1.759,0,0,0,.988-.407,1.392,1.392,0,0,0,.412-.986,1.486,1.486,0,0,0-1.4-1.406,1.465,1.465,0,0,0-1.4,1.414" transform="translate(12.98 42.27)" fill="#0f0f0f"/>
      </g>
    </g>
  </g>
</svg>
