<svg xmlns="http://www.w3.org/2000/svg" xmlns:xlink="http://www.w3.org/1999/xlink" width="108.117" height="109.947" viewBox="0 0 108.117 109.947">
  <defs>
    <clipPath id="clip-path">
      <rect id="Rectangle_2153" data-name="Rectangle 2153" width="108.117" height="109.947" fill="none"/>
    </clipPath>
  </defs>
  <g id="Group_910" data-name="Group 910" transform="translate(0 0)">
    <g id="Group_909" data-name="Group 909" transform="translate(0 0)" clip-path="url(#clip-path)">
      <path id="Path_3471" data-name="Path 3471" d="M61.711,0H44.731c-1.885,0-2.218.323-2.218,2.166V20.333H5.889C1.98,20.337,0,22.3,0,26.185V83.707c0,4,1.932,5.95,5.905,5.95H57.747l.208.689c.069.221.13.416.182.617a25.4,25.4,0,0,0,49.152-12.836c-.176-.676-.385-1.356-.62-2.023a6.616,6.616,0,0,1-.377-2.166v0q-.028-23.851-.015-47.7c0-3.912-1.965-5.894-5.842-5.894H63.764V2.1C63.764.373,63.4,0,61.711,0M45.377,2.794H60.908V27.652H45.377Zm59.976,81.574,0,.227A22.768,22.768,0,0,1,82.928,107.22l-.006-.464,0,0,.006.464-.221,0a22.644,22.644,0,0,1-.2-45.286l.214,0a22.67,22.67,0,0,1,22.64,22.432M100.4,23.1c2.381,0,3.11.732,3.111,3.132V69.582l-.8-.869c-8.4-9.063-17.824-11.656-28.8-7.947a23.944,23.944,0,0,0-12.515,9.979,25.643,25.643,0,0,0-4.05,15.65l-.463.032v.459H5.911c-2.381,0-3.145-.752-3.145-3.1V26.151c0-2.277.776-3.048,3.076-3.048H42.513v5.3c0,1.718.368,2.088,2.064,2.088H61.783c1.568,0,1.975-.4,1.98-1.943.006-1.064,0-2.127,0-3.234l0-2.216Z" transform="translate(0 0)" fill="#0f0f0f"/>
      <path id="Path_3472" data-name="Path 3472" d="M34.362,18.909H5.945c-1.559,0-1.962.4-1.962,1.963q-.008,7.105,0,14.209t0,14.212c0,1.559.4,1.962,1.962,1.962H34.362c1.557,0,1.962-.4,1.962-1.962V20.872c0-1.56-.4-1.963-1.962-1.963M8.939,48.447l-.006-.461c-.056-4.453,5.047-9.229,10.3-9.641a11.428,11.428,0,0,1,12.212,9.561l.091.541Zm7.055-16.958v0a4.163,4.163,0,0,1,4.053-4.258,4.316,4.316,0,0,1,2.968,1.144,4.156,4.156,0,0,1-2.762,7.167H20.19a4.191,4.191,0,0,1-4.2-4.051m16.633,11.35a14.89,14.89,0,0,0-6.951-6.191l-.466-.2L25.455,36c2.341-4.252,1.986-7.746-1.027-10.1a6.925,6.925,0,0,0-8.944.32c-2.725,2.472-2.944,6.026-.6,9.749l.29.459-.5.214a14.822,14.822,0,0,0-7,6.191L6.81,44.315V21.746H33.491l0,22.579Z" transform="translate(3.412 16.216)" fill="#ffca0a"/>
      <rect id="Rectangle_2149" data-name="Rectangle 2149" width="54.414" height="2.623" transform="translate(44.411 37.037)" fill="#ffca0a"/>
      <rect id="Rectangle_2150" data-name="Rectangle 2150" width="54.373" height="2.634" transform="translate(44.452 46.295)" fill="#ffca0a"/>
      <rect id="Rectangle_2151" data-name="Rectangle 2151" width="17.409" height="2.628" transform="translate(44.454 55.542)" fill="#ffca0a"/>
      <path id="Path_3473" data-name="Path 3473" d="M45.846,59.208l-7.681-7.694-1.889,1.9,8.2,8.192c1.373,1.373,1.789,1.369,3.182-.022L66.514,42.722c.117-.117.232-.24.333-.347l-1.96-2.218Z" transform="translate(31.11 34.438)" fill="#0f0f0f"/>
      <path id="Path_3474" data-name="Path 3474" d="M31.023,2.988h-.074a5.075,5.075,0,0,0-.072,10.15l.074,0a5.081,5.081,0,0,0,5.073-5,5.139,5.139,0,0,0-5-5.149m-.059,7.389L30.9,9.913V9.908l-.013.464a2.307,2.307,0,0,1-1.533-3.977A2.344,2.344,0,0,1,31,5.76,2.3,2.3,0,0,1,33.254,8.02a2.327,2.327,0,0,1-2.29,2.357" transform="translate(22.189 2.563)" fill="#0f0f0f"/>
      <rect id="Rectangle_2152" data-name="Rectangle 2152" width="6.314" height="2.641" transform="translate(49.991 20.411)" fill="#0f0f0f"/>
    </g>
  </g>
</svg>
