<svg xmlns="http://www.w3.org/2000/svg" xmlns:xlink="http://www.w3.org/1999/xlink" width="101.157" height="101.123" viewBox="0 0 101.157 101.123">
  <defs>
    <clipPath id="clip-path">
      <rect id="Rectangle_2282" data-name="Rectangle 2282" width="101.157" height="101.123" fill="none"/>
    </clipPath>
  </defs>
  <g id="Group_1046" data-name="Group 1046" clip-path="url(#clip-path)">
    <path id="Path_3866" data-name="Path 3866" d="M51.432,92.288a50.656,50.656,0,0,0,41-41.452c.2-1.137.332-2.283.469-3.429.064-.53.126-1.061.2-1.589l-.021-6.791a2.751,2.751,0,0,1-.172-.71,50.032,50.032,0,0,0-5.758-19.6c-.078-.149-1.509-3.035-1.509-3.035l3.123,1.094c.469.154.89.293,1.313.419a1.025,1.025,0,0,0,1.375-.553,1,1,0,0,0-.016-.769,1.048,1.048,0,0,0-.621-.531c-2.484-.894-5.03-1.766-7.566-2.587a.986.986,0,0,0-1.387.67q-1.29,3.736-2.517,7.5a1.352,1.352,0,0,0-.043.685.878.878,0,0,0,.891.721.936.936,0,0,0,1.012-.711c.3-.782.566-1.575.839-2.381l1.249-3.445,1.205,2.342c.123.188.239.383.348.579a47.743,47.743,0,0,1,5.588,31.632A46.244,46.244,0,0,1,74.134,79.266c-14.4,11.975-30.8,14.891-48.744,8.66A44.346,44.346,0,0,1,14.434,82.11a1.339,1.339,0,0,0-.973-.281.928.928,0,0,0-.6.433,1.054,1.054,0,0,0,.415,1.5,49.8,49.8,0,0,0,20.352,8.52c1.269.217,2.546.388,3.823.559l1.733.235h6.981l1.585-.231c1.228-.167,2.458-.334,3.679-.554" transform="translate(8.063 8.048)" fill="#ffc810"/>
    <path id="Path_3867" data-name="Path 3867" d="M80.11,51.309q.01-6.642,0-13.288c0-1.153-.286-1.439-1.447-1.457L77.4,36.536a30.377,30.377,0,0,0-3.853.056c-2.263.229-3.624-.7-4.023-2.778a.636.636,0,0,0-.092-.175,1.873,1.873,0,0,1,.391-2.6q2.369-2.311,4.688-4.678c.738-.751.741-1.158.016-1.885q-4.788-4.82-9.607-9.614c-.746-.741-1.133-.739-1.885,0l-.881.85c-.935.9-1.9,1.828-2.741,2.8-.36.419-2.34,2.376-2.34,2.376l-4.27-2.09,0-1.534s.028-4.417,0-6.623c-.013-1.071-.317-1.364-1.421-1.37q-2.313-.012-4.626,0l-2.015,0-2.046,0q-2.345,0-4.695,0c-1.1.007-1.4.3-1.418,1.374-.007.419-.023.839-.038,1.259a19.689,19.689,0,0,0,.062,3.318c.356,2.634-.724,4.271-3.21,4.87a2.183,2.183,0,0,1-2.368-.553c-1.532-1.585-3.1-3.141-4.672-4.688-.739-.723-1.143-.721-1.884.016q-4.815,4.793-9.609,9.607c-.723.728-.718,1.132.021,1.885.306.314.607.636.908.957a20.494,20.494,0,0,0,2.355,2.268c2.159,1.67,2.535,3.54,1.151,5.714a2.249,2.249,0,0,1-2.054,1.271c-2.172-.041-4.343-.033-6.515-.008-1.158.013-1.441.3-1.444,1.452q-.01,6.694,0,13.389c0,1.083.3,1.383,1.4,1.4,1.06.018,2.123.015,3.182.01l1.432,0c3.158,0,3.513.229,4.749,3.069a1.957,1.957,0,0,1-.442,2.414q-2.409,2.345-4.757,4.75c-.7.715-.708,1.122-.023,1.812q4.827,4.852,9.681,9.679c.7.695,1.107.7,1.814.011.819-.795,1.622-1.6,2.427-2.414l.986-.989c1.28-1.28,1.962-1.835,2.9-1.835a7.478,7.478,0,0,1,2.554.724,1.975,1.975,0,0,1,1.4,2.015q-.039,3.363,0,6.723c.011,1.011.33,1.32,1.361,1.321q6.743.015,13.488,0c1.043,0,1.349-.3,1.369-1.318.021-1.107.016-2.214.013-3.321l0-1.393c0-3.117.262-3.514,3.092-4.731a1.963,1.963,0,0,1,2.409.455c1.542,1.581,3.107,3.14,4.68,4.692.79.78,1.172.775,1.954,0q4.778-4.761,9.537-9.54c.773-.775.772-1.161-.011-1.962-.594-.608-1.2-1.205-1.8-1.807q-.738-.731-1.468-1.468c-.164-.165-.35-.324-.536-.486a3.979,3.979,0,0,1-1.5-1.984,3.2,3.2,0,0,1,.5-2.17,4.726,4.726,0,0,0,.334-.752,2.01,2.01,0,0,1,2.177-1.5c2.144.031,4.284.025,6.422.007,1.217-.01,1.5-.291,1.5-1.5m-2.078-.538-4.656,0c-1.1,0-2.2,0-3.3,0-.724.01-.984.136-1.315.973q-.986,2.487-2.056,4.942c-.35.793-.312,1.048.237,1.6,1.143,1.156,2.3,2.3,3.431,3.429l2.139,2.127-8.629,8.657L58.508,67.12c-.79-.79-.965-.816-2.074-.3-1.383.643-2.832,1.243-4.43,1.833-1.076.4-1.212.581-1.215,1.621,0,1.544,0,3.086,0,4.651v3.066H38.62V70.824c0-1.735,0-1.735-1.728-2.345C35.541,68,34.234,67.4,32.97,66.816c-1.081-.5-1.287-.469-1.961.2-1.11,1.107-2.211,2.221-3.288,3.31l-2.109,2.131-8.641-8.68,5.189-5.171c.942-.94.955-1.027.348-2.3-.636-1.341-1.217-2.744-1.725-4.168-.45-1.261-.585-1.364-1.8-1.365H11.391V38.6h7.5c1.325,0,1.429-.075,1.89-1.369a44.764,44.764,0,0,1,1.733-4.172c.6-1.264.587-1.347-.368-2.3-1.1-1.091-2.2-2.18-3.267-3.236l-1.961-1.935,8.655-8.672L30.8,22.151c.927.93,1.014.942,2.311.329,1.222-.576,2.577-1.127,4.263-1.737,1.092-.4,1.243-.6,1.244-1.7l0-4.5V11.4H50.662l.083,1.235c.02.24.039.484.039.731l0,2.585c0,1.083,0,2.168,0,3.251,0,.855.137,1.123,1.13,1.5,1.567.592,3.145,1.248,4.688,1.941.9.4,1.133.37,1.764-.255q1.585-1.555,3.156-3.125l.921-.916L63.3,17.5l.61-.608,1.029,1.042,7.581,7.6-1.935,1.921c-1.132,1.123-2.284,2.27-3.434,3.418-.809.806-.834.963-.322,2.069.648,1.4,1.262,2.891,1.83,4.43.4,1.1.581,1.223,1.717,1.225l4.589,0,3.069,0Z" transform="translate(5.903 5.888)" fill="#1a1818"/>
    <path id="Path_3868" data-name="Path 3868" d="M58.488,2.67a47.328,47.328,0,0,1,20.066,8.211,1.644,1.644,0,0,0,1.168.378.874.874,0,0,0,.566-.422c.486-.739-.252-1.372-.59-1.611A50.085,50.085,0,0,0,53.335.082a49.359,49.359,0,0,0-25.628,5.4A50.318,50.318,0,0,0,4.322,70.9c.4.927.847,1.838,1.31,2.788l2.4,3.9L4.389,76.326c-.482-.16-.924-.3-1.37-.435a1.365,1.365,0,0,0-.388-.057.945.945,0,0,0-.922.613.972.972,0,0,0,.6,1.3c2.672.96,5.148,1.81,7.566,2.6.494.162,1.109.213,1.467-.836l.3-.865q1.055-3.078,2.1-6.163c.445-1.32-.281-1.571-.554-1.665-.581-.2-1.037.137-1.349,1.006l-2,5.259-1.166-2.1c-.124-.185-.242-.383-.355-.584a47.585,47.585,0,0,1-5.339-33.05A47.277,47.277,0,0,1,23.209,10.567a47.414,47.414,0,0,1,35.279-7.9" transform="translate(0 0)" fill="#ffc810"/>
    <path id="Path_3869" data-name="Path 3869" d="M38.118,19.676h-.041A18.462,18.462,0,0,0,19.7,38.046,18.419,18.419,0,0,0,38.072,56.473h.039A18.455,18.455,0,0,0,56.486,38.1,18.41,18.41,0,0,0,38.118,19.676m-.025,34.757h0A16.38,16.38,0,1,1,54.45,38.074,16.257,16.257,0,0,1,38.091,54.433" transform="translate(12.513 12.499)" fill="#1a1818"/>
  </g>
</svg>
