<svg xmlns="http://www.w3.org/2000/svg" width="90.754" height="109.947" viewBox="0 0 90.754 109.947">
  <g id="Group_1802" data-name="Group 1802" transform="translate(-259.422 -599.988)">
    <path id="Path_6443" data-name="Path 6443" d="M261.912,646.865a6.2,6.2,0,0,0-.088-1.3,1.147,1.147,0,0,0-1.144-.915h-.013a1.147,1.147,0,0,0-1.145.9,5.185,5.185,0,0,0-.094,1.179q-.008,28.446,0,56.893c0,4.075,2.248,6.321,6.325,6.321h78.088c4.077,0,6.325-2.246,6.329-6.317V671.385q0-32.534.011-65.064c0-2.158-.474-3.537-1.535-4.473a10.512,10.512,0,0,0-2.266-1.361c-.326-.163-.654-.326-.973-.5H300.1a.935.935,0,0,1-.1.064c-.943.574-.93,1.018-.821,1.5a1.382,1.382,0,0,0,1.419.93c.218.011.439.008.658.006l14.3,0h28.031c3.02,0,4.09,1.08,4.09,4.124v96.748c0,3.018-1.078,4.09-4.122,4.09H266.008c-3.02,0-4.09-1.08-4.09-4.124Z" transform="translate(0)"/>
    <path id="Path_6444" data-name="Path 6444" d="M283.712,601.724a23.47,23.47,0,0,0-3.781-1.247c-.581-.158-1.164-.315-1.738-.489H274.58a2.785,2.785,0,0,1-.635.195,17.058,17.058,0,0,0-14.328,19.457c1.172,8.839,9.894,15.318,19.018,14.106a17.033,17.033,0,0,0,14.459-13.913A16.806,16.806,0,0,0,283.712,601.724Zm2.887,25.454a14.379,14.379,0,0,1-10.224,4.257h-.006a14.476,14.476,0,0,1-.009-28.952h.008A14.459,14.459,0,0,1,286.6,627.178Z" transform="translate(0.03)" fill="#ffc810"/>
    <path id="Path_6445" data-name="Path 6445" d="M277.846,650.17l-1-1.067c-.109-.111-.189-.2-.264-.291a25.691,25.691,0,0,1-5.228-11.4c-.169-.917-.589-1.38-1.256-1.38a1.766,1.766,0,0,0-.3.028,1.049,1.049,0,0,0-.707.431,1.912,1.912,0,0,0-.176,1.43,28.219,28.219,0,0,0,12.078,18.227,28.08,28.08,0,0,0,42.687-30.609,28.233,28.233,0,0,0-29.047-20.825,15.148,15.148,0,0,0-2.634.388,1.152,1.152,0,0,0-.774,1.245,1.177,1.177,0,0,0,1.188,1.039,5.063,5.063,0,0,0,.651-.026,8.184,8.184,0,0,1,.885-.034c.752.03,1.507.03,2.28.028a26.513,26.513,0,0,1,5.461.364,25.519,25.519,0,0,1,18.041,35.845,34.391,34.391,0,0,1-2.225,3.869c-.384.607-.78,1.23-1.172,1.884l-.8,1.346-.8-1.344a21.719,21.719,0,0,0-10.974-9.33l-1.129-.45.722-.979c.193-.262.382-.506.564-.74a12.136,12.136,0,0,0,.892-1.249,12.414,12.414,0,0,0,.9-10.406,9.038,9.038,0,0,0-7.242-6.385c-3.378-.722-6.344.24-9.071,2.947-3.384,3.357-3.191,10.262-1.41,13.278.345.583.733,1.14,1.142,1.727l1.271,1.871-1.089.427a21.114,21.114,0,0,0-10.811,9.073Zm11.488-18.064a18.512,18.512,0,0,1,0-3.442,7.287,7.287,0,0,1,7.18-6.612h.073a7.3,7.3,0,0,1,7.184,6.675,10.313,10.313,0,0,1,.019,1.228l-.008.491c.045,4.99-2.5,6.985-4.653,7.78a7.488,7.488,0,0,1-2.608.472,7.212,7.212,0,0,1-7.187-6.593ZM280.1,651.334c3.719-6.676,9.251-10.059,16.442-10.059h.041c7.176.011,12.678,3.363,16.354,9.954l.358.641-.538.5c-3.985,3.708-10.02,5.939-16.313,5.939a24.694,24.694,0,0,1-16.135-5.808l-.585-.5Z" transform="translate(8.25 4.07)" fill="#ffc810"/>
    <path id="Path_6446" data-name="Path 6446" d="M277.189,641.1a1.226,1.226,0,0,0,1.093,1.188,4.373,4.373,0,0,0,.784.037l14.886,0,12.232,0,.954.008c.722,0,1.445.013,2.167-.019.851-.041,1.333-.5,1.322-1.254a1.267,1.267,0,0,0-1.312-1.22,5.271,5.271,0,0,0-.542-.008l-.255,0H279.255a6.074,6.074,0,0,0-.943.034A1.247,1.247,0,0,0,277.189,641.1Z" transform="translate(15.54 34.847)"/>
    <path id="Path_6447" data-name="Path 6447" d="M309.884,646.511a3.846,3.846,0,0,0-1.188-.141c-3.86-.013-7.718-.009-11.581-.009l-15.025-.006q-.742-.006-1.481-.006c-.675,0-1.348.006-2.021.026a1.476,1.476,0,0,0-1.217.587,1.119,1.119,0,0,0-.1,1.04c.152.422.442.851,1.44.851q15.232,0,30.465-.007a1.915,1.915,0,0,0,.709-.129,1.053,1.053,0,0,0,.744-1.084A1.037,1.037,0,0,0,309.884,646.511Z" transform="translate(15.538 40.549)"/>
    <path id="Path_6448" data-name="Path 6448" d="M273.409,642.3a1.339,1.339,0,0,0,.834-.349,1.217,1.217,0,0,0-.8-2.113h-.021a1.165,1.165,0,0,0-.81.341,1.227,1.227,0,0,0,.8,2.12Z" transform="translate(11.195 34.857)"/>
    <path id="Path_6449" data-name="Path 6449" d="M273.4,646.365a1.226,1.226,0,0,0-.795,2.12,1.326,1.326,0,0,0,.832.341,1.217,1.217,0,0,0,.8-2.115,1.2,1.2,0,0,0-.814-.347Z" transform="translate(11.195 40.563)"/>
    <path id="Path_6450" data-name="Path 6450" d="M260.649,621.912h.015a1.314,1.314,0,0,0,1.226-1.217,1.213,1.213,0,0,0-.369-.844,1.246,1.246,0,0,0-.845-.4h-.019a1.215,1.215,0,0,0-.825.368,1.244,1.244,0,0,0-.4.849A1.313,1.313,0,0,0,260.649,621.912Z" transform="translate(0.009 17.026)"/>
    <path id="Path_6451" data-name="Path 6451" d="M264.42,612.15a2.241,2.241,0,0,0,.778,1.451q1.5,1.513,3.005,3.005c1.211,1.2,1.608,1.2,2.849-.039l7.489-7.487a2.645,2.645,0,0,0,.937-1.624,1.031,1.031,0,0,0-.364-.733c-.262-.257-.879-.862-2.368.62l-7.163,7.165L268.3,613.2c-.456-.465-.877-.9-1.307-1.322a2.271,2.271,0,0,0-1.464-.844,1.047,1.047,0,0,0-.748.373A1.032,1.032,0,0,0,264.42,612.15Z" transform="translate(4.371 5.591)" fill="#ffc810"/>
  </g>
</svg>
