<svg id="Group_1215" data-name="Group 1215" xmlns="http://www.w3.org/2000/svg" xmlns:xlink="http://www.w3.org/1999/xlink" width="152.025" height="152.014" viewBox="0 0 152.025 152.014">
  <defs>
    <clipPath id="clip-path">
      <rect id="Rectangle_2416" data-name="Rectangle 2416" width="152.025" height="152.014" fill="none"/>
    </clipPath>
  </defs>
  <g id="Group_1214" data-name="Group 1214" clip-path="url(#clip-path)">
    <path id="Path_5322" data-name="Path 5322" d="M109.857,91.938H109.7a16.859,16.859,0,0,0-16.635,16.811,16.913,16.913,0,0,0,16.59,17,16.378,16.378,0,0,0,11.663-4.78,16.915,16.915,0,0,0-11.463-29.033M119,118.429a13.053,13.053,0,0,1-9.272,3.895h0a12.9,12.9,0,0,1-9.3-4,13.57,13.57,0,0,1,.036-19.01,13.014,13.014,0,0,1,9.324-3.958h.017a13.51,13.51,0,0,1,9.2,23.069" fill="#ffc810"/>
    <path id="Path_5323" data-name="Path 5323" d="M87.543,73.154h0Z"/>
    <path id="Path_5324" data-name="Path 5324" d="M76.757,134.57H29.435v-.75q0-1.626.01-3.261c.012-3.01.025-6.122-.062-9.181a2.982,2.982,0,0,0-.885-1.969,1.318,1.318,0,0,0-1.443-.19,1.958,1.958,0,0,0-1.041,1.8c-.05,2.989-.04,5.914-.03,9.01q.008,1.892.009,3.8v.75H3.7l-.111-.973a4.962,4.962,0,0,1-.062-.7c.011-2.47-.025-4.989-.06-7.424-.079-5.447-.16-11.079.274-16.595,1.5-19.142,11.02-33.06,28.282-41.366a2.859,2.859,0,0,1,3.3.342,34.447,34.447,0,0,0,41.18-.147,2.556,2.556,0,0,1,3.072-.276c1.854,1,3.72,1.987,5.667,3.013l5.02,2.47,1.8-2.52s-6.1-3.429-8.39-4.862l-2.661-1.659.718-.883c.171-.213.374-.467.586-.713a38.443,38.443,0,0,0,4.226-44.013C76.958,1.451,56.439-4.832,39.824,3.977A37.25,37.25,0,0,0,20.7,30.28,37.835,37.835,0,0,0,29.22,62.194l1.556,1.817-.894.647a2.576,2.576,0,0,1-.379.253C10.548,74.693.654,90.706.094,112.508c-.132,5.126-.1,10.35-.062,15.4.016,2.353.032,4.706.032,7.058,0,2.934.264,3.2,3.143,3.2l73.718,0h2.563Zm-52.14-106A33.106,33.106,0,0,1,43.837,5.9a31.413,31.413,0,0,1,11.98-2.455h.043c13.835.682,23.711,7.4,29.356,19.976a34.526,34.526,0,0,1-9.561,40.494,31.617,31.617,0,0,1-19.913,7.151,31.09,31.09,0,0,1-3.4-.187,31.557,31.557,0,0,1-21.3-11.9,34.626,34.626,0,0,1-6.421-30.416" fill="#fff"/>
    <line id="Line_201" data-name="Line 201" x1="0.011" y1="0.006" transform="translate(88.729 72.306)"/>
    <path id="Path_5325" data-name="Path 5325" d="M85.827,140.161c.607-.417,1.209-.843,1.811-1.268.827-.586,1.654-1.172,2.5-1.734A2.667,2.667,0,0,1,91.2,136.8c.109-.02.218-.038.322-.065l.828-.215.105.849c.013.1.033.2.053.3a2.825,2.825,0,0,1,.065,1.025c-.2,1.209-.42,2.412-.643,3.616l-.311,1.7A4.325,4.325,0,0,0,95.25,149.3c.541.1,1.083.2,1.625.294.639.112,1.276.223,1.912.35q3.759.746,7.515,1.508l2.788.563h2.191a4.961,4.961,0,0,0,3.441-4.536c.133-1.2.377-2.4.611-3.554l.157-.778a6.554,6.554,0,0,1,.337-1.06c.074-.194.157-.415.249-.678l.447-1.288,1.324,1.657c.271.333.474.584.658.848.375.543.741,1.09,1.108,1.637.62.926,1.262,1.884,1.928,2.789a4.113,4.113,0,0,0,5.853,1.047c4.016-2.768,8.048-5.605,11.986-8.432a4.243,4.243,0,0,0,1.069-6.218c-.449-.678-.908-1.35-1.366-2.022-.583-.855-1.166-1.709-1.731-2.576a2.458,2.458,0,0,1-.319-.985c-.016-.1-.03-.19-.053-.28l-.19-.774.784-.144c.092-.017.185-.043.278-.068a2.449,2.449,0,0,1,1.038-.112c1.087.175,2.17.378,3.253.582.539.1,1.078.2,1.618.3,3.154.569,5.049-.719,5.635-3.833.494-2.625.969-5.254,1.444-7.882q.445-2.458.893-4.917a5.1,5.1,0,0,1,.23-.785c.021-.059.042-.118.062-.177v-2.147c-.852-2.321-2.53-3.538-5.271-3.823a32.1,32.1,0,0,1-3.567-.647,3.471,3.471,0,0,1-1.032-.443c-.1-.058-.2-.117-.3-.168l-.791-.395.519-.716c.073-.1.14-.21.207-.319a3.139,3.139,0,0,1,.764-.929c.818-.614,1.658-1.2,2.5-1.784.516-.359,1.032-.718,1.544-1.085,2.514-1.8,2.943-4.1,1.24-6.635Q144,84.965,140.127,79.268a4.894,4.894,0,0,0-3.036-2.3,5.014,5.014,0,0,0-3.749,1.112l-6.42,4.493v-1.44c0-.33-.009-.611-.016-.859a7.021,7.021,0,0,1,.038-1.31c.13-.829.282-1.654.434-2.479.147-.794.294-1.588.419-2.386.462-2.939-.9-4.858-3.828-5.4q-6.914-1.289-13.831-2.54a4.236,4.236,0,0,0-5.164,3.57c-.17.883-.326,1.77-.481,2.657-.146.833-.292,1.665-.451,2.5a7.521,7.521,0,0,1-.311,1.056c-.07.205-.151.44-.241.722l-.425,1.333-.875-1.091c-.186-.233-.346-.427-.486-.6-.274-.332-.478-.58-.658-.843-.386-.558-.765-1.121-1.143-1.685C99.31,72.886,98.718,72,98.1,71.141a4.238,4.238,0,0,0-5.682-1.41c-.047.023-.117.043-.175.065l-.022.017-3.488,2.493.011.006-1.2.841h0l-2.264,1.592c-1.693,1.189-3.276,2.3-4.853,3.423-2.513,1.787-2.935,4.079-1.222,6.629.389.578.782,1.153,1.174,1.728.623.912,1.245,1.822,1.85,2.744.008.013.787,1.276.061,1.878a2.134,2.134,0,0,1-1.6.444c-1.091-.178-2.176-.386-3.262-.594-.633-.122-1.267-.243-1.9-.359a4.232,4.232,0,0,0-5.363,3.66q-1.333,7.129-2.6,14.274a4.645,4.645,0,0,0,.613,3.542,4.792,4.792,0,0,0,3.221,1.833c1.64.287,3.247.573,4.877.915a1.9,1.9,0,0,1,1.457,1.113,1.858,1.858,0,0,1-.79,1.7c-.857.654-1.733,1.284-2.608,1.913-.506.364-1.012.728-1.514,1.1-2.591,1.9-2.986,4.107-1.206,6.744.888,1.316,1.78,2.629,2.714,4l1.155,1.7,5.244,7.158c1.459,1.149,3.254,1.134,5.1-.13m-12.041-15.93,2.435-1.761c1.478-1.074,2.874-2.088,4.325-3.088a2.194,2.194,0,0,0,.987-2.789,14.519,14.519,0,0,1-.509-2.628,2.14,2.14,0,0,0-2-2.145c-1.713-.315-3.393-.672-5.172-1.048q-1.14-.243-2.32-.489l-.718-.149,2.994-16.26,2.845.51c1.555.277,3.072.547,4.585.838,2.232.431,2.232.43,3.749-1.6l.114-.153c2.235-2.987,1.922-3.429.609-5.292-.275-.388-.58-.822-.9-1.329-.563-.891-1.143-1.771-1.723-2.652-.351-.533-.7-1.066-1.05-1.6a1.1,1.1,0,0,1-.162-.557c0-.041-.006-.09-.015-.149l-.066-.457,12.972-9.067,4.492,6.614c1.235,1.818,1.365,1.869,3.415,1.36.09-.022.178-.048.266-.074.162-.049.325-.1.489-.128,3.338-.667,3.338-.667,3.937-4.047.235-1.323.484-2.618.746-3.983l.522-2.738,15.96,3.107-.524,2.966c-.318,1.808-.63,3.576-.948,5.342-.275,1.529-.1,1.929,1.191,2.678.832.483,1.552.939,2.2,1.395,1.377.966,1.794.965,3.188,0s2.815-1.959,4.286-2.987l2.537-1.772,9.107,13.67-.6.421c-.644.454-1.277.906-1.906,1.355-1.513,1.079-2.942,2.1-4.432,3.1a2.128,2.128,0,0,0-1.013,2.648,25.892,25.892,0,0,1,.537,2.717c.24,1.52.6,1.886,2.164,2.176l1.83.342c1.544.29,3.088.579,4.635.85a2.016,2.016,0,0,1,1.388.714,1.657,1.657,0,0,1,.211,1.293c-.625,3.362-1.242,6.725-1.868,10.139l-.858,4.676-3.015-.551c-1.612-.293-3.182-.578-4.748-.877-2.029-.388-2.311-.259-3.31,1.533l-.081.155a2.428,2.428,0,0,1-.42.641c-1.688,1.752-1.664,3.336.086,5.467a33.236,33.236,0,0,1,2.4,3.495c.346.553.7,1.116,1.076,1.684l.4.609-13.334,9.346-1.7-2.493c-1-1.469-1.987-2.917-2.977-4.361-1.034-1.51-1.323-1.616-3.09-1.161-.629.163-1.267.276-1.884.387l-.222.039c-1.932.345-2.116.525-2.465,2.408-.3,1.647-.621,3.294-.952,5.013l-.6,3.144-16.013-3.109.516-2.955c.317-1.8.626-3.565.921-5.331.274-1.641.14-1.924-1.3-2.763a17.33,17.33,0,0,1-2.221-1.452,2.091,2.091,0,0,0-2.908.016c-1.473,1.059-2.971,2.084-4.468,3.109l-1.572,1.079a1.24,1.24,0,0,1-.462.18l-.657.183Z" fill="#ffc810"/>
  </g>
</svg>
