<svg xmlns="http://www.w3.org/2000/svg" xmlns:xlink="http://www.w3.org/1999/xlink" width="724.156" height="654.745" viewBox="0 0 724.156 654.745">
  <defs>
    <clipPath id="clip-path">
      <rect id="Rectangle_2537" data-name="Rectangle 2537" width="724.155" height="654.745" fill="none"/>
    </clipPath>
  </defs>
  <g id="Group_1807" data-name="Group 1807" transform="translate(-975.923 -970.545)">
    <g id="Group_1543" data-name="Group 1543" transform="translate(0 -437.455)">
      <g id="Group_1321" data-name="Group 1321" transform="translate(975.923 1408)">
        <g id="Group_1318" data-name="Group 1318">
          <g id="Group_1317" data-name="Group 1317" clip-path="url(#clip-path)">
            <path id="Path_5835" data-name="Path 5835" d="M361.978,366.082c-20.894-47.451-17.818-125.161-8.122-131.625,10.662-7.108,27.545,29.323,44.428,18.661s28.435-33.766,14.218-70.2-32.878-12.44-46.206-3.554-23.991.889-21.325-31.1c1.966-23.589,11.174-66.962,15.877-88.127,2.119.916,4.237,1.841,6.337,2.824C325.42,43.415,279.215,37.195,259.666,43.415s-15.995,8-6.224,31.09c20.387,48.186-56.828,64.748-79.121,27.593-13.329-22.214,6.263-34.692.931-50.687s-103.963,2.666-116.4,9.774c0,0,23.991,71.975,20.437,97.743s-15.995,37.32-34.654,18.661-42.651-1.778-43.54,29.323,4.443,55.98,25.768,48.871,38.209-32.878,45.318,0-5.332,75.528-12.44,105.739c0,0,55.98,23.992,81.749,22.214s41.762-2.666,33.766-18.66-21.326-26.657-11.552-44.429,48.871-15.994,69.309-11.551,29.323,19.549,23.1,36.431-16.883,33.766,2.667,37.32C277.2,386.2,324.05,378.494,370.3,363.46Q366.137,364.81,361.978,366.082Z" transform="translate(-0.138 -5.665)" fill="none" stroke="#727272" stroke-miterlimit="10" stroke-width="2"/>
            <path id="Path_5836" data-name="Path 5836" d="M437.812,411.722q-4.1,1.417-8.223,2.755Q433.707,413.136,437.812,411.722Z" transform="translate(-59.216 -56.753)" fill="none" stroke="#727272" stroke-miterlimit="10" stroke-width="2"/>
            <path id="Path_5837" data-name="Path 5837" d="M757.991,164.064c-16.883,0-17.772,13.329-35.542,10.664S702.9,131.188,721.56,59.214c0,0-20.437,15.106-66.643,15.994S590.051,70.765,601.6,53.882s20.437-30.213,10.663-43.54-56.869-11.552-71.975,0-4.443,24.88,6.221,39.985-1.777,23.992-19.549,24.88-63.088,1.778-104.85-17.771c-2.1-.984-4.219-1.909-6.338-2.824-4.7,21.165-13.911,64.538-15.877,88.127-2.666,31.989,8,39.986,21.325,31.1s31.989-32.878,46.206,3.554,2.666,59.535-14.217,70.2-33.766-25.77-44.429-18.661c-9.695,6.463-12.771,84.174,8.122,131.624,5.587-1.71,11.189-3.524,16.758-5.446,48.871-16.883,97.743-24.88,106.628-13.329s5.332,9.774-6.22,27.545-10.663,32.878,8.885,41.763,67.531,7.108,71.975-13.328-20.437-31.989-8.886-51.538,113.738,8.887,113.738,8.887-23.1-78.194-14.217-103.963,15.994-19.549,30.211-9.774,32.878,8.886,39.986-19.549S774.874,164.064,757.991,164.064Z" transform="translate(-55.066 -0.138)" fill="none" stroke="#727272" stroke-miterlimit="10" stroke-width="2"/>
          </g>
        </g>
        <g id="Group_1320" data-name="Group 1320">
          <g id="Group_1319" data-name="Group 1319" clip-path="url(#clip-path)">
            <path id="Path_5838" data-name="Path 5838" d="M639.086,144.292s.58-21.369,12.9-27.439,13.023,13.962,13.023,13.962,28.208-17.906,34.322-4.331-2.431,20.142-2.431,20.142,25.041-.872,26.773,12.856-11.2,20.447-11.2,20.447,15.483,12.623,10.045,18.454-17.332,6.245-17.332,6.245,6.74,13.554-5,18.351-25.216-4.136-25.216-4.136,2.1,6.195-6.733,4.623-17.747-5.65-23.214-18.622-12.529-49.63-5.943-60.553" transform="translate(-87.727 -15.949)" fill="#ffd729"/>
            <path id="Path_5839" data-name="Path 5839" d="M639.086,144.292s.58-21.369,12.9-27.439,13.023,13.962,13.023,13.962,28.208-17.906,34.322-4.331-2.431,20.142-2.431,20.142,25.041-.872,26.773,12.856-11.2,20.447-11.2,20.447,15.483,12.623,10.045,18.454-17.332,6.245-17.332,6.245,6.74,13.554-5,18.351-25.216-4.136-25.216-4.136,2.1,6.195-6.733,4.623-17.747-5.65-23.214-18.622S632.5,155.215,639.086,144.292Z" transform="translate(-87.727 -15.949)" fill="none" stroke="#263238" stroke-miterlimit="10" stroke-width="2"/>
            <path id="Path_5840" data-name="Path 5840" d="M487.271,627.735s-7.034,26.8-6.929,29.787-2.317,9.708-.259,11.628,11.243,8.24,12.249,8.536,3.956-.8,4.927-1.5a4.608,4.608,0,0,0,1.542-3.374c-.034-.995-2.837-5.213-3.2-6.2s5.163-13.79,7.265-20.171,3.378-17.381,3.378-17.381Z" transform="translate(-66.061 -86.529)" fill="#fff"/>
            <path id="Path_5841" data-name="Path 5841" d="M487.271,627.735s-7.034,26.8-6.929,29.787-2.317,9.708-.259,11.628,11.243,8.24,12.249,8.536,3.956-.8,4.927-1.5a4.608,4.608,0,0,0,1.542-3.374c-.034-.995-2.837-5.213-3.2-6.2s5.163-13.79,7.265-20.171,3.378-17.381,3.378-17.381Z" transform="translate(-66.061 -86.529)" fill="none" stroke="#263238" stroke-linecap="round" stroke-linejoin="round" stroke-width="2"/>
            <path id="Path_5842" data-name="Path 5842" d="M495.9,649.375s-3.987,9.435-4.261,11.1-5.76,6.177-4.969,9.8,8.724,2.684,12.665-8.077" transform="translate(-67.074 -89.511)" fill="#fff"/>
            <path id="Path_5843" data-name="Path 5843" d="M495.9,649.375s-3.987,9.435-4.261,11.1-5.76,6.177-4.969,9.8,8.724,2.684,12.665-8.077" transform="translate(-67.074 -89.511)" fill="none" stroke="#263238" stroke-linecap="round" stroke-linejoin="round" stroke-width="2"/>
            <path id="Path_5844" data-name="Path 5844" d="M513.54,458.8s-3.359,54.687-4.627,59.518-16.484,48.921-19.843,62.441a182.97,182.97,0,0,0-4.375,25.523l20.442,4.294,11.458-50.4s15-45.864,12.01-67.435S513.54,458.8,513.54,458.8" transform="translate(-66.812 -63.243)" fill="#fff"/>
            <path id="Path_5845" data-name="Path 5845" d="M513.54,458.8s-3.359,54.687-4.627,59.518-16.484,48.921-19.843,62.441a182.97,182.97,0,0,0-4.375,25.523l20.442,4.294,11.458-50.4s15-45.864,12.01-67.435S513.54,458.8,513.54,458.8Z" transform="translate(-66.812 -63.243)" fill="#080808" stroke="#263238" stroke-linecap="round" stroke-linejoin="round" stroke-width="2"/>
            <path id="Path_5846" data-name="Path 5846" d="M621.284,737.9c.236-11.9.74-27.932,1.805-37.114,1.841-15.86,8.678-25.672,15.645-45.541s7.5-45.736,7.5-45.736l-124.784,4.35s-14.4,53.636-23.078,93.19c-2.909,13.263-3.982,23.317-4.135,30.851" transform="translate(-68.127 -84.016)" fill="#fff"/>
            <path id="Path_5847" data-name="Path 5847" d="M621.284,737.9c.236-11.9.74-27.932,1.805-37.114,1.841-15.86,8.678-25.672,15.645-45.541s7.5-45.736,7.5-45.736l-124.784,4.35s-14.4,53.636-23.078,93.19c-2.909,13.263-3.982,23.317-4.135,30.851" transform="translate(-68.127 -84.016)" fill="none" stroke="#263238" stroke-linecap="round" stroke-linejoin="round" stroke-width="2"/>
            <path id="Path_5848" data-name="Path 5848" d="M538.526,740.206s-2.048-64.919-2.1-100.149" transform="translate(-73.943 -88.227)" fill="#fff"/>
            <path id="Path_5849" data-name="Path 5849" d="M538.526,740.206s-2.048-64.919-2.1-100.149" transform="translate(-73.943 -88.227)" fill="none" stroke="#263238" stroke-miterlimit="10" stroke-width="2"/>
            <path id="Path_5850" data-name="Path 5850" d="M614.229,299.32l15.142,10.2s17.9,16.046,22.356,29.226,1.206,91.975-3.239,117.468,6.658,57.112,10.615,74.977,5.783,51.141,5.783,51.141,2.8,3.9-45.813,5.6-82.535,4.211-86.508,5.016a49.733,49.733,0,0,1-7.3.921l-1.936-17.269-4.84,14.171L508.4,588.448s6.258-30.89,7.838-42.948,11.486-53.077,11.618-68.417-12.738-40.23-15.27-55.478,2.557-41.43,15.2-61.208,21.049-27.405,45.682-47.6,40.754-13.477,40.754-13.477" transform="translate(-70.08 -41.111)" fill="#080808"/>
            <path id="Path_5851" data-name="Path 5851" d="M614.229,299.32l15.142,10.2s17.9,16.046,22.356,29.226,1.206,91.975-3.239,117.468,6.658,57.112,10.615,74.977,5.783,51.141,5.783,51.141,2.8,3.9-45.813,5.6-82.535,4.211-86.508,5.016a49.733,49.733,0,0,1-7.3.921l-1.936-17.269-4.84,14.171L508.4,588.448s6.258-30.89,7.838-42.948,11.486-53.077,11.618-68.417-12.738-40.23-15.27-55.478,2.557-41.43,15.2-61.208,21.049-27.405,45.682-47.6S614.229,299.32,614.229,299.32Z" transform="translate(-70.08 -41.111)" fill="none" stroke="#263238" stroke-linecap="round" stroke-linejoin="round" stroke-width="2"/>
            <path id="Path_5852" data-name="Path 5852" d="M585.391,565.465l50.794,5.75-2.857-13.3-31.688-2.725" transform="translate(-80.692 -76.528)" fill="none" stroke="#f0f0f0" stroke-miterlimit="10" stroke-width="2"/>
            <path id="Path_5853" data-name="Path 5853" d="M564.378,554.341l-2.568,8.706,12.744,1.442" transform="translate(-77.441 -76.412)" fill="none" stroke="#f0f0f0" stroke-miterlimit="10" stroke-width="2"/>
            <path id="Path_5854" data-name="Path 5854" d="M585.852,452.23a57.139,57.139,0,0,1-6.552-7.216" transform="translate(-79.852 -61.342)" fill="none" stroke="#fff" stroke-miterlimit="10" stroke-width="2"/>
            <path id="Path_5855" data-name="Path 5855" d="M605.6,469.23s-5.365-4.049-11.235-9.095" transform="translate(-81.929 -63.426)" fill="none" stroke="#263238" stroke-miterlimit="10" stroke-width="2"/>
            <path id="Path_5856" data-name="Path 5856" d="M614.967,299.32s-16.12-6.719-40.753,13.477-33.037,27.823-45.683,47.6a106.811,106.811,0,0,0-14.775,39.978c.3,1.478.627,2.977.99,4.511,7.038,29.76,14.875,44.156,14.875,44.156s13.638-67.822,37.351-95.32,63.138-44.208,63.138-44.208Z" transform="translate(-70.817 -41.111)" fill="#fff"/>
            <path id="Path_5857" data-name="Path 5857" d="M614.967,299.32s-16.12-6.719-40.753,13.477-33.037,27.823-45.683,47.6a106.811,106.811,0,0,0-14.775,39.978c.3,1.478.627,2.977.99,4.511,7.038,29.76,14.875,44.156,14.875,44.156s13.638-67.822,37.351-95.32,63.138-44.208,63.138-44.208Z" transform="translate(-70.817 -41.111)" fill="#080808" stroke="#f0f0f0" stroke-linecap="round" stroke-linejoin="round" stroke-width="2"/>
            <path id="Path_5858" data-name="Path 5858" d="M556.983,144.64s-17.779,16.609-19.1,29.683-2.7,24.374-4.925,28.6-13.377,6.98-9.6,13.363,7.324,6.259,7.324,6.259,5.721,28.225,10.006,32.221,19.6,1.686,19.6,1.686L565,290.682s-31.777,28.2-37.968,67.472.891,61.708.891,61.708,4.143-61.884,18.454-85.062,47.566-45.128,52.468-49.078,17.333-8.794,17.333-8.794-5.9-13.339-6.7-19.233-.516-14.787.585-17.194,20.984-9.615,28.481-32.379-3.506-49.622-15.157-61.06-51.527-17.154-66.41-2.423" transform="translate(-72.034 -18.72)" fill="#fff"/>
            <path id="Path_5859" data-name="Path 5859" d="M556.983,144.64s-17.779,16.609-19.1,29.683-2.7,24.374-4.925,28.6-13.377,6.98-9.6,13.363,7.324,6.259,7.324,6.259,5.721,28.225,10.006,32.221,19.6,1.686,19.6,1.686L565,290.682s-31.777,28.2-37.968,67.472.891,61.708.891,61.708,4.143-61.884,18.454-85.062,47.566-45.128,52.468-49.078,17.333-8.794,17.333-8.794-5.9-13.339-6.7-19.233-.516-14.787.585-17.194,20.984-9.615,28.481-32.379-3.506-49.622-15.157-61.06S571.867,129.908,556.983,144.64Z" transform="translate(-72.034 -18.72)" fill="none" stroke="#263238" stroke-linecap="round" stroke-linejoin="round" stroke-width="2"/>
            <path id="Path_5860" data-name="Path 5860" d="M643.662,208.122c7.5-22.764-3.507-49.621-15.158-61.06s-51.527-17.153-66.41-2.423c0,0-.952.893-2.425,2.414a41.555,41.555,0,0,1,17.295-.563c11.912,1.954,11.65,11.437,8.411,20.433s-.811,10.688,5.268,15.214-.138,13.032,4.125,16.437,7.766-15.076,17.113-1.78,3.045,19.436-2.746,23.191a43.608,43.608,0,0,1-10.48,5.1s8.777,10.28,17.416,14.519c4.123-3.137,20.853-11.028,27.591-31.484" transform="translate(-77.146 -18.72)" fill="#ffd729"/>
            <path id="Path_5861" data-name="Path 5861" d="M643.662,208.122c7.5-22.764-3.507-49.621-15.158-61.06s-51.527-17.153-66.41-2.423c0,0-.952.893-2.425,2.414a41.555,41.555,0,0,1,17.295-.563c11.912,1.954,11.65,11.437,8.411,20.433s-.811,10.688,5.268,15.214-.138,13.032,4.125,16.437,7.766-15.076,17.113-1.78,3.045,19.436-2.746,23.191a43.608,43.608,0,0,1-10.48,5.1s8.777,10.28,17.416,14.519C620.194,236.469,636.924,228.579,643.662,208.122Z" transform="translate(-77.146 -18.72)" fill="none" stroke="#263238" stroke-miterlimit="10" stroke-width="2"/>
            <path id="Path_5862" data-name="Path 5862" d="M543.168,241.153s12.4-1.024,18.129-6.554" transform="translate(-74.872 -32.338)" fill="none" stroke="#263238" stroke-miterlimit="10" stroke-width="2"/>
            <path id="Path_5863" data-name="Path 5863" d="M551.434,207.39c.1,2.94-1.006,5.365-2.476,5.416s-2.744-2.291-2.847-5.231,1.006-5.364,2.476-5.416,2.744,2.291,2.847,5.231" transform="translate(-75.276 -27.866)" fill="#263238"/>
            <path id="Path_5864" data-name="Path 5864" d="M546.1,193.973s4-5.372,9.713.966" transform="translate(-75.276 -26.445)" fill="none" stroke="#263238" stroke-miterlimit="10" stroke-width="2"/>
            <path id="Path_5865" data-name="Path 5865" d="M513.818,590.937l-19.4,81.678,17.4,4.041,9.573-59.717Z" transform="translate(-68.152 -81.456)" fill="#ffd729"/>
            <path id="Path_5866" data-name="Path 5866" d="M513.818,590.937l-19.4,81.678,17.4,4.041,9.573-59.717Z" transform="translate(-68.152 -81.456)" fill="none" stroke="#263238" stroke-miterlimit="10" stroke-width="2"/>
            <path id="Path_5867" data-name="Path 5867" d="M535.14,364.17a99.489,99.489,0,0,0-7.8,25.463c-6.19,39.275.891,61.708.891,61.708s4.093-61.052,18.178-84.58a50.221,50.221,0,0,1-11.273-2.591" transform="translate(-72.34 -50.198)" fill="#fff"/>
            <path id="Path_5868" data-name="Path 5868" d="M535.14,364.17a99.489,99.489,0,0,0-7.8,25.463c-6.19,39.275.891,61.708.891,61.708s4.093-61.052,18.178-84.58A50.221,50.221,0,0,1,535.14,364.17Z" transform="translate(-72.34 -50.198)" fill="none" stroke="#263238" stroke-miterlimit="10" stroke-width="2"/>
            <path id="Path_5869" data-name="Path 5869" d="M586.682,384.346l-1.333,69.3L464.067,473.642l2.666,32.653s67.305,1.333,98.625-1.333,58.642-4.665,62.64-8,15.348-67.748,20.013-113.062-4.665-60.642-23.324-57.976" transform="translate(-63.968 -44.886)" fill="#fff"/>
            <path id="Path_5870" data-name="Path 5870" d="M586.682,384.346l-1.333,69.3L464.067,473.642l2.666,32.653s67.305,1.333,98.625-1.333,58.642-4.665,62.64-8,15.348-67.748,20.013-113.062-13.723-63.582-25.13-70.826" transform="translate(-63.968 -44.886)" fill="#080808" stroke="#f0f0f0" stroke-linecap="round" stroke-linejoin="round" stroke-width="2"/>
            <path id="Path_5871" data-name="Path 5871" d="M378.376,493.392l-9.694,29.47,9.541,5.153s12.021,9.307,18.613,14.348,11.633,5.041,15.123,3.49,19.388-24.042,21.327-28.307-7.367-17.062-16.674-22.491-17.062-5.429-22.49-3.878-15.746,2.215-15.746,2.215" transform="translate(-50.82 -67.582)" fill="#fff"/>
            <path id="Path_5872" data-name="Path 5872" d="M378.376,493.392l-9.694,29.47,9.541,5.153s12.021,9.307,18.613,14.348,11.633,5.041,15.123,3.49,19.388-24.042,21.327-28.307-7.367-17.062-16.674-22.491-17.062-5.429-22.49-3.878S378.376,493.392,378.376,493.392Z" transform="translate(-50.82 -67.582)" fill="none" stroke="#263238" stroke-miterlimit="10" stroke-width="2"/>
            <path id="Path_5873" data-name="Path 5873" d="M452.241,496.666l-15.327-1.333s-10.662-2.666-14.661-2.666-9.329,4-11.994,6-31.987,33.985-31.987,33.985,2.666,5.331,6.664,4,11.329-4.665,11.329-4.665-8,8-4,12,10.661,4,10.661,4l4.665-2.665a18.657,18.657,0,0,0,6.664,3.331c3.332.667,8.663-.666,13.328-3.331s16.478-16.565,16.478-16.565l10.239-3.961Z" transform="translate(-52.142 -67.91)" fill="#fff"/>
            <path id="Path_5874" data-name="Path 5874" d="M452.241,496.666l-15.327-1.333s-10.662-2.666-14.661-2.666-9.329,4-11.994,6-31.987,33.985-31.987,33.985,2.666,5.331,6.664,4,11.329-4.665,11.329-4.665-8,8-4,12,10.661,4,10.661,4l4.665-2.665a18.657,18.657,0,0,0,6.664,3.331c3.332.667,8.663-.666,13.328-3.331s16.478-16.565,16.478-16.565l10.239-3.961Z" transform="translate(-52.142 -67.91)" fill="none" stroke="#263238" stroke-linecap="round" stroke-linejoin="round" stroke-width="2"/>
            <path id="Path_5875" data-name="Path 5875" d="M386.045,493.98s19.388-11.245,27.919-8.143,19.777,22.1,16.674,24.817-8.143,1.551-10.857-1.163a43.972,43.972,0,0,0-7.368-5.429s-7.755,4.653-16.674,4.653" transform="translate(-53.213 -66.894)" fill="#fff"/>
            <path id="Path_5876" data-name="Path 5876" d="M386.045,493.98s19.388-11.245,27.919-8.143,19.777,22.1,16.674,24.817-8.143,1.551-10.857-1.163a43.972,43.972,0,0,0-7.368-5.429s-7.755,4.653-16.674,4.653" transform="translate(-53.213 -66.894)" fill="none" stroke="#263238" stroke-miterlimit="10" stroke-width="2"/>
            <path id="Path_5877" data-name="Path 5877" d="M451.767,544.615l-6.156-3.29a4.265,4.265,0,1,1,4.02-7.524l6.156,3.29a4.265,4.265,0,1,1-4.02,7.524" transform="translate(-61.113 -73.511)" fill="#fff"/>
            <path id="Path_5878" data-name="Path 5878" d="M451.767,544.615l-6.156-3.29a4.265,4.265,0,1,1,4.02-7.524l6.156,3.29a4.265,4.265,0,1,1-4.02,7.524Z" transform="translate(-61.113 -73.511)" fill="none" stroke="#263238" stroke-miterlimit="10" stroke-width="2"/>
            <path id="Path_5879" data-name="Path 5879" d="M445.47,552.261l-6.156-3.29a4.265,4.265,0,1,1,4.02-7.524l6.156,3.29a4.265,4.265,0,1,1-4.02,7.524" transform="translate(-60.245 -74.565)" fill="#fff"/>
            <path id="Path_5880" data-name="Path 5880" d="M445.47,552.261l-6.156-3.29a4.265,4.265,0,1,1,4.02-7.524l6.156,3.29a4.265,4.265,0,1,1-4.02,7.524Z" transform="translate(-60.245 -74.565)" fill="none" stroke="#263238" stroke-miterlimit="10" stroke-width="2"/>
            <path id="Path_5881" data-name="Path 5881" d="M438.274,559.008l-6.156-3.289a4.265,4.265,0,1,1,4.02-7.524l6.156,3.289a4.265,4.265,0,0,1-4.02,7.524" transform="translate(-59.253 -75.495)" fill="#fff"/>
            <path id="Path_5882" data-name="Path 5882" d="M438.274,559.008l-6.156-3.289a4.265,4.265,0,1,1,4.02-7.524l6.156,3.289a4.265,4.265,0,0,1-4.02,7.524Z" transform="translate(-59.253 -75.495)" fill="none" stroke="#263238" stroke-miterlimit="10" stroke-width="2"/>
            <path id="Path_5883" data-name="Path 5883" d="M423.841,559.731l-1.618-.865a4.266,4.266,0,1,1,4.021-7.524l1.617.865a4.265,4.265,0,0,1-4.02,7.524" transform="translate(-57.889 -75.929)" fill="#fff"/>
            <path id="Path_5884" data-name="Path 5884" d="M423.841,559.731l-1.618-.865a4.266,4.266,0,1,1,4.021-7.524l1.617.865a4.265,4.265,0,0,1-4.02,7.524Z" transform="translate(-57.889 -75.929)" fill="none" stroke="#263238" stroke-miterlimit="10" stroke-width="2"/>
            <path id="Path_5885" data-name="Path 5885" d="M366.914,488.389l-81.384-34.4,3.008,53.9,67.2,15.4Z" transform="translate(-39.358 -62.579)" fill="#fff"/>
            <path id="Path_5886" data-name="Path 5886" d="M366.914,488.389l-81.384-34.4,3.008,53.9,67.2,15.4Z" transform="translate(-39.358 -62.579)" fill="none" stroke="#263238" stroke-linecap="round" stroke-linejoin="round" stroke-width="2"/>
            <path id="Path_5887" data-name="Path 5887" d="M365.231,527.986l11.173-34.9-11.377-5.02-.225,1.142-10.431,36.146Z" transform="translate(-48.847 -67.276)" fill="#fff"/>
            <path id="Path_5888" data-name="Path 5888" d="M365.231,527.986l11.173-34.9-11.377-5.02-.225,1.142-10.431,36.146Z" transform="translate(-48.847 -67.276)" fill="none" stroke="#263238" stroke-miterlimit="10" stroke-width="2"/>
            <path id="Path_5889" data-name="Path 5889" d="M235.533,216.191,237,207.847s19.308,1.328,27.028,1.279,14.469-1.054,14.419-9.257-4.567-36.161-4.567-36.161,8.673-1.984,12.026-5.865-1.5-8.676-5.88-14.439-8.278-12.012-8.8-18.764S258.98,95.765,258.98,95.765s1.91-3.39-4.407-10.588-38.654-8.446-59.339,1.816-25.418,25.249-25.315,41.654,9.413,39.508,9.413,39.508-6.117,25.128-6.59,26.579-5.95,12.139-5.95,12.139,25.868,18.055,35.33,26.15,30.773,21.965,30.9,14.476.985-24.435.985-24.435Z" transform="translate(-22.991 -10.963)" fill="#fff"/>
            <path id="Path_5890" data-name="Path 5890" d="M235.533,216.191,237,207.847s19.308,1.328,27.028,1.279,14.469-1.054,14.419-9.257-4.567-36.161-4.567-36.161,8.673-1.984,12.026-5.865-1.5-8.676-5.88-14.439-8.278-12.012-8.8-18.764S258.98,95.765,258.98,95.765s1.91-3.39-4.407-10.588-38.654-8.446-59.339,1.816-25.418,25.249-25.315,41.654,9.413,39.508,9.413,39.508-6.117,25.128-6.59,26.579-5.95,12.139-5.95,12.139,25.868,18.055,35.33,26.15,30.773,21.965,30.9,14.476.985-24.435.985-24.435Z" transform="translate(-22.991 -10.963)" fill="none" stroke="#263238" stroke-linecap="round" stroke-linejoin="round" stroke-width="2"/>
            <path id="Path_5891" data-name="Path 5891" d="M278.944,199.868c-.051-8.2-4.567-36.161-4.567-36.161s-5.326-2.862-15.444-.387-12.91,18.9-14.828,20.841S229.57,174.6,224.7,166.91s-8.334-21.179-8.865-28.9,17.781-11.69,20.631-18.946-10.707-14.892-5.913-19.747,14.458-2.985,19.288-2.049,9.642-1.508,9.642-1.508,1.909-3.389-4.409-10.588-38.654-8.446-59.339,1.816-25.416,25.249-25.315,41.654c.083,13.294,6.212,30.984,8.534,37.216,1.861.668,4.889,1.626,6.181,1.294,1.927-.494,3.339-6.293,4.268-12.089s14.88-12.638,14.88-12.638,2.52,17.354,2.541,20.732-1.8,20.277,7.415,28.423S237.5,207.846,237.5,207.846s19.309,1.328,27.029,1.28,14.469-1.055,14.418-9.258" transform="translate(-23.491 -10.963)" fill="#024778"/>
            <path id="Path_5892" data-name="Path 5892" d="M278.944,199.868c-.051-8.2-4.567-36.161-4.567-36.161s-5.326-2.862-15.444-.387-12.91,18.9-14.828,20.841S229.57,174.6,224.7,166.91s-8.334-21.179-8.865-28.9,17.781-11.69,20.631-18.946-10.707-14.892-5.913-19.747,14.458-2.985,19.288-2.049,9.642-1.508,9.642-1.508,1.909-3.389-4.409-10.588-38.654-8.446-59.339,1.816-25.416,25.249-25.315,41.654c.083,13.294,6.212,30.984,8.534,37.216,1.861.668,4.889,1.626,6.181,1.294,1.927-.494,3.339-6.293,4.268-12.089s14.88-12.638,14.88-12.638,2.52,17.354,2.541,20.732-1.8,20.277,7.415,28.423S237.5,207.846,237.5,207.846s19.309,1.328,27.029,1.28S279,208.071,278.944,199.868Z" transform="translate(-23.491 -10.963)" fill="none" stroke="#263238" stroke-miterlimit="10" stroke-width="2"/>
            <path id="Path_5893" data-name="Path 5893" d="M235.084,247.344l20.873,9.685s8.745,24.779,5.83,25.508-24.778-16.762-24.778-16.762Z" transform="translate(-32.405 -34.095)" fill="#fff"/>
            <path id="Path_5894" data-name="Path 5894" d="M235.084,247.344l20.873,9.685s8.745,24.779,5.83,25.508-24.778-16.762-24.778-16.762Z" transform="translate(-32.405 -34.095)" fill="none" stroke="#263238" stroke-linecap="round" stroke-linejoin="round" stroke-width="2"/>
            <path id="Path_5895" data-name="Path 5895" d="M279.076,146.421c.126,2.8-.528,5.1-1.459,5.138s-1.789-2.19-1.916-4.986.528-5.1,1.46-5.137,1.789,2.19,1.915,4.985" transform="translate(-38.001 -19.496)" fill="#263238"/>
            <path id="Path_5896" data-name="Path 5896" d="M263.882,135.785s4.3-7.265,15.422-2.991" transform="translate(-36.374 -18.119)" fill="none" stroke="#263238" stroke-linecap="round" stroke-linejoin="round" stroke-width="2"/>
            <path id="Path_5897" data-name="Path 5897" d="M210.077,162.912s-4-23.136-10.753-22.129-10.555,9.716-7.109,20.793,10.2,10.069,14.049,9.08" transform="translate(-26.317 -19.401)" fill="#fff"/>
            <path id="Path_5898" data-name="Path 5898" d="M210.077,162.912s-4-23.136-10.753-22.129-10.555,9.716-7.109,20.793,10.2,10.069,14.049,9.08" transform="translate(-26.317 -19.401)" fill="none" stroke="#263238" stroke-linecap="round" stroke-linejoin="round" stroke-width="2"/>
            <path id="Path_5899" data-name="Path 5899" d="M268.112,186.822s3.89,4.8,14.022,4.738" transform="translate(-36.957 -25.752)" fill="none" stroke="#263238" stroke-linecap="round" stroke-linejoin="round" stroke-width="2"/>
            <path id="Path_5900" data-name="Path 5900" d="M139.869,733.16H242.1c.353-5.37,4.313-26.058,4.313-39.6,0-15.674,10.781-116.683,10.781-116.683l-132.973-1.742,4.354,61.824Z" transform="translate(-17.123 -79.278)" fill="#fff"/>
            <path id="Path_5901" data-name="Path 5901" d="M139.869,733.16H242.1c.353-5.37,4.313-26.058,4.313-39.6,0-15.674,10.781-116.683,10.781-116.683l-132.973-1.742,4.354,61.824Z" transform="translate(-17.123 -79.278)" fill="none" stroke="#263238" stroke-linecap="round" stroke-linejoin="round" stroke-width="2"/>
            <path id="Path_5902" data-name="Path 5902" d="M150.09,231.359S126.769,261.24,120.209,278s-11.661,19.677-10.2,40.812,11.661,105.676,11.661,105.676L101.261,534.537s32.8,13.118,75.065,13.118,60.49-3.643,63.4-5.1,28.423-8.016,28.423-8.016-2.051-124.291-8.016-167.622c-5.931-43.079-17.713-75.814-21.863-83.811-4.056-7.816-15.305-34.253-15.305-34.253Z" transform="translate(-13.958 -31.891)" fill="#fff"/>
            <path id="Path_5903" data-name="Path 5903" d="M150.09,231.359S126.769,261.24,120.209,278s-11.661,19.677-10.2,40.812,11.661,105.676,11.661,105.676L101.261,534.537s32.8,13.118,75.065,13.118,60.49-3.643,63.4-5.1,28.423-8.016,28.423-8.016-2.051-124.291-8.016-167.622c-5.931-43.079-17.713-75.814-21.863-83.811-4.056-7.816-15.305-34.253-15.305-34.253Z" transform="translate(-13.958 -31.891)" fill="none" stroke="#263238" stroke-linecap="round" stroke-linejoin="round" stroke-width="2"/>
            <path id="Path_5904" data-name="Path 5904" d="M244.339,283.1c-3.644-8.016-15.3-34.254-15.3-34.254l-72.88-17.491s-4.932,6.32-10.893,14.772c15.884,9.234,55.213,32.018,57.536,32.6,2.916.729,17.491-.728,17.491-.728l-6.559,8.016s17.491,13.847,23.321,19.678c3.066,3.065,11.973,11.167,19.733,18.162-5.29-20.938-10.159-35.725-12.445-40.755" transform="translate(-20.023 -31.891)" fill="#fff"/>
            <path id="Path_5905" data-name="Path 5905" d="M244.339,283.1c-3.644-8.016-15.3-34.254-15.3-34.254l-72.88-17.491s-4.932,6.32-10.893,14.772c15.884,9.234,55.213,32.018,57.536,32.6,2.916.729,17.491-.728,17.491-.728l-6.559,8.016s17.491,13.847,23.321,19.678c3.066,3.065,11.973,11.167,19.733,18.162C251.494,302.92,246.626,288.133,244.339,283.1Z" transform="translate(-20.023 -31.891)" fill="none" stroke="#263238" stroke-linecap="round" stroke-linejoin="round" stroke-width="2"/>
            <path id="Path_5906" data-name="Path 5906" d="M221.3,268.262l24.779,19.677,20.406,36.44-13.118-53.2-26.966-15.3Z" transform="translate(-30.504 -35.27)" fill="#fff"/>
            <path id="Path_5907" data-name="Path 5907" d="M221.3,268.262l24.779,19.677,20.406,36.44-13.118-53.2-26.966-15.3Z" transform="translate(-30.504 -35.27)" fill="none" stroke="#263238" stroke-linecap="round" stroke-linejoin="round" stroke-width="2"/>
            <path id="Path_5908" data-name="Path 5908" d="M162.066,215.3l76.316,34.386v26.965L151.134,232.06Z" transform="translate(-20.833 -29.677)" fill="#fff"/>
            <path id="Path_5909" data-name="Path 5909" d="M162.066,215.3l76.316,34.386v26.965L151.134,232.06Z" transform="translate(-20.833 -29.677)" fill="none" stroke="#263238" stroke-linecap="round" stroke-linejoin="round" stroke-width="2"/>
            <rect id="Rectangle_2538" data-name="Rectangle 2538" width="131.858" height="106.687" transform="translate(110.275 461.442)" fill="#024778"/>
            <rect id="Rectangle_2539" data-name="Rectangle 2539" width="131.858" height="106.687" transform="translate(110.275 461.442)" fill="none" stroke="#263238" stroke-miterlimit="10" stroke-width="2"/>
            <path id="Path_5910" data-name="Path 5910" d="M208.931,594.192s9.8,12.788,13.641,14.067,5.968,4.263,7.672,6.821,3.837,21.74,5.115,23.019,1.279,4.263-3.41,2.131-7.673-9.378-7.673-9.378l1.705,17.051s3.837.853.853,2.984-5.542,5.115-8.1,3.837a40.585,40.585,0,0,1-6.395-4.689,20.409,20.409,0,0,1-9.378.853c-4.689-.853-3.837.853-8.1-2.131s-4.263.426-6.395-5.116-7.246-24.723-8.1-30.265-1.705-13.214-1.705-13.214Z" transform="translate(-24.628 -81.905)" fill="#fff"/>
            <path id="Path_5911" data-name="Path 5911" d="M208.931,594.192s9.8,12.788,13.641,14.067,5.968,4.263,7.672,6.821,3.837,21.74,5.115,23.019,1.279,4.263-3.41,2.131-7.673-9.378-7.673-9.378l1.705,17.051s3.837.853.853,2.984-5.542,5.115-8.1,3.837a40.585,40.585,0,0,1-6.395-4.689,20.409,20.409,0,0,1-9.378.853c-4.689-.853-3.837.853-8.1-2.131s-4.263.426-6.395-5.116-7.246-24.723-8.1-30.265-1.705-13.214-1.705-13.214Z" transform="translate(-24.628 -81.905)" fill="none" stroke="#263238" stroke-linecap="round" stroke-linejoin="round" stroke-width="2"/>
            <path id="Path_5912" data-name="Path 5912" d="M210.091,584.8l2.984,13.214-36.66,5.115-1.7-13.214Z" transform="translate(-24.083 -80.61)" fill="#fff"/>
            <path id="Path_5913" data-name="Path 5913" d="M210.091,584.8l2.984,13.214-36.66,5.115-1.7-13.214Z" transform="translate(-24.083 -80.61)" fill="none" stroke="#263238" stroke-linecap="round" stroke-linejoin="round" stroke-width="2"/>
            <path id="Path_5914" data-name="Path 5914" d="M156.054,261.79s-25.508,8.016-26.236,19.677-9.174,153.11-5.53,162.584S163.8,549.462,163.8,549.462l41.541-5.1S184.048,433.119,183.32,430.932,197.6,304.788,197.6,304.788" transform="translate(-17.007 -36.086)" fill="#fff"/>
            <path id="Path_5915" data-name="Path 5915" d="M156.054,261.79s-25.508,8.016-26.236,19.677-9.174,153.11-5.53,162.584S163.8,549.462,163.8,549.462l41.541-5.1S184.048,433.119,183.32,430.932,197.6,304.788,197.6,304.788" transform="translate(-17.007 -36.086)" fill="none" stroke="#263238" stroke-linecap="round" stroke-linejoin="round" stroke-width="2"/>
            <path id="Path_5916" data-name="Path 5916" d="M235.424,505.828l28.019-1.019,2.511,10.086-46.412,2.992" transform="translate(-30.262 -69.584)" fill="none" stroke="#263238" stroke-linecap="round" stroke-linejoin="round" stroke-width="2"/>
            <line id="Line_208" data-name="Line 208" y1="0.542" x2="14.926" transform="translate(181.808 436.551)" fill="none" stroke="#263238" stroke-linecap="round" stroke-linejoin="round" stroke-width="2"/>
            <path id="Path_6152" data-name="Path 6152" d="M553.051,280.75l8.521,1.885,8.207,13.615L526.65,340.495l-7.159-5.726,11.543-32.8Z" fill="#080808"/>
          </g>
        </g>
      </g>
    </g>
  </g>
</svg>
