<svg xmlns="http://www.w3.org/2000/svg" xmlns:xlink="http://www.w3.org/1999/xlink" width="171.758" height="135.818" viewBox="0 0 171.758 135.818">
  <defs>
    <clipPath id="clip-path">
      <rect id="Rectangle_2418" data-name="Rectangle 2418" width="171.758" height="135.818" fill="none"/>
    </clipPath>
  </defs>
  <g id="Group_1219" data-name="Group 1219" transform="translate(-156)">
    <g id="Group_1218" data-name="Group 1218" transform="translate(156)" clip-path="url(#clip-path)">
      <path id="Path_5329" data-name="Path 5329" d="M85.878,53.183h-.033a7.126,7.126,0,0,0-7.022,6.979,7.016,7.016,0,0,0,6.921,7.073h.068a7,7,0,0,0,5.04-11.927,6.966,6.966,0,0,0-4.974-2.125m-.027,10.466h-.009a3.431,3.431,0,0,1-2.433-1,3.392,3.392,0,0,1-1-2.427,3.5,3.5,0,0,1,3.443-3.447h.008a3.5,3.5,0,0,1,3.436,3.465,3.436,3.436,0,0,1-3.444,3.41" fill="#fff"/>
      <path id="Path_5330" data-name="Path 5330" d="M58.025,51.047c1.417-.487,2.885-.877,4.44-1.289.636-.168,1.3-.343,1.987-.533l1.52-.419-.633,1.443c-1.8,4.1-1.164,8.026-.491,12.185.269,1.663.547,3.383.659,5.118l.059.918L50.68,66.41l-.047-.073.315-.735-2.1,5.375a7.761,7.761,0,0,1,.5-.743l.265-.341,11.1,1.5c.667.09,1.334.179,2,.26,4.9.587,5.72,1,8.814,4.412a3.089,3.089,0,0,1,.669,1.386q1.9,8.913,3.76,17.83l.179.855a4.086,4.086,0,0,1,.066.545l.136,1.407-1.036-.261a40.34,40.34,0,0,1-14.591-7.008A43.636,43.636,0,0,1,49.161,77.55a6.673,6.673,0,0,1-1.087-4.63L45.665,79l.779,1.209c9.61,14.917,22.868,22.484,39.4,22.49h.015c16.543,0,29.805-7.563,39.418-22.479l.786-1.22.541,1.347c.12.3.238.58.349.845l-3.357-8.5a6.874,6.874,0,0,1-1.174,5.044c-5.908,10.234-14.441,16.836-26.088,20.181l-1.189.342.706-3.484c.311-1.543.606-3.009.914-4.472l.532-2.548c.65-3.127,1.323-6.36,2.077-9.524a5.973,5.973,0,0,1,1.1-2.055c.157-.218.313-.435.453-.657,2.015-3.19,5.167-3.537,8.217-3.873l.73-.082c2.769-.324,5.563-.724,8.264-1.112q1.752-.25,3.482-.493l.413-.056.267.321a7.217,7.217,0,0,1,.758,1.1l-10.618-27.85L112,43.325a18.875,18.875,0,0,0,.8,2.331l.571,1.375-1.445-.361a105.12,105.12,0,0,0-52.095,0l-1.424.357.546-1.364c.235-.585.424-1.151.591-1.709-.535,1.515-3.52,8.98-3.52,8.98a3.724,3.724,0,0,1,2-1.887M94.718,82.7c-.612,2.928-1.218,5.825-1.829,8.719-.131.624-.271,1.246-.41,1.868-.274,1.217-.556,2.476-.764,3.714a2.144,2.144,0,0,1-2.223,2.059c-.055,0-.12,0-.179,0-.606,0-1.212,0-1.818.007s-1.207.007-1.817.007c-1.155,0-2.322-.013-3.48-.065a2.56,2.56,0,0,1-2.074-1.639c-1.11-4.964-2.167-10.027-3.19-14.922l-.572-2.742a1.109,1.109,0,0,1,.064-.613l.142-.568.615-.091H95.612Zm14.406-32.984c1.835.519,3.511.992,5.176,1.5a2.2,2.2,0,0,1,1.24,1.232c1.668,4.159,3.3,8.33,4.938,12.5a1.633,1.633,0,0,1,.1.64c0,.056,0,.116,0,.183l.049.7-14.465,1.977.047-.9a49.626,49.626,0,0,1,.644-5.205c.662-4.127,1.286-8.025-.568-12.148l-.662-1.471ZM69.237,50.847a5.244,5.244,0,0,1,4.811-3.2c2.791-.209,5.583-.4,8.338-.582l3.413-.232.051,0q1.785.12,3.54.23c2.769.177,5.385.343,8.055.567a6.9,6.9,0,0,1,6.367,7.015,40.856,40.856,0,0,1-.48,6.647c-.106.837-.213,1.673-.3,2.508a21.772,21.772,0,0,1-.509,2.926,10.441,10.441,0,0,1-9.955,8.114c-2.1.049-4.282.073-6.642.073-1.989,0-4.1-.017-6.4-.051a10.466,10.466,0,0,1-10.487-8.789,59.069,59.069,0,0,1-1.22-9.319,15.475,15.475,0,0,1,1.421-5.91" fill="#fff"/>
      <path id="Path_5331" data-name="Path 5331" d="M130.05,90.759a55.4,55.4,0,0,1-86.937,1.928" fill="none" stroke="#fff" stroke-miterlimit="10" stroke-width="4"/>
      <path id="Path_5332" data-name="Path 5332" d="M50.778,31.595a43.523,43.523,0,0,1,70.513.591" fill="none" stroke="#f0f0f0" stroke-miterlimit="10" stroke-width="4"/>
      <path id="Path_5333" data-name="Path 5333" d="M40.4,25.677a55.41,55.41,0,0,1,91.36.747" fill="none" stroke="#fff" stroke-miterlimit="10" stroke-width="4"/>
      <path id="Path_5334" data-name="Path 5334" d="M171.586,123.919c-.181-.4-.359-.8-.5-1.211l-3.822-10.99c-3.691-10.622-7.508-21.606-11.318-32.388-.479-1.354-1.33-2.467-1.77-2.559-2.547-.529-3.047-2.355-3.449-3.823-.061-.226-.123-.452-.193-.677-.063-.206-.131-.413-.2-.62a11.528,11.528,0,0,1-.6-2.462,6.335,6.335,0,0,1,.338-3.242c1.154-2.43,2.371-4.874,3.549-7.238,1.39-2.792,2.828-5.679,4.164-8.549a17.013,17.013,0,0,0-5.119-20.78c-3.058-2.35-5.981-4.772-9.429-7.685-3.042-2.572-6.623-2.83-9.735-.761a19.774,19.774,0,0,0-4.015,5.813,1.15,1.15,0,0,1-.067.485c-.16.408-.333.813-.5,1.22-.006.026-.015.052-.021.078a2.7,2.7,0,0,1-.484,1.156c-.385.909-.776,1.811-1.162,2.7L126,35.27l-.769-1.116c-.672-.975-1.358-1.91-2.054-2.816-1.729-2.284-4.167-1.268-5.24-.644l.011.013-.557.342-.192.118c-4.873,3-6.587,6.99-5.2,12.158v0l11.063,28a5.382,5.382,0,0,1,.539,1.365l3.358,8.5a16.447,16.447,0,0,1,.676,1.793,2.1,2.1,0,0,1-.322,1.9c-1.311,1.332-1.52,2.856-.658,4.795a4.391,4.391,0,0,1,.177.474l.007.018,2.771,8.086,11.563,33.294c.3.871.594,1.741.91,2.6.508,1.392,1.309,1.915,2.381,1.546,1.094-.374,1.431-1.265,1-2.647-.073-.236-.155-.472-.237-.707l-13.6-39.169c-.37-1.066-.729-2.136-1.1-3.245l-.793-2.355L152.3,79.752l.518,1.374c.155.407.287.754.409,1.105l2.1,6.04q6.321,18.205,12.63,36.415c.443,1.283.822,1.92,1.776,2.067.807.126,1.31-.253,2.023-1.166v-1.282c-.057-.129-.114-.257-.172-.386m-40-40.774-9.649-24.322q-3.057-7.687-6.105-15.378c-1.741-4.4-.375-7.49,4.176-9.452l.627-.271,1.138,2.069c.643,1.159,1.289,2.326,1.9,3.511.679,1.32,1.374,1.841,2.4,1.779s1.648-.624,2.235-2.027c1.722-4.113,3.451-8.137,5.371-12.593.79-1.833,1.866-2.92,3.2-3.229,1.366-.316,2.871.213,4.469,1.577,2.431,2.076,5.649,4.781,8.981,7.293a13.451,13.451,0,0,1,4.03,16.957c-2.588,5.383-5.317,10.888-8.111,16.362a4.557,4.557,0,0,0-.342,3.779c.552,1.687,1.016,3.372,1.507,5.155.21.76.423,1.532.646,2.317l.194.681Z" fill="#ffc810"/>
      <path id="Path_5335" data-name="Path 5335" d="M45.5,88.155a3.577,3.577,0,0,0-.213-1.93c-.434-.761-1.54-1.522-1.352-2.488a.244.244,0,0,1,.006-.026A1.685,1.685,0,0,1,44,83.129c.207-.655.476-1.284.76-1.951.115-.271.236-.552.358-.85L45.665,79l2.409-6.077a5.827,5.827,0,0,1,.771-1.943l2.468-6.226.18-.473c.332-.873.653-1.717.985-2.558l.754-1.917c.888-2.26,1.806-4.6,2.789-6.87,0,0,2.985-7.464,3.52-8.98,1.653-5.514.01-9.7-5.014-12.745l-.086-.052a2.662,2.662,0,0,1-.78-.31,2.671,2.671,0,0,1-1.2-.682,1.248,1.248,0,0,1-.113-.077,2.674,2.674,0,0,1-.81-.4,2.562,2.562,0,0,1-.332-.15c-.022-.01-.047-.018-.07-.028-.265-.023-.526-.067-.786-.115a2.423,2.423,0,0,1-.3.1c-1.229,1.471-2.428,3.008-3.571,4.675l-.77,1.124-.538-1.252c-.255-.6-.5-1.183-.741-1.764-.558-1.343-1.086-2.612-1.7-3.851a3.519,3.519,0,0,1-.406-1.592c-.034-.085-.066-.17-.093-.258-.006-.02-.015-.039-.021-.059a3.127,3.127,0,0,1-.188-.375c-.154-.3-.332-.578-.483-.876a11.162,11.162,0,0,1-.559-1.4c-.037-.117-.077-.232-.118-.347a3.806,3.806,0,0,1-.384-.847A2.739,2.739,0,0,1,40,22.225l-.3-.224c-4.739-3.485-7.96-3.3-12.307.707-.45.414-.894.842-1.34,1.271a26.768,26.768,0,0,1-4.671,3.863c-8.637,5.165-11.4,14.277-7.038,23.219.492,1.007.963,2.03,1.434,3.051a60.4,60.4,0,0,0,3.761,7.28,12.733,12.733,0,0,1,1,13.076,1.018,1.018,0,0,0-.028.12,1.524,1.524,0,0,1-.264.654,1.922,1.922,0,0,1-1.178.883c-2,.271-2.841,1.592-3.541,3.635q-2.766,8.073-5.583,16.127-1.415,4.068-2.827,8.138l-.4,1.145Q3.424,114.651.163,124.143a1.8,1.8,0,0,0,.99,2.519c.98.363,1.888-.153,2.369-1.35.1-.24.174-.488.252-.737.054-.17.107-.341.166-.509q7.284-20.988,14.573-41.972c.125-.359.272-.71.436-1.1l.511-1.243,22.46,7.812-.424,1.4c-.127.43-.234.792-.358,1.149l-11.186,32.2q-1.863,5.361-3.7,10.728c-.319.938-.41,2.159.967,2.648,1.068.384,1.878-.129,2.405-1.514.1-.255.191-.513.281-.772L37.424,111.7q1.778-5.124,3.564-10.249l1.32-3.792.14-.417ZM40.685,81.7a5.088,5.088,0,0,1-.241.5l-.457.892L23.448,77.346l.195-.681c.224-.782.438-1.556.65-2.321.5-1.817.979-3.532,1.543-5.26a4.382,4.382,0,0,0-.36-3.621c-2.034-4-4.044-8.082-5.988-12.036l-1.753-3.559c-3.786-7.676-1.675-14.657,5.79-19.155a27.192,27.192,0,0,0,4.529-3.738c.737-.7,1.5-1.426,2.288-2.1a7.8,7.8,0,0,1,2.31-1.534c2.068-.738,4.131.308,5.134,2.607,1.685,3.866,3.488,8.086,5.512,12.9.588,1.4,1.172,2.214,2.415,2.237,1.2-.017,1.788-.73,2.457-2.031.576-1.121,1.181-2.227,1.782-3.326l1.079-1.986.622.251c4.348,1.763,5.958,5.014,4.418,8.925Q50.362,57.414,44.588,71.881Z" fill="#ffc810"/>
    </g>
  </g>
</svg>
