<?xml version="1.0" encoding="utf-8"?>
<!-- Generator: Adobe Illustrator 26.5.0, SVG Export Plug-In . SVG Version: 6.00 Build 0)  -->
<svg version="1.1" id="Layer_1" xmlns="http://www.w3.org/2000/svg" xmlns:xlink="http://www.w3.org/1999/xlink" x="0px" y="0px"
	 viewBox="0 0 206.2 171.8" style="enable-background:new 0 0 206.2 171.8;" xml:space="preserve">
<style type="text/css">
	.st0{fill:#024778;}
	.st1{fill:#FFC810;}
	.st2{fill:none;stroke:#FFC810;stroke-width:3.5;stroke-linecap:round;stroke-miterlimit:10;}
</style>
<g id="Group_1218" transform="translate(156)">
	<path id="Path_5329" class="st0" d="M-52.9,54.2L-52.9,54.2c-3.9,0.1-7,3.1-7.1,7c0,3.9,3.1,7,6.9,7.1h0.1c3.9,0,7-3.1,7.1-6.9
		c0-1.9-0.7-3.7-2-5C-49.2,54.9-51,54.2-52.9,54.2 M-52.9,64.6L-52.9,64.6c-0.9,0-1.8-0.4-2.4-1c-0.6-0.6-1-1.5-1-2.4
		c0-1.9,1.6-3.4,3.4-3.4h0c1.9,0,3.4,1.6,3.4,3.5C-49.5,63.1-51,64.6-52.9,64.6"/>
	<path id="Path_5330" class="st0" d="M-80.8,52c1.4-0.5,2.9-0.9,4.4-1.3c0.6-0.2,1.3-0.3,2-0.5l1.5-0.4l-0.6,1.4
		c-1.8,4.1-1.2,8-0.5,12.2c0.3,1.7,0.5,3.4,0.7,5.1l0.1,0.9l-14.9-2.1l0-0.1l0.3-0.7l-2.1,5.4c0.2-0.3,0.3-0.5,0.5-0.7l0.3-0.3
		l11.1,1.5c0.7,0.1,1.3,0.2,2,0.3c4.9,0.6,5.7,1,8.8,4.4c0.3,0.4,0.6,0.9,0.7,1.4c1.3,5.9,2.5,11.9,3.8,17.8l0.2,0.9
		c0,0.2,0.1,0.4,0.1,0.5l0.1,1.4l-1-0.3c-5.3-1.3-10.3-3.7-14.6-7c-4.7-3.6-8.6-8.1-11.5-13.3c-0.9-1.4-1.3-3-1.1-4.6l-2.4,6.1
		l0.8,1.2c9.6,14.9,22.9,22.5,39.4,22.5h0c16.5,0,29.8-7.6,39.4-22.5l0.8-1.2l0.5,1.3c0.1,0.3,0.2,0.6,0.3,0.8l-3.4-8.5
		c0.3,1.8-0.1,3.6-1.2,5C-22.3,89-30.8,95.6-42.5,98.9l-1.2,0.3l0.7-3.5c0.3-1.5,0.6-3,0.9-4.5l0.5-2.5c0.7-3.1,1.3-6.4,2.1-9.5
		c0.2-0.8,0.6-1.4,1.1-2.1c0.2-0.2,0.3-0.4,0.5-0.7c2-3.2,5.2-3.5,8.2-3.9l0.7-0.1c2.8-0.3,5.6-0.7,8.3-1.1c1.2-0.2,2.3-0.3,3.5-0.5
		l0.4-0.1l0.3,0.3c0.3,0.3,0.5,0.7,0.8,1.1l-10.6-27.8l-0.4-0.1c0.2,0.8,0.5,1.6,0.8,2.3l0.6,1.4l-1.4-0.4c-17.1-4.4-35-4.4-52.1,0
		l-1.4,0.4l0.5-1.4c0.2-0.6,0.4-1.2,0.6-1.7c-0.5,1.5-3.5,9-3.5,9C-82.4,53.1-81.7,52.4-80.8,52 M-44.1,83.7
		c-0.6,2.9-1.2,5.8-1.8,8.7c-0.1,0.6-0.3,1.2-0.4,1.9c-0.3,1.2-0.6,2.5-0.8,3.7c0,1.2-1,2.1-2.2,2.1c-0.1,0-0.1,0-0.2,0
		c-0.6,0-1.2,0-1.8,0s-1.2,0-1.8,0c-1.2,0-2.3,0-3.5-0.1c-0.9-0.1-1.7-0.8-2.1-1.6c-1.1-5-2.2-10-3.2-14.9l-0.6-2.7
		c0-0.2,0-0.4,0.1-0.6l0.1-0.6l0.6-0.1h18.4L-44.1,83.7z M-29.7,50.7c1.8,0.5,3.5,1,5.2,1.5c0.6,0.2,1,0.7,1.2,1.2
		c1.7,4.2,3.3,8.3,4.9,12.5c0.1,0.2,0.1,0.4,0.1,0.6c0,0.1,0,0.1,0,0.2l0,0.7l-14.5,2l0-0.9c0.1-1.7,0.3-3.5,0.6-5.2
		c0.7-4.1,1.3-8-0.6-12.1l-0.7-1.5L-29.7,50.7z M-69.6,51.8c0.8-1.9,2.7-3.2,4.8-3.2c2.8-0.2,5.6-0.4,8.3-0.6l3.4-0.2h0.1
		c1.2,0.1,2.4,0.2,3.5,0.2c2.8,0.2,5.4,0.3,8.1,0.6c3.6,0.3,6.4,3.4,6.4,7c0,2.2-0.1,4.4-0.5,6.6c-0.1,0.8-0.2,1.7-0.3,2.5
		c-0.1,1-0.3,2-0.5,2.9c-1.1,4.7-5.2,8-10,8.1c-2.1,0-4.3,0.1-6.6,0.1c-2,0-4.1,0-6.4-0.1c-5.2,0.1-9.7-3.7-10.5-8.8
		c-0.7-3.1-1.1-6.2-1.2-9.3C-70.9,55.7-70.4,53.7-69.6,51.8"/>
	<g id="Path_5331">
		<path class="st0" d="M-53.1,115.8c-12.4,0-24.4-4-34.4-11.6c-3.6-2.7-6.8-5.8-9.7-9.3l3.1-2.5c2.7,3.2,5.7,6.1,9,8.6
			c11.4,8.6,25.4,12.2,39.6,10.2c14.1-2,26.6-9.3,35.2-20.7l3.2,2.4c-9.2,12.2-22.7,20.2-37.9,22.3
			C-47.7,115.6-50.4,115.8-53.1,115.8z"/>
	</g>
	<g id="Path_5332">
		<path class="st0" d="M-19.1,34.3c-2.6-3.6-5.7-6.8-9.2-9.4c-18.4-13.6-44.5-9.6-58.1,8.8l-3.2-2.4C-74.7,11.2-46.2,6.8-26,21.7
			c3.9,2.9,7.3,6.3,10.1,10.3L-19.1,34.3z"/>
	</g>
	<g id="Path_5333">
		<path class="st0" d="M-8.7,28.5c-3.7-5.5-8.3-10.1-13.7-13.9C-46.5-2.3-79.9,3.7-96.8,27.8l-3.3-2.3c18.1-26,54-32.3,79.9-14.2
			c5.8,4.1,10.8,9.1,14.7,15L-8.7,28.5z"/>
	</g>
	<path id="Path_5334" class="st1" d="M32.6,124.9c-0.2-0.4-0.2-0.8-0.3-1.2l-3.8-11c-3.7-10.6-7.5-21.6-11.3-32.4
		c-0.5-1.4-1.3-2.5-1.8-2.6c-2.5-0.5-3-2.4-3.4-3.8c-0.1-0.2-0.1-0.5-0.2-0.7c-0.1-0.2-0.1-0.4-0.2-0.6c-0.3-0.8-0.5-1.6-0.6-2.5
		c-0.2-1.1-0.1-2.2,0.3-3.2c1.2-2.4,2.4-4.9,3.5-7.2c1.4-2.8,2.8-5.7,4.2-8.5c3.4-7.3,1.3-15.9-5.1-20.8c-3.1-2.4-6-4.8-9.4-7.7
		c-3-2.6-6.6-2.8-9.7-0.8c-1.7,1.7-3,3.7-4,5.8c0,0.2,0,0.3-0.1,0.5c-0.2,0.4-0.3,0.8-0.5,1.2c0,0,0,0.1,0,0.1
		c-0.1,0.4-0.2,0.8-0.5,1.2c-0.4,0.9-0.8,1.8-1.2,2.7l-1.3,2.9l-0.8-1.1c-0.7-1-1.4-1.9-2.1-2.8c-1.7-2.3-4.2-1.3-5.2-0.6l0,0
		l-0.6,0.3l-0.2,0.1c-4.9,3-6.6,7-5.2,12.2l0,0l11.1,28c0.2,0.4,0.4,0.9,0.5,1.4l3.4,8.5c0.3,0.6,0.5,1.2,0.7,1.8
		c0.2,0.6,0.1,1.4-0.3,1.9c-1.3,1.3-1.5,2.9-0.7,4.8c0.1,0.2,0.1,0.3,0.2,0.5l0,0l2.8,8.1l11.6,33.3c0.3,0.9,0.6,1.7,0.9,2.6
		c0.5,1.4,1.3,1.9,2.4,1.5c1.1-0.4,1.4-1.3,1-2.6c-0.1-0.2-0.2-0.5-0.2-0.7L-7.2,94.2c-0.4-1.1-0.7-2.1-1.1-3.2l-0.8-2.4l22.6-7.8
		l0.5,1.4c0.2,0.4,0.3,0.8,0.4,1.1l2.1,6c4.2,12.1,8.4,24.3,12.6,36.4c0.4,1.3,0.8,1.9,1.8,2.1c0.8,0.1,1.3-0.3,2-1.2l-0.1-1.1
		c-0.1-0.1-0.1-0.3-0.2-0.4 M-7.2,84.1l-9.6-24.3c-2-5.1-4.1-10.3-6.1-15.4c-1.7-4.4-0.4-7.5,4.2-9.5l0.6-0.3l1.1,2.1
		c0.6,1.2,1.3,2.3,1.9,3.5c0.7,1.3,1.4,1.8,2.4,1.8s1.6-0.6,2.2-2c1.7-4.1,3.5-8.1,5.4-12.6c0.8-1.8,1.9-2.9,3.2-3.2
		c1.4-0.3,2.9,0.2,4.5,1.6c2.4,2.1,5.6,4.8,9,7.3c5.3,3.9,7,11.1,4,17c-2.6,5.4-5.3,10.9-8.1,16.4c-0.7,1.2-0.8,2.5-0.3,3.8
		c0.6,1.7,1,3.4,1.5,5.2c0.2,0.8,0.4,1.5,0.6,2.3l0.2,0.7L-7.2,84.1z"/>
	<path id="Path_5335" class="st1" d="M-93.3,89.1c0.1-0.7,0-1.3-0.2-1.9c-0.4-0.8-1.5-1.5-1.4-2.5c0,0,0,0,0,0c0-0.2,0-0.4,0.1-0.6
		c0.2-0.7,0.5-1.3,0.8-2c0.1-0.3,0.2-0.6,0.4-0.8l0.5-1.3l2.4-6.1c0.1-0.7,0.4-1.3,0.8-1.9l2.5-6.2l0.2-0.5c0.3-0.9,0.7-1.7,1-2.6
		l0.8-1.9c0.9-2.3,1.8-4.6,2.8-6.9c0,0,3-7.5,3.5-9c1.7-5.5,0-9.7-5-12.7l-0.1-0.1c-0.3-0.1-0.5-0.2-0.8-0.3
		c-0.5-0.1-0.9-0.4-1.2-0.7c0,0-0.1,0-0.1-0.1c-0.3-0.1-0.6-0.2-0.8-0.4c-0.1,0-0.2-0.1-0.3-0.1c0,0,0,0-0.1,0
		c-0.3,0-0.5-0.1-0.8-0.1c-0.1,0-0.2,0.1-0.3,0.1c-1.2,1.5-2.4,3-3.6,4.7l-0.8,1.1l-0.5-1.3c-0.3-0.6-0.5-1.2-0.7-1.8
		c-0.6-1.3-1.1-2.6-1.7-3.9c-0.3-0.5-0.4-1-0.4-1.6c0-0.1-0.1-0.2-0.1-0.3c0,0,0,0,0-0.1c-0.1-0.1-0.1-0.2-0.2-0.4
		c-0.2-0.3-0.3-0.6-0.5-0.9c-0.2-0.5-0.4-0.9-0.6-1.4c0-0.1-0.1-0.2-0.1-0.3c-0.2-0.3-0.3-0.6-0.4-0.8c-0.2-0.1-0.3-0.3-0.5-0.5
		l-0.3-0.2c-4.7-3.5-8-3.3-12.3,0.7c-0.5,0.4-0.9,0.8-1.3,1.3c-1.4,1.5-3,2.8-4.7,3.9c-8.6,5.2-11.4,14.3-7,23.2c0.5,1,1,2,1.4,3.1
		c1.1,2.5,2.3,4.9,3.8,7.3c2.7,3.8,3.1,8.9,1,13.1c0,0,0,0.1,0,0.1c0,0.2-0.1,0.5-0.3,0.7c-0.3,0.4-0.7,0.8-1.2,0.9
		c-2,0.3-2.8,1.6-3.5,3.6c-1.8,5.4-3.7,10.8-5.6,16.1c-0.9,2.7-1.9,5.4-2.8,8.1l-0.4,1.1c-2.2,6.3-4.4,12.6-6.6,19
		c-0.5,0.9-0.1,2,0.8,2.4c0.1,0,0.1,0.1,0.2,0.1c1,0.4,1.9-0.2,2.4-1.3c0.1-0.2,0.2-0.5,0.3-0.7c0.1-0.2,0.1-0.3,0.2-0.5
		c4.9-14,9.7-28,14.6-42c0.1-0.4,0.3-0.7,0.4-1.1l0.5-1.2l22.5,7.8l-0.4,1.4c-0.1,0.4-0.2,0.8-0.4,1.1l-11.2,32.2
		c-1.2,3.6-2.5,7.1-3.7,10.7c-0.3,0.9-0.4,2.2,1,2.6c1.1,0.4,1.9-0.1,2.4-1.5c0.1-0.3,0.2-0.5,0.3-0.8l7.5-21.7
		c1.2-3.4,2.4-6.8,3.6-10.2l1.3-3.8l0.1-0.4L-93.3,89.1z M-98.1,82.7c-0.1,0.2-0.2,0.3-0.2,0.5l-0.5,0.9l-16.5-5.7l0.2-0.7
		c0.2-0.8,0.4-1.6,0.6-2.3c0.5-1.8,1-3.5,1.5-5.3c0.4-1.2,0.3-2.5-0.4-3.6c-2-4-4-8.1-6-12l-1.8-3.6c-3.8-7.7-1.7-14.7,5.8-19.2
		c1.6-1.1,3.2-2.3,4.5-3.7c0.7-0.7,1.5-1.4,2.3-2.1c0.7-0.6,1.5-1.2,2.3-1.5c2.1-0.7,4.1,0.3,5.1,2.6c1.7,3.9,3.5,8.1,5.5,12.9
		c0.6,1.4,1.2,2.2,2.4,2.2c1.2,0,1.8-0.7,2.5-2c0.6-1.1,1.2-2.2,1.8-3.3l1.1-2l0.6,0.3c4.3,1.8,6,5,4.4,8.9
		c-3.8,9.7-7.6,19.3-11.5,29L-98.1,82.7z"/>
</g>
<g>
	<line class="st2" x1="31.7" y1="89.4" x2="5" y2="165.7"/>
	<line class="st2" x1="60.9" y1="89.4" x2="34.3" y2="165.7"/>
</g>
<g>
	<line class="st2" x1="174.4" y1="89.4" x2="201.1" y2="165.7"/>
	<line class="st2" x1="145.1" y1="89.4" x2="171.8" y2="165.7"/>
</g>
</svg>
