<svg id="Group_1221" data-name="Group 1221" xmlns="http://www.w3.org/2000/svg" xmlns:xlink="http://www.w3.org/1999/xlink" width="135.987" height="136" viewBox="0 0 135.987 136">
  <defs>
    <clipPath id="clip-path">
      <rect id="Rectangle_2419" data-name="Rectangle 2419" width="135.987" height="136" fill="none"/>
    </clipPath>
  </defs>
  <g id="Group_1220" data-name="Group 1220" clip-path="url(#clip-path)">
    <path id="Path_5336" data-name="Path 5336" d="M133.3,131.537c-1.295.043-2.62.034-3.9.024-.56,0-1.124-.008-1.693-.008h-.257V126.9c0-7.566,0-15.01.016-22.456a2.029,2.029,0,0,1,.449-1.235,5.744,5.744,0,0,0,1.053-6.646,5.9,5.9,0,0,0-5.83-3.462h-.091c-1.9.017-3.8.014-5.7.012-1.921,0-3.843-.006-5.764.011-.838,0-1.4-.213-1.464-1.337q-.676-11.546-1.4-23.091L108.25,61.2c-.107-1.737-.693-2.3-2.413-2.32-2.445-.029-4.908-.029-7.325,0-1.732.02-2.237.494-2.35,2.209q-.524,7.99-1.017,15.981-.259,4.109-.518,8.219c-.1,1.66-.22,3.32-.333,4.973l-.189,2.757H88.951l-.084-.437a2.827,2.827,0,0,1-.064-.391l-.08-1.3q-.913-14.711-1.817-29.422c-.129-2.1-.633-2.586-2.7-2.6-2.221-.014-4.442-.009-6.662,0s-2.678.421-2.817,2.6q-.454,7.1-.881,14.2-.274,4.472-.551,8.943c-.118,1.9-.247,3.8-.377,5.705l-.184,2.712h-5.24l-.252-3.922c-.2-3.059-.39-6.092-.579-9.127q-.211-3.408-.418-6.816-.36-5.9-.735-11.8c-.132-2.037-.6-2.478-2.656-2.49-2.387-.013-4.723-.022-7.06,0-1.757.02-2.326.56-2.435,2.3q-.4,6.413-.786,12.827-.3,5.024-.614,10.046c-.123,2-.259,3.991-.394,5.99l-.2,2.98h-6.3v-.257c0-1.16.007-2.313.012-3.46.014-2.423.028-4.927-.024-7.375-.272-13.227-.58-26.674-.879-39.679l-.1-4.153c-.053-2.33-.485-2.739-2.882-2.741q-3.665,0-7.331,0H30.937c-2.792,0-3.152.35-3.212,3.118q-.671,30.977-1.362,61.954a4.27,4.27,0,0,1-.08.65c-.018.11-.038.225-.056.35l-.032.221H24.458q-2.091,0-4.181,0c-3.348-.006-6.809-.012-10.212.038a5.579,5.579,0,0,0-5.281,3.589,5.855,5.855,0,0,0,.9,6.245,3.452,3.452,0,0,1,.676,1.921c.037,4.272.033,8.613.03,12.812l0,5.293-2.9,0c-.426,0-.852-.005-1.276,0-1.4.029-2.226.689-2.208,1.766.024,1.457,1.43,1.7,2.266,1.718h29.2q50.978,0,101.951.017h.005a2.748,2.748,0,0,0,2.559-1.17V132.7a2.66,2.66,0,0,0-2.688-1.163M26.1,110.2h-.257c-.639,0-1.267,0-1.888-.007-1.628-.008-3.162-.017-4.716.036a2.428,2.428,0,0,0-1.589.55,2.348,2.348,0,0,0-.384,1.706c.169,1,1.178,1.173,1.764,1.185,1.213.026,2.447.022,3.643.018.515,0,1.027,0,1.547,0H25.8v17.8H9.954V113.852l.167-.063a2.7,2.7,0,0,1,.268-.077.875.875,0,0,0,.333-.123c.11-.144.23-.286.351-.431a3.255,3.255,0,0,0,.849-1.4c.119-.875-.648-1.358-1.406-1.52l-.263-.052c-.178-.034-.356-.069-.531-.116a2.476,2.476,0,0,1,.538-4.894c2.109-.036,4.251-.029,6.325-.03l9.519,0Zm73.44-47.733.224-.016c.165-.012.314-.026.453-.038.274-.025.509-.046.743-.047.812-.007,1.623,0,2.495,0h1.358l1.914,30.659h-9.1Zm-21.368-.023H83.45L85.36,93h-9.1Zm-21.385.018h5.286L63.99,93.033h-9.1ZM34.145,128.087l0,2.679a1.24,1.24,0,0,1-.057.329c-.013.052-.029.11-.043.177l-.044.2H29.163l.006-.263,2.043-92.25h9.42l1.2,54.169h-.262c-.428,0-.841,0-1.243-.006-.857-.009-1.664-.016-2.467.014a5.7,5.7,0,0,0-5.291,3.593,5.806,5.806,0,0,0,.9,6.243,2.841,2.841,0,0,1,.654,1.535c.029,7.859.023,15.85.016,23.577m89.411-26.471c-.807.059-1.624.051-2.419.044-.529,0-1.061-.009-1.588.005-1.214.031-1.971.682-1.977,1.7a1.789,1.789,0,0,0,1.948,1.762c.909.039,1.818.028,2.782.021.437,0,.884-.008,1.344-.008h.257v26.319H37.755V105.143h9.651q30.981,0,61.964-.006a8.107,8.107,0,0,0,1.79-.14,1.533,1.533,0,0,0,1.279-1.682,1.585,1.585,0,0,0-1.523-1.619,11.2,11.2,0,0,0-1.246-.041l-.319,0h-14q-27.991,0-55.981-.007a8.968,8.968,0,0,1-1.9-.164,2.32,2.32,0,0,1-1.9-2.48,2.44,2.44,0,0,1,2.245-2.366,11.748,11.748,0,0,1,1.256-.044h.237l83.309,0c.269,0,.539,0,.809.01a2.529,2.529,0,0,1,2.64,2.426,2.56,2.56,0,0,1-2.51,2.584" transform="translate(0 0.945)" fill="#fff"/>
    <path id="Path_5337" data-name="Path 5337" d="M45.784,33.051a1.624,1.624,0,0,0,1.3.271,37.572,37.572,0,0,0,3.885-.974c.509-.147,1.018-.294,1.53-.431a.393.393,0,0,1,.233-.218.531.531,0,0,1,.484.151c4.336,3.668,9.149,4.588,14.715,2.81a2.094,2.094,0,0,1,1.706.425,18.681,18.681,0,0,0,17.7,3.941,2.338,2.338,0,0,1,.6-.09,1.714,1.714,0,0,1,1.307.717c.464.5.921,1.023,1.379,1.543a28.754,28.754,0,0,0,4.64,4.533,25.079,25.079,0,0,0,38.368-12.045,32.356,32.356,0,0,0,1.083-4.075c.14-.637.28-1.273.436-1.9V22.672c-.149-.561-.285-1.191-.423-1.82a27.829,27.829,0,0,0-1.072-3.973C130.066,7.458,123.175,1.861,113.176.243a2.707,2.707,0,0,1-.554-.172c-.063-.025-.123-.048-.186-.07h-4.966c-.028.013-.056.03-.085.045a1.151,1.151,0,0,1-.42.156,24.164,24.164,0,0,0-12.5,5.144A1.5,1.5,0,0,1,92.43,5.31a18.718,18.718,0,0,0-22.8,1.547,2.247,2.247,0,0,1-1.846.385,14.483,14.483,0,0,0-17.754,7.011,1.441,1.441,0,0,1-1.713.884,8.981,8.981,0,0,0-9.761,5.187A1.651,1.651,0,0,1,36.967,21.4a6.01,6.01,0,0,0-5.736,5.651,1.775,1.775,0,0,0,1.514,2.025,1.7,1.7,0,0,0,1.9-1.495c.022-.089.04-.179.059-.268.027-.13.054-.262.089-.389a2.692,2.692,0,0,1,1.255-1.736,2.658,2.658,0,0,1,2.112-.115c1.074.341,1.717.379,2.149.125s.724-.854.956-1.995A5.794,5.794,0,0,1,44.1,19.162a5.725,5.725,0,0,1,4.876-.223c1.133.434,1.788.525,2.255.311s.823-.759,1.236-1.886A10.982,10.982,0,0,1,67.7,11.031c1.666.77,2,.715,3.234-.541A15.17,15.17,0,0,1,91.561,8.978c1.953,1.472,2.262,1.461,4.143-.168A20.981,20.981,0,0,1,108.7,3.538a21.761,21.761,0,0,1,22.65,25.4,21.789,21.789,0,0,1-28.336,16.912,21.99,21.99,0,0,1-11.878-9.626c-.916-1.508-1.473-1.724-2.98-1.155-6.59,2.488-12.424,1.221-17.345-3.768a2.284,2.284,0,0,0-2.939-.5,13.5,13.5,0,0,1-4.005,1.149,10.6,10.6,0,0,1-9.447-3.862,2.541,2.541,0,0,0-1.683-1.043,1.752,1.752,0,0,0-1.346.661A7.053,7.053,0,0,1,46.8,29.947a1.826,1.826,0,0,0-1.285.612,1.69,1.69,0,0,0-.366,1.256,1.716,1.716,0,0,0,.635,1.236" transform="translate(0.834 0)" fill="#ffc810"/>
    <path id="Path_5338" data-name="Path 5338" d="M66.215,115.95a1.542,1.542,0,0,0,1.689-1.4,15.534,15.534,0,0,0,.109-1.621c.008-.245.016-.489.029-.732-.011-.256-.018-.511-.026-.768a16.255,16.255,0,0,0-.107-1.718,1.51,1.51,0,0,0-1.64-1.422h-.023a1.47,1.47,0,0,0-1.629,1.432,43.006,43.006,0,0,0,.018,4.88,1.453,1.453,0,0,0,1.579,1.348" transform="translate(1.724 2.892)" fill="#fff"/>
    <path id="Path_5339" data-name="Path 5339" d="M101.359,111.82q-.008-.24-.012-.48a11.048,11.048,0,0,0-.11-1.611,1.533,1.533,0,0,0-1.594-1.441c-.063,0-.127,0-.193.007a1.579,1.579,0,0,0-1.576,1.677c-.048,1.528-.048,2.914,0,4.241a1.665,1.665,0,0,0,1.637,1.753,1.635,1.635,0,0,0,1.743-1.537,10.152,10.152,0,0,0,.034-1.607c-.008-.251-.016-.5-.016-.75v-.248Z" transform="translate(2.613 2.892)" fill="#fff"/>
    <path id="Path_5340" data-name="Path 5340" d="M111.477,113.385a1.69,1.69,0,0,0,1.713,1.744A1.538,1.538,0,0,0,115,113.711a33.354,33.354,0,0,0,0-5.243,1.508,1.508,0,0,0-1.647-1.409c-.052,0-.107,0-.162.005a1.689,1.689,0,0,0-1.708,1.744c-.037.5-.027,1.023-.017,1.526,0,.231.009.461.009.69,0,.249,0,.5-.007.752-.006.53-.014,1.077.017,1.609" transform="translate(2.977 2.86)" fill="#fff"/>
    <path id="Path_5341" data-name="Path 5341" d="M51.294,111.415a14.542,14.542,0,0,0-.024-1.625,1.521,1.521,0,0,0-1.6-1.5q-.055,0-.111,0a1.374,1.374,0,0,0-1.537,1.224,34.293,34.293,0,0,0,.011,5.249,1.416,1.416,0,0,0,1.674,1.193,1.518,1.518,0,0,0,1.551-1.424,14,14,0,0,0,.025-1.622c-.006-.248-.011-.5-.011-.744l.014-.257c0-.163.006-.326.009-.489" transform="translate(1.28 2.892)" fill="#fff"/>
    <path id="Path_5342" data-name="Path 5342" d="M81.263,109.745a45.981,45.981,0,0,0,0,4.759,1.661,1.661,0,0,0,3.271.14,14.757,14.757,0,0,0,.154-1.705c.013-.256.027-.511.046-.767-.02-.267-.032-.535-.045-.8a14.367,14.367,0,0,0-.161-1.8,1.452,1.452,0,0,0-1.571-1.283h-.076a1.483,1.483,0,0,0-1.619,1.457" transform="translate(2.169 2.892)" fill="#fff"/>
    <path id="Path_5343" data-name="Path 5343" d="M89.579,109.778c-.071,1.376-.075,2.847-.01,4.634a1.67,1.67,0,0,0,3.3.2,13.6,13.6,0,0,0,.15-1.714c.011-.264.025-.531.043-.8-.02-.252-.033-.507-.045-.766a13.3,13.3,0,0,0-.17-1.783,1.443,1.443,0,0,0-1.549-1.256c-.039,0-.08,0-.121,0a1.5,1.5,0,0,0-1.6,1.489" transform="translate(2.391 2.892)" fill="#fff"/>
    <path id="Path_5344" data-name="Path 5344" d="M59.688,111.895c-.005-.172-.009-.345-.013-.518a15.086,15.086,0,0,0-.1-1.712,1.5,1.5,0,0,0-1.582-1.377l-.087,0a1.388,1.388,0,0,0-1.562,1.232,37.276,37.276,0,0,0-.021,5.128,1.437,1.437,0,0,0,1.6,1.3,1.518,1.518,0,0,0,1.654-1.435,12.867,12.867,0,0,0,.027-1.617c-.006-.251-.012-.5-.012-.747v-.257Z" transform="translate(1.502 2.892)" fill="#fff"/>
    <path id="Path_5345" data-name="Path 5345" d="M72.945,109.717a46.19,46.19,0,0,0-.011,4.756,1.491,1.491,0,0,0,1.607,1.476,1.521,1.521,0,0,0,1.69-1.4c.078-.558.1-1.123.125-1.721.01-.268.022-.538.037-.815-.015-.233-.026-.473-.037-.716a13.746,13.746,0,0,0-.146-1.7,1.475,1.475,0,0,0-1.6-1.31H74.58a1.467,1.467,0,0,0-1.636,1.428" transform="translate(1.947 2.892)" fill="#fff"/>
  </g>
</svg>
