<svg id="Group_1217" data-name="Group 1217" xmlns="http://www.w3.org/2000/svg" xmlns:xlink="http://www.w3.org/1999/xlink" width="145.756" height="145.62" viewBox="0 0 145.756 145.62">
  <defs>
    <clipPath id="clip-path">
      <rect id="Rectangle_2417" data-name="Rectangle 2417" width="145.756" height="145.62" fill="none"/>
    </clipPath>
  </defs>
  <g id="Group_1216" data-name="Group 1216" clip-path="url(#clip-path)">
    <path id="Path_5326" data-name="Path 5326" d="M143.988,24.281C121.238,16.422,97.714,8.3,74.005.167a3.817,3.817,0,0,0-2.258.008C50.839,7.35,29.595,14.687,9.05,21.783L1.77,24.3C.17,24.85,0,25.08,0,26.759Q0,33.492,0,40.225V142.857c0,2.447.314,2.755,2.8,2.757h7.37c2.637,0,2.908-.278,2.908-2.96V57.264H132.675l0,85.85c0,2.072.412,2.493,2.446,2.5q4.066.009,8.134,0c2.076,0,2.5-.417,2.5-2.45q0-58.2,0-116.4c0-1.674-.181-1.929-1.764-2.477M9.766,142.251H3.343V42.491H9.766ZM132.588,53.832H13.2V42.506H132.588Zm9.832,88.454h-6.384V42.476h6.384Zm.069-106.642c.007.854.014,1.713.014,2.582v.831H3.254v-.831c0-.932,0-1.854.007-2.77.009-2.349.017-4.567-.028-6.823A1.9,1.9,0,0,1,4.91,26.622c.091-.025.183-.05.269-.08q8.848-3.066,17.7-6.109l14.43-4.974Q54.12,9.664,70.919,3.839a5.65,5.65,0,0,1,3.941-.013c17.839,6.182,41.4,14.336,65.456,22.578a2.8,2.8,0,0,1,2.221,3.183c-.077,2-.063,3.969-.046,6.056" transform="translate(0 0)"/>
    <path id="Path_5327" data-name="Path 5327" d="M21.888,143.844a1.6,1.6,0,0,0-1.765,1.62c.006.953.689,1.556,1.825,1.615.2.01.409.008.61,0H123.845l.332,0a6.3,6.3,0,0,0,.8-.018,1.623,1.623,0,0,0,1.559-1.609,1.585,1.585,0,0,0-1.527-1.6c-.614-.051-1.235-.041-1.891-.031-.268,0-.522.009-.8.006h-8.05V107.172c0-2.283-.364-2.656-2.591-2.657l-10.295,0H94.614v-36.7c0-2.245-.37-2.611-2.637-2.612q-18.653,0-37.307,0c-2.25,0-2.617.368-2.618,2.626v36.688H35.126c-2.4,0-2.729.326-2.73,2.67v36.644l-4.742,0c-1.923,0-3.844-.01-5.765.02m76.8-16.546c.533-.3.839-1.121.841-2.263.008-3.848.007-7.7,0-11.578v-5.595h11.414v35.856H75.034V107.842H86.448l0,6.821q0,5.186,0,10.371c0,1.146.3,1.972.82,2.267a2.2,2.2,0,0,0,2.081-.38,6.372,6.372,0,0,1,7.276-.016,2.14,2.14,0,0,0,2.056.394M96.2,107.843V123.4l-1.309-.918a2.916,2.916,0,0,0-3.8.022l-1.319.957V107.843ZM70.119,68.486H76.5V83.918l-1.268-.783c-1.5-.925-2.578-.894-3.737.1l-1.372,1.178Zm-14.743.074H66.793l0,6.823q0,5.195,0,10.389a2.512,2.512,0,0,0,.855,2.233,1.987,1.987,0,0,0,1.934-.356,6.5,6.5,0,0,1,7.567.037,1.881,1.881,0,0,0,1.874.284,2.2,2.2,0,0,0,.84-2c.017-3.522.013-7.042.01-10.562l0-6.881h11.38v35.9H55.376Zm-4.908,39.3h6.423V123.4l-1.308-.917a2.914,2.914,0,0,0-3.8.023l-1.32.958Zm-14.746-.019H47.137l0,6.788q0,5.2,0,10.4c0,1.146.3,1.972.82,2.267a2.2,2.2,0,0,0,2.08-.38,6.37,6.37,0,0,1,7.276-.016,2.14,2.14,0,0,0,2.056.394c.533-.3.84-1.121.842-2.263.008-3.805.006-7.61,0-11.449l0-5.724H71.631v35.856H35.722Z" transform="translate(-0.454 -1.47)" fill="#ffc810"/>
    <path id="Path_5328" data-name="Path 5328" d="M74.416,14.922h-.041a9,9,0,0,0-.157,17.991,9.015,9.015,0,0,0,9.127-8.895,8.987,8.987,0,0,0-2.609-6.43,8.883,8.883,0,0,0-6.319-2.667m-.065,14.731h-.033a5.737,5.737,0,0,1-.025-11.474,5.851,5.851,0,0,1,4.126,1.7,5.689,5.689,0,0,1,1.67,4.109,5.753,5.753,0,0,1-5.737,5.66" transform="translate(-1.473 -0.336)"/>
  </g>
</svg>
