<svg xmlns="http://www.w3.org/2000/svg" width="2013.517" height="388.759" viewBox="0 0 2013.517 388.759">
  <g id="Group_1361" data-name="Group 1361" transform="translate(29.78 -1148.916)">
    <path id="Path_5385" data-name="Path 5385" d="M8443.048,1985.711s72.269-73.984,175.911-36.847,140.489,67.643,218.061,51.557,220.779-83.814,330.707-51.557,471.974,41.8,490.5,36.847,21.171,0,21.171,0V1940.09h45.35v40.782h102.785V1904.8h95.424v76.067h160.96V1940.09h52.457v40.782s19.969-14.018,43.7-7.291,34.67,18.4,74.783,12.13,97.965-26.173,126.749-16.8,70.012,11.96,70.012,11.96" transform="translate(-8470 -469)" fill="none" stroke="#ffd729" stroke-linecap="round" stroke-linejoin="round" stroke-width="4"/>
    <path id="Path_5386" data-name="Path 5386" d="M9726.593,1917.314h-50.86v-40.932l66.789-24.429v-25.29s-.8-9.627-15.929-10-88.39,3.45-88.39,3.45V1782.03l113.117-4.214s35.939-1.339,39.518,45.81-7.284,52.659-21.264,61.358-42.981,16.917-42.981,16.917Z" transform="translate(-8470 -469)" fill="none" stroke="#ffd729" stroke-linecap="round" stroke-linejoin="round" stroke-width="4"/>
    <path id="Path_5388" data-name="Path 5388" d="M9726.593,1917.314h-50.86v-40.932l66.789-24.429v-25.29s-.8-9.627-15.929-10-88.39,3.45-88.39,3.45V1782.03l113.117-4.214s35.939-1.339,39.518,45.81-7.284,52.659-21.264,61.358-42.981,16.917-42.981,16.917Z" transform="translate(-8059.865 -469)" fill="none" stroke="#ffd729" stroke-linecap="round" stroke-linejoin="round" stroke-width="4"/>
    <path id="Path_5387" data-name="Path 5387" d="M9800.651,2034.2h-93.476v-75.228l122.751-44.9v-46.48s-1.472-17.693-29.275-18.375-162.45,6.341-162.45,6.341v-70l207.9-7.744s66.053-2.461,72.63,84.193-13.388,96.781-39.081,112.769-78.994,31.092-78.994,31.092Z" transform="translate(-8350.358 -626.885)" fill="none" stroke="#ffd729" stroke-linecap="round" stroke-linejoin="round" stroke-width="4"/>
  </g>
</svg>
