<svg xmlns="http://www.w3.org/2000/svg" xmlns:xlink="http://www.w3.org/1999/xlink" width="103.049" height="103.024" viewBox="0 0 103.049 103.024">
  <defs>
    <clipPath id="clip-path">
      <rect id="Rectangle_2516" data-name="Rectangle 2516" width="103.049" height="103.024" fill="none"/>
    </clipPath>
  </defs>
  <g id="Group_1301" data-name="Group 1301" transform="translate(-878 -1888.072)">
    <g id="Group_1286" data-name="Group 1286" transform="translate(878 1888.073)">
      <g id="Group_1286-2" data-name="Group 1286" transform="translate(0 0)" clip-path="url(#clip-path)">
        <path id="Path_5547" data-name="Path 5547" d="M16.7,102.388h.038q3.764-.022,7.529-.059l8.261-.068q6.01-.045,12.02-.1c2.342-.025,4.022-1.492,4.088-3.569.062-1.955.054-3.951-.024-5.934a3.731,3.731,0,0,0-3.622-3.623c-.38-.025-.759-.02-1.194-.012-.224,0-.461.007-.718.007h-.363l.007-15.763A13.869,13.869,0,0,0,37.2,61.575,87.99,87.99,0,0,1,25.595,50.807a5.7,5.7,0,0,0-4.3-1.885h-.018a6.266,6.266,0,0,0-4.644,2.046l-1.482,1.666-.047-.882c-.021-.383-.044-.735-.065-1.065-.044-.663-.082-1.242-.082-1.821q0-3.592.008-7.182c.009-4.5.019-9.153-.019-13.728a13.238,13.238,0,0,0-1.99-7.368,6.141,6.141,0,0,0-6.939-2.73,6.649,6.649,0,0,0-4.968,5.866Q.868,30,.692,36.27q-.329,11.6-.684,23.2a13.39,13.39,0,0,0,4.2,10.43c1.76,1.738,3.505,3.495,5.248,5.25,2.922,2.943,5.942,5.983,8.994,8.887,1.66,1.579,1.511,3.264,1.368,4.892l-.029.331H18.549l-.866,0c-.362,0-.718,0-1.077.005-2.722.03-4.214,1.557-4.2,4.3.007,1.566.025,3.132.064,4.7.068,2.665,1.569,4.131,4.226,4.131M15.682,77.622c-3.051-3.062-6.207-6.226-9.352-9.3a11.729,11.729,0,0,1-3.705-9.25c.285-8.228.519-16.6.746-24.689q.146-5.211.3-10.422a3.911,3.911,0,0,1,2.955-3.547A3.426,3.426,0,0,1,10.607,21.8a10.968,10.968,0,0,1,1.727,6.367l.012,1.659c.042,6.04.086,12.285-.051,18.427a14,14,0,0,0,4.125,10.5c1.838,1.905,3.7,3.79,5.557,5.675q1.4,1.413,2.789,2.832a1.3,1.3,0,0,0,1.8.339,1.169,1.169,0,0,0,.51-1.488,2.81,2.81,0,0,0-.688-.91c-.95-.969-1.882-1.908-2.814-2.847-1.548-1.56-3.1-3.121-4.619-4.7a3.982,3.982,0,0,1-1.274-2.9,3.222,3.222,0,0,1,1.179-2.3,3.465,3.465,0,0,1,2.512-.875,4.014,4.014,0,0,1,2.721,1.456A95.464,95.464,0,0,0,34.933,63.161l1.7,1.438a8.525,8.525,0,0,1,3.259,6.414c.121,4.168.132,8.409.142,12.51q.006,2.423.019,4.845a.675.675,0,0,1-.092.313c-.023.045-.052.1-.088.187l-.1.218H22.527v-.362c0-.3-.005-.6-.009-.9-.01-.69-.022-1.4.023-2.109a2.55,2.55,0,0,0-.876-2.121q-3-2.978-5.982-5.976m-.289,14.67a1.629,1.629,0,0,1,1.222-.419q13.84-.1,27.677-.249h.041a1.48,1.48,0,0,1,1.689,1.733c-.038,1.553-.031,3.056.023,4.469a1.68,1.68,0,0,1-.382,1.291,1.848,1.848,0,0,1-1.355.435c-3.35.314-13.424.217-13.424.217H16.944c-1.484,0-1.832-.331-1.86-1.769-.015-.677-.021-1.352-.028-2.028-.008-.821-.018-1.641-.037-2.462a1.608,1.608,0,0,1,.374-1.218" transform="translate(0 0.636)"/>
        <path id="Path_5548" data-name="Path 5548" d="M96.163,70.706a15.15,15.15,0,0,0,4.974-12.418c-.332-8.035-.55-16.21-.762-24.114q-.138-5.189-.286-10.377a6.741,6.741,0,0,0-7.433-6.13,6.446,6.446,0,0,0-5.394,4.816,24.564,24.564,0,0,0-1.068,6.552c-.085,4.554-.062,9.187-.039,13.669q.017,3.2.021,6.4c0,.546-.049,1.072-.1,1.684-.028.3-.058.615-.083.958l-.065.872-.96-1.117c-.17-.2-.292-.34-.418-.482a6.323,6.323,0,0,0-4.7-2.106h-.008a5.609,5.609,0,0,0-4.24,1.85A119.178,119.178,0,0,1,62.987,62.434a11.717,11.717,0,0,0-4.419,9c-.108,3.705-.116,7.476-.125,11.123q0,2.381-.02,4.759v1.7h-1.7A3.862,3.862,0,0,0,52.506,93.2q-.02,2.4-.021,4.805a3.836,3.836,0,0,0,4.138,4.156q13.956.129,27.914.227h.04a3.808,3.808,0,0,0,4.085-3.954c.055-1.712.078-3.431.067-5.109a3.814,3.814,0,0,0-4.023-4.059c-.683-.012-1.367-.008-2.056-.006l-1.271,0-.041-.315c-.262-2-.113-3.533,1.444-5.007,2.284-2.16,4.534-4.436,6.711-6.636,2.161-2.185,4.4-4.446,6.669-6.6M84.368,91.786a1.828,1.828,0,0,1,1.394.458,1.854,1.854,0,0,1,.347,1.388c0,.767-.016,1.533-.027,2.3s-.025,1.529-.028,2.293a1.565,1.565,0,0,1-.4,1.168,1.547,1.547,0,0,1-1.142.383h-.029q-13.893-.131-27.784-.228a1.638,1.638,0,0,1-1.231-.422,1.6,1.6,0,0,1-.374-1.211c.028-.96.028-1.92.028-2.881,0-.534,0-1.069.005-1.6.01-1.441.371-1.795,1.833-1.795H71.015s9.931.146,13.353.15M79.8,83.259a3.3,3.3,0,0,0-1.209,2.915,13.268,13.268,0,0,1,.031,1.755c-.007.259-.013.518-.013.778v.362H61.236l-.059-.29c-.017-.084-.035-.157-.051-.224a1.714,1.714,0,0,1-.07-.439q.012-2.252.019-4.5c.012-3.973.024-8.083.117-12.122A9.27,9.27,0,0,1,64.6,64.495c2.954-2.562,5.887-5.249,8.723-7.847l2.438-2.23a10.333,10.333,0,0,0,.879-.948c.19-.222.379-.444.579-.656a3.6,3.6,0,0,1,5.094-.341,3.314,3.314,0,0,1,1.143,2.333,3.66,3.66,0,0,1-1.1,2.642C80.665,59.228,78.9,61,77.2,62.72q-1.121,1.128-2.24,2.261l-.22.214a3.476,3.476,0,0,0-.513.569A1.289,1.289,0,0,0,76,67.576a1.431,1.431,0,0,0,.251-.21q1.344-1.379,2.7-2.751c2.092-2.127,4.256-4.328,6.332-6.538a13,13,0,0,0,3.549-9.562c-.094-5.654-.106-11.8-.035-19.352a26.434,26.434,0,0,1,.512-4.3l.124-.714a5.764,5.764,0,0,1,.758-1.844,3.517,3.517,0,0,1,4.149-1.928,3.968,3.968,0,0,1,3.138,3.841l.345,11.839q.314,10.8.624,21.6l.015.473a28.794,28.794,0,0,1-.028,3.328,10.413,10.413,0,0,1-3.375,6.586q-3.124,3.1-6.231,6.223-4.5,4.505-9.025,8.984" transform="translate(1.895 0.636)"/>
        <path id="Path_5549" data-name="Path 5549" d="M80.718,33.359c-.026-1.5-.02-3-.015-4.5l.005-1.884c0-1.742-.092-1.987-1.621-2.389-2.418-.638-3.507-2.107-4.479-4.272-1.259-2.806-1.2-4.92.2-7.07.275-.422.534-1.086-.381-1.98-1.088-1.064-2.162-2.143-3.236-3.222L69.833,6.68c-1.274-1.272-1.4-1.35-2.926-.508-1.712.949-3.757,1.694-5.934.015-2.779-.484-4.412-2.131-5.017-5.055C55.8.37,55.271,0,54.34,0h-.055c-1.508.025-3.018.021-4.53.016L47.8.011c-1.808,0-1.956.037-2.384,1.613C44.75,4.06,43.226,5.175,41.14,6.1c-2.843,1.262-4.895,1.2-7.074-.207a1.433,1.433,0,0,0-1.977.389C30.96,7.454,29.8,8.6,28.644,9.741l-.684.674c-1.8,1.774-1.8,1.774-.772,3.864l.242.493c.737,1.511,1.007,2.8-.061,4.2a2.211,2.211,0,0,0-.449.963c-.372,2.58-1.915,4.095-4.855,4.767-.874.2-1.273.775-1.255,1.813.026,1.5.022,3,.016,4.494L20.821,32.9c0,1.769.047,1.946,1.624,2.386,2.587.72,3.951,2.076,4.42,4.4a5.533,5.533,0,0,0,.594,1.4,4.3,4.3,0,0,1,.684,2,5.9,5.9,0,0,1-.964,2.64c-.159.285-.315.57-.452.853A1.556,1.556,0,0,0,27.1,48.61c1.069,1.04,2.119,2.1,3.169,3.154l1.35,1.356c1.451,1.451,1.452,1.446,3.095.547,2.228-1.223,4.057-1.217,5.932.02a5.725,5.725,0,0,0,1.452.59,4.478,4.478,0,0,1,1.955.963,5.957,5.957,0,0,1,1.2,2.554c.1.341.2.682.317,1a1.489,1.489,0,0,0,1.565,1.091h4.48q1.368,0,2.736,0h.009a1.54,1.54,0,0,0,1.619-1.153l.1-.266a28.331,28.331,0,0,1,1.062-2.679A2.428,2.428,0,0,1,58.29,54.7c.507-.228,1.032-.42,1.557-.611a14.692,14.692,0,0,0,2.257-.969,3.083,3.083,0,0,1,3.332-.052,20.163,20.163,0,0,0,2.008.909c.277.113.559.229.846.352.1-.062.2-.121.3-.18a4.535,4.535,0,0,0,.841-.58c.781-.748,1.544-1.515,2.305-2.281.54-.542,1.079-1.084,1.625-1.619l.076-.075c1.935-1.9,1.935-1.9.943-3.913l-.235-.481c-.626-1.281-1.188-2.783.063-4.389a1.81,1.81,0,0,0,.357-.781c.433-2.656,2.038-4.244,4.906-4.857.868-.185,1.264-.762,1.245-1.814m-2.662-1.411a1.69,1.69,0,0,1-.841,1.258,11.148,11.148,0,0,1-1.248.5,8.323,8.323,0,0,0-1.422.6,3.263,3.263,0,0,0-1.24,1.362c-.471,1.028-.908,2.1-1.329,3.132-.4.985-.816,2-1.265,2.993a1.934,1.934,0,0,0-.093,1.861,3.657,3.657,0,0,1,.168.373,9.54,9.54,0,0,0,.44.893,3.571,3.571,0,0,1,.655,2.2,3.718,3.718,0,0,1-1.462,1.854c-.239.2-.477.4-.682.608-1.7,1.713-1.853,1.739-4.1.739-.151-.066-.292-.139-.431-.212a2.778,2.778,0,0,0-.821-.327,3.429,3.429,0,0,0-1.6.061c-2.225.851-4.382,1.747-6.41,2.666a2.842,2.842,0,0,0-1.214,1.117A13.717,13.717,0,0,0,54.21,56l-.091.275a1.267,1.267,0,0,1-1.32,1.006l-.079,0c-1.19-.04-2.444-.041-3.951,0a1.2,1.2,0,0,1-1.334-.939c-.167-.5-.363-1-.559-1.492-.149-.377-.3-.752-.435-1.132a2.035,2.035,0,0,0-1.382-1.273C44.026,52.053,43,51.617,42,51.2c-1.013-.428-2.063-.87-3.107-1.26a3.661,3.661,0,0,0-1.28-.123c-.2,0-.411.005-.608,0-.369.163-.678.331-.987.5a3.937,3.937,0,0,1-2.458.734,4.082,4.082,0,0,1-2.022-1.619c-.24-.287-.479-.574-.728-.817-.074-.073-.153-.143-.233-.212a2.621,2.621,0,0,1-.623-.7,1.835,1.835,0,0,1-.211-1.348,25.185,25.185,0,0,1,1.008-2.336l.174-.372a1.953,1.953,0,0,0-.077-1.784c-.451-1-.865-2.021-1.282-3.039-.429-1.052-.872-2.139-1.347-3.185a2.889,2.889,0,0,0-1.154-1.291,18.145,18.145,0,0,0-2.344-.965c-.346-.124-.694-.251-1.043-.385l-.232-.089,0-1.486c-.005-1.185-.01-2.411.031-3.611a1.48,1.48,0,0,1,.793-1.111c.395-.183.807-.334,1.219-.482a10.173,10.173,0,0,0,1.547-.656,3,3,0,0,0,1.183-1.281c.477-1.053.92-2.147,1.35-3.2.411-1.013.823-2.026,1.269-3.022a1.94,1.94,0,0,0,.1-1.78l-.121-.254c-.374-.793-.763-1.612-1.063-2.456a1.6,1.6,0,0,1,.234-1.417c.944-1.039,1.945-2.042,2.979-2.979a1.6,1.6,0,0,1,1.425-.233c.431.154.845.35,1.247.54a10.165,10.165,0,0,0,1.515.621A2.833,2.833,0,0,0,38.785,10c2.109-.8,4.236-1.674,6.319-2.611a3.424,3.424,0,0,0,.947-.782c.127-.133.254-.263.384-.385-.018.016,0-.035.005-.067a1.482,1.482,0,0,1,.061-.192,9.976,9.976,0,0,0,.329-.972A3.792,3.792,0,0,1,48,2.849a3.89,3.89,0,0,1,2.466-.276c.342.032.683.046,1,.061,2.188-.042,2.3.092,3.087,2.109.029.075.06.145.09.213a2.749,2.749,0,0,1,.192.524c.253,1.13.918,1.746,2.37,2.2a36.492,36.492,0,0,1,4.882,2.055l.521.25a1.95,1.95,0,0,0,1.863.112,25.7,25.7,0,0,1,2.717-1.177,1.6,1.6,0,0,1,1.412.271c.545.494,1.063,1.018,1.581,1.542.438.443.878.887,1.334,1.313a1.206,1.206,0,0,1,.272,1.6l-.233.47a12.156,12.156,0,0,0-.909,2.139,3.016,3.016,0,0,0,.079,1.736c.776,2.082,1.653,4.209,2.6,6.321a2.826,2.826,0,0,0,1.113,1.212A14.147,14.147,0,0,0,77,26.54a1.375,1.375,0,0,1,1.1,1.534c-.02.569-.016,1.138-.012,1.707.005.709.01,1.442-.031,2.166" transform="translate(0.751 0)" fill="#ffc810"/>
        <path id="Path_5550" data-name="Path 5550" d="M39.732,93.81a1.348,1.348,0,0,0,.942.457,1.329,1.329,0,0,0,1.36-1.246,1.272,1.272,0,0,0-1.179-1.4c-.042,0-.086-.005-.128-.005a1.364,1.364,0,0,0-.9.321,1.293,1.293,0,0,0-.446.9,1.337,1.337,0,0,0,.346.971" transform="translate(1.422 3.307)"/>
        <path id="Path_5551" data-name="Path 5551" d="M58.734,94.264a1.337,1.337,0,0,0,.963-.351,1.36,1.36,0,0,0,.454-.948A1.31,1.31,0,0,0,58.9,91.614c-.028,0-.057,0-.086,0a1.323,1.323,0,0,0-.908.341,1.3,1.3,0,0,0-.406.937,1.33,1.33,0,0,0,1.238,1.376" transform="translate(2.075 3.307)"/>
        <path id="Path_5552" data-name="Path 5552" d="M50.348,11.492h-.011a18.047,18.047,0,0,0,.015,36.095h.011a18.047,18.047,0,0,0-.015-36.095m-.006,33.473h-.048a15.425,15.425,0,0,1,.069-30.851h.04a15.425,15.425,0,0,1-.062,30.851" transform="translate(1.166 0.415)" fill="#ffc810"/>
        <path id="Path_5553" data-name="Path 5553" d="M45.057,36.955a9.884,9.884,0,0,0,2.2,1.431c.382.205.773.414,1.16.647l.155.093.019.179c.173,1.558.577,1.857,1.311,1.882.751.02,1.214-.286,1.446-2.07l.028-.212.2-.079c.283-.112.561-.21.832-.308a11.815,11.815,0,0,0,1.54-.635,4.93,4.93,0,0,0,2.7-4.105A4.851,4.851,0,0,0,54.383,29.5a11.783,11.783,0,0,0-2.753-1.181l-.312-.1c-.5-.168-1.031-.29-1.545-.408s-1.055-.242-1.574-.414a2.242,2.242,0,0,1-1.743-2.134,2.54,2.54,0,0,1,1.646-2.44,4.077,4.077,0,0,1,5.5,1.749c.5.89,1.207,1.172,1.918.783.671-.368.821-1.107.4-1.977a5.792,5.792,0,0,0-3.4-3.105,1.568,1.568,0,0,1-1.3-1.691,1.116,1.116,0,0,0-.361-.826,1.2,1.2,0,0,0-.912-.339c-.621.041-1.275.354-1.247,1.109.045,1.228-.693,1.515-1.408,1.792a5.175,5.175,0,0,0-3.461,4.79,4.788,4.788,0,0,0,3.407,4.733,10.82,10.82,0,0,0,1.376.41c.3.076.6.151.9.241.278.086.564.162.848.238a9.423,9.423,0,0,1,2.357.864,2.806,2.806,0,0,1,1.207,2.171,2.708,2.708,0,0,1-1.437,1.894,4.846,4.846,0,0,1-3.821.4,4.994,4.994,0,0,1-2.872-2.72,1.316,1.316,0,0,0-1.187-.82,1.426,1.426,0,0,0-1.246.769.989.989,0,0,0-.005.806,8.618,8.618,0,0,0,1.7,2.86" transform="translate(1.562 0.629)" fill="#ffc810"/>
      </g>
    </g>
  </g>
</svg>
