<svg id="Group_1288" data-name="Group 1288" xmlns="http://www.w3.org/2000/svg" xmlns:xlink="http://www.w3.org/1999/xlink" width="115.243" height="115.181" viewBox="0 0 115.243 115.181">
  <defs>
    <clipPath id="clip-path">
      <rect id="Rectangle_2517" data-name="Rectangle 2517" width="115.243" height="115.181" fill="none"/>
    </clipPath>
  </defs>
  <g id="Group_1287" data-name="Group 1287" clip-path="url(#clip-path)">
    <path id="Path_5554" data-name="Path 5554" d="M54.974,0h-.766a2.039,2.039,0,0,0-1.18,2.167c.02,1.194.016,2.387.012,3.58,0,1.013-.007,2.025,0,3.037.014,1.21.575,1.93,1.5,1.93h0c1.309,0,1.459-1.35,1.463-1.931,0-.773,0-1.547-.006-2.32-.011-1.376-.021-2.8.032-4.2A2.217,2.217,0,0,0,54.974,0" transform="translate(3.139)"/>
    <path id="Path_5555" data-name="Path 5555" d="M41.2,14.626a.987.987,0,0,0,1.073.1,1.752,1.752,0,0,0,.973-1.429c-.013-.051-.025-.1-.038-.163a1.564,1.564,0,0,0-.114-.377l-.185-.192C41.434,11.026,39.913,9.437,38.322,8a.813.813,0,0,0-.559-.2,1.611,1.611,0,0,0-1.054.452c-.441.425-.672,1.191-.321,1.582a45.353,45.353,0,0,0,4.809,4.79" transform="translate(2.144 0.462)"/>
    <path id="Path_5556" data-name="Path 5556" d="M54.54,14.441a1.581,1.581,0,0,0-1.473,1.444,1.44,1.44,0,0,0,.416,1,1.5,1.5,0,0,0,1.028.491,1.306,1.306,0,0,0,1.007-.407,1.473,1.473,0,0,0,.47-1.024,1.507,1.507,0,0,0-1.417-1.507H54.54" transform="translate(3.141 0.855)"/>
    <path id="Path_5557" data-name="Path 5557" d="M32.234,87.837h0a1.453,1.453,0,1,0,.069-2.9h-.04a1.42,1.42,0,0,0-.974.4,1.472,1.472,0,0,0-.465,1.024,1.444,1.444,0,0,0,1.411,1.481" transform="translate(1.825 5.028)"/>
    <path id="Path_5558" data-name="Path 5558" d="M55.87,31.488H55.7A23.884,23.884,0,0,0,38.826,38.6,23.506,23.506,0,0,0,31.91,55.437,23.894,23.894,0,0,0,55.71,79.15H55.8a23.774,23.774,0,0,0,16.922-7.11,23.5,23.5,0,0,0,6.869-16.8A23.851,23.851,0,0,0,55.87,31.488M68.583,71.673a19.228,19.228,0,0,1-12.8,4.493,19.571,19.571,0,0,1-12.862-4.475l-.422-.373.211-.521c1.814-4.483,7.388-7.9,12.965-7.95h.117c5.5,0,11.07,3.39,12.988,7.926l.22.522ZM50.138,52.78a5.709,5.709,0,0,1,2.927-5.19,5.491,5.491,0,0,1,5.351-.018,5.575,5.575,0,0,1,2.906,4.593c.017.278.014.556.008.836l0,.346c.015,3.866-1.926,6.262-5.192,6.41q-.122.006-.248.006a6.369,6.369,0,0,1-2.869-.695c-2.654-1.406-2.946-3.967-2.88-6.288M72.105,68.146l-.674.816-.6-.874a18.79,18.79,0,0,0-8.384-6.93l-1-.426.709-.823c1.925-2.235,2.542-4.945,2-8.791a8.461,8.461,0,0,0-8.407-7.178h-.021a8.483,8.483,0,0,0-8.4,7.211c-.527,3.8.093,6.5,2.012,8.764l.7.821-.989.423a18.636,18.636,0,0,0-8.337,6.875l-.569.841-.679-.754c-5.655-6.28-6.894-18.356.966-26.916a20.834,20.834,0,0,1,29.058-1.547c8.316,7.4,9.49,20.176,2.617,28.49" transform="translate(1.889 1.864)" fill="#ffc810"/>
    <path id="Path_5559" data-name="Path 5559" d="M68.117,14.626a.987.987,0,0,1-1.073.1,1.752,1.752,0,0,1-.973-1.429c.013-.051.025-.1.038-.163a1.564,1.564,0,0,1,.114-.377l.185-.192C67.88,11.026,69.4,9.437,70.992,8a.813.813,0,0,1,.559-.2,1.611,1.611,0,0,1,1.054.452c.441.425.672,1.191.321,1.582a45.352,45.352,0,0,1-4.809,4.79" transform="translate(3.911 0.462)"/>
    <path id="Path_5560" data-name="Path 5560" d="M26.085,45.273l-1.757-1.33a8.4,8.4,0,0,0-8.77-1.276,8.2,8.2,0,0,0-5.352,6.805c-.486,3.341-.068,5.9,1.319,8.049l.567.878-1.474.458c-.263.081-.491.149-.719.225A13.632,13.632,0,0,0,.585,68.629a21.335,21.335,0,0,0-.533,7.038c.016.477.032.953.041,1.429.023,1.107,1.037,1.286,1.64,1.294,3.8.051,7.633.051,11.383,0a1.894,1.894,0,0,0,1.374-.521,1.35,1.35,0,0,0,.36-1.012c-.054-1.2-1.149-1.4-1.8-1.411-1.29-.024-2.581-.018-3.872-.015l-6.166,0L3.008,73.8C3,73.223,3,72.7,3.02,72.179a10.788,10.788,0,0,1,9.774-10.619A41.215,41.215,0,0,1,17.7,61.4c.632.005,1.264.011,1.892,0,.663-.007,1.326-.011,1.97-.011.53,0,1.046,0,1.539,0l2.746.062A25.238,25.238,0,0,1,24.589,54.7a45.219,45.219,0,0,1,1.5-9.426M20.66,58.131a5.867,5.867,0,0,1-4.878-.577,5.617,5.617,0,0,1-2.628-3.9,12.53,12.53,0,0,1,.016-4,5.715,5.715,0,0,1,6.142-4.677,5.821,5.821,0,0,1,5.349,5.566c.014.275.011.552.007.828l0,.348c.014,4.22-2.17,5.813-4.006,6.407" transform="translate(0 2.484)"/>
    <path id="Path_5561" data-name="Path 5561" d="M30.189,71.145l-1.434,1.511S12.511,88.881,4.4,97a17.887,17.887,0,0,0-1.456,1.624A7.737,7.737,0,0,0,5.219,109.89c3.332,1.864,6.894,1.3,9.774-1.563q4.852-4.819,9.677-9.664l3.792-3.8a5.552,5.552,0,0,0,.473-.512,1.463,1.463,0,1,0-2.1-2.038,7.53,7.53,0,0,0-.613.579L13.061,106.042a10.669,10.669,0,0,1-1.068.976,4.732,4.732,0,0,1-7.484-2.669,5.013,5.013,0,0,1,1.666-4.936q8.683-8.662,17.352-17.34l7.007-7.006c.174-.174.354-.339.535-.5l.968-.869Z" transform="translate(0.084 4.212)"/>
    <path id="Path_5562" data-name="Path 5562" d="M87.915,46.445l-.038.036-.448-1.549c-4.548-12.99-17-21.993-30.353-21.993h-.329c-14.8.165-25.425,7.495-31.612,21.762a33.159,33.159,0,0,0-.719,19.957L27.668,72.4a33.161,33.161,0,0,0,3.072,4.439l.381.406c9.449,10.035,20.551,13.569,33,10.506A33.668,33.668,0,0,0,75.4,82.765a33.2,33.2,0,0,0,6.012-5.528A37.528,37.528,0,0,0,88.259,63.97a33.207,33.207,0,0,0-.344-17.525M56.34,85.807h-.162A30.052,30.052,0,0,1,26.272,55.829,30.084,30.084,0,0,1,56.247,25.845h.066a29.981,29.981,0,0,1,.028,59.961" transform="translate(1.374 1.358)"/>
    <path id="Path_5563" data-name="Path 5563" d="M110.258,70.623a5.487,5.487,0,0,1-.166-.608,13.332,13.332,0,0,0-5.6-8.863,27.289,27.289,0,0,0-3.512-1.891c-.582-.279-1.168-.559-1.752-.86l-.8-.411.506-.742c1.38-2.025,1.436-4.573,1.308-6.8a9.021,9.021,0,0,0-3.351-6.61A8.514,8.514,0,0,0,90.009,42.2a9.708,9.708,0,0,0-3.6,1.289c-.5.337-1.876,1.643-2.068,1.826a33.114,33.114,0,0,1,1.356,9.38,56.112,56.112,0,0,1-.585,6.714l3.485,0c2.678,0,5.34-.008,8,.02a9.816,9.816,0,0,1,2.565.394c5.7,1.643,8.924,6.842,8.023,12.939l-.1.678H99.55q-7.04,0-14.081.011c-.682,0-1.831.192-1.857,1.438-.022,1.037.926,1.467,1.821,1.524.115.006.234.005.351,0l6.332,0q7.926,0,15.851.013h.026c1.237,0,1.9-.323,2.3-1.138ZM97.162,53.7a5.751,5.751,0,0,1-5.731,4.718q-.257,0-.518-.022a5.828,5.828,0,0,1-5.247-5.531c-.014-.276-.011-.554-.006-.829l0-.35c-.017-4.294,2.222-5.881,4.1-6.456a5.854,5.854,0,0,1,4.808.616A5.625,5.625,0,0,1,97.166,49.7a12.473,12.473,0,0,1,0,4" transform="translate(4.949 2.489)"/>
  </g>
</svg>
