<svg xmlns="http://www.w3.org/2000/svg" xmlns:xlink="http://www.w3.org/1999/xlink" width="97.451" height="106.387" viewBox="0 0 97.451 106.387">
  <defs>
    <clipPath id="clip-path">
      <rect id="Rectangle_2515" data-name="Rectangle 2515" width="97.451" height="106.387" fill="none"/>
    </clipPath>
  </defs>
  <g id="Group_1300" data-name="Group 1300" transform="translate(-372 -1893.113)">
    <g id="Group_1285" data-name="Group 1285" transform="translate(372 1893.113)">
      <g id="Group_1284" data-name="Group 1284" transform="translate(0 0)" clip-path="url(#clip-path)">
        <path id="Path_5540" data-name="Path 5540" d="M54.038,67.658a4.721,4.721,0,0,0,.21-.832,1.289,1.289,0,0,0-2.465-.715,5.6,5.6,0,0,0-.206.595l-.052.168a16.441,16.441,0,0,1-31.854-8A16.751,16.751,0,0,1,27.234,48.1a15.84,15.84,0,0,1,12.475-1.89C46.2,47.928,50.3,52.179,51.875,58.846c.4,1.673,1.053,1.788,1.7,1.656.623-.123,1.215-.482.88-2.21a19.071,19.071,0,0,0-18.609-15.23,18.438,18.438,0,0,0-2.806.214,19.047,19.047,0,0,0,2.758,37.9h.012A18.969,18.969,0,0,0,54,67.789Z" transform="translate(0.568 1.461)"/>
        <path id="Path_5541" data-name="Path 5541" d="M90.009,78.693A17.219,17.219,0,0,0,73.251,64.6q-.775,0-1.559.073A17.174,17.174,0,1,0,85.367,93.813a16.1,16.1,0,0,0,4.04-6.7,1.969,1.969,0,0,0-.395-1.585,1.68,1.68,0,0,0-1.395-.07c-.144.06-.431.289-.753,1.162a14.567,14.567,0,0,1-28-7.825,14.823,14.823,0,0,1,6.95-9.595,14.052,14.052,0,0,1,11.293-1.364c5.564,1.689,9.045,5.526,10.35,11.4a1.626,1.626,0,0,0,.649,1.07,1.241,1.241,0,0,0,.976.123,1.343,1.343,0,0,0,.922-1.738" transform="translate(1.899 2.192)" fill="#ffc810"/>
        <path id="Path_5542" data-name="Path 5542" d="M81.03,77.126a1.236,1.236,0,0,0-.41-1.012,1.288,1.288,0,0,0-1.774-.073c-1,.652-2.009,1.3-3.077,1.989l-1.859,1.2,0-2.933c0-1.957.006-3.83-.011-5.7A1.279,1.279,0,0,0,72.639,69.2h-.046a1.286,1.286,0,0,0-.906.342,1.307,1.307,0,0,0-.376.959c-.025,3.567-.04,7.387.007,11.155a1.28,1.28,0,0,0,.64,1.154,1.339,1.339,0,0,0,1.358-.092c2.187-1.364,4.5-2.864,7.077-4.587a1.348,1.348,0,0,0,.636-1" transform="translate(2.419 2.348)" fill="#ffc810"/>
        <path id="Path_5543" data-name="Path 5543" d="M76.288,59.93q.033-8.072.019-16.146V39.058c0-3.706-.143-3.849-3.8-3.849H70.239l9.594-13.033L89.25,35.214h-.506c-.427,0-.822,0-1.193-.005-.773-.008-1.449-.01-2.122.012a1.891,1.891,0,0,0-2.047,2.035c-.027,3.074-.028,6.422,0,10.537a1.3,1.3,0,0,0,1.308,1.45H84.7c.793,0,1.273-.551,1.283-1.465.014-1.255.011-2.511.008-3.766l0-6.189,1.492,0c.894,0,1.753,0,2.609.005,1.158,0,1.825-.316,2.2-1.1a2.112,2.112,0,0,0-.405-2.352q-2.782-3.826-5.55-7.66-2.333-3.226-4.67-6.45a2.007,2.007,0,0,0-3.658-.014q-2.092,2.833-4.177,5.671-3.077,4.18-6.161,8.353a2.19,2.19,0,0,0-.493,2.435,2.131,2.131,0,0,0,2.3,1.122c.894-.014,1.787-.01,2.7-.008l1.458,0v22.9a22.723,22.723,0,0,1,2.963.308,1.566,1.566,0,0,1-.3-1.1" transform="translate(2.273 0.647)"/>
        <path id="Path_5544" data-name="Path 5544" d="M85.437,63.022c.026-2.557.028-5.259.005-8.764a1.313,1.313,0,0,0-2.181-1.084,1.452,1.452,0,0,0-.413,1.062c-.022,1.465-.02,2.931-.018,4.4,0,.759,0,1.52,0,2.279,0,.235-.017.468-.031.679l-.033.568A22.7,22.7,0,0,1,85.6,63.929a2.316,2.316,0,0,1-.159-.907" transform="translate(2.809 1.793)"/>
        <path id="Path_5545" data-name="Path 5545" d="M51.226,85.143a3.013,3.013,0,0,0-3.734-.585c-1.274.566-2.661,1.138-4.243,1.753A2.911,2.911,0,0,0,41.11,89.3c-.021,2-.036,4.376.007,6.775a1.32,1.32,0,0,1-.281.974,1.168,1.168,0,0,1-.881.283h-.025c-1.91-.016-3.817-.014-5.784-.011l-2.5,0,0-4.49c0-1.158.005-2.315-.007-3.473a3,3,0,0,0-2.114-3.024c-1.474-.581-2.964-1.2-4.43-1.834a2.91,2.91,0,0,0-3.541.6c-1.249,1.233-2.486,2.479-3.785,3.79L15.8,90.871l-6.719-6.7,5.242-5.22c1.717-1.716,1.857-2.569.786-4.806a33.787,33.787,0,0,1-1.351-3.3c-.68-1.916-1.544-2.532-3.554-2.537-1.607,0-3.211,0-4.911,0H2.568l0-.256c-.006-.7-.022-1.394-.037-2.084-.033-1.543-.067-3.136,0-4.693.1-2.317.349-2.395,2.6-2.4l1.629,0c1.235,0,2.47.008,3.706-.01a3.035,3.035,0,0,0,3.259-2.366c.44-1.194.98-2.489,1.645-3.955a3.023,3.023,0,0,0-.635-3.893c-1.2-1.211-2.4-2.408-3.681-3.676L9.1,43.045l6.687-6.7,1.889,1.894c1.2,1.2,2.336,2.343,3.477,3.482,1.523,1.522,2.485,1.678,4.475.736,1.183-.559,2.359-1.012,3.777-1.547a3.013,3.013,0,0,0,2.238-3.135c.009-1.714.006-3.429.005-5.137l0-2.43.176-.06c1.68-.565,6.773-.6,9.083-.069l.2.045V35c0,1.033,0,2.067.013,3.1a2.808,2.808,0,0,0,1.93,2.723c.823.345,1.649.683,2.474,1.02.748.305,1.5.61,2.241.921a2.906,2.906,0,0,0,3.446-.685c.978-.966,1.949-1.94,2.922-2.912l1.732-1.733c.16-.158.325-.311.539-.508l.577-.536,6.664,6.65L62,44.668c-.975.971-1.9,1.891-2.825,2.814C56.4,50.251,56.4,50.251,58,53.863c.375.85.69,1.738.994,2.6.627,1.772,1.475,2.391,3.263,2.413,1.467.021,2.935.016,4.4.01l3.318,0,.265,2.975a22.635,22.635,0,0,1,2.627-.406l-.066-.688c-.034-.38-.066-.744-.117-1.108-.361-2.623-1.224-3.382-3.849-3.385l-1.488-.005c-1.463-.007-2.973-.013-4.457.019a1.4,1.4,0,0,1-1.6-1.1,25.154,25.154,0,0,0-1.378-3.327,1.289,1.289,0,0,1,.28-1.733c1.477-1.421,3.047-2.984,4.8-4.783a2.945,2.945,0,0,0,.255-4.1c-.126-.166-.265-.326-.4-.484a5.25,5.25,0,0,1-.649-.847,3.51,3.51,0,0,1-.559-1.614c-.028-4.851-.026-9.783-.024-14.552V18.723h.258c.431,0,.848,0,1.25-.005.892-.006,1.736-.011,2.574.013,1.172.039,1.826-.282,2.213-1.063a2.16,2.16,0,0,0-.448-2.437q-3.1-4.262-6.184-8.534-1.925-2.661-3.851-5.324C58.765.465,58.109,0,57.474,0h-.005c-.646,0-1.321.474-2.01,1.407L52.541,5.373q-3.609,4.91-7.231,9.81a2.208,2.208,0,0,0-.481,2.516c.391.766,1.041,1.074,2.234,1.033.907-.024,1.8-.019,2.742-.013.41,0,.827.005,1.249.005h.258V20.29q0,2.191-.009,4.382c-.011,3.762-.023,7.653.045,11.476a4.162,4.162,0,0,1-1.6,3.72,1.25,1.25,0,0,1-1.54.23l-.071-.035A18.659,18.659,0,0,0,45,38.746a1.58,1.58,0,0,1-1.3-1.872c.062-2.008.043-4.019.013-6.25-.027-2.018-1.075-3.172-2.951-3.248-3.006-.125-5.939-.128-8.72-.005-2.018.087-3,1.193-3.009,3.382-.005,1.72,0,3.441,0,5.135v2.252l-1.365.6c-1.19.522-2.314,1.015-3.473,1.468a1.387,1.387,0,0,1-1.217-.385c-.938-.908-1.86-1.833-2.782-2.756q-.938-.944-1.884-1.881c-1.555-1.534-3.039-1.619-4.537-.256-2.112,1.924-4.162,3.973-6.093,6.092C6.313,42.515,6.4,44,7.932,45.55l.14.14c1.47,1.485,2.989,3.02,4.513,4.5a1.143,1.143,0,0,1,.283,1.542A32.3,32.3,0,0,0,11.4,55.25a1.29,1.29,0,0,1-1.43,1.031c-1.976-.034-4.062-.036-6.57-.007-2.083.023-3.19,1-3.286,2.912a84.99,84.99,0,0,0,.013,8.921c.126,2.313,1.838,2.807,3.252,2.815q1.21,0,2.418,0c1.4,0,2.843,0,4.266.024a1.45,1.45,0,0,1,1.166.672c.492,1.108.928,2.229,1.39,3.414.16.409.322.824.488,1.246l.062.159-1.615,1.6c-1.207,1.2-2.441,2.421-3.665,3.658-1.481,1.5-1.558,2.993-.232,4.454,1.944,2.139,4.018,4.212,6.165,6.161,1.452,1.317,2.948,1.229,4.452-.257,1.44-1.423,3.11-3.079,4.716-4.726a1.1,1.1,0,0,1,1.452-.256,31.148,31.148,0,0,0,3.62,1.5,1.254,1.254,0,0,1,.98,1.448c-.023,1.767-.018,3.534-.012,5.3l0,1.062c.005,2.3,1.038,3.416,3.251,3.5,2.683.1,5.41.1,8.1,0,2.262-.084,3.321-1.212,3.331-3.549v-.281c.01-2.029.021-4.124-.01-6.184a1.172,1.172,0,0,1,.922-1.278,34.068,34.068,0,0,0,3.62-1.517,1.139,1.139,0,0,1,1.538.3c.4.418.812.82,1.224,1.224.6.585,1.219,1.191,1.785,1.833a12.286,12.286,0,0,1,.876,1.11,22.5,22.5,0,0,1-1.179-5.229Zm0-69.034H47.888L56.859,3.918c.07-.094.148-.18.251-.294l.394-.441,9.35,12.927-1.552,0c-.69,0-1.311,0-1.934,0-1.635.019-2.365.75-2.367,2.37q-.009,5.838,0,11.673V36.29l-.4-.252c-.34-.215-.666-.439-.987-.661a11.376,11.376,0,0,0-2.081-1.233c-.959-.392-1.969-.064-3.172,1.025l-.432.391V29.964q0-5.591,0-11.184c0-2.043-.633-2.667-2.7-2.671" transform="translate(0 0)"/>
        <path id="Path_5546" data-name="Path 5546" d="M68.237,103.776c.661.164,1.345.3,2.008.423.3.057.6.114.893.174H75.5c.214-.047.479-.094.742-.143.572-.1,1.161-.21,1.729-.351,9.147-2.29,14.871-7.863,17.009-16.565,2.177-8.863-.394-16.512-7.645-22.733a2.236,2.236,0,0,1-.652-.874,22.621,22.621,0,0,0-2.828-1.769v.012l-.318-.1c-.556-.177-1.1-.36-1.646-.54-1.32-.438-2.566-.853-3.855-1.177a1.668,1.668,0,0,1-.891-.473,22.723,22.723,0,0,0-2.963-.309v.2H71.155l-.011-.115a22.669,22.669,0,0,0-2.627.406l.007.077-.2.064C56.628,63.73,50.9,71.509,50.819,83.765l0,.59-.047-.043a22.548,22.548,0,0,0,1.179,5.228,8.836,8.836,0,0,1,.775,1.319,22.427,22.427,0,0,0,15.515,12.917m-8.892-35.8A19.683,19.683,0,0,1,73.314,62.2h.032a19.777,19.777,0,0,1-.057,39.554h-.048a19.812,19.812,0,0,1-19.72-19.83,19.594,19.594,0,0,1,5.824-13.954" transform="translate(1.723 2.014)" fill="#ffc810"/>
      </g>
    </g>
  </g>
</svg>
