<?xml version="1.0" encoding="utf-8"?>
<!-- Generator: Adobe Illustrator 25.2.0, SVG Export Plug-In . SVG Version: 6.00 Build 0)  -->
<svg version="1.1" id="Layer_1" xmlns="http://www.w3.org/2000/svg" xmlns:xlink="http://www.w3.org/1999/xlink" x="0px" y="0px"
	 viewBox="0 0 89.6 90.4" style="enable-background:new 0 0 89.6 90.4;" xml:space="preserve">
<style type="text/css">
	.st0{fill:#EAEAEA;}
</style>
<g>
	<path class="st0" d="M4,67.8c0-6-0.2-12,0-18c0.2-6.3,0.3-12.6,1.8-18.7c1.1-4.2,3.4-7.8,6-11.2c3.1-3.9,6.6-7.3,10.8-10
		c4.2-2.7,8.8-4.3,13.8-5.1c0.9-0.1,1.9-0.2,2.8-0.4c0.7-0.1,0.8,0.2,0.8,0.8c0,2.5,0,5,0,7.6c0,0.5-0.1,0.9-0.8,1
		c-5.5,0.6-8.6,4.2-10.6,8.8c-1.8,4.1-2.4,8.5-2.7,12.9c-0.4,4.9-0.1,9.8-0.2,14.7c0,1.1,0.4,1.2,1.3,1.2c3.9,0,7.9,0,11.8,0
		c0.9,0,1.3,0.2,1.2,1.2c0,11.3,0,22.6,0,33.9c0,0.9-0.3,1.1-1.2,1.1c-11.3,0-22.6,0-33.9,0c-0.9,0-1.2-0.3-1.1-1.2
		C4,80.2,4,74,4,67.8z"/>
	<path class="st0" d="M47.8,67.8c0-5.6-0.1-11.3,0-16.9c0.1-4.7,0.3-9.4,0.9-14.2c0.4-3,0.9-5.9,2-8.7c1.1-3,3-5.6,5-8.1
		c3-3.9,6.5-7.3,10.7-9.9c4.3-2.7,8.9-4.5,14-5.2c3.6-0.5,3.6-0.5,3.6,3.2c0,1.6,0,3.1,0,4.7c0,0.6-0.1,1-0.8,1
		c-5.4,0.7-8.6,4.2-10.6,8.9c-1.8,4.1-2.4,8.5-2.7,12.9c-0.4,4.9,0,9.8-0.2,14.7c0,1,0.4,1.2,1.2,1.2c3.9,0,7.9,0,11.8,0
		c0.9,0,1.3,0.2,1.3,1.2c0,11.3,0,22.5,0,33.8c0,1-0.3,1.2-1.2,1.2c-11.2,0-22.5,0-33.7,0c-1.1,0-1.2-0.4-1.2-1.3
		C47.8,80.1,47.8,74,47.8,67.8z"/>
</g>
</svg>
