<svg xmlns="http://www.w3.org/2000/svg" xmlns:xlink="http://www.w3.org/1999/xlink" width="1018.353" height="373.048" viewBox="0 0 1018.353 373.048">
  <defs>
    <clipPath id="clip-path">
      <rect id="Rectangle_2391" data-name="Rectangle 2391" width="860.816" height="373.048" transform="translate(0 0)" fill="#024778"/>
    </clipPath>
  </defs>
  <g id="Group_1299" data-name="Group 1299" transform="translate(-938 -1369.524)">
    <g id="Group_1162" data-name="Group 1162" transform="translate(960 1424.52)">
      <g id="Group_1161" data-name="Group 1161" transform="translate(-22 -54.996)" clip-path="url(#clip-path)">
        <path id="Path_5203" data-name="Path 5203" d="M0,0A40.83,40.83,0,0,1,9.651,2.975,425.477,425.477,0,0,1,48.687,20.77C59.588,26.4,70.4,32.227,81.513,37.423c3.438,1.6,7.279,2.833,9.832,5.792,2.219,2.55,2.517,6.186,1.888,9.383-.882,4.47-2.929,8.595-4.985,12.626-2.718,5.169-5.59,10.253-8.321,15.419q-10.255,19.128-19.76,38.651c-3.233,6.665-6.56,13.288-9.474,20.1a156.09,156.09,0,0,0-6.171,17.232,13.121,13.121,0,0,1-.846,2.52c-.12.187-.37.732-.078.825,1.159-1.891,2.779-3.459,4.043-5.283a222.723,222.723,0,0,0,20.552-34.153c6.2-12.409,11.656-25.2,18.366-37.35,4.63-8.279,9.9-16.386,17.042-22.732,2.767-2.6,5.6-5.482,9.386-6.49,4.359-1.138,8.938-.09,13.047,1.49,6.575,2.595,12.484,6.533,18.565,10.073,20.983,12.328,43.022,22.822,63.48,36.05,6.036,3.844,12.03,7.77,18.273,11.277,2.062,1.168,4.317,2.3,5.654,4.35,1.659,2.547,1.6,5.786,1.066,8.67-1,5.226-3.206,10.118-5.461,14.9-7.878,16.091-17.578,31.2-25.769,47.119-2.42,4.892-4.946,9.73-7.333,14.634a63.443,63.443,0,0,0-3.2,7.755,148.84,148.84,0,0,0,10.181-14.6c13.267-20.579,25.5-41.965,34.581-64.751,1.081-2.514,2.4-5.2,4.883-6.593,2.39-1.379,5.818-.225,8.479-.014,3.85.316,8.444,1.141,12.294.41,6.677-1.168,11.569-3.989,18.168-5.464,3.733-.855,7.012-1.847,10.655-.546,2.171.771,7.65,4.371,5.573,10.423-1.275,3.715-4.495,6.412-7.538,8.817a45.389,45.389,0,0,1-8.128,4.88,26.828,26.828,0,0,0-5.238,3.143,4.416,4.416,0,0,0-.626,5.97A8.183,8.183,0,0,0,279.685,154c5.262.364,10.392-1.394,15.109-3.555a58.56,58.56,0,0,0,22.753-19.059,40.371,40.371,0,0,0,3.917-7.09c.319-.437.021-.876-.217-1.234a20.512,20.512,0,0,1-3.414-8.438,13.6,13.6,0,0,1,1.538-9.043c.726-1.162,1.891-2.4,3.4-2.164,1.4.292,2.2,1.662,2.652,2.905a22.921,22.921,0,0,1,.891,9.54,53.47,53.47,0,0,1-1.219,6.253,35.294,35.294,0,0,0,7.541,5.175c5.331,2.58,11.277,3.32,16.928,4.922a134.725,134.725,0,0,1,35.222,15.5,208.3,208.3,0,0,1,25.634,18.815,30.92,30.92,0,0,0,8.739-9.049c3.1-4.63,5.371-9.733,7.893-14.682a37.492,37.492,0,0,1,5.178-8.1,9.419,9.419,0,0,1,6.442-3.287c3.176-.117,6.135,1.373,8.706,3.1A59.292,59.292,0,0,1,458.464,145.1a166.776,166.776,0,0,1,17.412,25.983c9.546,17.349,16.7,35.863,25.513,53.573,6.039,12.093,12.454,24.143,16.088,37.236a28.422,28.422,0,0,1,1.111,4.383l.337-.12a16.483,16.483,0,0,1-.292-3.423c-.394-3.712-.512-7.454-1.138-11.135-1.523-9.5-4.657-18.661-8.291-27.545-7.363-17.764-16.711-34.6-25.263-51.8-4.489-8.869-8.4-18.035-13.457-26.6-1.511-2.643-3.206-5.169-4.871-7.713-1.31-2.11-2.655-4.5-2.288-7.074.4-2.487,2.511-4.224,4.609-5.359,3.6-1.912,7.556-3,11.391-4.329,18.99-6.34,37.72-13.743,55.1-23.752a113.488,113.488,0,0,1,16.19-7.957,31.525,31.525,0,0,1,15.991-1.927c8.772,1.373,16.434,6.439,22.957,12.225,10.53,9.579,18.818,21.317,26.233,33.391A259.8,259.8,0,0,1,632.345,165.4c5.422,12.313,10.341,24.842,15.868,37.109,1.138,2.478,2.2,5,3.543,7.375a14.543,14.543,0,0,0,5.365,5.915c2.863,1.571,6.214,1.866,9.423,1.83a83.482,83.482,0,0,0,18.689-3.164,166.947,166.947,0,0,0,20.182-7.1A153.438,153.438,0,0,0,734.557,192a96.764,96.764,0,0,0,15.01-12.719c7.945-8.173,13.384-18.3,20.284-27.292a134.254,134.254,0,0,1,11.22-13.152,21.143,21.143,0,0,1,4.639-3.8,2.1,2.1,0,0,1,2.583.226c.807.945.59,2.294.521,3.441a30.992,30.992,0,0,1-2.607,9.236c-4.982,10.6-11.768,20.206-18.7,29.6-1.018,1.442-2.137,2.815-3.038,4.332,4.567-2.6,8.941-5.527,13.39-8.327,15.446-9.841,31.094-19.456,47.61-27.422a224.46,224.46,0,0,1,28.725-10.877c2.21-.62,4.362-1.493,6.626-1.912-11.72,5.088-23.189,10.735-34.674,16.328-11.632,5.617-22.9,11.957-33.942,18.646-7.951,4.778-15.729,9.832-23.644,14.664-2.05,1.135-4.007,2.589-6.313,3.137a1.919,1.919,0,0,1-2.152-2.544c.765-2.143,2.273-3.908,3.531-5.774,7.186-9.88,14.218-20,19.152-31.23,1.225-3.245,3.45-6.135,3.989-9.615a22.363,22.363,0,0,0-4.63,4.163,133.977,133.977,0,0,0-10.874,14.071c-3.637,5.4-6.644,11.193-10.22,16.632-5.711,8.833-13.6,16.033-22.09,22.148-9.787,6.993-20.633,12.358-31.745,16.894a169.444,169.444,0,0,1-22.289,7.652,91.058,91.058,0,0,1-17.779,2.941c-3.971.148-8.1-.226-11.68-2.074-4.106-2.083-6.617-6.174-8.577-10.169-10.606-22.358-18.616-45.945-30.926-67.481-6.6-11.427-13.8-22.6-22.584-32.488a73.186,73.186,0,0,0-14.914-13.035A32.71,32.71,0,0,0,564.882,91.1c-4.85-.605-9.727.551-14.224,2.3-5.7,2.222-11,5.313-16.334,8.267-17.9,10.07-37.073,17.668-56.541,24.11a45.441,45.441,0,0,0-8.574,3.477c-1,.611-2.2,1.49-2.059,2.824.334,2.333,1.677,4.347,2.77,6.388,5.416,9.233,9.627,19.089,14.393,28.653C492.162,183,500.763,198.5,508.165,214.6c4.711,10.356,8.989,21,11.415,32.148,1.5,7.011,2.417,14.348.78,21.419a1.517,1.517,0,0,1-1.65,1.291c-.9-.31-1.282-1.261-1.65-2.047-1.288-3.059-2.369-6.2-3.612-9.278a240.282,240.282,0,0,0-11.09-22.975c-3.85-7.237-7.445-14.606-10.85-22.06-7.77-16.885-14.953-34.147-24.947-49.885a154.41,154.41,0,0,0-9.076-12.909,67.2,67.2,0,0,0-11.093-11.5,16.075,16.075,0,0,0-6.337-3.248,4.561,4.561,0,0,0-3.844.993,21.681,21.681,0,0,0-4.606,6.117c-2.824,5.039-5.25,10.308-8.417,15.148a37.971,37.971,0,0,1-10.106,10.925c14.582,12.478,28.891,25.29,42.612,38.72,3.947,3.784,7.788,7.68,11.683,11.518A171.869,171.869,0,0,1,482.571,235.4c9.362,11.771,16.994,25.077,21.362,39.518a64.335,64.335,0,0,1,2.7,12.541,28.374,28.374,0,0,1-7.5,21.9c-5.16,5.563-13.207,8.664-20.727,6.945-4.618-1.008-8.375-4.284-11.087-8.02a27.019,27.019,0,0,1-.172,10.768A24.532,24.532,0,0,1,448.9,336.474a18.365,18.365,0,0,1-11.415-1.177c-4.8-2.1-8.751-5.645-12.487-9.23-.644-.521-.909-1.376-1.614-1.818.123.686.795,1.1,1.126,1.692a26.18,26.18,0,0,1,3.938,11.142,16.977,16.977,0,0,1-3.661,11.373,24.243,24.243,0,0,1-21.043,9.137,29.638,29.638,0,0,1-11.349-3.886,13.559,13.559,0,0,1,2.905,5.638,7.937,7.937,0,0,1-1.328,6.114c-1.951,2.854-5.091,4.639-8.264,5.837a28.145,28.145,0,0,1-18.129.485c-6.882-2.2-12.924-6.328-18.658-10.615A82.886,82.886,0,0,1,337.2,350.641c-1.421-1.409-2.535-3.119-4.127-4.347a8.7,8.7,0,0,0-5.973-1.285,67.119,67.119,0,0,1-12.683,17.734c-1.776,1.632-3.528,3.459-5.825,4.338a2,2,0,0,1-2.691-1.412,9.247,9.247,0,0,1,.879-5.121,34,34,0,0,1,6.978-10.461,29.213,29.213,0,0,1,10.4-7.068c1.794-4.537,3.092-9.594,1.915-14.453-.719-2.568-2-5.223-4.356-6.653-1.9-1.2-4.359-.65-6.177.421-3.917,8.041-10.256,14.646-17.325,20.013a82.788,82.788,0,0,1-27.151,13.547c-.915.253-2.61.686-2.755-.7.126-.957,1.168-1.288,1.875-1.743,8.224-4.422,16.322-9.26,23.264-15.564,5.8-5.024,10.943-10.783,17-15.516.726-.653,1.809-1.008,2.189-1.975a23.459,23.459,0,0,0,1.824-8.881,18.99,18.99,0,0,0-7.309-14.483,12.364,12.364,0,0,0-9.414-2.55c-4.75.756-8.974,3.29-12.909,5.931-11.921,8.27-21.9,19-33.891,27.175-1.069.81-2.46,1.3-3.137,2.532a19.128,19.128,0,0,1-6.2,6.542,12.988,12.988,0,0,1-9.191.948,41.212,41.212,0,0,1-13.785-6.268,19.023,19.023,0,0,1-3.492-2.794c-.427-.446-.151-1.033.057-1.49a2.3,2.3,0,0,1,2.062.223c4.38,2.128,8.881,4.187,13.709,5.045a19.014,19.014,0,0,0,8.429-.217,25.2,25.2,0,0,0,6.767-3.345c.975-.59,1.249-1.77,1.737-2.718,2.393-5.455,4.016-11.2,5.991-16.81a68.4,68.4,0,0,0,2.986-10.061,13.486,13.486,0,0,0-.593-7.661,16.9,16.9,0,0,0-11.813-9.612,12.958,12.958,0,0,0-8.583,1.141c-5.831,2.845-10.241,7.824-15.88,10.976-2.782,1.541-6.06,2.619-9.251,1.915-4.356-.921-7.746-4.1-10.7-7.243a24.548,24.548,0,0,1-16.7,5.036,30.4,30.4,0,0,1-16.5-6.942c-3.766-3.146-7.017-7.177-8.348-11.969a11.5,11.5,0,0,1,1.078-9.374,11.862,11.862,0,0,1,13.532-4.519c5.07,1.746,9.42,5.06,13.435,8.528,5.22,4.54,9.666,9.868,14.54,14.76,3.342-4.371,4.762-9.808,6.138-15.04a285.825,285.825,0,0,1,11.78-37.871c4.528-11.241,10.124-22.175,17.74-31.654a68.065,68.065,0,0,1,24.038-19.372c12.83-6.051,27.127-8.119,41.182-8.667,23.334-.918,46.55,2.384,69.859,2.7a119.57,119.57,0,0,0,21.729-1.475,48.987,48.987,0,0,0,13.827-4.458,185.88,185.88,0,0,0-27.148-19.426,127.675,127.675,0,0,0-34.009-13.962c-6.03-1.409-12.439-1.963-17.885-5.145a27.954,27.954,0,0,1-4.853-3.823c-4.392,9.742-12.234,17.593-21.145,23.316a49.478,49.478,0,0,1-16.62,7.026c-3.637.692-7.61.825-10.994-.891a8.05,8.05,0,0,1-4.482-8.306c.379-2.291,2.134-4.037,4.013-5.244,2.715-1.776,5.744-3,8.538-4.639a25.405,25.405,0,0,0,7.782-6.981c1.093-1.614,2.192-3.438,2.08-5.461a3.383,3.383,0,0,0-2.249-2.577,14.676,14.676,0,0,0-8.267-.8c-4.937.861-9.486,3.047-14.2,4.654a32.351,32.351,0,0,1-11.716,2.161c-3.835.027-7.631-1.045-11.47-.662a4.325,4.325,0,0,0-3.336,2.252,60.849,60.849,0,0,0-3.182,7c-8.381,19.405-19.312,37.6-31.137,55.078l-.036-.2a55.937,55.937,0,0,1-3.387,5.2c-2.538,3.685-5.085,7.369-7.788,10.937a31.7,31.7,0,0,1-3.781,4.344c-.6.551-1.608,1-2.309.388-.879-.7-.542-1.975-.34-2.911a87.047,87.047,0,0,1,3.233-9c4.278-10.877,9.9-21.148,15.657-31.293,5.66-10.052,11.509-20.013,16.593-30.372a71.935,71.935,0,0,0,4.485-11.175,16.532,16.532,0,0,0,.713-7.291,3.957,3.957,0,0,0-2.231-2.965c-10.446-4.892-20.094-11.256-29.941-17.217-16.681-10-34.147-18.6-51.029-28.247-5.31-2.98-10.446-6.265-15.775-9.221-4.019-2.152-8.212-4.263-12.794-4.814A18.624,18.624,0,0,0,104.1,63.65,79.388,79.388,0,0,0,91.014,80.99C84.619,91.975,79.55,103.649,74.086,115.1a348.011,348.011,0,0,1-19.167,35.354,123.428,123.428,0,0,1-8.239,12c-1.162,1.322-2.309,2.845-4.028,3.45a2.992,2.992,0,0,1-3.736-2.213c-.521-2.363.12-4.774.614-7.086,3.077-12.475,8.8-24.065,14.528-35.5,8.73-17.888,19-34.957,28.268-52.559a98.881,98.881,0,0,0,5.638-12.009c.9-2.637,1.791-5.458,1.261-8.267-.683-2.941-3.471-4.63-5.864-6.1-4.489-2.511-9.194-4.609-13.727-7.035-10.344-5.377-20.5-11.1-30.854-16.455Q24.118,11.164,9.031,4.49A90.305,90.305,0,0,1,0,0M320.635,107.671a9.774,9.774,0,0,0-.8,6.364A14.6,14.6,0,0,0,322.95,120a25.407,25.407,0,0,0,.993-7.77c-.045-2.27-.16-4.741-1.505-6.665a3.961,3.961,0,0,0-1.8,2.1m72.4,68.427a130,130,0,0,1-22.723,1.126c-23.093-.656-46.1-3.995-69.236-3.086-13.426.566-27.076,2.553-39.328,8.342a65.6,65.6,0,0,0-24.029,19.9c-7.207,9.386-12.469,20.11-16.744,31.1A301.716,301.716,0,0,0,210.03,269.3c-1.556,5.852-3.278,11.918-7.2,16.681a23,23,0,0,0,7.309,5.3,8.465,8.465,0,0,0,6.289-.355,56.893,56.893,0,0,0,9.167-5.286c4.224-2.73,8.55-5.626,13.562-6.641,7.827-1.415,16.076,3.122,19.709,10.076a15.048,15.048,0,0,1,1.577,8.6,43.253,43.253,0,0,1-2.749,10.184,181.662,181.662,0,0,1-7.487,18.032c1.821-1.355,3.585-2.791,5.3-4.272,7.878-6.87,15.54-14,23.758-20.465,4.4-3.369,9.013-6.626,14.269-8.5a16.464,16.464,0,0,1,10.214-.569,20.47,20.47,0,0,1,12.671,11.6,21.139,21.139,0,0,1,.421,15.157c5.557-1.647,11.756,2.408,13.168,7.884,1.37,5.133.247,10.567-1.68,15.4a10.185,10.185,0,0,1,8.577,3.477,89.621,89.621,0,0,0,15.377,13.932,69.391,69.391,0,0,0,12.77,7.728,25.529,25.529,0,0,0,11.557,2.4A22.262,22.262,0,0,0,389,365.6a6.506,6.506,0,0,0,2.851-4.711,9.97,9.97,0,0,0-1.74-4.744,38.875,38.875,0,0,0-5.274-6.451c-8.146-8.574-17.746-15.552-26.5-23.46-4.118-3.889-8.318-7.959-10.741-13.168-.686-1.662-1.731-3.326-1.587-5.184a1.822,1.822,0,0,1,2.438-1.559c1.644.762,2.827,2.222,4.079,3.489,7.935,8.7,15.455,17.782,23.83,26.07a90.7,90.7,0,0,0,16.091,13.053,29.969,29.969,0,0,0,11.048,4.266,20.007,20.007,0,0,0,16.238-5.548A13.627,13.627,0,0,0,424.142,338,20.72,20.72,0,0,0,421,328.509c-3.838-6.542-9.441-11.777-14.977-16.861-5.946-5.473-12.186-10.753-17.024-17.28a35.976,35.976,0,0,1-5.988-12.349c-.337-1.583-.768-3.447.25-4.868a2.1,2.1,0,0,1,2.794-.464,17.516,17.516,0,0,1,3.477,2.956c3.176,3.372,6.159,6.918,9.182,10.428q8.566,10.047,17.343,19.917c4.786,5.25,9.413,10.675,14.655,15.489,3.227,2.824,6.749,5.6,10.976,6.689a16.268,16.268,0,0,0,12.24-2.336,20.3,20.3,0,0,0,8.89-11.566,20.9,20.9,0,0,0,.364-7.984,63.715,63.715,0,0,0-2.529-10.485c-.542-1.857-1.948-3.26-2.974-4.844-9.4-13.216-18.9-26.377-29.2-38.9-10-12.222-20-24.454-29.508-37.07a49.81,49.81,0,0,1-3.311-4.841,1.269,1.269,0,0,1,.34-1.809c.762-.47,1.58.178,2.219.581,3.11,2.261,6,4.811,8.914,7.312q6.236,5.45,12.189,11.214a234.638,234.638,0,0,1,19.288,21.69c9.6,12.1,18.282,25.134,24.017,39.545.71,1.662,1.111,3.5,2.27,4.934,2.863,3.841,5.331,8.038,8.836,11.355A12.166,12.166,0,0,0,482,312.385a17.91,17.91,0,0,0,12.686-4.775,23.859,23.859,0,0,0,7.577-20.194,69.583,69.583,0,0,0-3.3-13.8c-5.235-15.621-14.263-29.791-25.233-42-5.8-6.144-12.012-11.882-17.984-17.852-14.877-14.724-29.652-29.607-45.653-43.127a50.777,50.777,0,0,1-17.054,5.464m7.117,40.936c6.451,8.339,13.155,16.482,19.929,24.559,6.521,7.824,13.267,15.458,19.718,23.34,4.4,5.395,8.784,10.8,12.945,16.371-8.787-16.187-20.453-30.577-32.684-44.262a227.436,227.436,0,0,0-19.908-20.007m-239.622,52.6a12.753,12.753,0,0,0,1.421,7.707,24.414,24.414,0,0,0,5.328,6.936,28.828,28.828,0,0,0,13.682,7.056,21.616,21.616,0,0,0,17.451-4.368c-6.262-7.27-11.975-15.236-19.857-20.886-2.706-1.878-5.666-3.754-9.037-3.989-4.341-.259-8.321,3.336-8.989,7.544m224.519,9.212c-.117,2.258.75,4.41,1.553,6.481a35.388,35.388,0,0,0,7.77,11.461,128.327,128.327,0,0,0,11.692,10.29,94.381,94.381,0,0,1,7.875,6.822c-.117-.84-1.018-1.15-1.487-1.752-6.966-8.336-13.384-17.111-20.176-25.588-2.27-2.685-4.392-5.587-7.228-7.713m-36.318,30.977a19.3,19.3,0,0,0,2.869,5.672c3.025,4.239,6.948,7.716,10.88,11.09a12.134,12.134,0,0,1,2.854,2.776.733.733,0,0,0-.238-.864,39.277,39.277,0,0,1-4.218-4.558c-4.016-4.726-8.026-9.531-12.147-14.116m-59.456,34.225a122.282,122.282,0,0,1-12.5,7.833c-.5.277-1.15.283-1.5.789,13.7-5.109,26.236-14.083,34.376-26.356-6.858,5.837-13.068,12.433-20.374,17.734m-49.039-10.762c-5.852,1.626-12.03.322-17.662-1.55a62.25,62.25,0,0,0,6.623,3.188c3.05,1.138,6.4,2,9.651,1.243,2.7-.635,4.768-2.724,6.25-4.973a23.305,23.305,0,0,1-4.862,2.092m78.584,14.877a27.192,27.192,0,0,0-9.417,11.235,12.425,12.425,0,0,0-1.493,5.626c2.511-1.361,4.4-3.582,6.259-5.7a66.253,66.253,0,0,0,8.709-13.3,27.587,27.587,0,0,0-4.058,2.137" transform="translate(0 -0.004)" fill="#024778"/>
      </g>
    </g>
    <path id="Path_5205" data-name="Path 5205" d="M-8503.078,2030.745s18.412-11.907,101.472-42.537,99.61-64.6,99.61-64.6" transform="translate(10257 -508)" fill="none" stroke="#024778" stroke-width="3"/>
  </g>
</svg>
