<svg xmlns="http://www.w3.org/2000/svg" xmlns:xlink="http://www.w3.org/1999/xlink" width="1920" height="712" viewBox="0 0 1920 712">
  <defs>
    <clipPath id="clip-path">
      <rect id="Rectangle_2583" data-name="Rectangle 2583" width="1920" height="712" transform="translate(0 133)" fill="#fff"/>
    </clipPath>
  </defs>
  <g id="Mask_Group_1034" data-name="Mask Group 1034" transform="translate(0 -133)" clip-path="url(#clip-path)">
    <path id="Path_5979" data-name="Path 5979" d="M81.358,2342.876c-91.873-15.672-188.061-15.86-260.548-49.205s-109.869-33.158-249.063-14.75-222.592,37.892-371.041-.37c-146.073-37.65-220.775-58.335-455.119-11.1-3.627.731,3.9-.805,0,0-243.685,50.3-326.49-60.616-556.057-48.553s-191.41,53.718-255.213,71.624,35.944-718.687,35.944-718.687L17.927,1621.766l72.313,1.763Z" transform="matrix(0.999, -0.035, 0.035, 0.999, 1910.933, -1568.819)" fill="#aaa" opacity="0.1"/>
  </g>
</svg>
