<svg xmlns="http://www.w3.org/2000/svg" xmlns:xlink="http://www.w3.org/1999/xlink" width="100" height="100" viewBox="0 0 100 100">
  <defs>
    <clipPath id="clip-path">
      <rect id="Rectangle_2542" data-name="Rectangle 2542" width="55.664" height="37.129" fill="#f0f0f0"/>
    </clipPath>
  </defs>
  <g id="Group_1546" data-name="Group 1546" transform="translate(-910 -1607.659)">
    <g id="Group_1545" data-name="Group 1545">
      <g id="Group_1543" data-name="Group 1543">
        <circle id="Ellipse_124" data-name="Ellipse 124" cx="50" cy="50" r="50" transform="translate(910 1607.659)" fill="#024778"/>
        <g id="Group_1379" data-name="Group 1379" transform="translate(932 1642.659)">
          <g id="Group_1332" data-name="Group 1332" clip-path="url(#clip-path)">
            <path id="Path_5920" data-name="Path 5920" d="M55.664,34.762a8.545,8.545,0,0,1-.768,1.412,2.86,2.86,0,0,1-2.383.955q-8.8-.009-17.609,0-15.842,0-31.685,0a3.189,3.189,0,0,1-2.179-.676A2.913,2.913,0,0,1,0,34.105q.011-5.435,0-10.87Q0,13.263,0,3.29C0,1.132,1.127,0,3.275,0H52.134c2.067,0,2.757.462,3.531,2.364ZM53.489,3.539c-.229.162-.39.27-.545.386q-10.933,8.2-21.865,16.4a5.063,5.063,0,0,1-6.464.014L2.706,3.909c-.153-.114-.314-.218-.5-.343V33.349c.218-.262.37-.441.517-.624Q8.334,25.8,13.941,18.87a3,3,0,0,1,.363-.4,1.06,1.06,0,0,1,1.35-.019,1.044,1.044,0,0,1,.3,1.274,2.353,2.353,0,0,1-.308.445Q10.824,26.125,6,32.08c-.758.936-1.513,1.873-2.316,2.868H51.959c-.142-.191-.241-.336-.351-.472Q46.65,28.352,41.69,22.229c-.615-.76-1.243-1.511-1.839-2.287a1.035,1.035,0,0,1,.171-1.5,1.061,1.061,0,0,1,1.468.143c.087.091.163.194.243.292q5.694,7.032,11.389,14.063c.095.117.2.223.367.4ZM3.985,2.164c.178.149.257.22.341.283q10.862,8.149,21.725,16.3a2.9,2.9,0,0,0,3.58-.012Q40.5,10.588,51.356,2.438a2.442,2.442,0,0,0,.259-.274Z" transform="translate(0 0)" fill="#f0f0f0"/>
          </g>
        </g>
      </g>
    </g>
  </g>
</svg>
