<svg xmlns="http://www.w3.org/2000/svg" xmlns:xlink="http://www.w3.org/1999/xlink" width="56" height="56" viewBox="0 0 56 56">
  <defs>
    <clipPath id="clip-path">
      <rect id="Rectangle_2514" data-name="Rectangle 2514" width="28.985" height="28.921" fill="#727272"/>
    </clipPath>
  </defs>
  <g id="Group_1548" data-name="Group 1548" transform="translate(-1288.665 -1814.651)">
    <g id="Group_1380" data-name="Group 1380" transform="translate(-157.335 465.651)">
      <circle id="Ellipse_121" data-name="Ellipse 121" cx="28" cy="28" r="28" transform="translate(1446 1349)" fill="#eaeaea"/>
      <g id="Group_1283" data-name="Group 1283" transform="translate(1459.725 1362.725)">
        <g id="Group_1282" data-name="Group 1282" transform="translate(0 0)">
          <g id="Group_1281" data-name="Group 1281" clip-path="url(#clip-path)">
            <path id="Path_5538" data-name="Path 5538" d="M114.947,116.776h-5.988V97.509H114.7v2.565A17.839,17.839,0,0,1,115.9,98.7a6.191,6.191,0,0,1,3.785-1.645,9.36,9.36,0,0,1,3.672.35,5.511,5.511,0,0,1,3.758,3.977,14.08,14.08,0,0,1,.538,3.973c.025,3.731.015,7.462.019,11.193,0,.046-.008.092-.015.167h-6c0-.139,0-.276,0-.413,0-3.19.007-6.379-.013-9.569a11.452,11.452,0,0,0-.186-2c-.37-2-1.663-2.653-3.483-2.446a3.078,3.078,0,0,0-2.881,3.013,14.939,14.939,0,0,0-.139,2c-.014,3.013-.006,6.026-.006,9.039v.432" transform="translate(-98.683 -87.86)" fill="#727272"/>
            <rect id="Rectangle_2513" data-name="Rectangle 2513" width="5.961" height="19.284" transform="translate(0.504 9.637)" fill="#727272"/>
            <path id="Path_5539" data-name="Path 5539" d="M6.953,3.466A3.5,3.5,0,0,1,3.5,6.979,3.521,3.521,0,0,1,0,3.469a3.476,3.476,0,0,1,6.953,0" transform="translate(0 0.001)" fill="#727272"/>
          </g>
        </g>
      </g>
    </g>
  </g>
</svg>
