<svg xmlns="http://www.w3.org/2000/svg" xmlns:xlink="http://www.w3.org/1999/xlink" width="100" height="100" viewBox="0 0 100 100">
  <defs>
    <clipPath id="clip-path">
      <rect id="Rectangle_2541" data-name="Rectangle 2541" width="36.999" height="55.673" fill="#fff"/>
    </clipPath>
  </defs>
  <g id="Group_1543" data-name="Group 1543" transform="translate(-434 -1607.822)">
    <circle id="Ellipse_123" data-name="Ellipse 123" cx="50" cy="50" r="50" transform="translate(434 1607.822)" fill="#024778"/>
    <g id="Group_1378" data-name="Group 1378" transform="translate(466 1629.822)">
      <g id="Group_1330" data-name="Group 1330" clip-path="url(#clip-path)">
        <path id="Path_5918" data-name="Path 5918" d="M19.812,0c1.189.218,2.4.358,3.565.667A18.5,18.5,0,0,1,36.909,16.812a20.285,20.285,0,0,1-3.333,12.84c-2.132,3.4-4.685,6.484-7.13,9.65-.4.514-.8,1.025-1.241,1.6.906.18,1.751.33,2.588.518A18.923,18.923,0,0,1,33.666,43.6a10.421,10.421,0,0,1,2.19,1.754,3.8,3.8,0,0,1,0,5.434,9.937,9.937,0,0,1-3.458,2.39,27.876,27.876,0,0,1-8.213,2.139,44.441,44.441,0,0,1-13.311-.3,21.205,21.205,0,0,1-7.893-2.737,9.057,9.057,0,0,1-2-1.734,3.716,3.716,0,0,1-.031-4.974,9.935,9.935,0,0,1,4.11-2.841,27.662,27.662,0,0,1,6.37-1.736c.1-.017.2-.038.389-.075-.179-.238-.314-.42-.45-.6-2.4-3.175-4.87-6.306-7.194-9.539A21.836,21.836,0,0,1,.3,21.892,18.6,18.6,0,0,1,14.856.362C15.6.212,16.348.119,17.094,0ZM18.525,46.124c.1-.119.177-.212.251-.309,2.551-3.338,5.132-6.653,7.642-10.021,1.924-2.582,3.872-5.158,5.607-7.866a16.837,16.837,0,0,0,2.651-11.563A16.323,16.323,0,1,0,2.364,21.01a18.653,18.653,0,0,0,3.27,8.02c2.309,3.243,4.759,6.386,7.159,9.564,1.888,2.5,3.793,4.984,5.731,7.53m-.042,7.392c1.013-.058,2.734-.108,4.445-.265a28.7,28.7,0,0,0,7.715-1.706,9.351,9.351,0,0,0,3.437-2.022,1.807,1.807,0,0,0-.018-2.926,8.1,8.1,0,0,0-1.611-1.186,23.529,23.529,0,0,0-8.5-2.445.823.823,0,0,0-.587.342c-1.273,1.694-2.526,3.4-3.78,5.11-.71.967-1.45.963-2.159-.007C16.175,46.7,14.913,45,13.667,43.285a.635.635,0,0,0-.718-.325c-1.7.365-3.414.644-5.087,1.094a11.25,11.25,0,0,0-4.721,2.352c-1.271,1.141-1.3,2.262.046,3.323A12.192,12.192,0,0,0,6.08,51.405c3.74,1.531,7.695,1.955,12.4,2.111" transform="translate(0 0.001)" fill="#fff"/>
        <path id="Path_5919" data-name="Path 5919" d="M82.614,90.076a7.61,7.61,0,1,1,7.638-7.568,7.624,7.624,0,0,1-7.638,7.568m5.463-7.583A5.435,5.435,0,1,0,82.629,87.9a5.452,5.452,0,0,0,5.448-5.409" transform="translate(-64.136 -63.985)" fill="#fff"/>
      </g>
    </g>
  </g>
</svg>
