<svg xmlns="http://www.w3.org/2000/svg" xmlns:xlink="http://www.w3.org/1999/xlink" width="100" height="100" viewBox="0 0 100 100">
  <defs>
    <clipPath id="clip-path">
      <rect id="Rectangle_2543" data-name="Rectangle 2543" width="51.511" height="55.036" fill="#f0f0f0"/>
    </clipPath>
  </defs>
  <g id="Group_1547" data-name="Group 1547" transform="translate(-1383.665 -1607.659)">
    <g id="Group_1544" data-name="Group 1544">
      <circle id="Ellipse_122" data-name="Ellipse 122" cx="50" cy="50" r="50" transform="translate(1383.665 1607.659)" fill="#024778"/>
    </g>
    <g id="Group_1381" data-name="Group 1381" transform="translate(1407.665 1629.659)">
      <g id="Group_1334" data-name="Group 1334" clip-path="url(#clip-path)">
        <path id="Path_5921" data-name="Path 5921" d="M50.329,50.225a9.359,9.359,0,0,0-2.242-11.733,8.988,8.988,0,0,0-5.981-2.126,9.358,9.358,0,0,0-7.479,3.784l-.253.32-.583-.281c-.147-.07-.283-.135-.418-.2l-3.42-1.748c-3.569-1.825-7.26-3.712-10.9-5.555a1.139,1.139,0,0,1-.672-1.456,8.574,8.574,0,0,0-.246-5.035,1.077,1.077,0,0,1,.533-1.466c3.945-2.354,7.949-4.76,11.821-7.088l3.421-2.056c.1-.063.211-.122.34-.194l.213-.119.394-.223.267.366c.034.047.066.094.1.14a1.271,1.271,0,0,0,.121.164,9.151,9.151,0,0,0,9.219,2.643A9.307,9.307,0,0,0,46.3,1.007,13.532,13.532,0,0,0,44.084.282C43.75.194,43.406.1,43.066,0H41.231l-.1.026a3.951,3.951,0,0,1-.412.09A9.331,9.331,0,0,0,32.9,10.472c.071.524.19,1.042.316,1.591.06.26.12.521.175.786l.074.354L16.66,23.3l-.281-.309a9.319,9.319,0,0,0-6.959-3.15l-.174,0a9.566,9.566,0,0,0-7.075,3.274A9.462,9.462,0,0,0,2.736,35.8,9.059,9.059,0,0,0,9.125,38.5a9.34,9.34,0,0,0,7.8-3.9l.258-.334L33.318,42.5l-.111.4a9.442,9.442,0,0,0,5.583,11.5,9.311,9.311,0,0,0,11.54-4.182M37.169,4.338A7.028,7.028,0,0,1,42.157,2.27h.023a7.077,7.077,0,0,1-.019,14.153h-.005A7.069,7.069,0,0,1,37.169,4.338M14.295,34.174a7.027,7.027,0,0,1-4.99,2.069H9.284a7.1,7.1,0,1,1,5.011-2.069m27.881,18.6h-.019a7.077,7.077,0,0,1,0-14.153h.009a7.077,7.077,0,0,1,.01,14.153" transform="translate(0)" fill="#f0f0f0"/>
      </g>
    </g>
  </g>
</svg>
