<?xml version="1.0" encoding="UTF-8"?><svg id="Layer_1" xmlns="http://www.w3.org/2000/svg" viewBox="0 0 194.33 139.81"><defs><style>.cls-1{fill:#0b315e;opacity:.3;}</style></defs><path class="cls-1" d="M89.34,104.91c1.84,0,3.18-1.33,3.18-3.16,0-1.84-1.34-3.18-3.17-3.18-1.84,0-3.17,1.32-3.17,3.17,0,1.85,1.31,3.17,3.15,3.18Z"/><path class="cls-1" d="M57.65,104.91c1.84,.03,3.22-1.28,3.25-3.09,.03-1.84-1.28-3.22-3.1-3.25-1.84-.03-3.21,1.27-3.24,3.1-.03,1.85,1.26,3.21,3.08,3.25Z"/><path class="cls-1" d="M26.07,104.91c1.84,.01,3.19-1.31,3.21-3.14,.01-1.84-1.32-3.19-3.14-3.21-1.84-.01-3.18,1.31-3.19,3.14-.01,1.85,1.29,3.19,3.13,3.2Z"/><path class="cls-1" d="M168.41,82.76c-1.84,0-3.17,1.32-3.17,3.16,0,1.85,1.31,3.18,3.15,3.18,1.84,0,3.18-1.33,3.18-3.16,0-1.83-1.34-3.18-3.16-3.18Z"/><path class="cls-1" d="M136.83,82.75c-1.84-.02-3.19,1.29-3.22,3.12-.02,1.85,1.28,3.2,3.1,3.22,1.84,.02,3.21-1.29,3.23-3.11,.02-1.84-1.3-3.21-3.12-3.23Z"/><path class="cls-1" d="M105.19,89.1c1.83-.02,3.16-1.37,3.14-3.2-.02-1.83-1.37-3.16-3.21-3.14-1.83,.02-3.14,1.36-3.13,3.21,.01,1.84,1.35,3.15,3.2,3.13Z"/><path class="cls-1" d="M73.41,89.1c1.85,.06,3.25-1.23,3.3-3.04,.06-1.84-1.24-3.25-3.05-3.31-1.84-.06-3.24,1.23-3.29,3.05-.05,1.86,1.21,3.24,3.03,3.3Z"/><path class="cls-1" d="M41.86,89.1c1.84,.02,3.2-1.29,3.23-3.11,.02-1.84-1.3-3.21-3.12-3.23-1.84-.02-3.19,1.29-3.21,3.12-.02,1.85,1.28,3.2,3.11,3.22Z"/><path class="cls-1" d="M152.57,66.95c-1.84,0-3.15,1.35-3.15,3.19,0,1.84,1.33,3.16,3.18,3.15,1.84,0,3.16-1.34,3.15-3.18,0-1.83-1.35-3.17-3.18-3.16Z"/><path class="cls-1" d="M124.13,70.35c.1-1.85-1.14-3.3-2.94-3.4-1.85-.1-3.29,1.15-3.39,2.94-.1,1.86,1.14,3.29,2.93,3.39,1.86,.1,3.29-1.14,3.39-2.94Z"/><path class="cls-1" d="M89.22,73.29c1.85,.06,3.24-1.22,3.3-3.04,.06-1.85-1.23-3.25-3.04-3.31-1.84-.06-3.24,1.24-3.29,3.05-.05,1.86,1.22,3.24,3.03,3.3Z"/><path class="cls-1" d="M57.78,73.29c1.83-.02,3.14-1.38,3.12-3.22-.02-1.83-1.39-3.15-3.22-3.12-1.83,.03-3.13,1.38-3.11,3.22,.02,1.83,1.37,3.14,3.21,3.12Z"/><path class="cls-1" d="M136.78,51.13c-1.84,0-3.17,1.32-3.17,3.17,0,1.85,1.31,3.17,3.15,3.18,1.84,0,3.18-1.33,3.18-3.16,0-1.83-1.34-3.18-3.16-3.18Z"/><path class="cls-1" d="M105.22,57.48c1.82-.03,3.14-1.4,3.1-3.23-.03-1.83-1.4-3.14-3.24-3.11-1.83,.03-3.12,1.39-3.09,3.24,.03,1.83,1.38,3.13,3.23,3.1Z"/><path class="cls-1" d="M73.48,57.48c1.84,.02,3.21-1.29,3.23-3.11,.02-1.84-1.3-3.21-3.12-3.23-1.84-.02-3.19,1.29-3.22,3.12-.02,1.85,1.28,3.2,3.11,3.22Z"/><path class="cls-1" d="M121.09,35.32c-1.84-.06-3.24,1.24-3.29,3.05-.05,1.86,1.22,3.24,3.03,3.3,1.85,.06,3.25-1.23,3.3-3.04,.06-1.84-1.24-3.25-3.05-3.31Z"/><path class="cls-1" d="M89.27,41.67c1.84,.03,3.22-1.27,3.25-3.09,.03-1.84-1.28-3.22-3.09-3.25-1.84-.03-3.21,1.27-3.24,3.1-.03,1.85,1.26,3.21,3.08,3.25Z"/><path class="cls-1" d="M105.21,25.86c1.83-.02,3.14-1.39,3.12-3.22-.03-1.83-1.39-3.14-3.23-3.12-1.83,.03-3.13,1.38-3.1,3.23,.02,1.83,1.37,3.14,3.22,3.11Z"/><path class="cls-1" d="M168.43,114.37c-1.84-.01-3.18,1.31-3.19,3.14-.01,1.85,1.29,3.19,3.13,3.2,1.84,.01,3.19-1.31,3.21-3.14,.01-1.84-1.32-3.19-3.14-3.21Z"/><path class="cls-1" d="M136.81,114.37c-1.84-.01-3.18,1.31-3.19,3.14-.01,1.85,1.29,3.19,3.13,3.2,1.84,.01,3.19-1.31,3.21-3.14,.01-1.84-1.32-3.19-3.14-3.21Z"/><path class="cls-1" d="M105.02,120.72c1.85,.06,3.25-1.23,3.31-3.04,.06-1.84-1.24-3.25-3.05-3.31-1.84-.06-3.24,1.23-3.29,3.05-.06,1.86,1.21,3.24,3.03,3.3Z"/><path class="cls-1" d="M73.52,120.72c1.84,0,3.18-1.33,3.18-3.16,0-1.83-1.34-3.18-3.16-3.18-1.84,0-3.17,1.32-3.17,3.16,0,1.85,1.31,3.18,3.15,3.18Z"/><path class="cls-1" d="M41.88,120.72c1.84,.01,3.19-1.31,3.2-3.14,0-1.84-1.32-3.19-3.14-3.2-1.84-.01-3.18,1.31-3.19,3.14-.01,1.85,1.3,3.19,3.13,3.2Z"/><path class="cls-1" d="M184.24,98.56c-1.84,0-3.18,1.31-3.19,3.14-.01,1.85,1.3,3.19,3.13,3.2,1.84,.01,3.19-1.31,3.2-3.14,0-1.84-1.32-3.19-3.14-3.2Z"/><path class="cls-1" d="M152.71,98.56c-1.84-.06-3.24,1.23-3.29,3.05-.06,1.86,1.21,3.24,3.03,3.3,1.85,.06,3.25-1.23,3.31-3.04,.06-1.84-1.24-3.25-3.05-3.31Z"/><path class="cls-1" d="M120.92,104.91c1.84,.02,3.2-1.3,3.22-3.12,.02-1.84-1.31-3.2-3.12-3.22-1.84-.02-3.19,1.3-3.21,3.13-.02,1.85,1.28,3.2,3.11,3.22Z"/></svg>