<?xml version="1.0" encoding="UTF-8"?><svg id="Layer_1" xmlns="http://www.w3.org/2000/svg" xmlns:xlink="http://www.w3.org/1999/xlink" viewBox="0 0 1920 1080"><defs><style>.cls-1{fill:none;}.cls-2{clip-path:url(#clippath);}.cls-3,.cls-4{fill:#024778;}.cls-5,.cls-6{fill:#ffd729;}.cls-7{clip-path:url(#clippath-1);}.cls-8{clip-path:url(#clippath-4);}.cls-9{clip-path:url(#clippath-3);}.cls-10{clip-path:url(#clippath-2);}.cls-11,.cls-6,.cls-4,.cls-12{opacity:.3;}.cls-12{fill:#0b315e;}</style><clipPath id="clippath"><rect class="cls-1" y="931.97" width="164.59" height="148.03"/></clipPath><clipPath id="clippath-1"><rect class="cls-1" x="1755.28" y="442.36" width="165.51" height="380.77"/></clipPath><clipPath id="clippath-2"><rect class="cls-1" x="1705.65" width="214.35" height="223.03"/></clipPath><clipPath id="clippath-3"><rect class="cls-1" width="165.3" height="242.62"/></clipPath><clipPath id="clippath-4"><rect class="cls-1" x="1732.06" y="961.09" width="187.94" height="86.17"/></clipPath></defs><polygon class="cls-4" points="1850.41 198.83 1854.49 191.77 1855.98 197.33 1850.41 198.83"/><polygon class="cls-4" points="1840.09 201.59 1851.72 181.45 1853.21 187.01 1845.65 200.1 1840.09 201.59"/><polygon class="cls-4" points="1809.2 209.87 1843.45 150.56 1844.92 156.04 1814.69 208.4 1809.2 209.87"/><polygon class="cls-4" points="1819.44 207.13 1846.19 160.8 1847.68 166.36 1825.01 205.64 1819.44 207.13"/><polygon class="cls-4" points="1829.76 204.36 1848.96 171.12 1850.44 176.69 1835.33 202.87 1829.76 204.36"/><path class="cls-5" d="M55.61,526.17c.54,0,1.08,.03,1.62,.08,.54,.05,1.07,.13,1.61,.24,.53,.11,1.06,.24,1.58,.39,.52,.16,1.03,.34,1.53,.55,.5,.21,.99,.44,1.47,.69,.48,.26,.94,.53,1.39,.83,.45,.3,.89,.62,1.3,.97,.42,.34,.82,.71,1.2,1.09s.75,.78,1.09,1.2c.34,.42,.67,.85,.97,1.3,.3,.45,.58,.91,.83,1.39,.26,.48,.49,.97,.69,1.47s.39,1.01,.55,1.53c.16,.52,.29,1.04,.39,1.58,.11,.53,.19,1.07,.24,1.61,.05,.54,.08,1.08,.08,1.62s-.03,1.08-.08,1.62c-.05,.54-.13,1.07-.24,1.61-.11,.53-.24,1.06-.39,1.58s-.34,1.03-.55,1.53c-.21,.5-.44,.99-.69,1.47-.26,.48-.53,.94-.83,1.39-.3,.45-.62,.89-.97,1.3-.34,.42-.71,.82-1.09,1.2-.38,.38-.78,.75-1.2,1.09-.42,.34-.85,.67-1.3,.97-.45,.3-.91,.58-1.39,.83s-.97,.49-1.47,.69-1.01,.39-1.53,.55c-.52,.16-1.04,.29-1.58,.39-.53,.11-1.07,.19-1.61,.24-.54,.05-1.08,.08-1.62,.08s-1.08-.03-1.62-.08c-.54-.05-1.07-.13-1.61-.24-.53-.11-1.06-.24-1.58-.39-.52-.16-1.03-.34-1.53-.55-.5-.21-.99-.44-1.47-.69-.48-.26-.94-.53-1.39-.83-.45-.3-.89-.62-1.3-.97-.42-.34-.82-.71-1.2-1.09-.38-.38-.75-.78-1.09-1.2s-.67-.85-.97-1.3c-.3-.45-.58-.91-.83-1.39-.26-.48-.49-.97-.69-1.47-.21-.5-.39-1.01-.55-1.53s-.29-1.04-.39-1.58c-.11-.53-.19-1.07-.24-1.61-.05-.54-.08-1.08-.08-1.62s.03-1.08,.08-1.62c.05-.54,.13-1.07,.24-1.61,.11-.53,.24-1.06,.39-1.58,.16-.52,.34-1.03,.55-1.53s.44-.99,.69-1.47c.26-.48,.53-.94,.83-1.39,.3-.45,.62-.89,.97-1.3,.34-.42,.71-.82,1.09-1.2s.78-.75,1.2-1.09c.42-.34,.85-.67,1.3-.97,.45-.3,.91-.58,1.39-.83,.48-.26,.97-.49,1.47-.69,.5-.21,1.01-.39,1.53-.55,.52-.16,1.04-.29,1.58-.39,.53-.11,1.07-.19,1.61-.24,.54-.05,1.08-.08,1.62-.08Z"/><polygon class="cls-5" points="135.64 542.68 143.81 534.5 141.41 532.09 130.82 542.68 141.41 553.27 143.81 550.86 135.64 542.68"/><polygon class="cls-5" points="149.91 542.68 158.08 534.5 155.68 532.09 145.09 542.68 155.68 553.27 158.08 550.86 149.91 542.68"/><polygon class="cls-5" points="164.35 542.68 172.53 534.5 170.12 532.09 159.54 542.68 170.12 553.27 172.53 550.86 164.35 542.68"/><polygon class="cls-5" points="106.92 542.68 115.1 534.5 112.69 532.09 102.11 542.68 112.69 553.27 115.1 550.86 106.92 542.68"/><polygon class="cls-5" points="121.19 542.68 129.37 534.5 126.96 532.09 116.38 542.68 126.96 553.27 129.37 550.86 121.19 542.68"/><g class="cls-11"><g class="cls-2"><g><path class="cls-3" d="M-26.62,988.92l35.41-35.41c-6.29,3.59-12.12,7.89-17.4,12.78l-5.23,5.23c-4.89,5.28-9.18,11.12-12.78,17.41Z"/><path class="cls-3" d="M-37.19,1017.07l74.12-74.13c-2.05,.41-4.07,.9-6.07,1.44l-66.62,66.62c-.54,2-1.02,4.02-1.44,6.07Z"/><path class="cls-3" d="M-39.07,1035.91c0,.2,0,.4,0,.6l95.44-95.44c-.2,0-.4,0-.6,0-1.38,0-2.75,.03-4.12,.09l-90.64,90.63c-.06,1.36-.09,2.74-.09,4.12Z"/><path class="cls-3" d="M-37.6,1052.63l110.09-110.09c-1.33-.24-2.67-.44-4.01-.62l-106.7,106.7c.18,1.35,.38,2.68,.62,4.01Z"/><path class="cls-3" d="M-33.99,1066.59l120.45-120.45c-1.16-.4-2.33-.77-3.51-1.12l-118.06,118.06c.35,1.18,.72,2.35,1.12,3.51Z"/><path class="cls-3" d="M-28.76,1078.94l127.57-127.57c-1.03-.52-2.07-1.02-3.12-1.51l-125.97,125.97c.49,1.05,.99,2.09,1.51,3.12Z"/><path class="cls-3" d="M-22.18,1089.94l131.98-131.98c-.91-.63-1.83-1.26-2.77-1.86L-24.03,1087.17c.6,.93,1.22,1.86,1.86,2.77Z"/><path class="cls-3" d="M-14.39,1099.72l133.98-133.98c-.81-.74-1.63-1.45-2.47-2.16L-16.55,1097.26c.71,.83,1.42,1.66,2.16,2.47Z"/><path class="cls-3" d="M-5.44,1108.35l133.65-133.65c-.71-.83-1.42-1.66-2.16-2.47L-7.91,1106.19c.81,.74,1.64,1.45,2.47,2.16Z"/><path class="cls-3" d="M4.67,1115.82l131.02-131.02c-.6-.94-1.22-1.86-1.85-2.77L1.9,1113.96c.91,.63,1.84,1.25,2.77,1.85Z"/><path class="cls-3" d="M16.03,1122.04l125.88-125.88c-.49-1.05-.99-2.09-1.51-3.12l-127.49,127.49c1.03,.52,2.07,1.02,3.12,1.51Z"/><path class="cls-3" d="M28.79,1126.85l117.93-117.93c-.35-1.18-.72-2.36-1.11-3.52l-120.33,120.33c1.16,.39,2.34,.76,3.52,1.11Z"/><path class="cls-3" d="M43.29,1129.93l106.51-106.51c-.18-1.35-.38-2.69-.61-4.01l-109.91,109.91c1.33,.23,2.67,.44,4.01,.61Z"/><path class="cls-3" d="M55.78,1130.75c1.47,0,2.92-.04,4.37-.1l90.37-90.37c.07-1.45,.1-2.9,.1-4.37,0-.12,0-.24,0-.36l-95.2,95.2c.12,0,.24,0,.36,0Z"/><path class="cls-3" d="M81.02,1127.35l66.19-66.19c.55-2.01,1.05-4.04,1.47-6.1l-73.76,73.76c2.06-.42,4.09-.92,6.1-1.47Z"/></g></g></g><polygon class="cls-6" points="1564.03 419.33 1564 459.11 1598.46 439.25 1564.03 419.33"/><path class="cls-4" d="M1623.15,416.96l38.59,22.32-38.62,22.26,.04-44.58Zm-11.38-19.75l-.06,84.05,72.82-41.97-72.75-42.08Z"/><path class="cls-12" d="M944.39,1058.57c1.84,0,3.18-1.33,3.18-3.16,0-1.84-1.34-3.18-3.17-3.18-1.84,0-3.17,1.32-3.17,3.17,0,1.85,1.31,3.17,3.15,3.18Z"/><path class="cls-12" d="M912.7,1058.57c1.84,.03,3.22-1.28,3.25-3.09,.03-1.84-1.28-3.22-3.1-3.25-1.84-.03-3.21,1.27-3.24,3.1-.03,1.85,1.26,3.21,3.08,3.25Z"/><path class="cls-12" d="M881.13,1058.57c1.84,.01,3.19-1.31,3.21-3.14,.01-1.84-1.32-3.19-3.14-3.21-1.84-.01-3.18,1.31-3.19,3.14-.01,1.85,1.29,3.19,3.13,3.2Z"/><path class="cls-12" d="M1023.46,1036.41c-1.84,0-3.17,1.32-3.17,3.16,0,1.85,1.31,3.18,3.15,3.18,1.84,0,3.18-1.33,3.18-3.16,0-1.83-1.34-3.18-3.16-3.18Z"/><path class="cls-12" d="M991.89,1036.41c-1.84-.02-3.19,1.29-3.22,3.12-.02,1.85,1.28,3.2,3.1,3.22,1.84,.02,3.21-1.29,3.23-3.11,.02-1.84-1.3-3.21-3.12-3.23Z"/><path class="cls-12" d="M960.25,1042.76c1.83-.02,3.16-1.37,3.14-3.2-.02-1.83-1.37-3.16-3.21-3.14-1.83,.02-3.14,1.36-3.13,3.21,.01,1.84,1.35,3.15,3.2,3.13Z"/><path class="cls-12" d="M928.46,1042.76c1.85,.06,3.25-1.23,3.3-3.04,.06-1.84-1.24-3.25-3.05-3.31-1.84-.06-3.24,1.23-3.29,3.05-.05,1.86,1.21,3.24,3.03,3.3Z"/><path class="cls-12" d="M896.92,1042.76c1.84,.02,3.2-1.29,3.23-3.11,.02-1.84-1.3-3.21-3.12-3.23-1.84-.02-3.19,1.29-3.21,3.12-.02,1.85,1.28,3.2,3.11,3.22Z"/><path class="cls-12" d="M1007.63,1020.6c-1.84,0-3.15,1.35-3.15,3.19,0,1.84,1.33,3.16,3.18,3.15,1.84,0,3.16-1.34,3.15-3.18,0-1.83-1.35-3.17-3.18-3.16Z"/><path class="cls-12" d="M979.19,1024.01c.1-1.85-1.14-3.3-2.94-3.4-1.85-.1-3.29,1.15-3.39,2.94-.1,1.86,1.14,3.29,2.93,3.39,1.86,.1,3.29-1.14,3.39-2.94Z"/><path class="cls-12" d="M944.27,1026.95c1.85,.06,3.24-1.22,3.3-3.04,.06-1.85-1.23-3.25-3.04-3.31-1.84-.06-3.24,1.24-3.29,3.05-.05,1.86,1.22,3.24,3.03,3.3Z"/><path class="cls-12" d="M912.83,1026.95c1.83-.02,3.14-1.38,3.12-3.22-.02-1.83-1.39-3.15-3.22-3.12-1.83,.03-3.13,1.38-3.11,3.22,.02,1.83,1.37,3.14,3.21,3.12Z"/><path class="cls-12" d="M991.84,1004.79c-1.84,0-3.17,1.32-3.17,3.17,0,1.85,1.31,3.17,3.15,3.18,1.84,0,3.18-1.33,3.18-3.16,0-1.83-1.34-3.18-3.16-3.18Z"/><path class="cls-12" d="M960.28,1011.14c1.82-.03,3.14-1.4,3.1-3.23-.03-1.83-1.4-3.14-3.24-3.11-1.83,.03-3.12,1.39-3.09,3.24,.03,1.83,1.38,3.13,3.23,3.1Z"/><path class="cls-12" d="M928.54,1011.14c1.84,.02,3.21-1.29,3.23-3.11,.02-1.84-1.3-3.21-3.12-3.23-1.84-.02-3.19,1.29-3.22,3.12-.02,1.85,1.28,3.2,3.11,3.22Z"/><path class="cls-12" d="M976.15,988.98c-1.84-.06-3.24,1.24-3.29,3.05-.05,1.86,1.22,3.24,3.03,3.3,1.85,.06,3.25-1.23,3.3-3.04,.06-1.84-1.24-3.25-3.05-3.31Z"/><path class="cls-12" d="M944.32,995.33c1.84,.03,3.22-1.27,3.25-3.09,.03-1.84-1.28-3.22-3.09-3.25-1.84-.03-3.21,1.27-3.24,3.1-.03,1.85,1.26,3.21,3.08,3.25Z"/><path class="cls-12" d="M960.27,979.52c1.83-.02,3.14-1.39,3.12-3.22-.03-1.83-1.39-3.14-3.23-3.12-1.83,.03-3.13,1.38-3.1,3.23,.02,1.83,1.37,3.14,3.22,3.11Z"/><path class="cls-12" d="M1023.49,1068.03c-1.84-.01-3.18,1.31-3.19,3.14-.01,1.85,1.29,3.19,3.13,3.2,1.84,.01,3.19-1.31,3.21-3.14,.01-1.84-1.32-3.19-3.14-3.21Z"/><path class="cls-12" d="M991.86,1068.03c-1.84-.01-3.18,1.31-3.19,3.14-.01,1.85,1.29,3.19,3.13,3.2,1.84,.01,3.19-1.31,3.21-3.14,.01-1.84-1.32-3.19-3.14-3.21Z"/><path class="cls-12" d="M960.08,1074.38c1.85,.06,3.25-1.23,3.31-3.04,.06-1.84-1.24-3.25-3.05-3.31-1.84-.06-3.24,1.23-3.29,3.05-.06,1.86,1.21,3.24,3.03,3.3Z"/><path class="cls-12" d="M928.58,1074.38c1.84,0,3.18-1.33,3.18-3.16,0-1.83-1.34-3.18-3.16-3.18-1.84,0-3.17,1.32-3.17,3.16,0,1.85,1.31,3.18,3.15,3.18Z"/><path class="cls-12" d="M896.94,1074.38c1.84,.01,3.19-1.31,3.2-3.14,0-1.84-1.32-3.19-3.14-3.2-1.84-.01-3.18,1.31-3.19,3.14-.01,1.85,1.3,3.19,3.13,3.2Z"/><path class="cls-12" d="M1039.29,1052.22c-1.84,0-3.18,1.31-3.19,3.14-.01,1.85,1.3,3.19,3.13,3.2,1.84,.01,3.19-1.31,3.2-3.14,0-1.84-1.32-3.19-3.14-3.2Z"/><path class="cls-12" d="M1007.77,1052.22c-1.84-.06-3.24,1.23-3.29,3.05-.06,1.86,1.21,3.24,3.03,3.3,1.85,.06,3.25-1.23,3.31-3.04,.06-1.84-1.24-3.25-3.05-3.31Z"/><path class="cls-12" d="M975.97,1058.57c1.84,.02,3.2-1.3,3.22-3.12,.02-1.84-1.31-3.2-3.12-3.22-1.84-.02-3.19,1.3-3.21,3.13-.02,1.85,1.28,3.2,3.11,3.22Z"/><g class="cls-11"><g class="cls-7"><path class="cls-5" d="M1795.25,547.75l60.48-60.48c-10.74,6.14-20.7,13.47-29.72,21.82l-8.94,8.94c-8.34,9.02-15.68,18.98-21.82,29.73Z"/><path class="cls-5" d="M1777.2,595.81l126.6-126.6c-3.5,.7-6.95,1.53-10.36,2.45l-113.78,113.78c-.93,3.41-1.75,6.87-2.46,10.36Z"/><path class="cls-5" d="M1774,628c0,.34,.01,.68,.01,1.03l163-163c-.34,0-.68-.02-1.03-.02-2.35,0-4.7,.06-7.03,.16l-154.8,154.8c-.1,2.33-.16,4.67-.16,7.03Z"/><path class="cls-5" d="M1776.51,656.55l188.02-188.03c-2.27-.4-4.55-.75-6.85-1.06l-182.24,182.24c.31,2.3,.66,4.58,1.06,6.85Z"/><path class="cls-5" d="M1782.67,680.41l205.73-205.73c-1.98-.68-3.98-1.31-5.99-1.91l-201.64,201.64c.6,2.02,1.23,4.02,1.91,6Z"/><path class="cls-5" d="M1791.6,701.5l217.89-217.89c-1.75-.89-3.53-1.75-5.32-2.58l-215.15,215.15c.83,1.79,1.69,3.57,2.58,5.33Z"/><path class="cls-5" d="M1802.85,720.27l225.41-225.42c-1.56-1.08-3.13-2.15-4.73-3.18l-223.86,223.86c1.03,1.6,2.09,3.18,3.18,4.73Z"/><path class="cls-5" d="M1816.15,736.99l228.83-228.83c-1.38-1.26-2.79-2.48-4.21-3.69l-228.31,228.31c1.21,1.42,2.43,2.83,3.69,4.21Z"/><path class="cls-5" d="M1831.44,751.72l228.27-228.27c-1.21-1.43-2.43-2.84-3.69-4.22l-228.81,228.81c1.38,1.26,2.8,2.48,4.22,3.69Z"/><path class="cls-5" d="M1848.7,764.48l223.77-223.77c-1.03-1.6-2.09-3.18-3.17-4.74l-225.34,225.34c1.56,1.08,3.14,2.14,4.73,3.17Z"/><path class="cls-5" d="M1868.1,775.1l215-215c-.83-1.79-1.69-3.57-2.58-5.33l-217.75,217.75c1.76,.89,3.54,1.75,5.33,2.58Z"/><path class="cls-5" d="M1889.9,783.32l201.41-201.41c-.6-2.02-1.23-4.02-1.9-6.01l-205.53,205.52c1.99,.68,3.99,1.3,6.01,1.9Z"/><path class="cls-5" d="M1914.65,788.59l181.92-181.92c-.3-2.3-.65-4.59-1.05-6.86l-187.73,187.73c2.27,.4,4.55,.74,6.85,1.05Z"/></g></g><g class="cls-11"><g class="cls-10"><path class="cls-3" d="M1839.76-81.25c40.22-10.78,82.24-5.25,118.3,15.57l-1,1.73c-73.49-42.43-167.8-17.16-210.23,56.33-20.55,35.6-26.02,77.07-15.38,116.78,10.64,39.71,36.11,72.89,71.71,93.45l-1,1.73c-36.06-20.82-61.86-54.44-72.64-94.66-10.78-40.22-5.25-82.24,15.58-118.3,20.82-36.06,54.44-61.86,94.66-72.64Z"/><path class="cls-3" d="M1842.55-70.83c35.91-9.62,75.48-5.57,110.14,14.44l-1,1.73c-68.37-39.47-156.1-15.96-195.58,52.41-39.47,68.37-15.96,156.11,52.41,195.58l-1,1.73c-69.32-40.02-93.16-128.99-53.14-198.31,20.01-34.66,52.26-57.95,88.17-67.58Z"/><path class="cls-3" d="M1845.31-60.53c34.69-9.29,70.92-4.52,102.02,13.43l-1,1.73c-30.64-17.69-66.33-22.39-100.5-13.23-34.17,9.16-62.73,31.07-80.42,61.71-17.69,30.64-22.39,66.33-13.23,100.5,9.16,34.17,31.07,62.73,61.71,80.42l-1,1.73c-31.1-17.96-53.35-46.95-62.64-81.64-9.29-34.69-4.52-70.92,13.43-102.02,17.96-31.1,46.95-53.35,81.64-62.64Z"/><path class="cls-3" d="M1848.1-50.11c30.6-8.2,64.33-4.75,93.86,12.3l-1,1.73c-58.12-33.56-132.71-13.57-166.27,44.55-33.56,58.12-13.57,132.71,44.55,166.27l-1,1.73c-59.08-34.11-79.39-109.92-45.28-169,17.05-29.54,44.54-49.39,75.14-57.59Z"/><path class="cls-3" d="M1850.88-39.75c27.95-7.49,58.75-4.34,85.73,11.24l-1,1.73c-53-30.6-121.02-12.38-151.62,40.63-30.6,53-12.38,121.02,40.63,151.62l-1,1.73c-53.96-31.15-72.51-100.39-41.36-154.35,15.58-26.98,40.67-45.11,68.62-52.59Z"/><path class="cls-3" d="M1853.65-29.4c25.29-6.78,53.17-3.93,77.59,10.17l-1,1.73c-47.88-27.64-109.32-11.18-136.96,36.7-13.39,23.19-16.95,50.21-10.02,76.08s23.52,47.49,46.71,60.88l-1,1.73c-23.66-13.66-40.58-35.71-47.65-62.09-7.07-26.39-3.44-53.94,10.22-77.6,14.1-24.42,36.81-40.82,62.11-47.6Z"/><path class="cls-3" d="M1856.43-19.04c22.64-6.07,47.59-3.52,69.45,9.1l-1,1.73c-42.76-24.69-97.62-9.98-122.31,32.77-24.69,42.76-9.98,97.62,32.77,122.31l-1,1.73c-43.71-25.24-58.74-81.33-33.5-125.04,12.62-21.86,32.95-36.54,55.59-42.61Z"/></g></g><g class="cls-11"><g class="cls-9"><g><path class="cls-3" d="M102.22,5.89c-.24-.15-.5-.25-.77-.3s-.55-.04-.83,.02c-.27,.06-.53,.17-.76,.34-.23,.16-.42,.36-.57,.6s-.25,.5-.3,.77c-.05,.28-.04,.55,.02,.83,.06,.27,.17,.53,.34,.76s.36,.42,.6,.57,.5,.25,.77,.3,.55,.04,.83-.02,.53-.17,.76-.34c.23-.16,.42-.36,.57-.6s.25-.5,.3-.77c.05-.28,.04-.55-.02-.83-.06-.27-.17-.53-.34-.76s-.36-.42-.6-.57Z"/><path class="cls-3" d="M112.7,29.06c-.97-.61-1.26-1.89-.64-2.86s1.89-1.26,2.86-.64,1.26,1.89,.64,2.86-1.89,1.26-2.86,.64Z"/><path class="cls-3" d="M121.89,50.54c-.94-.6-1.22-1.84-.63-2.79s1.84-1.22,2.79-.63,1.22,1.84,.63,2.79-1.84,1.22-2.79,.63Z"/><path class="cls-3" d="M129.36,69.94c-.22-.14-.46-.23-.72-.28-.26-.04-.51-.04-.77,.02s-.49,.16-.7,.31c-.21,.15-.39,.34-.53,.56s-.23,.46-.28,.72c-.04,.26-.04,.51,.02,.77s.16,.49,.31,.7c.15,.21,.34,.39,.56,.53s.46,.23,.72,.28c.26,.04,.51,.04,.77-.02,.25-.06,.49-.16,.7-.31,.21-.15,.39-.34,.53-.56s.23-.46,.28-.72c.04-.26,.04-.51-.02-.77-.06-.25-.16-.49-.31-.7-.15-.21-.34-.39-.56-.53Z"/><path class="cls-3" d="M128.67,96.57c-.89-.56-1.16-1.75-.59-2.64s1.75-1.16,2.64-.6,1.16,1.75,.6,2.64-1.75,1.16-2.64,.59Z"/><path class="cls-3" d="M128.43,119.42c.16-.19,.29-.39,.37-.63s.11-.47,.1-.72c-.02-.25-.08-.48-.19-.7-.11-.22-.26-.41-.44-.58-.19-.16-.39-.29-.63-.37-.23-.08-.47-.11-.72-.1-.25,.02-.48,.08-.7,.19s-.41,.26-.58,.44c-.16,.19-.29,.39-.37,.63-.08,.23-.11,.47-.1,.72,.02,.25,.08,.48,.19,.7,.11,.22,.26,.41,.44,.58,.19,.16,.39,.29,.63,.37,.23,.08,.47,.11,.72,.1,.25-.02,.48-.08,.7-.19,.22-.11,.41-.26,.58-.44Z"/><path class="cls-3" d="M119.44,142.15c-.85-.53-1.1-1.65-.56-2.5s1.65-1.1,2.5-.56,1.1,1.65,.56,2.5c-.53,.84-1.65,1.1-2.5,.56Z"/><path class="cls-3" d="M109.08,163.06c-.82-.52-1.06-1.6-.55-2.42s1.6-1.06,2.42-.55,1.06,1.6,.55,2.42-1.6,1.06-2.42,.55Z"/><path class="cls-3" d="M95.31,181.9c-.8-.5-1.03-1.56-.53-2.35s1.56-1.03,2.35-.53,1.03,1.56,.53,2.35-1.56,1.03-2.35,.53Z"/><path class="cls-3" d="M78.5,198.09c-.77-.49-1-1.51-.51-2.28s1.51-1,2.28-.51,1,1.51,.51,2.28-1.51,1-2.28,.51Z"/><path class="cls-3" d="M59.14,211.13c-.75-.47-.97-1.46-.5-2.21s1.46-.97,2.21-.5,.97,1.46,.5,2.21-1.46,.97-2.21,.5Z"/><path class="cls-3" d="M37.82,220.63c-.72-.46-.94-1.41-.48-2.13s1.41-.94,2.13-.48,.94,1.41,.48,2.13-1.41,.94-2.13,.48Z"/><path class="cls-3" d="M15.17,226.35c-.7-.44-.91-1.36-.46-2.06s1.36-.91,2.06-.46,.91,1.36,.47,2.06c-.44,.7-1.36,.91-2.06,.46Z"/><path class="cls-3" d="M78.13,1.15c-1-.63-1.3-1.96-.67-2.96s1.96-1.3,2.96-.67,1.3,1.96,.67,2.96c-.63,1-1.96,1.3-2.96,.67Z"/><path class="cls-3" d="M95.81,14.82c-.23-.15-.48-.24-.75-.29-.27-.05-.54-.04-.8,.02s-.51,.17-.73,.33c-.22,.16-.41,.35-.55,.58s-.24,.48-.29,.75-.04,.54,.02,.8c.06,.27,.17,.51,.33,.73,.16,.22,.35,.41,.58,.55s.48,.24,.75,.29c.27,.05,.54,.04,.8-.02,.27-.06,.51-.17,.73-.33,.22-.16,.41-.35,.55-.58s.24-.48,.29-.75c.05-.27,.04-.54-.02-.8-.06-.27-.17-.51-.33-.73-.16-.22-.35-.41-.58-.55Z"/><path class="cls-3" d="M105.62,38.01c-.92-.58-1.2-1.8-.61-2.73,.58-.92,1.8-1.2,2.73-.61s1.2,1.8,.61,2.73c-.58,.92-1.8,1.2-2.73,.61Z"/><path class="cls-3" d="M113.8,59.59c-.88-.56-1.15-1.73-.59-2.61s1.73-1.15,2.61-.59,1.15,1.73,.59,2.61-1.73,1.15-2.61,.59Z"/><path class="cls-3" d="M117.89,82.28c-.84-.53-1.09-1.65-.56-2.49s1.65-1.1,2.49-.56,1.1,1.65,.56,2.49-1.65,1.1-2.49,.56Z"/><path class="cls-3" d="M117.73,105.33c-.8-.51-1.04-1.57-.54-2.38s1.57-1.04,2.38-.54,1.04,1.57,.54,2.38-1.57,1.04-2.38,.54Z"/><path class="cls-3" d="M115.07,125.18c-.18-.12-.38-.19-.6-.23-.21-.04-.43-.03-.64,.02-.21,.05-.41,.13-.58,.26-.18,.13-.32,.28-.44,.46s-.19,.38-.23,.6c-.04,.21-.03,.43,.02,.64,.05,.21,.13,.41,.26,.58,.13,.18,.28,.32,.46,.44s.38,.19,.6,.23c.21,.04,.43,.03,.64-.02s.41-.13,.58-.26c.18-.13,.32-.28,.44-.46s.19-.38,.23-.6c.04-.21,.03-.43-.02-.64-.05-.21-.13-.41-.26-.58-.13-.18-.28-.32-.46-.44Z"/><path class="cls-3" d="M104.79,149.35c-.73-.46-.94-1.42-.48-2.14s1.42-.94,2.14-.48,.94,1.42,.48,2.14-1.42,.94-2.14,.48Z"/><circle class="cls-3" cx="93.26" cy="167.58" r="1.47"/><path class="cls-3" d="M76.8,185.71c-.65-.41-.84-1.26-.43-1.91s1.26-.84,1.91-.43,.84,1.26,.43,1.91-1.27,.84-1.91,.43Z"/><path class="cls-3" d="M58.26,199.4c-.61-.38-.79-1.19-.4-1.79s1.19-.79,1.8-.4,.79,1.19,.4,1.8c-.38,.61-1.19,.79-1.79,.4Z"/><path class="cls-3" d="M37.5,209.42c-.57-.36-.74-1.11-.38-1.68s1.11-.74,1.68-.38,.74,1.11,.38,1.68-1.11,.74-1.68,.38Z"/><path class="cls-3" d="M15.25,215.46c-.53-.33-.69-1.03-.35-1.56s1.03-.69,1.56-.35,.69,1.03,.35,1.56-1.03,.69-1.56,.35Z"/><path class="cls-3" d="M70.96,10.76c-.95-.6-1.23-1.85-.63-2.8,.6-.95,1.85-1.23,2.8-.63s1.23,1.85,.63,2.8-1.85,1.23-2.8,.63Z"/><path class="cls-3" d="M85.58,27.39c-.85-.54-1.11-1.67-.57-2.52s1.67-1.11,2.52-.57,1.11,1.67,.57,2.52-1.67,1.11-2.52,.57Z"/><path class="cls-3" d="M98.37,43.79c-.18-.12-.38-.19-.59-.23-.21-.04-.42-.03-.63,.02-.21,.05-.4,.13-.58,.26-.18,.12-.32,.28-.44,.46s-.19,.38-.23,.59c-.04,.21-.03,.42,.02,.63,.05,.21,.13,.4,.26,.58,.12,.18,.28,.32,.46,.44s.38,.19,.59,.23c.21,.04,.42,.03,.63-.02,.21-.05,.4-.13,.58-.26,.18-.12,.32-.28,.44-.46s.19-.38,.23-.59c.04-.21,.03-.42-.02-.63-.05-.21-.13-.4-.26-.58-.12-.18-.28-.32-.46-.44Z"/><path class="cls-3" d="M103.71,67.45c-.67-.42-.86-1.3-.44-1.97s1.3-.86,1.97-.44,.86,1.3,.44,1.97-1.3,.86-1.97,.44Z"/><path class="cls-3" d="M106.56,89.32c-.57-.36-.74-1.12-.38-1.69s1.12-.74,1.69-.38,.74,1.12,.38,1.69-1.12,.74-1.69,.38Z"/><path class="cls-3" d="M105.07,111.29c-.48-.3-.62-.93-.32-1.41s.93-.62,1.41-.32,.62,.93,.32,1.41-.93,.62-1.41,.32Z"/><path class="cls-3" d="M99.26,132.52c-.38-.24-.5-.75-.26-1.13s.75-.5,1.13-.25,.5,.75,.26,1.13-.75,.5-1.13,.26Z"/><path class="cls-3" d="M90.04,151.14c-.14-.09-.3-.12-.47-.08s-.3,.13-.39,.27-.12,.3-.08,.47,.13,.3,.27,.39,.3,.12,.47,.08,.3-.13,.39-.27,.12-.3,.08-.47-.13-.3-.27-.39Z"/></g></g></g><g class="cls-11"><g class="cls-8"><polygon class="cls-3" points="1919.67 1002.43 1903.22 1018.79 1886.78 1002.43 1870.33 1018.79 1853.9 1002.43 1839.39 1016.86 1824.89 1002.43 1808.44 1018.79 1792 1002.43 1775.55 1018.79 1759.11 1002.43 1742.8 1018.66 1744.61 1020.48 1759.11 1006.05 1775.55 1022.41 1792 1006.05 1808.44 1022.41 1824.89 1006.05 1839.39 1020.49 1853.89 1006.05 1870.33 1022.41 1886.78 1006.05 1903.22 1022.41 1919.67 1006.05 1934.18 1020.48 1935.99 1018.66 1919.67 1002.43"/><polygon class="cls-5" points="1919.67 973.18 1903.22 989.54 1886.78 973.18 1870.33 989.54 1853.9 973.18 1840.85 986.15 1840.85 989.79 1853.89 976.8 1870.33 993.16 1886.78 976.8 1903.22 993.16 1919.67 976.8 1934.18 991.23 1935.99 989.41 1919.67 973.18"/></g></g></svg>