<?xml version="1.0" encoding="UTF-8"?><svg id="Layer_1" xmlns="http://www.w3.org/2000/svg" xmlns:xlink="http://www.w3.org/1999/xlink" viewBox="0 0 206.21 297.09"><defs><style>.cls-1{fill:none;}.cls-2{clip-path:url(#clippath);}.cls-3{fill:#024778;}.cls-4{opacity:.3;}</style><clipPath id="clippath"><rect class="cls-1" x="14.05" y="19.39" width="165.3" height="242.62"/></clipPath></defs><g class="cls-4"><g class="cls-2"><g><path class="cls-3" d="M98.05,11.78c-1.02-.64-1.32-1.99-.68-3s1.99-1.32,3-.68,1.32,1.99,.68,3-1.99,1.32-3,.68Z"/><path class="cls-3" d="M116.27,25.28c-.24-.15-.5-.25-.77-.3s-.55-.04-.83,.02c-.27,.06-.53,.17-.76,.34-.23,.16-.42,.36-.57,.6s-.25,.5-.3,.77c-.05,.28-.04,.55,.02,.83,.06,.27,.17,.53,.34,.76s.36,.42,.6,.57,.5,.25,.77,.3,.55,.04,.83-.02,.53-.17,.76-.34c.23-.16,.42-.36,.57-.6s.25-.5,.3-.77c.05-.28,.04-.55-.02-.83-.06-.27-.17-.53-.34-.76s-.36-.42-.6-.57Z"/><path class="cls-3" d="M126.75,48.45c-.97-.61-1.26-1.89-.64-2.86s1.89-1.26,2.86-.64,1.26,1.89,.64,2.86-1.89,1.26-2.86,.64Z"/><path class="cls-3" d="M135.94,69.93c-.94-.6-1.22-1.84-.63-2.79s1.84-1.22,2.79-.63,1.22,1.84,.63,2.79-1.84,1.22-2.79,.63Z"/><path class="cls-3" d="M143.41,89.33c-.22-.14-.46-.23-.72-.28-.26-.04-.51-.04-.77,.02s-.49,.16-.7,.31c-.21,.15-.39,.34-.53,.56s-.23,.46-.28,.72c-.04,.26-.04,.51,.02,.77s.16,.49,.31,.7c.15,.21,.34,.39,.56,.53s.46,.23,.72,.28c.26,.04,.51,.04,.77-.02,.25-.06,.49-.16,.7-.31,.21-.15,.39-.34,.53-.56s.23-.46,.28-.72c.04-.26,.04-.51-.02-.77-.06-.25-.16-.49-.31-.7-.15-.21-.34-.39-.56-.53Z"/><path class="cls-3" d="M142.72,115.96c-.89-.56-1.16-1.75-.59-2.64s1.75-1.16,2.64-.6,1.16,1.75,.6,2.64-1.75,1.16-2.64,.59Z"/><path class="cls-3" d="M142.48,138.81c.16-.19,.29-.39,.37-.63s.11-.47,.1-.72c-.02-.25-.08-.48-.19-.7-.11-.22-.26-.41-.44-.58-.19-.16-.39-.29-.63-.37-.23-.08-.47-.11-.72-.1-.25,.02-.48,.08-.7,.19s-.41,.26-.58,.44c-.16,.19-.29,.39-.37,.63-.08,.23-.11,.47-.1,.72,.02,.25,.08,.48,.19,.7,.11,.22,.26,.41,.44,.58,.19,.16,.39,.29,.63,.37,.23,.08,.47,.11,.72,.1,.25-.02,.48-.08,.7-.19,.22-.11,.41-.26,.58-.44Z"/><path class="cls-3" d="M133.49,161.54c-.85-.53-1.1-1.65-.56-2.5s1.65-1.1,2.5-.56,1.1,1.65,.56,2.5c-.53,.84-1.65,1.1-2.5,.56Z"/><path class="cls-3" d="M123.13,182.45c-.82-.52-1.06-1.6-.55-2.42s1.6-1.06,2.42-.55,1.06,1.6,.55,2.42-1.6,1.06-2.42,.55Z"/><path class="cls-3" d="M109.36,201.29c-.8-.5-1.03-1.56-.53-2.35s1.56-1.03,2.35-.53,1.03,1.56,.53,2.35-1.56,1.03-2.35,.53Z"/><path class="cls-3" d="M92.55,217.48c-.77-.49-1-1.51-.51-2.28s1.51-1,2.28-.51,1,1.51,.51,2.28-1.51,1-2.28,.51Z"/><path class="cls-3" d="M73.19,230.51c-.75-.47-.97-1.46-.5-2.21s1.46-.97,2.21-.5,.97,1.46,.5,2.21-1.46,.97-2.21,.5Z"/><path class="cls-3" d="M51.87,240.02c-.72-.46-.94-1.41-.48-2.13s1.41-.94,2.13-.48,.94,1.41,.48,2.13-1.41,.94-2.13,.48Z"/><path class="cls-3" d="M29.22,245.73c-.7-.44-.91-1.36-.46-2.06s1.36-.91,2.06-.46,.91,1.36,.47,2.06c-.44,.7-1.36,.91-2.06,.46Z"/><path class="cls-3" d="M5.93,247.49c-.67-.43-.87-1.32-.45-1.99s1.32-.87,1.99-.45,.87,1.32,.45,1.99-1.32,.87-1.99,.45Z"/><path class="cls-3" d="M76.19,2.75c-.25-.16-.52-.26-.81-.31-.29-.05-.58-.04-.87,.02-.29,.06-.55,.18-.8,.35-.24,.17-.44,.38-.6,.63s-.26,.52-.31,.81-.04,.58,.02,.87c.06,.29,.18,.55,.35,.8,.17,.24,.38,.44,.63,.6s.52,.26,.81,.31c.29,.05,.58,.04,.87-.02,.29-.06,.55-.18,.8-.35s.44-.38,.6-.63,.26-.52,.31-.81c.05-.29,.04-.58-.02-.87-.06-.29-.18-.55-.35-.8-.17-.24-.38-.44-.63-.6Z"/><path class="cls-3" d="M92.18,20.54c-1-.63-1.3-1.96-.67-2.96s1.96-1.3,2.96-.67,1.3,1.96,.67,2.96c-.63,1-1.96,1.3-2.96,.67Z"/><path class="cls-3" d="M109.86,34.21c-.23-.15-.48-.24-.75-.29-.27-.05-.54-.04-.8,.02s-.51,.17-.73,.33c-.22,.16-.41,.35-.55,.58s-.24,.48-.29,.75-.04,.54,.02,.8c.06,.27,.17,.51,.33,.73,.16,.22,.35,.41,.58,.55s.48,.24,.75,.29c.27,.05,.54,.04,.8-.02,.27-.06,.51-.17,.73-.33,.22-.16,.41-.35,.55-.58s.24-.48,.29-.75c.05-.27,.04-.54-.02-.8-.06-.27-.17-.51-.33-.73-.16-.22-.35-.41-.58-.55Z"/><path class="cls-3" d="M119.67,57.4c-.92-.58-1.2-1.8-.61-2.73,.58-.92,1.8-1.2,2.73-.61s1.2,1.8,.61,2.73c-.58,.92-1.8,1.2-2.73,.61Z"/><path class="cls-3" d="M127.85,78.98c-.88-.56-1.15-1.73-.59-2.61s1.73-1.15,2.61-.59,1.15,1.73,.59,2.61-1.73,1.15-2.61,.59Z"/><path class="cls-3" d="M131.94,101.67c-.84-.53-1.09-1.65-.56-2.49s1.65-1.1,2.49-.56,1.1,1.65,.56,2.49-1.65,1.1-2.49,.56Z"/><path class="cls-3" d="M131.78,124.72c-.8-.51-1.04-1.57-.54-2.38s1.57-1.04,2.38-.54,1.04,1.57,.54,2.38-1.57,1.04-2.38,.54Z"/><path class="cls-3" d="M129.12,144.57c-.18-.12-.38-.19-.6-.23-.21-.04-.43-.03-.64,.02-.21,.05-.41,.13-.58,.26-.18,.13-.32,.28-.44,.46s-.19,.38-.23,.6c-.04,.21-.03,.43,.02,.64,.05,.21,.13,.41,.26,.58,.13,.18,.28,.32,.46,.44s.38,.19,.6,.23c.21,.04,.43,.03,.64-.02s.41-.13,.58-.26c.18-.13,.32-.28,.44-.46s.19-.38,.23-.6c.04-.21,.03-.43-.02-.64-.05-.21-.13-.41-.26-.58-.13-.18-.28-.32-.46-.44Z"/><path class="cls-3" d="M118.84,168.74c-.73-.46-.94-1.42-.48-2.14s1.42-.94,2.14-.48,.94,1.42,.48,2.14-1.42,.94-2.14,.48Z"/><circle class="cls-3" cx="107.31" cy="186.97" r="1.47"/><path class="cls-3" d="M90.85,205.1c-.65-.41-.84-1.26-.43-1.91s1.26-.84,1.91-.43,.84,1.26,.43,1.91-1.27,.84-1.91,.43Z"/><path class="cls-3" d="M72.31,218.78c-.61-.38-.79-1.19-.4-1.79s1.19-.79,1.8-.4,.79,1.19,.4,1.8c-.38,.61-1.19,.79-1.79,.4Z"/><path class="cls-3" d="M51.55,228.81c-.57-.36-.74-1.11-.38-1.68s1.11-.74,1.68-.38,.74,1.11,.38,1.68-1.11,.74-1.68,.38Z"/><path class="cls-3" d="M29.3,234.85c-.53-.33-.69-1.03-.35-1.56s1.03-.69,1.56-.35,.69,1.03,.35,1.56-1.03,.69-1.56,.35Z"/><path class="cls-3" d="M6.3,236.71c-.49-.31-.63-.96-.33-1.45s.96-.64,1.45-.33,.64,.96,.33,1.45-.96,.64-1.45,.33Z"/><path class="cls-3" d="M69.75,12.92c-.25-.16-.52-.26-.81-.31-.29-.05-.58-.04-.87,.02-.29,.06-.55,.18-.8,.35-.24,.17-.44,.38-.6,.63s-.26,.52-.31,.81c-.05,.29-.04,.58,.02,.87,.06,.29,.18,.55,.35,.8s.38,.44,.63,.6,.52,.26,.81,.31,.58,.04,.87-.02c.29-.06,.55-.18,.8-.35,.24-.17,.44-.38,.6-.63s.26-.52,.31-.81c.05-.29,.04-.58-.02-.87-.06-.29-.18-.55-.35-.8-.17-.24-.38-.44-.63-.6Z"/><path class="cls-3" d="M85.01,30.15c-.95-.6-1.23-1.85-.63-2.8s1.85-1.23,2.8-.63,1.23,1.85,.63,2.8-1.85,1.23-2.8,.63Z"/><path class="cls-3" d="M99.63,46.78c-.85-.54-1.11-1.67-.57-2.52s1.67-1.11,2.52-.57,1.11,1.67,.57,2.52-1.67,1.11-2.52,.57Z"/><path class="cls-3" d="M112.42,63.18c-.18-.12-.38-.19-.59-.23-.21-.04-.42-.03-.63,.02-.21,.05-.4,.13-.58,.26-.18,.12-.32,.28-.44,.46s-.19,.38-.23,.59c-.04,.21-.03,.42,.02,.63,.05,.21,.13,.4,.26,.58,.12,.18,.28,.32,.46,.44s.38,.19,.59,.23c.21,.04,.42,.03,.63-.02,.21-.05,.4-.13,.58-.26,.18-.12,.32-.28,.44-.46s.19-.38,.23-.59c.04-.21,.03-.42-.02-.63-.05-.21-.13-.4-.26-.58-.12-.18-.28-.32-.46-.44Z"/><path class="cls-3" d="M117.76,86.84c-.67-.42-.86-1.3-.44-1.97s1.3-.86,1.97-.44,.86,1.3,.44,1.97-1.3,.86-1.97,.44Z"/><path class="cls-3" d="M120.61,108.7c-.57-.36-.74-1.12-.38-1.69s1.12-.74,1.69-.38,.74,1.12,.38,1.69-1.12,.74-1.69,.38Z"/><path class="cls-3" d="M119.12,130.68c-.48-.3-.62-.93-.32-1.41s.93-.62,1.41-.32,.62,.93,.32,1.41-.93,.62-1.41,.32Z"/><path class="cls-3" d="M113.31,151.91c-.38-.24-.5-.75-.26-1.13s.75-.5,1.13-.25,.5,.75,.26,1.13-.75,.5-1.13,.26Z"/><path class="cls-3" d="M104.09,170.53c-.14-.09-.3-.12-.47-.08s-.3,.13-.39,.27-.12,.3-.08,.47,.13,.3,.27,.39,.3,.12,.47,.08,.3-.13,.39-.27,.12-.3,.08-.47-.13-.3-.27-.39Z"/></g></g></g></svg>