<?xml version="1.0" encoding="UTF-8"?><svg id="Layer_1" xmlns="http://www.w3.org/2000/svg" viewBox="0 0 154.49 52.08"><defs><style>.cls-1{fill:#ffd729;}</style></defs><path class="cls-1" d="M27.9,11.59c.54,0,1.08,.03,1.62,.08,.54,.05,1.07,.13,1.61,.24,.53,.11,1.06,.24,1.58,.39,.52,.16,1.03,.34,1.53,.55,.5,.21,.99,.44,1.47,.69,.48,.26,.94,.53,1.39,.83,.45,.3,.89,.62,1.3,.97,.42,.34,.82,.71,1.2,1.09s.75,.78,1.09,1.2c.34,.42,.67,.85,.97,1.3,.3,.45,.58,.91,.83,1.39,.26,.48,.49,.97,.69,1.47s.39,1.01,.55,1.53c.16,.52,.29,1.04,.39,1.58,.11,.53,.19,1.07,.24,1.61,.05,.54,.08,1.08,.08,1.62s-.03,1.08-.08,1.62c-.05,.54-.13,1.07-.24,1.61-.11,.53-.24,1.06-.39,1.58s-.34,1.03-.55,1.53c-.21,.5-.44,.99-.69,1.47-.26,.48-.53,.94-.83,1.39-.3,.45-.62,.89-.97,1.3-.34,.42-.71,.82-1.09,1.2-.38,.38-.78,.75-1.2,1.09-.42,.34-.85,.67-1.3,.97-.45,.3-.91,.58-1.39,.83s-.97,.49-1.47,.69-1.01,.39-1.53,.55c-.52,.16-1.04,.29-1.58,.39-.53,.11-1.07,.19-1.61,.24-.54,.05-1.08,.08-1.62,.08s-1.08-.03-1.62-.08c-.54-.05-1.07-.13-1.61-.24-.53-.11-1.06-.24-1.58-.39-.52-.16-1.03-.34-1.53-.55-.5-.21-.99-.44-1.47-.69-.48-.26-.94-.53-1.39-.83-.45-.3-.89-.62-1.3-.97-.42-.34-.82-.71-1.2-1.09-.38-.38-.75-.78-1.09-1.2s-.67-.85-.97-1.3c-.3-.45-.58-.91-.83-1.39-.26-.48-.49-.97-.69-1.47-.21-.5-.39-1.01-.55-1.53s-.29-1.04-.39-1.58c-.11-.53-.19-1.07-.24-1.61-.05-.54-.08-1.08-.08-1.62s.03-1.08,.08-1.62c.05-.54,.13-1.07,.24-1.61,.11-.53,.24-1.06,.39-1.58,.16-.52,.34-1.03,.55-1.53s.44-.99,.69-1.47c.26-.48,.53-.94,.83-1.39,.3-.45,.62-.89,.97-1.3,.34-.42,.71-.82,1.09-1.2s.78-.75,1.2-1.09c.42-.34,.85-.67,1.3-.97,.45-.3,.91-.58,1.39-.83,.48-.26,.97-.49,1.47-.69,.5-.21,1.01-.39,1.53-.55,.52-.16,1.04-.29,1.58-.39,.53-.11,1.07-.19,1.61-.24,.54-.05,1.08-.08,1.62-.08Z"/><polygon class="cls-1" points="107.93 28.1 116.1 19.92 113.7 17.51 103.11 28.1 113.7 38.69 116.1 36.28 107.93 28.1"/><polygon class="cls-1" points="122.2 28.1 130.37 19.92 127.97 17.51 117.38 28.1 127.97 38.69 130.37 36.28 122.2 28.1"/><polygon class="cls-1" points="136.64 28.1 144.82 19.92 142.41 17.51 131.83 28.1 142.41 38.69 144.82 36.28 136.64 28.1"/><polygon class="cls-1" points="79.21 28.1 87.39 19.92 84.98 17.51 74.4 28.1 84.98 38.69 87.39 36.28 79.21 28.1"/><polygon class="cls-1" points="93.48 28.1 101.66 19.92 99.25 17.51 88.67 28.1 99.25 38.69 101.66 36.28 93.48 28.1"/></svg>