<?xml version="1.0" encoding="UTF-8"?><svg id="Layer_1" xmlns="http://www.w3.org/2000/svg" xmlns:xlink="http://www.w3.org/1999/xlink" viewBox="0 0 202.72 182.45"><defs><style>.cls-1{fill:none;}.cls-2{clip-path:url(#clippath);}.cls-3{fill:#024778;}.cls-4{opacity:.3;}</style><clipPath id="clippath"><rect class="cls-1" x="30.25" y="12.88" width="164.59" height="148.03"/></clipPath></defs><g class="cls-4"><g class="cls-2"><g><path class="cls-3" d="M3.62,69.83L39.04,34.42c-6.29,3.59-12.12,7.89-17.4,12.78l-5.23,5.23c-4.89,5.28-9.18,11.12-12.78,17.41Z"/><path class="cls-3" d="M-6.94,97.97L67.18,23.85c-2.05,.41-4.07,.9-6.07,1.44L-5.5,91.91c-.54,2-1.02,4.02-1.44,6.07Z"/><path class="cls-3" d="M-8.82,116.82c0,.2,0,.4,0,.6L86.63,21.98c-.2,0-.4,0-.6,0-1.38,0-2.75,.03-4.12,.09L-8.72,112.7c-.06,1.36-.09,2.74-.09,4.12Z"/><path class="cls-3" d="M-7.35,133.53L102.74,23.44c-1.33-.24-2.67-.44-4.01-.62L-7.97,129.52c.18,1.35,.38,2.68,.62,4.01Z"/><path class="cls-3" d="M-3.74,147.5L116.71,27.05c-1.16-.4-2.33-.77-3.51-1.12L-4.86,143.99c.35,1.18,.72,2.35,1.12,3.51Z"/><path class="cls-3" d="M1.49,159.85L129.06,32.28c-1.03-.52-2.07-1.02-3.12-1.51L-.03,156.74c.49,1.05,.99,2.09,1.51,3.12Z"/><path class="cls-3" d="M8.07,170.84L140.05,38.86c-.91-.63-1.83-1.26-2.77-1.86L6.21,168.07c.6,.93,1.22,1.86,1.86,2.77Z"/><path class="cls-3" d="M15.86,180.63L149.84,46.65c-.81-.74-1.63-1.45-2.47-2.16L13.7,178.17c.71,.83,1.42,1.66,2.16,2.47Z"/><path class="cls-3" d="M24.81,189.26L158.46,55.6c-.71-.83-1.42-1.66-2.16-2.47L22.34,187.1c.81,.74,1.64,1.45,2.47,2.16Z"/><path class="cls-3" d="M34.92,196.73L165.93,65.71c-.6-.94-1.22-1.86-1.85-2.77L32.14,194.87c.91,.63,1.84,1.25,2.77,1.85Z"/><path class="cls-3" d="M46.28,202.95l125.88-125.88c-.49-1.05-.99-2.09-1.51-3.12L43.16,201.44c1.03,.52,2.07,1.02,3.12,1.51Z"/><path class="cls-3" d="M59.04,207.76l117.93-117.93c-.35-1.18-.72-2.36-1.11-3.52L55.52,206.65c1.16,.39,2.34,.76,3.52,1.11Z"/><path class="cls-3" d="M73.54,210.84l106.51-106.51c-.18-1.35-.38-2.69-.61-4.01l-109.91,109.91c1.33,.23,2.67,.44,4.01,.61Z"/><path class="cls-3" d="M86.03,211.66c1.47,0,2.92-.04,4.37-.1l90.37-90.37c.07-1.45,.1-2.9,.1-4.37,0-.12,0-.24,0-.36l-95.2,95.2c.12,0,.24,0,.36,0Z"/><path class="cls-3" d="M111.27,208.26l66.19-66.19c.55-2.01,1.05-4.04,1.47-6.1l-73.76,73.76c2.06-.42,4.09-.92,6.1-1.47Z"/></g></g></g></svg>