<?xml version="1.0" encoding="UTF-8"?><svg id="Layer_1" xmlns="http://www.w3.org/2000/svg" xmlns:xlink="http://www.w3.org/1999/xlink" viewBox="0 0 258.99 389.73"><defs><style>.cls-1{fill:none;}.cls-2{clip-path:url(#clippath);}.cls-3{fill:#ffd729;}.cls-4{opacity:.3;}</style><clipPath id="clippath"><rect class="cls-1" x="23.7" y="8.97" width="165.51" height="380.77"/></clipPath></defs><g class="cls-4"><g class="cls-2"><path class="cls-3" d="M63.67,114.36l60.48-60.48c-10.74,6.14-20.7,13.47-29.72,21.82l-8.94,8.94c-8.34,9.02-15.68,18.98-21.82,29.73Z"/><path class="cls-3" d="M45.62,162.42L172.22,35.82c-3.5,.7-6.95,1.53-10.36,2.45L48.08,152.06c-.93,3.41-1.75,6.87-2.46,10.36Z"/><path class="cls-3" d="M42.42,194.61c0,.34,.01,.68,.01,1.03L205.43,32.63c-.34,0-.68-.02-1.03-.02-2.35,0-4.7,.06-7.03,.16L42.58,187.58c-.1,2.33-.16,4.67-.16,7.03Z"/><path class="cls-3" d="M44.93,223.16L232.96,35.13c-2.27-.4-4.55-.75-6.85-1.06L43.87,216.31c.31,2.3,.66,4.58,1.06,6.85Z"/><path class="cls-3" d="M51.09,247.02L256.82,41.29c-1.98-.68-3.98-1.31-5.99-1.91L49.18,241.02c.6,2.02,1.23,4.02,1.91,6Z"/><path class="cls-3" d="M60.02,268.11L277.91,50.22c-1.75-.89-3.53-1.75-5.32-2.58L57.44,262.78c.83,1.79,1.69,3.57,2.58,5.33Z"/><path class="cls-3" d="M71.27,286.88L296.68,61.47c-1.56-1.08-3.13-2.15-4.73-3.18L68.09,282.15c1.03,1.6,2.09,3.18,3.18,4.73Z"/><path class="cls-3" d="M84.57,303.6L313.4,74.77c-1.38-1.26-2.79-2.48-4.21-3.69L80.88,299.38c1.21,1.42,2.43,2.83,3.69,4.21Z"/><path class="cls-3" d="M99.86,318.33L328.13,90.06c-1.21-1.43-2.43-2.84-3.69-4.22L95.64,314.64c1.38,1.26,2.8,2.48,4.22,3.69Z"/><path class="cls-3" d="M117.12,331.09L340.89,107.32c-1.03-1.6-2.09-3.18-3.17-4.74L112.38,327.92c1.56,1.08,3.14,2.14,4.73,3.17Z"/><path class="cls-3" d="M136.52,341.71L351.52,126.72c-.83-1.79-1.69-3.57-2.58-5.33l-217.75,217.75c1.76,.89,3.54,1.75,5.33,2.58Z"/><path class="cls-3" d="M158.32,349.93l201.41-201.41c-.6-2.02-1.23-4.02-1.9-6.01l-205.53,205.52c1.99,.68,3.99,1.3,6.01,1.9Z"/><path class="cls-3" d="M183.07,355.2l181.92-181.92c-.3-2.3-.65-4.59-1.05-6.86l-187.73,187.73c2.27,.4,4.55,.74,6.85,1.05Z"/></g></g></svg>