<?xml version="1.0" encoding="UTF-8"?><svg id="Layer_1" xmlns="http://www.w3.org/2000/svg" xmlns:xlink="http://www.w3.org/1999/xlink" viewBox="0 0 171.96 236.97"><defs><style>.cls-1{fill:none;}.cls-2{clip-path:url(#clippath);}.cls-3,.cls-4{fill:#024778;}.cls-5,.cls-4{opacity:.3;}</style><clipPath id="clippath"><rect class="cls-1" x="-3.69" y="18.83" width="214.35" height="223.03"/></clipPath></defs><polygon class="cls-4" points="141.08 217.66 145.15 210.6 146.64 216.17 141.08 217.66"/><polygon class="cls-4" points="130.76 220.42 142.39 200.28 143.88 205.85 136.32 218.93 130.76 220.42"/><polygon class="cls-4" points="99.87 228.7 134.12 169.39 135.58 174.88 105.35 227.24 99.87 228.7"/><polygon class="cls-4" points="110.11 225.96 136.86 179.63 138.35 185.2 115.68 224.47 110.11 225.96"/><polygon class="cls-4" points="120.43 223.2 139.62 189.95 141.11 195.52 126 221.7 120.43 223.2"/><g class="cls-5"><g class="cls-2"><path class="cls-3" d="M130.42-62.42c40.22-10.78,82.24-5.25,118.3,15.57l-1,1.73C174.23-87.54,79.92-62.27,37.49,11.22c-20.55,35.6-26.02,77.07-15.38,116.78,10.64,39.71,36.11,72.89,71.71,93.45l-1,1.73c-36.06-20.82-61.86-54.44-72.64-94.66C9.41,88.3,14.94,46.28,35.76,10.22c20.82-36.06,54.44-61.86,94.66-72.64Z"/><path class="cls-3" d="M133.22-51.99c35.91-9.62,75.48-5.57,110.14,14.44l-1,1.73C173.99-75.3,86.26-51.79,46.78,16.58,7.31,84.95,30.82,172.69,99.19,212.16l-1,1.73C28.86,173.87,5.03,84.91,45.05,15.58c20.01-34.66,52.26-57.95,88.17-67.58Z"/><path class="cls-3" d="M135.98-41.7c34.69-9.29,70.92-4.52,102.02,13.43l-1,1.73c-30.64-17.69-66.33-22.39-100.5-13.23C102.32-30.61,73.76-8.69,56.07,21.95c-17.69,30.64-22.39,66.33-13.23,100.5,9.16,34.17,31.07,62.73,61.71,80.42l-1,1.73c-31.1-17.96-53.35-46.95-62.64-81.64-9.29-34.69-4.52-70.92,13.43-102.02,17.96-31.1,46.95-53.35,81.64-62.64Z"/><path class="cls-3" d="M138.77-31.28c30.6-8.2,64.33-4.75,93.86,12.3l-1,1.73C173.51-50.8,98.92-30.81,65.36,27.31c-33.56,58.12-13.57,132.71,44.55,166.27l-1,1.73C49.84,161.2,29.52,85.39,63.63,26.31,80.69-3.23,108.17-23.08,138.77-31.28Z"/><path class="cls-3" d="M141.54-20.92c27.95-7.49,58.75-4.34,85.73,11.24l-1,1.73c-53-30.6-121.02-12.38-151.62,40.63-30.6,53-12.38,121.02,40.63,151.62l-1,1.73C60.32,154.87,41.77,85.63,72.92,31.67,88.5,4.7,113.6-13.43,141.54-20.92Z"/><path class="cls-3" d="M144.32-10.56c25.29-6.78,53.17-3.93,77.59,10.17l-1,1.73c-47.88-27.64-109.32-11.18-136.96,36.7-13.39,23.19-16.95,50.21-10.02,76.08s23.52,47.49,46.71,60.88l-1,1.73c-23.66-13.66-40.58-35.71-47.65-62.09-7.07-26.39-3.44-53.94,10.22-77.6C96.31,12.62,119.02-3.79,144.32-10.56Z"/><path class="cls-3" d="M147.09-.21c22.64-6.07,47.59-3.52,69.45,9.1l-1,1.73C172.79-14.06,117.92,.65,93.23,43.4c-24.69,42.76-9.98,97.62,32.77,122.31l-1,1.73c-43.71-25.24-58.74-81.33-33.5-125.04C104.12,20.55,124.45,5.86,147.09-.21Z"/></g></g></svg>