<?xml version="1.0" encoding="UTF-8"?><svg id="Layer_1" xmlns="http://www.w3.org/2000/svg" xmlns:xlink="http://www.w3.org/1999/xlink" viewBox="0 0 219.91 117.91"><defs><style>.cls-1{fill:none;}.cls-2{clip-path:url(#clippath);}.cls-3{fill:#024778;}.cls-4{fill:#ffd729;}.cls-5{opacity:.3;}</style><clipPath id="clippath"><rect class="cls-1" y="31.74" width="187.94" height="86.17"/></clipPath></defs><g class="cls-5"><g class="cls-2"><polygon class="cls-3" points="187.61 73.08 171.16 89.44 154.72 73.08 138.27 89.44 121.84 73.08 107.33 87.51 92.83 73.08 76.38 89.44 59.94 73.08 43.49 89.44 27.06 73.08 10.74 89.31 12.55 91.13 27.06 76.7 43.49 93.06 59.94 76.7 76.38 93.06 92.83 76.7 107.33 91.14 121.84 76.7 138.27 93.06 154.72 76.7 171.16 93.06 187.61 76.7 202.12 91.13 203.93 89.31 187.61 73.08"/><polygon class="cls-4" points="187.61 43.83 171.16 60.19 154.72 43.83 138.27 60.19 121.84 43.83 108.79 56.8 108.79 60.44 121.84 47.45 138.27 63.81 154.72 47.45 171.16 63.81 187.61 47.45 202.12 61.88 203.93 60.06 187.61 43.83"/></g></g></svg>