<svg xmlns="http://www.w3.org/2000/svg" xmlns:xlink="http://www.w3.org/1999/xlink" width="60.001" height="60" viewBox="0 0 60.001 60">
  <defs>
    <clipPath id="clip-path">
      <rect id="Rectangle_2272" data-name="Rectangle 2272" width="60.001" height="60" fill="none"/>
    </clipPath>
  </defs>
  <g id="Group_1034" data-name="Group 1034" transform="translate(0 0)">
    <g id="Group_1033" data-name="Group 1033" transform="translate(0 0)" clip-path="url(#clip-path)">
      <path id="Path_3821" data-name="Path 3821" d="M1.453,52A4.642,4.642,0,0,0,4.6,60a4.8,4.8,0,0,0,3.381-1.4c.37-.367.728-.747,1.087-1.127l1.138-1.2q6.226-6.54,12.449-13.083a1.048,1.048,0,0,1,1.476-.254,22.225,22.225,0,0,0,22.564,1.316A22.429,22.429,0,0,0,59.571,27.919c.126-.592.215-1.191.3-1.792.041-.276.082-.551.126-.826V21.528c-.043-.226-.087-.541-.132-.855-.1-.675-.185-1.314-.335-1.944C57.283,9.216,51.352,3.12,41.9.607A20.669,20.669,0,0,0,39.54.175C39.156.12,38.771.064,38.388,0L34.663.007l-.517.08c-.422.059-.844.119-1.264.19a22.806,22.806,0,0,0-14.4,8.581A23.217,23.217,0,0,0,16.62,35.186c.814,1.344.777,1.621-.353,2.7l-4.038,3.84Q6.833,46.855,1.453,52M14.711,23.434c.24-12.867,9.3-21.925,22.027-22.028h.012c12.707.153,21.715,9.206,21.9,22.015A21.233,21.233,0,0,1,52.512,38.7,22.1,22.1,0,0,1,36.7,45.337h-.087a22.194,22.194,0,0,1-15.7-6.621,21.1,21.1,0,0,1-6.206-15.282m3.472,14.411,3.945,4.017-3.414,3.576-4.141-4.145Zm-.542,8.72L12.848,51.61Q10,54.6,7.156,57.58a3.333,3.333,0,0,1-2.439,1.131,3.485,3.485,0,0,1-1.054-.17,3.243,3.243,0,0,1-2.318-2.715,3.331,3.331,0,0,1,1.149-3.042q3.14-2.978,6.272-5.965l4.675-4.456Z" transform="translate(0 0)" fill="#1a1818"/>
      <path id="Path_3822" data-name="Path 3822" d="M54.292,22.935a17.789,17.789,0,0,0-5.2-12.813A18.764,18.764,0,0,0,35.82,4.546h-.013A18.81,18.81,0,0,0,22.5,10.115a17.8,17.8,0,0,0-5.212,12.824c.154,10.751,7.936,18.562,18.5,18.573h0c11.964,0,18.362-9.345,18.5-18.576m-18.5,17.4A17.482,17.482,0,0,1,23.406,35.1a16.475,16.475,0,0,1-4.832-11.9C18.787,11.336,27.657,5.933,35.81,5.933h.011c8.127.019,16.971,5.431,17.187,17.27a16.474,16.474,0,0,1-4.825,11.9,17.493,17.493,0,0,1-12.39,5.235Z" transform="translate(0.9 0.237)" fill="#1a1818"/>
      <path id="Path_3823" data-name="Path 3823" d="M26.327,30.793l0,.435c0,.89.126,1.014,1.013,1.015H40.551c1.022,0,2.044,0,3.066-.011.334,0,.67-.154.668-.431v-.76a20.666,20.666,0,0,0-.182-3.425,8.61,8.61,0,0,0-3.45-5.466,1.14,1.14,0,0,1-.4-1.192,10.691,10.691,0,0,0,.339-5.65,5.1,5.1,0,0,0-4.838-4.406,5.113,5.113,0,0,0-5.58,3.854,16.2,16.2,0,0,0-.24,3.8,8.955,8.955,0,0,0,.417,2.189l.035.123a1.079,1.079,0,0,1-.417,1.32,9.012,9.012,0,0,0-3.155,4.281,11.867,11.867,0,0,0-.488,4.316m5.006-15.316a3.9,3.9,0,0,1,3.984-3.3h.033a3.973,3.973,0,0,1,3.973,3.261,12.476,12.476,0,0,1,.141,1.422c.015.237.029.485.052.751l.005.059-.008.058c-.022.173-.038.36-.056.558a9.2,9.2,0,0,1-.251,1.642,3.874,3.874,0,0,1-3.847,2.833c-.1,0-.2,0-.306-.011a3.791,3.791,0,0,1-3.722-3.3,17,17,0,0,1,0-3.973m-.106,7.411.311-.211.31.214a5.6,5.6,0,0,0,6.888.04l.258-.175.283.13c2.384,1.1,4.015,4.4,3.712,7.522l-.048.5H27.65l-.027-.524a7.988,7.988,0,0,1,3.6-7.5" transform="translate(1.371 0.568)" fill="#ffc810"/>
    </g>
  </g>
</svg>
