<svg xmlns="http://www.w3.org/2000/svg" xmlns:xlink="http://www.w3.org/1999/xlink" width="57.899" height="57.907" viewBox="0 0 57.899 57.907">
  <defs>
    <clipPath id="clip-path">
      <rect id="Rectangle_2267" data-name="Rectangle 2267" width="57.899" height="57.907" transform="translate(0 0)" fill="none"/>
    </clipPath>
  </defs>
  <g id="Group_1024" data-name="Group 1024" transform="translate(0 0)">
    <g id="Group_1023" data-name="Group 1023" clip-path="url(#clip-path)">
      <path id="Path_3797" data-name="Path 3797" d="M57.9,32.207q.006-3.227,0-6.453a2.758,2.758,0,0,0-2.857-2.876h-.251c-1.191-.006-2.38-.013-3.568.009a.9.9,0,0,1-1.01-.713c-.281-.85-.633-1.7-.973-2.519l-.047-.114c-.126-.3-.277-.6-.424-.886l-.279-.555.159-.21a.808.808,0,0,1,.085-.1l1.022-1.023c.615-.615,1.228-1.228,1.84-1.846a2.783,2.783,0,0,0,0-4.264q-2.153-2.168-4.321-4.32a2.771,2.771,0,0,0-4.3.016c-.694.7-1.382,1.4-2.068,2.094L39.91,9.457l-.192-.09c-.23-.108-.453-.216-.672-.321-.488-.236-.956-.462-1.435-.659-.343-.143-.694-.267-1.045-.391s-.731-.258-1.087-.407a.882.882,0,0,1-.43-.749c-.012-.743-.012-1.487-.011-2.232,0-.588,0-1.178,0-1.767A2.737,2.737,0,0,0,32.179.021c-.669,0-1.343.005-2.016.011-1.4.012-2.851.025-4.279-.03a2.96,2.96,0,0,0-2.2.841,2.92,2.92,0,0,0-.835,2.208c.035.968.026,1.939.016,2.878,0,.415-.008.826-.008,1.231v.2L17.972,9.39l-.994-1C16.3,7.709,15.6,7.009,14.9,6.313a2.786,2.786,0,0,0-4.265.018Q8.487,8.466,6.348,10.61a2.773,2.773,0,0,0-.006,4.339c.677.678,1.361,1.346,2.026,1.994l1.023,1L7.34,22.877l-1.47,0c-1,0-2.03,0-3.057.006A2.729,2.729,0,0,0,.318,24.354c-.089.158-.161.325-.235.492L0,25.029v7.879a3.173,3.173,0,0,0,3.6,2.154c.461-.028.925-.037,1.382-.037.375,0,.746.006,1.112.012s.707.011,1.051.011h.2l2.038,4.9L8.3,41.024C7.6,41.708,6.907,42.4,6.22,43.1a2.721,2.721,0,0,0-.026,4.059C7.4,48.387,8.627,49.6,9.853,50.822l.86.856c.27.269.67.516,1.037.162a.561.561,0,0,0,.2-.391,1.043,1.043,0,0,0-.372-.667q-1.464-1.47-2.934-2.936l-1.3-1.305c-1.061-1.061-1.058-1.747.016-2.821l1.14-1.139Q9.5,41.576,10.5,40.569c.424-.426.448-.592.156-1.111A21.848,21.848,0,0,1,8.6,34.508c-.168-.625-.272-.7-.924-.707-.784,0-1.567,0-2.347,0-.762,0-1.52,0-2.28,0a1.6,1.6,0,0,1-1.825-1.828q-.006-3,0-6c0-1.272.577-1.841,1.864-1.845l4.513,0c.729,0,.833-.079,1.014-.746a20.841,20.841,0,0,1,2.008-4.847c.331-.582.311-.74-.153-1.206L8.937,15.788q-.869-.867-1.733-1.734a1.556,1.556,0,0,1,0-2.535q2.137-2.148,4.282-4.283a1.57,1.57,0,0,1,2.579.01q.821.816,1.637,1.635t1.637,1.635c.427.424.592.447,1.111.16A21.3,21.3,0,0,1,23.4,8.628c.6-.16.7-.29.706-.927q0-1.1,0-2.2c0-.81,0-1.619,0-2.429a1.6,1.6,0,0,1,1.826-1.828q3-.007,6,0c1.275,0,1.848.575,1.852,1.86q.006,1.232,0,2.462V7.618c0,.726.058.765.815,1.055,1.524.583,3.074,1.227,4.737,1.968.659.293.788.3,1.281-.186l1.423-1.423q.9-.906,1.809-1.807A1.558,1.558,0,0,1,46.4,7.217q2.145,2.135,4.281,4.282a1.569,1.569,0,0,1,0,2.578q-.96.968-1.926,1.929l-1.265,1.263c-.523.524-.5.633-.2,1.323.687,1.538,1.347,3.133,1.962,4.739.278.726.326.793,1.076.794h2.052q1.229,0,2.461,0c1.25,0,1.833.582,1.835,1.818q.006,3,0,6c0,1.278-.574,1.849-1.858,1.853-.746,0-1.493,0-2.241,0-.776,0-1.551,0-2.328,0-.679,0-.786.085-.962.737a21.28,21.28,0,0,1-2.03,4.9c-.308.55-.286.7.166,1.155s.9.9,1.346,1.346q1,1,2,2.011a1.532,1.532,0,0,1,.02,2.368c-.11.117-.225.229-.339.342l-1.324,1.322q-1.457,1.45-2.9,2.908a.747.747,0,0,0-.237.7.556.556,0,0,0,.406.393c.281.084.5,0,.817-.318q1.333-1.341,2.673-2.676l1.526-1.527A3.364,3.364,0,0,0,52.6,45.142a3.321,3.321,0,0,0-1.182-2.31c-.629-.628-1.259-1.253-1.862-1.851l-1.013-1,.541-1.366c.408-1.024.8-2.007,1.167-3a.791.791,0,0,1,.87-.57c1.312.013,2.624.012,3.937,0A2.764,2.764,0,0,0,57.9,32.207" fill="#1a1818"/>
      <path id="Path_3798" data-name="Path 3798" d="M44.206,56.951c-.009-1.345-.008-2.691-.008-4.037,0-1.566,0-3.132-.012-4.7A11.657,11.657,0,0,0,43.95,45.9a9.491,9.491,0,0,0-7.815-7.254c-.923-.131-1.022-.074-1.347.787l-.51,1.353q-.981,2.6-1.963,5.2a3.067,3.067,0,0,1-.159.334l-.526,1.053L31.3,45.618c-.139-.731-.266-1.4-.371-2.075a1.5,1.5,0,0,1,.145-.873c.289-.559.589-1.112.89-1.665.253-.466.506-.932.752-1.4a.79.79,0,0,0,.057-.76.738.738,0,0,0-.66-.3c-2.1-.023-4.232-.023-6.332,0a.734.734,0,0,0-.657.295.793.793,0,0,0,.056.763l.26.51a16.393,16.393,0,0,0,.983,1.758,3.007,3.007,0,0,1,.391,2.664c-.114.4-.19.827-.264,1.239-.036.194-.071.389-.11.583l-.258,1.635s-.549-1.886-.615-2.059l-2.434-6.445c-.349-.923-.485-1-1.473-.82A9.45,9.45,0,0,0,13.7,48.158q-.008,1.879,0,3.758c0,1.679,0,3.358-.009,5.036a1.031,1.031,0,0,0,.38.955H43.826a1.029,1.029,0,0,0,.38-.956M15,56.658l-.043-.391a2.364,2.364,0,0,1-.025-.3l0-2.258c0-1.93-.008-3.859.009-5.789a8.3,8.3,0,0,1,6.267-7.877.716.716,0,0,1,.987.486q2.161,5.735,4.34,11.464L28,55.851a2.4,2.4,0,0,1,.085.292l.135.515Zm13.617-2.8a2.249,2.249,0,0,1-.155-.3c-.063-.162-.119-.328-.174-.494a4.816,4.816,0,0,0-.339-.846,6.317,6.317,0,0,1-.422-4.932,38.6,38.6,0,0,0,.732-3.822,2.078,2.078,0,0,0-.181-1.078c-.21-.481-.47-.947-.745-1.44-.12-.215-.243-.434-.366-.662l-.237-.441h4.433l-.238.442c-.119.221-.239.435-.357.645-.276.494-.537.959-.748,1.442a2.034,2.034,0,0,0-.192,1.07c.169,1.007.362,2.011.556,3.014.173.9.345,1.791.5,2.689a2.968,2.968,0,0,1-.123,1.406c-.276.809-.584,1.6-.911,2.429L29.027,54.6Zm14.348-.248c-.009.91-.019,1.823-.019,2.741v.3H29.634l.195-.6c.043-.134.082-.256.127-.376l1.484-3.91q2.108-5.553,4.206-11.11a.819.819,0,0,1,1.135-.6A8.165,8.165,0,0,1,42.924,47.5c.087,2.032.066,4.108.045,6.116" fill="#1a1818"/>
      <path id="Path_3799" data-name="Path 3799" d="M44.17,28.159c-.055-.577-.111-1.173-.206-1.748A15.229,15.229,0,0,0,29,13.721a15.309,15.309,0,0,0-14.16,9.5A15.086,15.086,0,0,0,16.55,37.832a2.249,2.249,0,0,0,.315.385.55.55,0,0,0,.771.032.536.536,0,0,0,.187-.74,2.53,2.53,0,0,0-.209-.325l-.082-.115a13.754,13.754,0,0,1-2.3-10.853,13.951,13.951,0,0,1,25.277-5.089,13.8,13.8,0,0,1,2.173,10.608,15.013,15.013,0,0,1-2.411,5.5,1.094,1.094,0,0,0-.181.744.85.85,0,0,0,.465.382c.168.057.386.055.709-.395a15.676,15.676,0,0,0,2.99-8.985c-.03-.272-.056-.545-.081-.818" fill="#ffc810"/>
      <path id="Path_3800" data-name="Path 3800" d="M28.937,37.219h.006a8.132,8.132,0,1,0-.006,0M28.922,22.2h.051a6.867,6.867,0,0,1,4.79,11.784,6.778,6.778,0,0,1-4.78,1.984H28.9A6.9,6.9,0,0,1,24.042,33.9a6.747,6.747,0,0,1-1.976-4.853A6.911,6.911,0,0,1,28.922,22.2" fill="#1a1818"/>
    </g>
  </g>
</svg>
