<svg id="Group_1036" data-name="Group 1036" xmlns="http://www.w3.org/2000/svg" xmlns:xlink="http://www.w3.org/1999/xlink" width="51.746" height="57.712" viewBox="0 0 51.746 57.712">
  <defs>
    <clipPath id="clip-path">
      <rect id="Rectangle_2273" data-name="Rectangle 2273" width="51.746" height="57.712" transform="translate(0 0)" fill="none"/>
    </clipPath>
  </defs>
  <g id="Group_1035" data-name="Group 1035" clip-path="url(#clip-path)">
    <path id="Path_3824" data-name="Path 3824" d="M42.624,17.146a16.654,16.654,0,0,0-2.708-9.532A16.34,16.34,0,0,0,30.511.668c-.728-.206-1.5-.345-2.248-.479-.34-.061-.68-.122-1.018-.189L24.538.014l-.323.074c-.461.111-.928.2-1.4.3a15.869,15.869,0,0,0-2.845.749c-6.246,2.517-9.81,7.117-10.592,13.67A48.143,48.143,0,0,0,9.2,21.229c.014.9.028,1.79.023,2.683a2.779,2.779,0,0,0,1.632,2.64,1.152,1.152,0,0,1,.666,1.053c.013.175.022.352.031.53a4.876,4.876,0,0,0,.238,1.559,2.741,2.741,0,0,0,2.947,1.75l.1,0a1.4,1.4,0,0,1,.261-.011l.1,0,.4-.012-.326-1.267-.056,0-.62-.025a1.806,1.806,0,0,1-1.373-.551,2.832,2.832,0,0,1-.376-2.235l.046-.448h1.744l-.248-1.32H13.85c-.179,0-.355,0-.531.007s-.355.008-.535.008c-.233,0-.468-.006-.7-.027a1.633,1.633,0,0,1-1.566-1.721c-.015-1.407-.013-2.813-.01-4.234l0-2.209h3.229a5.449,5.449,0,0,0-.04-1.375H10.636l.013-.514a15.065,15.065,0,0,1,15.2-14.179A15.223,15.223,0,0,1,41.2,15.507l.022.521H38.145c-.006.318-.018.794-.035,1.345h3.13l.059.574a3.19,3.19,0,0,1,.029.353v.427c0,1.635.006,3.27,0,4.905A1.75,1.75,0,0,1,39.4,25.577c-.173,0-.346,0-.522,0h-1.43l-.238,1.289h2.272a2.945,2.945,0,0,0,3.137-3.123c0-.807,0-1.614,0-2.42,0-1.393-.008-2.786.009-4.178" fill="#ffc810"/>
    <path id="Path_3825" data-name="Path 3825" d="M50.059,49.811a15.554,15.554,0,0,0-8.9-8.138c-.8-.28-1.6-.546-2.4-.813-.861-.285-1.722-.571-2.577-.874a1.84,1.84,0,0,1-.954-.819c-.313-.578-.606-1.168-.9-1.758-.217-.438-.434-.876-.659-1.309a1.039,1.039,0,0,1,.186-1.315A11.773,11.773,0,0,0,36.684,29.4c.11-.467.192-.941.277-1.426l.2-1.117.238-1.289.306-3.862.343-4.343h.014c.031-.988.043-1.753.043-1.753-.061-.324-.115-.648-.169-.97-.119-.7-.23-1.368-.4-2.021a10.959,10.959,0,0,0-9.111-7.911c-2.89-.306-5.277-.318-7.546.617a11,11,0,0,0-7,8.8c-.052.3-.078.611-.106.932l-.1.951,0,.034c-.033.427.022,1.341.022,1.341l.511,6.39c.2,1.737.391,3.106.391,3.106l.9,4.649a3.743,3.743,0,0,1,.649.749A25.168,25.168,0,0,0,17.909,34.8a1.112,1.112,0,0,1,.162,1.333c-.245.464-.479.934-.712,1.405-.276.556-.552,1.112-.847,1.657a1.762,1.762,0,0,1-.917.786c-1.607.567-3.1,1.066-4.567,1.528A16.45,16.45,0,0,0,0,56.851a.943.943,0,0,0,.179.673.965.965,0,0,0,.684.187h50a.723.723,0,0,0,.888-.894,15.959,15.959,0,0,0-1.687-7.007M34.15,40.025a1,1,0,0,1,.02.774c-.638,1.571-1.283,3.137-1.935,4.722l-.7,1.7-4.815-4.807,5.65-5.975.665,1.331c.383.766.754,1.507,1.116,2.253M25.824,41.44l-3.275-3.167h6.285ZM15.035,14.805l.1-.426c.038-.163.074-.327.108-.491a11.456,11.456,0,0,1,.28-1.12A9.73,9.73,0,0,1,24.26,5.919a14.192,14.192,0,0,1,6.2.647,9.917,9.917,0,0,1,6.183,10.127l-.051.493L36.1,17.14a20.617,20.617,0,0,1-4.608-.934,18.294,18.294,0,0,1-7.19-4.338c-.486-.479-1.017-.45-1.772-.355a9.925,9.925,0,0,0-6.264,3.22c-.051.056-.621.79-.681.838l-.656,1.1Zm2.565,17.4-.455-.758h.015a9.037,9.037,0,0,1-.68-1.876,1.119,1.119,0,0,1-.078-.255c-.107-.736-.223-1.47-.339-2.2-.193-1.227-.386-2.453-.54-3.684-.14-1.122-.214-2.264-.287-3.369l-.074-1.109a1.273,1.273,0,0,1,.2-.876c.179-.238.354-.481.53-.723a12.228,12.228,0,0,1,2.594-2.876,7.975,7.975,0,0,1,4.327-1.63,1.818,1.818,0,0,1,1.208.566,19.58,19.58,0,0,0,7.663,4.211c.983.277,1.981.472,3.038.679.485.1.976.192,1.472.3l.42.09-.025.429c-.011.187-.019.381-.026.581-.018.477-.037.971-.1,1.474-.106.8-.193,1.6-.281,2.4a43.233,43.233,0,0,1-.924,5.911A9.939,9.939,0,0,1,29.593,36.3a9.257,9.257,0,0,1-3.662.754,9.593,9.593,0,0,1-8.331-4.85m.094,7.63c.25-.565.532-1.117.8-1.636l.591-1.173L24.7,42.637l-4.348,4.6-.752-1.6c-.33-.7-.652-1.372-.951-2.058-.368-.844-.708-1.715-1.01-2.586a1.652,1.652,0,0,1,.052-1.152M1.355,56.375l.024-.524a13.1,13.1,0,0,1,1-4.389A14.441,14.441,0,0,1,11.7,42.678c.927-.287,1.845-.6,2.793-.925l1.828-.619.158.477c1.652,4.988,4.5,9.281,7.783,13.977l.549.787Zm24.889-1.249-.324.267-.369-.23.325-.38-.35.36a.781.781,0,0,1-.195-.2l-.516-.787c-1.106-1.684-2.211-3.368-3.3-5.063a1.08,1.08,0,0,1,.024-1.176c1-1.094,2.024-2.171,3.062-3.266l1.107-1.169.49.421c.1.085.2.165.285.252l1.087,1.09c.823.825,1.645,1.651,2.479,2.465a1,1,0,0,1,.169,1.444c-.909,1.359-1.8,2.728-2.7,4.1l-1.1,1.684a.817.817,0,0,1-.176.188M50.337,56.4h-23.3l.492-.77c.192-.3.376-.6.557-.89.4-.642.775-1.249,1.2-1.843a46.814,46.814,0,0,0,5.466-9.889c.129-.322.254-.647.388-.991l.35-.9.467.183c.835.327,1.71.6,2.557.87a18.476,18.476,0,0,1,5.592,2.483A15.381,15.381,0,0,1,50.328,55.2a2.752,2.752,0,0,1,.014.487Z" fill="#1a1818"/>
    <path id="Path_3826" data-name="Path 3826" d="M16.456,31.388l1.237.006a3.93,3.93,0,0,0,.491-.007,2.651,2.651,0,0,1,1.5.2c.011,0,.026.006.036.01a.254.254,0,0,1,.055.035,2.292,2.292,0,0,1,.868.962,2.388,2.388,0,0,0,2.139,1.086q1.25.029,2.5,0a2.934,2.934,0,0,0,0-5.865c-.74-.02-1.481-.012-2.221-.005h-.112a2.821,2.821,0,0,0-2.692,1.653,1.056,1.056,0,0,1-.9.628l0,.01h-.085c-.026,0-.047.008-.074.008-.813-.022-1.628-.02-2.441,0a1.363,1.363,0,0,1-.173-.021l-2.033.032.26,1.332c.34-.027,1.045-.041,1.656-.049Zm6.137-2.2a19.465,19.465,0,0,1,2.918.008,1.368,1.368,0,0,1,.94.5,1.546,1.546,0,0,1,.357,1.121,1.516,1.516,0,0,1-1.248,1.472,9.2,9.2,0,0,1-1.08.1l-.46.03-.039,0c-.145-.011-.289-.018-.43-.026a7,7,0,0,1-1.018-.1,1.588,1.588,0,0,1-1.276-1.554,1.515,1.515,0,0,1,1.336-1.554" fill="#ffc810"/>
  </g>
</svg>
