<svg xmlns="http://www.w3.org/2000/svg" xmlns:xlink="http://www.w3.org/1999/xlink" width="50.612" height="58.101" viewBox="0 0 50.612 58.101">
  <defs>
    <clipPath id="clip-path">
      <rect id="Rectangle_2268" data-name="Rectangle 2268" width="50.612" height="58.101" transform="translate(0 0)" fill="none"/>
    </clipPath>
  </defs>
  <g id="Group_1026" data-name="Group 1026" transform="translate(0 0)">
    <g id="Group_1025" data-name="Group 1025" clip-path="url(#clip-path)">
      <path id="Path_3801" data-name="Path 3801" d="M49.928,51.534a9.513,9.513,0,0,0-1.833-10A9.845,9.845,0,0,0,41.431,38.1l-.244-.028,0-8.442c0-6.718-.01-13.666.023-20.5a3.2,3.2,0,0,0-.949-2.34,3.1,3.1,0,0,0-2.239-.864c-1.633.059-3.291.045-4.894.032-.7-.006-1.4-.012-2.105-.012H30.07l0-.907c0-.445,0-.871,0-1.3-.009-.582-.2-.77-.782-.773-1.259-.006-2.518-.012-3.776.006a.87.87,0,0,1-.858-.511A4.341,4.341,0,0,0,20.64,0h-.024a4.344,4.344,0,0,0-4.047,2.46.879.879,0,0,1-.859.519c-1.016-.017-2.032-.014-3.046-.01l-.673,0c-.668,0-.852.191-.856.875,0,.424,0,.847,0,1.278v.825H3.213a2.928,2.928,0,0,0-3.2,3.177L.02,19.9q0,15.435-.02,30.868A3.158,3.158,0,0,0,3.243,54c5.776-.032,11.649-.033,17.328-.03q5.458,0,10.917-.006H31.5A1.758,1.758,0,0,1,33,54.647a9.3,9.3,0,0,0,4.163,2.865,14.486,14.486,0,0,0,1.558.421c.232.054.465.109.7.167l2.357-.016a1.158,1.158,0,0,1,.274-.093,9.683,9.683,0,0,0,7.875-6.457M12.46,4.288l.417-.022c.125-.007.255-.015.385-.015l.788,0c.864,0,1.729-.006,2.593.007a.769.769,0,0,0,.839-.586,3.272,3.272,0,0,1,3.125-2.4h0a3.257,3.257,0,0,1,3.117,2.4.723.723,0,0,0,.793.581c.919-.013,1.837-.011,2.78-.007l1.454,0V8.888H12.46ZM30.981,52.672c-.132.011-.26.021-.387.021H3.329a1.757,1.757,0,0,1-2.021-2.007q0-20.73,0-41.461a1.745,1.745,0,0,1,1.973-2c1.779,0,3.559,0,5.37,0h2.483v.908c0,.454,0,.885,0,1.314.008.535.225.754.748.754q8.736.006,17.47,0c.5,0,.7-.21.712-.725.009-.427.007-.854,0-1.3l0-.909.456-.022c.136-.008.262-.014.39-.014H31.5q3.229,0,6.459,0A1.706,1.706,0,0,1,39.9,9.139q0,14.087,0,28.175c0,.12-.008.241-.017.36l-.022.384-.232.026A10.125,10.125,0,0,0,31.4,52.276l.152.356Zm9.6,4.146h-.035A8.711,8.711,0,0,1,40.488,39.4h.042a8.745,8.745,0,0,1,8.744,8.65,8.776,8.776,0,0,1-8.695,8.771" fill="#1a1818"/>
      <path id="Path_3802" data-name="Path 3802" d="M7.454,21.767c.006.546.22.771.739.778,1.645.022,3.329.022,5.15,0,.544-.006.778-.247.78-.806q.01-2.548,0-5.1c0-.563-.228-.794-.779-.8-.871-.008-1.732-.012-2.575-.012-.879,0-1.74.005-2.577.013-.518.005-.732.229-.738.772-.008.59-.006,1.18-.005,1.77l0,.747,0,.782c0,.617,0,1.233.005,1.85m1.314-4.553H12.8v3.964H8.768Z" fill="#1a1818"/>
      <path id="Path_3803" data-name="Path 3803" d="M14.124,28.918c-.006-.58-.221-.808-.767-.814q-1.244-.01-2.537-.011c-.861,0-1.734,0-2.614.011-.524,0-.749.232-.752.758q-.013,2.577,0,5.153c0,.545.22.781.728.788,1.727.024,3.479.024,5.2,0,.5-.007.731-.258.737-.792.006-.6,0-1.193,0-1.79V30.66c0-.58,0-1.161,0-1.742m-1.33,4.53H8.778v-4h4.016Z" fill="#1a1818"/>
      <path id="Path_3804" data-name="Path 3804" d="M7.452,46.225c.006.615.213.835.794.842,1.728.018,3.441.017,5.093,0,.547-.007.781-.246.784-.8q.01-2.549,0-5.1c0-.566-.227-.8-.775-.8-.85-.008-1.7-.012-2.556-.012-.869,0-1.736,0-2.6.013-.521.005-.737.228-.743.768-.008.6-.006,1.206-.005,1.81l0,.764v.7c0,.606,0,1.212,0,1.818m1.317-4.5H12.8v3.987H8.769Z" fill="#1a1818"/>
      <path id="Path_3805" data-name="Path 3805" d="M32.8,17.166a1.671,1.671,0,0,0,.577-.083.643.643,0,0,0,.4-.5.514.514,0,0,0-.164-.485,1.4,1.4,0,0,0-.818-.248c-1.656-.021-3.311-.018-4.969-.016l-1.558,0H22.5q-1.413,0-2.825,0a.972.972,0,0,0-.764.274.618.618,0,0,0-.1.533c.025.129.1.52.927.52q6.532.008,13.06,0" fill="#ffc810"/>
      <path id="Path_3806" data-name="Path 3806" d="M32.831,21.235c-1.625-.016-3.251-.014-4.875-.013H21.948q-1.145,0-2.288,0a.959.959,0,0,0-.735.257.625.625,0,0,0-.117.523c.023.149.084.547.948.548q6.529,0,13.06,0a1.576,1.576,0,0,0,.571-.087.629.629,0,0,0,.384-.509.542.542,0,0,0-.2-.514,1.351,1.351,0,0,0-.74-.2" fill="#ffc810"/>
      <path id="Path_3807" data-name="Path 3807" d="M32.68,28.1l-8.232,0H22.632q-1.478,0-2.953,0a.976.976,0,0,0-.766.274.621.621,0,0,0-.1.533c.025.128.1.52.927.521q6.531,0,13.061,0a2.086,2.086,0,0,0,.5-.058.562.562,0,0,0,.467-.61.572.572,0,0,0-.511-.622,2.9,2.9,0,0,0-.571-.037" fill="#ffc810"/>
      <path id="Path_3808" data-name="Path 3808" d="M19.794,33.484h-.1a1.637,1.637,0,0,0-.351.024.593.593,0,0,0-.54.614.572.572,0,0,0,.489.637,2.667,2.667,0,0,0,.615.053q2.432,0,4.863,0h2.976q2.468,0,4.935,0a2.863,2.863,0,0,0,.569-.045.574.574,0,0,0,.512-.623.6.6,0,0,0-.561-.638,2.1,2.1,0,0,0-.4-.022h-13" fill="#ffc810"/>
      <path id="Path_3809" data-name="Path 3809" d="M19.314,40.393a.634.634,0,0,0-.044,1.234,2.212,2.212,0,0,0,.549.059c.9.005,1.8,0,2.7,0h1.787q1.328,0,2.656,0a2.9,2.9,0,0,0,.569-.045.577.577,0,0,0,.512-.622.594.594,0,0,0-.559-.638,2.236,2.236,0,0,0-.41-.023c-2.455,0-4.855,0-7.255,0H19.8a2.159,2.159,0,0,0-.482.034" fill="#ffc810"/>
      <path id="Path_3810" data-name="Path 3810" d="M27.153,45.744c-.874-.005-1.748,0-2.621,0H21.178l-1.454,0c-.911,0-.919.453-.922.646a.613.613,0,0,0,.155.457,1.012,1.012,0,0,0,.728.225q3.743.009,7.486,0c.322,0,.865-.087.878-.654a.583.583,0,0,0-.151-.435,1.036,1.036,0,0,0-.745-.237" fill="#ffc810"/>
      <path id="Path_3811" data-name="Path 3811" d="M45.833,45.42a.616.616,0,0,0,.025-.938.671.671,0,0,0-.956.045c-.188.174-.366.358-.544.541-.14.144-.279.288-.423.427-1.165,1.129-2.331,2.255-3.521,3.4l-1.379,1.333-.951-.963c-.6-.613-1.224-1.242-1.851-1.864a.854.854,0,0,0-.567-.288.6.6,0,0,0-.419.188.612.612,0,0,0-.2.44.767.767,0,0,0,.24.545c1.152,1.173,2.282,2.3,3.36,3.356a.625.625,0,0,0,1.024,0q3.094-3.1,6.161-6.229" fill="#ffc810"/>
    </g>
  </g>
</svg>
