<svg xmlns="http://www.w3.org/2000/svg" xmlns:xlink="http://www.w3.org/1999/xlink" width="46.622" height="59.692" viewBox="0 0 46.622 59.692">
  <defs>
    <clipPath id="clip-path">
      <rect id="Rectangle_2271" data-name="Rectangle 2271" width="46.622" height="59.692" fill="none"/>
    </clipPath>
  </defs>
  <g id="Group_1032" data-name="Group 1032" transform="translate(0 0)">
    <g id="Group_1031" data-name="Group 1031" transform="translate(0 0)" clip-path="url(#clip-path)">
      <path id="Path_3819" data-name="Path 3819" d="M39.516,58.728h3.927a.831.831,0,0,1,.2-.092,3.8,3.8,0,0,0,2.972-3.9q.012-8.629,0-17.26V35.629c0-.677-.152-.824-.852-.827q-1.82-.006-3.642,0H39.288l.131-.677a5.26,5.26,0,0,0-.906-4.356,5.034,5.034,0,0,0-3.582-1.936,4.763,4.763,0,0,0-3.742,1.35,5.02,5.02,0,0,0-1.48,4.944l.129.675H.909c-.842,0-.9.268-.9.709l0,2.958C0,43.99-.005,49.512.02,55.034a3.569,3.569,0,0,0,2.12,3.288,6.612,6.612,0,0,0,.71.3l.263.1H29.418c.52-.407.455-.622.412-.768-.073-.24-.142-.467-1.011-.467H23.928V54.412q0-2.319,0-4.638a.76.76,0,0,0-.262-.616.549.549,0,0,0-.491-.085,1.6,1.6,0,0,0-.434.264l-.131.1a3.729,3.729,0,1,1-3.1-6.618,3.5,3.5,0,0,1,3.111.659c.508.376.73.379.988.248s.332-.316.327-.958c-.01-1.319-.008-2.639-.007-3.959l0-2.763h2.789c1.356,0,2.709,0,4.062.007.514.006.69-.11.8-.323s.144-.452-.126-.854a3.438,3.438,0,0,1-.593-2.553,3.731,3.731,0,1,1,6.783,2.589c-.253.4-.235.592-.119.794s.276.366.751.347c1.425-.011,2.85-.01,4.278-.007h2.819V54.679a2.627,2.627,0,0,1-2.827,2.813q-.68,0-1.363,0c-.495,0-.99,0-1.485,0a.555.555,0,0,0-.579.438c-.067.195-.084.413.249.691a1.625,1.625,0,0,0,.143.1m-16.863-16.9-.7-.166A4.9,4.9,0,0,0,16.3,43.62a4.621,4.621,0,0,0-.159,5.4c1.166,1.947,2.981,2.621,5.9,2.183l.653-.1v6.385H4.2a2.653,2.653,0,0,1-2.953-2.928V36.09H22.653Z" transform="translate(0 0.964)" fill="#1a1818"/>
      <path id="Path_3820" data-name="Path 3820" d="M32.853,20.855c.121.509.277.646.508.708s.452.027.817-.341q1.487-1.5,2.984-2.993,1.13-1.128,2.258-2.261c.471-.473.471-.733,0-1.2l-2.684-2.686Q31.3,6.637,25.86,1.211a3.779,3.779,0,0,0-5.564.022Q14.9,6.607,9.519,12L6.779,14.744c-.5.5-.5.743,0,1.243q1.1,1.107,2.2,2.207l1.405,1.4c.1.106.2.215.305.329l.606.661-.576.365a5.01,5.01,0,0,0-2.586,5.627A4.906,4.906,0,0,0,12,30.35a5.067,5.067,0,0,0,5.5-2.623l.366-.578.653.605c.115.1.217.2.317.3l1.232,1.232q1.229,1.231,2.465,2.455c.547.539.846.246.99.1,2.181-2.14,3.926-3.884,5.489-5.489a.575.575,0,0,0,.168-.567.71.71,0,0,0-.53-.476l-.2-.047c-.114-.025-.227-.05-.337-.083a3.722,3.722,0,0,1-2.63-3.378,3.724,3.724,0,0,1,7.369-.95m-7.4-2.531A5.054,5.054,0,0,0,26.6,25.9l.58.385-4.139,4.131-.487-.455c-.092-.083-.208-.189-.319-.3l-.925-.921c-1.053-1.049-2.106-2.1-3.147-3.157-.458-.466-.67-.569-.983-.475s-.394.264-.5.937a3.647,3.647,0,0,1-3.416,3.134A3.728,3.728,0,0,1,9.442,26.6a3.683,3.683,0,0,1,.345-3.1,3.893,3.893,0,0,1,2.779-1.767c.551-.08.694-.218.778-.464s.053-.465-.368-.88q-1.768-1.748-3.517-3.513l-1.129-1.2-.175-.346.321-.485c.089-.1.183-.212.285-.314L20.977,2.326a2.65,2.65,0,0,1,4.228,0L37.379,14.5c.1.1.2.2.28.293l.473.5-4.267,4.26-.387-.568a4.976,4.976,0,0,0-4.536-2.341,4.754,4.754,0,0,0-3.487,1.684" transform="translate(0.222 0)" fill="#ffc810"/>
    </g>
  </g>
</svg>
