<svg xmlns="http://www.w3.org/2000/svg" xmlns:xlink="http://www.w3.org/1999/xlink" width="51.375" height="51.47" viewBox="0 0 51.375 51.47">
  <defs>
    <clipPath id="clip-path">
      <rect id="Rectangle_2359" data-name="Rectangle 2359" width="51.375" height="51.47" fill="none"/>
    </clipPath>
  </defs>
  <g id="Group_1138" data-name="Group 1138" transform="translate(0 0)">
    <g id="Group_1137" data-name="Group 1137" transform="translate(0 0)" clip-path="url(#clip-path)">
      <path id="Path_3935" data-name="Path 3935" d="M50.48,51.47c.1,0,.207,0,.311,0a.533.533,0,0,0,.568-.541c.021-.81.021-1.652,0-2.5-.008-.358-.2-.542-.595-.559-.166-.009-.335-.006-.513,0l-.561,0V20.218c0-.8-.111-.907-.916-.907H39.637V.892c0-.767-.124-.891-.881-.892H12.625c-.775,0-.892.115-.892.88V10.915H2.658c-.9,0-.981.084-.981,1V47.857H.763c-.6.006-.757.161-.76.753,0,.419,0,.839,0,1.26v.575c0,.947.076,1.022,1.012,1.022ZM39.663,20.445h8.9V47.833h-8.9ZM12.854,1.118H38.51V47.832H32.095V35.3c0-.755-.126-.878-.894-.878H20.15c-.761,0-.875.117-.875.9v12.5H12.854Zm18.125,46.7H26.267V35.539h4.711Zm-5.861.015H20.4V35.554h4.713ZM2.8,12.032h8.9V47.815H2.8ZM1.13,48.971h49.12v1.363H1.13Z" transform="translate(0 0)"/>
      <path id="Path_3936" data-name="Path 3936" d="M26.961,4.293H20.105c-.685,0-.823.142-.824.843q0,3.1,0,6.191c0,.622.156.774.788.774q9.82,0,19.639,0c.613,0,.771-.163.772-.791q0-3.1,0-6.191c0-.687-.142-.825-.841-.825Zm-2.679,6.675H20.389V5.417h3.893Zm5.013,0H25.421V5.414H29.3Zm5.033.013H30.454V5.427h3.875Zm5.036-.019H35.491V5.409h3.873Z" transform="translate(-4.197 -0.934)" fill="#ffc810"/>
      <path id="Path_3937" data-name="Path 3937" d="M39.621,30.05H20.087c-.66,0-.8.144-.8.809q0,3.094,0,6.191c0,.665.144.808.806.808H39.675c.654,0,.805-.151.806-.809q0-3.07,0-6.138c0-.731-.129-.861-.861-.861M24.267,36.728H20.393V31.172h3.874Zm5.044,0H25.433V31.168h3.878Zm5.022.013H30.467V31.162h3.865Zm5.016.016H35.494V31.177h3.855Z" transform="translate(-4.197 -6.541)" fill="#ffc810"/>
      <path id="Path_3938" data-name="Path 3938" d="M20.14,24.98H39.675c.655,0,.806-.152.807-.809q0-3.094,0-6.191c0-.665-.144-.808-.806-.808q-9.8,0-19.587,0c-.662,0-.805.143-.806.807q0,3.07,0,6.139c0,.733.129.862.858.862m15.351-6.693h3.873v5.558H35.491Zm-5.039,0h3.873v5.565H30.453Zm-5.022-.015H29.3v5.577H25.43Zm-5.031.032h3.873v5.559H20.4Z" transform="translate(-4.197 -3.738)" fill="#ffc810"/>
      <path id="Path_3939" data-name="Path 3939" d="M11.472,17.88c0-.527-.181-.7-.7-.707q-1.157,0-2.317,0-1.2,0-2.393,0c-.523,0-.7.178-.7.7q-.011,2.36,0,4.72c0,.527.178.7.7.707q2.353.009,4.71,0c.521,0,.7-.179.7-.7.005-.544,0-1.087,0-1.631l0-.728,0-.727c0-.544,0-1.087,0-1.631m-1.109,4.3H6.47V18.3h3.893Z" transform="translate(-1.165 -3.737)" fill="#ffc810"/>
      <path id="Path_3940" data-name="Path 3940" d="M5.359,44.114c.006.464.189.645.652.648q2.407.014,4.815,0c.455,0,.642-.192.644-.654q.013-2.413,0-4.825c0-.455-.192-.642-.652-.645q-1.23-.007-2.46-.007-1.178,0-2.356.007c-.456,0-.637.186-.643.656-.008.554-.006,1.109,0,1.662l0,.695,0,.735c0,.576,0,1.152,0,1.728m1.112-4.347h3.878v3.875H6.471Z" transform="translate(-1.165 -8.409)" fill="#ffc810"/>
      <path id="Path_3941" data-name="Path 3941" d="M11.471,28.591c-.005-.5-.187-.683-.668-.685q-1.175,0-2.35-.005-1.206,0-2.413.005c-.494,0-.678.183-.681.669q-.013,2.386,0,4.772c0,.5.184.681.667.684q2.381.013,4.763,0c.491,0,.676-.185.682-.673.007-.547.005-1.094,0-1.641l0-.717,0-.724c0-.562,0-1.123,0-1.685m-1.126,4.329H6.475v-3.9h3.87Z" transform="translate(-1.165 -6.073)" fill="#ffc810"/>
      <path id="Path_3942" data-name="Path 3942" d="M52.488,28.575q-.012,2.386,0,4.771c0,.5.178.678.67.685.547.005,1.1,0,1.644,0l.707,0h.714c.566,0,1.128,0,1.692,0,.5-.005.681-.188.683-.671q.012-2.387,0-4.771c0-.5-.184-.681-.67-.683q-1.19,0-2.381-.005t-2.381.005c-.494,0-.678.183-.681.67m1.114.462h3.892v3.872H53.6Z" transform="translate(-11.424 -6.073)" fill="#ffc810"/>
      <path id="Path_3943" data-name="Path 3943" d="M52.488,44.058c0,.524.182.7.7.7q2.355.009,4.71,0c.521,0,.7-.181.7-.7q.008-2.36,0-4.72c0-.523-.18-.7-.7-.7q-1.178,0-2.356,0t-2.355,0c-.525,0-.7.173-.7.7s0,1.065,0,1.6l0,.711,0,.743c0,.555,0,1.112,0,1.667m1.127-4.3h3.87v3.886h-3.87Z" transform="translate(-11.425 -8.409)" fill="#ffc810"/>
    </g>
  </g>
</svg>
