<svg xmlns="http://www.w3.org/2000/svg" xmlns:xlink="http://www.w3.org/1999/xlink" width="60.842" height="60.83" viewBox="0 0 60.842 60.83">
  <defs>
    <clipPath id="clip-path">
      <rect id="Rectangle_2270" data-name="Rectangle 2270" width="60.842" height="60.83" fill="none"/>
    </clipPath>
  </defs>
  <g id="Group_1030" data-name="Group 1030" transform="translate(0 -0.001)">
    <g id="Group_1029" data-name="Group 1029" transform="translate(0 0.001)" clip-path="url(#clip-path)">
      <path id="Path_3816" data-name="Path 3816" d="M59.251,41.662a1.5,1.5,0,0,0,1.586-1.615c.006-1.437,0-2.873,0-4.308a1.522,1.522,0,0,0-1.692-1.7c-.732-.012-1.6-.021-2.444.005a.766.766,0,0,1-.894-.67,16.565,16.565,0,0,0-2.084-5.035.787.787,0,0,1,.17-1.15c.527-.486,1.039-1.012,1.535-1.521l.154-.158a1.521,1.521,0,0,0,0-2.441q-1.45-1.471-2.919-2.919a1.534,1.534,0,0,0-2.478,0c-.476.473-.948.951-1.422,1.43L48,22.352l-.161-.1a18.966,18.966,0,0,0-5.679-2.412.818.818,0,0,1-.479-.692c-.02-.579-.017-1.158-.015-1.737,0-.281,0-.563,0-.845a1.543,1.543,0,0,0-1.69-1.706c-.545,0-1.088,0-1.631,0-.712,0-1.427,0-2.143-.005a2.439,2.439,0,0,0-1.752.455.733.733,0,0,1-.653.187.7.7,0,0,1-.474-.489c-.389-1.058-.789-2.113-1.217-3.239l-.562-1.486.485-.449c.346-.316.735-.673,1.111-1.054a1.326,1.326,0,0,0,.007-2.087c-.807-.827-1.633-1.651-2.452-2.45a1.334,1.334,0,0,0-2.092.024l-.083.079c-.407.4-.83.8-1.217,1.225a.708.708,0,0,1-.935.141c-1.142-.5-2.5-1.089-3.89-1.615a.731.731,0,0,1-.573-.808c.015-.531.015-1.117,0-1.844A1.339,1.339,0,0,0,20.456,0C19.321,0,18.184,0,17.047,0a1.378,1.378,0,0,0-1.561,1.528c-.011.488-.021,1.132,0,1.783.02.513-.272.667-.6.791-1.182.451-2.437.974-3.837,1.6a.732.732,0,0,1-.982-.147c-.431-.474-.9-.925-1.341-1.345a1.3,1.3,0,0,0-1.962-.026C5.917,5,5.048,5.87,4.193,6.757a1.3,1.3,0,0,0,.013,1.964c.388.409.85.889,1.344,1.34a.725.725,0,0,1,.153,1c-.409.8-.816,1.662-1.21,2.575a3.981,3.981,0,0,0-.178.61,1.715,1.715,0,0,1-.538,1.1A2.424,2.424,0,0,1,2.25,15.5c-.145-.013-.287-.027-.424-.034A1.7,1.7,0,0,0,0,16.459v4.555a1.822,1.822,0,0,0,1.933.9,7.318,7.318,0,0,1,.844-.014c.182,0,.364.007.547,0a.7.7,0,0,1,.769.54c.29.759.61,1.524.918,2.264.238.566.473,1.131.7,1.7a.91.91,0,0,1-.115.832c-.268.316-.565.607-.855.889-.123.12-.248.242-.368.364a1.4,1.4,0,0,0-.02,2.3q1.114,1.127,2.24,2.242a1.39,1.39,0,0,0,2.3-.011c.363-.362.715-.734,1.014-1.05l.429-.451,1.468.58c1.042.413,2.023.8,3.009,1.17.321.118.55.245.636.481a.951.951,0,0,1-.177.787A2.671,2.671,0,0,0,14.88,35.7c-.043,1.2-.032,2.416-.022,3.6l.006.7a1.533,1.533,0,0,0,1.676,1.661c.3,0,.592,0,.887,0,.565,0,1.13,0,1.7.018a.866.866,0,0,1,.725.5,19.13,19.13,0,0,0,2.414,5.659l.1.16-.819.807c-.5.491-1,.98-1.489,1.479a1.462,1.462,0,0,0,0,2.263c.968.991,2.006,2.03,3.085,3.087a1.488,1.488,0,0,0,2.313,0c.527-.506,1.143-1.107,1.724-1.73a.85.85,0,0,1,1.183-.19c1.062.547,2.209,1.077,3.608,1.668a10.331,10.331,0,0,0,1.282.413c.208.058.417.116.625.179l.168.052V56.2q0,.418.006.826c.007.619.015,1.2-.015,1.8a1.861,1.861,0,0,0,1.112,2h5.41a1.8,1.8,0,0,0,1.128-1.981c-.034-.625-.024-1.257-.017-1.813,0-.232.006-.455.006-.664v-.159l6.5-2.7.63.637c.451.458.941.955,1.439,1.444a1.5,1.5,0,0,0,2.394-.009q1.488-1.472,2.96-2.96a1.513,1.513,0,0,0-.015-2.436c-.472-.478-.949-.951-1.381-1.38l-.662-.657,2.68-6.493.985,0c.661,0,1.357.005,2.053,0m-44.1-9.725A22.689,22.689,0,0,1,11.5,30.388c-.977-.49-1.416-.434-2.129.275L8.137,31.886l.038.038-.191.111A.289.289,0,0,1,7.7,32.1l-.142-.053-.005-.068L5.1,29.543l.621-.568c.337-.3.683-.616,1.013-.942.7-.686.754-1.145.277-2.137a41.7,41.7,0,0,1-1.69-4.088c-.338-.949-.691-1.226-1.577-1.234-.473,0-.948,0-1.44,0H1.371V16.849h.866c.46,0,.916,0,1.373,0A1.466,1.466,0,0,0,5.326,15.5a14.348,14.348,0,0,1,1.7-4.072A1.377,1.377,0,0,0,6.78,9.418c-.339-.339-.693-.663-1.035-.977L5.117,7.86,7.862,5.123l.594.635c.321.347.654.708,1,1.056a1.345,1.345,0,0,0,1.917.243,14.8,14.8,0,0,1,4.3-1.779,1.368,1.368,0,0,0,1.177-1.486c.014-.492.009-.985.007-1.491l0-.936h3.718l0,.9c0,.493,0,.985,0,1.477A1.341,1.341,0,0,0,21.8,5.292,14.475,14.475,0,0,1,25.982,7.03,1.39,1.39,0,0,0,28,6.772c.336-.34.657-.694.971-1.041l.582-.637,2.71,2.741-.632.608c-.353.339-.721.69-1.077,1.051a1.3,1.3,0,0,0-.241,1.819,14.727,14.727,0,0,1,1.819,4.411c.174.743.554,1.008,1.709,1.182l.2.031,0,.736c0,.543,0,1.093-.019,1.643a.721.721,0,0,1-.514.543,18.826,18.826,0,0,0-5.62,2.392l-.16.1-.677-.677c-.543-.539-1.106-1.1-1.636-1.666a1.01,1.01,0,0,1-.149-.736,6.559,6.559,0,0,0-5.139-6.984,6.264,6.264,0,0,0-3.41.151c-.907.291-.77.743-.726.891.1.325.306.626,1.117.388a5.368,5.368,0,0,1,4.214.453,5.178,5.178,0,0,1,2.451,3.273,7.172,7.172,0,0,1,.157.974,1.665,1.665,0,0,1-.613,1.533c-.745.686-1.464,1.428-2.162,2.147-.485.5-.968,1-1.465,1.485a1.516,1.516,0,0,1-1.009.349,5.243,5.243,0,0,1-4.753-7.367c.029-.067.064-.133.1-.2s.06-.116.085-.175a.69.69,0,0,0-.264-.975c-.353-.178-.7-.039-.936.379a6.618,6.618,0,0,0,1.717,8.261,6.793,6.793,0,0,0,4.652,1.415,1.4,1.4,0,0,1,.937.341c.5.446.966.907,1.459,1.395l.7.687-.1.161a19.08,19.08,0,0,0-2.409,5.642.772.772,0,0,1-.6.523c-.339.017-.677.021-1.023.021l-.552,0-.83,0,.007-.245c.037-1.122-.549-1.5-1.718-1.851m39.441,9.828a17.921,17.921,0,0,1-2.154,5.172,1.555,1.555,0,0,0,.276,2.275c.463.463.932.918,1.385,1.359l.742.723-3.5,3.529-.759-.765c-.424-.427-.868-.874-1.313-1.319a1.582,1.582,0,0,0-2.371-.279A17.581,17.581,0,0,1,41.7,54.592,1.519,1.519,0,0,0,40.333,56.3c-.006.665,0,1.33,0,2l0,1.173H35.41V56.689c0-1.465-.3-1.854-1.711-2.19a16.619,16.619,0,0,1-4.787-1.992A1.643,1.643,0,0,0,26.4,52.8c-.448.45-.888.907-1.317,1.351l-.685.707-3.534-3.5.8-.788c.453-.45.917-.909,1.377-1.373a1.567,1.567,0,0,0,.262-2.235,17.718,17.718,0,0,1-2.153-5.172c-.269-1.128-.692-1.455-1.884-1.458H16.243V35.408h1.108c.625,0,1.237,0,1.85,0,1.228,0,1.685-.364,1.963-1.54a17.154,17.154,0,0,1,2.1-5.067,1.576,1.576,0,0,0-.277-2.324c-.461-.458-.933-.907-1.394-1.344L20.83,24.4l3.549-3.548.778.792c.444.452.9.916,1.358,1.376a1.559,1.559,0,0,0,2.231.273,17.548,17.548,0,0,1,5.175-2.15c1.135-.266,1.484-.721,1.488-1.941,0-.611,0-1.224,0-1.849l0-1.111h4.921l0,.878c0,.478.005.954,0,1.431l0,.076c-.034,1.685-.044,2.194,2.048,2.676a15.034,15.034,0,0,1,4.5,1.931,1.623,1.623,0,0,0,2.421-.3c.445-.443.886-.888,1.321-1.325l.761-.766,3.479,3.469-.407.417c-.244.251-.5.513-.756.772l-.444.445c-.219.217-.438.434-.653.655a1.478,1.478,0,0,0-.257,2,18.213,18.213,0,0,1,2.3,5.563A1.533,1.533,0,0,0,56.29,35.4c.672.011,1.344.009,2.027.005l1.167,0v4.922H58.341c-.643,0-1.277,0-1.915,0-1.151,0-1.564.326-1.838,1.436" transform="translate(0 -0.001)" fill="#1a1818"/>
      <path id="Path_3817" data-name="Path 3817" d="M45.7,43.15c.053-.073.1-.146.154-.22q.23-.338.435-.686c.074-.127.146-.254.216-.383.105-.2.2-.4.3-.6.074-.159.146-.317.212-.479.074-.182.14-.366.2-.552s.126-.366.181-.551c.048-.167.087-.336.128-.5.05-.208.1-.417.139-.628.026-.145.043-.291.063-.437.034-.238.066-.474.084-.714.009-.12.008-.24.014-.361.012-.262.022-.525.015-.788,0-.123-.019-.247-.026-.37-.014-.225-.019-.45-.047-.675,0-.029-.012-.057-.015-.086s0-.028,0-.043c-.021-.162-.059-.32-.087-.48-.034-.189-.061-.381-.1-.566-.053-.231-.123-.457-.189-.684-.039-.133-.072-.268-.115-.4-.063-.187-.141-.368-.214-.551s-.128-.343-.2-.509c-.045-.1-.1-.192-.147-.289a11.192,11.192,0,0,0-10.187-6.322c-.109,0-.219-.006-.328,0-.136,0-.272.021-.408.031-.247.016-.494.034-.741.066-.018,0-.036,0-.054.005-.064.008-.126.026-.191.037-.295.045-.586.1-.876.167l-.13.035a11,11,0,0,0-5.988,3.809c-.029.037-.05.081-.079.119a11.11,11.11,0,0,0-2.442,7.368v.005l0,.052c.011.246.018.491.045.739.008.075.025.15.036.226.016.123.04.244.059.366.005.028.009.057.015.085a11.188,11.188,0,0,0,3.139,6.14c.048.048.1.089.153.137a1.279,1.279,0,0,0,.114.127c.15.138.307.26.461.389.083.069.163.142.247.208a11.092,11.092,0,0,0,4.121,2.067c.047.013.1.022.144.034q.443.11.9.185c.135.023.27.041.406.059.227.028.455.05.687.066.158.012.315.021.472.025.093,0,.181.014.275.015.126,0,.25-.016.376-.02s.243,0,.365,0c.089-.006.177-.023.266-.032.156-.014.31-.033.465-.054.272-.035.542-.077.808-.13.085-.018.169-.038.254-.057.334-.076.664-.165.988-.27l.05-.017a11.141,11.141,0,0,0,4.908-3.246L45.032,44l.014-.018c.13-.149.267-.29.389-.447.1-.124.178-.255.268-.381M46,39.676c-.088.268-.188.53-.3.788-.014.032-.025.065-.039.1a9.849,9.849,0,0,1-2.287,3.226c-.028.027-.06.053-.088.079q-.308.282-.641.541c-.074.056-.148.11-.223.164-.17.125-.345.244-.524.36-.143.09-.288.181-.435.264-.082.047-.164.092-.246.136-.218.116-.439.227-.666.326l-.061.027a9.954,9.954,0,0,1-2.578.721l-.041.005q-.426.055-.858.075l-.09,0q-.421.014-.848-.007l-.077,0c-.3-.018-.6-.048-.9-.095a9.952,9.952,0,0,1-4.1-1.591l-.093-.064a10.252,10.252,0,0,1-1.129-.9h0a9.864,9.864,0,0,1-1.205-1.356,10.108,10.108,0,0,1-1.385-2.6c-.022-.064-.038-.127-.058-.19a9.6,9.6,0,0,1-.305-1.141c-.023-.112-.04-.224-.06-.336a10.359,10.359,0,0,1-.129-1.15,10.046,10.046,0,0,1,.062-1.894,9.726,9.726,0,0,1,.8-2.73,11.028,11.028,0,0,1,.583-1.089l0-.006a10.043,10.043,0,0,1,.614-.877c.1-.13.209-.257.318-.382q.186-.219.385-.426c.141-.145.283-.288.432-.425.118-.108.243-.211.367-.315.175-.146.348-.295.534-.429l.037-.025c.255-.182.516-.351.783-.509.094-.054.19-.1.286-.154.169-.093.34-.183.513-.265a10.052,10.052,0,0,1,5.8-.8c.261.043.515.1.769.163.1.025.2.044.3.072s.2.064.3.095a9.9,9.9,0,0,1,5.327,4c.056.086.107.175.161.262.116.186.226.373.328.565.079.149.149.3.221.452s.14.3.2.448.126.333.184.5.109.307.155.464.079.3.116.449c.045.186.09.372.125.561.021.115.035.23.052.346.033.228.064.457.081.688.006.079.007.159.012.239.013.263.02.526.013.791,0,.063-.008.126-.011.188-.014.272-.035.545-.069.817-.012.086-.028.173-.042.259-.036.236-.078.471-.131.706-.041.178-.089.353-.14.528-.034.12-.065.242-.1.36" transform="translate(1.31 1.31)" fill="#ffc810"/>
      <path id="Path_3818" data-name="Path 3818" d="M36.3,29.564a6.692,6.692,0,0,0-6.734,6.769A6.786,6.786,0,0,0,36.32,43.1h0a6.811,6.811,0,0,0,6.781-6.765A6.77,6.77,0,0,0,36.3,29.564m.027,12.164h-.019a5.411,5.411,0,0,1,.024-10.822h.009a5.411,5.411,0,0,1-.015,10.822" transform="translate(1.534 1.533)" fill="#ffc810"/>
    </g>
  </g>
</svg>
