<svg xmlns="http://www.w3.org/2000/svg" xmlns:xlink="http://www.w3.org/1999/xlink" width="68.514" height="59" viewBox="0 0 68.514 59">
  <defs>
    <clipPath id="clip-path">
      <rect id="Rectangle_2274" data-name="Rectangle 2274" width="68.514" height="59" fill="none"/>
    </clipPath>
  </defs>
  <g id="Group_1038" data-name="Group 1038" transform="translate(0 0)">
    <g id="Group_1037" data-name="Group 1037" transform="translate(0 0)" clip-path="url(#clip-path)">
      <path id="Path_3828" data-name="Path 3828" d="M67.458,46.845q-2.527,0-5.053,0H59.233v-21.7h3.074q2.684,0,5.369,0a.889.889,0,0,0,.648-.224.744.744,0,0,0,.188-.555.721.721,0,0,0-.822-.728c-2.835-.007-5.671-.013-8.505.006a1.5,1.5,0,0,0-1.5,1.49c-.008.2-.006.4,0,.608l0,.642-1.669,0c-1.135.007-2.212.013-3.3-.024a3.329,3.329,0,0,1-1.536-.442q-6.326-3.748-12.617-7.551a5.494,5.494,0,0,0-2.966-.818c-2.842.031-5.4.049-7.978-.006a5.189,5.189,0,0,0-4.571,2.288c-1.583,2.16-3.2,4.237-4.422,5.806A1.616,1.616,0,0,1,17.5,26.2c-1.53.031-3.087.026-4.591.021l-1.156,0c-.142,0-.285-.013-.426-.026l-.481-.036.008-.309a2.315,2.315,0,0,0-.491-1.759,2.387,2.387,0,0,0-1.832-.479c-2.278.071-4.594.042-6.833.016l-.611-.008H1.058A1.144,1.144,0,0,0,0,24.085V24.7a1.251,1.251,0,0,0,1.1.462c1.723-.021,3.447-.019,5.17-.014l3.008,0v21.7H6.311c-1.743,0-3.486,0-5.228-.012A1.161,1.161,0,0,0,0,47.312v.614a1.329,1.329,0,0,0,1.18.459c1.668-.018,3.334-.015,5-.013q1.417,0,2.836,0a1.61,1.61,0,0,0,1.815-1.8c0-.579,0-1.158,0-1.738V43.71H13l.038.28c.025.18.035.36.046.536a2.282,2.282,0,0,0,.151.859,7.965,7.965,0,0,0,1.307,1.868.7.7,0,0,0,.5.214.789.789,0,0,0,.567-.3.769.769,0,0,0-.155-1.114,1.832,1.832,0,0,1-.346-2.768l.084-.128c.206-.319.413-.638.629-.949a1.82,1.82,0,0,1,2.6-.613,1.787,1.787,0,0,1,.394,2.587c-.133.213-.274.424-.415.633-.2.292-.391.583-.566.887a3.366,3.366,0,0,0,1,4.407.743.743,0,0,0,.946-.009.688.688,0,0,0,.234-.846,1.436,1.436,0,0,0-.362-.447,1.8,1.8,0,0,1-.339-2.566c.253-.4.516-.8.787-1.193a1.8,1.8,0,0,1,2.593-.638,1.823,1.823,0,0,1,.385,2.636c-.118.187-.241.372-.364.556-.211.318-.421.634-.607.963a3.321,3.321,0,0,0,.954,4.327c.382.266.681.3.888.1a1.581,1.581,0,0,0,.361-.9s-.022-.127-.342-.44a1.833,1.833,0,0,1-.348-2.616c.266-.424.538-.845.826-1.253a1.879,1.879,0,0,1,1.523-.882,1.809,1.809,0,0,1,.965.293,1.785,1.785,0,0,1,.5,2.569c-.145.234-.3.464-.448.693-.194.293-.389.586-.565.891a3.3,3.3,0,0,0,.934,4.369.925.925,0,0,0,.892.115.57.57,0,0,0,.342-.476,1.365,1.365,0,0,0-.378-.9,1.881,1.881,0,0,1-.326-2.563l.045-.071c.286-.451.58-.916.914-1.352A1.736,1.736,0,0,1,31.182,50a1.8,1.8,0,0,1,.7,2.283c-.032.075-.066.151-.1.226a3.436,3.436,0,0,0-.152.369c-.2.619-.071.911.526,1.2s1.167.561,1.76.819A3.56,3.56,0,0,0,38.8,52.5l.228-.872.315.085a3.777,3.777,0,0,0,3.256-.376,3.734,3.734,0,0,0,1.66-2.875L44.3,48.1l.354.085a3.7,3.7,0,0,0,3.176-.553,3.933,3.933,0,0,0,1.527-2.8l.046-.291.293.018c2.1.126,3.569-.745,4.132-2.456s-.1-3.263-1.863-4.36q-9.82-6.111-19.645-12.216a2.863,2.863,0,0,0-4.154.739L26.338,28.6q-.976,1.253-1.955,2.5a3.177,3.177,0,0,1-4.5.748,3.022,3.022,0,0,1-1.22-2.1,3.434,3.434,0,0,1,.706-2.428q1.091-1.465,2.192-2.921c.96-1.273,1.92-2.547,2.868-3.829a3.52,3.52,0,0,1,3.01-1.5h.027q1.41.007,2.819,0c1.689,0,3.436-.012,5.156.034a5.2,5.2,0,0,1,2.375.654c2.006,1.161,4.022,2.375,5.973,3.548,1.349.812,2.7,1.625,4.054,2.425.725.428,1.292.778,1.752,1.061,1.921,1.182,1.927,1.182,4.184,1.162.552,0,1.232-.009,2.1,0,.326,0,.649,0,.987,0h.82V46.478c0,1.327.574,1.894,1.919,1.9q3.916,0,7.832,0c.942,0,1.073-.387,1.078-.763a.693.693,0,0,0-.164-.52,1.26,1.26,0,0,0-.891-.245M20.275,33.758a4.31,4.31,0,0,0,4.93-1.274c.794-.885,1.534-1.855,2.248-2.793.321-.421.642-.842.969-1.258l.829-1.065c.811-1.029,1.3-1.12,2.394-.445q6.817,4.233,13.632,8.47l1.507.932c1.482.915,3.016,1.861,4.5,2.836a2.991,2.991,0,0,1,1.092,1.449,1.755,1.755,0,0,1-.748,2.021,1.975,1.975,0,0,1-2.258.1c-1.175-.692-2.334-1.419-3.455-2.122-.485-.3-.963-.615-1.445-.926s-.963-.625-1.451-.931a.825.825,0,0,0-1.209.128c-.261.4-.122.838.372,1.159q1.082.7,2.172,1.4,1.156.739,2.308,1.486a2.064,2.064,0,0,1,.959,2.521,1.984,1.984,0,0,1-1.187,1.2,2.121,2.121,0,0,1-1.792-.189c-1.182-.688-2.363-1.42-3.507-2.127l-1.391-.859c-.08-.049-.156-.1-.234-.153s-.178-.118-.269-.172a.769.769,0,0,0-1.152.193.745.745,0,0,0,.3,1.078c.64.433,1.288.853,1.938,1.273l1.016.66c.169.111.34.221.5.346a2,2,0,0,1,.5,2.763,1.974,1.974,0,0,1-2.689.626c-.853-.5-1.7-1.046-2.512-1.572l-.976-.627c-.091-.058-.178-.12-.266-.181a3.958,3.958,0,0,0-.336-.222.765.765,0,0,0-1.066.189.716.716,0,0,0,.187,1.051c.326.251.669.48,1.012.711.214.145.428.288.639.438a2.055,2.055,0,0,1,.762,2.76,1.906,1.906,0,0,1-1.7.988,2.624,2.624,0,0,1-1.12-.267l-.888-.426.067-.258a3.431,3.431,0,0,0-3.821-4.451l-.259.027L29.286,48a3.458,3.458,0,0,0-3.975-2.6l-.26.022-.076-.252a3.4,3.4,0,0,0-2.625-2.55,3.864,3.864,0,0,1-2.236-1.488,3.316,3.316,0,0,0-2.707-1.41h-.014a3.221,3.221,0,0,0-2.667,1.414,2.033,2.033,0,0,1-2.11,1.021,6.119,6.119,0,0,0-.923-.016c-.16,0-.322.009-.489.009h-.324V27.818h6.249v.324c0,.179,0,.355-.008.531a8.376,8.376,0,0,0,.015,1.051,4.419,4.419,0,0,0,3.14,4.035" transform="translate(0 3.095)" fill="#1a1818"/>
      <path id="Path_3829" data-name="Path 3829" d="M14.942,13.013c.018.445.381.741.928.755.531.012,1.059.008,1.588.006l.7,0h.662c.542,0,1.086.006,1.627,0,.288,0,.961-.088.981-.76a.723.723,0,0,0-.192-.534,1.018,1.018,0,0,0-.728-.267c-.766-.009-1.538-.015-2.307-.015s-1.566.006-2.34.016a1.007,1.007,0,0,0-.726.279.7.7,0,0,0-.193.525" transform="translate(2.636 2.15)" fill="#ffc810"/>
      <path id="Path_3830" data-name="Path 3830" d="M28.5,5.464c.008.621.3,1,.789,1.014.466,0,.761-.375.768-.967.02-1.623.02-3.119,0-4.573C30.049.349,29.76,0,29.286,0h-.012c-.466,0-.763.373-.773.96-.011.512-.008,1.023,0,1.535V3.833c0,.545,0,1.088,0,1.632" transform="translate(5.026 0)" fill="#ffc810"/>
      <path id="Path_3831" data-name="Path 3831" d="M38.1,13.012c.015.606.5.745.9.755.52.013,1.04.009,1.56.007l.721,0,.718,0c.543,0,1.087.006,1.63-.006.329-.008.886-.116.9-.754a.734.734,0,0,0-.186-.552.98.98,0,0,0-.713-.253c-1.532-.021-3.09-.022-4.635,0a.988.988,0,0,0-.713.248.742.742,0,0,0-.186.554" transform="translate(6.721 2.151)" fill="#ffc810"/>
      <path id="Path_3832" data-name="Path 3832" d="M20.153,4.41a1.9,1.9,0,0,0-.461-.279c-.064-.033-.131-.066-.2-.1l-.151.113a2.149,2.149,0,0,0-.518.472c-.067.1-.248.379.234.861l.547.548c.911.913,1.82,1.827,2.737,2.733.668.661,1.072.269,1.2.14a.815.815,0,0,0-.109-1.213c-1.212-1.234-2.286-2.3-3.283-3.272" transform="translate(3.305 0.71)" fill="#ffc810"/>
      <path id="Path_3833" data-name="Path 3833" d="M39.65,4.185a.6.6,0,0,0-.325-.1.851.851,0,0,0-.565.274l-.4.4c-1,.993-2,1.986-2.986,2.994a.785.785,0,0,0-.056,1.123.733.733,0,0,0,.512.245h.008a.937.937,0,0,0,.636-.308c1.162-1.136,2.283-2.26,3.333-3.34a1.974,1.974,0,0,0,.287-.461l.1-.181c-.035-.049-.072-.1-.106-.148a1.874,1.874,0,0,0-.436-.494" transform="translate(6.193 0.72)" fill="#ffc810"/>
    </g>
  </g>
</svg>
