<svg xmlns="http://www.w3.org/2000/svg" xmlns:xlink="http://www.w3.org/1999/xlink" width="58.218" height="57.955" viewBox="0 0 58.218 57.955">
  <defs>
    <clipPath id="clip-path">
      <rect id="Rectangle_2269" data-name="Rectangle 2269" width="58.218" height="57.955" transform="translate(0 0)" fill="none"/>
    </clipPath>
  </defs>
  <g id="Group_1028" data-name="Group 1028" transform="translate(0 0)">
    <g id="Group_1027" data-name="Group 1027" clip-path="url(#clip-path)">
      <path id="Path_3812" data-name="Path 3812" d="M58.189,42.106a3.616,3.616,0,0,1-.059-.494l-.056-1.963c-.074-2.535-.146-5.07-.2-7.6a5.234,5.234,0,0,0-3.766-4.956c-.162-.047-.326-.09-.5-.135l-.462-.122,0-.966c0-.6.007-1.184-.009-1.77l0-.012c.03-1.887.02-6.938.009-8.354v-.087a8.5,8.5,0,0,0-3.631-7.156c-.2-.148-.411-.33-.418-.56-.021-.66-.019-1.319-.016-2V5.013l.6,0c.21,0,.4,0,.579,0a1.843,1.843,0,0,0,1.853-1.839c.01-.21.008-.42.005-.631l0-.273C52.123.7,51.42,0,49.845,0H2.124c-.117,0-.236,0-.353,0A1.839,1.839,0,0,0,.024,1.819c-.009.455-.007.911,0,1.367A1.8,1.8,0,0,0,1.8,5.009c.212.01.423.007.635,0l.552,0V35.689l-.549,0c-.194,0-.379-.007-.562.005A1.862,1.862,0,0,0,.023,37.635c0,.124-.006.249-.011.374a3.783,3.783,0,0,0,.023.837,3.067,3.067,0,0,0,.409,1.166,1.933,1.933,0,0,0,1.809.729h0q9.1,0,18.206,0H34.709l.024.409c.007.1.013.175.013.252q0,.774,0,1.547c-.005,1.239-.01,2.52.021,3.777a4.935,4.935,0,0,0,.165,1c.054.23.107.461.141.692a1.883,1.883,0,0,1-.055.827c-.07.222-.161.439-.253.655a3.931,3.931,0,0,0-.317.961c-.2,1.451-.355,2.935-.5,4.37l-.119,1.138a1.45,1.45,0,0,0,.313,1.158,1.41,1.41,0,0,0,1.086.424q8.8.009,17.6,0a1.433,1.433,0,0,0,1.1-.434,1.418,1.418,0,0,0,.308-1.136c-.185-1.687-.374-3.373-.584-5.057-.055-.443-.051-.934.7-1.128a5.55,5.55,0,0,0,2.625-1.8,6.114,6.114,0,0,0,1.249-2.619Zm-6.3-17.649c0,.018,0,.032,0,.05-.005.426,0,.822,0,1.242V26.6l-.3-.062c-.293-.06-.577-.116-.856-.171-.69-.137-1.342-.265-1.989-.431-.144-.037-.869-.244-1.011-.689a1.39,1.39,0,0,1,.411-1.6,5.446,5.446,0,0,0,1.937-4.469c-.012-.464-.009-.927-.006-1.411l0-1.053.342.136c.1.039.183.077.263.114a1.43,1.43,0,0,0,.344.126c.83.125.9.716.873,1.218-.037.639-.039,5.027,0,6.142m-11.932-.8a1.471,1.471,0,0,1,.354,1.6c-.116.441-.886.647-.973.669-.662.167-1.319.3-2.015.438L36.2,26.6V17.984l.181-.052a.405.405,0,0,1,.232-.037c1.246.232,1.349.353,1.392,1.614a5.664,5.664,0,0,0,1.954,4.146m-.74-5.429.249-.018a17.545,17.545,0,0,0,8.649-3.227l.232-.153.127.248c.036.07.081.139.124.206a1.115,1.115,0,0,1,.239.6c0,1.375-.029,2.78-.088,4.294a2.444,2.444,0,0,1-.292,1.035,7.66,7.66,0,0,1-3.612,3.349,2.115,2.115,0,0,1-1.692-.047c-1.645-.9-3.24-2.019-3.764-4.1a6.023,6.023,0,0,1-.131-1.325c-.005-.2-.01-.4-.024-.61Zm-1.927,9.418q.345-.07.681-.143c.5-.107.988-.212,1.481-.294a2.327,2.327,0,0,0,2.136-1.713l.089-.31.277.163a3.726,3.726,0,0,0,4.073.05l.2-.12.185.27a.841.841,0,0,1,.131.217,2.086,2.086,0,0,0,1.677,1.356c.586.117,1.17.239,1.752.361l.955.2,0,.208c-.051,2.419-3.159,4.9-6.274,5.019q-.183.006-.366.006c-3.776,0-6.9-2.147-7.193-5l-.023-.225ZM51.886,15.72v.356l-.335-.122a3.887,3.887,0,0,1-2.295-2.019c-.186-.388-.364-.6-.544-.646s-.433.05-.779.3a17.991,17.991,0,0,1-7.006,3.2,9.694,9.694,0,0,1-1.853.186,8.217,8.217,0,0,1-2.283-.319.777.777,0,0,1-.636-.829,7.444,7.444,0,0,1,2.024-5.42,7.509,7.509,0,0,1,5.4-2.2,8.441,8.441,0,0,1,5.013,1.17,7.12,7.12,0,0,1,3.292,6.349M34.9,26.865l-.2.039a5.454,5.454,0,0,0-3.725,2.422,7.061,7.061,0,0,0-.869,3.6c-.02.313-.04.628-.069.944l-.037.4-.548-.329c-.131-.076-.24-.14-.343-.211l-1.8-1.229q-1.11-.76-2.221-1.521c-.244-.166-.491-.328-.738-.49-.422-.276-.843-.553-1.25-.851a2.93,2.93,0,0,0-3.668-.14l-.141.094-5.175-3.56c-.156-.109-.311-.219-.472-.32a.631.631,0,0,0-.927.105.573.573,0,0,0-.1.455.731.731,0,0,0,.318.441c1.13.791,2.268,1.572,3.4,2.353l1.379.953a1.943,1.943,0,0,0,.232.154.915.915,0,0,1,.481,1.1,2.692,2.692,0,0,0,1.183,2.746c.3.229,2.1,1.676,2.1,1.676h-3.64q-3.393,0-6.784,0c-.117,0-.233-.006-.352-.005l-6.616,0V5.05H47.8V7.274l-.266-.017c-.431-.028-.863-.063-1.295-.1-.918-.074-1.868-.15-2.8-.156H43.39a8.412,8.412,0,0,0-8.489,8.46c-.014,2.425-.011,4.849-.007,7.274ZM22.95,31.57c-.037.583-1.091,1.9-1.635,1.9H21.3a2.024,2.024,0,0,1-1.672-1.892,1.519,1.519,0,0,1,1.618-1.42,2.242,2.242,0,0,1,1.411.731.966.966,0,0,1,.292.676M2.39,3.785c-1.033,0-1.151-.117-1.152-1.142,0-.647,0-.972.218-1.19S2,1.235,2.65,1.235h4.7q21.152,0,42.29.01c.011,0,1.059.015,1.135.455a6.11,6.11,0,0,1-.021,1.7c-.039.369-.792.377-.8.377q-1.513.01-3.025.008H2.39ZM26.26,39.44a3.222,3.222,0,0,1-.355.028H2.236c-.836,0-.994-.159-1-1v-.2c0-.636-.007-.925.2-1.126s.466-.19.963-.183l.36,0c1.2,0,7.479,0,8.683,0h0l.035,0h2.673q4.385,0,8.769.013A2.239,2.239,0,0,1,24,37.275c.611.362,1.21.751,1.843,1.164l1.4.906Zm8.905,17.245-.031-.214c-.132-.9.556-5.918.967-6.474l.139-.188.2.125a4.915,4.915,0,0,0,2.831.56q4.394-.012,8.789-.006H52.3l.73,6.2ZM55.476,48.2a3.514,3.514,0,0,1-1.891.9l-.283.038V37.9a3.619,3.619,0,0,0-.014-.43.546.546,0,0,0-.562-.535.575.575,0,0,0-.64.521,1.256,1.256,0,0,0-.013.313l0,.143V49.226H51.1q-1.783,0-3.567-.007c-2.868-.009-5.834-.018-8.749.027h-.066a2.569,2.569,0,0,1-2.772-2.855c.051-1.986.041-4.009.03-5.965q-.007-1.225-.009-2.452l0-.142a2.438,2.438,0,0,0-.01-.342.612.612,0,0,0-.627-.56c-.378.045-.567.233-.579.576-.012.378-.01.756-.007,1.144l0,.773H33.387c-1.153,0-2.277,0-3.4-.013a1.548,1.548,0,0,1-.765-.283C27.453,38,25.687,36.871,23.939,35.75l-1.554-.995,1.962-2.786,1.465,1.008c.955.658,1.921,1.324,2.9,1.975a1.589,1.589,0,0,0,2.573-1.243c.016-.216.03-.431.043-.647.022-.339.043-.677.075-1.015a5.4,5.4,0,0,1,.184-1.062,3.838,3.838,0,0,1,2.793-2.719c.243-.066.49-.118.727-.167l.427-.092.094.078c.1.069.174.123.2.229a7.52,7.52,0,0,0,6.063,5.6,8.742,8.742,0,0,0,8.681-2.5,6.076,6.076,0,0,0,1.536-2.757c.15-.588.465-.644.924-.543a4.075,4.075,0,0,1,3.628,4.394c.092,3.732.2,7.744.335,11.8a4.609,4.609,0,0,1-1.518,3.9" fill="#1a1818"/>
      <path id="Path_3813" data-name="Path 3813" d="M29.891,16.078a3.46,3.46,0,0,0,.583-.037.554.554,0,0,0,.513-.59.584.584,0,0,0-.55-.62,2.213,2.213,0,0,0-.4-.02H9.29a1.475,1.475,0,0,0-1,.236.518.518,0,0,0-.126.408c0,.3.1.624,1.1.624q10.313,0,20.623,0" fill="#ffc810"/>
      <path id="Path_3814" data-name="Path 3814" d="M30.124,8.84h0l-12.649,0H9.039c-.86,0-.87.464-.873.617s-.013.615.848.643c.1.005.208,0,.312,0h.137l13.851,0c2.239,0,4.476.005,6.711-.02a1.487,1.487,0,0,0,.883-.355.929.929,0,0,0-.017-.561c-.089-.238-.3-.331-.767-.331" fill="#ffc810"/>
      <path id="Path_3815" data-name="Path 3815" d="M20.186,20.78H9.291a1.471,1.471,0,0,0-1,.236.511.511,0,0,0-.126.408c.005.3.1.624,1.1.624H20.164a1.475,1.475,0,0,0,1-.236.518.518,0,0,0,.126-.408c0-.3-.1-.624-1.1-.624" fill="#ffc810"/>
    </g>
  </g>
</svg>
