<svg xmlns="http://www.w3.org/2000/svg" width="53.337" height="53.241" viewBox="0 0 53.337 53.241">
  <g id="Group_1800" data-name="Group 1800" transform="translate(-174.509 -603.151)">
    <path id="Path_6436" data-name="Path 6436" d="M225.787,637.646c.214.062.611.171.962-1a24.877,24.877,0,0,0,.443-12.961,26.367,26.367,0,0,0-25.918-20.533,28.421,28.421,0,0,0-4.883.425,25.184,25.184,0,0,0-15.923,9.461c-5.764,7.316-7.357,15.434-4.733,24.129a21.1,21.1,0,0,0,.974,2.6.771.771,0,0,0,.414.427.618.618,0,0,0,.479-.026.723.723,0,0,0,.288-1c-.035-.093-.074-.185-.114-.276l-.09-.216a24.436,24.436,0,0,1-.722-16.431.972.972,0,0,1,1.062-.808c2.269.019,4.538.017,6.807.013h3.245l-.078.591c-.02.144-.037.27-.05.4l-.12,1.16c-.108,1.024-.216,2.05-.3,3.076a.657.657,0,0,0,1.03.611.994.994,0,0,0,.293-.7c.107-1.157.222-2.314.338-3.487l.157-1.58.434-.047a2.085,2.085,0,0,1,.251-.021h6.13q7.97,0,15.938-.008h0a.726.726,0,0,1,.811.746c.1,1.022.218,2.044.333,3.065l.157,1.408c.053.488.318.786.709.769a.621.621,0,0,0,.444-.2.813.813,0,0,0,.164-.609c-.067-.922-.163-1.842-.261-2.761l-.047-.458c-.038-.359-.086-.716-.136-1.089l-.113-.865,3.342,0c2.273,0,4.543.005,6.813-.015a1,1,0,0,1,1.107.826,23.991,23.991,0,0,1,.045,14.02,1.6,1.6,0,0,0-.065,1.113A.554.554,0,0,0,225.787,637.646Zm-37.436-17.79-.058.227H177.818l.151-.4a24.014,24.014,0,0,1,16.727-14.3l.845-.181-.552.665C191.327,610.284,190.148,612.769,188.351,619.856Zm24.15.236H189.589l.118-.387c.15-.5.293-.988.436-1.475.32-1.1.623-2.136.989-3.177a21.724,21.724,0,0,1,4.369-7.741,7.784,7.784,0,0,1,4.317-2.7,7.021,7.021,0,0,1,5.357,1.209,12.618,12.618,0,0,1,3.894,4.452,32.668,32.668,0,0,1,3.346,9.185.875.875,0,0,1,.012.246Zm11.478.013c-.165.009-.3.016-.43.016h-2.372q-3.2,0-6.4.01h-.828s-.149-.474-.22-.816a29.925,29.925,0,0,0-3.745-10.083c-.506-.8-1.084-1.556-1.7-2.352-.28-.363-.563-.732-.843-1.109l-.52-.705.843.237A24.864,24.864,0,0,1,224.5,619.667l.185.4Z" fill="#ffc810"/>
    <path id="Path_6437" data-name="Path 6437" d="M227.8,651.706a10.244,10.244,0,0,0,.026-1.482c-.007-.236-.013-.471-.013-.705l.016-.6c0-.421,0-.841,0-1.262a3.877,3.877,0,0,0-1.563-3.2q-1.23-.961-2.469-1.91a2.226,2.226,0,0,0-3.049-.064,5.682,5.682,0,0,1-5.866.607A13.319,13.319,0,0,1,212.5,641.7c-.707-.5-1.4-1.045-2.065-1.57-.425-.334-.849-.668-1.28-.994a2.474,2.474,0,0,0-3.193-.061,7.86,7.86,0,0,1-9.582-.012,2.443,2.443,0,0,0-3.141.054c-.272.2-.539.415-.805.627-.38.3-.759.6-1.153.881-.261.185-.521.375-.781.565a21.061,21.061,0,0,1-2.579,1.7,5.8,5.8,0,0,1-6.42-.494,2.154,2.154,0,0,0-2.808.052c-.621.469-1.235.947-1.848,1.426l-.716.558a3.892,3.892,0,0,0-1.584,3.246v.6c0,1,0,2,0,3a3.881,3.881,0,0,0,2.809,3.817,25.227,25.227,0,0,0,14.685.27,2.1,2.1,0,0,1,1.023-.013,32.324,32.324,0,0,0,16.312-.023,2.5,2.5,0,0,1,1.253.1,25.585,25.585,0,0,0,14.407-.352A3.736,3.736,0,0,0,227.8,651.706Zm-38.113,2.909c-.39.045-.762.093-1.122.139-.75.1-1.46.186-2.171.228q-.629.036-1.262.037a24.425,24.425,0,0,1-7.26-1.144,2.631,2.631,0,0,1-2-2.687c-.005-.589,0-1.179,0-1.768,0-.573,0-1.146,0-1.719a2.644,2.644,0,0,1,1.068-2.216l.078-.06q1.221-.942,2.437-1.891a.97.97,0,0,1,1.289-.057,7.3,7.3,0,0,0,6.639,1.137.452.452,0,0,1,.227,0l.364.058v1.154c0,.385,0,.771.008,1.155.007.846.015,1.72-.018,2.583a5.191,5.191,0,0,0,1.884,4.521l.524.448Zm20.658-.948a45.521,45.521,0,0,1-5.672,1.183,26.449,26.449,0,0,1-3.564.239,32.528,32.528,0,0,1-8.864-1.315,3.65,3.65,0,0,1-2.947-3.87l0-1.331c0-.937.008-1.875-.008-2.812a3.535,3.535,0,0,1,1.51-3.084c1.006-.748,2.029-1.54,3.13-2.421a1.373,1.373,0,0,1,1.826-.035,8.929,8.929,0,0,0,10.85.012,1.309,1.309,0,0,1,1.865.047q1.623,1.245,3.232,2.506a3.349,3.349,0,0,1,1.357,2.723c0,.565,0,1.132,0,1.7v.509l0,.855v1.39A3.424,3.424,0,0,1,210.342,653.667Zm6.945,1.325a25.891,25.891,0,0,1-4.582-.42l-.626-.111.484-.412a5.31,5.31,0,0,0,1.836-4.706c-.044-.984-.039-1.981-.035-2.946,0-.383,0-.767,0-1.151a1.039,1.039,0,0,1,.05-.3l.066-.233.249-.006c.315.023.624.048.931.073.669.056,1.3.108,1.939.126a6.122,6.122,0,0,0,3.784-1.27,1.235,1.235,0,0,1,1.74.058c.53.45,1.1.879,1.644,1.295l.666.508a2.653,2.653,0,0,1,1.066,2.216q0,.7,0,1.4c0,.735,0,1.47-.008,2.2a2.44,2.44,0,0,1-1.709,2.449A23.5,23.5,0,0,1,217.287,654.992Z"/>
    <path id="Path_6438" data-name="Path 6438" d="M194.517,632.862a6.771,6.771,0,0,0,6.428,5.581,6.668,6.668,0,0,0,6.741-4.937,13.407,13.407,0,0,0,.26-5.715c-.423-2.5-1.66-3.971-3.782-4.494a10.823,10.823,0,0,0-2.1-.229c-.237-.01-.474-.02-.71-.036v.02l-.281.041-.413,0c-.308,0-.618.007-.923-.007-.1-.005-.2-.007-.3-.007a4.728,4.728,0,0,0-4.679,3.58A12,12,0,0,0,194.517,632.862Zm1.437-5.661a3.534,3.534,0,0,1,3.784-2.784l2.763-.013a3.732,3.732,0,0,1,4.048,3.21,11.126,11.126,0,0,1-.146,5.433,5.383,5.383,0,0,1-5.2,4.1h-.049a5.375,5.375,0,0,1-5.192-4.091A10.415,10.415,0,0,1,195.954,627.2Z"/>
    <path id="Path_6439" data-name="Path 6439" d="M212.134,632.311a9.041,9.041,0,0,0-.238,5.605,5.464,5.464,0,0,0,5.337,4.211h.071a5.355,5.355,0,0,0,5.237-4.3,15.158,15.158,0,0,0,.184-4.035,4.088,4.088,0,0,0-3.345-4,8.865,8.865,0,0,0-1.5-.127c-.143,0-.286-.008-.428-.015l0,.031h-1.424A3.8,3.8,0,0,0,212.134,632.311Zm3.6-1.3c.337-.015.674-.012,1.01-.008h.194l1.153-.012h.01a2.955,2.955,0,0,1,3.322,2.958,15.782,15.782,0,0,1-.13,3.471,4.241,4.241,0,0,1-4.151,3.41,3.893,3.893,0,0,1-3.553-2.332,7.382,7.382,0,0,1-.208-5.834A2.463,2.463,0,0,1,215.733,631.009Z"/>
    <path id="Path_6440" data-name="Path 6440" d="M184,629.679h-.227a3.672,3.672,0,0,0-3.6,2.355,8.394,8.394,0,0,0-.072,6.67,5.421,5.421,0,0,0,9.752.673,8.347,8.347,0,0,0,.948-4.244c-.015-.113-.03-.244-.046-.393a13.8,13.8,0,0,0-.214-1.435c-.552-2.509-2.055-3.743-4.476-3.632-.475.019-.953.014-1.429.01Q184.319,629.68,184,629.679Zm.872,1.323.579-.013.818,0a2.825,2.825,0,0,1,2.944,2.277,8.684,8.684,0,0,1-.106,4.545,4.157,4.157,0,0,1-3.754,3c-.084,0-.166.006-.249.006a3.9,3.9,0,0,1-3.685-2.505,7.461,7.461,0,0,1-.137-5.606,2.487,2.487,0,0,1,2.387-1.7c.335-.015.671-.012,1.008-.008Z"/>
  </g>
</svg>
