<svg xmlns="http://www.w3.org/2000/svg" width="108" height="108" viewBox="0 0 108 108">
  <g id="Group_1801" data-name="Group 1801" transform="translate(-1488 -3089)">
    <circle id="Ellipse_75" data-name="Ellipse 75" cx="54" cy="54" r="54" transform="translate(1488 3089)" fill="#ffd729"/>
    <g id="Group_1788" data-name="Group 1788" transform="translate(2701.599 2378.622)">
      <path id="Path_6411" data-name="Path 6411" d="M-1165.667,794.5c.13-.692.264-1.384.4-2.084l.248-1.289h10.507l.428,2.258c.083.438.166.876.262,1.312a2.009,2.009,0,0,0,2.137,1.731c1.373.011,2.746.009,4.117,0a2.033,2.033,0,0,0,2.195-1.806c.437-2.243.829-4.269,1.2-6.342a1.4,1.4,0,0,1,.773-1.066,20.178,20.178,0,0,0,7.768-7.243,2.148,2.148,0,0,1,1.071-.825c.758-.27,1.525-.514,2.293-.757.581-.185,1.162-.369,1.739-.566a3.212,3.212,0,0,0,2.264-3.117q.021-2.184,0-4.369a3.224,3.224,0,0,0-2.258-3.124c-.8-.275-1.608-.533-2.4-.767a1.794,1.794,0,0,1-1.271-1.253,17.079,17.079,0,0,0-3.706-6.281,1.388,1.388,0,0,1-.285-1.079,20.874,20.874,0,0,0,.279-6.709c-.3-1.945-1.08-2.549-3-2.3-.2.027-.4.056-.6.1a30.956,30.956,0,0,0-7.512,2.763,2.946,2.946,0,0,1-2.241.094c-.215-.052-.433-.1-.661-.138l-.368-.054.313-.831a11.889,11.889,0,0,0,.9-4.144.724.724,0,0,0-.231-.6.606.606,0,0,0-.537-.1c-.391.089-.481.35-.534.9a11.087,11.087,0,0,1-6.756,9.519,2.563,2.563,0,0,1-1.316.2,27.335,27.335,0,0,0-6.38.005,2.412,2.412,0,0,1-1.128-.12,11.351,11.351,0,0,1-6.813-12.463,11.338,11.338,0,0,1,10.705-9.262,11.018,11.018,0,0,1,10.349,5.884c.516.884.861.7,1.046.6a.566.566,0,0,0,.3-.328,1.3,1.3,0,0,0-.221-.913,12.711,12.711,0,0,0-12.972-6.411,12.658,12.658,0,0,0-10.38,9.714,12.576,12.576,0,0,0,5.119,13.094c.088.062.172.131.274.214l.623.5-1.637.492a5.417,5.417,0,0,0-.577.192.618.618,0,0,0-.4.8.6.6,0,0,0,.774.411c.2-.043.391-.1.584-.163a25.241,25.241,0,0,1,7.534-1.138h.108a25.584,25.584,0,0,1,7.816,1.255.913.913,0,0,0,.694,0,.564.564,0,0,0,.276-.352c.045-.149.185-.6-.574-.866-.314-.107-.631-.205-.956-.306l-1.012-.319.421-.351c.216-.18.433-.352.645-.522a15.935,15.935,0,0,0,1.308-1.122c.377-.376.727-.8,1.065-1.217.2-.246.4-.493.613-.733a.739.739,0,0,1,.642-.259c.381.069.758.16,1.1.243l.6.142-.016.253c-.023.4-.055.783-.086,1.163-.065.8-.127,1.555-.114,2.31a6.963,6.963,0,0,0,7.24,7.1h.045a4.491,4.491,0,0,0,4.642-2.994c.052-.131.111-.26.182-.41l.3-.656.475.548c.107.121.2.226.286.337a15.219,15.219,0,0,1,2.542,4.763,2.89,2.89,0,0,0,2.044,2.014c.77.232,1.536.481,2.3.738a1.969,1.969,0,0,1,1.5,2.076c.007,1.249,0,2.5,0,3.747v.187a2.057,2.057,0,0,1-1.711,2.316c-1.246.4-2.493.8-3.741,1.188a2.694,2.694,0,0,0-1.619,1.194,19.036,19.036,0,0,1-7.845,7.233,1.511,1.511,0,0,0-.852,1.15c-.208,1.157-.427,2.311-.647,3.465-.2,1.065-.4,2.129-.6,3.2a1.024,1.024,0,0,1-1.17,1c-1.156-.036-2.374-.038-3.723,0a1.017,1.017,0,0,1-1.164-1.005c-.15-.956-.342-1.928-.527-2.867l-.107-.546a1.233,1.233,0,0,0-1.446-1.147,41.965,41.965,0,0,1-9.995.227c-1.041-.1-1.435.216-1.634,1.3-.07.379-.143.759-.216,1.138-.126.656-.252,1.312-.362,1.971a.964.964,0,0,1-1.052.931h-.041c-1.127-.024-2.353-.025-3.857,0a.947.947,0,0,1-1.059-.882c-.137-.75-.287-1.5-.436-2.247-.231-1.16-.47-2.358-.659-3.546a2.491,2.491,0,0,0-1.392-1.99,15.883,15.883,0,0,1-6.757-6.83,19.333,19.333,0,0,1-.766-15.665,15.93,15.93,0,0,1,7.126-8.311c.752-.454.513-.868.434-1a.565.565,0,0,0-.347-.283,1.007,1.007,0,0,0-.726.17,17.652,17.652,0,0,0-8.681,12.543,2.777,2.777,0,0,1-.114.412l-.194.641-.356-.35a1,1,0,0,1-.308-.657,4.247,4.247,0,0,0-1.711-3.135,2.471,2.471,0,0,0-1.949-.5,2.609,2.609,0,0,0-1.689,1.287,2.224,2.224,0,0,0-.341,1.764,2.539,2.539,0,0,0,1.392,1.486,8.432,8.432,0,0,0,1.172.461c.168.057.337.113.5.174.106.038.214.067.338.1l.64.184-.249.345a4.9,4.9,0,0,1-3.67,2.2,1.214,1.214,0,0,0-.93.474v.457a.907.907,0,0,0,.97.466l.261-.028a5.042,5.042,0,0,0,.7-.1,6.519,6.519,0,0,0,3.956-3.095c.147-.231.314-.493.585-.548a.514.514,0,0,1,.412.1l.117.081.011.141c.045.586.078,1.16.109,1.727a33.426,33.426,0,0,0,.315,3.479,17.867,17.867,0,0,0,9.182,13.04,1.42,1.42,0,0,1,.616.86c.374,1.808.718,3.623,1.063,5.437l.09.472a2.119,2.119,0,0,0,2.388,1.97c1.287,0,2.575,0,3.865,0A2.086,2.086,0,0,0-1165.667,794.5Zm26.68-40.978a21.745,21.745,0,0,1-1.068,6.184c-.687,2.015-1.443,3.062-3.5,3.062a9.64,9.64,0,0,1-1.751-.188,5.359,5.359,0,0,1-4.485-5.133,16.534,16.534,0,0,1,.218-3.262l.016-.126a1.6,1.6,0,0,1,.809-1.092,33.9,33.9,0,0,1,7.957-2.87,1.42,1.42,0,0,1,1.131.07c.267.188.364.522.442,1.035.08.529.124,1.069.167,1.589.019.23.037.461.059.69l0,.021Zm-49.477,13.886c-.512-.182-.977-.349-1.431-.544a1,1,0,0,1-.607-.572.905.905,0,0,1,.1-.749c.566-1.021,1.283-.787,1.565-.639a2.993,2.993,0,0,1,1.453,2.423l.079.5Z"/>
      <path id="Path_6412" data-name="Path 6412" d="M-1144.248,767.917a2.779,2.779,0,0,0,2.789,2.564h.009a2.8,2.8,0,0,0,2.772-2.526c.02-.232.009-.782-.523-.864-.426-.071-.684.162-.768.678a1.49,1.49,0,0,1-1.468,1.423h-.027a1.506,1.506,0,0,1-1.5-1.445c-.1-.589-.415-.669-.613-.669a1.075,1.075,0,0,0-.118.008C-1144.069,767.13-1144.286,767.456-1144.248,767.917Z"/>
      <path id="Path_6413" data-name="Path 6413" d="M-1165.294,743.674a1.358,1.358,0,0,0,1.171,1.353c.286.043.579.048.858.118a2.577,2.577,0,0,1,1.944,2.342,2.528,2.528,0,0,1-1.576,2.528c-.4.151-.533.331-.505.74a.575.575,0,0,1-.575.616.606.606,0,0,1-.614-.586,1.017,1.017,0,0,1-.005-.253c.044-.27-.068-.394-.323-.5a2.529,2.529,0,0,1-1.59-2.2.642.642,0,0,1,.553-.789c.367-.031.621.233.664.69a1.356,1.356,0,0,0,1.4,1.281,1.36,1.36,0,0,0,1.354-1.25,1.343,1.343,0,0,0-1.191-1.473,3.417,3.417,0,0,1-1.582-.438,2.5,2.5,0,0,1-1.187-2.37,2.461,2.461,0,0,1,1.582-2.2c.259-.11.359-.231.326-.5a1.036,1.036,0,0,1,.023-.359.551.551,0,0,1,.574-.456.564.564,0,0,1,.591.482.763.763,0,0,1,.014.252c-.035.288.057.431.361.54a2.5,2.5,0,0,1,1.707,2.258.638.638,0,0,1-.573.773c-.352.02-.6-.244-.642-.678a1.385,1.385,0,0,0-1.415-1.311A1.38,1.38,0,0,0-1165.294,743.674Z"/>
    </g>
  </g>
</svg>
