<svg xmlns="http://www.w3.org/2000/svg" width="108" height="108" viewBox="0 0 108 108">
  <g id="Group_1800" data-name="Group 1800" transform="translate(-1088 -3089)">
    <circle id="Ellipse_74" data-name="Ellipse 74" cx="54" cy="54" r="54" transform="translate(1088 3089)" fill="#ffd729"/>
    <g id="Group_1790" data-name="Group 1790" transform="translate(2151.957 2378.128)">
      <path id="Path_6426" data-name="Path 6426" d="M-980.012,780.163a7.046,7.046,0,0,0,2.1-3.92.722.722,0,0,1,.1-.254l-.038-3.745c-.032-.335-.063-.67-.072-1.006q-.221-7.878-.426-15.758a3.708,3.708,0,0,0-.7-2.343,3.574,3.574,0,0,0-3.291-1.477,3.717,3.717,0,0,0-2.906,2.361,10.069,10.069,0,0,0-.7,4.133q0,3.028.026,6.057.013,2.195.023,4.388c0,.314-.025.629-.051.943l-.048.657-.651.2-.186-.324a3.471,3.471,0,0,0-2.576-1.23h-.045a3.507,3.507,0,0,0-2.567,1.248l-.134.151a18.443,18.443,0,0,1-1.416,1.483c-1.723,1.555-3.51,3.137-5.313,4.7a5.957,5.957,0,0,0-2.051,3.617,15.578,15.578,0,0,0-.22,2.46c-.014,3.736-.006,7.472,0,11.207l.005,2.275c0,.84.182,1.022,1.015,1.023q5.19,0,10.383,0c.828,0,1.008-.184,1.01-1.027l0-1.113c.005-1.737.011-3.475-.009-5.213a1.733,1.733,0,0,1,.571-1.353q2.527-2.506,5.04-5.027Zm-9.58,7.691a1.427,1.427,0,0,0-.475,1.141c.018,1.342.014,2.685.011,4.026l0,2.644h-9.76l-.005-4.2q-.006-4.363,0-8.729a16.134,16.134,0,0,1,.123-2,5.1,5.1,0,0,1,1.735-3.339c1.762-1.546,3.529-3.151,5.236-4.7l.873-.793a6.622,6.622,0,0,0,.548-.586c.094-.109.188-.217.286-.323a2.362,2.362,0,0,1,1.641-.823,1.864,1.864,0,0,1,1.369.542,1.877,1.877,0,0,1,.609,1.348,2.262,2.262,0,0,1-.73,1.614q-2.277,2.29-4.565,4.57l-1.88,1.878c-.826.826-.512,1.144-.361,1.3a.523.523,0,0,0,.388.191h0a1.488,1.488,0,0,0,.9-.537l1.844-1.837c1.523-1.514,3.046-3.03,4.546-4.568a8.371,8.371,0,0,0,2.538-4.269,10.408,10.408,0,0,0,.156-1.825c0-1.353-.011-2.707-.02-4.06-.015-2.066-.029-4.131-.015-6.2a17.2,17.2,0,0,1,.248-2.423l.092-.629a3.094,3.094,0,0,1,.344-.932,2.079,2.079,0,0,1,2.358-1.3,2.224,2.224,0,0,1,1.871,2.244q.118,3.694.216,7.39l.053,1.848q.042,1.514.079,3.025c.057,2.281.114,4.562.209,6.84a6.4,6.4,0,0,1-2.033,5.081c-1.649,1.616-3.28,3.252-4.911,4.887Q-987.83,786.1-989.592,787.854Z"/>
      <path id="Path_6427" data-name="Path 6427" d="M-1020.962,765.916a18.3,18.3,0,0,0,14.356,3.451,18.427,18.427,0,0,0,15.022-19.882,18.479,18.479,0,0,0-13.648-16c-.711-.179-1.455-.308-2.174-.434-.329-.057-.659-.114-.987-.177h-3.007c-.27.058-.607.115-.944.172-.7.12-1.43.243-2.121.425a18.457,18.457,0,0,0-13.709,19.618A18.232,18.232,0,0,0-1020.962,765.916Zm11.082-31.716h.017a16.947,16.947,0,0,1,12.055,5.018,16.935,16.935,0,0,1,4.995,12.063,17.087,17.087,0,0,1-17.068,17.048h-.017a16.944,16.944,0,0,1-12.054-5.019,16.948,16.948,0,0,1-5-12.063A17.086,17.086,0,0,1-1009.88,734.2Z"/>
      <path id="Path_6428" data-name="Path 6428" d="M-1030.059,797.008q5.256,0,10.512,0c.718,0,.926-.207.928-.917l.005-2.428c.009-3.875.017-7.751-.005-11.625a7.086,7.086,0,0,0-2.6-5.923,57.812,57.812,0,0,1-6.777-6.262,3.14,3.14,0,0,0-3.09-.928,3.654,3.654,0,0,0-2.087,1.371l-.564.644-.085-1.407c-.025-.351-.047-.661-.046-.97,0-1.093.015-2.186.025-3.279.022-2.347.045-4.775,0-7.159a15.321,15.321,0,0,0-.592-3.822,3.546,3.546,0,0,0-2.585-2.574,2.706,2.706,0,0,0-.713-.091,3.755,3.755,0,0,0-2.2.771,3.592,3.592,0,0,0-1.483,2.856c-.1,5.3-.266,10.691-.426,15.9l-.106,3.466a7.2,7.2,0,0,0,2.268,5.591c2.726,2.7,5.466,5.442,8.144,8.159a1.9,1.9,0,0,1,.495,1.221c.024,1.466.022,2.933.02,4.4v2C-1031.025,796.82-1030.844,797.008-1030.059,797.008Zm-3.654-12.7c-1.614-1.618-3.227-3.235-4.859-4.833a6.452,6.452,0,0,1-2.059-5.067c.117-3.484.214-6.969.313-10.452q.12-4.265.25-8.526a2.85,2.85,0,0,1,.475-1.549,2.163,2.163,0,0,1,1.9-.928,2.273,2.273,0,0,1,1.8,1.278,8.211,8.211,0,0,1,.746,3.984l0,1.851c.008,2.634.016,5.358-.082,8.034a8.372,8.372,0,0,0,2.607,6.448c1.757,1.783,3.531,3.551,5.3,5.317l1.4,1.4a1.043,1.043,0,0,0,.681.341.591.591,0,0,0,.428-.2c.4-.424.019-.894-.163-1.077q-3.263-3.273-6.537-6.531a2.2,2.2,0,0,1-.829-1.824,1.866,1.866,0,0,1,1.342-1.7,2.042,2.042,0,0,1,2.179.625l.15.148c1.383,1.36,2.814,2.767,4.251,4.115.846.794,1.765,1.545,2.576,2.207a4.975,4.975,0,0,1,1.789,3.461,20.023,20.023,0,0,1,.114,2.056q.006,4.428-.005,8.855l0,3.912h-9.758l0-2.6c0-1.34-.008-2.682.012-4.022a1.5,1.5,0,0,0-.495-1.2Q-1031.957,786.079-1033.713,784.312Z"/>
      <path id="Path_6429" data-name="Path 6429" d="M-1009.867,736.759h-.028a14.527,14.527,0,0,0-14.491,14.472,14.407,14.407,0,0,0,4.238,10.282,14.342,14.342,0,0,0,10.219,4.261h0a14.465,14.465,0,0,0,10.309-4.253,14.491,14.491,0,0,0,4.247-10.322A14.507,14.507,0,0,0-1009.867,736.759Zm10.994,7.28-.271.2c-1.082.8-.936,1.018-.75,1.3.156.234.333.5,1.416-.064l.305-.159.164.3a11.7,11.7,0,0,1,1.27,4.531l.034.33-.329.05c-1.363.21-1.354.453-1.342.76.01.276.022.588,1.3.682l.345.025-.022.345a12.115,12.115,0,0,1-1.191,4.516l-.133.279-.293-.1c-1.308-.436-1.4-.272-1.547,0-.161.29-.258.466.9,1.356l.316.243-3.62,3.631-.244-.184c-.161-.122-.309-.238-.448-.348a6.8,6.8,0,0,0-.861-.614c.01.019-.146.07-.29.157-.239.145-.428.258.074,1.458l.127.3-.293.147a12.533,12.533,0,0,1-4.536,1.223l-.368.034-.013-.37c-.035-.955-.123-1.333-.8-1.285-.251.009-.488.018-.606,1.3l-.032.341-.341-.023a12.421,12.421,0,0,1-4.517-1.2l-.285-.136.107-.3c.463-1.284.289-1.38,0-1.538s-.449-.245-1.364.892l-.244.3-3.624-3.612.192-.244c.124-.159.241-.3.352-.437a6.244,6.244,0,0,0,.6-.817c-.011-.006-.053-.163-.133-.309-.132-.243-.238-.434-1.621.1l-.361.138-1.331-4.919.278-.12c.186-.081.361-.151.525-.218a7.013,7.013,0,0,0,.957-.445c-.008-.01.031-.169.028-.326-.006-.264-.011-.514-1.309-.661l-.334-.038.025-.336a12.356,12.356,0,0,1,1.213-4.514l.141-.29.3.117c1.267.5,1.388.266,1.527,0s.26-.5-.788-1.233l-.283-.2.194-.285a12.655,12.655,0,0,1,3.306-3.317l.269-.185.2.255c.849,1.062,1.025.948,1.318.766.236-.148.48-.3-.054-1.463l-.14-.3.3-.154a12.491,12.491,0,0,1,4.5-1.244l.321-.034.06.316c.26,1.372.464,1.362.763,1.362s.535-.013.74-1.465l.055-.391,5.251,1.4-.261.519c-.442.871-.538,1.179.017,1.5.251.144.446.252,1.216-.8l.2-.273.279.191a12.509,12.509,0,0,1,3.31,3.322Z"/>
      <path id="Path_6430" data-name="Path 6430" d="M-1007.367,753.477q1.352.805,2.726,1.572a.967.967,0,0,0,.7.147.6.6,0,0,0,.355-.307c.209-.374.068-.709-.418-.995-.317-.187-.638-.37-.957-.552-.6-.342-1.2-.683-1.777-1.049a1.294,1.294,0,0,1-.555-.95,2.7,2.7,0,0,0-1.39-2.368,1.227,1.227,0,0,1-.519-.9c-.029-.668-.025-1.338-.02-2.008l0-1.567v-1.686a1.24,1.24,0,0,0-.248-.873.577.577,0,0,0-.427-.144c-.161,0-.653.014-.654.989v.808c0,1.478,0,2.957.01,4.436a1.015,1.015,0,0,1-.57.994,2.644,2.644,0,0,0-1.271,1.61,2.52,2.52,0,0,0,.281,1.937,2.538,2.538,0,0,0,1.564,1.192,2.569,2.569,0,0,0,1.963-.3,1.14,1.14,0,0,1,.589-.183A1.17,1.17,0,0,1-1007.367,753.477Zm-2.515-.975h0a1.243,1.243,0,0,1-1.234-1.221,1.243,1.243,0,0,1,1.2-1.255,1.24,1.24,0,0,1,.912.359,1.227,1.227,0,0,1,.366.9A1.245,1.245,0,0,1-1009.882,752.5Z"/>
    </g>
  </g>
</svg>
