<svg xmlns="http://www.w3.org/2000/svg" xmlns:xlink="http://www.w3.org/1999/xlink" width="108" height="108" viewBox="0 0 108 108">
  <defs>
    <clipPath id="clip-path">
      <rect id="Rectangle_2266" data-name="Rectangle 2266" width="64.752" height="64.692" fill="#080808"/>
    </clipPath>
  </defs>
  <g id="Group_1798" data-name="Group 1798" transform="translate(-308 -3089.393)">
    <circle id="Ellipse_72" data-name="Ellipse 72" cx="54" cy="54" r="54" transform="translate(308 3089.393)" fill="#ffd729"/>
    <g id="Group_1139" data-name="Group 1139" transform="translate(-505 3119.308)">
      <g id="Group_1021" data-name="Group 1021" transform="translate(835 -3)" clip-path="url(#clip-path)">
        <path id="Path_3790" data-name="Path 3790" d="M51.034,21.582c.653-.656.651-.921-.009-1.583l-2.172-2.172q-2.1-2.1-4.2-4.206c-.434-.437-.7-.544-1.043-.434-.319.1-.42.356-.53.881a4.743,4.743,0,1,1-5.626-5.626c.511-.106.773-.212.88-.535s.006-.6-.386-.991q-1.977-1.96-3.94-3.933L31.48.449c-.6-.6-.89-.6-1.485-.006q-2.609,2.6-5.2,5.218c-.066.067-.877.823-.877.823l-.12-.272C22.382,3.029,20.127,1.34,17.433,1.48a6.02,6.02,0,0,0-5.715,4.362c-.931,3.688.46,6.266,4.256,7.882l.533.226-2.152,2.145c-1.345,1.34-2.675,2.665-4,3.994-.581.582-.58.834,0,1.422q2.31,2.323,4.628,4.637c.246.245.5.483.777.74l.877.827-.6.213c-2.766.979-4.254,2.7-4.546,5.263-.327,2.869.941,5.061,3.769,6.515l.3.155-.891,2.556q-.93,2.668-1.858,5.312a5.123,5.123,0,0,0,.07,3.841c.3.7.6,1.4.906,2.1.568,1.3,1.154,2.644,1.674,3.993.209.541.455,1.07.7,1.6a9.98,9.98,0,0,1,1.31,5.007.278.278,0,0,0,.084.225.7.7,0,0,0,.583.2.59.59,0,0,0,.659-.527,6.732,6.732,0,0,0-.368-3.233q-1.281-2.969-2.547-5.944L14.223,51.1a3.7,3.7,0,0,1-.125-2.741l.989-2.837c.537-1.539,1.075-3.077,1.6-4.62a1.086,1.086,0,0,1,1.142-.807,5.916,5.916,0,0,0,3.649-1.363,6.5,6.5,0,0,0,2.11-3.23l.2-.626.453.477c.146.155.282.306.415.45a9.528,9.528,0,0,0,.8.818,2.082,2.082,0,0,1,.72,1.724c-.021,2.861-.017,5.723-.012,8.584l0,1.586a1,1,0,0,0,.223.717.81.81,0,0,0,.476.166c.172,0,.695,0,.7-.891q.005-2.218,0-4.437l0-4.354c0-2.077-.008-4.156.01-6.233a3.759,3.759,0,0,1,1.477-3.013,3.591,3.591,0,0,1,2.17-.721,3.836,3.836,0,0,1,1.032.143,3.725,3.725,0,0,1,2.651,3.74l.007,2.9c.009,3.1.018,6.31-.02,9.466a10.957,10.957,0,0,0,1.282,5.446,8.166,8.166,0,0,1,.943,4.2,9.963,9.963,0,0,1-1.607,4.713,6.53,6.53,0,0,0-.585,3.757.593.593,0,0,0,.628.575.655.655,0,0,0,.738-.521.5.5,0,0,0,.014-.22,5.808,5.808,0,0,1,.995-3.937,3.525,3.525,0,0,0,.208-.421l.1-.217a8.776,8.776,0,0,0,.736-5.915,15,15,0,0,0-.787-2.232c-.157-.385-.316-.769-.458-1.158-.173-.475-.334-.954-.5-1.434l-.331-.979.737-.359.2.174a7.681,7.681,0,0,0,3.992,1.888,3.375,3.375,0,0,0,2.813-.613,3.257,3.257,0,0,0,1.036-2.585V40.036l.278-.084a6.237,6.237,0,0,0,4.706-5.97c.016-1.326-.406-4.581-4.623-6.168l-.516-.2.355-.421a1.477,1.477,0,0,1,.421-.322,1.118,1.118,0,0,0,.2-.135q2.415-2.385,4.806-4.8Zm-7.4,24.905a1.478,1.478,0,0,1-.458,1.1A1.69,1.69,0,0,1,42,47.99c-.062,0-.127,0-.193-.007a5.815,5.815,0,0,1-5.482-5.625c-.064-1.693-.06-3.509.009-5.551a1.851,1.851,0,0,1,.45-.985c.076-.1.154-.211.215-.317l.4-.695.3.744a6.76,6.76,0,0,0,5.611,4.566l.329.052,0,2.063c0,1.428.008,2.84-.012,4.251m5.814-25.166c-.037.023-.085.051-.139.083a1.6,1.6,0,0,0-.33.225q-1.467,1.46-2.927,2.926-1.649,1.652-3.3,3.3c-.445.44-.4.741-.3.977.116.265.319.436.922.387a4.753,4.753,0,1,1,.906,9.463,4.045,4.045,0,0,1-.481.029A4.676,4.676,0,0,1,40.9,37.645,5.079,5.079,0,0,1,39,34.452a3.442,3.442,0,0,1-.027-.559c.013-.232.278-.58.229-.753a.926.926,0,0,0-1.439-.476c-.1.1-1.238,1.35-1.238,1.35l-.088-.691A5.609,5.609,0,0,0,34.245,29.3a4.893,4.893,0,0,0-3.52-.961,4.945,4.945,0,0,0-3.5,1.938,5.325,5.325,0,0,0-1.046,3.9l.018.244-.023,1.339-2.452-2.889c-.41-.43-.651-.521-.993-.363s-.448.4-.406.981a4.768,4.768,0,0,1-4.465,5.188,4.47,4.47,0,0,1-3.373-1.168,4.946,4.946,0,0,1-1.642-3.291,4.613,4.613,0,0,1,1.209-3.437,4.736,4.736,0,0,1,3.386-1.6c.13,0,.271.012.409.027a1.177,1.177,0,0,0,.419,0,1.379,1.379,0,0,0,.715-.448c.029-.056.051-.227-.122-.764a1.019,1.019,0,0,0-.225-.237c-.06-.054-.12-.106-.174-.159L12.428,21.57c-.109-.11-.216-.224-.328-.345l-.419-.447,6.8-6.8c.114-.113.226-.224.334-.341.342-.372.3-.613.211-.817a.762.762,0,0,0-.8-.462l-.273,0a6.488,6.488,0,0,1-1.641-.149,4.716,4.716,0,1,1,6.022-4.423l-.01.246c-.03.628-.007.881.367,1.047.445.2.7,0,1.211-.518l.1-.1q1.488-1.5,2.983-2.986,1.452-1.452,2.9-2.907a2.389,2.389,0,0,0,.269-.346l.392-.531,5.558,5.557-.427.258c-2.883,1.737-3.945,4.168-3.157,7.224a5.657,5.657,0,0,0,5.012,4.439,5.986,5.986,0,0,0,6.439-3.283l.254-.44,5.608,5.62Z" transform="translate(1.14 0)" fill="#080808"/>
        <path id="Path_3791" data-name="Path 3791" d="M3.044,4.521a2.146,2.146,0,0,0-.387-.156l-.069-.023c-.522.049-.659.294-.723.531a.663.663,0,0,0,.382.823l1.166.676Q5.567,7.616,7.726,8.854A.97.97,0,0,0,8.447,9a.664.664,0,0,0,.395-.341c.281-.5-.083-.854-.436-1.059Q5.732,6.046,3.044,4.521" transform="translate(0.211 0.499)" fill="#080808"/>
        <path id="Path_3792" data-name="Path 3792" d="M56.964,33.672l-.04-.066a1.249,1.249,0,0,0-.331-.414c-1.628-.974-3.423-2.014-5.647-3.27a.816.816,0,0,0-.4-.114.632.632,0,0,0-.172.023.709.709,0,0,0-.42.356.682.682,0,0,0,.3.953c.3.193.605.368.913.542l1.577.912c1.026.6,2.052,1.194,3.088,1.772a.754.754,0,0,0,.757.037.879.879,0,0,0,.377-.731" transform="translate(5.732 3.427)" fill="#080808"/>
        <path id="Path_3793" data-name="Path 3793" d="M8.43,29.83a.6.6,0,0,0-.171-.025.627.627,0,0,0-.314.086c-1.912,1.071-3.875,2.2-5.832,3.364a.523.523,0,0,0-.231.725,1.967,1.967,0,0,0,.5.5l.089.072c.057-.019.116-.036.175-.052A1.15,1.15,0,0,0,2.9,34.41l.628-.358c1.68-.962,3.362-1.924,5.03-2.909a.653.653,0,0,0,.3-.943.737.737,0,0,0-.431-.37" transform="translate(0.208 3.427)" fill="#080808"/>
        <path id="Path_3794" data-name="Path 3794" d="M50.648,9.026l.065-.021a1.869,1.869,0,0,0,.341-.134q2.714-1.549,5.418-3.121a.967.967,0,0,0,.489-.555.652.652,0,0,0-.093-.506.618.618,0,0,0-.549-.339,1.215,1.215,0,0,0-.585.186c-.805.455-1.6.917-2.4,1.379L51.972,6.7c-.59.337-1.181.673-1.757,1.032a.6.6,0,0,0-.306.777.7.7,0,0,0,.738.518" transform="translate(5.733 0.5)" fill="#080808"/>
        <path id="Path_3795" data-name="Path 3795" d="M0,19.256c0,.57.448.694.823.7.728.006,1.457,0,2.186,0l.95,0,.952,0c.751,0,1.5,0,2.252,0a.717.717,0,0,0,.615-1.177.845.845,0,0,0-.618-.215q-3.173-.013-6.346,0c-.3,0-.816.094-.815.7" transform="translate(0 2.133)" fill="#080808"/>
        <path id="Path_3796" data-name="Path 3796" d="M50.945,19.248c0,.605.506.7.812.7.733.008,1.465.006,2.2,0l.937,0h.952c.73,0,1.457,0,2.185,0a.971.971,0,0,0,.7-.227.655.655,0,0,0,.162-.488c-.009-.449-.292-.678-.843-.68q-1.57-.005-3.14,0t-3.14.006c-.375,0-.822.122-.826.69" transform="translate(5.858 2.133)" fill="#080808"/>
      </g>
    </g>
  </g>
</svg>
