<svg xmlns="http://www.w3.org/2000/svg" width="108" height="108" viewBox="0 0 108 108">
  <g id="Group_1799" data-name="Group 1799" transform="translate(-683 -3089.393)">
    <circle id="Ellipse_73" data-name="Ellipse 73" cx="54" cy="54" r="54" transform="translate(683 3089.393)" fill="#ffd729"/>
    <g id="Group_1789" data-name="Group 1789" transform="translate(1830.393 2379.496)">
      <path id="Path_6414" data-name="Path 6414" d="M-1082.513,779.42c.254-.216.521-.416.789-.615.139-.1.278-.207.415-.314a19.878,19.878,0,0,0,6.971-20.571,19.816,19.816,0,0,0-23.019-14.491,19.105,19.105,0,0,0-6.83,2.746.653.653,0,0,0-.3.931.679.679,0,0,0,.969.156c.065-.036.128-.076.191-.116l.12-.074a17.576,17.576,0,0,1,12.8-2.439c7.806,1.534,12.921,6.288,14.792,13.748s-.409,14.091-6.6,19.141c-1.9,1.549-3.136,2.94-3.457,5.087l-.038.256-1.773,0c-.548,0-1.095-.008-1.643.008a.77.77,0,0,0-.549.229.6.6,0,0,0-.16.442c.017.362.289.588.729.6.146,0,.291,0,.437,0l2.927,0v.3c0,.522,0,1.036.007,1.542.007,1.189.014,2.312-.018,3.454a2.385,2.385,0,0,1-2.4,2.3c-3.373.027-6.906.027-10.8,0a2.318,2.318,0,0,1-2.39-2.086c-.063-1.2-.049-2.382-.036-3.631.006-.521.012-1.046.012-1.577v-.3h3.536q2.382,0,4.764,0c.334,0,.732-.11.736-.621s-.4-.631-.738-.65c-.068,0-.135,0-.2,0l-8.114,0-.184-.838c-.427-1.862-1.612-3.116-3.259-4.425a18.084,18.084,0,0,1-7.06-17.615,17.676,17.676,0,0,1,5.289-10.247.974.974,0,0,0,.333-.652.568.568,0,0,0-.185-.408c-.111-.109-.444-.438-1.064.169a19.611,19.611,0,0,0-3.972,22.571,20.093,20.093,0,0,0,6.462,7.673,5.425,5.425,0,0,1,2.352,4.71c-.017,1.634-.01,3.266,0,4.9l0,.432a3.791,3.791,0,0,0,2.642,3.729,1.754,1.754,0,0,1,.684.577c.264.316.475.586.684.858a12.913,12.913,0,0,0,1.212,1.418,6.488,6.488,0,0,0,3.051,1.347h1.638a.575.575,0,0,1,.194-.081,6.268,6.268,0,0,0,4.8-3.6,1.16,1.16,0,0,1,.624-.5,3.771,3.771,0,0,0,2.706-3.87l0-1.951c0-1.193-.007-2.384.006-3.576A5.221,5.221,0,0,1-1082.513,779.42Zm-6.861,14.1a4.8,4.8,0,0,1-3.651,2.22,5.985,5.985,0,0,1-.606.031,5.055,5.055,0,0,1-4.162-2.234l-.369-.482h9.1Z"/>
      <path id="Path_6415" data-name="Path 6415" d="M-1080.736,766.847a.657.657,0,0,0,.653-.72q.027-1.848,0-3.7a.638.638,0,0,0-.6-.707c-.075-.012-.152-.028-.228-.043a2.445,2.445,0,0,0-.457-.06,2.313,2.313,0,0,1-2.67-2.029,1.313,1.313,0,0,1,.113-.868c.234-.359.495-.7.756-1.041.137-.178.274-.357.407-.537.376-.514.366-.731-.056-1.161q-1.228-1.251-2.483-2.478c-.394-.387-.612-.4-1.061-.081-.495.357-1.008.727-1.485,1.123a1.154,1.154,0,0,1-1.152.185,2.228,2.228,0,0,1-1.89-2.577,2.026,2.026,0,0,0-.06-.472l-.04-.205c-.083-.487-.28-.653-.778-.657-1.213-.008-2.425-.01-3.636,0-.489,0-.68.174-.756.674-.035.235-.065.471-.1.707-.055.433-.11.865-.2,1.291a1.275,1.275,0,0,1-.533.724,2.264,2.264,0,0,1-3.275-.4,1.752,1.752,0,0,0-.332-.258c-.076-.05-.151-.1-.222-.154a.666.666,0,0,0-1.007.069l-2.577,2.572a.671.671,0,0,0-.057,1.012c.047.062.092.127.136.192a1.9,1.9,0,0,0,.248.315,2.27,2.27,0,0,1,.484,3.21l-.009.066-.1.108c-.041.034-.081.074-.122.115a1,1,0,0,1-.491.32c-.394.079-.791.135-1.189.191-.288.041-.576.082-.862.132-.545.094-.7.268-.7.806q-.019,1.754,0,3.508c.006.55.147.722.689.832a2.336,2.336,0,0,0,.489.071,2.359,2.359,0,0,1,2.781,2.057,1.3,1.3,0,0,1-.133.868c-.229.347-.483.679-.736,1.011-.156.2-.311.408-.461.616-.326.453-.312.67.071,1.06q1.229,1.251,2.483,2.481c.438.429.633.44,1.161.062l.151-.1a1.713,1.713,0,0,0,.3-.234,2.476,2.476,0,0,1,1.812-.937,2.424,2.424,0,0,1,1.4.5,1.506,1.506,0,0,1,.6.788,13.112,13.112,0,0,1,.212,1.327c.023.185.045.371.072.555.084.587.258.748.81.752q1.788.012,3.574,0c.53,0,.716-.168.8-.7.034-.226.064-.454.093-.681.055-.419.11-.838.187-1.252a1.094,1.094,0,0,1,.486-.739c1.627-.817,1.746-.806,3.194.276l.233.178c.169.129.338.26.518.374a1.963,1.963,0,0,0,.339.15c.033.013.067.024.1.038l.1-.045a1.213,1.213,0,0,0,.341-.193c.9-.868,1.808-1.776,2.706-2.7a.608.608,0,0,0,.038-.876c-.114-.165-.235-.324-.356-.483l-.124-.163c-1.1-1.47-1.114-1.591-.384-3.233a.971.971,0,0,1,.655-.5c.59-.115,1.186-.2,1.781-.284Zm-2.542-.953c-.887.092-1.26.4-1.426,1.182a6.3,6.3,0,0,1-.671,1.605l-.129.244a.844.844,0,0,0,.066,1.059c.312.386.6.786.9,1.186l.541.729-1.934,1.942-.721-.535c-.4-.3-.8-.589-1.185-.9a.864.864,0,0,0-1.067-.081,19.6,19.6,0,0,1-2.286.946.869.869,0,0,0-.672.779l-.33,2.353h-2.747l-.122-.85c-.069-.477-.139-.955-.2-1.436a.918.918,0,0,0-.73-.861,19.964,19.964,0,0,1-2.283-.949.815.815,0,0,0-.969.059c-.4.309-.8.607-1.2.905l-.721.537-1.884-2.025.438-.593c.256-.349.539-.737.845-1.108a.961.961,0,0,0,.1-1.224,14.731,14.731,0,0,1-.878-2.118c-.174-.513-.392-.712-.83-.757-.494-.05-.984-.132-1.48-.216-.213-.037-.427-.073-.643-.106l-.253-.04v-2.7l.957-.144c.516-.079,1.015-.155,1.516-.22a.779.779,0,0,0,.687-.607c.3-.814.633-1.618.99-2.388a.831.831,0,0,0-.087-.972c-.3-.385-.589-.775-.882-1.169l-.565-.756,1.982-1.912.692.515c.4.293.8.591,1.193.9a.85.85,0,0,0,1.022.066,20.284,20.284,0,0,1,2.286-.94.888.888,0,0,0,.7-.825c.061-.476.127-.95.194-1.436l.124-.9h2.735l.128.828c.073.46.147.924.2,1.39a.984.984,0,0,0,.825.968,13.858,13.858,0,0,1,2.177.916.841.841,0,0,0,1.019-.07c.386-.3.779-.593,1.179-.89l.767-.571,1.85,2.033-.456.62c-.276.377-.577.79-.9,1.189a.88.88,0,0,0-.088,1.07,22.905,22.905,0,0,1,.947,2.28.819.819,0,0,0,.765.665c.261.025.52.067.779.108.276.044.553.089.831.111a.8.8,0,0,1,.836.918C-1081.357,765.547-1081.5,765.706-1083.278,765.894Z"/>
      <path id="Path_6416" data-name="Path 6416" d="M-1122.393,762.186c.019.541.546.605.771.608.606.007,1.212.005,1.819,0h.81l.818,0c.6,0,1.207,0,1.81,0,.226,0,.752-.069.769-.61a.6.6,0,0,0-.159-.444.844.844,0,0,0-.613-.22q-2.631-.021-5.259,0a.826.826,0,0,0-.61.217A.6.6,0,0,0-1122.393,762.186Z"/>
      <path id="Path_6417" data-name="Path 6417" d="M-1071.541,762.182c.016.543.541.608.766.611.612.008,1.224.006,1.837,0h1.6c.606,0,1.211,0,1.817,0,.471-.006.761-.232.775-.607a.6.6,0,0,0-.158-.446.836.836,0,0,0-.608-.222q-1.271-.012-2.542-.011-1.359,0-2.717.011a.841.841,0,0,0-.614.218A.6.6,0,0,0-1071.541,762.182Z"/>
      <path id="Path_6418" data-name="Path 6418" d="M-1092.932,734.215a.964.964,0,0,0-.233-.694.555.555,0,0,0-.4-.145h-.024c-.535.016-.618.523-.62.824q-.016,2.565,0,5.128a.963.963,0,0,0,.23.691.592.592,0,0,0,.424.148c.5-.015.614-.46.62-.831.01-.6.008-1.192.005-1.789V736C-1092.926,735.4-1092.923,734.809-1092.932,734.215Z"/>
      <path id="Path_6419" data-name="Path 6419" d="M-1073.393,741.7a.508.508,0,0,0-.264-.08.725.725,0,0,0-.5.257l-1.38,1.378c-.8.794-1.591,1.587-2.381,2.387a.63.63,0,0,0-.08.965.6.6,0,0,0,.419.2h0a.884.884,0,0,0,.589-.3q1.847-1.824,3.67-3.673a2.1,2.1,0,0,0,.285-.426l.091-.156c-.031-.043-.061-.086-.091-.129A1.524,1.524,0,0,0-1073.393,741.7Z"/>
      <path id="Path_6420" data-name="Path 6420" d="M-1113.942,742.708c.174.2.364.385.554.569l3.283,3.277c.269.267.522.325.754.172a1.581,1.581,0,0,0,.37-.428l.078-.111-.056-.134a.97.97,0,0,0-.14-.278c-1.172-1.189-2.563-2.592-3.985-3.982a.582.582,0,0,0-.416-.175h-.024a.646.646,0,0,0-.433.2A.632.632,0,0,0-1113.942,742.708Z"/>
      <path id="Path_6421" data-name="Path 6421" d="M-1084.379,738.533a.54.54,0,0,0-.234-.055.435.435,0,0,0-.156.027.49.49,0,0,0-.275.266,12.774,12.774,0,0,0-.844,2.217,1.009,1.009,0,0,0,.354.663.458.458,0,0,0,.378.093.388.388,0,0,0,.271-.2,19.283,19.283,0,0,0,.789-1.765c.09-.219.182-.443.279-.675-.041-.047-.081-.1-.121-.146A1.556,1.556,0,0,0-1084.379,738.533Z"/>
      <path id="Path_6422" data-name="Path 6422" d="M-1101.6,741.677a.607.607,0,0,0,.346-.808,15.974,15.974,0,0,0-.789-1.994,1.083,1.083,0,0,0-.371-.325l-.067-.044a.842.842,0,0,0-.655.283.59.59,0,0,0-.06.533,19.551,19.551,0,0,0,.772,2.009A.635.635,0,0,0-1101.6,741.677Z"/>
      <path id="Path_6423" data-name="Path 6423" d="M-1073.084,753.667a.487.487,0,0,0,.025.38,1.653,1.653,0,0,0,.425.456c.05.043.1.086.15.131.224-.1.442-.189.655-.278a19.28,19.28,0,0,0,1.765-.808c.216-.117.2-.424.074-.667a.573.573,0,0,0-.495-.356.612.612,0,0,0-.2.035,20.608,20.608,0,0,0-2.124.826A.5.5,0,0,0-1073.084,753.667Z"/>
      <path id="Path_6424" data-name="Path 6424" d="M-1117.11,752.852a1.209,1.209,0,0,0,.108.734,14.417,14.417,0,0,0,1.743.785c.2.08.406.162.616.249.051-.043.1-.085.156-.127.154-.124.344-.278.367-.38a.949.949,0,0,0-.191-.68,12.117,12.117,0,0,0-2.257-.886.478.478,0,0,0-.138-.021.435.435,0,0,0-.229.064A.376.376,0,0,0-1117.11,752.852Z"/>
      <path id="Path_6425" data-name="Path 6425" d="M-1093.607,770.067h.027a5.824,5.824,0,0,0,5.816-5.767,5.791,5.791,0,0,0-5.736-5.815,5.791,5.791,0,0,0-4.162,1.7,5.733,5.733,0,0,0-1.713,4.1A5.809,5.809,0,0,0-1093.607,770.067Zm-3.169-8.957a4.5,4.5,0,0,1,3.212-1.341h.01a4.532,4.532,0,0,1,4.507,4.49,4.441,4.441,0,0,1-1.311,3.184,4.5,4.5,0,0,1-3.217,1.341h-.008a4.528,4.528,0,0,1-4.507-4.487A4.445,4.445,0,0,1-1096.776,761.11Z"/>
    </g>
  </g>
</svg>
