<svg xmlns="http://www.w3.org/2000/svg" xmlns:xlink="http://www.w3.org/1999/xlink" width="1920" height="324.326" viewBox="0 0 1920 324.326">
  <defs>
    <clipPath id="clip-path">
      <rect id="Rectangle_2596" data-name="Rectangle 2596" width="1920" height="230" transform="translate(0 3674)" fill="#fff" stroke="#707070" stroke-width="1"/>
    </clipPath>
  </defs>
  <g id="Group_1802" data-name="Group 1802" transform="translate(0 -3579.674)">
    <g id="Group_1073" data-name="Group 1073" transform="matrix(0.999, -0.035, 0.035, 0.999, -159.105, -732.613)">
      <path id="Path_3876" data-name="Path 3876" d="M62.318,132.914a1.962,1.962,0,0,1-.482-.059L1.544,118.1a2.025,2.025,0,0,1-.429-3.776L227.879.22a2.026,2.026,0,0,1,2.151,3.411L63.557,132.491a2.026,2.026,0,0,1-1.24.423M7.845,115.472l54,13.217L210.961,13.265Z" transform="translate(1509.5 4375.688)" fill="#ffd729"/>
      <path id="Path_3877" data-name="Path 3877" d="M116.066,155.35a2.011,2.011,0,0,1-.523-.067L31.269,132.846a2.027,2.027,0,0,1-.719-3.559L197.021.427A2.026,2.026,0,0,1,200.043,3l-82.2,151.3a2.024,2.024,0,0,1-1.778,1.057m-79.8-25.366,78.779,20.975L191.882,9.528Z" transform="translate(1540.027 4375.688)" fill="#ffd729"/>
      <path id="Path_3879" data-name="Path 3879" d="M33.35,99.293a1.993,1.993,0,0,1-.747-.144,2.024,2.024,0,0,1-1.276-1.783L29.768,65.743a2.024,2.024,0,0,1,2.577-2.048l26.618,7.551a2.026,2.026,0,0,1,.851,3.409L34.753,98.727a2.032,2.032,0,0,1-1.4.565m.6-30.931,1.2,24.362L54.46,74.179Z" transform="translate(1540.027 4440.934)" fill="#ffd729"/>
    </g>
    <path id="Path_3880" data-name="Path 3880" d="M-11023.533,5003.625s4.468,42.039-24.534,51.3-26.631-26.72-59.229-41.183-34.808,104.147-95.175,116.18-4.229-87.036-151.284-79.972" transform="matrix(0.999, -0.035, 0.035, 0.999, 12415.048, -1635.394)" fill="none" stroke="#ffd729" stroke-linecap="round" stroke-linejoin="round" stroke-width="4" stroke-dasharray="0.2 8"/>
    <g id="Mask_Group_1038" data-name="Mask Group 1038" clip-path="url(#clip-path)">
      <path id="Path_3875" data-name="Path 3875" d="M-1737.09,2676.981c131.462-32.757-31.824-104.567,229.673-160.02s429.078,12.466,577.527,67.265,348.229,4.3,431.061-6.187,130.868-29.083,203.354,18.672,152.315-16.294,244.188,6.151,150.154,67.006,213.652,19.506,68.1-15.012,220.434-5.69" transform="matrix(0.999, -0.035, 0.035, 0.999, 1511.543, 1227.068)" fill="none" stroke="#ffd729" stroke-width="3"/>
    </g>
  </g>
</svg>
