<svg xmlns="http://www.w3.org/2000/svg" width="36.966" height="37.01" viewBox="0 0 36.966 37.01">
  <g id="Group_1393" data-name="Group 1393" transform="translate(524 -228.294)">
    <path id="Path_5986" data-name="Path 5986" d="M-504.357,265.3h-2.311a2.072,2.072,0,0,0-.277-.06,18,18,0,0,1-9.9-3.837,18.157,18.157,0,0,1-6.877-11.438c-.118-.66-.186-1.329-.276-1.994v-2.311c.043-.332.088-.664.13-1a18.066,18.066,0,0,1,7.345-12.68,18.176,18.176,0,0,1,20.308-1.117,17.925,17.925,0,0,1,9.175,15.711A17.389,17.389,0,0,1-490.1,257a18.2,18.2,0,0,1-12.194,8.012C-502.974,265.144-503.668,265.21-504.357,265.3Zm-11.183-25.865,10.029,8.884,10.027-8.884Zm7.661,8.96-7.445,5.8H-495.7l-7.448-5.8c-.573.508-1.112.987-1.653,1.464s-.867.489-1.413.009S-507.31,248.9-507.879,248.4Zm-8.98,4.935,7.744-6.033-7.744-6.858Zm14.951-6.033,7.729,6.019V240.456Z" fill="#ffd729"/>
    <path id="Path_5987" data-name="Path 5987" d="M-436.289,343.843h20.057l-10.027,8.884Z" transform="translate(-79.251 -104.404)" fill="#080808"/>
    <path id="Path_5988" data-name="Path 5988" d="M-426.6,436.733c.569.5,1.117.989,1.667,1.472s.86.478,1.413-.009,1.08-.956,1.653-1.464l7.448,5.8h-19.626Z" transform="translate(-81.28 -188.333)" fill="#080808"/>
    <path id="Path_5989" data-name="Path 5989" d="M-449.961,367.141V354.25l7.744,6.858Z" transform="translate(-66.898 -113.807)" fill="#080808"/>
    <path id="Path_5990" data-name="Path 5990" d="M-294.953,361.232l7.729-6.846v12.865Z" transform="translate(-206.955 -113.93)" fill="#080808"/>
  </g>
</svg>
