<?xml version="1.0" encoding="utf-8"?>
<!-- Generator: Adobe Illustrator 25.4.1, SVG Export Plug-In . SVG Version: 6.00 Build 0)  -->
<svg version="1.1" id="Layer_1" xmlns="http://www.w3.org/2000/svg" xmlns:xlink="http://www.w3.org/1999/xlink" x="0px" y="0px"
	 viewBox="0 0 35.2 25.1" style="enable-background:new 0 0 35.2 25.1;" xml:space="preserve">
<style type="text/css">
	.st0{fill:#024778;}
</style>
<g>
	<path id="Path_5312" class="st0" d="M0,2.9l9.4,8.7l1.4,1.3L0.1,23.2L0,22.9V2.9"/>
	<path id="Path_5313" class="st0" d="M17.6,16.2L1,0.6C1.3,0.3,1.7,0.1,2.2,0c0.2,0,0.4,0,0.6,0h29.7c0.5,0,1,0.1,1.5,0.4L17.6,16.2
		"/>
	<path id="Path_5314" class="st0" d="M22.8,14.4L34,24.8c-0.4,0.1-0.7,0.2-1,0.3c-0.2,0-0.4,0-0.6,0c-9.9,0-19.7,0-29.6,0
		c-0.4,0-0.7-0.1-1.1-0.1l0-0.1l10.8-10.4c0.1,0.1,0.2,0.2,0.3,0.3c1.3,1.2,2.6,2.4,3.9,3.6c0.4,0.5,1.1,0.6,1.7,0.2
		c0.1-0.1,0.2-0.1,0.2-0.2c1.3-1.3,2.6-2.5,3.9-3.8C22.6,14.6,22.7,14.5,22.8,14.4"/>
	<path id="Path_5315" class="st0" d="M35.2,2.4v20.3l-10.7-10L35.2,2.4"/>
</g>
</svg>
