<?xml version="1.0" encoding="UTF-8"?><svg id="Layer_1" xmlns="http://www.w3.org/2000/svg" viewBox="0 0 89.44 89.42"><defs><style>.cls-1{fill:#007ab9;}.cls-2{fill:#fff;}</style></defs><path class="cls-1" d="M79.44,19.65c-6.5-9.03-15.3-14.8-26.22-16.89C39.57,.14,27.27,3.36,16.67,12.45c-7.34,6.3-11.89,14.31-13.84,23.77-.45,2.17-.52,4.42-.77,6.63-.05,.44-.13,.87-.19,1.31v1.01c.06,.32,.17,.65,.18,.97,.45,11.87,5.09,21.85,13.72,29.94,6.17,5.78,13.51,9.37,21.88,10.73,1.83,.3,3.7,.37,5.56,.56,.36,.04,.71,.12,1.06,.18h1.01c.32-.06,.65-.17,.97-.18,9.64-.31,18.21-3.56,25.64-9.66,7.86-6.44,12.89-14.7,14.81-24.66,2.33-12.1-.03-23.34-7.26-33.39Z"/><g><path class="cls-2" d="M70.4,65.82c-.31,.03-.61,.09-.9,.09-2.82,0-5.64-.02-8.46,.02-.81,.01-1.05-.27-1.05-1.07,.01-5.58,0-11.16-.04-16.75-.01-1.38-.34-2.72-1.18-3.86-1.61-2.2-5.14-2.45-7.31-.53-1.24,1.11-1.95,2.48-1.95,4.19,0,5.61,0,11.22-.02,16.83,0,1.15-.01,1.17-1.17,1.17-2.79,0-5.58-.01-8.37,0-.69,0-.96-.18-.96-.95,.03-9.74,.02-19.48,0-29.22,0-.7,.21-.9,.9-.89,2.9,.03,5.81,.03,8.71,0,.71,0,.93,.24,.9,.92-.04,.95-.01,1.9-.01,2.96,.72-.77,1.33-1.51,2.03-2.14,1.95-1.72,4.29-2.41,6.85-2.44,3.39-.04,6.4,.89,8.74,3.44,1.94,2.11,3.05,4.7,3.13,7.5,.2,6.72,.16,13.44,.21,20.17,0,.16-.04,.33-.06,.56Z"/><path class="cls-2" d="M23.09,50.27c0-4.8,.02-9.6-.02-14.4,0-.82,.25-1.02,1.04-1.01,2.79,.05,5.58,.05,8.37,0,.83-.01,1.11,.19,1.11,1.06-.03,9.66-.02,19.31,0,28.97,0,.75-.21,1.05-.99,1.04-2.87-.03-5.75-.03-8.62,0-.68,0-.9-.23-.9-.92,.03-4.91,.01-9.82,.01-14.73Z"/><path class="cls-2" d="M28.27,30.82c-3.07,0-5.27-1.77-5.7-4.55-.51-3.28,1.69-5.45,3.93-6.03,2.79-.72,5.63,.17,6.87,2.31,1.07,1.84,1.13,3.75,.07,5.63-.95,1.68-2.84,2.63-5.17,2.63Z"/></g></svg>