<?xml version="1.0" encoding="utf-8"?>
<!-- Generator: Adobe Illustrator 25.4.1, SVG Export Plug-In . SVG Version: 6.00 Build 0)  -->
<svg version="1.1" id="Layer_1" xmlns="http://www.w3.org/2000/svg" xmlns:xlink="http://www.w3.org/1999/xlink" x="0px" y="0px"
	 viewBox="0 0 24.9 25.1" style="enable-background:new 0 0 24.9 25.1;" xml:space="preserve">
<style type="text/css">
	.st0{fill:#024778;}
</style>
<g id="Group_1191">
	<path id="Path_5309" class="st0" d="M13.8,10c0.5-0.4,0.9-0.9,1.5-1.2c1.3-0.7,2.8-1,4.2-0.8c0.5,0,0.9,0.1,1.3,0.2
		c1.9,0.5,3.3,2.1,3.7,4.1c0.2,1,0.4,2,0.4,3c0.1,2.9,0,5.9,0,8.8c0,0.6-0.3,0.9-0.9,0.9c-1.2,0-2.4,0-3.6,0c-0.5,0.1-0.9-0.2-1-0.7
		c0-0.1,0-0.2,0-0.3c0-1,0-2,0-3c0-1.8,0-3.5,0-5.3c0-0.5-0.1-1.1-0.3-1.6c-0.2-0.9-1-1.5-1.9-1.6c-0.9-0.2-1.9,0.1-2.5,0.9
		c-0.6,0.8-0.9,1.7-0.9,2.7c0,2.6,0,5.2,0,7.7c0,0.9-0.3,1.1-1.1,1.1c-1.1,0-2.2,0-3.3,0c-0.6,0-0.9-0.3-0.9-0.9c0-5,0-10,0-15.1
		C8.4,8.7,8.7,8.3,9.1,8.2c0,0,0.1,0,0.1,0c1.2,0,2.4,0,3.6,0c0.5,0,0.9,0.3,0.9,0.8c0,0,0,0.1,0,0.1C13.8,9.5,13.8,9.8,13.8,10"/>
	<path id="Path_5310" class="st0" d="M0.8,16.6c0-2.4,0-4.9,0-7.3c0-0.8,0.3-1.1,1.1-1.1c1,0,2.1,0,3.1,0c0.8,0,1.1,0.3,1.1,1.1
		c0,4.9,0,9.7,0,14.6c0,0.8-0.3,1.1-1.1,1.1H2c-1,0-1.2-0.2-1.2-1.2C0.8,21.5,0.8,19.1,0.8,16.6"/>
	<path id="Path_5311" class="st0" d="M3.5,0c1.9,0,3.4,1.6,3.4,3.5S5.3,6.9,3.4,6.9S0,5.3,0,3.4c0,0,0,0,0,0C0,1.5,1.6,0,3.5,0"/>
</g>
</svg>
