<svg xmlns="http://www.w3.org/2000/svg" xmlns:xlink="http://www.w3.org/1999/xlink" width="66.346" height="25.086" viewBox="0 0 66.346 25.086">
  <defs>
    <clipPath id="clip-path">
      <rect id="Rectangle_2406" data-name="Rectangle 2406" width="24.894" height="25.086" fill="#024778"/>
    </clipPath>
    <clipPath id="clip-path-2">
      <rect id="Rectangle_2407" data-name="Rectangle 2407" width="24.335" height="17.351" fill="#024778"/>
    </clipPath>
  </defs>
  <g id="Group_1806" data-name="Group 1806" transform="translate(-352.188 -7546.308)">
    <g id="Group_1195" data-name="Group 1195">
      <g id="Group_1192" data-name="Group 1192" transform="translate(352.188 7546.308)">
        <g id="Group_1191" data-name="Group 1191" clip-path="url(#clip-path)">
          <path id="Path_5309" data-name="Path 5309" d="M86.25,78.6a13.435,13.435,0,0,1,1.458-1.23,6.609,6.609,0,0,1,4.207-.8,7.1,7.1,0,0,1,1.337.24,5.082,5.082,0,0,1,3.668,4.07,14.465,14.465,0,0,1,.4,3.044c.053,2.931.022,5.863.021,8.795,0,.633-.292.916-.938.917q-1.795,0-3.589,0a.858.858,0,0,1-.98-.979c-.009-.99,0-1.98,0-2.971,0-1.772.018-3.545-.02-5.316a5.77,5.77,0,0,0-.3-1.559,2.165,2.165,0,0,0-1.883-1.595,2.515,2.515,0,0,0-2.486.882,4.247,4.247,0,0,0-.888,2.653c-.019,2.58-.006,5.16-.007,7.74,0,.884-.257,1.144-1.128,1.144q-1.658,0-3.316,0c-.622,0-.915-.286-.915-.9q0-7.525,0-15.05a.808.808,0,0,1,.851-.9q1.814-.029,3.628,0a.847.847,0,0,1,.883.931c.006.3,0,.6,0,.891" transform="translate(-72.452 -68.547)" fill="#024778"/>
          <path id="Path_5310" data-name="Path 5310" d="M7.482,87.264q0-3.673,0-7.345c0-.759.327-1.083,1.1-1.086q1.56-.006,3.119,0c.8,0,1.149.347,1.15,1.135q0,7.306,0,14.612c0,.8-.316,1.116-1.1,1.117H8.668c-.954,0-1.185-.234-1.185-1.205q0-3.614,0-7.228" transform="translate(-6.702 -70.612)" fill="#024778"/>
          <path id="Path_5311" data-name="Path 5311" d="M3.467,0A3.454,3.454,0,1,1,0,3.422,3.452,3.452,0,0,1,3.467,0" transform="translate(0 0)" fill="#024778"/>
        </g>
      </g>
      <g id="Group_1194" data-name="Group 1194" transform="translate(394.198 7554.043)">
        <g id="Group_1193" data-name="Group 1193" clip-path="url(#clip-path-2)">
          <path id="Path_5312" data-name="Path 5312" d="M0,15.222l6.494,6.041.96.895L.1,29.241,0,29.066V15.222" transform="translate(0 -13.207)" fill="#024778"/>
          <path id="Path_5313" data-name="Path 5313" d="M16.525,11.18,4.987.418a1.534,1.534,0,0,1,.866-.4A2.947,2.947,0,0,1,6.257,0L26.829,0a1.744,1.744,0,0,1,1.03.263L16.525,11.18" transform="translate(-4.327 0)" fill="#024778"/>
          <path id="Path_5314" data-name="Path 5314" d="M23.636,75l7.73,7.216c-.256.072-.463.143-.675.187a2.011,2.011,0,0,1-.4.017q-10.241,0-20.482,0c-.254,0-.509-.045-.763-.069l-.007-.07,7.44-7.172c.086.078.161.146.236.215q1.34,1.248,2.68,2.5a.819.819,0,0,0,1.308,0q1.364-1.31,2.726-2.621c.062-.06.126-.117.209-.193" transform="translate(-7.84 -65.074)" fill="#024778"/>
          <path id="Path_5315" data-name="Path 5315" d="M135.253,12.728V26.784l-7.409-6.917,7.409-7.139" transform="translate(-110.918 -11.043)" fill="#024778"/>
        </g>
      </g>
    </g>
  </g>
</svg>
