<svg xmlns="http://www.w3.org/2000/svg" width="37.966" height="37.907" viewBox="0 0 37.966 37.907">
  <g id="Group_1394" data-name="Group 1394" transform="translate(455.956 -240.636)">
    <path id="Path_5991" data-name="Path 5991" d="M-417.994,259.962a18.983,18.983,0,0,1-19.332,18.578,18.932,18.932,0,0,1-18.627-19.35,18.916,18.916,0,0,1,19.42-18.55A18.962,18.962,0,0,1-417.994,259.962Zm-12.961,11a1.87,1.87,0,0,0,.426-.16A20.476,20.476,0,0,0-425.9,266.9c.462-.535.434-.857-.144-1.288a26.211,26.211,0,0,0-5.038-3.014c-.563-.25-.748-.195-1.179.273-.473.513-.933,1.037-1.39,1.565a.445.445,0,0,1-.586.153,25.516,25.516,0,0,1-2.775-1.3A11.438,11.438,0,0,1-442,256.838a.456.456,0,0,1,.144-.554q.7-.6,1.4-1.224c.71-.637.8-.806.339-1.62-.891-1.578-1.834-3.128-2.812-4.654-.469-.732-.83-.752-1.479-.178a20.8,20.8,0,0,0-3.775,4.488,1.174,1.174,0,0,0-.147.78,17.207,17.207,0,0,0,.574,2.329,21.4,21.4,0,0,0,4.518,7.3,24.922,24.922,0,0,0,8.85,6.547A11.953,11.953,0,0,0-430.954,270.966Zm5.335-12.2a10.477,10.477,0,0,0-10.523-10.513v1.5c5.463.592,8.442,3.587,9.007,9.009Zm-4.081,0a6.357,6.357,0,0,0-6.453-6.433v1.516a5.021,5.021,0,0,1,4.919,4.916Z" transform="translate(0 0)" fill="#ffd729"/>
    <path id="Path_5992" data-name="Path 5992" d="M-366.422,335.15a11.954,11.954,0,0,1-3.435-.915,24.922,24.922,0,0,1-8.85-6.547,21.4,21.4,0,0,1-4.518-7.3,17.207,17.207,0,0,1-.574-2.329,1.174,1.174,0,0,1,.147-.78,20.8,20.8,0,0,1,3.775-4.488c.649-.574,1.01-.554,1.479.178.978,1.525,1.921,3.076,2.812,4.654.46.815.37.983-.339,1.62q-.691.62-1.4,1.224a.456.456,0,0,0-.144.554,11.438,11.438,0,0,0,4.987,6.446,25.524,25.524,0,0,0,2.775,1.3.445.445,0,0,0,.586-.153c.457-.527.917-1.052,1.39-1.565.432-.468.616-.523,1.179-.273a26.214,26.214,0,0,1,5.038,3.014c.578.431.606.753.144,1.288A20.477,20.477,0,0,1-366,334.99,1.873,1.873,0,0,1-366.422,335.15Z" transform="translate(-64.532 -64.184)" fill="#080808"/>
    <path id="Path_5993" data-name="Path 5993" d="M-257.583,323.366H-259.1c-.566-5.422-3.545-8.418-9.007-9.009v-1.5A10.477,10.477,0,0,1-257.583,323.366Z" transform="translate(-168.036 -64.595)" fill="#080808"/>
    <path id="Path_5994" data-name="Path 5994" d="M-261.748,357.893h-1.534a5.021,5.021,0,0,0-4.919-4.916v-1.516A6.357,6.357,0,0,1-261.748,357.893Z" transform="translate(-167.951 -99.122)" fill="#080808"/>
  </g>
</svg>
