<?xml version="1.0" encoding="UTF-8"?><svg id="Layer_1" xmlns="http://www.w3.org/2000/svg" viewBox="0 0 90.65 90.6"><defs><style>.cls-1{fill:#fff;}.cls-2{fill:red;}</style></defs><path class="cls-2" d="M88.47,38.99c-2.03-12.87-8.51-22.94-19.31-30.18-6.25-4.19-13.2-6.47-20.72-6.99-.25-.02-.49-.1-.74-.15h-4.78c-1.35,.17-2.7,.33-4.04,.51C21.33,4.56,6.25,18.6,2.7,35.94c-2.8,13.67,.06,26.09,8.84,36.96,6.81,8.43,15.68,13.62,26.4,15.41,23.04,3.83,44.56-10.51,49.87-33.21,.5-2.15,.67-4.37,1-6.56,.04-.28,.11-.55,.16-.83v-4.78c-.17-1.32-.3-2.64-.51-3.95Z"/><g><path class="cls-1" d="M45.31,61.76c-4.86,0-9.72,.09-14.58-.02-4.66-.11-8.32-3.75-8.41-8.39-.1-5.34-.1-10.69,0-16.03,.09-4.61,3.74-8.28,8.33-8.38,5.6-.11,11.2-.05,16.79-.05,4.15,0,8.3-.07,12.45,.04,4.7,.12,8.33,3.78,8.41,8.48,.09,5.28,.09,10.57,0,15.86-.08,4.7-3.71,8.36-8.42,8.47-4.86,.11-9.72,.02-14.58,.02Zm-5.96-9.46c4.05-2.36,7.95-4.63,11.97-6.97-4.06-2.36-7.96-4.63-11.97-6.96v13.93Z"/><path class="cls-2" d="M39.34,52.3v-13.93c4.01,2.33,7.92,4.6,11.97,6.96-4.02,2.34-7.92,4.61-11.97,6.97Z"/></g></svg>