<svg xmlns="http://www.w3.org/2000/svg" xmlns:xlink="http://www.w3.org/1999/xlink" width="832.434" height="444.759" viewBox="0 0 832.434 444.759">
  <defs>
    <clipPath id="clip-path">
      <rect id="Rectangle_2524" data-name="Rectangle 2524" width="832.434" height="444.759" fill="#024778"/>
    </clipPath>
  </defs>
  <g id="Group_1359" data-name="Group 1359" transform="translate(-151.564 -2397)">
    <g id="Group_1358" data-name="Group 1358">
      <g id="Group_1297" data-name="Group 1297" transform="translate(151.564 2397)">
        <g id="Group_1296" data-name="Group 1296" clip-path="url(#clip-path)">
          <g id="Group_1295" data-name="Group 1295">
            <g id="Group_1294" data-name="Group 1294" clip-path="url(#clip-path)">
              <path id="Path_5703" data-name="Path 5703" d="M404.657,21.635c-47.263-.435-95.285-1.38-141.019-1.38,1.757,49.472-1.01,144.376-1.01,144.376l140.485,2.726s.143-98.23,1.543-145.722" transform="translate(73.481 5.667)" fill="#fff"/>
              <path id="Path_5564" data-name="Path 5564" d="M214.751,114.891a3.985,3.985,0,1,0-3.985,3.985,3.985,3.985,0,0,0,3.985-3.985" transform="translate(57.855 31.03)" fill="#acd4f7"/>
              <path id="Path_5565" data-name="Path 5565" d="M210.9,119.649a4.619,4.619,0,1,1,4.62-4.619,4.625,4.625,0,0,1-4.62,4.619m0-7.971a3.352,3.352,0,1,0,3.352,3.352,3.356,3.356,0,0,0-3.352-3.352" transform="translate(57.716 30.892)" fill="#024778"/>
              <path id="Path_5566" data-name="Path 5566" d="M112.394,184.367a3.985,3.985,0,1,0-3.985,3.985,3.985,3.985,0,0,0,3.985-3.985" transform="translate(29.217 50.469)" fill="#acd4f7"/>
              <path id="Path_5567" data-name="Path 5567" d="M108.547,189.126a4.62,4.62,0,1,1,4.62-4.62,4.626,4.626,0,0,1-4.62,4.62m0-7.972a3.352,3.352,0,1,0,3.352,3.352,3.356,3.356,0,0,0-3.352-3.352" transform="translate(29.078 50.33)" fill="#024778"/>
              <path id="Path_5568" data-name="Path 5568" d="M181.73,192.61h-.009a.635.635,0,0,1-.626-.642l.224-16.92a.619.619,0,0,1,.642-.626.634.634,0,0,1,.626.642l-.224,16.92a.633.633,0,0,1-.633.626" transform="translate(50.669 48.801)" fill="#024778"/>
              <path id="Path_5569" data-name="Path 5569" d="M189.265,191.828h-.01a.635.635,0,0,1-.625-.645l.224-13.347a.652.652,0,0,1,.645-.623.634.634,0,0,1,.623.645L189.9,191.2a.633.633,0,0,1-.633.623" transform="translate(52.777 49.582)" fill="#024778"/>
              <path id="Path_5570" data-name="Path 5570" d="M203.629,191.828h-.01a.635.635,0,0,1-.625-.645l.224-13.347a.651.651,0,0,1,.645-.623.634.634,0,0,1,.623.645l-.224,13.347a.633.633,0,0,1-.633.623" transform="translate(56.796 49.582)" fill="#024778"/>
              <path id="Path_5571" data-name="Path 5571" d="M196.8,193.339H196.8a.634.634,0,0,1-.627-.641l.224-20.259a.635.635,0,0,1,.633-.627h.008a.634.634,0,0,1,.627.641l-.224,20.259a.634.634,0,0,1-.633.627" transform="translate(54.886 48.071)" fill="#024778"/>
              <path id="Path_5572" data-name="Path 5572" d="M173.943,191.359h-.013a.633.633,0,0,1-.621-.646l.223-11.2a.643.643,0,0,1,.648-.622.635.635,0,0,1,.621.648l-.224,11.2a.633.633,0,0,1-.633.621" transform="translate(48.49 50.051)" fill="#024778"/>
              <path id="Path_5573" data-name="Path 5573" d="M586.8.983C470.476-.091,352.931.941,240.37.941c4.324,122.139-.044,360.48-.044,360.48l344.368.677S583.357,118.236,586.8.983" transform="translate(67.241 0.138)" fill="none"/>
              <path id="Path_5574" data-name="Path 5574" d="M584.833,362.869h0l-344.368-.676a.636.636,0,0,1-.633-.646c.044-2.383,4.318-239.72.044-360.445a.634.634,0,0,1,.633-.657C277.213.445,315.233.333,352,.225,428.965,0,508.551-.235,586.947.488a.634.634,0,0,1,.628.653c-3.407,115.9-2.122,358.654-2.109,361.092a.634.634,0,0,1-.634.637M241.11,360.926,584.2,361.6c-.072-13.961-1.2-246.618,2.094-359.85C508.11,1.033,428.754,1.267,352,1.494c-36.548.108-74.335.219-110.84.22,4.129,117.849.192,345.377-.054,359.213" transform="translate(67.102 0)" fill="#024778"/>
              <path id="Path_5576" data-name="Path 5576" d="M708.744,202.528h0l-274.3-.235a.636.636,0,0,1-.634-.662c.036-.833,3.439-83.857.036-126.071a.634.634,0,0,1,.632-.685c29.238,0,59.523-.04,88.81-.078,61.3-.079,124.7-.161,187.143.092a.637.637,0,0,1,.461.2.631.631,0,0,1,.169.475c-2.712,40.537-1.689,125.467-1.679,126.32a.634.634,0,0,1-.633.641m-273.643-1.5,273,.235c-.09-7.913-.892-86.154,1.645-125.1-62.223-.25-125.378-.168-186.462-.09-29.059.038-59.1.077-88.125.078,3.16,40.47.255,116.961-.06,124.881" transform="translate(121.375 20.905)" fill="#024778"/>
              <path id="Path_5577" data-name="Path 5577" d="M297.632,209.6c-63.824-.458-128.313-.018-190.071-.018,2.373,52.081-.024,153.71-.024,153.71l188.938.289S295.742,259.6,297.632,209.6" transform="translate(30.088 58.585)" fill="#fff"/>
              <path id="Path_5578" data-name="Path 5578" d="M296.614,364.352h0l-188.938-.288a.632.632,0,0,1-.632-.649c.023-1.016,2.369-102.2.023-153.667a.634.634,0,0,1,.633-.663c20.134,0,40.989-.049,61.156-.093,42.232-.1,85.9-.2,128.92.111a.634.634,0,0,1,.63.658c-1.868,49.411-1.165,152.913-1.157,153.952a.634.634,0,0,1-.633.639M108.324,362.8l187.651.287c-.056-8.8-.626-105.081,1.138-152.717-42.8-.3-86.24-.2-128.255-.106-19.947.045-40.566.092-60.494.093,2.2,49.523.159,143.688-.038,152.443" transform="translate(29.949 58.447)" fill="#024778"/>
              <path id="Path_5579" data-name="Path 5579" d="M536.908,92.657c-23.584-.073-47.416,0-70.237,0,.877,8.28-.009,24.44-.009,24.44l69.819.046s-.271-16.534.427-24.484" transform="translate(130.567 25.915)" fill="#fff"/>
              <path id="Path_5580" data-name="Path 5580" d="M536.621,117.913h0l-69.82-.045a.635.635,0,0,1-.632-.669c.009-.161.873-16.2.012-24.339a.633.633,0,0,1,.631-.7c7.439,0,14.988-.008,22.6-.014,15.6-.017,31.743-.032,47.64.017a.637.637,0,0,1,.466.207.626.626,0,0,1,.164.482c-.687,7.827-.427,24.253-.425,24.418a.632.632,0,0,1-.634.644M467.469,116.6l68.508.045c-.038-3.036-.168-16.04.383-23.217-15.671-.047-31.569-.031-46.949-.017-7.374.008-14.688.015-21.9.015.665,7.409.107,20.127-.041,23.173" transform="translate(130.429 25.777)" fill="#024778"/>
              <path id="Path_5581" data-name="Path 5581" d="M308.5,206.824a3.986,3.986,0,1,0-3.985,3.985,3.985,3.985,0,0,0,3.985-3.985" transform="translate(84.085 56.752)" fill="#024778"/>
              <path id="Path_5582" data-name="Path 5582" d="M304.654,211.583a4.62,4.62,0,1,1,4.62-4.62,4.625,4.625,0,0,1-4.62,4.62m0-7.972a3.352,3.352,0,1,0,3.352,3.352,3.356,3.356,0,0,0-3.352-3.352" transform="translate(83.947 56.614)" fill="#fff"/>
              <path id="Path_5583" data-name="Path 5583" d="M327.328,207.147a3.986,3.986,0,1,0-3.987,3.985,3.986,3.986,0,0,0,3.987-3.985" transform="translate(89.353 56.843)" fill="#fff"/>
              <path id="Path_5584" data-name="Path 5584" d="M323.48,211.906a4.619,4.619,0,1,1,4.62-4.62,4.625,4.625,0,0,1-4.62,4.62m0-7.971a3.351,3.351,0,1,0,3.352,3.35,3.355,3.355,0,0,0-3.352-3.35" transform="translate(89.214 56.704)" fill="#024778"/>
              <path id="Path_5585" data-name="Path 5585" d="M402.663,70.647a3.985,3.985,0,1,0-3.985,3.985,3.985,3.985,0,0,0,3.985-3.985" transform="translate(110.431 18.651)" fill="#024778"/>
              <path id="Path_5586" data-name="Path 5586" d="M398.816,75.406a4.62,4.62,0,1,1,4.62-4.62,4.626,4.626,0,0,1-4.62,4.62m0-7.972a3.352,3.352,0,1,0,3.352,3.352,3.356,3.356,0,0,0-3.352-3.352" transform="translate(110.292 18.513)" fill="#024778"/>
              <path id="Path_5587" data-name="Path 5587" d="M421.489,70.97a3.985,3.985,0,1,0-3.985,3.985,3.985,3.985,0,0,0,3.985-3.985" transform="translate(115.698 18.742)" fill="#024778"/>
              <path id="Path_5588" data-name="Path 5588" d="M417.642,75.728a4.619,4.619,0,1,1,4.62-4.619,4.625,4.625,0,0,1-4.62,4.619m0-7.971a3.352,3.352,0,1,0,3.352,3.352,3.356,3.356,0,0,0-3.352-3.352" transform="translate(115.559 18.603)" fill="#024778"/>
              <path id="Path_5589" data-name="Path 5589" d="M574.8,138.991a3.985,3.985,0,1,0-3.985,3.985,3.985,3.985,0,0,0,3.985-3.985" transform="translate(158.594 37.773)" fill="#024778"/>
              <path id="Path_5590" data-name="Path 5590" d="M570.956,143.749a4.619,4.619,0,1,1,4.619-4.619,4.625,4.625,0,0,1-4.619,4.619m0-7.971a3.351,3.351,0,1,0,3.35,3.352,3.356,3.356,0,0,0-3.35-3.352" transform="translate(158.455 37.635)" fill="#024778"/>
              <path id="Path_5591" data-name="Path 5591" d="M597.17,138.991a3.985,3.985,0,1,0-3.985,3.985,3.985,3.985,0,0,0,3.985-3.985" transform="translate(164.852 37.773)" fill="#024778"/>
              <path id="Path_5592" data-name="Path 5592" d="M593.323,143.749a4.619,4.619,0,1,1,4.62-4.619,4.625,4.625,0,0,1-4.62,4.619m0-7.971a3.351,3.351,0,1,0,3.352,3.352,3.356,3.356,0,0,0-3.352-3.352" transform="translate(164.713 37.635)" fill="#024778"/>
              <path id="Path_5593" data-name="Path 5593" d="M619.538,138.991a3.985,3.985,0,1,0-3.985,3.985,3.985,3.985,0,0,0,3.985-3.985" transform="translate(171.11 37.773)" fill="#024778"/>
              <path id="Path_5594" data-name="Path 5594" d="M615.691,143.749a4.619,4.619,0,1,1,4.62-4.619,4.625,4.625,0,0,1-4.62,4.619m0-7.971a3.351,3.351,0,1,0,3.352,3.352,3.356,3.356,0,0,0-3.352-3.352" transform="translate(170.972 37.635)" fill="#024778"/>
              <path id="Path_5595" data-name="Path 5595" d="M420.016,164.45H420c-40.929-.868-82.461-.951-123.441-.247a.634.634,0,1,1-.023-1.268c41-.7,82.546-.621,123.491.247a.634.634,0,0,1-.013,1.268" transform="translate(82.794 45.455)" fill="#024778"/>
              <path id="Path_5596" data-name="Path 5596" d="M449.884,246.513a62.064,62.064,0,0,1,3.771-9.822c.218-.42.6-.9,1.078-.779a1,1,0,0,1,.52.431c.781,1.088,2.633,6.865,3.782,10.286q4.872.5,9.692,1.383a1.516,1.516,0,0,1,1.044.5c.383.587-.264,1.275-.849,1.675-2.373,1.62-4.844,3.111-7.537,4.973q1.541,4.454,3.082,8.909a1.711,1.711,0,0,1,.006,1.6,1.272,1.272,0,0,1-1.18.384,3.652,3.652,0,0,1-1.208-.48c-2.79-1.534-5.44-3.3-8.145-5.036-4.353,3.749-8.838,7.175-10.14,6.175-1.17-.9,1.7-7.969,3.411-11.536-2.846-1.94-5.275-3.167-8.023-5.525a1.152,1.152,0,0,1-.337-1.651c.5-.665,2.154-.8,3.31-.934,2.7-.322,4.7-.229,7.722-.553" transform="translate(122.725 66)" fill="#fff"/>
              <path id="Path_5597" data-name="Path 5597" d="M444.524,267.674a1.509,1.509,0,0,1-.97-.32c-1.72-1.321,1.583-8.834,2.988-11.818-.758-.507-1.493-.969-2.208-1.419a42.629,42.629,0,0,1-5.421-3.846,1.783,1.783,0,0,1-.43-2.514c.623-.823,2.113-.994,3.427-1.145l.314-.036c1.4-.168,2.592-.224,3.855-.284,1.071-.051,2.176-.1,3.461-.228a59.225,59.225,0,0,1,3.692-9.527c.457-.879,1.11-1.28,1.8-1.1a1.587,1.587,0,0,1,.875.676c.669.934,1.853,4.406,3.331,8.847.142.424.278.833.407,1.218,3.116.328,6.254.781,9.335,1.349a2.088,2.088,0,0,1,1.459.777c.516.787.124,1.762-1.021,2.544-1.1.749-2.194,1.458-3.356,2.208-1.218.787-2.475,1.6-3.782,2.49L465.205,264a2.3,2.3,0,0,1-.095,2.2,1.871,1.871,0,0,1-1.77.621,4.193,4.193,0,0,1-1.423-.552c-2.347-1.29-4.632-2.767-6.842-4.194l-.943-.608c-5.745,4.913-8.278,6.208-9.609,6.208m-.177-1.311c.265.155,1.773.333,9.317-6.167a.635.635,0,0,1,.756-.054q.674.432,1.342.866c2.192,1.415,4.459,2.878,6.766,4.148a3.118,3.118,0,0,0,.993.408.685.685,0,0,0,.589-.146c.148-.192.022-.637-.1-1l-3.083-8.91a.637.637,0,0,1,.239-.729c1.465-1.012,2.862-1.915,4.212-2.786,1.154-.745,2.246-1.449,3.329-2.188.5-.34.736-.709.674-.8-.081-.123-.493-.2-.628-.224-3.18-.586-6.423-1.049-9.641-1.377a.632.632,0,0,1-.536-.427c-.166-.494-.347-1.038-.538-1.609-1.014-3.05-2.548-7.657-3.16-8.509-.11-.154-.159-.184-.17-.189a1.293,1.293,0,0,0-.348.459,60.33,60.33,0,0,0-3.728,9.716.631.631,0,0,1-.539.444c-1.5.161-2.746.22-3.951.278-1.24.059-2.411.114-3.764.275l-.32.037c-.792.091-2.265.261-2.56.65-.175.232-.093.5.244.787a41.507,41.507,0,0,0,5.27,3.734c.865.545,1.758,1.108,2.7,1.748a.632.632,0,0,1,.214.8c-2.323,4.834-4.013,9.939-3.573,10.773m.01.017h0Zm5.664-19.728h0Z" transform="translate(122.587 65.861)" fill="#024778"/>
              <path id="Path_5598" data-name="Path 5598" d="M483.573,246.513a62.062,62.062,0,0,1,3.772-9.822c.217-.42.6-.9,1.078-.779a1,1,0,0,1,.52.431c.781,1.088,2.633,6.865,3.782,10.286q4.872.5,9.692,1.383a1.516,1.516,0,0,1,1.044.5c.383.587-.264,1.275-.849,1.675-2.373,1.62-4.844,3.111-7.537,4.973q1.541,4.454,3.082,8.909a1.71,1.71,0,0,1,.006,1.6,1.272,1.272,0,0,1-1.18.384,3.652,3.652,0,0,1-1.208-.48c-2.79-1.534-5.44-3.3-8.145-5.036-4.353,3.749-8.838,7.175-10.14,6.175-1.17-.9,1.7-7.969,3.411-11.536-2.845-1.94-5.275-3.167-8.023-5.525a1.152,1.152,0,0,1-.337-1.651c.5-.665,2.154-.8,3.31-.934,2.7-.322,4.7-.229,7.722-.553" transform="translate(132.151 66)" fill="#fff"/>
              <path id="Path_5599" data-name="Path 5599" d="M478.214,267.674a1.509,1.509,0,0,1-.97-.32c-1.72-1.321,1.583-8.834,2.988-11.818-.758-.507-1.493-.969-2.208-1.419a42.631,42.631,0,0,1-5.421-3.846,1.783,1.783,0,0,1-.43-2.514c.623-.823,2.113-.994,3.427-1.145l.314-.036c1.4-.168,2.592-.224,3.855-.284,1.071-.051,2.177-.1,3.461-.228a59.219,59.219,0,0,1,3.692-9.527c.457-.879,1.11-1.28,1.8-1.1a1.587,1.587,0,0,1,.875.676c.669.934,1.853,4.406,3.331,8.847.141.424.278.833.407,1.218,3.116.328,6.254.781,9.335,1.349a2.09,2.09,0,0,1,1.459.777c.516.787.124,1.762-1.021,2.544-1.1.749-2.194,1.458-3.356,2.208-1.218.787-2.475,1.6-3.782,2.49L498.9,264a2.3,2.3,0,0,1-.095,2.2,1.872,1.872,0,0,1-1.77.621,4.194,4.194,0,0,1-1.423-.552c-2.347-1.29-4.632-2.767-6.842-4.194l-.943-.608c-5.745,4.913-8.278,6.208-9.609,6.208m-.177-1.311c.264.155,1.772.333,9.317-6.167a.635.635,0,0,1,.756-.054q.674.432,1.342.866c2.192,1.415,4.458,2.878,6.766,4.148a3.119,3.119,0,0,0,.993.408.685.685,0,0,0,.589-.146c.148-.192.022-.637-.1-1l-3.083-8.91a.637.637,0,0,1,.239-.729c1.465-1.012,2.862-1.915,4.212-2.786,1.154-.745,2.246-1.449,3.329-2.188.5-.34.736-.709.674-.8-.081-.123-.493-.2-.628-.224-3.18-.586-6.423-1.049-9.641-1.377a.632.632,0,0,1-.536-.427c-.166-.494-.347-1.038-.538-1.609-1.014-3.05-2.548-7.657-3.16-8.509-.11-.154-.159-.184-.17-.189a1.293,1.293,0,0,0-.348.459,60.325,60.325,0,0,0-3.728,9.716.631.631,0,0,1-.539.444c-1.5.161-2.746.22-3.951.278-1.24.059-2.411.114-3.764.275l-.32.037c-.792.091-2.265.261-2.56.65-.175.232-.093.5.244.787a41.5,41.5,0,0,0,5.27,3.734c.865.545,1.758,1.108,2.7,1.748a.632.632,0,0,1,.214.8c-2.323,4.834-4.013,9.939-3.573,10.773m.01.017h0Zm5.664-19.728h0Z" transform="translate(132.013 65.861)" fill="#024778"/>
              <path id="Path_5600" data-name="Path 5600" d="M296.768,181.412a.634.634,0,0,1,0-1.268l101.183-.416h0a.634.634,0,0,1,0,1.268l-101.183.416Z" transform="translate(82.855 50.286)" fill="#024778"/>
              <path id="Path_5601" data-name="Path 5601" d="M296.768,233.193a.634.634,0,0,1-.009-1.268l31.784-.417a.648.648,0,0,1,.644.626.638.638,0,0,1-.627.642l-31.784.417Z" transform="translate(82.855 64.774)" fill="#024778"/>
              <path id="Path_5602" data-name="Path 5602" d="M159.478,236.919a.634.634,0,0,1-.005-1.268l75.243-.417h0a.634.634,0,0,1,0,1.268l-75.24.417Z" transform="translate(44.443 65.816)" fill="#024778"/>
              <path id="Path_5603" data-name="Path 5603" d="M159.478,258.047a.634.634,0,0,1-.005-1.268l58.755-.417h.005a.634.634,0,0,1,.005,1.268l-58.756.417Z" transform="translate(44.443 71.727)" fill="#024778"/>
              <path id="Path_5604" data-name="Path 5604" d="M159.476,276.872a.634.634,0,0,1-.005-1.268l51.57-.417a.634.634,0,0,1,.01,1.268l-51.57.417Z" transform="translate(44.443 76.995)" fill="#024778"/>
              <path id="Path_5605" data-name="Path 5605" d="M158.176,297.191a.634.634,0,0,1,0-1.268l66.365-.417h0a.634.634,0,0,1,0,1.268l-66.365.417Z" transform="translate(44.079 82.68)" fill="#024778"/>
              <path id="Path_5606" data-name="Path 5606" d="M296.768,251.543a.634.634,0,0,1-.014-1.268l19.967-.417a.634.634,0,1,1,.027,1.268l-19.969.417Z" transform="translate(82.855 69.908)" fill="#024778"/>
              <path id="Path_5607" data-name="Path 5607" d="M392.789,51.925a.634.634,0,0,1,0-1.268c34.593,0,111.659-.34,112.433-.343h0a.634.634,0,0,1,0,1.267c-.774,0-77.843.344-112.44.344" transform="translate(109.721 14.077)" fill="#024778"/>
              <path id="Path_5608" data-name="Path 5608" d="M392.789,33.441a.634.634,0,0,1,0-1.268c34.593,0,111.659-.34,112.433-.344h0a.634.634,0,0,1,0,1.268c-.774,0-77.843.344-112.44.344" transform="translate(109.721 8.905)" fill="#024778"/>
              <path id="Path_5609" data-name="Path 5609" d="M458.828,215.479a.634.634,0,0,1,0-1.268c12.482,0,40.293-.34,40.572-.343h.008a.634.634,0,0,1,.008,1.267c-.279,0-28.1.344-40.587.344" transform="translate(128.198 59.838)" fill="#024778"/>
              <path id="Path_5610" data-name="Path 5610" d="M441.983,196.995a.634.634,0,0,1,0-1.268c19.116,0,61.7-.34,62.133-.344h.005a.634.634,0,0,1,.005,1.268c-.427,0-43.021.344-62.143.344" transform="translate(123.485 54.666)" fill="#024778"/>
              <path id="Path_5611" data-name="Path 5611" d="M391.3,89.914a.634.634,0,0,1,0-1.268c11.414,0,36.848-.34,37.1-.344a.646.646,0,0,1,.642.626.633.633,0,0,1-.625.642c-.256,0-25.7.344-37.12.344" transform="translate(109.305 24.706)" fill="#024778"/>
              <path id="Path_5612" data-name="Path 5612" d="M391.3,107.578a.634.634,0,0,1,0-1.268c11.414,0,36.848-.34,37.1-.344a.641.641,0,0,1,.642.626.633.633,0,0,1-.625.642c-.256,0-25.7.344-37.12.344" transform="translate(109.305 29.648)" fill="#024778"/>
              <path id="Path_5613" data-name="Path 5613" d="M466.26,126.562a.634.634,0,1,1,0-1.268c26.529,0,85.632-.34,86.226-.344h.005a.634.634,0,0,1,0,1.268c-.594,0-59.7.344-86.235.344" transform="translate(130.277 34.959)" fill="#024778"/>
              <path id="Path_5614" data-name="Path 5614" d="M467.031,140.494a.634.634,0,0,1,0-1.268c15.734,0,50.788-.34,51.14-.344h.006a.634.634,0,0,1,.006,1.268c-.352,0-35.413.344-51.153.344" transform="translate(130.493 38.858)" fill="#024778"/>
              <path id="Path_5615" data-name="Path 5615" d="M467.031,154.812a.634.634,0,0,1,0-1.268c25.246,0,81.491-.34,82.056-.344h0a.634.634,0,0,1,0,1.268c-.564,0-56.812.344-82.063.344" transform="translate(130.493 42.864)" fill="#024778"/>
              <path id="Path_5616" data-name="Path 5616" d="M427.638,299.715c20.529,15.543,35.338,37.462,53.5,55.785,4.214,4.253,9.3,8.585,15.235,8.333a11.856,11.856,0,0,0,10.817-9.815c.641-4.225-1.092-8.531-3.718-11.875s-6.085-5.891-9.478-8.427a672.807,672.807,0,0,1-55.918-46.776c-3.592,4.154-7.183,8.31-10.437,12.776" transform="translate(119.649 80.283)" fill="#fff"/>
              <path id="Path_5617" data-name="Path 5617" d="M496.019,364.615c-5.923,0-10.995-4.295-15.194-8.531-6.647-6.707-12.94-14-19.027-21.059-10.534-12.212-21.426-24.839-34.4-34.666a.634.634,0,0,1-.131-.879c3.271-4.491,6.93-8.724,10.47-12.818a.635.635,0,0,1,.445-.219.648.648,0,0,1,.466.17,674.493,674.493,0,0,0,55.867,46.732l.283.212c3.3,2.466,6.709,5.017,9.313,8.333,3.047,3.879,4.448,8.385,3.846,12.36A12.459,12.459,0,0,1,496.538,364.6c-.174.008-.347.012-.52.012m-67.362-64.889c12.866,9.851,23.659,22.364,34.1,34.471,6.073,7.039,12.351,14.318,18.968,20.995,4.126,4.162,9.113,8.386,14.759,8.145a11.155,11.155,0,0,0,10.215-9.276c.552-3.632-.756-7.782-3.589-11.388-2.5-3.184-5.844-5.684-9.075-8.1l-.284-.211a675.784,675.784,0,0,1-55.489-46.372c-3.255,3.766-6.594,7.653-9.606,11.737" transform="translate(119.51 80.144)" fill="#024778"/>
              <path id="Path_5618" data-name="Path 5618" d="M419.321,301.023a12.865,12.865,0,0,0,5.374,8.482,5.563,5.563,0,0,0,3.26,1.157,6.383,6.383,0,0,0,3.161-1.276c6.165-4.063,10.716-10.1,15.139-16.008a15.277,15.277,0,0,0,3.037-5.518,9.267,9.267,0,0,0-.282-4.8c-1.345-4.295-6.009-7.747-10.32-6.455-2.269.68-4.015,2.462-5.611,4.214a148.1,148.1,0,0,0-12.072,15.144c-1.349,1.939-2.712,4.175-1.686,5.064" transform="translate(117.221 77.313)" fill="#fff"/>
              <path id="Path_5619" data-name="Path 5619" d="M427.952,311.441a6.207,6.207,0,0,1-3.478-1.271,13.584,13.584,0,0,1-5.608-8.7c-1.232-1.431.7-4.208,1.756-5.728a149.213,149.213,0,0,1,12.125-15.209c1.666-1.829,3.493-3.674,5.9-4.395,4.827-1.445,9.726,2.464,11.109,6.874a9.9,9.9,0,0,1,.293,5.136A15.829,15.829,0,0,1,446.9,293.9c-4.2,5.62-8.969,11.987-15.3,16.159a6.964,6.964,0,0,1-3.486,1.381l-.163,0m12.8-34.347a6.08,6.08,0,0,0-1.744.255c-2.094.628-3.777,2.337-5.323,4.034a147.914,147.914,0,0,0-12.021,15.078c-2.072,2.979-2.117,3.942-1.79,4.223a.644.644,0,0,1,.211.38,12.282,12.282,0,0,0,5.105,8.059,4.865,4.865,0,0,0,2.877,1.047A5.861,5.861,0,0,0,430.9,309c6.143-4.048,10.635-10.051,14.98-15.858a14.916,14.916,0,0,0,2.927-5.279,8.644,8.644,0,0,0-.269-4.474c-1.034-3.3-4.286-6.293-7.79-6.293" transform="translate(117.083 77.174)" fill="#024778"/>
              <path id="Path_5620" data-name="Path 5620" d="M400.99,189.8c-28.2,1.515-53.507,22.851-64.464,48.876s-6.965,57.765,10.1,80.266c11.206,14.779,34.233,27.394,64.533,24.038,21.17-2.345,39.872-16.178,52.021-33.673,9.577-13.787,15.677-30.2,16.01-46.987s-8.906-76.243-78.2-72.521m36.771,128.962c-31.624,22.792-72.078,9.561-84.492-18.544-9.376-21.227-8.1-41.765-5.794-48.885C351.3,239.5,362.1,215.665,385.1,208.269c27.87-8.964,48.682.541,58.895,8.819a56.672,56.672,0,0,1,19.8,33.17c4.661,24.66-5.673,53.828-26.033,68.5" transform="translate(92.445 53.057)" fill="#fff"/>
              <path id="Path_5621" data-name="Path 5621" d="M401.439,344.3c-26.577,0-45.677-12.3-55.182-24.841a83.183,83.183,0,0,1-10.176-80.9,86.223,86.223,0,0,1,25.961-33.884c11.929-9.331,25.433-14.648,39.054-15.381,23.973-1.286,43.111,4.813,56.889,18.132,17.866,17.271,22.218,42.719,21.975,55.035-.319,16.011-6.044,32.823-16.124,47.337a87.79,87.79,0,0,1-22.794,22.682,66.082,66.082,0,0,1-29.677,11.26,90.3,90.3,0,0,1-9.926.555m-.31-154.367.035.632c-26.621,1.431-52.306,20.917-63.914,48.49A81.562,81.562,0,0,0,347.267,318.7c9.314,12.285,28.058,24.339,54.171,24.34a89.017,89.017,0,0,0,9.788-.549c19.532-2.164,38.33-14.339,51.569-33.4,9.939-14.311,15.584-30.874,15.9-46.639.239-12.109-4.037-37.131-21.589-54.1-13.513-13.064-32.333-19.043-55.94-17.778Zm1.51,141.185a58.149,58.149,0,0,1-15.255-2.034c-15.638-4.248-28.556-14.893-34.556-28.478-9.159-20.735-8.429-41.266-5.818-49.336,3.393-10.484,13.887-35.706,38.03-43.471,12.56-4.04,24.809-4.737,36.4-2.069a55.888,55.888,0,0,1,43.111,44.544c4.839,25.595-6.216,54.67-26.284,69.134a60.952,60.952,0,0,1-35.632,11.709m4.625-125.686a71.058,71.058,0,0,0-21.836,3.574c-23.584,7.585-33.88,32.356-37.211,42.654-2.155,6.66-3.58,27.263,5.771,48.434,5.847,13.238,18.456,23.617,33.728,27.765a58.679,58.679,0,0,0,49.813-9.479c19.691-14.192,30.533-42.735,25.781-67.87a56.316,56.316,0,0,0-19.581-32.795,58.587,58.587,0,0,0-36.465-12.283M437.9,318.9h0Z" transform="translate(92.305 52.918)" fill="#024778"/>
              <path id="Path_5622" data-name="Path 5622" d="M437.809,304.342l-.036,0a.212.212,0,0,1-.173-.244l1.523-9.039a.213.213,0,0,1,.243-.174.21.21,0,0,1,.173.243l-1.522,9.04a.212.212,0,0,1-.209.177" transform="translate(122.436 82.504)" fill="#024778"/>
              <path id="Path_5623" data-name="Path 5623" d="M441.751,309.555h-.01a.212.212,0,0,1-.2-.221c.2-4.209.513-8.471.921-12.667a.22.22,0,0,1,.232-.189.212.212,0,0,1,.189.232c-.407,4.187-.717,8.443-.92,12.646a.211.211,0,0,1-.211.2" transform="translate(123.539 82.951)" fill="#024778"/>
              <path id="Path_5624" data-name="Path 5624" d="M445.24,313.822a.212.212,0,0,1-.211-.2,86.238,86.238,0,0,1,.787-14.625.218.218,0,0,1,.239-.18.212.212,0,0,1,.179.239,85.92,85.92,0,0,0-.783,14.554.211.211,0,0,1-.2.218Z" transform="translate(124.503 83.604)" fill="#024778"/>
              <path id="Path_5625" data-name="Path 5625" d="M448.708,316.955a.212.212,0,0,1-.211-.2,86.247,86.247,0,0,1,.787-14.625.216.216,0,0,1,.239-.18.211.211,0,0,1,.179.239,85.927,85.927,0,0,0-.783,14.554.211.211,0,0,1-.2.218Z" transform="translate(125.473 84.481)" fill="#024778"/>
              <path id="Path_5626" data-name="Path 5626" d="M452.011,320.431a.212.212,0,0,1-.211-.2,86.241,86.241,0,0,1,.787-14.625.217.217,0,0,1,.239-.18.212.212,0,0,1,.179.239,85.931,85.931,0,0,0-.783,14.554.211.211,0,0,1-.2.218Z" transform="translate(126.397 85.453)" fill="#024778"/>
              <path id="Path_5627" data-name="Path 5627" d="M455.4,325.221a.211.211,0,0,1-.211-.211c-.012-5.481.2-11.033.637-16.5a.211.211,0,0,1,.421.035c-.434,5.457-.648,11-.636,16.468A.211.211,0,0,1,455.4,325.221Z" transform="translate(127.358 86.263)" fill="#024778"/>
              <path id="Path_5628" data-name="Path 5628" d="M458.568,329.647a.211.211,0,0,1-.211-.211c-.012-6.183.2-12.445.635-18.615a.221.221,0,0,1,.227-.2.214.214,0,0,1,.2.227c-.434,6.158-.649,12.41-.637,18.583A.211.211,0,0,1,458.568,329.647Z" transform="translate(128.244 86.91)" fill="#024778"/>
              <path id="Path_5629" data-name="Path 5629" d="M462.217,334.275a.21.21,0,0,1-.211-.21l-.168-19.908a.211.211,0,0,1,.21-.212h0a.21.21,0,0,1,.211.21l.168,19.908a.211.211,0,0,1-.21.212Z" transform="translate(129.218 87.838)" fill="#024778"/>
              <path id="Path_5630" data-name="Path 5630" d="M465.85,337.15a.211.211,0,0,1-.211-.21l-.168-19.908a.212.212,0,0,1,.21-.212h0a.212.212,0,0,1,.212.21l.166,19.908a.211.211,0,0,1-.21.212Z" transform="translate(130.234 88.643)" fill="#024778"/>
              <path id="Path_5631" data-name="Path 5631" d="M469.3,341.755a.211.211,0,0,1-.211-.207l-.406-22.133a.212.212,0,0,1,.209-.215.22.22,0,0,1,.215.207l.4,22.133a.211.211,0,0,1-.207.215Z" transform="translate(131.133 89.309)" fill="#024778"/>
              <path id="Path_5632" data-name="Path 5632" d="M477.077,347.621a.211.211,0,0,1-.211-.2l-1.088-22.6a.212.212,0,0,1,.2-.221.2.2,0,0,1,.221.2l1.088,22.6a.212.212,0,0,1-.2.221h-.01" transform="translate(133.118 90.819)" fill="#024778"/>
              <path id="Path_5633" data-name="Path 5633" d="M473.36,346.991h0a.211.211,0,0,1-.207-.215c.067-4.039-.133-8.148-.326-12.122-.209-4.318-.425-8.782-.3-13.179a.211.211,0,0,1,.422.012c-.123,4.381.093,8.838.3,13.147.193,3.98.393,8.1.326,12.149a.212.212,0,0,1-.211.209" transform="translate(132.197 89.888)" fill="#024778"/>
              <path id="Path_5634" data-name="Path 5634" d="M480.487,348.519a.212.212,0,0,1-.21-.184A126.427,126.427,0,0,1,479.4,326.9a.206.206,0,0,1,.221-.2.211.211,0,0,1,.2.22,125.957,125.957,0,0,0,.879,21.36.211.211,0,0,1-.183.237h-.027" transform="translate(134.096 91.408)" fill="#024778"/>
              <path id="Path_5635" data-name="Path 5635" d="M486.372,344.562a.21.21,0,0,1-.21-.192c-.334-3.743-.572-7.549-.706-11.313a.212.212,0,0,1,.424-.015c.133,3.756.37,7.556.7,11.29a.211.211,0,0,1-.192.229h-.019" transform="translate(135.826 93.125)" fill="#024778"/>
              <path id="Path_5636" data-name="Path 5636" d="M483.134,347.993a.211.211,0,0,1-.211-.209l-.256-18.071a.21.21,0,0,1,.207-.214h0a.211.211,0,0,1,.211.209l.256,18.071a.211.211,0,0,1-.209.214Z" transform="translate(135.045 92.191)" fill="#024778"/>
              <path id="Path_5637" data-name="Path 5637" d="M271.371,214.417l3.984-6.074a5.3,5.3,0,0,1,2.553-2.41,6.051,6.051,0,0,1,3.567.241c1.4.417,2.944,1.131,3.269,2.395.3,1.175-.6,2.263-1.45,3.161q-2.979,3.135-6.12,6.143a4.3,4.3,0,0,1-1.534,1.079,3.545,3.545,0,0,1-1.642.1,4.319,4.319,0,0,1-3.133-1.941c-.585-1.047-.385-2.415.507-2.691" transform="translate(75.692 57.567)" fill="#fff"/>
              <path id="Path_5638" data-name="Path 5638" d="M274.8,219.873a5.223,5.223,0,0,1-.755-.058,4.939,4.939,0,0,1-3.594-2.259,3.039,3.039,0,0,1-.237-2.537,1.8,1.8,0,0,1,.875-.978l3.875-5.907a5.889,5.889,0,0,1,2.881-2.663,6.591,6.591,0,0,1,3.951.233c2.135.639,3.38,1.595,3.7,2.844.42,1.628-.9,3.013-1.6,3.757-1.984,2.086-4.049,4.159-6.14,6.163a4.871,4.871,0,0,1-1.769,1.22,3.623,3.623,0,0,1-1.184.184m4.455-13.351a3.159,3.159,0,0,0-1,.151,4.721,4.721,0,0,0-2.226,2.156L272.04,214.9a.631.631,0,0,1-.342.257.51.51,0,0,0-.307.329,1.8,1.8,0,0,0,.166,1.447,3.71,3.71,0,0,0,2.671,1.624,2.885,2.885,0,0,0,1.344-.072,3.822,3.822,0,0,0,1.3-.936c2.077-1.991,4.13-4.051,6.1-6.123.8-.841,1.51-1.734,1.3-2.567-.2-.777-1.181-1.45-2.837-1.945a7.84,7.84,0,0,0-2.178-.4m-7.744,8.032h0Z" transform="translate(75.554 57.428)" fill="#024778"/>
              <path id="Path_5639" data-name="Path 5639" d="M249.267,245.591c-9.438,12.12-17.037,23.37-27.592,36.924a45.765,45.765,0,0,0-3.052,5.62,7.6,7.6,0,0,0-.01,6.179,5.807,5.807,0,0,0,5.789,3.075c1.952-.323,3.32-1.772,4.524-3.135,11.932-13.512,22.842-28.131,34.027-42.14Z" transform="translate(60.982 68.714)" fill="#fff"/>
              <path id="Path_5640" data-name="Path 5640" d="M223.793,298.221a6.5,6.5,0,0,1-5.608-3.484,8.24,8.24,0,0,1-.015-6.692,26.859,26.859,0,0,1,2.135-4.071c.32-.532.65-1.084.956-1.63a.651.651,0,0,1,.052-.079c5.42-6.96,10.073-13.33,14.573-19.491,4.333-5.933,8.426-11.536,13.019-17.433a.635.635,0,0,1,.773-.183l13.685,6.523a.633.633,0,0,1,.223.968c-3.187,3.992-6.408,8.106-9.524,12.084-7.857,10.032-15.979,20.406-24.523,30.08-1.043,1.181-2.618,2.965-4.9,3.342a5.244,5.244,0,0,1-.85.068m-1.45-15.215c-.307.548-.635,1.093-.951,1.621a25.5,25.5,0,0,0-2.039,3.875,7.02,7.02,0,0,0-.037,5.663,5.167,5.167,0,0,0,5.119,2.736c1.692-.279,2.929-1.545,4.153-2.929,8.518-9.646,16.63-20,24.475-30.023,2.955-3.774,6.006-7.67,9.033-11.468l-12.5-5.96c-4.454,5.736-8.453,11.211-12.681,17-4.5,6.157-9.149,12.525-14.568,19.485" transform="translate(60.843 68.575)" fill="#024778"/>
              <path id="Path_5641" data-name="Path 5641" d="M256.606,264.909c-2.68-1.483-12.557-7.395-16.637-10.636,6.442-7.212,8.974-11.978,14.892-19.719,2.3-3.01,10.787-13.7,12.564-15.982,7.085-9.112,14.782-5.824,18.762-2.467,7.1,5.988-3.133,14.076-5.115,16.465a353.1,353.1,0,0,0-24.464,32.34" transform="translate(67.141 59.499)" fill="#fff"/>
              <path id="Path_5642" data-name="Path 5642" d="M256.745,265.682a.635.635,0,0,1-.307-.079c-2.593-1.435-12.555-7.382-16.724-10.694a.635.635,0,0,1-.078-.919,117.087,117.087,0,0,0,9.275-11.983c1.661-2.366,3.379-4.812,5.586-7.7,1.438-1.883,5.3-6.774,8.406-10.7,1.879-2.379,3.493-4.423,4.161-5.282,2.862-3.681,6.088-5.732,9.588-6.1,4.557-.479,8.273,2.011,10.082,3.537a6.852,6.852,0,0,1,2.694,4.987c.194,4.308-3.965,8.511-6.45,11.022-.54.546-1.007,1.017-1.278,1.345A349.349,349.349,0,0,0,257.273,265.4a.629.629,0,0,1-.529.284m-15.713-11.356c4.113,3.129,12.477,8.157,15.511,9.881A356.911,356.911,0,0,1,280.722,232.3c.307-.37.769-.837,1.353-1.427,2.339-2.364,6.254-6.318,6.085-10.073a5.565,5.565,0,0,0-2.245-4.075c-1.655-1.4-5.042-3.678-9.131-3.244-3.144.33-6.079,2.22-8.721,5.617-.668.86-2.286,2.908-4.166,5.289-3.1,3.926-6.961,8.814-8.394,10.689-2.192,2.867-3.9,5.3-5.556,7.657a121.519,121.519,0,0,1-8.916,11.591" transform="translate(67.002 59.361)" fill="#024778"/>
              <path id="Path_5643" data-name="Path 5643" d="M262.827,263.051a4.386,4.386,0,0,1-2.766-.927,4.907,4.907,0,0,1-1.008-6.011,14.024,14.024,0,0,1,4.2-4.392l14.7-11.432c2.954-2.3,6.009-4.674,8.221-7.583,2.414-3.171,3.425-6.611,2.846-9.685a9.413,9.413,0,0,0-7.313-7.273.634.634,0,1,1,.229-1.248,10.724,10.724,0,0,1,8.33,8.287c.645,3.431-.449,7.227-3.083,10.688a44.9,44.9,0,0,1-8.453,7.816l-14.7,11.432a13.093,13.093,0,0,0-3.848,3.961,3.651,3.651,0,0,0,.685,4.465,3.369,3.369,0,0,0,2.978.481,1.674,1.674,0,0,0,1.177-1.035.634.634,0,0,1,1.225.331,2.872,2.872,0,0,1-2.018,1.912,4.632,4.632,0,0,1-1.405.214" transform="translate(72.315 60.012)" fill="#024778"/>
              <path id="Path_5644" data-name="Path 5644" d="M216.508,292.37a.627.627,0,0,1-.371-.12.635.635,0,0,1-.142-.886l4.442-6.148a.634.634,0,1,1,1.028.744l-4.442,6.148a.633.633,0,0,1-.514.262" transform="translate(60.4 79.727)" fill="#024778"/>
              <path id="Path_5645" data-name="Path 5645" d="M138.546,245.875a.636.636,0,0,1-.5-.247,75.116,75.116,0,0,1-6.614-10.219.634.634,0,1,1,1.117-.6,73.972,73.972,0,0,0,5.942,9.31,115.412,115.412,0,0,1,10.494-14.407.635.635,0,0,1,.965.824,113.841,113.841,0,0,0-10.859,15.034.634.634,0,0,1-.507.3h-.036" transform="translate(36.752 64.209)" fill="#024778"/>
              <path id="Path_5646" data-name="Path 5646" d="M138.546,267a.633.633,0,0,1-.5-.248,75.114,75.114,0,0,1-6.614-10.219.634.634,0,0,1,1.117-.6,73.767,73.767,0,0,0,5.943,9.309,115.322,115.322,0,0,1,10.493-14.405.635.635,0,0,1,.965.824A114.009,114.009,0,0,0,139.089,266.7a.634.634,0,0,1-.507.3h-.036" transform="translate(36.752 70.12)" fill="#024778"/>
              <path id="Path_5647" data-name="Path 5647" d="M138.546,288.192a.636.636,0,0,1-.5-.247,75.125,75.125,0,0,1-6.614-10.22.634.634,0,0,1,1.117-.6,73.969,73.969,0,0,0,5.942,9.31,115.411,115.411,0,0,1,10.494-14.407.635.635,0,1,1,.965.824,113.842,113.842,0,0,0-10.859,15.034.634.634,0,0,1-.507.3h-.036" transform="translate(36.752 76.049)" fill="#024778"/>
              <path id="Path_5648" data-name="Path 5648" d="M147.618,307.091a.631.631,0,0,1-.418-.159l-13.4-11.8a.634.634,0,1,1,.838-.951l13.4,11.8a.634.634,0,0,1-.42,1.11" transform="translate(37.376 82.263)" fill="#024778"/>
              <path id="Path_5649" data-name="Path 5649" d="M132.944,308.289a.634.634,0,0,1-.482-1.046,142.544,142.544,0,0,1,13.852-14.088.634.634,0,1,1,.842.948,141.285,141.285,0,0,0-13.73,13.963.632.632,0,0,1-.482.223" transform="translate(37.019 81.977)" fill="#024778"/>
              <path id="Path_5650" data-name="Path 5650" d="M27.314,219.378A211.781,211.781,0,0,1,51.424,240.2c3.955,3.976,8.139,8.325,13.79,9.4a7.229,7.229,0,0,0,3.706-.118,5.757,5.757,0,0,0,3.486-3.947,10.158,10.158,0,0,0-.183-5.282,9.436,9.436,0,0,0-1.753-3.706,12.542,12.542,0,0,0-3.056-2.414c-7.72-4.848-16.043-9.021-22.581-15.437a16.9,16.9,0,0,0,2.624-2.86,5.372,5.372,0,0,0,1-3.6c-.252-1.9-1.833-3.347-3.226-4.777A213.336,213.336,0,0,1,87.019,190.4,207.148,207.148,0,0,1,75.3,173.256c-5.035-7.923-10.069-15.848-15.305-23.268-7.759,10.547-17.906,19.254-27.956,27.861-6.9,5.913-13.831,11.841-21.422,16.92C6.565,197.476,2,200.368.765,204.928A11.556,11.556,0,0,0,2.2,213.5a33.248,33.248,0,0,0,5.719,6.919c1.748,1.748,3.821,3.606,6.527,3.768a32.533,32.533,0,0,0,12.863-4.8" transform="translate(0.127 41.965)" fill="#fff"/>
              <path id="Path_5651" data-name="Path 5651" d="M61.25,153.435a123.071,123.071,0,0,0,12.4,19.1,6.814,6.814,0,0,0,4.126-4.927,16.748,16.748,0,0,0-.074-6.506,6.372,6.372,0,0,0-2.2-4.489,15.975,15.975,0,0,0-4.756-3.632,11.173,11.173,0,0,0-9.491.45" transform="translate(17.137 42.565)" fill="#fff"/>
              <path id="Path_5652" data-name="Path 5652" d="M73.765,194.188c-8.934-14.034-17.87-28.068-26.855-42.342A31.221,31.221,0,0,0,52.929,139.2s35.617,53.839,35.595,53.59a29.916,29.916,0,0,0-14.759,1.4" transform="translate(13.125 38.946)" fill="#acd4f7"/>
              <path id="Path_5653" data-name="Path 5653" d="M32.815,215.778a.633.633,0,0,1-.516-.264,230.738,230.738,0,0,1-15.877-25.441.636.636,0,0,1,.143-.779c2.761-2.389,5.648-4.815,8.441-7.159,16.127-13.541,32.8-27.544,35.661-43.492a.634.634,0,0,1,1.152-.239l36.1,54.465a1.34,1.34,0,0,1-1.211,1.172c-18.943-3.585-63.142,21.4-63.586,21.655a.626.626,0,0,1-.312.082M17.782,189.921A229.1,229.1,0,0,0,33,214.313c5.136-2.881,44.478-24.491,63.279-21.632L61.605,140.374c-3.667,15.763-19.985,29.466-35.783,42.732-2.658,2.233-5.4,4.538-8.041,6.815" transform="translate(4.574 38.644)" fill="#024778"/>
              <path id="Path_5654" data-name="Path 5654" d="M73.278,190.777a.634.634,0,0,1-.534-.291L47.009,150.509a.634.634,0,1,1,1.066-.686L73.81,189.8a.634.634,0,0,1-.189.877.626.626,0,0,1-.343.1" transform="translate(13.124 41.838)" fill="#024778"/>
              <path id="Path_5655" data-name="Path 5655" d="M74.383,173.393a.634.634,0,0,1-.421-1.108,11.177,11.177,0,0,0,3.7-7.844,10.974,10.974,0,0,0-3.182-8,12.142,12.142,0,0,0-3.677-2.475c-2.438-1.081-5.96-1.572-8.535.3a.634.634,0,0,1-.745-1.026c3.01-2.185,7.034-1.653,9.794-.43a13.428,13.428,0,0,1,4.057,2.735,12.263,12.263,0,0,1,3.554,8.943,12.469,12.469,0,0,1-4.123,8.751.63.63,0,0,1-.421.16" transform="translate(17.14 42.455)" fill="#024778"/>
              <path id="Path_5656" data-name="Path 5656" d="M15.526,216.931a8.591,8.591,0,0,1-2.066-.248c-3.13-.776-5.356-3.217-7.546-5.868a29.569,29.569,0,0,1-4.963-7.471,10.563,10.563,0,0,1,.133-9.074,15.694,15.694,0,0,1,4.6-4.63c5.018-3.76,10.014-7.465,15.978-11.436a.634.634,0,1,1,.7,1.056c-5.936,3.953-10.918,7.645-15.921,11.4a14.71,14.71,0,0,0-4.246,4.228,9.311,9.311,0,0,0-.068,7.983,28.593,28.593,0,0,0,4.765,7.14c2.05,2.48,4.118,4.763,6.874,5.446,3.754.929,7.524-1.3,11.064-3.663,2.209-1.474,4.216-2.862,6.157-4.2s3.957-2.732,6.175-4.213a.634.634,0,0,1,.7,1.056c-2.209,1.474-4.217,2.86-6.158,4.2s-3.956,2.732-6.174,4.213c-3.024,2.018-6.468,4.088-10.007,4.088" transform="translate(0 49.83)" fill="#024778"/>
              <path id="Path_5657" data-name="Path 5657" d="M60.629,237.709c-3.367,0-6.544-1.979-8.005-3.041a61.258,61.258,0,0,1-8.512-8.029c-.6-.641-1.2-1.281-1.8-1.915a132.064,132.064,0,0,0-21.183-18.009.635.635,0,1,1,.715-1.048,133.316,133.316,0,0,1,21.387,18.182c.607.637,1.207,1.281,1.807,1.925a60.284,60.284,0,0,0,8.331,7.868c1.77,1.286,6.3,4.072,10.126,2.136,3.426-1.732,4.161-6.649,2.53-9.886-1.462-2.9-3.929-4.154-7.345-5.888-.64-.325-1.308-.664-2-1.033l-.2-.106a95.9,95.9,0,0,1-16.552-11.386,36.39,36.39,0,0,1-4.769-5.566c-.923-1.217-1.876-2.475-2.8-3.569a.634.634,0,0,1,.968-.82c.95,1.121,1.915,2.393,2.848,3.624a35.784,35.784,0,0,0,4.57,5.359A94.629,94.629,0,0,0,57.062,217.74l.207.109c.69.365,1.351.7,1.986,1.023,3.494,1.775,6.254,3.176,7.9,6.449,1.9,3.78,1.1,9.469-3.091,11.59a7.526,7.526,0,0,1-3.439.8" transform="translate(5.834 55.202)" fill="#024778"/>
              <path id="Path_5658" data-name="Path 5658" d="M35.7,206.706a.635.635,0,0,1-.506-1.017l2.183-2.881a5.7,5.7,0,0,0,.744-1.158,3.49,3.49,0,0,0-.413-3.1,11.8,11.8,0,0,0-2.5-2.648.634.634,0,1,1,.831-.959,12.943,12.943,0,0,1,2.752,2.951,4.754,4.754,0,0,1,.5,4.254,6.84,6.84,0,0,1-.9,1.43L36.2,206.456a.633.633,0,0,1-.506.251" transform="translate(9.791 54.499)" fill="#024778"/>
              <path id="Path_5659" data-name="Path 5659" d="M6.023,196.174a.635.635,0,0,1-.376-1.145c4.377-3.216,8.967-6.25,13.644-9.019a.634.634,0,1,1,.646,1.092c-4.641,2.746-9.2,5.758-13.539,8.95a.629.629,0,0,1-.375.123" transform="translate(1.508 52.019)" fill="#024778"/>
              <path id="Path_5660" data-name="Path 5660" d="M9.052,200.2a.633.633,0,0,1-.34-1.168c4.561-2.9,9.244-5.757,13.919-8.482a.634.634,0,1,1,.639,1.1c-4.661,2.718-9.33,5.563-13.877,8.457a.639.639,0,0,1-.34.1" transform="translate(2.355 53.291)" fill="#024778"/>
              <path id="Path_5661" data-name="Path 5661" d="M12.114,204.791a.634.634,0,0,1-.366-1.152,149.426,149.426,0,0,1,13.891-8.712.634.634,0,1,1,.613,1.11,148.652,148.652,0,0,0-13.773,8.637.621.621,0,0,1-.365.116" transform="translate(3.212 54.517)" fill="#024778"/>
              <path id="Path_5662" data-name="Path 5662" d="M62.98,182.555a.211.211,0,0,1-.165-.079l-7.029-8.735a.211.211,0,0,1,.329-.265l7.03,8.735a.212.212,0,0,1-.165.344" transform="translate(15.595 48.515)" fill="#024778"/>
              <path id="Path_5663" data-name="Path 5663" d="M58.76,183.175a.216.216,0,0,1-.165-.078l-3.563-4.356a.211.211,0,0,1,.328-.267l3.564,4.356a.213.213,0,0,1-.032.3.2.2,0,0,1-.132.047" transform="translate(15.384 49.913)" fill="#024778"/>
              <path id="Path_5664" data-name="Path 5664" d="M54.769,185.064a.206.206,0,0,1-.163-.077l-2.7-3.261a.211.211,0,1,1,.325-.269l2.7,3.261a.211.211,0,0,1-.028.3.214.214,0,0,1-.134.049" transform="translate(14.51 50.749)" fill="#024778"/>
              <rect id="Rectangle_2546" data-name="Rectangle 2546" width="78" height="20" transform="translate(727.436 88)" fill="#fff"/>
              <path id="Path_5665" data-name="Path 5665" d="M50.292,186.557a.213.213,0,0,1-.166-.081l-1.988-2.526a.211.211,0,1,1,.333-.261l1.988,2.526a.212.212,0,0,1-.166.342" transform="translate(13.456 51.372)" fill="#024778"/>
              <path id="Path_5668" data-name="Path 5668" d="M607.6,132.333a39.835,39.835,0,0,1-28.809-12.559c-5.585-5.919-12.04-16.424-11.084-32.865a39.137,39.137,0,0,1,11.841-26.072A40.119,40.119,0,0,1,607.6,49.952c22.2,0,34.343,15.771,37.667,24.111,4.126,10.359,3.973,28.607-3.472,40.027A41.091,41.091,0,0,1,607.6,132.333m0-81.113c-21.177,0-37.422,15.04-38.628,35.764-.929,15.988,5.328,26.183,10.74,31.921A38.566,38.566,0,0,0,607.6,131.065,39.8,39.8,0,0,0,640.733,113.4c7-10.73,7.383-28.758,3.357-38.865C640.878,66.469,629.118,51.22,607.6,51.22" transform="translate(158.812 13.976)" fill="#024778"/>
              <path id="Path_5669" data-name="Path 5669" d="M630.846,71.889q6.794-6.06,14.14-11.457c-4.17-.553-8.237-.852-12.308-1.087,1.035-4.085,1.8-8.127,2.572-12.17a174.782,174.782,0,0,0-13.971,10.8c-.7,3.69-1.634,7.592-1.463,11.688,3.244,1.1,7.529,1.281,11.029,2.228" transform="translate(173.413 13.199)" fill="#acd4f7"/>
              <path id="Path_5670" data-name="Path 5670" d="M630.984,72.662a.612.612,0,0,1-.165-.023,48.176,48.176,0,0,0-4.971-.952,37.513,37.513,0,0,1-6.1-1.289.633.633,0,0,1-.43-.573,43.049,43.049,0,0,1,1.165-10.249c.1-.532.21-1.061.31-1.584a.632.632,0,0,1,.216-.369,174.5,174.5,0,0,1,14.02-10.833.633.633,0,0,1,.98.641c-.712,3.742-1.445,7.6-2.395,11.464,3.443.2,7.445.5,11.591,1.046a.634.634,0,0,1,.292,1.139c-4.858,3.568-9.6,7.41-14.094,11.421a.633.633,0,0,1-.422.161m-10.41-3.33a40.654,40.654,0,0,0,5.468,1.1c1.6.25,3.255.508,4.774.895,4.054-3.605,8.306-7.073,12.66-10.328-3.852-.456-7.535-.7-10.7-.883a.635.635,0,0,1-.475-.259.627.627,0,0,1-.1-.53c.9-3.555,1.609-7.128,2.275-10.615-4.125,2.887-7.793,5.828-12.479,9.737-.087.454-.178.911-.267,1.371a43.79,43.79,0,0,0-1.157,9.51" transform="translate(173.274 13.06)" fill="#024778"/>
              <path id="Path_5672" data-name="Path 5672" d="M605.667,116.529c-.552,0-1.1-.017-1.655-.054-6.739-.445-12.416-2.8-18.406-7.629a22.885,22.885,0,0,1-8.417-16.372,35.192,35.192,0,0,1,1.682-13.137,27.945,27.945,0,0,1,12.98-15.15,29.272,29.272,0,0,1,20.07-2.768c8.111,1.819,15.583,8.915,19.034,18.08a27.144,27.144,0,0,1-25.287,37.031m0-54.527a27.891,27.891,0,0,0-13.21,3.3,26.666,26.666,0,0,0-12.387,14.453,33.969,33.969,0,0,0-1.611,12.67A21.586,21.586,0,0,0,586.4,107.86c5.773,4.656,11.23,6.922,17.693,7.35a26.224,26.224,0,0,0,22.633-10.781,26.563,26.563,0,0,0,3.04-24.482c-3.3-8.776-10.42-15.562-18.126-17.29A27.412,27.412,0,0,0,605.664,62" transform="translate(161.481 16.993)" fill="#024778"/>
              <path id="Path_5674" data-name="Path 5674" d="M602.589,100.818c-.3,0-.605-.009-.909-.028a17.309,17.309,0,0,1-10.072-4.084,12.3,12.3,0,0,1-4.648-8.855,18.5,18.5,0,0,1,.923-7.04,15.124,15.124,0,0,1,7.131-8.15,16.358,16.358,0,0,1,11-1.486c4.461.979,8.57,4.792,10.464,9.714a14.732,14.732,0,0,1-1.757,13.818,15.262,15.262,0,0,1-12.136,6.111m0-28.743a15,15,0,0,0-6.979,1.706,13.841,13.841,0,0,0-6.531,7.455,17.256,17.256,0,0,0-.851,6.563,10.992,10.992,0,0,0,4.167,7.912,16.116,16.116,0,0,0,9.368,3.814A13.945,13.945,0,0,0,613.7,93.961a13.45,13.45,0,0,0,1.6-12.617c-1.746-4.534-5.494-8.04-9.551-8.929a14.711,14.711,0,0,0-3.16-.339" transform="translate(164.219 19.811)" fill="#024778"/>
              <path id="Path_5675" data-name="Path 5675" d="M599.819,90.664a.634.634,0,0,1-.422-1.107c15.011-13.366,30.82-26.2,46.99-38.151a.634.634,0,0,1,.754,1.02C631,64.353,615.222,77.163,600.24,90.5a.63.63,0,0,1-.421.16" transform="translate(167.646 14.348)" fill="#024778"/>
              <path id="Path_5676" data-name="Path 5676" d="M585.414,97.65a.21.21,0,0,1-.188-.116,104.053,104.053,0,0,1-5.478-12.922.211.211,0,0,1,.4-.138,103.858,103.858,0,0,0,5.455,12.87.21.21,0,0,1-.092.284.216.216,0,0,1-.1.023" transform="translate(162.205 23.595)" fill="#024778"/>
              <path id="Path_5677" data-name="Path 5677" d="M592.582,106.912a.212.212,0,0,1-.187-.113,189.876,189.876,0,0,1-12.167-28.452.212.212,0,0,1,.4-.133,189.455,189.455,0,0,0,12.139,28.39.211.211,0,0,1-.187.308" transform="translate(162.339 21.843)" fill="#024778"/>
              <path id="Path_5678" data-name="Path 5678" d="M595.8,108.791a.211.211,0,0,1-.193-.125c-4.893-11.006-9.492-22.313-13.671-33.607a.212.212,0,0,1,.4-.147c4.175,11.286,8.77,22.584,13.66,33.583a.212.212,0,0,1-.107.279.224.224,0,0,1-.086.018" transform="translate(162.816 20.921)" fill="#024778"/>
              <path id="Path_5679" data-name="Path 5679" d="M587.131,79.845a.21.21,0,0,1-.192-.123c-1.273-2.782-2.447-5.652-3.489-8.529a.211.211,0,0,1,.127-.271.213.213,0,0,1,.27.127c1.039,2.867,2.208,5.726,3.476,8.5a.211.211,0,0,1-.1.28.22.22,0,0,1-.088.019" transform="translate(163.24 19.84)" fill="#024778"/>
              <path id="Path_5680" data-name="Path 5680" d="M589.068,76.694a.21.21,0,0,1-.195-.129l-3.285-7.823a.211.211,0,1,1,.39-.163l3.284,7.822a.211.211,0,0,1-.195.293" transform="translate(163.837 19.151)" fill="#024778"/>
              <path id="Path_5681" data-name="Path 5681" d="M591,73.473a.21.21,0,0,1-.195-.129l-2.842-6.807a.211.211,0,1,1,.389-.163l2.842,6.806a.211.211,0,0,1-.114.276.2.2,0,0,1-.081.017" transform="translate(164.501 18.534)" fill="#024778"/>
              <path id="Path_5682" data-name="Path 5682" d="M594.191,71.7a.211.211,0,0,1-.193-.127c-.978-2.241-1.858-4.553-2.617-6.876a.211.211,0,1,1,.4-.131c.755,2.309,1.63,4.61,2.6,6.838a.21.21,0,0,1-.109.278.2.2,0,0,1-.084.018" transform="translate(165.459 18.025)" fill="#024778"/>
              <path id="Path_5683" data-name="Path 5683" d="M597.224,70.541a.209.209,0,0,1-.194-.129,55.784,55.784,0,0,1-2.324-6.684.211.211,0,1,1,.407-.114,55.421,55.421,0,0,0,2.306,6.634.211.211,0,0,1-.194.293" transform="translate(166.39 17.755)" fill="#024778"/>
              <path id="Path_5684" data-name="Path 5684" d="M600.617,70.795a.21.21,0,0,1-.2-.152l-2.144-7.334a.211.211,0,0,1,.406-.118l2.142,7.334a.209.209,0,0,1-.143.261.189.189,0,0,1-.059.009" transform="translate(167.388 17.637)" fill="#024778"/>
              <path id="Path_5685" data-name="Path 5685" d="M604.535,72.818a.211.211,0,0,1-.2-.147l-2.805-8.782a.211.211,0,0,1,.4-.128l2.8,8.782a.211.211,0,0,1-.137.265.187.187,0,0,1-.064.01" transform="translate(168.299 17.798)" fill="#024778"/>
              <path id="Path_5686" data-name="Path 5686" d="M609.1,74.764a.209.209,0,0,1-.2-.137l-3.789-10.08a.211.211,0,1,1,.394-.148l3.789,10.08a.212.212,0,0,1-.123.273.216.216,0,0,1-.074.013" transform="translate(169.3 17.98)" fill="#024778"/>
              <path id="Path_5687" data-name="Path 5687" d="M597.662,104.713a.213.213,0,0,1-.186-.107,70.956,70.956,0,0,1-4.432-9.615.212.212,0,1,1,.4-.147,70.547,70.547,0,0,0,4.405,9.557.209.209,0,0,1-.184.312" transform="translate(165.924 26.497)" fill="#024778"/>
              <path id="Path_5688" data-name="Path 5688" d="M600.534,104.344a.208.208,0,0,1-.179-.1,46.107,46.107,0,0,1-4.194-8.616.211.211,0,0,1,.4-.145,45.761,45.761,0,0,0,4.156,8.536.212.212,0,0,1-.068.292.208.208,0,0,1-.111.032" transform="translate(166.796 26.677)" fill="#024778"/>
              <path id="Path_5689" data-name="Path 5689" d="M603.271,103.762a.215.215,0,0,1-.189-.115c-1.28-2.554-2.471-5.2-3.542-7.852a.212.212,0,0,1,.393-.157c1.066,2.644,2.254,5.275,3.528,7.818a.213.213,0,0,1-.189.306" transform="translate(167.741 26.722)" fill="#024778"/>
              <path id="Path_5690" data-name="Path 5690" d="M610.312,70.446a.211.211,0,0,1-.2-.141l-1.488-4.226a.211.211,0,1,1,.4-.141l1.49,4.226a.213.213,0,0,1-.129.27.225.225,0,0,1-.07.012" transform="translate(170.283 18.41)" fill="#024778"/>
              <path id="Path_5691" data-name="Path 5691" d="M619.609,91.063a.21.21,0,0,1-.192-.122c-2.633-5.686-5.151-11.508-7.485-17.309a.211.211,0,0,1,.116-.276.214.214,0,0,1,.275.118c2.332,5.795,4.848,11.612,7.478,17.291a.21.21,0,0,1-.1.279.2.2,0,0,1-.088.019" transform="translate(171.208 20.52)" fill="#024778"/>
              <path id="Path_5692" data-name="Path 5692" d="M619.534,83.3a.21.21,0,0,1-.186-.111c-1.962-3.659-3.792-7.447-5.437-11.258a.211.211,0,1,1,.388-.168c1.641,3.8,3.464,7.578,5.421,11.226a.211.211,0,0,1-.087.285.2.2,0,0,1-.1.026" transform="translate(171.761 20.043)" fill="#024778"/>
              <path id="Path_5693" data-name="Path 5693" d="M618.653,95.767a.213.213,0,0,1-.195-.127L609.8,75.7a.211.211,0,0,1,.388-.168l8.655,19.939a.212.212,0,0,1-.11.278.2.2,0,0,1-.084.018" transform="translate(170.613 21.097)" fill="#024778"/>
              <path id="Path_5694" data-name="Path 5694" d="M616.119,96.365a.212.212,0,0,1-.192-.123l-4.354-9.495a.211.211,0,1,1,.384-.175l4.354,9.493a.211.211,0,0,1-.1.28.215.215,0,0,1-.088.019" transform="translate(171.107 24.187)" fill="#024778"/>
              <path id="Path_5695" data-name="Path 5695" d="M613.833,98.223a.213.213,0,0,1-.192-.123l-3.76-8.133a.211.211,0,1,1,.384-.177l3.76,8.133a.212.212,0,0,1-.1.28.216.216,0,0,1-.088.019" transform="translate(170.633 25.088)" fill="#024778"/>
              <path id="Path_5696" data-name="Path 5696" d="M611.474,99.71a.213.213,0,0,1-.192-.123l-3.171-6.865a.212.212,0,1,1,.384-.178l3.171,6.866a.212.212,0,0,1-.1.28.215.215,0,0,1-.088.019" transform="translate(170.138 25.859)" fill="#024778"/>
              <path id="Path_5697" data-name="Path 5697" d="M609.057,101.357a.212.212,0,0,1-.192-.122l-3.194-6.86a.211.211,0,0,1,.383-.178l3.2,6.858a.212.212,0,0,1-.1.28.208.208,0,0,1-.09.02" transform="translate(169.455 26.321)" fill="#024778"/>
              <path id="Path_5698" data-name="Path 5698" d="M606.142,103.228a.214.214,0,0,1-.193-.123l-3.237-7.016a.211.211,0,0,1,.384-.177l3.237,7.016a.211.211,0,0,1-.191.3" transform="translate(168.627 26.801)" fill="#024778"/>
              <path id="Path_5699" data-name="Path 5699" d="M552.015,59.884a.636.636,0,0,1-.174-1.247,5.507,5.507,0,0,0,3.132-2.4c.088-.145.17-.293.247-.447a.634.634,0,0,1,1.133.572q-.136.267-.292.53a6.817,6.817,0,0,1-3.871,2.969.631.631,0,0,1-.174.027m-4.6-1.342a.637.637,0,0,1-.463-.2,10.687,10.687,0,0,1-.86-1.066,15.668,15.668,0,0,1-1.862-3.464.634.634,0,1,1,1.182-.457,14.429,14.429,0,0,0,1.711,3.183,9.313,9.313,0,0,0,.756.939.635.635,0,0,1-.465,1.067m9.341-6.762a.635.635,0,0,1-.633-.627,20.781,20.781,0,0,0-.15-2.159c-.106-.911-.261-1.833-.457-2.74a.634.634,0,0,1,1.239-.267c.2.946.366,1.907.477,2.86a22.2,22.2,0,0,1,.159,2.29.634.634,0,0,1-.626.644Zm49.08-1.066a.632.632,0,0,1-.572-.361l-.032-.064a.634.634,0,1,1,1.133-.571l.044.088a.634.634,0,0,1-.3.845.625.625,0,0,1-.275.063M543.75,49.276a.635.635,0,0,1-.632-.593c-.024-.378-.036-.759-.036-1.133a17.809,17.809,0,0,1,.475-4.09.634.634,0,1,1,1.234.292,16.579,16.579,0,0,0-.44,3.8c0,.349.01.7.033,1.052a.635.635,0,0,1-.592.673h-.041m59.469-3A.637.637,0,0,1,602.7,46a36.226,36.226,0,0,0-3.115-3.884.634.634,0,1,1,.932-.86,37.767,37.767,0,0,1,3.226,4.021.635.635,0,0,1-.16.883.628.628,0,0,1-.361.111M554.65,41.914a.634.634,0,0,1-.589-.4,32.1,32.1,0,0,0-2.205-4.451.634.634,0,0,1,1.089-.648,33.171,33.171,0,0,1,2.293,4.629.633.633,0,0,1-.353.823.607.607,0,0,1-.235.046m-8.57-2.352a.622.622,0,0,1-.33-.093.635.635,0,0,1-.211-.872,15.654,15.654,0,0,1,1.247-1.752,18.037,18.037,0,0,1,2.185-2.22.635.635,0,0,1,.825.965,16.668,16.668,0,0,0-2.031,2.062,14.232,14.232,0,0,0-1.143,1.607.633.633,0,0,1-.541.3m50.3-.733a.636.636,0,0,1-.407-.146,40.2,40.2,0,0,0-4.022-2.955.633.633,0,1,1,.686-1.065,41.77,41.77,0,0,1,4.15,3.046.634.634,0,0,1-.407,1.12m-8.508-5.479a.622.622,0,0,1-.276-.063,42.455,42.455,0,0,0-4.618-1.906.634.634,0,1,1,.413-1.2,43.383,43.383,0,0,1,4.757,1.963.633.633,0,0,1-.276,1.2m-38.376-.127A.632.632,0,0,1,549,32.99a35.755,35.755,0,0,0-3.409-3.631.634.634,0,1,1,.861-.93,37.19,37.19,0,0,1,3.531,3.76.632.632,0,0,1-.091.891.626.626,0,0,1-.4.143m4.1-.288a.634.634,0,0,1-.294-1.2,32.366,32.366,0,0,1,3.82-1.671c.315-.115.63-.223.946-.329a.634.634,0,1,1,.4,1.2c-.3.1-.608.207-.911.317a30.748,30.748,0,0,0-3.669,1.6.63.63,0,0,1-.292.072m24.7-2.88a.532.532,0,0,1-.133-.015,40.817,40.817,0,0,0-4.935-.746.634.634,0,1,1,.111-1.263,42.073,42.073,0,0,1,5.09.769.635.635,0,0,1-.133,1.255m-15.118-.329a.634.634,0,0,1-.111-1.258,37.942,37.942,0,0,1,5.124-.561.634.634,0,1,1,.052,1.267,36.872,36.872,0,0,0-4.953.54.56.56,0,0,1-.113.012m-21.1-3.382a.634.634,0,0,1-.363-.115,36.253,36.253,0,0,0-4.267-2.571.633.633,0,1,1,.577-1.127,37.5,37.5,0,0,1,4.417,2.661.634.634,0,0,1-.363,1.153m-9-4.6a.674.674,0,0,1-.206-.033,32.57,32.57,0,0,0-4.809-1.254.634.634,0,1,1,.225-1.248,33.918,33.918,0,0,1,5,1.3.634.634,0,0,1-.2,1.234m-15-1.424a.633.633,0,0,1-.1-1.259,30,30,0,0,1,5.163-.358.634.634,0,0,1-.009,1.268h-.011a28.775,28.775,0,0,0-4.945.343.653.653,0,0,1-.1.006" transform="translate(144.775 5.232)" fill="#024778"/>
              <path id="Path_5700" data-name="Path 5700" d="M405.652,240.651a107.662,107.662,0,0,1,6.235-16.642c.358-.71.991-1.533,1.771-1.323a1.652,1.652,0,0,1,.852.728c1.276,1.837,4.292,11.609,6.167,17.394q8,.818,15.908,2.3a2.443,2.443,0,0,1,1.712.842c.627.991-.438,2.158-1.4,2.837-3.9,2.753-7.968,5.287-12.4,8.449q2.511,7.533,5.024,15.068a2.975,2.975,0,0,1,0,2.709,2.061,2.061,0,0,1-1.94.654,5.85,5.85,0,0,1-1.98-.808c-4.575-2.585-8.92-5.562-13.355-8.489-7.162,6.363-14.542,12.181-16.674,10.494-1.917-1.517,2.818-13.5,5.648-19.541-4.665-3.272-8.649-5.341-13.151-9.319a1.984,1.984,0,0,1-.546-2.793c.829-1.129,3.541-1.355,5.44-1.595,4.431-.558,7.712-.408,12.681-.969" transform="translate(108.327 62.296)" fill="#acd4f7"/>
              <path id="Path_5701" data-name="Path 5701" d="M396.669,275.928a2.1,2.1,0,0,1-1.343-.424c-.759-.6-1.349-2.14.834-8.769a113.065,113.065,0,0,1,4.408-11.055c-1.357-.938-2.665-1.785-3.934-2.608a69.1,69.1,0,0,1-8.838-6.451,2.6,2.6,0,0,1-.637-3.642c.918-1.25,3.274-1.534,5.352-1.785l.52-.064c2.282-.287,4.236-.388,6.3-.493,1.838-.095,3.736-.192,5.969-.431a103.446,103.446,0,0,1,6.157-16.344c.655-1.3,1.566-1.9,2.5-1.65a2.25,2.25,0,0,1,1.209.979c1.145,1.65,3.491,8.965,5.375,14.843.262.815.512,1.6.747,2.324,5.193.543,10.423,1.305,15.548,2.268a3.058,3.058,0,0,1,2.132,1.126c.7,1.1.1,2.519-1.57,3.695-1.8,1.268-3.6,2.473-5.513,3.746-2.091,1.394-4.25,2.833-6.5,4.429l4.876,14.623c.238.714.733,2.2-.095,3.293a2.65,2.65,0,0,1-2.535.9,6.47,6.47,0,0,1-2.2-.883c-3.837-2.168-7.578-4.653-11.2-7.055q-.893-.6-1.789-1.188c-8.223,7.276-13.155,10.618-15.782,10.618m16.891-52.5c-.316,0-.706.488-.968,1.006A103.423,103.423,0,0,0,406.4,240.97a.633.633,0,0,1-.536.449c-2.456.278-4.493.381-6.464.482-2.044.1-3.974.2-6.21.485l-.526.065c-1.55.187-3.889.47-4.483,1.277-.206.28-.573,1.03.456,1.94a68.013,68.013,0,0,0,8.689,6.338c1.414.916,2.877,1.865,4.408,2.938a.634.634,0,0,1,.21.788,112.078,112.078,0,0,0-4.577,11.4c-2.162,6.563-1.29,7.347-1.252,7.378.8.636,3.935.123,15.859-10.473a.635.635,0,0,1,.77-.055q1.1.728,2.2,1.458c3.6,2.391,7.32,4.863,11.119,7.009a5.28,5.28,0,0,0,1.76.732,1.465,1.465,0,0,0,1.342-.41c.372-.493.173-1.313-.1-2.127l-5.024-15.068a.632.632,0,0,1,.233-.715c2.4-1.716,4.7-3.246,6.913-4.725,1.9-1.268,3.7-2.467,5.486-3.727.594-.419,1.614-1.372,1.229-1.981-.209-.329-.777-.461-1.293-.557-5.227-.982-10.562-1.753-15.857-2.295a.638.638,0,0,1-.539-.436c-.27-.836-.564-1.755-.874-2.72-1.761-5.493-4.172-13.013-5.21-14.508-.137-.2-.317-.429-.5-.477a.294.294,0,0,0-.074-.009m-7.768,17.363h0Z" transform="translate(108.188 62.157)" fill="#024778"/>
              <path id="Path_5702" data-name="Path 5702" d="M137.188,210.944a.589.589,0,0,1-.148-.018,6.333,6.333,0,0,1-3.179-2.327c-.32-.385-.631-.786-.927-1.189a.634.634,0,1,1,1.021-.75c.282.383.578.763.882,1.129a5.15,5.15,0,0,0,2.5,1.9.634.634,0,0,1-.148,1.25m3.955-2.4a.636.636,0,0,1-.576-.9,9.543,9.543,0,0,0,.758-3.8c0-.285-.012-.568-.036-.842a.634.634,0,0,1,1.263-.109c.027.308.041.628.041.951a10.691,10.691,0,0,1-.872,4.328.634.634,0,0,1-.578.372M130.878,203.3a.63.63,0,0,1-.576-.369,28.387,28.387,0,0,1-1.72-4.886.634.634,0,0,1,1.23-.312,27.093,27.093,0,0,0,1.641,4.669.632.632,0,0,1-.575.9m9.948-4.67a.633.633,0,0,1-.607-.45,36.441,36.441,0,0,0-1.771-4.655A.634.634,0,1,1,139.6,193a37.632,37.632,0,0,1,1.833,4.818.635.635,0,0,1-.422.791.662.662,0,0,1-.184.027m-12.472-5.1a.634.634,0,0,1-.631-.577c-.1-1.09-.148-2.218-.148-3.349,0-.6.014-1.2.041-1.8a.634.634,0,0,1,1.267.056c-.026.582-.04,1.17-.04,1.747,0,1.094.049,2.182.143,3.235a.636.636,0,0,1-.575.689l-.058,0m8.244-4.085a.63.63,0,0,1-.535-.294,38.154,38.154,0,0,0-2.943-4.024.634.634,0,0,1,.973-.814,39.4,39.4,0,0,1,3.041,4.158.634.634,0,0,1-.2.875.621.621,0,0,1-.339.1m-7.823-6.024a.562.562,0,0,1-.1-.009.634.634,0,0,1-.525-.727q.173-1.067.4-2.147c-.893-.751-1.821-1.46-2.769-2.114a.633.633,0,1,1,.719-1.043c.8.554,1.593,1.145,2.359,1.769q.177-.743.376-1.485a.634.634,0,0,1,1.225.33q-.278,1.035-.511,2.073.294.259.584.523a.634.634,0,1,1-.855.936l-.028-.024q-.134.695-.244,1.385a.635.635,0,0,1-.626.534m84.689-6.21a.651.651,0,0,1-.156-.019,9.265,9.265,0,0,1-1.039-.329,13.479,13.479,0,0,1-3.654-2.146.634.634,0,1,1,.8-.985,12.186,12.186,0,0,0,3.31,1.948,7.847,7.847,0,0,0,.9.283.634.634,0,0,1-.155,1.249m5.013-.093a.634.634,0,0,1-.178-1.243,6.63,6.63,0,0,0,3.724-2.581.634.634,0,1,1,1.058.7,7.885,7.885,0,0,1-4.427,3.1.616.616,0,0,1-.178.026m-130.9-.544a.634.634,0,0,1-.3-1.191,36.209,36.209,0,0,1,4.7-2.127.634.634,0,0,1,.44,1.189,35.029,35.029,0,0,0-4.536,2.053.627.627,0,0,1-.3.077m34.2-.614a.627.627,0,0,1-.284-.068c-.115-.058-.23-.114-.347-.17A34.968,34.968,0,0,0,116.885,174a.634.634,0,1,1,.4-1.2,36.373,36.373,0,0,1,4.41,1.781c.122.059.243.118.363.178a.635.635,0,0,1-.284,1.2m9.62-2.324a.611.611,0,0,1-.221-.041.632.632,0,0,1-.372-.815c.562-1.505,1.2-3,1.888-4.456l.125-.261a.634.634,0,1,1,1.142.552l-.122.255c-.676,1.418-1.3,2.883-1.845,4.355a.633.633,0,0,1-.594.412m-34.336-.577a.635.635,0,0,1-.137-1.254,39.122,39.122,0,0,1,5.095-.772.634.634,0,0,1,.106,1.263,37.428,37.428,0,0,0-4.927.747.632.632,0,0,1-.137.015m15.116-.275a.7.7,0,0,1-.115-.01,37.617,37.617,0,0,0-4.952-.568.634.634,0,0,1,.061-1.267,39.076,39.076,0,0,1,5.119.587.634.634,0,0,1-.114,1.258m93.382-1.616a.635.635,0,0,1-.508-.253c-.653-.873-1.308-1.845-2-2.976q-.409-.664-.8-1.339a.634.634,0,0,1,1.1-.639q.386.662.786,1.313c.673,1.1,1.307,2.039,1.936,2.878a.635.635,0,0,1-.128.888.627.627,0,0,1-.379.127m18.018-1.764a.633.633,0,0,1-.632-.6c-.02-.329-.054-.686-.1-1.088a31.318,31.318,0,0,0-.677-3.8.634.634,0,0,1,1.232-.3,32.626,32.626,0,0,1,.705,3.958c.049.425.083.8.1,1.153a.634.634,0,0,1-.594.673h-.04m-87.813-4.909a.635.635,0,0,1-.548-.953c.854-1.467,1.776-2.922,2.744-4.323a.634.634,0,0,1,1.043.721c-.948,1.374-1.854,2.8-2.691,4.24a.632.632,0,0,1-.548.316m64.656-2.06a.636.636,0,0,1-.572-.358c-.735-1.527-1.421-3.107-2.04-4.7a.634.634,0,1,1,1.181-.461c.608,1.559,1.281,3.109,2,4.606a.633.633,0,0,1-.3.846.625.625,0,0,1-.275.063m20.793-2.846a.635.635,0,0,1-.586-.392,34.61,34.61,0,0,0-2.233-4.445.634.634,0,1,1,1.089-.649,35.507,35.507,0,0,1,2.315,4.609.633.633,0,0,1-.343.828.623.623,0,0,1-.242.049m-79.694-3.438a.633.633,0,0,1-.493-1.033c1.074-1.327,2.209-2.622,3.375-3.852a.634.634,0,1,1,.92.872c-1.143,1.207-2.256,2.478-3.31,3.779a.635.635,0,0,1-.493.234m55.214-3.156a.634.634,0,0,1-.605-.449c-.5-1.619-.941-3.283-1.318-4.945a.634.634,0,1,1,1.236-.282c.371,1.632.806,3.266,1.294,4.856a.634.634,0,0,1-.607.82m19.317-2.1a.633.633,0,0,1-.5-.238,39.744,39.744,0,0,0-3.354-3.7.634.634,0,0,1,.883-.91,40.889,40.889,0,0,1,3.462,3.815.633.633,0,0,1-.5,1.029m-67.556-2.1a.634.634,0,0,1-.425-1.106c1.273-1.145,2.6-2.245,3.947-3.269a.634.634,0,1,1,.768,1.01c-1.319,1-2.62,2.08-3.866,3.2a.633.633,0,0,1-.424.163m60.3-4.964a.635.635,0,0,1-.384-.131,44.138,44.138,0,0,0-4.141-2.8.634.634,0,0,1,.649-1.089,45.047,45.047,0,0,1,4.262,2.882.635.635,0,0,1-.385,1.139m-14.321-.718a.634.634,0,0,1-.626-.538c-.257-1.679-.458-3.389-.6-5.082a.634.634,0,0,1,1.264-.1c.134,1.664.331,3.343.584,4.992a.635.635,0,0,1-.627.729m-37.911-.448a.634.634,0,0,1-.339-1.17c1.453-.918,2.951-1.773,4.456-2.54a.634.634,0,0,1,.576,1.129c-1.469.751-2.935,1.587-4.355,2.484a.629.629,0,0,1-.338.1m43.536-4.025a.631.631,0,0,1-.261-.056,44.505,44.505,0,0,0-4.662-1.8.634.634,0,0,1,.389-1.207,45.71,45.71,0,0,1,4.8,1.856.635.635,0,0,1-.262,1.212m-34.51-.573a.634.634,0,0,1-.233-1.223,50.2,50.2,0,0,1,4.866-1.638.634.634,0,1,1,.342,1.221,49.155,49.155,0,0,0-4.742,1.6.647.647,0,0,1-.233.044m24.875-2.535a.69.69,0,0,1-.124-.012,41.308,41.308,0,0,0-4.945-.68.634.634,0,0,1,.095-1.264,42.774,42.774,0,0,1,5.1.7.634.634,0,0,1-.123,1.255m-15.128-.187a.634.634,0,0,1-.1-1.259c1.509-.253,3.041-.434,4.553-.536.184-.012.37-.024.555-.033a.634.634,0,0,1,.067,1.267c-.179.009-.358.019-.536.032-1.472.1-2.961.274-4.429.521a.758.758,0,0,1-.106.009m18.318-2.334a.635.635,0,0,1-.633-.628q0-.369,0-.737c0-1.455.045-2.928.133-4.377a.634.634,0,0,1,1.266.077c-.087,1.423-.131,2.871-.131,4.3,0,.242,0,.484,0,.724a.636.636,0,0,1-.628.641Zm.617-10.118a.66.66,0,0,1-.084-.006.633.633,0,0,1-.544-.712c.224-1.688.512-3.386.856-5.045a.635.635,0,0,1,1.243.257c-.339,1.63-.622,3.3-.842,4.954a.634.634,0,0,1-.628.552m2.062-9.923a.637.637,0,0,1-.61-.809c.47-1.642,1-3.279,1.591-4.866a.634.634,0,0,1,1.189.439c-.575,1.557-1.1,3.164-1.56,4.775a.636.636,0,0,1-.609.461m3.513-9.506a.636.636,0,0,1-.576-.9c.627-1.364,1.308-2.717,2.022-4.022.1-.18.2-.362.3-.543a.634.634,0,1,1,1.107.618q-.148.267-.294.534c-.7,1.28-1.367,2.606-1.982,3.943a.633.633,0,0,1-.576.37m4.95-8.843a.625.625,0,0,1-.352-.107.633.633,0,0,1-.175-.879c.942-1.408,1.953-2.8,3.007-4.143a.634.634,0,1,1,1,.783c-1.034,1.317-2.027,2.684-2.95,4.065a.631.631,0,0,1-.527.282m6.261-7.969a.634.634,0,0,1-.467-1.062c1.143-1.249,2.351-2.475,3.591-3.646a.634.634,0,1,1,.87.923c-1.217,1.149-2.4,2.354-3.526,3.58a.638.638,0,0,1-.468.206m7.373-6.957a.634.634,0,0,1-.4-1.126c1.316-1.071,2.688-2.112,4.079-3.089a.634.634,0,0,1,.729,1.038c-1.367.96-2.714,1.981-4.007,3.034a.622.622,0,0,1-.4.143m8.292-5.831a.634.634,0,0,1-.328-1.177c1.455-.875,2.96-1.711,4.474-2.482a.634.634,0,0,1,.576,1.129c-1.488.758-2.967,1.579-4.4,2.439a.633.633,0,0,1-.326.091m9.033-4.6a.634.634,0,0,1-.247-1.218c1.569-.663,3.178-1.276,4.783-1.821a.634.634,0,0,1,.407,1.2c-1.575.535-3.155,1.136-4.7,1.788a.644.644,0,0,1-.246.05m9.6-3.258a.635.635,0,0,1-.16-1.249c1.65-.427,3.331-.8,5-1.1a.634.634,0,0,1,.227,1.248c-1.637.3-3.288.66-4.907,1.08a.616.616,0,0,1-.159.022m9.972-1.8a.634.634,0,0,1-.064-1.264c1.7-.174,3.418-.282,5.11-.321a.634.634,0,1,1,.029,1.268c-1.659.037-3.344.143-5.01.314a.558.558,0,0,1-.065,0" transform="translate(24.326 17.519)" fill="#024778"/>
              <path id="Path_5704" data-name="Path 5704" d="M403.251,168.13h-.013L262.754,165.4a.636.636,0,0,1-.622-.653c.028-.948,2.746-95.449,1.011-144.333a.632.632,0,0,1,.633-.657c29.577,0,60.69.4,90.778.791,16.493.214,33.547.434,50.246.587a.636.636,0,0,1,.628.653c-1.385,46.94-1.542,144.723-1.545,145.7a.634.634,0,0,1-.634.633m-139.832-3.981,139.2,2.7c.017-8.571.216-99.272,1.524-144.447-16.494-.152-33.322-.37-49.6-.581-29.861-.386-60.731-.786-90.1-.791,1.616,46.972-.779,134.74-1.015,143.119" transform="translate(73.342 5.529)" fill="#024778"/>
              <path id="Path_5705" data-name="Path 5705" d="M343.744,55.948c4.543,8.317-1.171,21.165,3.545,28.009,2.569,3.727,6.441,6.227,9.293,9.717s4.534,8.878,1.963,12.785a19.3,19.3,0,0,0-2,2.923c-1.241,2.951,1.056,5.946,2.6,8.636,8.154,14.236-7.781,22.853-23.345,18.25-6.958-2.059-9.616-3.491-14.835-8.651-5.154-5.1-8.063-12.368-8.991-19.825s.006-15.119,1.691-22.523c1.939-8.526,5.109-17.209,11.375-23.133s11.761-12.079,18.712-6.188" transform="translate(87.183 14.986)" fill="#acd4f7"/>
              <path id="Path_5706" data-name="Path 5706" d="M344.334,138.272a30.365,30.365,0,0,1-8.582-1.253c-6.847-2.025-9.66-3.426-15.1-8.808-4.9-4.845-8.156-12.017-9.174-20.2-.825-6.64-.269-14.079,1.7-22.742,2.476-10.887,6.148-18.339,11.558-23.453.421-.4.838-.8,1.252-1.191,5.856-5.6,11.388-10.883,18.3-5.019a.637.637,0,0,1,.147.179c2.347,4.3,2.063,9.648,1.788,14.824-.269,5.076-.523,9.87,1.723,13.131a33.468,33.468,0,0,0,5.013,5.365,43.364,43.364,0,0,1,4.249,4.31c2.909,3.562,4.777,9.316,2,13.535-.251.381-.532.737-.8,1.081a7.765,7.765,0,0,0-1.145,1.738c-.942,2.242.49,4.619,1.875,6.917.235.392.468.778.687,1.158,3.059,5.342,3.046,10.43-.036,14.329-3.1,3.92-8.967,6.1-15.456,6.1m-6.115-83.908c-3.843,0-7.413,3.411-11.356,7.18q-.624.6-1.257,1.2c-5.219,4.934-8.776,12.182-11.193,22.814-1.936,8.517-2.485,15.812-1.679,22.3.983,7.9,4.111,14.808,8.808,19.453,5.286,5.228,7.855,6.509,14.569,8.5,9.012,2.666,18.552.806,22.684-4.417,2.778-3.514,2.754-7.978-.07-12.911-.214-.372-.442-.751-.673-1.135-1.477-2.45-3.15-5.227-1.958-8.061a8.886,8.886,0,0,1,1.321-2.036c.266-.337.518-.654.74-.991,2.424-3.685.7-8.82-1.926-12.035a42.158,42.158,0,0,0-4.126-4.182,34.384,34.384,0,0,1-5.2-5.576c-2.492-3.615-2.226-8.619-1.944-13.918.262-4.955.535-10.077-1.579-14.044a8,8,0,0,0-5.163-2.135" transform="translate(87.045 14.842)" fill="#024778"/>
              <path id="Path_5707" data-name="Path 5707" d="M302.775,58.7c-4.545,8.317,1.171,21.165-3.545,28.009-2.569,3.727-6.441,6.227-9.293,9.717s-4.536,8.878-1.964,12.785a19.219,19.219,0,0,1,2.005,2.923c1.241,2.951-1.056,5.946-2.6,8.636-8.154,14.236,7.781,22.853,23.343,18.25,6.959-2.058,9.618-3.491,14.837-8.651,5.154-5.1,8.063-12.368,8.989-19.825s-.005-15.119-1.689-22.523c-1.939-8.526-5.109-17.209-11.375-23.133S309.725,52.81,302.775,58.7" transform="translate(79.789 15.756)" fill="#acd4f7"/>
              <path id="Path_5708" data-name="Path 5708" d="M302.463,141.026c-6.491,0-12.356-2.177-15.459-6.1-3.08-3.9-3.095-8.987-.036-14.327.22-.383.453-.769.689-1.161,1.385-2.3,2.816-4.675,1.874-6.915a7.791,7.791,0,0,0-1.145-1.741c-.273-.342-.552-.7-.8-1.079-2.775-4.219-.906-9.973,2-13.535a43.086,43.086,0,0,1,4.248-4.312,33.359,33.359,0,0,0,5.014-5.364c2.245-3.261,1.991-8.055,1.721-13.133-.275-5.174-.558-10.525,1.788-14.823a.632.632,0,0,1,.147-.178c6.917-5.865,12.45-.578,18.3,5.018q.622.6,1.253,1.193c5.41,5.114,9.081,12.566,11.558,23.452,1.972,8.663,2.526,16.1,1.7,22.741-1.019,8.183-4.275,15.355-9.174,20.2-5.444,5.383-8.256,6.784-15.1,8.809a30.361,30.361,0,0,1-8.58,1.253m.951-81.775c-2.114,3.967-1.843,9.09-1.579,14.046.282,5.3.546,10.3-1.945,13.918a34.271,34.271,0,0,1-5.2,5.576,42.165,42.165,0,0,0-4.126,4.182c-2.626,3.214-4.349,8.351-1.926,12.035.221.334.475.654.74.991a8.886,8.886,0,0,1,1.321,2.036c1.191,2.832-.482,5.609-1.958,8.061-.229.383-.459.761-.673,1.134-2.824,4.932-2.849,9.4-.069,12.911,4.132,5.224,13.671,7.082,22.684,4.417,6.712-1.986,9.284-3.266,14.568-8.5,4.7-4.643,7.825-11.551,8.809-19.452.806-6.492.256-13.787-1.68-22.3-2.418-10.63-5.975-17.879-11.193-22.812q-.632-.6-1.257-1.2c-5.639-5.388-10.511-10.046-16.517-5.045" transform="translate(79.652 15.612)" fill="#024778"/>
              <path id="Path_5709" data-name="Path 5709" d="M368.3,136.739c0-27.594-20.5-35.24-38.392-35.5-26.279-.38-44.732,14.03-43.033,35.155,28.155.407,55.417.259,81.425.346" transform="translate(80.233 28.323)" fill="#fff"/>
              <path id="Path_5710" data-name="Path 5710" d="M368.434,137.512h0c-7.78-.027-15.5-.032-23.667-.037-18.7-.012-38.029-.024-57.766-.31a.632.632,0,0,1-.622-.582,29.375,29.375,0,0,1,7.867-23.043c7.817-8.348,20.872-13.008,35.807-12.8,7.386.107,17.939,1.517,26.273,7.622,8.457,6.2,12.744,15.789,12.744,28.511a.636.636,0,0,1-.633.635M287.6,135.906c19.527.278,38.659.289,57.167.3,7.947.005,15.465.01,23.03.035-.36-30.39-26.487-34.067-37.763-34.229-14.591-.211-27.29,4.306-34.863,12.395a28.076,28.076,0,0,0-7.571,21.5" transform="translate(80.094 28.185)" fill="#024778"/>
              <path id="Path_5711" data-name="Path 5711" d="M311.7,107.576a143.364,143.364,0,0,0,2.951-19.162,27.571,27.571,0,0,1,8.273-.914,4.637,4.637,0,0,1,3.409,1.177,4.472,4.472,0,0,1,.8,2.068l3.064,15.039a1.928,1.928,0,0,1-1.061,2.446,14.926,14.926,0,0,1-17.437-.654" transform="translate(87.21 24.475)" fill="#fff"/>
              <path id="Path_5712" data-name="Path 5712" d="M321.019,111.52a15.25,15.25,0,0,1-9.582-3.313.632.632,0,0,1-.218-.641,142.653,142.653,0,0,0,2.937-19.079.634.634,0,0,1,.466-.548,28.038,28.038,0,0,1,8.463-.933,5.194,5.194,0,0,1,3.866,1.4,5.053,5.053,0,0,1,.939,2.351l3.064,15.039a2.534,2.534,0,0,1-1.322,3.095,15.16,15.16,0,0,1-8.614,2.63m-8.472-4.054a14.39,14.39,0,0,0,16.365.381,2.042,2.042,0,0,0,.864-.921,2.088,2.088,0,0,0-.063-.877L326.649,91.01a4.015,4.015,0,0,0-.664-1.784,4.136,4.136,0,0,0-2.951-.955,26.846,26.846,0,0,0-7.661.783,143.642,143.642,0,0,1-2.826,18.411" transform="translate(87.071 24.336)" fill="#024778"/>
              <path id="Path_5713" data-name="Path 5713" d="M344.762,57.713s.916,9.6.916,14.431c2.638-2.99,8.005-.346,6.16,4.314-1.545,3.9-5.895,3.086-5.895,3.086s-1.606,24.4-19.4,23.585c-22.606.971-23.7-24.631-23.7-24.631-2.76,3.827-7.69.586-7.448-3.2.264-4.141,4.391-7.468,7.75-3.151a93.213,93.213,0,0,1,1.973-14.789,10.242,10.242,0,0,1,5.435-7.309,20.977,20.977,0,0,1,9.185-2.219,42.709,42.709,0,0,1,11.215.95c5.059,1.116,10.232,3.44,13.808,8.937" transform="translate(82.646 13.368)" fill="#fff"/>
              <path id="Path_5714" data-name="Path 5714" d="M325.456,103.929c-11.188,0-16.861-6.642-19.669-12.332a36.141,36.141,0,0,1-3.315-11.51,4.087,4.087,0,0,1-4.019.636,5.491,5.491,0,0,1-3.551-5.329c.169-2.653,1.741-4.953,3.823-5.594a4.11,4.11,0,0,1,4.012.982,95.112,95.112,0,0,1,1.9-13.393,10.8,10.8,0,0,1,5.754-7.759,21.181,21.181,0,0,1,9.461-2.3,43.216,43.216,0,0,1,11.383.964c6.45,1.423,11.1,4.436,14.2,9.211a.63.63,0,0,1,.1.285c.009.088.772,8.12.9,13.169a4.342,4.342,0,0,1,4.5.083,4.5,4.5,0,0,1,1.634,5.786,5.757,5.757,0,0,1-5.91,3.558,41.2,41.2,0,0,1-3.02,11.646c-3.546,8.1-9.41,12.2-16.956,11.869-.415.018-.824.027-1.225.027M302.983,78a.635.635,0,0,1,.634.607,35.184,35.184,0,0,0,3.324,12.46c3.994,8.065,10.624,11.955,19.715,11.565h.055c16.971.776,18.725-22.756,18.74-22.993a.632.632,0,0,1,.244-.459.64.64,0,0,1,.505-.123c.155.028,3.86.66,5.188-2.7a3.243,3.243,0,0,0-1.119-4.237,3.087,3.087,0,0,0-3.976.577.634.634,0,0,1-1.11-.42c0-4.414-.782-12.955-.9-14.215-2.954-4.468-7.192-7.181-13.328-8.534a42.055,42.055,0,0,0-11.048-.936A19.97,19.97,0,0,0,311,50.74a9.526,9.526,0,0,0-5.113,6.833c0,.017-.005.032-.009.047a92.387,92.387,0,0,0-1.961,14.7.634.634,0,0,1-1.134.356c-1.149-1.476-2.424-2.049-3.686-1.66-1.564.481-2.8,2.359-2.931,4.463a4.182,4.182,0,0,0,2.714,4.054,2.947,2.947,0,0,0,3.586-1.263.634.634,0,0,1,.514-.264m43.469-5.719h0Z" transform="translate(82.508 13.229)" fill="#024778"/>
              <path id="Path_5715" data-name="Path 5715" d="M348.633,39.112a14.543,14.543,0,1,0-12.51,16.325,14.545,14.545,0,0,0,12.51-16.325" transform="translate(89.441 7.408)" fill="#acd4f7"/>
              <path id="Path_5716" data-name="Path 5716" d="M334.343,56.338a15.19,15.19,0,1,1,2-.133,15.2,15.2,0,0,1-2,.133m.021-29.087a13.909,13.909,0,1,0,13.778,12.084A13.927,13.927,0,0,0,334.364,27.25" transform="translate(89.302 7.269)" fill="#024778"/>
              <path id="Path_5717" data-name="Path 5717" d="M334.642,52.748c-11.509,10.89-24.466,14.577-37.319,16.985-.765-2.1-.819-7.392-.386-9.647,1.058-5.53,2.815-10.51,9.724-15.689a32.8,32.8,0,0,1,16.783-6.518c5.989-.482,11.715,3.809,14.2,7.734,4.379-.513,9.03,3.162,11.1,7.791A18.662,18.662,0,0,1,347.478,71.1c-.72-.457-10.1-11.824-12.836-18.35" transform="translate(83.004 10.588)" fill="#acd4f7"/>
              <path id="Path_5718" data-name="Path 5718" d="M347.615,71.868a.63.63,0,0,1-.339-.1c-.971-.616-9.619-11.26-12.713-17.816-11.535,10.594-24.582,14.216-36.986,16.54a.635.635,0,0,1-.713-.407c-.826-2.27-.841-7.747-.413-9.982,1.188-6.2,3.269-11.055,9.967-16.077a33.48,33.48,0,0,1,17.113-6.643c5.911-.475,11.729,3.463,14.573,7.7,4.291-.269,9.115,3.184,11.354,8.2a19.212,19.212,0,0,1-1.3,18.281.631.631,0,0,1-.4.288.62.62,0,0,1-.145.017M334.779,52.252a.566.566,0,0,1,.131.014.633.633,0,0,1,.454.375c2.435,5.8,10.011,15.242,12.116,17.568A17.92,17.92,0,0,0,348.3,53.8c-2.092-4.683-6.582-7.869-10.446-7.419a.637.637,0,0,1-.61-.291c-2.492-3.939-8.11-7.885-13.612-7.442a32.2,32.2,0,0,0-16.454,6.394c-7.059,5.293-8.555,10.461-9.482,15.3a27.261,27.261,0,0,0,.206,8.8c12.28-2.338,25.158-6.041,36.442-16.717a.626.626,0,0,1,.435-.174" transform="translate(82.866 10.449)" fill="#024778"/>
              <path id="Path_5719" data-name="Path 5719" d="M319.347,85.292a4.34,4.34,0,0,1-3.356-1.431.634.634,0,1,1,.96-.829,3.58,3.58,0,0,0,3.48.861,6.883,6.883,0,0,0,4.062-2.859.634.634,0,1,1,1.046.717,8.149,8.149,0,0,1-4.816,3.376,5.962,5.962,0,0,1-1.376.165" transform="translate(88.368 22.595)" fill="#024778"/>
              <path id="Path_5720" data-name="Path 5720" d="M328.014,68.916a1.377,1.377,0,1,0-1.419,1.257,1.343,1.343,0,0,0,1.419-1.257" transform="translate(91.006 18.904)" fill="#024778"/>
              <path id="Path_5721" data-name="Path 5721" d="M312.2,68.3a1.377,1.377,0,1,0-1.419,1.255A1.341,1.341,0,0,0,312.2,68.3" transform="translate(86.583 18.73)" fill="#024778"/>
              <path id="Path_5722" data-name="Path 5722" d="M318.353,80.222a.641.641,0,0,1-.319-.086l-1.716-1a1.215,1.215,0,0,1-.21-2.174,7.4,7.4,0,0,0,2.242-6.092.634.634,0,1,1,1.261-.14,8.674,8.674,0,0,1-2.622,7.144c-.023.022-.072.069-.115.116.022.014.05.029.082.049l1.717,1a.634.634,0,0,1-.32,1.183" transform="translate(88.282 19.632)" fill="#024778"/>
              <path id="Path_5723" data-name="Path 5723" d="M329.078,81.027c-4.484,0-8.23-3.921-8.418-8.886-.191-5.069,3.4-9.336,8.014-9.51a7.964,7.964,0,0,1,6.037,2.493,9.639,9.639,0,0,1,2.672,6.387c.191,5.069-3.4,9.336-8.015,9.51-.1,0-.193.005-.289.005m-.111-17.133c-.082,0-.163,0-.244.005-3.912.147-6.96,3.824-6.794,8.195s3.481,7.8,7.392,7.66,6.96-3.823,6.794-8.194a8.365,8.365,0,0,0-2.311-5.55,6.723,6.723,0,0,0-4.836-2.114" transform="translate(89.715 17.522)" fill="#024778"/>
              <path id="Path_5724" data-name="Path 5724" d="M311.221,80.225c-4.483,0-8.23-3.921-8.418-8.887-.191-5.069,3.4-9.335,8.014-9.51a7.939,7.939,0,0,1,6.037,2.494,9.639,9.639,0,0,1,2.672,6.387c.191,5.069-3.4,9.335-8.015,9.51-.1,0-.193.005-.289.005m-.111-17.134c-.082,0-.162,0-.244.006-3.912.147-6.96,3.823-6.794,8.193s3.477,7.8,7.392,7.661,6.96-3.823,6.794-8.2a8.367,8.367,0,0,0-2.313-5.55,6.718,6.718,0,0,0-4.835-2.114" transform="translate(84.719 17.297)" fill="#024778"/>
              <path id="Path_5725" data-name="Path 5725" d="M315.488,68.792h-.049a.635.635,0,0,1-.586-.68c.1-1.351,1.477-2.171,2.794-2.382a6.766,6.766,0,0,1,5.812,1.907.634.634,0,1,1-.916.877,5.458,5.458,0,0,0-4.694-1.532c-.8.129-1.682.6-1.729,1.223a.634.634,0,0,1-.631.587" transform="translate(88.092 18.368)" fill="#024778"/>
              <path id="Path_5726" data-name="Path 5726" d="M338.975,46.264a.633.633,0,0,1-.546-.312,11.528,11.528,0,0,0-4.035-3.889,29.077,29.077,0,0,0-5.323-2.386.634.634,0,0,1,.427-1.193,30.144,30.144,0,0,1,5.556,2.5,12.782,12.782,0,0,1,4.467,4.328.633.633,0,0,1-.224.868.624.624,0,0,1-.321.088" transform="translate(91.953 10.757)" fill="#024778"/>
              <path id="Path_5727" data-name="Path 5727" d="M301.321,70.478l-.061,0a.636.636,0,0,1-.571-.692l.288-2.983a.634.634,0,0,1,1.262.122l-.287,2.983a.635.635,0,0,1-.631.573" transform="translate(84.129 18.53)" fill="#024778"/>
              <path id="Path_5728" data-name="Path 5728" d="M334.753,70.709h-.015a.634.634,0,0,1-.618-.65l.09-3.708a.626.626,0,0,1,.65-.618.635.635,0,0,1,.618.649l-.091,3.709a.634.634,0,0,1-.634.618" transform="translate(93.483 18.391)" fill="#024778"/>
            </g>
          </g>
        </g>
      </g>
    </g>
  </g>
</svg>
