<svg xmlns="http://www.w3.org/2000/svg" width="128" height="20" viewBox="0 0 128 20">
  <g id="Group_1222" data-name="Group 1222" transform="translate(-1134 -1403)">
    <circle id="Ellipse_99" data-name="Ellipse 99" cx="2.5" cy="2.5" r="2.5" transform="translate(1134 1403)" fill="#ffd729"/>
    <circle id="Ellipse_100" data-name="Ellipse 100" cx="2.5" cy="2.5" r="2.5" transform="translate(1143 1403)" fill="#ffd729"/>
    <circle id="Ellipse_101" data-name="Ellipse 101" cx="2.5" cy="2.5" r="2.5" transform="translate(1152 1404)" fill="#ffd729"/>
    <circle id="Ellipse_102" data-name="Ellipse 102" cx="2.5" cy="2.5" r="2.5" transform="translate(1161 1407)" fill="#ffd729"/>
    <circle id="Ellipse_103" data-name="Ellipse 103" cx="2.5" cy="2.5" r="2.5" transform="translate(1169 1411)" fill="#ffd729"/>
    <circle id="Ellipse_104" data-name="Ellipse 104" cx="2.5" cy="2.5" r="2.5" transform="translate(1177 1414)" fill="#ffd729"/>
    <circle id="Ellipse_105" data-name="Ellipse 105" cx="2.5" cy="2.5" r="2.5" transform="translate(1185 1416)" fill="#ffd729"/>
    <circle id="Ellipse_106" data-name="Ellipse 106" cx="2.5" cy="2.5" r="2.5" transform="translate(1194 1418)" fill="#ffd729"/>
    <circle id="Ellipse_107" data-name="Ellipse 107" cx="2.5" cy="2.5" r="2.5" transform="translate(1203 1418)" fill="#ffd729"/>
    <circle id="Ellipse_108" data-name="Ellipse 108" cx="2.5" cy="2.5" r="2.5" transform="translate(1212 1418)" fill="#ffd729"/>
    <circle id="Ellipse_109" data-name="Ellipse 109" cx="2.5" cy="2.5" r="2.5" transform="translate(1221 1416)" fill="#ffd729"/>
    <circle id="Ellipse_110" data-name="Ellipse 110" cx="2.5" cy="2.5" r="2.5" transform="translate(1230 1414)" fill="#ffd729"/>
    <circle id="Ellipse_111" data-name="Ellipse 111" cx="2.5" cy="2.5" r="2.5" transform="translate(1239 1411)" fill="#ffd729"/>
    <circle id="Ellipse_112" data-name="Ellipse 112" cx="2.5" cy="2.5" r="2.5" transform="translate(1248 1408)" fill="#ffd729"/>
    <circle id="Ellipse_113" data-name="Ellipse 113" cx="2.5" cy="2.5" r="2.5" transform="translate(1257 1405)" fill="#ffd729"/>
  </g>
</svg>
