<svg xmlns="http://www.w3.org/2000/svg" xmlns:xlink="http://www.w3.org/1999/xlink" width="1920" height="157" viewBox="0 0 1920 157">
  <defs>
    <clipPath id="clip-path">
      <rect id="Rectangle_2565" data-name="Rectangle 2565" width="1920" height="157" transform="translate(0 977)" fill="#fff"/>
    </clipPath>
  </defs>
  <g id="Mask_Group_1030" data-name="Mask Group 1030" transform="translate(0 -977)" clip-path="url(#clip-path)">
    <path id="Path_5346" data-name="Path 5346" d="M2889.7,1629.414s27.038-143.991,155.832-28.659,231.735-1.291,281.359,15.85,124.341,65.748,193.662,59.166,209.561-132.682,322.214-101.094,127.189,75.468,185.911,76.387S4185.769,1685.3,4313,1639.642s210.327-16.544,297.45,15.866,166.172-13.814,226.886-20.574,57.511,31.729,103.037,4.708,118.007,52.11,127.332,44.48c.951-.778-76.05-32.137-74.476-33.058,11.4-6.671,138.689,69.238,149.322,71.78" transform="translate(-3034 -578.668)" fill="none" stroke="#ffd729" stroke-width="4"/>
  </g>
</svg>
