<svg xmlns="http://www.w3.org/2000/svg" xmlns:xlink="http://www.w3.org/1999/xlink" width="146.33" height="132.163" viewBox="0 0 146.33 132.163">
  <defs>
    <clipPath id="clip-path">
      <rect id="Rectangle_2420" data-name="Rectangle 2420" width="146.33" height="132.163" transform="translate(0 0)" fill="none"/>
    </clipPath>
  </defs>
  <g id="Group_1228" data-name="Group 1228" transform="translate(163 9.774)">
    <g id="Group_1227" data-name="Group 1227" transform="translate(-163 -9.774)" clip-path="url(#clip-path)">
      <path id="Path_5347" data-name="Path 5347" d="M22.59,56.83c.011-.025.027-.051.039-.076-.009.019-.021.035-.029.054Z" transform="translate(1.804 4.533)"/>
      <path id="Path_5348" data-name="Path 5348" d="M131.575,23.807H101.2v-.432c0-.856.008-1.7.015-2.532.016-1.816.03-3.532-.027-5.269A16.037,16.037,0,0,0,85.816.124C77.61-.042,69.08-.041,60.467.125A15.75,15.75,0,0,0,45.43,13.611a41.151,41.151,0,0,0-.131,6.545c.033,1.057.068,2.129.068,3.218v.432H25.582q-5.511,0-11.022,0C5.855,23.815.006,29.671.005,38.381Q0,78,.005,117.612c0,8.7,5.861,14.546,14.582,14.547q58.6.01,117.2,0c8.693,0,14.535-5.867,14.537-14.6q.006-39.541,0-79.083c0-8.911-5.791-14.671-14.752-14.674M49.3,14.051A11.839,11.839,0,0,1,61.128,3.967c8.261-.063,16.349-.064,24.036,0A12.255,12.255,0,0,1,97.327,16.116c.029,1.615.021,3.231.013,4.872q-.006,1.142-.008,2.3v.432H91.725l0-2.059c.005-1.292.011-2.594-.013-3.9l-.005-.446a12.755,12.755,0,0,0-.2-2.559,6.479,6.479,0,0,0-6.39-5.188c-8.542-.042-16.351-.042-23.876,0a6.6,6.6,0,0,0-6.631,6.671c-.026,1.583-.019,3.167-.013,4.787l.006,2.7H49.217v-.431c0-.969-.033-1.935-.068-2.9a36.769,36.769,0,0,1,.147-6.357M58.5,21.133c-.017-1.717-.038-3.491.055-5.23a2.567,2.567,0,0,1,2.762-2.442c8.862-.027,16.617-.025,23.708,0a2.681,2.681,0,0,1,2.789,2.762c.042,1.623.033,3.222.024,4.916,0,.716-.006,1.441-.006,2.179v.432H58.519v-.432c0-.734-.008-1.463-.016-2.19m44.431,42.591s23.806-9.7,35.038-14.276l2.92-1.19a5.856,5.856,0,0,1,.623-.2l.93-.274V117.3c0,6.978-4.019,10.981-11.021,10.981H14.818c-6.845,0-10.931-4.083-10.931-10.92v-69.7l2.637,1.054c1.424.568,2.808,1.12,4.188,1.681l3.631,1.48c9.121,3.718,28.777,11.785,28.777,11.785l-.081-4.377-3.314-1.25c-2.125-.856-4.228-1.7-6.328-2.559l-7.744-3.161Q15.537,48.18,5.414,44.082a2.1,2.1,0,0,1-1.549-2.358c.053-.753.052-1.531.052-2.286a21.585,21.585,0,0,1,.208-3.668A9.706,9.706,0,0,1,13.743,27.7c2.416-.03,4.829-.024,7.246-.016l3.143.006H131.544a11.012,11.012,0,0,1,8.027,2.886,11.111,11.111,0,0,1,2.87,8.062c0,.411.036.849.072,1.289a5.273,5.273,0,0,1-.375,3.291,5.208,5.208,0,0,1-2.9,1.588c-.421.131-.839.261-1.218.416Q123.949,50.971,109.867,56.7l-5.3,2.161c-.148.059-.3.116-.49.187l-1.729.657Z" transform="translate(0 0)" fill="#fff"/>
      <path id="Path_5349" data-name="Path 5349" d="M100.267,56.682l-.168-.364c-1.528-3.312-4.255-4.664-8.589-4.256l-.473.044V48.919c0-2.045,0-4.032,0-6.019-.006-6.083-3.765-9.865-9.807-9.869q-11.126-.006-22.254,0c-6.042,0-9.8,3.786-9.805,9.869v9.181L48.7,52.04c-3.565-.312-6.034.568-7.639,2.712a7.6,7.6,0,0,0-.434.624,8.6,8.6,0,0,0-.485.9c-.012.025-.028.051-.039.076-.043.094-.09.188-.127.281a5.558,5.558,0,0,0,.311,5.094c.111.133.224.266.322.409a6.884,6.884,0,0,0,5.573,3.256c.517.028,1.037.022,1.622.014.293,0,.6-.008.933-.008h.433v.432c0,.432,0,.851.008,1.259.01,1.065.019,2.071-.044,3.075A1.859,1.859,0,0,1,48.1,71.547C43.562,73.38,41.59,77,42.073,82.623c.1,1.191.893,1.771,2.417,1.774q6.063.011,12.126.005h6.726V99.512h-6.75c-5.7.006-9.276,3.3-9.821,9.027A2.559,2.559,0,0,1,45.993,110a4.823,4.823,0,0,0-1.565,3.39,4.115,4.115,0,0,0,1.259,2.985,4.267,4.267,0,0,0,3.046,1.271h.049a4.263,4.263,0,0,0,3.062-1.335,4.383,4.383,0,0,0-.321-6.3,2.918,2.918,0,0,1-.771-2.1,4.891,4.891,0,0,1,4.64-4.475c2.852-.076,5.654-.059,8.621-.044,1.225.006,2.459.012,3.709.012h.433l.005,1.77c.01,1.239.016,2.409-.04,3.6a2.151,2.151,0,0,1-.827,1.286,4.635,4.635,0,0,0-1.5,3.271,4.214,4.214,0,0,0,1.242,3.018,4.405,4.405,0,0,0,3.086,1.289,4.262,4.262,0,0,0,3.071-1.317,4.333,4.333,0,0,0-.287-6.285,2.908,2.908,0,0,1-.827-1.742c-.068-1.026-.056-2.049-.043-3.132.005-.437.009-.884.009-1.347V103.4l5.754,0c2.153-.006,4.3-.009,6.457.011a5.1,5.1,0,0,1,4.958,3.454,2.818,2.818,0,0,1-.744,3.48,3.9,3.9,0,0,0-1.331,2.8,4.386,4.386,0,0,0,1.253,3.209,4.264,4.264,0,0,0,3.08,1.3h0a4.262,4.262,0,0,0,3.074-1.3,4.305,4.305,0,0,0,1.243-3.128,4.076,4.076,0,0,0-1.315-2.9,3.261,3.261,0,0,1-1.108-2.429,9.046,9.046,0,0,0-8.774-8.361c-1.646-.037-3.259-.028-4.97-.018-.769,0-1.542.01-2.322.01h-.433V84.4H83.6q5.933,0,11.867,0c2.051,0,2.607-.558,2.706-2.7.212-4.666-1.293-7.716-4.6-9.324a4.006,4.006,0,0,1-2.55-4.72,7.413,7.413,0,0,0,.021-1.084c-.006-.224-.013-.465-.013-.734V65.4l1.192,0c.533,0,1.05.008,1.567-.008a6.747,6.747,0,0,0,5.712-3.181,11.524,11.524,0,0,0,1.126-5.673ZM53.066,42.05a5.048,5.048,0,0,1,5.161-5.121c7.658-.036,15.644-.036,23.733,0a5.115,5.115,0,0,1,5.177,5.112c.056,3.033.049,6.084-.023,9.065a2.277,2.277,0,0,1-1.051,1.646,6.714,6.714,0,0,0-.021,11.917,2.5,2.5,0,0,1,1.068,1.753,26.947,26.947,0,0,1,.054,2.906c-.005.4-.012.811-.012,1.231v.432h-34.1l0-1.617c-.005-1.153-.012-2.347.04-3.52.024-.569.712-1.012.921-1.135a6.653,6.653,0,0,0,0-12.029,2.123,2.123,0,0,1-.931-1.576c-.063-3.129-.068-6.178-.018-9.064m-4.343,19.5c-.847,0-1.679-.018-2.49-.056a2.728,2.728,0,0,1-2.665-2.731A2.783,2.783,0,0,1,46.3,55.929c.6-.039,1.193-.029,1.772-.019.259,0,.517.009.774.009l.644-.008c.536-.009,1.073-.017,1.607.012A2.8,2.8,0,0,1,53.9,58.667a2.769,2.769,0,0,1-2.741,2.83c-.824.032-1.639.05-2.44.05m24.083,37.9H67.374V84.522h5.432ZM94.225,79.989l.044.473H46.057l-.005-.427a5.018,5.018,0,0,1,1.38-3.613,5.372,5.372,0,0,1,3.853-1.51c3.359-.021,6.722-.016,10.083-.012l4.143,0h6.542q8.36,0,16.721.006c3.158.005,5.146,1.857,5.452,5.08M93.976,61.5c-.6.045-1.2.033-1.781.023-.258,0-.514-.01-.77-.01l-.694.01c-.26.005-.525.011-.792.011-.306,0-.613-.006-.919-.028A2.785,2.785,0,0,1,86.3,58.661a2.727,2.727,0,0,1,2.672-2.721c1.579-.071,3.236-.071,4.93-.006a2.783,2.783,0,0,1,.073,5.563" transform="translate(3.155 2.638)" fill="#ffc810"/>
    </g>
  </g>
</svg>
