<svg id="Group_1230" data-name="Group 1230" xmlns="http://www.w3.org/2000/svg" xmlns:xlink="http://www.w3.org/1999/xlink" width="142.118" height="142.298" viewBox="0 0 142.118 142.298">
  <defs>
    <clipPath id="clip-path">
      <rect id="Rectangle_2438" data-name="Rectangle 2438" width="142.118" height="142.298" fill="none"/>
    </clipPath>
  </defs>
  <g id="Group_1229" data-name="Group 1229" clip-path="url(#clip-path)">
    <path id="Path_5350" data-name="Path 5350" d="M24.147,83.878h91.418V80.151h-6.83V69.686q0-14.433,0-28.866c0-1.751-.345-2.189-2.053-2.608-1.424-.35-2.853-.684-4.281-1.02l-12.15-2.861V27.659c0-2.459-.456-2.927-2.861-2.949-.285,0-.571-.023-.885-.046l-.876-.057,0-3.679c0-2.609.005-5.184-.006-7.759-.008-1.619-.659-2.31-2.179-2.314q-13.569-.027-27.144,0a1.9,1.9,0,0,0-2.173,2.17c-.021,2.337-.017,4.673-.013,7.01l0,4.679h-1.76c-2.406.016-2.861.484-2.862,2.942v6.7L33.366,38.214c-2.095.5-2.358.83-2.359,2.938V80.233H24.147ZM90.336,38.286l14.551,3.419V80.1H99.549v-6.79h-3.8v6.759H90.336ZM74.8,80.073H64.889V65.553H74.8ZM57.972,14.74H81.744v9.909H57.972Zm-4.6,13.84H86.4V80.124H78.694l0-5.876q0-5.071-.007-10.143c0-1.772-.626-2.4-2.377-2.409q-6.356-.022-12.706,0c-1.954,0-2.552.593-2.554,2.521q-.011,4.951,0,9.9v6H53.376ZM34.885,41.719l14.551-3.45V80.094H44.109V73.347h-3.8v6.716H34.885Z" transform="translate(1.235 0.554)" fill="#fff"/>
    <path id="Path_5351" data-name="Path 5351" d="M48.392,109.775c-1.975.084-4.075.084-6.242,0a11.982,11.982,0,0,0-9.032,3.146l-.251.232-.28-.2c-3.962-2.84-4.98-3.164-9.9-3.164l-2.179,0-2.176,0q-1.288,0-2.575.007A11.152,11.152,0,0,0,4.3,121.218c-.016,2.826-.012,5.653-.008,8.479l0,3.8c0,2.8.387,3.19,3.191,3.19l127.114,0c.226,0,.453,0,.679,0,1.512-.05,2.189-.721,2.195-2.174l.013-2.291c.022-3.839.044-7.808-.034-11.707-.1-5.262-4.015-9.82-8.9-10.377a66.381,66.381,0,0,0-13.29-.038,12.634,12.634,0,0,0-4.312,1.561c-.7.349-1.428.711-2.181,1.022l-.244.1-.2-.177a9.039,9.039,0,0,0-5.564-2.59,97.7,97.7,0,0,0-12.9.076,13.033,13.033,0,0,0-4.322,1.564c-.706.348-1.436.71-2.195,1.023l-.244.1-.2-.178a11.173,11.173,0,0,0-7.816-2.812l-.582.008c-1.613.022-3.285.048-4.927-.018-3.674-.143-7.876-.03-11.085,3.225l-.291.293-.3-.285c-2.5-2.377-5.516-3.4-9.507-3.236M30.01,118.541a17.964,17.964,0,0,0-.285,3.077c-.027,2.394-.027,4.79-.026,7.187l0,3.2a1.153,1.153,0,0,1-.054.313l-.124.535H8.072v-2.136c0-1.02,0-2.038-.007-3.057-.008-2.264-.018-4.6.026-6.908a7.27,7.27,0,0,1,7.136-7.159c3.838-.077,6.782-.069,9.543.029a8.525,8.525,0,0,1,3.321.9c2.141,1.042,2.333,1.792,1.919,4.018m25.433-.077a18.641,18.641,0,0,0-.3,3.216c-.027,2.559-.023,5.118-.018,7.71l0,3.441H33.547v-.421c0-1.271-.017-2.536-.035-3.8-.039-2.844-.08-5.786.095-8.662a7.063,7.063,0,0,1,7.106-6.366c2.887-.047,6.16-.1,9.4.036a9.141,9.141,0,0,1,3.583,1.007c1.991,1,2.154,1.673,1.747,3.836m56.6-2.742a6.718,6.718,0,0,1,4.793-2.123c2.895-.048,6.326-.087,9.828,0a7.2,7.2,0,0,1,6.994,6.832c.085,2.746.066,5.437.045,8.288-.007,1.224-.016,2.456-.016,3.706v.42H112.062l0-.933c.005-.345.012-.682-.007-1.017-.09-1.616-.041-3.256.005-4.843a30.179,30.179,0,0,0-.615-8.858,1.817,1.817,0,0,1,.591-1.472m-25.6.327a5.657,5.657,0,0,1,4.823-2.435c4.068-.1,7.189-.1,10.121,0a7.276,7.276,0,0,1,6.873,6.8c.024.353.023.708.021,1.064v11.369H86.642l0-1.489c0-.739,0-1.472,0-2.2l-.018-1.638c-.028-2.72-.057-5.443-.111-8.163a7.107,7.107,0,0,0-.148-1.1,3.162,3.162,0,0,1,.08-2.2m-27.526,5.073a7.294,7.294,0,0,1,7.5-7.546c.766-.007,1.534-.007,2.419-.005l2.237,0-.428.653c-2.157,3.283-1.3,6.274-.387,9.442.226.786.457,1.591.638,2.4.133-.5.273-1,.412-1.5a39.427,39.427,0,0,0,1.321-5.913,6.475,6.475,0,0,0-.729-2.921c-.221-.55-.45-1.119-.637-1.727l-.18-.58.606.037c.631.039,1.241.057,1.837.075a22.494,22.494,0,0,1,3.729.312,6.746,6.746,0,0,1,5.488,6.094c.147,2.891.114,5.844.082,8.7-.015,1.248-.027,2.5-.027,3.758v.421H59.064l-.077-.659a5.987,5.987,0,0,1-.07-.8l0-1.706c-.008-2.846-.017-5.693,0-8.539" transform="translate(0.219 5.61)" fill="#ffc810"/>
    <path id="Path_5352" data-name="Path 5352" d="M116.6,85.605h0a11.13,11.13,0,1,0-.052,22.261h.042a11.13,11.13,0,0,0,.011-22.261m5.093,16.368a7.31,7.31,0,0,1-5.147,2.107h-.115a7.391,7.391,0,0,1-7.219-7.4,7.367,7.367,0,0,1,7.305-7.295h.013a7.337,7.337,0,0,1,5.163,12.584" transform="translate(5.39 4.377)" fill="#ffc810"/>
    <path id="Path_5353" data-name="Path 5353" d="M92.457,85.605h-.036a11.131,11.131,0,1,0-.074,22.262h.012a11.131,11.131,0,0,0,.1-22.262m5.1,16.32a7.276,7.276,0,0,1-5.181,2.156h-.012a7.346,7.346,0,0,1,.024-14.692h.025a7.367,7.367,0,0,1,7.308,7.281,7.358,7.358,0,0,1-2.165,5.255" transform="translate(4.153 4.377)" fill="#ffc810"/>
    <path id="Path_5354" data-name="Path 5354" d="M68.089,107.869h.051a11.145,11.145,0,0,0,7.872-3.222,11.014,11.014,0,0,0,3.3-7.849A11.127,11.127,0,0,0,68.357,85.606h-.1a11.132,11.132,0,0,0-.165,22.264M63.062,91.494a7.3,7.3,0,0,1,5.29-2.105,7.368,7.368,0,0,1,7.181,7.431,7.377,7.377,0,0,1-7.359,7.261h-.148a7.364,7.364,0,0,1-7.181-7.434,7.262,7.262,0,0,1,2.217-5.153" transform="translate(2.917 4.377)" fill="#ffc810"/>
    <path id="Path_5355" data-name="Path 5355" d="M44.033,85.606H44A11.184,11.184,0,0,0,32.875,96.784a11.14,11.14,0,0,0,11.136,11.083h.073a11.13,11.13,0,0,0-.05-22.26m5.04,16.429a7.3,7.3,0,0,1-5.08,2.047c-.064,0-.126,0-.189,0a7.365,7.365,0,0,1-7.142-7.469A7.267,7.267,0,0,1,38.9,91.472a7.373,7.373,0,0,1,5.309-2.081A7.2,7.2,0,0,1,49.3,91.655a7.308,7.308,0,0,1-.229,10.38" transform="translate(1.681 4.377)" fill="#ffc810"/>
    <path id="Path_5356" data-name="Path 5356" d="M19.85,85.605h-.032A11.188,11.188,0,0,0,8.691,96.781a11.142,11.142,0,0,0,11.137,11.086H19.9a11.131,11.131,0,0,0-.046-22.261m5.094,16.379a7.291,7.291,0,0,1-5.128,2.1H19.71A7.361,7.361,0,0,1,12.478,96.7a7.272,7.272,0,0,1,2.185-5.175,7.364,7.364,0,0,1,5.207-2.136h.063a7.367,7.367,0,0,1,7.234,7.382,7.328,7.328,0,0,1-2.224,5.213" transform="translate(0.444 4.377)" fill="#ffc810"/>
    <path id="Path_5357" data-name="Path 5357" d="M81.265,1.234l-.746,3.809L88.2,7.137l1.222-3.809Z" transform="translate(4.117 0.063)" fill="#f0f0f0"/>
    <path id="Path_5358" data-name="Path 5358" d="M55.117,4.865l-.726-3.788L46.157,3.363,47.4,6.933Z" transform="translate(2.36 0.055)" fill="#f0f0f0"/>
    <path id="Path_5359" data-name="Path 5359" d="M3.395,46.123l-2.051,8.2,3.776.685,1.874-7.667Z" transform="translate(0.069 2.358)" fill="#f0f0f0"/>
    <path id="Path_5360" data-name="Path 5360" d="M134.422,54.2l-2.1-8.159-3.559,1.248,1.874,7.657Z" transform="translate(6.583 2.354)" fill="#f0f0f0"/>
    <path id="Path_5361" data-name="Path 5361" d="M116.01,25.161l2.541-2.253-5.92-6.02-2.261,2.6Z" transform="translate(5.643 0.863)" fill="#f0f0f0"/>
    <path id="Path_5362" data-name="Path 5362" d="M98.017,6.962l-1.668,3.407,6.911,3.969,2.088-3.19Z" transform="translate(4.926 0.356)" fill="#f0f0f0"/>
    <path id="Path_5363" data-name="Path 5363" d="M22.959,16.878,16.98,22.839l2.691,2.4L25.3,19.56Z" transform="translate(0.868 0.863)" fill="#f0f0f0"/>
    <path id="Path_5364" data-name="Path 5364" d="M128.594,37.449l-4.181-7.3-3.123,2.127,3.965,6.864Z" transform="translate(6.201 1.542)" fill="#f0f0f0"/>
    <path id="Path_5365" data-name="Path 5365" d="M11.278,30.2,7.1,37.538l3.4,1.683,3.9-6.893Z" transform="translate(0.363 1.544)" fill="#f0f0f0"/>
    <path id="Path_5366" data-name="Path 5366" d="M72.033,0H63.6L63.8,3.6h7.969Z" transform="translate(3.251 0)" fill="#f0f0f0"/>
    <path id="Path_5367" data-name="Path 5367" d="M37.646,7,30.321,11.18l2.1,3.134,6.888-3.954Z" transform="translate(1.55 0.358)" fill="#f0f0f0"/>
    <path id="Path_5368" data-name="Path 5368" d="M0,63.547V67.3H3.656V63.738Z" transform="translate(0 3.249)" fill="#f0f0f0"/>
    <path id="Path_5369" data-name="Path 5369" d="M135.385,67.319V63.553l-.673.022c-.869.029-1.691.056-2.48.159a.938.938,0,0,0-.477.44c-.069.826-.058,1.664-.046,2.552,0,.2.005.394.007.593Z" transform="translate(6.733 3.249)" fill="#f0f0f0"/>
    <rect id="Rectangle_2421" data-name="Rectangle 2421" width="3.605" height="3.603" transform="translate(78.559 53.066)" fill="#fff"/>
    <rect id="Rectangle_2422" data-name="Rectangle 2422" width="3.593" height="3.62" transform="translate(69.322 53.094)" fill="#fff"/>
    <rect id="Rectangle_2423" data-name="Rectangle 2423" width="3.593" height="3.62" transform="translate(78.565 43.85)" fill="#f0f0f0"/>
    <rect id="Rectangle_2424" data-name="Rectangle 2424" width="3.643" height="3.619" transform="translate(69.271 43.85)" fill="#f0f0f0"/>
    <rect id="Rectangle_2425" data-name="Rectangle 2425" width="3.618" height="3.595" transform="translate(60.04 43.862)" fill="#f0f0f0"/>
    <rect id="Rectangle_2426" data-name="Rectangle 2426" width="3.602" height="3.63" transform="translate(78.536 34.575)" fill="#f0f0f0"/>
    <rect id="Rectangle_2427" data-name="Rectangle 2427" width="3.598" height="3.603" transform="translate(69.294 34.628)" fill="#f0f0f0"/>
    <rect id="Rectangle_2428" data-name="Rectangle 2428" width="3.584" height="3.613" transform="translate(60.082 34.608)" fill="#f0f0f0"/>
    <rect id="Rectangle_2429" data-name="Rectangle 2429" width="3.593" height="3.619" transform="translate(60.053 53.069)" fill="#fff"/>
    <rect id="Rectangle_2430" data-name="Rectangle 2430" width="3.617" height="3.644" transform="translate(97.015 64.613)" fill="#f0f0f0"/>
    <rect id="Rectangle_2431" data-name="Rectangle 2431" width="3.627" height="3.603" transform="translate(97.035 55.389)" fill="#f0f0f0"/>
    <rect id="Rectangle_2432" data-name="Rectangle 2432" width="3.575" height="3.654" transform="translate(97.036 46.144)" fill="#f0f0f0"/>
    <rect id="Rectangle_2433" data-name="Rectangle 2433" width="3.6" height="3.627" transform="translate(41.563 64.621)" fill="#fff"/>
    <rect id="Rectangle_2434" data-name="Rectangle 2434" width="3.55" height="3.654" transform="translate(41.606 55.343)" fill="#fff"/>
    <rect id="Rectangle_2435" data-name="Rectangle 2435" width="3.575" height="3.654" transform="translate(41.6 46.118)" fill="#fff"/>
    <rect id="Rectangle_2436" data-name="Rectangle 2436" width="3.582" height="3.654" transform="translate(73.95 18.388)" fill="#f0f0f0"/>
    <rect id="Rectangle_2437" data-name="Rectangle 2437" width="3.618" height="3.594" transform="translate(64.687 18.415)" fill="#f0f0f0"/>
  </g>
</svg>
