<svg xmlns="http://www.w3.org/2000/svg" xmlns:xlink="http://www.w3.org/1999/xlink" width="120.724" height="112.912" viewBox="0 0 120.724 112.912">
  <defs>
    <clipPath id="clip-path">
      <rect id="Rectangle_2529" data-name="Rectangle 2529" width="120.724" height="112.912" fill="none"/>
    </clipPath>
  </defs>
  <g id="Group_1357" data-name="Group 1357" transform="translate(-1433 -1746.407)">
    <g id="Group_1305" data-name="Group 1305" transform="translate(1433 1746.407)">
      <g id="Group_1306" data-name="Group 1306" transform="translate(0 0)" clip-path="url(#clip-path)">
        <path id="Path_5760" data-name="Path 5760" d="M114.245,76.578a20.935,20.935,0,0,0-15.036-5.889,21.478,21.478,0,0,0-15.224,6.9l-.336.354L70.243,67.887l.183-.4a11.391,11.391,0,0,0-8.08-16.322l-.434-.092V42.138l.489-.051A21.083,21.083,0,1,0,39.943,16.2a20.191,20.191,0,0,0,1.733,14.384c3.439,6.585,9.083,10.449,16.775,11.484l.475.062v8.986l-.449.082a11.448,11.448,0,0,0-7.986,5.843,11.818,11.818,0,0,0-.12,10.471l.175.4L37.154,77.96l-.335-.352a22.486,22.486,0,0,0-16.049-6.921A20.27,20.27,0,0,0,7.024,76.054,21.095,21.095,0,0,0,31.557,110.09a20.5,20.5,0,0,0,9.574-11.769,21.1,21.1,0,0,0-2.065-17.65l-.241-.42,13.5-10.134.335.3a11.287,11.287,0,0,0,7.734,3.09h.035a11.224,11.224,0,0,0,7.724-3.087l.335-.3,13.5,10.128-.243.42c-5.862,10.088-3.108,22.386,6.407,28.606a21.009,21.009,0,0,0,26.1-32.7M27.893,108.641A18.481,18.481,0,0,1,14.6,108.7c-1.025-.375-2.16-1.036-1.827-2.8a3.647,3.647,0,0,0,.015-.749c-.007-.187-.015-.4-.015-.641a8.779,8.779,0,0,1,1.867-6.281A8.388,8.388,0,0,1,29.54,103c.023.463.014.926,0,1.391a13.7,13.7,0,0,0,.04,1.758,2.185,2.185,0,0,1-1.692,2.5M19.472,81.71a4.312,4.312,0,0,1,3.974.282,4.5,4.5,0,0,1,2.168,3.47,18.928,18.928,0,0,1,.025,2.05l-.005.214a4.477,4.477,0,0,1-4.467,4.537h-.011A4.493,4.493,0,0,1,16.7,87.7c-.005-.191,0-.382,0-.626v-.4a4.524,4.524,0,0,1,2.773-4.969M33.3,105.157l-.94.8.039-1.234a11.753,11.753,0,0,0-5.8-11.1l-.547-.344.431-.482c1.928-2.153,2.468-4.792,1.752-8.556a7.179,7.179,0,0,0-7.807-5.681,7.377,7.377,0,0,0-6.567,7.029c-.1,2.572-.024,5.057,1.987,7.157l.461.482-.564.356a11.589,11.589,0,0,0-5.819,10.957l.04,1.08-.895-.609c-4.028-2.738-7.282-10.28-5.708-17.14A18.179,18.179,0,1,1,33.3,105.157m15.92-70.422-.814-.374c-4.033-1.852-7.024-10.224-5.925-16.585a18.2,18.2,0,0,1,34.951-3.156c2.933,7.673,0,15.952-4.534,19.522l-.65.512-.217-.8c-.167-.615-.32-1.247-.475-1.886a31.764,31.764,0,0,0-1.259-4.3,9.725,9.725,0,0,0-4.468-4.651l-.57-.337.437-.5c1.955-2.223,2.5-4.893,1.766-8.656a7.189,7.189,0,0,0-7.746-5.618,7.324,7.324,0,0,0-6.605,6.866c-.131,2.526-.087,5.176,1.977,7.344l.457.479-.559.358a12.258,12.258,0,0,0-4.5,4.636,11.916,11.916,0,0,0-1.312,6.249Zm12.9-13.475a4.3,4.3,0,0,1-1.735.367,4.366,4.366,0,0,1-2.273-.648A4.526,4.526,0,0,1,55.953,17.4c-.048-.765-.032-1.538-.009-2.257A4.448,4.448,0,0,1,60.4,10.718h.011a4.512,4.512,0,0,1,4.467,4.407c.009.221.008.445,0,.72l0,.425a4.545,4.545,0,0,1-2.754,4.991M53.229,37.79A1.74,1.74,0,0,1,52,35.893c.042-.578.046-1.164.049-1.747a17.066,17.066,0,0,1,.21-3.066,8.312,8.312,0,0,1,8.946-6.6,8.423,8.423,0,0,1,7.585,8.027c.015.4.011.8.007,1.2l0,.535c.01,3.193-.141,3.392-3.214,4.277a18.7,18.7,0,0,1-5.193.75,18.353,18.353,0,0,1-7.158-1.481M66.3,68.245a8.365,8.365,0,0,1-5.92,2.434h-.043a8.279,8.279,0,0,1-5.893-2.493,8.389,8.389,0,0,1,5.949-14.3h.011a8.387,8.387,0,0,1,5.9,14.356m41.729,36.7h-.547l.547.017c.012,3.041-.16,3.274-3.051,4.151a18.3,18.3,0,0,1-5.329.808,18.569,18.569,0,0,1-7.24-1.507,1.667,1.667,0,0,1-1.171-1.812c.04-.586.046-1.178.051-1.768a17.794,17.794,0,0,1,.22-3.168,8.223,8.223,0,0,1,8.863-6.546,8.387,8.387,0,0,1,7.652,7.963c.02.429.015.86.01,1.29ZM95.188,85.725a4.479,4.479,0,0,1,4.463-4.36h.059a4.516,4.516,0,0,1,4.4,4.345c.011.214.011.43.008.644l.058.008.012.553c-.025.207-.043.416-.06.626a8.12,8.12,0,0,1-.225,1.5,4.41,4.41,0,0,1-4.254,3.226c-.137,0-.274-.007-.413-.019A4.5,4.5,0,0,1,95.2,88.11a22.376,22.376,0,0,1-.011-2.385M112.171,104.8l-.655.568-.231-.835c-.172-.626-.329-1.267-.49-1.916a33.72,33.72,0,0,0-1.29-4.373,9.773,9.773,0,0,0-4.431-4.6l-.568-.341.443-.493c1.943-2.167,2.49-4.818,1.77-8.594a7.131,7.131,0,0,0-7.709-5.668,7.309,7.309,0,0,0-6.655,6.936c-.115,2.505-.056,5.13,1.992,7.262l.468.488-.574.356a11.712,11.712,0,0,0-5.848,11.113l.038,1.24-.942-.808a17.373,17.373,0,0,1-6-12.536A18.312,18.312,0,0,1,86.545,79.06a18.224,18.224,0,0,1,31.3,13.723,17.194,17.194,0,0,1-5.669,12.02" transform="translate(0 0)"/>
        <path id="Path_5761" data-name="Path 5761" d="M31.934,23.072l2.238,3.2L31.05,28.7l-2.527-2.982,3.411-2.649" transform="translate(2.668 2.158)" fill="#ffca0a"/>
        <path id="Path_5762" data-name="Path 5762" d="M85.184,28.283l2.78,3.156-3.037,2.446L82.4,31.04l2.786-2.757" transform="translate(7.708 2.646)" fill="#ffca0a"/>
        <path id="Path_5763" data-name="Path 5763" d="M18.036,53.575l-3.871-.4c.211-1.427.409-2.77.627-4.244l3.846.735c-.209,1.354-.4,2.608-.6,3.909" transform="translate(1.325 4.577)" fill="#ffca0a"/>
        <path id="Path_5764" data-name="Path 5764" d="M79.054,23.085l3.407,2.628-2.536,3c-1.062-.831-2.043-1.6-3.1-2.431l2.232-3.2" transform="translate(7.186 2.159)" fill="#ffca0a"/>
        <path id="Path_5765" data-name="Path 5765" d="M28.472,31.149c-.736.827-1.57,1.762-2.418,2.714l-3.031-2.429,2.8-3.208,2.651,2.923" transform="translate(2.154 2.64)" fill="#ffca0a"/>
        <path id="Path_5766" data-name="Path 5766" d="M22.154,39.891l-3.462-1.819c.714-1.226,1.4-2.4,2.175-3.729l3.269,2.146-1.982,3.4" transform="translate(1.749 3.213)" fill="#ffca0a"/>
        <path id="Path_5767" data-name="Path 5767" d="M90.094,34.377,92.281,38.1l-3.429,1.813-2.039-3.362,3.282-2.177" transform="translate(8.121 3.216)" fill="#ffca0a"/>
        <path id="Path_5768" data-name="Path 5768" d="M90.176,42.864,93.8,41.4c.487,1.376.938,2.656,1.436,4.064l-3.744,1.114c-.451-1.274-.865-2.444-1.313-3.71" transform="translate(8.435 3.872)" fill="#ffca0a"/>
        <path id="Path_5769" data-name="Path 5769" d="M96.075,48.963c.226,1.495.426,2.813.645,4.257l-3.894.386c-.2-1.355-.388-2.584-.586-3.9l3.835-.747" transform="translate(8.628 4.58)" fill="#ffca0a"/>
        <path id="Path_5770" data-name="Path 5770" d="M15.682,45.425l1.456-4.076,3.611,1.477c-.433,1.235-.835,2.378-1.3,3.693l-3.768-1.095" transform="translate(1.467 3.868)" fill="#ffca0a"/>
        <path id="Path_5771" data-name="Path 5771" d="M18.031,60.719l-3.837.378c-.087-1.358-.172-2.664-.262-4.081l3.918-.244c.061,1.331.118,2.569.182,3.947" transform="translate(1.303 5.311)" fill="#ffca0a"/>
        <path id="Path_5772" data-name="Path 5772" d="M92.791,60.774c.067-1.366.124-2.53.185-3.775l3.746-.166v4.288l-3.931-.347" transform="translate(8.68 5.316)" fill="#ffca0a"/>
        <path id="Path_5773" data-name="Path 5773" d="M57.119,94.706c.074,1.229.147,2.434.226,3.749h-3.9c.061-1.256.119-2.462.182-3.749Z" transform="translate(5 8.859)" fill="#ffca0a"/>
        <path id="Path_5774" data-name="Path 5774" d="M66.382,93.11l3.306-1.2c.477,1.159.947,2.3,1.484,3.6-1.211.447-2.364.873-3.625,1.336-.4-1.3-.773-2.482-1.165-3.739" transform="translate(6.21 8.598)" fill="#ffca0a"/>
        <path id="Path_5775" data-name="Path 5775" d="M47.288,93.807l3.433.6c-.149,1.265-.292,2.485-.454,3.863l-3.809-.635c.284-1.311.547-2.518.83-3.825" transform="translate(4.346 8.775)" fill="#ffca0a"/>
        <path id="Path_5776" data-name="Path 5776" d="M64.389,97.634l-3.822.641c-.166-1.354-.317-2.573-.476-3.863l3.435-.593c.281,1.24.547,2.419.863,3.815" transform="translate(5.621 8.776)" fill="#ffca0a"/>
        <path id="Path_5777" data-name="Path 5777" d="M41.168,91.887l3.3,1.2-1.135,3.7-3.649-1.256c.512-1.254.979-2.4,1.485-3.646" transform="translate(3.712 8.595)" fill="#ffca0a"/>
      </g>
    </g>
  </g>
</svg>
