<svg xmlns="http://www.w3.org/2000/svg" xmlns:xlink="http://www.w3.org/1999/xlink" width="110.998" height="110.992" viewBox="0 0 110.998 110.992">
  <defs>
    <clipPath id="clip-path">
      <rect id="Rectangle_2530" data-name="Rectangle 2530" width="110.998" height="110.992" transform="translate(0 0)" fill="none"/>
    </clipPath>
  </defs>
  <g id="Group_1355" data-name="Group 1355" transform="translate(-1572 -1262.385)">
    <g id="Group_1307" data-name="Group 1307" transform="translate(1572 1262.385)">
      <g id="Group_1307-2" data-name="Group 1307" clip-path="url(#clip-path)">
        <path id="Path_5778" data-name="Path 5778" d="M4.8.359A6.926,6.926,0,0,0,.015,6.813C0,7.74,0,8.668,0,9.6l0,1.143v92.849c0,3.9,2.276,6.7,5.937,7.313a10.158,10.158,0,0,0,1.679.087h.2q39.689.006,79.379,0h15.876c4.357,0,6.474-1.547,7.812-5.709a1.669,1.669,0,0,1,.108-.25V5.907a7.2,7.2,0,0,0-2.979-4.619A12.777,12.777,0,0,0,106.1.361c-.281-.118-.562-.236-.84-.361H5.727L5.511.087c-.236.1-.472.191-.713.272M108.27,103.406c0,3.179-1.684,4.859-4.868,4.859H7.616c-3.241,0-4.883-1.629-4.883-4.843V21.442H108.271ZM8.062,2.686c17.954.057,36.209.051,53.86.044l23.6,0h17.894c3.215,0,4.847,1.642,4.85,4.876V18.587H2.8l-.041-.85c-.014-.269-.028-.519-.029-.769,0-.926.011-1.851.021-2.776.026-1.99.05-4.048-.054-6.056A5.158,5.158,0,0,1,3.919,4.151,5.29,5.29,0,0,1,8.062,2.686"/>
        <path id="Path_5779" data-name="Path 5779" d="M69.088,48.472c-.01,1.761-.02,3.582.02,5.369A4.942,4.942,0,0,0,74.022,58.7c4.66.042,9.629.043,15.191,0a4.973,4.973,0,0,0,4.877-4.138,16.409,16.409,0,0,0,.09-2.854l-.014-.552A1.278,1.278,0,0,0,92.9,49.793a1.343,1.343,0,0,0-1.428,1.329c-.032.435-.027.873-.02,1.311,0,.207.005.414,0,.62-.011,2.087-.854,2.94-2.91,2.941q-6.89.006-13.777,0c-2.119,0-2.946-.814-2.948-2.9q-.006-6.888,0-13.778c0-2.188.781-2.964,2.973-2.967h4.994q3.846,0,7.689-.006c.642,0,1.719-.184,1.73-1.367a1.229,1.229,0,0,0-.327-.913,1.89,1.89,0,0,0-1.369-.445l-2.049-.007c-3.665-.012-7.453-.023-11.177.014a4.958,4.958,0,0,0-5.19,5.251c-.016,1.652-.012,3.3-.008,4.955l0,1.757h.01v.5c0,.795,0,1.59-.008,2.384" fill="#ffca0a"/>
        <path id="Path_5780" data-name="Path 5780" d="M69.089,87.821c-.011,1.733-.021,3.525.022,5.283a4.9,4.9,0,0,0,4.763,4.772c4.681.057,9.756.057,15.517,0a4.71,4.71,0,0,0,4.536-3.593,15.416,15.416,0,0,0,.231-3.435l0-.574a1.224,1.224,0,0,0-1.311-1.285H92.83a1.313,1.313,0,0,0-1.357,1.29c-.036.442-.03.888-.025,1.359,0,.227.006.454,0,.68-.014,2.025-.845,2.852-2.869,2.854q-6.946.009-13.89,0c-2.038,0-2.872-.827-2.875-2.845q-.007-6.947,0-13.889c0-2.084.826-2.9,2.934-2.9h5.236q3.726,0,7.449,0a1.976,1.976,0,0,0,1.44-.468,1.258,1.258,0,0,0,.325-.947c-.022-.866-.615-1.306-1.763-1.308H86.318c-3.963-.006-7.928-.013-11.889,0A5.034,5.034,0,0,0,69.09,78.14c-.013,1.693-.01,3.386-.007,5.078l0,1.745H69.1v.5c0,.786,0,1.572-.01,2.358" fill="#ffca0a"/>
        <path id="Path_5781" data-name="Path 5781" d="M58.69,83.992l-.26,0-45.31,0a4.791,4.791,0,0,0-.667.019,1.35,1.35,0,0,0-.006,2.692,5.852,5.852,0,0,0,.749.02l.286,0H58.318l.294,0a5.729,5.729,0,0,0,.742-.018,1.352,1.352,0,0,0,0-2.695,4.844,4.844,0,0,0-.661-.018"/>
        <path id="Path_5782" data-name="Path 5782" d="M13.4,77.379H58.455a8.033,8.033,0,0,0,.822-.021,1.321,1.321,0,0,0,1.31-1.273A1.342,1.342,0,0,0,59.4,74.69a4.756,4.756,0,0,0-.86-.045l-45.082,0a2.81,2.81,0,0,0-1.957.528,1.157,1.157,0,0,0-.3.871c0,.4.017,1.337,2.195,1.337"/>
        <path id="Path_5783" data-name="Path 5783" d="M58.713,35.45l-.2,0q-22.632,0-45.272,0a4.6,4.6,0,0,0-.97.062,1.338,1.338,0,0,0,.195,2.647,7.174,7.174,0,0,0,.775.019l.27,0H55.827l.964,0c.806.005,1.608.009,2.41-.016a1.336,1.336,0,0,0,1.385-1.281,1.369,1.369,0,0,0-1.359-1.425,4.4,4.4,0,0,0-.514-.012"/>
        <path id="Path_5784" data-name="Path 5784" d="M13.191,44.812a6.783,6.783,0,0,0-.7.015,1.337,1.337,0,0,0-.25,2.637,4.85,4.85,0,0,0,1.059.075h.127q9.1,0,18.213,0h26.73a2.739,2.739,0,0,0,1.925-.523,1.162,1.162,0,0,0,.291-.892c-.018-.682-.3-1.313-2.212-1.313Z"/>
        <path id="Path_5785" data-name="Path 5785" d="M97.192,75.3q-2.121,1.876-4.235,3.764L81.669,89.087l-1.414-1.423c-.949-.956-1.876-1.89-2.81-2.821a2.25,2.25,0,0,0-1.5-.829,1.411,1.411,0,0,0-1.253,1.248,2.241,2.241,0,0,0,.792,1.477q2.349,2.359,4.711,4.711c1.16,1.156,1.612,1.173,2.848.076Q91.014,84.46,98.97,77.378c1.366-1.214.7-1.988.48-2.242a1.218,1.218,0,0,0-.844-.469,2.009,2.009,0,0,0-1.414.636" fill="#ffca0a"/>
        <path id="Path_5786" data-name="Path 5786" d="M75.359,47.409q1.983,2,3.984,3.99l.879.877c1.107,1.1,1.624,1.119,2.774.1q7.924-7.035,15.84-14.08a4.506,4.506,0,0,0,.687-.692,1.2,1.2,0,0,0-.093-1.673,1.23,1.23,0,0,0-1.666-.278,3.292,3.292,0,0,0-.573.447L81.651,49.9,80.082,48.31c-.946-.96-1.872-1.9-2.809-2.829a2.007,2.007,0,0,0-1.294-.651,1.221,1.221,0,0,0-.88.4c-.861.862-.1,1.811.26,2.179" fill="#ffca0a"/>
        <path id="Path_5787" data-name="Path 5787" d="M37.817,56.866a6.015,6.015,0,0,0,1.2-.08,1.324,1.324,0,0,0-.04-2.591,6.015,6.015,0,0,0-1.1-.069q-4.76-.006-9.516,0H13.4c-2.175,0-2.191.947-2.2,1.351a1.14,1.14,0,0,0,.295.865,2.792,2.792,0,0,0,1.954.529q12.18,0,24.364,0"/>
        <path id="Path_5788" data-name="Path 5788" d="M38.311,93.339h-.018q-4.641.017-9.28.008l-7,0-3.351,0q-2.915,0-5.828.009c-1.005,0-1.631.515-1.634,1.336,0,.8.639,1.343,1.635,1.388.121.006.241.005.36,0h4.923q9.915,0,19.823-.006a4.191,4.191,0,0,0,1.242-.143,1.238,1.238,0,0,0,.735-.627,1.306,1.306,0,0,0,.057-1.018c-.234-.679-.7-.945-1.667-.945"/>
        <path id="Path_5789" data-name="Path 5789" d="M101.275,11.664a1.389,1.389,0,0,0,.354-1.006c-.019-.811-.534-1.27-1.447-1.3-.841-.022-1.682-.017-2.526-.011l-1.068.005-1.157-.005c-.362,0-.723,0-1.086,0-.487,0-.974,0-1.462.018a1.341,1.341,0,0,0-1.417,1.259,1.361,1.361,0,0,0,.353,1,1.329,1.329,0,0,0,.957.428c2.415.061,4.944.063,7.52.007a1.35,1.35,0,0,0,.979-.393"/>
        <path id="Path_5790" data-name="Path 5790" d="M18.174,9.365h0a1.3,1.3,0,0,0-1.34,1.271,1.383,1.383,0,0,0,.37,1,1.329,1.329,0,0,0,.931.43,1.431,1.431,0,0,0,.959-.385,1.38,1.38,0,0,0,.445-.961,1.3,1.3,0,0,0-.378-.94,1.366,1.366,0,0,0-.986-.415"/>
        <path id="Path_5791" data-name="Path 5791" d="M25.638,9.364h0a1.322,1.322,0,0,0-1.349,1.275,1.387,1.387,0,0,0,.374.987,1.339,1.339,0,0,0,.939.441,1.432,1.432,0,0,0,.957-.384A1.378,1.378,0,0,0,27,10.718a1.31,1.31,0,0,0-.378-.951,1.358,1.358,0,0,0-.979-.4"/>
        <path id="Path_5792" data-name="Path 5792" d="M10.712,9.367h-.006a1.276,1.276,0,0,0-1.332,1.265,1.387,1.387,0,0,0,.364,1.008,1.328,1.328,0,0,0,.926.426,1.31,1.31,0,0,0,.96-.384,1.378,1.378,0,0,0,.449-.958,1.291,1.291,0,0,0-.376-.937,1.372,1.372,0,0,0-.985-.42"/>
      </g>
    </g>
  </g>
</svg>
