<svg xmlns="http://www.w3.org/2000/svg" xmlns:xlink="http://www.w3.org/1999/xlink" width="118.327" height="118.3" viewBox="0 0 118.327 118.3">
  <defs>
    <clipPath id="clip-path">
      <rect id="Rectangle_2527" data-name="Rectangle 2527" width="118.327" height="118.3" fill="none"/>
    </clipPath>
  </defs>
  <g id="Group_1356" data-name="Group 1356" transform="translate(-899 -1740.094)">
    <g id="Group_1304" data-name="Group 1304" transform="translate(899 1740.094)">
      <g id="Group_1304-2" data-name="Group 1304" transform="translate(0 0)" clip-path="url(#clip-path)">
        <path id="Path_5733" data-name="Path 5733" d="M8.354.216A10.332,10.332,0,0,0,.03,10.316c-.04,9.26-.04,18.65,0,27.911a10.108,10.108,0,0,0,8.446,10.04,30.957,30.957,0,0,0,5.26.228c.5-.006.993-.014,1.486-.014h.026a2.412,2.412,0,0,1,2.176,1.081c1.8,2.46,3.631,4.9,5.462,7.335l1.556,2.071c.512.683,1,1.03,1.442,1.03h0c.435,0,.908-.335,1.405-1l1.4-1.861c1.81-2.4,3.684-4.884,5.476-7.357a2.9,2.9,0,0,1,2.637-1.3h.012q19.629.04,39.254.022h7.851l6.815.005c5.753.009,11.5.012,17.259-.021a10.274,10.274,0,0,0,9.994-7.884l.336-1.286V9.171c-.056-.208-.108-.417-.161-.624-.121-.486-.237-.947-.4-1.395A10.352,10.352,0,0,0,110.083.235,5.518,5.518,0,0,1,109.54.06L109.372,0H8.978L8.859.047a3.069,3.069,0,0,1-.5.169m2.669,2.426c2.253,0,11.941,0,18.784,0a7.765,7.765,0,0,0,.787.005c.142-.005.286-.005.428-.005l76.259,0c5.173,0,8.389,3.222,8.391,8.408q0,4.036-.019,8.074c-.02,5.933-.044,12.068.064,18.1a8.551,8.551,0,0,1-2.34,6.244,8.678,8.678,0,0,1-6.264,2.455h-.052c-21.684-.11-43.729-.076-65.052-.044l-3.827.006c-.908.006-1.6-.019-2.174-.035-2.162-.059-2.162-.061-3.412,1.677-.346.48-.777,1.076-1.35,1.821-1.131,1.469-2.24,2.955-3.37,4.467L25.913,56.44l-.667-.833c-.2-.246-.374-.464-.543-.687L23.17,52.879c-1.494-1.986-2.987-3.971-4.455-5.976a2.308,2.308,0,0,0-2.1-1.05c-1.416.044-2.847.034-4.236.024L10.9,45.869c-5.085-.013-8.247-3.187-8.249-8.285q0-13.264,0-26.529c0-5.183,3.208-8.407,8.371-8.413" transform="translate(0 0)" fill="#ffca0a"/>
        <path id="Path_5734" data-name="Path 5734" d="M76.423,108.91q15.825.006,31.649,0c.491,0,.984-.014,1.474-.056a4.878,4.878,0,0,0,4.431-3.376c.091-.233.186-.466.283-.7l.116-.281V102.11c-1.595-3.818-2.577-4.443-6.857-4.443h-9.1q-18.2,0-36.4.005a15.7,15.7,0,0,0-2.033.106,5.211,5.211,0,0,0-4.368,5.326c-.058,3.024,1.708,5.4,4.2,5.65,1.615.164,9.5.177,15.756.135.3.019.575.021.846.021m-15.528-2.68a2.854,2.854,0,0,1-2.217-1.114,3.072,3.072,0,0,1-.443-2.6c.392-1.573,1.391-2.215,3.45-2.215q23.27,0,46.542,0a8.189,8.189,0,0,1,1.1.054,2.7,2.7,0,0,1,2.468,2.5,2.93,2.93,0,0,1-.616,2.393,3.688,3.688,0,0,1-2.883,1.024q-10.025.008-20.054.005H78.214c-1.235-.007-3.427,0-5.851,0-4.841.006-10.322.006-11.468-.046" transform="translate(3.952 6.94)"/>
        <path id="Path_5735" data-name="Path 5735" d="M25.757,62.368h-.045a25.75,25.75,0,0,0,.045,51.5h.007a25.75,25.75,0,0,0-.007-51.5m13.652,44.4a23.373,23.373,0,0,1-13.551,4.479h-.012a23.681,23.681,0,0,1-13.676-4.432,1.926,1.926,0,0,1-.869-2.18,14.828,14.828,0,0,1,14.5-11.7h.19a14.734,14.734,0,0,1,14.242,11.981,1.707,1.707,0,0,1-.828,1.854M18.23,82.721a7.507,7.507,0,0,1,7.515-7.477h.035a7.563,7.563,0,0,1,7.493,7.56,7.55,7.55,0,0,1-7.543,7.485H25.7a7.533,7.533,0,0,1-7.467-7.567m25.057,20.354-.436.494-.274-.6c-3.242-7.065-3.629-7.5-10.31-11.532l-.418-.254.3-.381c4.764-5.967,4.911-11.488.418-15.543a10.1,10.1,0,0,0-14.039.347A10.222,10.222,0,0,0,15.6,82.892a11.035,11.035,0,0,0,3.795,7.915l.478.448-.6.258A17.524,17.524,0,0,0,9.036,102.834l-.209.684-.506-.508C1.8,96.441-.187,83.239,7.979,73.368a23.073,23.073,0,1,1,35.308,29.708" transform="translate(0.001 4.432)"/>
        <path id="Path_5736" data-name="Path 5736" d="M110.379,64.9a11.523,11.523,0,0,0-2.775-.25q-12.739-.013-25.478-.012-10.068,0-20.14,0a18.889,18.889,0,0,0-1.929.079,4.813,4.813,0,0,0-4.215,3.2,6.3,6.3,0,0,0,.523,5.721A5.294,5.294,0,0,0,61.04,75.9h.079c5.547-.052,11.189-.04,16.647-.029q3.491.008,6.979.011h4.86q5.832,0,11.664,0c.706,0,1.4,0,2.1.006,1.978.011,4.024.022,6.02-.08a5.08,5.08,0,0,0,4.748-4.971,5.371,5.371,0,0,0-3.76-5.938M109.04,73.2c-.422.045-.845.041-1.276.044H71.957q-5.315,0-10.628-.005a3.558,3.558,0,0,1-2.873-1.157A2.881,2.881,0,0,1,58,69.559a2.645,2.645,0,0,1,2.437-2.221,14.071,14.071,0,0,1,1.435-.065q22.9,0,45.806,0a10.614,10.614,0,0,1,1.45.07,2.964,2.964,0,0,1-.09,5.861" transform="translate(3.936 4.593)"/>
        <path id="Path_5737" data-name="Path 5737" d="M96.1,81.151H84.635q-11.429,0-22.86,0a15.636,15.636,0,0,0-1.693.086A4.805,4.805,0,0,0,56.09,84.1a6.177,6.177,0,0,0,.3,5.891,5.388,5.388,0,0,0,4.923,2.427c5.514-.072,11.116-.056,16.536-.039q3.488.01,6.975.014H89.9q6.6,0,13.192,0l1.536.006c1.629.006,3.312.017,4.949-.089,2.723-.177,4.646-2.431,4.678-5.481a5.22,5.22,0,0,0-4.579-5.582c-.818-.084-8.753-.1-13.313-.093Zm13.16,2.713a2.955,2.955,0,0,1-.015,5.836,12.7,12.7,0,0,1-1.4.06l-22.935,0h-23.1c-.356,0-.709,0-1.061-.03a2.966,2.966,0,0,1-.016-5.91,11.229,11.229,0,0,1,1.2-.035l32.023,0c.481.007,2.1.007,4.113.009,5.544,0,10.572.005,11.184.072" transform="translate(3.942 5.766)"/>
        <path id="Path_5738" data-name="Path 5738" d="M93.649,80.754Z" transform="translate(6.654 5.738)"/>
        <path id="Path_5739" data-name="Path 5739" d="M98.582,23.817c.462-.446.923-.89,1.381-1.34a1.907,1.907,0,0,0,.646-2.081,1.962,1.962,0,0,0-1.779-1.415c-.724-.1-1.448-.216-2.172-.33-1.13-.178-2.3-.362-3.448-.493a1.855,1.855,0,0,1-1.6-1.207c-.388-.82-.793-1.631-1.2-2.443-.39-.781-.78-1.563-1.155-2.351-.5-1.045-1.085-1.492-1.966-1.492h-.016c-.865,0-1.454.464-1.97,1.535-.314.657-.637,1.307-.962,1.957-.452.906-.9,1.812-1.327,2.731a1.945,1.945,0,0,1-1.689,1.285c-.985.111-1.966.265-2.948.419-.815.126-1.63.254-2.447.358a2.035,2.035,0,0,0-1.938,1.382,2.09,2.09,0,0,0,.818,2.343l.268.254c1.192,1.127,2.426,2.291,3.567,3.511a2.487,2.487,0,0,1,.591,1.83c-.19,1.483-.444,2.935-.69,4.34l-.244,1.4a2.272,2.272,0,0,0,.9,2.053,1.947,1.947,0,0,0,1.941.034c1.9-.917,3.732-1.918,5.116-2.688a2.105,2.105,0,0,1,1.037-.3,2.242,2.242,0,0,1,1.1.318c.936.522,1.885,1.018,2.835,1.513.661.347,1.322.693,1.978,1.046a2,2,0,0,0,2.368-.074,2.037,2.037,0,0,0,.685-2.191l-.14-.777c-.282-1.549-.572-3.151-.781-4.743a2.32,2.32,0,0,1,.559-1.728c.872-.917,1.8-1.806,2.689-2.666m-2.861-.808c-.667.657-1.3,1.278-1.975,1.83a3.075,3.075,0,0,0-1.124,3.481,26.231,26.231,0,0,1,.47,2.6c.062.427.129.874.207,1.346l.14.846-.76-.4c-.452-.235-.887-.456-1.308-.67-.929-.473-1.792-.914-2.635-1.392a2.6,2.6,0,0,0-2.856-.011c-.851.5-1.732.946-2.665,1.421-.423.216-.861.44-1.316.679l-.766.4.382-2.3c.171-1.057.33-2.036.53-3.008a2.6,2.6,0,0,0-.84-2.642c-.725-.688-1.407-1.41-2.129-2.175-.318-.337-.644-.682-.983-1.035l-.581-.6.828-.119c.448-.064.887-.132,1.317-.2,1-.152,1.955-.3,2.92-.4A2.683,2.683,0,0,0,84.962,18.9c.385-.88.823-1.739,1.285-2.648.213-.417.432-.847.655-1.3l.381-.77.385.769c.221.442.439.864.65,1.276.478.93.929,1.808,1.325,2.713a2.617,2.617,0,0,0,2.3,1.707c.964.111,1.925.257,2.988.419l2.429.359-.638.608c-.355.337-.684.662-1,.974" transform="translate(5.25 0.758)" fill="#ffca0a"/>
        <path id="Path_5740" data-name="Path 5740" d="M36.331,23.731c.429-.412.86-.825,1.284-1.242a1.919,1.919,0,0,0,.657-2.085A1.947,1.947,0,0,0,36.5,18.984c-2.055-.288-3.907-.554-5.758-.9a2.184,2.184,0,0,1-1.38-1.019c-.773-1.437-1.5-2.928-2.2-4.369l-.357-.735a1.96,1.96,0,0,0-1.853-1.3h-.02a1.984,1.984,0,0,0-1.859,1.325c-.329.683-.666,1.361-1.006,2.04-.454.914-.909,1.827-1.341,2.752A2.127,2.127,0,0,1,18.87,18.2c-.991.1-2,.259-2.971.413-.768.121-1.537.243-2.307.338a2.041,2.041,0,0,0-1.973,1.475,2.089,2.089,0,0,0,.846,2.245l.21.2c1.233,1.172,2.509,2.384,3.708,3.638a2.176,2.176,0,0,1,.534,1.635c-.213,1.557-.478,3.091-.734,4.574l-.241,1.414a2.182,2.182,0,0,0,.917,1.928,1.933,1.933,0,0,0,1.919.047c1.494-.719,3.072-1.548,5.119-2.687a2.159,2.159,0,0,1,1.057-.3,2.2,2.2,0,0,1,1.076.312c.815.456,1.645.89,2.473,1.324.713.375,1.427.75,2.134,1.136a2.141,2.141,0,0,0,2.579.044c.684-.516.875-1.218.658-2.417l-.062-.341c-.295-1.617-.6-3.289-.812-4.951a2.321,2.321,0,0,1,.542-1.73c.9-.95,1.863-1.872,2.789-2.762m-2.993-.7c-.7.69-1.366,1.34-2.074,1.936a2.89,2.89,0,0,0-1.008,3.2c.209.883.341,1.783.481,2.737.064.436.13.887.207,1.357l.137.842L28.932,32c-.962-.491-1.854-.946-2.728-1.431a2.392,2.392,0,0,0-2.548.02c-.884.5-1.785.961-2.759,1.464l-2.089,1.086.138-.846c.081-.489.149-.955.215-1.4.14-.955.273-1.856.484-2.737a2.934,2.934,0,0,0-1.026-3.2c-.689-.6-1.322-1.257-1.992-1.954-.306-.319-.622-.649-.958-.985l-.6-.6.842-.122c.446-.064.874-.133,1.293-.2.929-.148,1.8-.288,2.7-.364a3.008,3.008,0,0,0,2.824-2.011c.342-.843.762-1.656,1.2-2.516.206-.4.42-.813.637-1.252l.383-.775L26,16.264c.479.953.928,1.849,1.344,2.758a2.481,2.481,0,0,0,2.123,1.6c1,.119,1.994.272,3.093.441L35,21.431l-.634.6c-.362.346-.7.678-1.028,1" transform="translate(0.82 0.758)" fill="#ffca0a"/>
        <path id="Path_5741" data-name="Path 5741" d="M69.421,21.411c.084-.156.167-.312.254-.465a2.209,2.209,0,0,0-1.842-1.929c-.785-.131-1.574-.246-2.362-.362-1.171-.174-2.341-.346-3.5-.566A2.324,2.324,0,0,1,60.5,17.016c-.676-1.251-1.3-2.55-1.909-3.805l-.582-1.2a2.012,2.012,0,0,0-1.86-1.342h-.027a2.039,2.039,0,0,0-1.911,1.382c-.319.665-.648,1.326-.977,1.987-.464.932-.928,1.864-1.365,2.809a2.027,2.027,0,0,1-1.779,1.342c-1.018.11-2.051.272-3.051.429-.781.123-1.562.246-2.346.347a1.986,1.986,0,0,0-1.856,1.326,2.014,2.014,0,0,0,.692,2.272c.621.587,1.23,1.187,1.838,1.787.689.68,1.378,1.36,2.085,2.019a2,2,0,0,1,.659,2.032c-.176.893-.325,1.793-.473,2.693s-.3,1.8-.473,2.687a2,2,0,0,0,3.075,2.2l.232-.124c1.539-.829,3.13-1.687,4.74-2.447a2.209,2.209,0,0,1,.923-.189,2.156,2.156,0,0,1,.914.187c1.152.553,2.294,1.162,3.4,1.751.587.314,1.174.627,1.765.933a1.954,1.954,0,0,0,2.875-2.12l-.34-1.989c-.2-1.169-.394-2.338-.608-3.5a2.084,2.084,0,0,1,.674-2.142c1.335-1.208,2.64-2.488,3.882-3.8a5.18,5.18,0,0,0,.723-1.121m-3.9.615c-.373.359-.723.7-1.06,1.035-.737.723-1.413,1.386-2.116,2.018a2.588,2.588,0,0,0-.962,2.778c.232.975.377,1.959.532,3,.067.464.139.937.218,1.426l.139.848-.762-.4c-.431-.227-.849-.443-1.262-.654-.911-.471-1.783-.92-2.634-1.406a2.678,2.678,0,0,0-2.961,0c-.854.5-1.731.95-2.657,1.423-.412.21-.832.425-1.266.652l-.762.4.382-2.349c.18-1.133.349-2.2.555-3.264a2.24,2.24,0,0,0-.7-2.147c-.755-.777-1.5-1.566-2.257-2.376l-1.536-1.629,2.112-.313c.979-.149,1.955-.3,2.935-.411a2.618,2.618,0,0,0,2.3-1.7c.387-.879.826-1.744,1.291-2.659.22-.431.447-.878.682-1.354l.385-.775.383.775c.216.437.429.856.637,1.26.459.9.894,1.75,1.269,2.629a2.813,2.813,0,0,0,2.565,1.859c.918.089,1.846.231,2.83.381.468.072.956.147,1.476.221l.868.124Z" transform="translate(3.035 0.758)" fill="#ffca0a"/>
      </g>
    </g>
  </g>
</svg>
