<svg id="Group_1298" data-name="Group 1298" xmlns="http://www.w3.org/2000/svg" xmlns:xlink="http://www.w3.org/1999/xlink" width="111.034" height="111.001" viewBox="0 0 111.034 111.001">
  <defs>
    <clipPath id="clip-path">
      <rect id="Rectangle_2526" data-name="Rectangle 2526" width="111.034" height="111.001" transform="translate(0 0)" fill="none"/>
    </clipPath>
  </defs>
  <g id="Group_1298-2" data-name="Group 1298" clip-path="url(#clip-path)">
    <path id="Path_5729" data-name="Path 5729" d="M100.149,77.778a6.527,6.527,0,0,0-1.161-4.318,6.912,6.912,0,0,0-5.5-2.942l-.552-.044,0-3.3c.005-2.072.009-4.112-.011-6.151a3,3,0,0,0-3.036-3.1c-1.211-.029-2.417-.029-3.589,0a2.947,2.947,0,0,0-2.988,2.8,1.84,1.84,0,0,1-1.306,1.825A34.272,34.272,0,0,1,68.94,65.153H68.9l-2.868,0q-6.989-.008-13.979.008a8.351,8.351,0,0,0-8.5,7.4,25.536,25.536,0,0,0-.1,3.547c.011.6.021,1.208.011,1.81l0,.311c-.049,2.733-.094,5.314,1.7,7.61l.755.969H38.965l-.151-.376a1.135,1.135,0,0,1-.143-.46c-.012-.308-.017-.617-.021-.924l0-.218a33.071,33.071,0,0,0-5.683-18.4,13.051,13.051,0,0,1-2.222-5.966c-.093-.746-.213-1.489-.335-2.242l-.283-1.8.756.06c.35.028.681.062,1,.094a13.628,13.628,0,0,0,1.816.112,12.954,12.954,0,0,0,2.668-.331,12.152,12.152,0,0,0,9.481-12.267c-.045-2.356-.1-5.026,3.4-5.786.165-.036.32-.071.284-.554-.054-.707-.084-1.415-.112-2.124-.032-.759-.062-1.518-.125-2.274-.418-4.975-1.33-11.443-4.694-17.334l-.2-.343,1.326-1.764c.794-1.054,1.572-2.087,2.335-3.132a6.4,6.4,0,0,0,.7-7.132A6.445,6.445,0,0,0,42.578,0H39.5Q32.1,0,24.712.012a26.8,26.8,0,0,0-2.865.18A24.352,24.352,0,0,0,3.521,12.026,23.988,23.988,0,0,0,1.746,33.44,145.88,145.88,0,0,0,8.718,47.694l.1.183a15.629,15.629,0,0,1,2.107,9.16A2.429,2.429,0,0,1,9.772,59.1a20.23,20.23,0,0,0-9.7,17.144C-.031,79.688,0,83.2.027,86.592c.009,1.144.019,2.288.024,3.431a10.569,10.569,0,0,0,1.838,6.6,9.947,9.947,0,0,1,1.791,6.919c-.064,1.58-.048,3.2-.033,4.762.007.7.013,1.408.013,2.112v.516H38.705v-7.1H54.332l-.005,1.26c0,.438-.009.857.008,1.275a4.821,4.821,0,0,0,9.635-.009c.04-1.01.04-1.918,0-2.775a2.534,2.534,0,0,1,.877-2.117,7.989,7.989,0,0,0,2.5-8.052,12.169,12.169,0,0,0-.826-2.171c-.162-.357-.325-.717-.474-1.084l-.317-.779.841-.046a33.918,33.918,0,0,1,15.769,2.757,1.976,1.976,0,0,1,.917,1.512,3.07,3.07,0,0,0,3.07,2.92c1.272.029,2.446.03,3.588,0a3.009,3.009,0,0,0,3.013-3.027c.019-.625.015-1.251.01-1.877l0-7.632.527-.063c3.92-.473,6.42-2.77,6.688-6.143M56.744,67.624h8.379V86.859l-1.593,0c-.335,0-.672,0-1.009,0-.668,0-1.34-.006-2.01-.032a1.38,1.38,0,0,1-.93-.586l-.123-.136c-.181-.183-.354-.385-.526-.589A4.294,4.294,0,0,0,58,84.618a2.592,2.592,0,0,1-1.273-2.546c.032-3.077.027-6.156.022-9.234ZM46.135,27.813c.25,1.533.417,3.1.579,4.608.1.9.192,1.8.305,2.7a1.781,1.781,0,0,1-1.3,2.21c-1.959.515-2.645,1.624-2.293,3.71a20.7,20.7,0,0,1,.043,3.5,7.052,7.052,0,0,1-.948,3.982,10.329,10.329,0,0,1-6.82,5.521,9.578,9.578,0,0,1-7.587-1.394c-.6-.382-1.185-.773-1.814-1.189l-.354-.234-1.35,2a2.807,2.807,0,0,0,.569.368,4.529,4.529,0,0,1,2.713,4.225A31.969,31.969,0,0,0,28.35,61c.09.5.182,1.005.266,1.523l.119.739-.746-.044a30.08,30.08,0,0,1-10.9-2.753c-3.544-1.614-3.722-1.88-3.8-5.683l0-.184a5.383,5.383,0,0,1,1.322-3.862c2.568-3.007,3.541-6.8,4.252-10.128a1.542,1.542,0,0,0-.2-.256c-.515-.385-1.054-.741-1.592-1.1-.368-.242-.736-.484-1.1-.736a6.123,6.123,0,0,1-2.6-4.24,3.914,3.914,0,0,1,6.645-3.512c.986.957,1.95,1.939,2.971,2.98l.656.667,1.2-5.316c.084-.37.164-.742.245-1.113.2-.908.4-1.846.657-2.762a11.3,11.3,0,0,1,10.713-8.313c.556-.014,1.112,0,1.67,0,.855.013,1.739.025,2.59-.04a2.293,2.293,0,0,1,2.391,1.437,31.094,31.094,0,0,1,3.018,9.5M27.529,65.95,23,71.625,16.872,63.46Zm-17.4-20.725q-.818-1.632-1.642-3.261c-1.212-2.4-2.466-4.885-3.659-7.349a22.614,22.614,0,0,1-.359-19.221A22.024,22.024,0,0,1,18.738,3.265a23.147,23.147,0,0,1,5.716-.8c3.954-.064,7.973-.056,11.858-.047q3.117.007,6.233,0h.022A4.22,4.22,0,0,1,46.6,4.732a4.1,4.1,0,0,1-.524,4.654c-.294.392-.585.788-.876,1.183-.728.989-1.48,2.011-2.278,2.98a2.729,2.729,0,0,1-1.794.9c-.9.061-1.805.066-2.685.071a22.689,22.689,0,0,0-4.54.32c-5.715,1.2-9.346,4.846-10.793,10.853-.128.529-.246,1.06-.363,1.591l-.058.261.17.055-.314.587-.066.294-.766.193-.182-.243c-.4-.136-.788-.286-1.172-.432a10.55,10.55,0,0,0-2.75-.789,5.945,5.945,0,0,0-5.38,2.326,7.136,7.136,0,0,0-.811,6.878,8.27,8.27,0,0,0,3.539,4.323,1.748,1.748,0,0,1,.865,2.23,14.856,14.856,0,0,1-2.96,5.921l-.588.614Zm26.039,63.313H6.16V102.1l.536-.058a.819.819,0,0,1,.611.045,16.255,16.255,0,0,0,8.114,1.7c4.472-.045,9.018-.034,13.414-.027q2.732.006,5.462.008h1.874Zm10.836-7.192H26.829q-6.129,0-12.258,0c-7.237,0-12.1-4.848-12.11-12.059q0-1.868-.016-3.734c-.018-3.042-.037-6.187.045-9.282a17.932,17.932,0,0,1,7.863-14.65,7.436,7.436,0,0,1,.631-.4l.813-.491L22.935,75.57l7.245-9.041.456.678a32,32,0,0,1,5.59,19l-.01.589H16.948l.006-.605A38,38,0,0,0,15.227,73.8l-2.187.73c.1.43.193.856.291,1.28a38.081,38.081,0,0,1,.782,4.046c.235,1.977.293,3.994.348,5.944l.029.98a2.236,2.236,0,0,1-.681,1.474c-.587.608-1.2,1.187-1.842,1.783l-.279.263,1.932,1.777.176-.194c.566-.632,1.151-1.285,1.786-1.919a2.279,2.279,0,0,1,1.476-.658q13.3-.025,26.592,0l2.68,0,.6.2.081.463Zm.984-15.984a5.462,5.462,0,0,1-2.085-4.352c-.054-2.695-.054-5.18,0-7.6a6,6,0,0,1,5.775-5.83c.436-.018.874-.013,1.34-.009l1.269.005V82.647L48.284,85.58Zm12.6,22.649a2.762,2.762,0,0,1-1.53.423,2.43,2.43,0,0,1-1.029-.206c-1.43-.7-1.354-2-1.294-3.054.016-.274.033-.553.025-.83l-.019-.617h4.8l-.025.624a5.522,5.522,0,0,0,.041.761,2.812,2.812,0,0,1-.965,2.9m-1.368-6.677c-1.167.018-2.335.022-3.514.022-.9,0-1.812,0-2.734-.005l-3.474-.007v-.6c0-1,.011-1.988.022-2.972.025-2.381.049-4.631-.072-6.91a4.661,4.661,0,0,1,1.912-4.132,4.167,4.167,0,0,1,3.407-1,4.075,4.075,0,0,1,2.834,1.992l.054.091a3.668,3.668,0,0,1,.414.847c.146.485.333.656,1.1.657a6.009,6.009,0,0,1,.049,12.017M83.221,89.748l-.815-.315a36.833,36.833,0,0,0-14.128-2.571l-.61.01V67.577l.607.007A37.431,37.431,0,0,0,82.4,65l.818-.32Zm7.2,4.276h-4.66V60.356h4.66Zm2.547-20.9.581-.018a4.054,4.054,0,0,1,4.19,3.872,4.2,4.2,0,0,1-4.134,4.406l-.637.039Z"/>
    <path id="Path_5730" data-name="Path 5730" d="M66.993,48.951A3.813,3.813,0,0,0,69.335,52.8a3.739,3.739,0,0,0,4.314-1.03L75,50.434c1.162-1.151,2.363-2.341,3.509-3.542a3.19,3.19,0,0,1,2.476-1.056H81c9.041.035,18.106.025,24.99.014a4.769,4.769,0,0,0,5.034-4.912q.027-18.037,0-36.076A4.76,4.76,0,0,0,106.157.013q-23.464-.027-46.929,0a4.76,4.76,0,0,0-4.9,4.931q-.025,17.925,0,35.851a4.844,4.844,0,0,0,5.132,5.059c1.546.007,3.092.006,4.688,0h2.838v1.45c0,.579,0,1.113,0,1.646M91.009,43.44c-3.692.005-7.506.012-11.239-.029a2.612,2.612,0,0,0-2.1.871c-1.8,1.9-3.675,3.741-5.6,5.611a2.251,2.251,0,0,1-1.384.635.963.963,0,0,1-.376-.071,1.878,1.878,0,0,1-.868-1.667c.027-.665.037-1.336.046-2.007a27.1,27.1,0,0,1,.469-5.607,13,13,0,0,1,13.289-9.784A13.341,13.341,0,0,1,95.665,42.031a3.094,3.094,0,0,1,.043.484l.054.92Zm-18.093-19,.169.635-.647.111a5.873,5.873,0,0,1-1.016.087,7.795,7.795,0,0,1-4.08-14.23,7.657,7.657,0,0,1,9.574.658l.5.477-.545.429c-3.96,3.115-5.254,6.986-3.958,11.833m4.273-8.905A7.82,7.82,0,0,1,82.7,13.283h.092a7.85,7.85,0,0,1,7.72,7.858,7.858,7.858,0,0,1-7.844,7.814h-.045a7.828,7.828,0,0,1-5.432-13.417m11.3-2.927-.452-.387.383-.455c1.89-2.249,5.852-2.767,8.83-1.155a7.792,7.792,0,0,1-3.506,14.662,6.661,6.661,0,0,1-.732-.039l-.593-.063.06-.594c.666-6.622.032-8.524-3.99-11.969m19.445,30.067a2.253,2.253,0,0,1-1.735.74c-1.011.019-2.022.024-3.038.024q-1.05,0-2.11-.005l-2.678-.006-.077-.509a15.913,15.913,0,0,0-9.118-12.571l-.545-.275.285-.541c1.07-2.026,2.775-1.927,4.28-1.843a16.278,16.278,0,0,1,9.1,2.928,14.7,14.7,0,0,1,6.1,10.068,2.446,2.446,0,0,1-.47,1.99M56.746,5.569c0-2.321.821-3.144,3.141-3.145h45.554c2.339,0,3.167.816,3.167,3.12l0,19.608v7.967l-1.008-.937c-.382-.353-.75-.711-1.114-1.065a27.68,27.68,0,0,0-2.417-2.171,26.512,26.512,0,0,0-2.7-1.732c-.423-.248-.847-.5-1.266-.756l-.626-.388.505-.535c.155-.164.318-.33.484-.5.357-.361.725-.735,1.046-1.132A10.228,10.228,0,0,0,86.334,10.236a2.317,2.317,0,0,1-2.3.751,5.374,5.374,0,0,0-2.1-.075,3.39,3.39,0,0,1-3.4-1.067A10.221,10.221,0,0,0,64.619,24.812c.157.154.317.3.51.482l1.005.937-.849.361A18.755,18.755,0,0,0,57.81,32.3l-1.065,1.313ZM66.475,43.41c-.734,0-1.465.005-2.192.009-.71,0-1.431.008-2.155.008-1.082,0-2.172-.009-3.25-.041a1.994,1.994,0,0,1-1.472-.7,2.453,2.453,0,0,1-.539-1.9A15.18,15.18,0,0,1,71,27.774a21.559,21.559,0,0,0,2.509-.227,2.226,2.226,0,0,1,2.123.959,2.641,2.641,0,0,0,.752.653l1.091.528-1.082.547c-5.407,2.736-8.457,6.878-9.321,12.665l-.077.511Z" fill="#ffca0a"/>
    <path id="Path_5731" data-name="Path 5731" d="M108.17,65.8l-1.325-1.4-4.465,4.462,1.348,1.381Z"/>
    <path id="Path_5732" data-name="Path 5732" d="M108.246,88.644l-4.414-4.4-1.507,1.379,4.422,4.422Z"/>
    <rect id="Rectangle_2525" data-name="Rectangle 2525" width="5.894" height="2.282" transform="translate(105.052 76.101)"/>
  </g>
</svg>
