<svg id="Group_1310" data-name="Group 1310" xmlns="http://www.w3.org/2000/svg" xmlns:xlink="http://www.w3.org/1999/xlink" width="110.886" height="110.815" viewBox="0 0 110.886 110.815">
  <defs>
    <clipPath id="clip-path">
      <rect id="Rectangle_2533" data-name="Rectangle 2533" width="110.886" height="110.815" fill="none"/>
    </clipPath>
  </defs>
  <g id="Group_1310-2" data-name="Group 1310" transform="translate(0 0)" clip-path="url(#clip-path)">
    <path id="Path_5804" data-name="Path 5804" d="M91.271,30.058a35.763,35.763,0,0,0-9.919-19.066,34.824,34.824,0,0,0-16.087-9.51C63.491,1.014,61.625.711,59.82.419,58.992.284,58.164.15,57.34,0H53.019c-.492.079-1.075.155-1.659.232-1.226.161-2.494.328-3.71.582a35.909,35.909,0,0,0-18.061,9.619A36.063,36.063,0,0,0,18.656,33.106a35.528,35.528,0,0,0,3.276,19.149A35.915,35.915,0,0,0,40.965,70.513a54.076,54.076,0,0,0,5.894,1.945c.954.276,1.92.555,2.888.86l.426.134,0,1.225c0,.829.008,1.739-.023,2.648a1.412,1.412,0,0,1-.842,1.16,1.36,1.36,0,0,0-.968,1.533q0,3.9,0,7.8c-.006,5.294-.013,10.77.031,16.153A6.817,6.817,0,0,0,62,104.141c.1-7.768.061-15.271,0-24.274a1.694,1.694,0,0,0-.545-1.117,1.992,1.992,0,0,1-1.279-2.29l.011-.209a5.368,5.368,0,0,0-.012-1.088c-.293-1.859.949-2.284,1.911-2.442A33.041,33.041,0,0,0,73.223,68.68,36.667,36.667,0,0,0,91.271,30.058M59.527,103.651a4.678,4.678,0,0,1-1.931,3.916,4.07,4.07,0,0,1-2.34.734,4.415,4.415,0,0,1-1.521-.276,3.952,3.952,0,0,1-2.833-3.748c-.039-5.722-.029-11.539-.02-17.165l.007-5.23a.86.86,0,0,1,.138-.443l.149-.3.527-.126a4.033,4.033,0,0,1,.5-.044c1.665,0,3.332,0,5.035,0h2.145l.088.846a4.938,4.938,0,0,1,.054.65l0,3.632q.008,8.778-.005,17.559M52.768,73.486h4.839v4.852H52.768Zm2.541-2.541h-.181A34.358,34.358,0,0,1,20.973,36.78,34.324,34.324,0,0,1,55.184,2.547H55.2A34.211,34.211,0,0,1,79.27,61.024a33.773,33.773,0,0,1-23.961,9.92" transform="translate(0.259 0)"/>
    <path id="Path_5805" data-name="Path 5805" d="M92.459,96.616c.022,1.373.207,1.609,1.519,1.944q1.681.426,3.361.845c1.6.4,3.2.8,4.8,1.214,3.587.926,5.264,3.088,5.278,6.8,0,.7,0,1.4,0,2.12v.348h2.54v-3.847a1.491,1.491,0,0,1-.154-.433,8.44,8.44,0,0,0-6.272-7.2c-1.446-.436-2.948-.8-4.4-1.149-.925-.223-1.851-.446-2.77-.689-.012,0-1.255-.353-1.3-1.147a2.226,2.226,0,0,1,.653-1.711,8.218,8.218,0,0,0,3.02-6.65q.011-5.03,0-10.059a10.3,10.3,0,0,0-2.568-7.132c-3.088-3.471-6.792-4.588-11.007-3.32-4.383,1.318-6.95,4.3-7.422,8.613a60.948,60.948,0,0,0-.219,7.018c.009,1.3.018,2.642-.019,3.964-.1,3.414.91,5.843,3.162,7.643a1.548,1.548,0,0,1,.619,1.513,1.641,1.641,0,0,1-1.234,1.214c-.257.072-.516.136-.776.2-.2.05-.4.1-.605.154-.738.2-1.486.372-2.233.547a29.875,29.875,0,0,0-4.731,1.379c-4.166,1.747-5.9,5.362-5.29,11.043h2.423v-2.144c0-4.113,1.636-6.195,5.64-7.188q3.921-.969,7.836-1.965c1.249-.316,1.439-.562,1.455-1.871,0-.263,0-.526-.009-.79a13.131,13.131,0,0,1,.026-1.556,2.227,2.227,0,0,0-1.248-2.389,4.459,4.459,0,0,1-2.349-3.815l-.026-1.479c-.062-3.608-.128-7.341.054-11.008.192-3.832,3.786-7.04,7.87-7.04h.077a7.91,7.91,0,0,1,7.91,7.2c.15,3.1.139,6.243.129,9.287L96.184,87.3A4.705,4.705,0,0,1,94.1,91.631a3.125,3.125,0,0,0-1.653,3.506,7.136,7.136,0,0,1,.019.994c0,.162-.009.324-.007.486" transform="translate(0.931 0.927)"/>
    <path id="Path_5806" data-name="Path 5806" d="M26.169,96.72c.03,1.218.272,1.524,1.427,1.817q1.76.447,3.523.884c1.581.394,3.163.789,4.742,1.2,3.581.923,5.256,3.086,5.274,6.806,0,.695,0,1.389,0,2.086v.317H43.65c0-.2,0-.39.007-.584.01-.837.02-1.627-.017-2.419a8.79,8.79,0,0,0-7.11-8.647l-1.905-.47c-1.454-.357-2.908-.714-4.355-1.1-.156-.043-1.529-.431-1.5-1.251a2.667,2.667,0,0,1,.815-1.77,7.463,7.463,0,0,0,2.767-5.451c.085-4.116.149-8.148,0-12.209A10.515,10.515,0,0,0,15.86,67.963a10.644,10.644,0,0,0-4.6,8.56c-.042,1.6-.03,3.242-.02,4.826s.022,3.2-.018,4.8c-.087,3.414.919,5.843,3.168,7.644A1.546,1.546,0,0,1,15,95.3a1.636,1.636,0,0,1-1.228,1.215c-.339.1-.68.181-1.023.266l-1.778.45c-1.157.3-2.315.59-3.476.859C.535,99.7-.4,105.234.122,109.8H2.558v-2.1c0-4.123,1.632-6.207,5.629-7.194q3.973-.981,7.943-1.984c1.092-.278,1.331-.586,1.352-1.74,0-.287,0-.573-.009-.861a13.735,13.735,0,0,1,.026-1.591,2.2,2.2,0,0,0-1.24-2.393A4.444,4.444,0,0,1,13.9,88.122l-.035-2.363c-.057-3.466-.114-7.051.127-10.568.242-3.547,3.951-6.611,7.879-6.6,4.045.031,7.645,3.126,7.859,6.759.22,3.73.146,7.525.074,11.2l-.033,1.745a4.115,4.115,0,0,1-2.127,3.486,2.741,2.741,0,0,0-1.493,3.037,9.11,9.11,0,0,1,.023,1.218c-.006.229-.012.459-.006.689" transform="translate(0 0.928)"/>
    <path id="Path_5807" data-name="Path 5807" d="M29.917.663C14.436,11.306,7.28,32.124,13.1,49.574l2.179-.7c-4.513-18.715.85-34.285,15.944-46.293Z" transform="translate(0.156 0.009)"/>
    <path id="Path_5808" data-name="Path 5808" d="M96.447,23.59l-2.357.761a41.789,41.789,0,0,1-5.169,35.132l2.055,1.4a43.587,43.587,0,0,0,7.244-20.744A42.969,42.969,0,0,0,96.447,23.59" transform="translate(1.249 0.331)"/>
    <path id="Path_5809" data-name="Path 5809" d="M18.353,55.4l-1.222-2.522-2.3,1L16.149,56.6Z" transform="translate(0.208 0.742)"/>
    <path id="Path_5810" data-name="Path 5810" d="M59.327,39.656c0,1.538.163,1.736,1.7,2.122.793.2,1.586.393,2.38.589,2.073.51,4.217,1.037,6.313,1.619a6,6,0,0,1,4.5,5.909c.025,1.811.021,3.623.017,5.434l-.005,3.027h2.513c0-.02,0-.04,0-.059,0-.845,0-1.686.007-2.527.01-1.966.02-4-.03-5.992a8.426,8.426,0,0,0-6.137-8.137c-1.482-.46-3.024-.842-4.517-1.211-.916-.226-1.831-.453-2.744-.7-.155-.042-1.514-.432-1.425-1.231a2.884,2.884,0,0,1,.794-1.733,7.95,7.95,0,0,0,2.854-6.079c.032-4.338.031-7.845,0-11.034a10.6,10.6,0,0,0-7.023-9.781,10.439,10.439,0,0,0-9.513,1.248,10.325,10.325,0,0,0-4.577,8.315c-.045,1.738-.037,3.513-.026,5.228.01,1.654.018,3.365-.022,5.049a8.511,8.511,0,0,0,3.1,7.237,2.064,2.064,0,0,1,.59,1.65c-.062.762-1.224,1.076-1.236,1.078-1.059.281-2.125.547-3.191.812-1.228.305-2.459.612-3.681.941a8.431,8.431,0,0,0-6.57,6.822,16.558,16.558,0,0,0-.206,3.4c0,.392.005.785,0,1.175-.02,1.406-.014,2.815-.009,4.232l0,1.267h2.528V56.338c0-1.947,0-3.866,0-5.784.011-3.745,1.723-5.91,5.378-6.815q4.028-1,8.05-2.009c1.254-.318,1.495-.632,1.5-1.976,0-.275,0-.55-.007-.824-.008-.539-.017-1.079.018-1.616a1.989,1.989,0,0,0-1.082-2.064,5.305,5.305,0,0,1-2.654-4.81l-.01-2.469c-.014-2.671-.028-5.433.024-8.152a8.046,8.046,0,0,1,16.093.012c.061,3.022.04,6.092.019,9.061l-.01,1.562c-.012,2.056-.727,3.554-2.069,4.331a3.179,3.179,0,0,0-1.66,3.6,5.907,5.907,0,0,1,.019.9c0,.124-.007.246-.007.369" transform="translate(0.466 0.13)" fill="#ffca0a"/>
  </g>
</svg>
