<svg xmlns="http://www.w3.org/2000/svg" xmlns:xlink="http://www.w3.org/1999/xlink" width="110.476" height="110.521" viewBox="0 0 110.476 110.521">
  <defs>
    <clipPath id="clip-path">
      <rect id="Rectangle_2532" data-name="Rectangle 2532" width="110.476" height="110.521" transform="translate(0 0)" fill="none"/>
    </clipPath>
  </defs>
  <g id="Group_1353" data-name="Group 1353" transform="translate(-243 -1258.311)">
    <g id="Group_1309" data-name="Group 1309" transform="translate(243 1258.311)">
      <g id="Group_1309-2" data-name="Group 1309" clip-path="url(#clip-path)">
        <path id="Path_5795" data-name="Path 5795" d="M24.149,108.8a1.936,1.936,0,0,0,.343,1.377,1.879,1.879,0,0,0,1.34.342q10.17.008,20.343,0c1.182,0,1.483-.25,1.7-1.406l1.1-5.954c.924-4.994,1.849-9.987,2.731-14.989.992-5.633-.3-10.4-3.847-14.173C42.5,68.3,36.911,62.642,31.5,57.171l-2.465-2.5a5.013,5.013,0,0,0-5.464-1.232,5.385,5.385,0,0,0-3.5,3.665,5.293,5.293,0,0,0,1.116,4.924c1.712,2,3.523,3.973,5.275,5.884q1.221,1.332,2.437,2.671l.919,1.009c.832.91,1.692,1.85,2.5,2.813a2.64,2.64,0,0,1-.215,3.664,2.669,2.669,0,0,1-3.663.016,5.27,5.27,0,0,1-.463-.47l-3.5-3.812q-4.221-4.6-8.468-9.181a7.922,7.922,0,0,1-2.138-5.17C13.453,52.9,12.969,46.12,12.4,38.743a6.156,6.156,0,0,0-5.606-5.621A6.242,6.242,0,0,0,.337,37.339c-.075.214-.165.422-.255.63L0,38.16V48.513c.013.129.031.3.049.466.041.38.081.76.087,1.141l.059,4.219c.062,4.323.126,8.793.134,13.191A14.515,14.515,0,0,0,4.3,77.574c3.838,4.27,7.7,8.641,11.446,12.868q3.486,3.939,6.978,7.871a5.516,5.516,0,0,1,1.477,3.968c-.044,1.692-.045,3.384-.045,5.077Zm-.234-12.813c-3.773-4.167-7.559-8.448-11.22-12.588q-3.423-3.872-6.858-7.732a11.7,11.7,0,0,1-3.089-8c-.052-6.2-.138-12.4-.224-18.6q-.064-4.623-.124-9.244a3.891,3.891,0,0,1,2.392-4.01,3.785,3.785,0,0,1,5.218,3.228c.259,3.112.478,6.227.7,9.342l.153,2.16c.091,1.269.175,2.539.26,3.809.14,2.093.279,4.186.445,6.277a8.228,8.228,0,0,0,2.161,5.027l1.187,1.3c3.773,4.124,7.676,8.39,11.548,12.552a5.1,5.1,0,1,0,7.5-6.9q-2.674-2.98-5.373-5.943-2.573-2.832-5.133-5.674a4.688,4.688,0,0,1-1.031-1.726,2.847,2.847,0,0,1,1.4-3.3,2.907,2.907,0,0,1,3.546.464c1.376,1.355,2.723,2.737,4.07,4.121l.9.922q2.019,2.066,4.024,4.142c2.8,2.891,5.7,5.88,8.6,8.764a14.576,14.576,0,0,1,4.264,14c-.808,4.161-1.565,8.406-2.3,12.511q-.522,2.934-1.053,5.868c-.041.227-.1.451-.167.683l-.172.651H26.586v-.45c0-.464-.008-.923-.017-1.379-.019-.99-.039-2.013.038-3.016a9.23,9.23,0,0,0-2.692-7.246"/>
        <path id="Path_5796" data-name="Path 5796" d="M22.258,1.629c1.4,3.383,2.726,6.478,4.043,9.461a1.032,1.032,0,0,0,1.439.546,1.112,1.112,0,0,0,.734-1.417,2.968,2.968,0,0,0-.215-.6L27.41,7.609c-.873-2.062-1.774-4.2-2.7-6.272a4.409,4.409,0,0,0-.72-1C23.893.224,23.8.113,23.7,0h-.733c-.944.659-.9,1.172-.714,1.629" fill="#ffca0a"/>
        <path id="Path_5797" data-name="Path 5797" d="M85.783.819c-1.333,3.018-2.649,6.1-3.914,9.163a1.329,1.329,0,0,0,.017,1.143,1.092,1.092,0,0,0,.763.561c.479.1,1.081.079,1.519-.957l3.6-8.485C88.283,1.021,88.254.77,87.308,0h-.745c-.077.073-.157.144-.238.215a2.118,2.118,0,0,0-.542.6" fill="#ffca0a"/>
        <path id="Path_5798" data-name="Path 5798" d="M102.317,81.891c1.664-1.854,3.385-3.771,5-5.712a11.376,11.376,0,0,0,2.561-5.762,29.757,29.757,0,0,0,.241-3.733l.038-2.535c.12-8.046.245-16.366.316-24.55a6.446,6.446,0,0,0-2.378-5.171,6.21,6.21,0,0,0-5.367-1.132c-2.741.662-4.515,2.958-4.747,6.141C97.4,47.5,96.975,53.652,96.616,59.4a8.159,8.159,0,0,1-2.257,5.353c-2.762,2.944-5.537,5.97-8.221,8.9q-1.788,1.95-3.579,3.9a5.409,5.409,0,0,1-.771.732,2.674,2.674,0,0,1-3.835-3.6,7.043,7.043,0,0,1,.744-.913l3.619-3.986q3.376-3.717,6.739-7.446a5.49,5.49,0,0,0-.141-7.695,5.313,5.313,0,0,0-3.675-1.513,5.722,5.722,0,0,0-4.079,1.81l-1.775,1.81C74,62.232,68.43,67.909,63,73.54a15.555,15.555,0,0,0-4.353,13.613c.819,5.286,1.832,10.636,2.812,15.811q.588,3.1,1.164,6.2c.2,1.1.506,1.349,1.627,1.35q10.227.009,20.454,0a1.8,1.8,0,0,0,1.285-.35,1.851,1.851,0,0,0,.35-1.323q-.011-3.371-.061-6.74a5.073,5.073,0,0,1,1.385-3.677c.657-.715,1.3-1.446,1.939-2.176l2.61-2.945c1.683-1.887,3.422-3.837,5.077-5.8a2.01,2.01,0,0,0,.314-1.474,1.464,1.464,0,0,0-.785-.613,2.291,2.291,0,0,0-1.416.7c-1.1,1.206-2.175,2.436-3.249,3.666-1.668,1.91-3.391,3.884-5.194,5.731a10.148,10.148,0,0,0-3.109,8.6,19.765,19.765,0,0,1,.039,2.419c-.01.365-.019.733-.019,1.1v.45H64.966l-.176-.582a3.929,3.929,0,0,1-.136-.492q-.523-2.877-1.029-5.758c-.734-4.142-1.494-8.425-2.332-12.617a14.942,14.942,0,0,1,4.483-14.554c2.859-2.793,5.685-5.72,8.417-8.551q1.875-1.942,3.757-3.876l1.255-1.288c1.279-1.313,2.557-2.627,3.86-3.915a2.928,2.928,0,0,1,3.646-.469A2.848,2.848,0,0,1,88.069,59.2a4.985,4.985,0,0,1-1.083,1.817q-4.252,4.741-8.542,9.446l-1.9,2.091a4.961,4.961,0,0,0-1.38,4.317A5.106,5.106,0,0,0,83.9,79.616c3.879-4.166,8-8.643,12.957-14.091a7.267,7.267,0,0,0,1.957-4.32c.234-2.675.427-5.354.62-8.033l.465-6.427c.184-2.59.368-5.181.584-7.769a3.815,3.815,0,0,1,6.073-2.692,4.435,4.435,0,0,1,1.512,3.594l-.13,10.483q-.111,8.738-.208,17.475a11.3,11.3,0,0,1-2.925,7.629q-2.427,2.714-4.824,5.456a1.536,1.536,0,0,0-.449,1.091,1.113,1.113,0,0,0,.427.769,1.164,1.164,0,0,0,1.774-.239Z"/>
        <path id="Path_5799" data-name="Path 5799" d="M82.556,21.94a5.546,5.546,0,0,0-4.722-3.9l-1.053-.163c-2.856-.444-5.808-.9-8.72-1.276a4,4,0,0,1-3.331-2.438c-.6-1.249-1.215-2.49-1.831-3.731-.738-1.484-1.475-2.969-2.183-4.468-1.235-2.617-3.053-3.892-5.558-3.9h-.013c-2.52,0-4.34,1.261-5.567,3.855C48.806,7.555,48,9.171,47.2,10.788c-.584,1.173-1.168,2.346-1.739,3.525a3.806,3.806,0,0,1-3.089,2.268c-3.592.494-6.831.947-10.094,1.486a5.788,5.788,0,0,0-4.53,3.718,5.725,5.725,0,0,0,.962,5.714c.4.48,1.189,1.194,2,.564.758-.585.365-1.43-.1-2.037a3.387,3.387,0,0,1,2.255-5.613c3.48-.539,6.683-1.01,9.792-1.438a6.156,6.156,0,0,0,5-3.681c.717-1.49,1.451-2.972,2.184-4.454.664-1.342,1.329-2.684,1.981-4.032a3.551,3.551,0,0,1,3.3-2.328h.005a3.561,3.561,0,0,1,3.305,2.335c1.184,2.451,2.392,4.892,3.6,7.332l.664,1.34a5.927,5.927,0,0,0,4.8,3.458c1.585.218,3.166.457,4.748.7,1.606.242,3.213.484,4.822.7A3.5,3.5,0,0,1,80.3,22.779a3.576,3.576,0,0,1-1.231,3.852Q77.548,28.1,76.04,29.59c-1.271,1.246-2.541,2.492-3.827,3.722a6.147,6.147,0,0,0-1.831,5.934c.4,2.246.789,4.5,1.174,6.746L72,48.565a3.475,3.475,0,0,1-1.379,3.817,3.542,3.542,0,0,1-3.948.012c-.989-.531-1.988-1.047-2.985-1.563-1.615-.836-3.285-1.7-4.895-2.616a6.741,6.741,0,0,0-7.26-.015c-1.963,1.125-4.007,2.176-5.984,3.191-.732.377-1.465.753-2.195,1.134a3.4,3.4,0,0,1-3.754-.184,3.3,3.3,0,0,1-1.359-3.392q.178-1.128.368-2.256l1.423-8.37a6.013,6.013,0,0,0-1.644-4.664c-1.137-1.158-2.314-2.3-3.328-3.27-.417-.4-1.223-.961-1.946-.219-.748.768-.056,1.617.276,1.947.64.635,1.287,1.263,1.935,1.891L36.5,35.152a3.592,3.592,0,0,1,1.074,3.373c-.4,2.244-.805,4.489-1.175,6.738-.064.385-.135.77-.208,1.156a17.655,17.655,0,0,0-.406,3.281,5.589,5.589,0,0,0,2.686,4.82,5.927,5.927,0,0,0,5.777.23c2.571-1.268,5.265-2.682,8.737-4.583a4.432,4.432,0,0,1,2.152-.6,4.525,4.525,0,0,1,2.18.609c3.237,1.759,6.1,3.261,8.74,4.592a5.467,5.467,0,0,0,6.012-.471,5.333,5.333,0,0,0,2.36-5.433c-.434-2.973-.963-6.134-1.666-9.949a4.1,4.1,0,0,1,1.273-4.035c2.577-2.441,4.893-4.7,7.079-6.9a5.507,5.507,0,0,0,1.443-6.038" fill="#ffca0a"/>
        <path id="Path_5800" data-name="Path 5800" d="M100.394,13.561a2.417,2.417,0,0,0-.718.125c-1.433.458-2.862.928-4.291,1.4l-2.736.894c-.952.306-1.9.612-2.845.951a1.064,1.064,0,0,0-.76,1.3c.07.389.271.91,1.205.994l.146-.028a4.028,4.028,0,0,0,.514-.117L92,18.724c2.832-.923,5.665-1.846,8.49-2.789a1.609,1.609,0,0,0,.982-.734,1.047,1.047,0,0,0,.031-.827,1.081,1.081,0,0,0-1.105-.813" fill="#ffca0a"/>
        <path id="Path_5801" data-name="Path 5801" d="M19.982,16.742q-4.634-1.523-9.273-3.028c-.2-.065-.409-.115-.607-.164l-.19-.048c-.92.148-1.11.639-1.172,1a1.147,1.147,0,0,0,.925,1.4q4.786,1.578,9.58,3.134c1.387.451,1.773-.155,1.94-.649a1.031,1.031,0,0,0-.017-.821,1.942,1.942,0,0,0-1.186-.823" fill="#ffca0a"/>
        <path id="Path_5802" data-name="Path 5802" d="M14.642,30.574a1.185,1.185,0,1,0,.744,2.249c2.06-.687,4.491-1.52,6.906-2.487a1.813,1.813,0,0,0,.61-.687c.042-.066.083-.128.121-.184a1.589,1.589,0,0,0-.6-1.19,1.018,1.018,0,0,0-.586-.185,1.174,1.174,0,0,0-.365.061c-2.064.687-4.3,1.48-6.829,2.423" fill="#ffca0a"/>
        <path id="Path_5803" data-name="Path 5803" d="M89.465,28.361l-.171-.061a2.731,2.731,0,0,0-.875-.171,1.076,1.076,0,0,0-1.093.751,1.043,1.043,0,0,0,0,.825,1.9,1.9,0,0,0,1.14.862c1.943.7,3.893,1.383,5.843,2.066l.18.063c.2.07.408.121.578.162l.137.034c.9-.063,1.118-.46,1.213-.881a1.123,1.123,0,0,0-.808-1.451c-2.042-.753-4.094-1.476-6.147-2.2" fill="#ffca0a"/>
      </g>
    </g>
  </g>
</svg>
