<svg xmlns="http://www.w3.org/2000/svg" xmlns:xlink="http://www.w3.org/1999/xlink" width="107.579" height="110.204" viewBox="0 0 107.579 110.204">
  <defs>
    <clipPath id="clip-path">
      <rect id="Rectangle_2534" data-name="Rectangle 2534" width="107.579" height="110.204" transform="translate(0 0)" fill="none"/>
    </clipPath>
  </defs>
  <g id="Group_1312" data-name="Group 1312" transform="translate(0 0)">
    <g id="Group_1311" data-name="Group 1311" clip-path="url(#clip-path)">
      <path id="Path_5814" data-name="Path 5814" d="M75.5,40.9c2.056,0,4.109.008,6.162-.006a7.686,7.686,0,0,0,5.556-2.2c6.415-6.342,12.891-12.841,19.152-19.126l.191-.192a2.562,2.562,0,0,0,.846-2.912,2.742,2.742,0,0,0-2.644-1.719q-4.425-.435-8.849-.88c-1.476-.147-2.052-.728-2.2-2.22q-.133-1.332-.278-2.662c-.2-1.852-.4-3.768-.539-5.66A3.7,3.7,0,0,0,91.03,0H89.793c-.2.134-.4.262-.607.39A7.835,7.835,0,0,0,87.8,1.4Q79.7,9.442,71.641,17.531L69.3,19.874a8.556,8.556,0,0,0-2.637,6.362c0,.749.011,1.5.018,2.247.022,2.471.047,5.027-.067,7.541a3.614,3.614,0,0,0,.189,1.065,2.612,2.612,0,0,1-.2,2.481,20.291,20.291,0,0,1-2.268,2.379l-.19.179c-1.324,1.248-2.664,2.479-4.02,3.724L58.156,47.66l-.33-.231a15.406,15.406,0,0,0-8.91-2.886A15.75,15.75,0,0,0,36.5,50.71,15.458,15.458,0,0,0,57.955,72.521a14.84,14.84,0,0,0,5.925-9.009A15.471,15.471,0,0,0,60.9,50.388l-.258-.342,1.95-2.011c2.2-2.267,4.373-4.508,6.567-6.729a1.837,1.837,0,0,1,1.329-.41c1.671-.007,3.342,0,5.012,0m-17.9,28a12.489,12.489,0,0,1-8.8,3.61,12.331,12.331,0,0,1-8.21-3.1,12.437,12.437,0,0,1,15.272-19.58l.49.335-8.02,8.259a7.59,7.59,0,0,0-.675.75,1.485,1.485,0,0,0,.16,1.986,1.428,1.428,0,0,0,1.907.055c.4-.353.773-.739,1.165-1.147.319-.333.639-.667.976-.981,1.573-1.461,3.155-2.909,4.73-4.352l2.169-1.989.338.384c3.513,4,2.8,11.52-1.5,15.773M92.059,17.663a2.8,2.8,0,0,1,2.92-.964,45.706,45.706,0,0,0,4.892.568c.687.056,1.374.111,2.058.178l1.8.178-.524.708c-.069.093-.129.18-.183.26a3.427,3.427,0,0,1-.387.492L98.9,22.824c-4.4,4.412-8.941,8.974-13.477,13.4a6.209,6.209,0,0,1-3.549,1.636c-1.123.094-2.247.121-3.395.121-.761,0-1.532-.011-2.32-.024-.817-.012-1.652-.025-2.511-.025H72.528l1.12-1.248c.209-.235.366-.411.53-.581l4.694-4.829q6.606-6.792,13.187-13.606M69.633,35.678V35c0-.89-.01-1.773-.02-2.651-.025-2.26-.048-4.395.085-6.574a5.894,5.894,0,0,1,1.517-3.5c4.5-4.607,9.132-9.225,13.614-13.692l3.919-3.907a1.273,1.273,0,0,1,.3-.211l.879-.534.248,2.41c.127,1.243.25,2.457.39,3.669.062.549.139,1.1.216,1.644.089.632.178,1.263.246,1.9a1.614,1.614,0,0,1-.339,1.236Q80.776,25.031,70.819,35.243a.718.718,0,0,1-.381.192Z" fill="#ffca0a"/>
      <path id="Path_5815" data-name="Path 5815" d="M92.912,40.818l-.174.208a16.322,16.322,0,0,1-1.526,1.67.756.756,0,0,0-.241,1.091,44.361,44.361,0,0,1,2.846,25.557c-2.394,13.1-9.11,23.259-19.963,30.2-15.154,9.7-30.8,10.4-46.513,2.076C12.869,93.954,4.78,81.656,3.3,65.071a43.517,43.517,0,0,1,11.487-34.12A44.717,44.717,0,0,1,47.519,15.713a45.221,45.221,0,0,1,15.442,2.192,1.169,1.169,0,0,0,.57.033c.572-.62,1.167-1.346,1.742-2.048l.184-.223a47.244,47.244,0,0,0-16.566-2.932,48.674,48.674,0,0,0-32.7,84.818A48.37,48.37,0,0,0,79.762,99c19.383-16,21.27-41.206,13.15-58.181"/>
      <path id="Path_5816" data-name="Path 5816" d="M16.547,65.587A32.8,32.8,0,0,0,56.962,91.794a32.935,32.935,0,0,0,24.527-29.4,31.9,31.9,0,0,0-2.576-15.215,1.405,1.405,0,0,0-.418-.561c-.862-.056-1.8-.047-2.778-.036l-.357,0a29.647,29.647,0,0,1,2.348,20.6A29.141,29.141,0,0,1,65.5,84.685,29.75,29.75,0,0,1,21.34,48.654,28.825,28.825,0,0,1,33.452,34.616c8.618-5.1,17.874-5.692,27.519-1.767l0-.369c-.008-.838-.015-1.629.022-2.421.015-.329-.028-.43-.457-.59a33.247,33.247,0,0,0-11.7-2.178A32.128,32.128,0,0,0,40.5,28.4,32.465,32.465,0,0,0,16.547,65.587"/>
    </g>
  </g>
</svg>
