<svg xmlns="http://www.w3.org/2000/svg" xmlns:xlink="http://www.w3.org/1999/xlink" width="111.007" height="109.32" viewBox="0 0 111.007 109.32">
  <defs>
    <clipPath id="clip-path">
      <rect id="Rectangle_2535" data-name="Rectangle 2535" width="111.007" height="109.32" transform="translate(0 0)" fill="none"/>
    </clipPath>
  </defs>
  <g id="Group_1314" data-name="Group 1314" transform="translate(0 0)">
    <g id="Group_1313" data-name="Group 1313" clip-path="url(#clip-path)">
      <path id="Path_5817" data-name="Path 5817" d="M118.994,46.239c.1-.7-8.1-1.4-7.987-2.09V38.505a1.483,1.483,0,0,1-.059-.211,4.788,4.788,0,0,1-.131-.706,39.006,39.006,0,0,0-2.441-10.7A41.623,41.623,0,0,0,82.3,1.977a41.184,41.184,0,0,0-35.348,4.9C35.744,14.214,29.5,24.889,28.394,38.6a31.307,31.307,0,0,0-.038,3.2c.01.5.022,1,.022,1.5v.4l-.846,0c-.207,0-.344,0-.484,0-.084,0-.167,0-.251,0a6.8,6.8,0,0,0-4.734,1.764,6.7,6.7,0,0,0-2.016,4.83c-.028,1.146-.02,2.312.023,3.467a11.091,11.091,0,0,0,2.557,6.666c.33.409.694.791,1.072,1.191.183.193.37.39.559.6l.437.475-.976.28c-.225.063-.43.12-.632.186C13.846,66.167,8.445,72.389,7.032,81.642a45.8,45.8,0,0,0-.288,7.632c.016.85.032,1.7.032,2.546a1.892,1.892,0,0,1-1.51,2.116,7.817,7.817,0,0,0-5.192,8.4A7.9,7.9,0,0,0,7.26,109.25c2.236.092,4.519.072,6.729.056.88-.008,10.068-.012,10.949-.013a1.137,1.137,0,0,0,1.228-.911,1.11,1.11,0,0,0-.148-1,1.628,1.628,0,0,0-1.319-.545c-1.244-.01-10.794-.009-12.037-.007-1.595,0-3.192.006-4.789-.015a5.446,5.446,0,0,1-.389-10.873c1.423-.132,1.732-.468,1.736-1.887,0-1.128,0-2.255,0-3.383-.007-2.113-.013-4.226.022-6.338A19.846,19.846,0,0,1,23.581,65.591c3.521-1.038,7.136-.909,10.633-.784l.33.012C42.6,65.1,48.569,68.936,52.3,76.208a8.973,8.973,0,0,1,.435,1.067c.064.18.133.37.211.573l.21.543h-.583c-.653,0-1.288,0-1.911-.006-1.346-.008-2.634-.016-3.921.015a5.856,5.856,0,0,0-5.453,4.181,6.028,6.028,0,0,0,1.639,6.195l.238.247-.208.273c-2.6,3.406-2.6,5.282-.006,9.13l.181.27-.227.233c-2,2.057-2.4,4.458-1.21,7.341l.227.553H35.693q-6.033,0-12.065.005a1.8,1.8,0,0,0-1.291.407,1.139,1.139,0,0,0-.3.844c0,.52.172,1.211,1.615,1.216q2.532.011,5.066,0H43.784q17.936,0,35.865,0a5.949,5.949,0,0,0,6.168-4.778,5.808,5.808,0,0,0-1.538-5.358l-.184-.186.1-.243c.2-.51.431-1,.654-1.471a9.869,9.869,0,0,0,1-2.78,5.719,5.719,0,0,0-1.315-4.552,6.235,6.235,0,0,0-4.648-2.081c-1.58-.024-3.159-.017-4.71-.011l-2.51,0,.776-5.211,2.706-.4c16.172-2.324,30.377-15.57,33.776-31.494.318-1.483.546-3.016.768-4.5M31.694,62.31a10.452,10.452,0,0,1-1.1-.059,9.216,9.216,0,0,1-8.062-8.8c-.015-.329-.011-.66-.006-.991l.022-.844c0-.1,0-.2-.007-.307a12.777,12.777,0,0,1,.027-1.622,3.974,3.974,0,0,1,3.852-3.525A3.926,3.926,0,0,1,30.41,49.5l.018.113c.245,1.572.766,1.763,1.323,1.757.526-.017,1.041-.237,1.261-1.732a3.937,3.937,0,0,1,3.863-3.477,3.876,3.876,0,0,1,3.935,3.3,21.551,21.551,0,0,1-.188,5.743,8.912,8.912,0,0,1-8.928,7.1M45.6,81.162a5.154,5.154,0,0,1,1.844-.292c2.447-.018,4.892-.016,7.339-.013l2.879.007,2.526,0c2.37,0,4.741-.008,7.111.015a3.468,3.468,0,0,1,1.019,6.78,4,4,0,0,1-1.189.174q-5.317.007-10.635.009-4.718,0-9.434-.012a3.472,3.472,0,0,1-1.46-6.664M44.594,91.287a4.211,4.211,0,0,1,2.842-.971c1.476-.009,2.953-.007,4.5-.005l2.759,0-.256.565A6.43,6.43,0,0,0,54.4,96.66l.226.477-.52.089c-.1.017-.188.036-.272.054a2.837,2.837,0,0,1-.556.077l-.786,0q-1.375.007-2.751.009c-.787,0-1.573,0-2.36-.013-2.3-.028-3.861-1.43-3.876-3.489a3.326,3.326,0,0,1,1.085-2.581m9.479,15.5c-.791,0-1.569.007-2.337.016s-1.508.016-2.246.016c-1.025,0-2.034-.016-3.051-.068a3.457,3.457,0,0,1,.16-6.854c1.7-.057,3.382-.046,5.156-.033.748.006,1.506.011,2.275.011h.615l-.248.561a6.481,6.481,0,0,0,.036,5.774l.282.577Zm25.675.033q-2.1.012-4.193.01l-2.866,0-3.268-.007-2.516,0c-2.408,0-4.819.007-7.23-.013a3.47,3.47,0,0,1-1.508-6.6,4.4,4.4,0,0,1,1.741-.352q9.927-.031,19.852-.006A3.794,3.794,0,0,1,82.5,100.9a3.392,3.392,0,0,1,.943,2.491,3.462,3.462,0,0,1-3.7,3.422M72.994,90.311c2.28,0,4.559-.007,6.838.014a3.52,3.52,0,0,1,3.56,2.8,3.453,3.453,0,0,1-2.084,3.916,5.625,5.625,0,0,1-1.951.313q-5.363.018-10.723.014h-8.37c-.172,0-.259,0-.345,0a3.527,3.527,0,1,1,.051-7.04c2.334-.015,4.665-.012,7-.009l2.934,0Zm30.724-30.275a38.144,38.144,0,0,1-27.679,19.7c-.282.044-.565.08-.848.117-.328.042-.657.084-.982.138a8.122,8.122,0,0,1-1.345.129,4.217,4.217,0,0,1-2.636-.869,5.754,5.754,0,0,0-3.058-.832c-2.175-.094-4.4-.073-6.545-.053l-1.947.016h-.04a3.638,3.638,0,0,1-3.8-2.457A21.871,21.871,0,0,0,40.092,63.094c-.146-.041-.29-.09-.448-.143l-.786-.261,3.522-4.235.648.908c.254.363.516.736.8,1.093,8.668,10.929,19.635,15.031,32.59,12.2,13.278-2.9,21.78-11.526,24.589-24.933,2.45-11.691-.993-21.944-10.232-30.474a1.783,1.783,0,0,0-1.228-.587,1.14,1.14,0,0,0-.792.42,1.107,1.107,0,0,0-.326.815,1.8,1.8,0,0,0,.693,1.174,29.578,29.578,0,0,1,9.463,16.109c.216.994.347,1.991.486,3.046.063.487.128.983.2,1.493l.068.459-1.647,0c-.807,0-1.543-.007-2.28.009-.6.012-1.328.221-1.37,1.145a1.225,1.225,0,0,0,1.327,1.3c.747.035,1.494.027,2.242.018.333,0,.666-.007,1-.007H99l.007.394c.194,12.509-11.148,27.036-27.735,27.881l-.421.021,0-1.37c0-.721,0-1.442,0-2.163,0-.609-.17-1.631-1.219-1.632h0c-1.1,0-1.241,1.138-1.249,1.627-.01.548-.013,1.1-.016,1.643l-.008,1.192a.881.881,0,0,1-.082.317c-.027.069-.065.168-.119.318l-.117.332-.344-.074c-.73-.157-1.47-.295-2.213-.434a40.259,40.259,0,0,1-4.934-1.141,28.911,28.911,0,0,1-16.706-13.66,4.226,4.226,0,0,1-.462-1.917c-.03-.732-.019-1.466-.008-2.2.009-.578.018-1.156.005-1.733A6.644,6.644,0,0,0,40.965,45.1,3.935,3.935,0,0,1,40.2,44.01c-.086-.158-.171-.316-.265-.465l-.164-.259.588-.637,1.142,0c.721,0,1.443.008,2.165-.008a1.805,1.805,0,0,0,1.291-.475,1.09,1.09,0,0,0,.292-.821c-.039-1.005-1.009-1.165-1.584-1.17-.726-.008-1.452-.006-2.179,0H40.12l.015-.413C40.7,23.321,54.984,12.111,67.977,11.956l.405,0,0,1.329c0,.7,0,1.4.005,2.1.01.73.234,1.6,1.245,1.6h.011c.514,0,1.2-.175,1.213-1.62.007-.663.005-1.327,0-2.075l0-1.586.459.068c.507.076,1.01.133,1.5.189a18.31,18.31,0,0,1,3.2.557c1.527.459,3.043,1.027,4.508,1.575.922.346,1.845.691,2.775,1.012a2.28,2.28,0,0,0,1.47.178,1.661,1.661,0,0,0,.686-1.028c.079-.334.052-.779-.86-1.255A31.27,31.27,0,0,0,68.624,9.325a31.951,31.951,0,0,0-30.476,26,32.876,32.876,0,0,0-.46,4.558c-.036.67-.073,1.341-.126,2.008a8.353,8.353,0,0,0-.011.857l.007.872-.392.008a6.982,6.982,0,0,0-5.236,2.376l-.462.495-.21-.643c-.052-.158-.1-.3-.153-.421a2.525,2.525,0,0,1-.212-.764c-.885-12.91,3.389-23.711,12.7-32.1a38.467,38.467,0,0,1,34.118-9.25,38.886,38.886,0,0,1,27.625,22.655,38.281,38.281,0,0,1-1.623,34.059"/>
      <path id="Path_5818" data-name="Path 5818" d="M33.275,90.023h-.019a5.5,5.5,0,0,0,.02,11.008h.016a5.427,5.427,0,0,0,5.463-5.508,5.494,5.494,0,0,0-1.621-3.894,5.423,5.423,0,0,0-3.859-1.606m2.144,7.646a2.986,2.986,0,0,1-2.139.88h0a3.012,3.012,0,0,1-2.155-.9,2.97,2.97,0,0,1-.871-2.133,3.067,3.067,0,0,1,2.951-3.01,2.993,2.993,0,0,1,2.134.838,3.063,3.063,0,0,1,.942,2.16,3,3,0,0,1-.857,2.165" fill="#ffca0a"/>
      <path id="Path_5819" data-name="Path 5819" d="M20.278,76.467h-.025a5.52,5.52,0,0,0-5.5,5.477,5.494,5.494,0,0,0,5.46,5.527h.022a5.5,5.5,0,0,0,.044-11m2.05,7.694a2.987,2.987,0,0,1-2.087.829h-.076a2.968,2.968,0,0,1-2.108-.939,3,3,0,0,1-.816-2.188,3.04,3.04,0,0,1,3-2.918h.021a2.966,2.966,0,0,1,2.114.9,3.038,3.038,0,0,1,.864,2.184,3,3,0,0,1-.915,2.135" fill="#ffca0a"/>
      <path id="Path_5820" data-name="Path 5820" d="M23.407,98.6q4.625-9.49,9.229-18.99a5.792,5.792,0,0,0,.27-.7l.068-.195c-.1-.94-.527-1.169-.938-1.267a1.59,1.59,0,0,0-.366-.047c-.508,0-.867.317-1.218,1.038q-2.474,5.1-4.957,10.2l-4.319,8.887c-.469.967-.351,1.644.353,2.012a1.113,1.113,0,0,0,.884.114,1.912,1.912,0,0,0,.994-1.057" fill="#ffca0a"/>
      <path id="Path_5821" data-name="Path 5821" d="M75.188,25.8A5.509,5.509,0,0,0,69.7,20.045h-.077a5.446,5.446,0,0,0-5.531,5.5c-.089,5.433-.087,10.786,0,15.912A5.316,5.316,0,0,0,69.432,46.9c3.457.094,6.936.094,10.34,0a5.444,5.444,0,0,0,5.343-5.633,5.534,5.534,0,0,0-5.6-5.42c-.855-.01-1.712-.008-2.608-.005l-1.716,0,0-3.445c0-2.236.007-4.418-.007-6.6m-8.649.98v-.843a3.134,3.134,0,0,1,1.914-3.175,3.061,3.061,0,0,1,2.858.232,2.968,2.968,0,0,1,1.373,2.466c.058,2.3.045,4.654.033,6.926q-.008,1.461-.009,2.932v.369l-6,.481-.063-.358a2.412,2.412,0,0,1-.1-.6q-.009-4.212,0-8.426M79.356,38.321a3.066,3.066,0,1,1,.1,6.123c-.642.017-1.285.022-1.927.022-.5,0-1,0-1.5-.006l-1.492-.007-1.33.006c-1.123.006-2.244.012-3.366-.01a3.49,3.49,0,0,1-2.49-1.006,2.9,2.9,0,0,1-.793-2.129,3.085,3.085,0,0,1,3.3-2.993q4.743-.025,9.49,0" fill="#ffca0a"/>
    </g>
  </g>
</svg>
