<svg id="Group_1316" data-name="Group 1316" xmlns="http://www.w3.org/2000/svg" xmlns:xlink="http://www.w3.org/1999/xlink" width="96.094" height="109.877" viewBox="0 0 96.094 109.877">
  <defs>
    <clipPath id="clip-path">
      <rect id="Rectangle_2536" data-name="Rectangle 2536" width="96.094" height="109.877" fill="none"/>
    </clipPath>
  </defs>
  <g id="Group_1315" data-name="Group 1315" clip-path="url(#clip-path)">
    <path id="Path_5822" data-name="Path 5822" d="M90.2,109.541a8.164,8.164,0,0,0,5.884-7.617c.005-.176.006-.351.006-.528V79.9q0-32.24,0-64.479a8.085,8.085,0,0,0-5.962-8.165,11.58,11.58,0,0,0-2.768-.317c-1.9-.032-3.8-.026-5.744-.019l-2.894,0,.034-.532c.125-1.947,0-3.942-1.721-5.334A4.625,4.625,0,0,0,73.854,0c-2.861.107-4.179,1.959-4.55,6.39l-.038.458H26.773l0-1.073c0-.407.009-.812-.008-1.217A4.7,4.7,0,0,0,22.082,0h0a4.692,4.692,0,0,0-4.685,4.558c-.014.377-.01.753-.006,1.176l0,1.193-3.924,0c-1.708,0-3.416-.009-5.124.008a8.089,8.089,0,0,0-8.28,8.28c-.018,4-.014,8-.01,12l0,5.108q0,8.928.009,17.856C.08,66.467.095,83.315,0,99.886c-.031,5.533,2.253,8.8,6.982,9.991H89.149l.286-.094c.255-.084.511-.167.768-.242M71.828,7.183c0-.779-.008-1.558.008-2.337a2.229,2.229,0,1,1,4.45-.026c.027,2.362.026,4.554,0,6.7a2.2,2.2,0,0,1-2.2,2.329h-.02a2.223,2.223,0,0,1-2.224-2.4c-.015-.755-.012-1.511-.008-2.266l0-.981ZM19.844,7.137c0-.78-.009-1.561.009-2.34A2.2,2.2,0,0,1,22.045,2.47h.039a2.176,2.176,0,0,1,1.533.6A2.361,2.361,0,0,1,24.3,4.756c.033,2.3.032,4.594,0,6.808A2.358,2.358,0,0,1,23.6,13.25a2.167,2.167,0,0,1-1.519.6h-.051a2.237,2.237,0,0,1-2.181-2.343c-.018-.778-.014-1.558-.009-2.336l0-1.019ZM2.527,15.216A5.628,5.628,0,0,1,8.355,9.4c2.033-.015,4.064-.005,6.1.005l2.137.009a.8.8,0,0,1,.359.1l.468.2-.024.358c-.124,1.781-.014,3.791,1.725,5.192a4.691,4.691,0,0,0,3.18,1.055c2.862-.113,4.179-1.965,4.55-6.392l.038-.458H69.268l.038.459c.368,4.533,1.864,6.443,4.851,6.394,2.938-.049,4.374-2.013,4.657-6.368l.027-.409.6-.085a3.577,3.577,0,0,1,.567-.062l1.645-.005c2.054-.005,4.105-.012,6.156.007a5.635,5.635,0,0,1,5.811,5.838c.014,1.939.01,3.878.007,5.834l0,3.131H2.651l-.073-.678a4.828,4.828,0,0,1-.052-.618l0-1.429c-.006-2.087-.011-4.174,0-6.26M93.576,26.788V76.227l-3.288,0c-2.266,0-4.511-.008-6.757.011l-.693,0a21.139,21.139,0,0,0-3.432.192,7.915,7.915,0,0,0-6.559,7.725c-.036,2.559-.029,5.119-.022,7.678q0,1.68.005,3.36v1.824H8.853c-4.022,0-6.33-2.3-6.33-6.32V26.788ZM75.3,90.809c-.015-2.256-.029-4.588.034-6.885a5.268,5.268,0,0,1,4.721-5.108c2.422-.155,4.879-.121,7.255-.086,1.014.015,2.024.029,3.028.029h1.21L75.31,94.948V93.743q0-1.465-.011-2.934m12.363,16.6q-20.437.006-40.875.006-19.129,0-38.258-.005a5.7,5.7,0,0,1-6.006-5.984c0-.688,0-1.375,0-2.117V97.235l.79.564A9.526,9.526,0,0,0,9.26,99.5h.02c21.155-.025,42.607-.023,63.764.006h.007a3.3,3.3,0,0,0,2.6-1.055q5.566-5.631,11.179-11.214l4.88-4.879a7.265,7.265,0,0,0,.513-.607c.115-.147.246-.312.4-.5l.752-.915.195,1.69a4.934,4.934,0,0,1,.057.629l0,2.69q.007,8.072,0,16.144a5.7,5.7,0,0,1-5.961,5.923"/>
    <path id="Path_5823" data-name="Path 5823" d="M44.094,44.594c.045-2.285.046-4.647,0-7.017a2.939,2.939,0,0,0-2.982-2.925c-.792-.017-1.584-.012-2.376-.008l-1.078,0-1.076,0c-.355,0-.712-.005-1.068-.005q-.656,0-1.309.014a2.935,2.935,0,0,0-2.952,2.954c-.033,2.249-.033,4.575,0,6.914a2.919,2.919,0,0,0,2.929,2.973c2.4.043,4.758.043,7.019,0a2.876,2.876,0,0,0,2.892-2.9m-2.509.4h-7.8V37.181h7.8Z"/>
    <path id="Path_5824" data-name="Path 5824" d="M52.05,37.656c-.031,2.167-.031,4.393,0,6.807A2.931,2.931,0,0,0,55.026,47.5c2.349.037,4.675.036,6.913,0a2.92,2.92,0,0,0,2.956-2.948c.036-2.218.036-4.479,0-6.913a2.944,2.944,0,0,0-3.032-2.983c-.767-.014-1.533-.009-2.3-.006l-1.051,0-1.082,0c-.359,0-.718,0-1.077,0q-.648,0-1.3.011a2.913,2.913,0,0,0-3.011,3m2.543-.467h7.8v7.8h-7.8Z"/>
    <path id="Path_5825" data-name="Path 5825" d="M61.946,55.444c-.786-.021-1.572-.015-2.357-.01l-1.1,0-1.016,0-1.075,0q-.628,0-1.258.007a2.955,2.955,0,0,0-3.1,3.027c-.029,2.3-.029,4.585,0,6.806a2.933,2.933,0,0,0,3,3.016c2.134.03,4.36.031,6.808,0A2.93,2.93,0,0,0,64.9,65.316c.034-2.326.034-4.651,0-6.913a2.941,2.941,0,0,0-2.95-2.959m.411,10.316h-7.8V57.955h7.8Z" fill="#ffca0a"/>
    <path id="Path_5826" data-name="Path 5826" d="M72.838,65.318a2.942,2.942,0,0,0,2.943,2.969c2.166.036,4.427.036,6.914,0a2.923,2.923,0,0,0,2.986-2.92c.046-2.327.046-4.688,0-7.015a2.875,2.875,0,0,0-2.887-2.9c-1.133-.021-2.286-.031-3.474-.031-1.144,0-2.32.009-3.546.028a2.9,2.9,0,0,0-2.936,2.967c-.018.791-.013,1.582-.009,2.373l0,1.079,0,1.083c0,.79-.009,1.58.01,2.369m2.53-7.363h7.808V65.75H75.368Z"/>
    <path id="Path_5827" data-name="Path 5827" d="M31.253,79.216c-.027,2.137-.028,4.363,0,6.806a2.937,2.937,0,0,0,2.963,3.051c2.23.041,4.556.043,6.909,0A2.9,2.9,0,0,0,44.1,86.143c.044-2.37.043-4.73,0-7.016a2.909,2.909,0,0,0-2.91-2.888c-.791-.026-1.582-.019-2.373-.013l-1.073.006-1.113-.006c-.368,0-.736-.006-1.1-.006-.446,0-.894,0-1.34.018a2.912,2.912,0,0,0-2.928,2.978m2.5-.472h7.8v7.8h-7.8Z" fill="#ffca0a"/>
    <path id="Path_5828" data-name="Path 5828" d="M52.049,86.106a2.913,2.913,0,0,0,2.941,2.966c2.483.047,4.778.046,7.015,0a2.912,2.912,0,0,0,2.888-2.9c.04-2.3.04-4.662,0-7.018a2.9,2.9,0,0,0-2.887-2.9c-1.14-.023-2.3-.035-3.495-.035-1.137,0-2.306.011-3.521.032a2.908,2.908,0,0,0-2.941,2.964c-.02.794-.015,1.588-.011,2.382l.005,1.069-.005,1.072c0,.793-.009,1.586.011,2.378m2.524-7.4h7.78v7.84h-7.78Z"/>
    <path id="Path_5829" data-name="Path 5829" d="M72.838,37.7c-.024,2.13-.024,4.321,0,6.7a2.943,2.943,0,0,0,3.028,3.1c2.282.032,4.572.032,6.807,0a2.929,2.929,0,0,0,3.018-3.005c.019-.788.014-1.578.01-2.368l0-1.083,0-1.055c0-.763.008-1.527-.008-2.29a2.963,2.963,0,0,0-3.083-3.045q-1.685-.015-3.371-.015-1.668,0-3.332.015a2.935,2.935,0,0,0-3.066,3.05m2.516-.5h7.8v7.8h-7.8Z" fill="#ffca0a"/>
    <path id="Path_5830" data-name="Path 5830" d="M41.206,55.45c-1.147-.021-2.307-.031-3.5-.031-1.141,0-2.311.009-3.523.028a2.914,2.914,0,0,0-2.932,2.969c-.032,2.328-.032,4.654,0,6.914A2.943,2.943,0,0,0,34.2,68.291c.789.021,1.579.015,2.369.01l1.083-.005,1.059,0c.8,0,1.6.01,2.394-.008A2.943,2.943,0,0,0,44.1,65.368c.044-2.362.044-4.722,0-7.017a2.9,2.9,0,0,0-2.888-2.9m.415,10.293H33.79V57.972h7.831Z"/>
    <path id="Path_5831" data-name="Path 5831" d="M10.461,65.317a2.943,2.943,0,0,0,2.941,2.97c2.122.035,4.384.035,6.913,0A2.92,2.92,0,0,0,23.3,65.37c.046-2.36.046-4.72,0-7.014a2.92,2.92,0,0,0-2.99-2.911c-1.248-.016-2.426-.024-3.548-.024-1.177,0-2.293.009-3.365.026a2.9,2.9,0,0,0-2.933,2.969c-.019.789-.014,1.579-.009,2.368l0,1.083,0,1.069c-.005.794-.01,1.588.01,2.381m2.507-7.355h7.79v7.791h-7.79Z"/>
    <path id="Path_5832" data-name="Path 5832" d="M23.3,44.547c.046-2.513.045-4.807,0-7.011a2.9,2.9,0,0,0-2.917-2.881c-.792-.023-1.585-.017-2.379-.011l-1.07,0-1.061,0c-.368,0-.736,0-1.1,0q-.645,0-1.289.011a2.943,2.943,0,0,0-3.013,3c-.029,2.121-.029,4.347,0,6.8A2.932,2.932,0,0,0,13.434,47.5c2.312.038,4.636.038,6.909,0A2.892,2.892,0,0,0,23.3,44.547m-2.474.409H13V37.179h7.828Z" fill="#ffca0a"/>
    <path id="Path_5833" data-name="Path 5833" d="M10.461,79.282c-.028,2.456-.028,4.68,0,6.8a2.935,2.935,0,0,0,3.014,2.995c2.235.037,4.522.036,6.8,0A2.941,2.941,0,0,0,23.3,86.088c.039-2.383.039-4.7,0-6.9a2.958,2.958,0,0,0-2.968-2.949c-.755-.024-1.513-.018-2.266-.012l-1.072.005-1.038,0c-.376,0-.752,0-1.127,0q-.642,0-1.285.011a3,3,0,0,0-3.082,3.049m2.508-.538H20.76v7.8H12.969Z"/>
    <path id="Path_5834" data-name="Path 5834" d="M61.446,16.743c-.009-.283-.037-1.145-1.5-1.149q-4.361-.01-8.722,0H48.143l-3.365,0-3.366,0q-2.643,0-5.284.01a1.529,1.529,0,0,0-1.243.5,1.146,1.146,0,0,0-.163,1.015c.176.7.618.951,1.686.951h.01q8.058-.01,16.115-.007h7.343a2.441,2.441,0,0,0,.57-.031,1.126,1.126,0,0,0,1-1.281" fill="#ffca0a"/>
  </g>
</svg>
