<svg xmlns="http://www.w3.org/2000/svg" xmlns:xlink="http://www.w3.org/1999/xlink" viewBox="0 0 68.09 265.19"><defs><style>.cls-1{fill:none;}.cls-2{clip-path:url(#clip-path);}.cls-3{fill:#ffd729;}</style><clipPath id="clip-path" transform="translate(0 -2.2)"><rect class="cls-1" x="4.64" y="1.02" width="62.74" height="266.19" transform="translate(-4.67 1.34) rotate(-2.01)"/></clipPath></defs><g id="Layer_2" data-name="Layer 2"><g id="Layer_1-2" data-name="Layer 1"><g id="Group_1157" data-name="Group 1157"><g class="cls-2"><g id="Group_1152-3" data-name="Group 1152-3"><path id="Path_5201-3" data-name="Path 5201-3" class="cls-3" d="M0,2.2C24.35,13.27,57.93,75.4,64.85,120.08,72.33,168.44,67.7,196.36,42.24,254,46,253,49,252.15,52,251.59a56.34,56.34,0,0,1,9.86-1.24c1,0,2.74,1.71,2.92,2.83a4.22,4.22,0,0,1-2,3.5c-9,3.59-18.16,7-27.32,10.29-3.06,1.1-5.36,0-6.28-3.32-3.36-12.3-6.88-24.56-10-36.93-.73-2.91-.05-6.18,0-10.15,8.16,2.9,7.4,9.77,9.69,14.59,2.41,5.09,3.92,10.62,6.25,17.15A150.71,150.71,0,0,0,55.43,199.2c14-62.33-.13-118.88-36-170.73C14.75,21.72,9.3,15.51,4.3,9,2.94,7.23,1.9,5.23,0,2.2" transform="translate(0 -2.2)"/></g></g></g></g></g></svg>