<svg xmlns="http://www.w3.org/2000/svg" xmlns:xlink="http://www.w3.org/1999/xlink" viewBox="0 0 267.46 57.22"><defs><style>.cls-1{fill:none;}.cls-2{clip-path:url(#clip-path);}.cls-3{fill:#ffd729;}</style><clipPath id="clip-path" transform="translate(0 -10.06)"><rect class="cls-1" x="103.68" y="-92.57" width="62.79" height="266.42" transform="translate(85.09 172.54) rotate(-85.99)"/></clipPath></defs><g id="Layer_2" data-name="Layer 2"><g id="Layer_1-2" data-name="Layer 1"><g id="Group_1153" data-name="Group 1153"><g class="cls-2"><g id="Group_1152" data-name="Group 1152"><path id="Path_5201" data-name="Path 5201" class="cls-3" d="M0,62.64c13.57-23.08,78.94-50,124.14-52.18C173.06,8.09,200.36,15.63,255,47c-.53-3.86-1.08-6.87-1.33-9.91a56.91,56.91,0,0,1-.21-9.94c.1-1,2-2.55,3.14-2.61a4.21,4.21,0,0,1,3.26,2.4c2.63,9.37,5.06,18.81,7.38,28.27.77,3.16-.54,5.34-4,5.9-12.6,2.06-25.18,4.27-37.81,6.06-3,.42-6.16-.6-10.11-1.06,3.75-7.81,10.5-6.34,15.54-8.11,5.33-1.86,11-2.79,17.73-4.43A151.1,151.1,0,0,0,201.9,28.14C141.33,7.66,83.56,15.79,28.19,46.06c-7.21,3.94-14,8.72-21,13-1.9,1.16-4,2-7.22,3.56" transform="translate(0 -10.06)"/></g></g></g></g></g></svg>