<svg xmlns="http://www.w3.org/2000/svg" xmlns:xlink="http://www.w3.org/1999/xlink" viewBox="0 0 67.17 266.51"><defs><style>.cls-1{fill:none;}.cls-2{clip-path:url(#clip-path);}.cls-3{fill:#ffd729;}</style><clipPath id="clip-path" transform="translate(-22.67 -6.63)"><rect class="cls-1" x="-79.12" y="105.19" width="266.3" height="62.76" transform="translate(-89.86 166.06) rotate(-80)"/></clipPath></defs><g id="Layer_2" data-name="Layer 2"><g id="Layer_1-2" data-name="Layer 1"><g id="Group_1159" data-name="Group 1159"><g class="cls-2"><g id="Group_1152-4" data-name="Group 1152-4"><path id="Path_5201-4" data-name="Path 5201-4" class="cls-3" d="M61.81,273.15c-21.52-15.9-41.46-83.68-38.92-128.85C25.63,95.42,36,69.07,72.87,18c-3.9.13-7,.37-10,.29a56.7,56.7,0,0,1-9.9-.83c-1-.2-2.33-2.25-2.26-3.38a4.2,4.2,0,0,1,2.72-3C63,9.45,72.66,8,82.3,6.71c3.22-.44,5.25,1.08,5.45,4.55.73,12.74,1.63,25.47,2.08,38.21.11,3-1.23,6.06-2.1,9.94-7.38-4.54-5.21-11.1-6.44-16.29C80,37.63,79.66,31.91,78.74,25A150.76,150.76,0,0,0,48.57,68.85C21.89,126.92,24,185.2,48.27,243.4,51.44,251,55.48,258.18,59,265.6c1,2,1.56,4.18,2.79,7.55" transform="translate(-22.67 -6.63)"/></g></g></g></g></g></svg>