<svg xmlns="http://www.w3.org/2000/svg" xmlns:xlink="http://www.w3.org/1999/xlink" viewBox="0 0 1545.59 501.98"><defs><style>.cls-1{fill:none;}.cls-2{clip-path:url(#clip-path);}.cls-3{opacity:0.2;}.cls-4{clip-path:url(#clip-path-3);}.cls-5{fill:#053366;}.cls-6{clip-path:url(#clip-path-4);}.cls-7{fill:#024778;}.cls-8{fill:#ffd729;}.cls-9{clip-path:url(#clip-path-6);}.cls-10{fill:#fff;}.cls-11{clip-path:url(#clip-path-7);}.cls-12{fill:#fed729;}</style><clipPath id="clip-path" transform="translate(0 -0.01)"><rect class="cls-1" width="1545.59" height="502"/></clipPath><clipPath id="clip-path-3" transform="translate(0 -0.01)"><rect class="cls-1" x="774.95" y="462.61" width="479.81" height="38.44"/></clipPath><clipPath id="clip-path-4" transform="translate(0 -0.01)"><rect class="cls-1" x="295.14" y="462.61" width="479.81" height="38.44"/></clipPath><clipPath id="clip-path-6" transform="translate(0 -0.01)"><rect class="cls-1" y="463.56" width="261.07" height="38.44"/></clipPath><clipPath id="clip-path-7" transform="translate(0 -0.01)"><rect class="cls-1" x="1284.53" y="462.61" width="261.07" height="38.44"/></clipPath></defs><g id="Layer_2" data-name="Layer 2"><g id="Layer_1-2" data-name="Layer 1"><g id="Group_1189" data-name="Group 1189"><g class="cls-2"><g id="Group_1188" data-name="Group 1188"><g id="Group_1179" data-name="Group 1179"><g class="cls-2"><g id="Group_1178" data-name="Group 1178"><g id="Group_1174" data-name="Group 1174" class="cls-3"><g id="Group_1173" data-name="Group 1173"><g class="cls-4"><g id="Group_1172" data-name="Group 1172"><path id="Path_5228" data-name="Path 5228" class="cls-5" d="M775,481.83c0,10.62,107.41,19.22,239.9,19.22s239.9-8.6,239.9-19.22-107.41-19.22-239.9-19.22S775,471.22,775,481.83" transform="translate(0 -0.01)"/></g></g></g></g><g id="Group_1177" data-name="Group 1177" class="cls-3"><g id="Group_1176" data-name="Group 1176"><g class="cls-6"><g id="Group_1175" data-name="Group 1175"><path id="Path_5229" data-name="Path 5229" class="cls-5" d="M295.14,481.83c0,10.62,107.41,19.22,239.9,19.22s239.9-8.6,239.9-19.22S667.53,462.61,535,462.61s-239.9,8.61-239.9,19.22" transform="translate(0 -0.01)"/></g></g></g></g><path id="Path_5230" data-name="Path 5230" class="cls-7" d="M684.1,234a57.61,57.61,0,0,1,25.4,5.55,13.32,13.32,0,0,0,19.07-12V98.91H598.69A13.79,13.79,0,0,1,586,79.82a57.81,57.81,0,1,0-106.9.08,13.76,13.76,0,0,1-7.49,18,13.54,13.54,0,0,1-5.25,1H336.46V447.37a37.32,37.32,0,0,0,37.32,37.32H691.25a37.32,37.32,0,0,0,37.32-37.32v-91.3a13.35,13.35,0,0,0-19.14-12A57.81,57.81,0,1,1,684.1,234" transform="translate(0 -0.01)"/><path id="Path_5231" data-name="Path 5231" class="cls-8" d="M962.56,137.05a57.56,57.56,0,0,1,5.53-25.36,13.36,13.36,0,0,0-12-19.11H827.47V223a13.41,13.41,0,0,1-18.61,12.4,57.8,57.8,0,1,0,.08,106.5,13.41,13.41,0,0,1,18.53,12.43V484.69h348.46a37.32,37.32,0,0,0,37.32-37.32V129.9a37.32,37.32,0,0,0-37.32-37.32h-91.26a13.36,13.36,0,0,0-12,19.17,57.81,57.81,0,1,1-110.11,25.3" transform="translate(0 -0.01)"/></g></g></g><g id="Group_1187" data-name="Group 1187"><g class="cls-2"><g id="Group_1186" data-name="Group 1186"><g id="Group_1182" data-name="Group 1182" class="cls-3"><g id="Group_1181" data-name="Group 1181"><g class="cls-9"><g id="Group_1180" data-name="Group 1180"><path id="Path_5232" data-name="Path 5232" class="cls-5" d="M0,482.78C0,493.39,58.44,502,130.53,502s130.54-8.61,130.54-19.22-58.44-19.22-130.54-19.22S0,472.16,0,482.78" transform="translate(0 -0.01)"/></g></g></g></g><path id="Path_5233" data-name="Path 5233" class="cls-7" d="M247.49,217.78h0l.13.06a9,9,0,0,0,7.72-.57,6.16,6.16,0,0,0,2.67-3.75c.41-1.39,1.33-5.9,3.81-4.58a.34.34,0,0,0,.28,0c0,.21-.05.42-.06.62-.12,2.31.07,6,1.81,7.74a3.07,3.07,0,0,0,5.23-1.36c.19-.63-.7-1.24-1.15-.7s-.93,1.3-1.57,1.4c-1.09.17-1.69-1.14-1.93-1.94a16,16,0,0,1-.66-4.23c0-1.41.22-4.33,2.36-4,1.31.22,2.36,1.6,2.92,2.7a.29.29,0,0,0,.37.12c.12.75.3,1.52.38,2.23.15,1.41.16,2.84.34,4.24a.37.37,0,0,0,.35.33c.09.4.68.35.79,0,.72-2.39,2.47-4.34,3.7-6.46a.31.31,0,0,0,0-.21q1.35.53,2.67,1.08l5.15,2.18a33.75,33.75,0,0,0,4.63,1.88l-.55.72a9.43,9.43,0,0,0-2,3,.51.51,0,0,0,.37.61.48.48,0,0,0,.35,0,8.83,8.83,0,0,0,2.33-2.65,15.61,15.61,0,0,0,2-3.31c.16-.42-.4-.64-.68-.41a7.92,7.92,0,0,0-1,.95l-.05,0a27.9,27.9,0,0,0-4.78-2.19l-4.91-2.07c-.93-.39-1.87-.8-2.8-1.22a.34.34,0,0,0,.16-.1,12,12,0,0,0,1.29-1.88,8.5,8.5,0,0,1,2-1.94,5.88,5.88,0,0,0,2,.29,5.32,5.32,0,0,0,2.42-.66c.83-.46,1.38-1.26,2.16-1.78a3.38,3.38,0,0,1,.93-.41v0a14.29,14.29,0,0,1,1.47,7.3c0,.64-.12,1.27-.2,1.9a1.34,1.34,0,0,0-.06.4,1.37,1.37,0,0,0,.12.6.49.49,0,0,0,.22.23.63.63,0,0,0,.42.12.6.6,0,0,0,.42-.28.66.66,0,0,0,.12-.33l.05,0c.45-3.56.64-7.12-1.38-10.23a3.88,3.88,0,0,0,2.7-1.12,3.31,3.31,0,0,0,.68-2.37.4.4,0,0,0,.14-.37c-.55-3.28-2.78-6.81-6.2-7.64a12.34,12.34,0,0,0-2.35-.17,5.74,5.74,0,0,1-3-1.46,26.92,26.92,0,0,0-5.3-2.4c-3.62-1.44-7.44-2.93-11.41-2.75-3,.13-6.29,1.12-8,3.71-2.08-1.19-4.64.43-6,2.1a19.22,19.22,0,0,0-3.75,8.73,40.62,40.62,0,0,0-.24,9.48c.22,3.23.38,6.51.8,9.72a.6.6,0,0,0,.42.52m44-18.74a2.26,2.26,0,0,1-2.16,1.65,7.05,7.05,0,0,0-3.19.68c-1.28.79-2,1.94-3.6,2.09s-2.44-.72-3.78-1.06a.37.37,0,0,0-.45.26.28.28,0,0,0,0,.18,2.3,2.3,0,0,0,1.07,1.36,5.88,5.88,0,0,0-1.59,1.35,6.91,6.91,0,0,0-1.6,2.42.44.44,0,0,0,0,.3,61,61,0,0,0-6.75-2.66.71.71,0,0,0-.88.49v0A3.84,3.84,0,0,0,266,205c-2.1-.21-3.3,1.5-3.73,3.3a2.2,2.2,0,0,0-2.86-.12,5.92,5.92,0,0,0-2.27,3.52c-.68,2.23-1.3,4.07-3.72,4.79a9.59,9.59,0,0,1-5.71-.15c-.11-5.25-1-10.48-.72-15.74a21.18,21.18,0,0,1,2.14-8.33c1.21-2.42,3.1-5.41,6.21-4.34a.43.43,0,0,0,.55-.19.59.59,0,0,0,.17-.1,12.1,12.1,0,0,1,8.66-3.09c3.51.17,6.82,1.6,10.07,2.79a21.19,21.19,0,0,1,5.08,2.37,5.79,5.79,0,0,0,3.78,1.2c3.94,0,5.51,3.21,6.94,6.29a4.17,4.17,0,0,1,0,1.32" transform="translate(0 -0.01)"/><path id="Path_5234" data-name="Path 5234" class="cls-10" d="M267.33,206c1-.94,2.89-.06,4,.38.93.38,1.83.81,2.76,1.19.63.26,1.1.28,1.36.93a.11.11,0,0,1,0,.14h0c-1,.74-2.93-.42-4-.84a13.23,13.23,0,0,0-2.28-.75c-.71-.16-1.35-.15-1.83-.74a.22.22,0,0,1,0-.3" transform="translate(0 -0.01)"/><path id="Path_5235" data-name="Path 5235" class="cls-5" d="M266.35,209.94a.43.43,0,0,1,.35-.5.41.41,0,0,1,.48.29,5.11,5.11,0,0,1,.21,3,1.12,1.12,0,0,1-1.3.9,1.19,1.19,0,0,1-.55-.27,1,1,0,0,1,.09-1.42,1,1,0,0,1,.41-.22.86.86,0,0,1,.48,0c0-.09,0-.18,0-.27a6.5,6.5,0,0,0-.19-1.58" transform="translate(0 -0.01)"/><path id="Path_5236" data-name="Path 5236" class="cls-7" d="M249.08,192.27a21.4,21.4,0,0,0-2.14,8.34c-.32,5.26.61,10.49.73,15.74a9.48,9.48,0,0,0,5.7.14c2.43-.72,3-2.55,3.72-4.79a6,6,0,0,1,2.27-3.52,2.2,2.2,0,0,1,2.86.13c.44-1.81,1.64-3.51,3.74-3.31a4,4,0,0,1,1.66.62.71.71,0,0,1,.85-.53h0a62.28,62.28,0,0,1,6.75,2.67.44.44,0,0,1,0-.3,7.05,7.05,0,0,1,1.6-2.42,6,6,0,0,1,1.59-1.35,2.34,2.34,0,0,1-1.07-1.36.37.37,0,0,1,.27-.44h.18c1.35.34,2.28,1.2,3.79,1.06s2.32-1.3,3.6-2.09a7,7,0,0,1,3.18-.68,2.28,2.28,0,0,0,2.17-1.65,4.94,4.94,0,0,0,0-1.33c-1.43-3.07-3-6.31-6.94-6.28a5.88,5.88,0,0,1-3.79-1.2,20.74,20.74,0,0,0-5.07-2.37c-3.26-1.2-6.57-2.63-10.08-2.79a12.08,12.08,0,0,0-8.65,3.09l-.18.1a.42.42,0,0,1-.54.18c-3.11-1.07-5,1.92-6.22,4.34" transform="translate(0 -0.01)"/><path id="Path_5237" data-name="Path 5237" class="cls-10" d="M255.3,190c-1.5-1.12-3.57,2.67-3.92,3.71-.07.18.19.38.31.19.86-1.38,1.77-3.42,3.55-3.69a.12.12,0,0,0,.1-.14.13.13,0,0,0,0-.07" transform="translate(0 -0.01)"/><path id="Path_5238" data-name="Path 5238" class="cls-10" d="M265.43,186.16c-2-.55-5.89-.13-7,2a.15.15,0,0,0,.08.2.14.14,0,0,0,.14,0,7.41,7.41,0,0,1,3.28-1.63,18.6,18.6,0,0,1,3.49-.27c.15,0,.12-.2,0-.24" transform="translate(0 -0.01)"/><path id="Path_5239" data-name="Path 5239" class="cls-10" d="M289.76,198.87c.6-6-7-7.85-11.53-6.86-.19,0-.24.36,0,.36,2.46.08,4.91-.08,7.2,1a6.8,6.8,0,0,1,3.92,5.49.22.22,0,0,0,.25.18.19.19,0,0,0,.17-.17" transform="translate(0 -0.01)"/><path id="Path_5240" data-name="Path 5240" class="cls-10" d="M287.93,198.89c-.43-2.22-3.36-3.42-5.31-3.9a10.29,10.29,0,0,0-7.57.93c-.19.11,0,.4.18.32,3.93-1.4,10-1.44,12.38,2.77a.18.18,0,0,0,.32-.12" transform="translate(0 -0.01)"/><path id="Path_5241" data-name="Path 5241" class="cls-10" d="M286,199.42c-3.12-2.08-8.7-2.71-11.74-.2a.21.21,0,0,0,0,.31.21.21,0,0,0,.28.05,9.69,9.69,0,0,1,5.86-1.29c1.92.19,3.64,1.08,5.52,1.39.13,0,.24-.18.11-.26" transform="translate(0 -0.01)"/><path id="Path_5242" data-name="Path 5242" class="cls-10" d="M272.48,210.68a3.35,3.35,0,0,0-.8-.35,3.11,3.11,0,0,0-.85-.21c-.13,0-.23.16-.11.24a3.13,3.13,0,0,0,.78.38,2.84,2.84,0,0,0,.85.24c.15,0,.28-.19.13-.29" transform="translate(0 -0.01)"/><path id="Path_5243" data-name="Path 5243" class="cls-10" d="M271.91,211.73a.65.65,0,0,0-.35-.15.16.16,0,0,0-.12.28.65.65,0,0,0,.35.15.16.16,0,0,0,.12-.28" transform="translate(0 -0.01)"/><path id="Path_5244" data-name="Path 5244" class="cls-5" d="M289.34,222.65a16.62,16.62,0,0,1-.64-4h0a.82.82,0,0,0-.36-.76.6.6,0,0,0-.76.12.59.59,0,0,0-.26.34,1.21,1.21,0,0,0-.05.42h0a.38.38,0,0,0,0,.1V219a1,1,0,0,0,0,.17,18.48,18.48,0,0,0,.49,3.39c.26,1,1.59,3.53.17,4.17-.79.36-1.64-.43-2.39.1a.58.58,0,0,0-.22.75h0c-.12.14-.25.29-.36.44l-.1.12a22.43,22.43,0,0,0-1.61,2.13,10.38,10.38,0,0,0-1.3-.85c-.6-.46-1.05-1.27-1.71-1.61-.23-.12-.61,0-.58.33a3.06,3.06,0,0,0,1.56,2,3.49,3.49,0,0,0,1.69.71c-.42.66-.82,1.33-1.19,2-1.09,1.95-1.68,4.41-4.08,5.06-3.94,1.08-7.49-2.31-11.29-2.82h0c-1-.2-1.59-2.9-1.59-2.9-.22-1.39-.13-2.81-.36-4.19-.09-.56-.86-.38-.91.1a13.32,13.32,0,0,0,.41,4.49,12,12,0,0,0,.52,1.64h0s.56,1.47.66,1.66h0a1,1,0,0,0,.25.4,33.12,33.12,0,0,0,3.49,1.15c1.17.41,2.31.91,3.47,1.33a9,9,0,0,0,5.88.44c2-.66,2.89-2.16,3.68-4a51,51,0,0,1,3.91-7l.08-.12a3.72,3.72,0,0,0,2,.27,2.44,2.44,0,0,0,2.16-1.84c.35-1.31-.33-2.59-.68-3.82" transform="translate(0 -0.01)"/><path id="Path_5245" data-name="Path 5245" class="cls-5" d="M265.53,235.48c-1.5.66-3,2.43-4,3.64a9.88,9.88,0,0,0-2.36,3.89l.93.13v0a.48.48,0,0,0-.95,0v0c0,.52.83.66.93.13a9.27,9.27,0,0,1,2.29-3.67c1-1.09,2.29-2.7,3.66-3.3.56-.24.08-1.05-.48-.81" transform="translate(0 -0.01)"/><path id="Path_5246" data-name="Path 5246" class="cls-7" d="M346,262.69a1.07,1.07,0,0,0-.14-.16,4.25,4.25,0,0,0,.14-1.74,1.9,1.9,0,0,0-3.44-1,5.13,5.13,0,0,0-1,2l-2.79,8.58a70.36,70.36,0,0,1-4.36,11.18l-.4.75c-1.29,2.42-2.62,4.92-3.72,7.46l-2.89-1a.71.71,0,0,0-.48-.63l-9.13-3a190.84,190.84,0,0,1-48.43-20.83l52.71,1.1h0a.71.71,0,0,0,.71-.71h0c0-.41,0-.82,0-1.23h2.48a.7.7,0,0,0,.71-.7v0l-.12-4.06c2.38-.78,5.3-1.87,6-2.17,1.37-.57,2.63-2.67,4.09-5.09.37-.62.74-1.25,1.13-1.86,1.76-2.78.69-6.56.23-8.17,0-.16-.08-.3-.11-.41a6.43,6.43,0,0,1-.09-2.23c1-2.14,1.9-4.42,1.8-6.54a2.2,2.2,0,0,0-.78-1.69,2.25,2.25,0,0,0-1.21-.43l0-.07c.7-1.71,2.74-8.29,2.51-10-.18-1.42-1-1.68-1.34-1.73-.89-.12-1.82.61-2.36,1.88-.15.35-.47,1.1-.9,2.08-3,6.94-5.84,13.49-6.1,14.33-.15.49-1.48,4.9-1.42,7.07a23.84,23.84,0,0,1-.32,3.86,3.2,3.2,0,0,1-.57.32c-.14.06-.53.19-.9.3v0a.73.73,0,0,0-.23-.5.69.69,0,0,0-.51-.19l-2.7.11c0-.23,0-.46,0-.7v-.1a.17.17,0,0,1,0-.07.64.64,0,0,1,0-.07.14.14,0,0,1,0-.06l0-.07,0,0,0-.06,0-.05-.06,0,0,0-.07,0-.05,0-.08,0h-.23c-17.49.63-42.83.81-61-4.82a.72.72,0,0,0-.89.47.36.36,0,0,0,0,.1l-.49-1.12c.48-12.47-11.51-23.58-12-24.05a.7.7,0,0,0-.91,0l-2.34,1.83c-1.1-1.12-2.24-2.19-3.39-3.19a.68.68,0,0,0-.72-.13c-4.8,1.84-9,4.54-13.5,7.4-1.32.84-2.69,1.71-4.13,2.6-5.75,4-11.77,8.4-16.71,14.82a73.47,73.47,0,0,0-7,13.18,78.8,78.8,0,0,1-5.8,11.4c-5.37,8.33-12,14.38-19,20.78a144.6,144.6,0,0,0-14.95,15.06,16.22,16.22,0,0,0-3.46,7.88s0,.08,0,.12a8.13,8.13,0,0,0,.37,2.35c-1,1.5-6,9.19-10.52,26.2-5.1,19.2-34.55,46.61-46,54.81A276.72,276.72,0,0,0,42.9,446.44a.73.73,0,0,0,0,.8l.31.48a25.72,25.72,0,0,0-2.55,2.67,28,28,0,0,0-5.42,4.95c-2.19,2.76-4.5,11.34-4.6,11.7a.71.71,0,0,0,.43.85l14.86,5.58a.7.7,0,0,0,.91-.41h0l1-2.76c3.44,2.7,17.32,12.95,29.5,12.95,7.18,0,10.89-1.07,11.35-3.26a2.44,2.44,0,0,0-1.34-2.57,18.75,18.75,0,0,0-2.23-.59c-3.18-.75-9.8-2.31-11.86-4.3a59.92,59.92,0,0,1-5.68-6.74c1.32-1.54,33.34-38.88,41.44-45.8,3-2.52,6.7-5.26,11.45-8.72,6.44-4.71,14.46-10.57,25.08-19.19,5.08-4.11,10-8.27,14.79-12.29,7.35-6.19,14.12-11.89,19.94-16.21,3.27,2.44,24.79,18.48,28.43,21a2.59,2.59,0,0,1,1.31,1.73c.14,1.37-1.65,3.28-3.92,5.69-.72.76-1.53,1.62-2.35,2.54-4.74,5.31-28.46,37.7-34.32,49.86a.71.71,0,0,0,.29.92l1.25.71a14.62,14.62,0,0,1-3,2.69.47.47,0,0,0-.17.22c-.95.62-1.86,1.3-2.77,2-1.42.64-2.56,2.21-3.46,3.39-.69.89-1.34,1.8-2,2.7a6.7,6.7,0,0,0-1.6,2.62,2.42,2.42,0,0,0,0,.76c.25,1,1.28,1.72,2,2.42s1.72,1.65,2.61,2.45l.41.38h0c.51.46,1,.93,1.55,1.38l3.72,3.32a.73.73,0,0,0,1,.19.52.52,0,0,0,.17-.16,26,26,0,0,0,1.61-2.28,26,26,0,0,0,8.17,8.81c3.53,2.31,7.86,3.24,11.84,4.5l6.63,2.09a9.94,9.94,0,0,0,5.27.66,2.81,2.81,0,0,0,2.35-2.85,5.3,5.3,0,0,0-2.43-3.66c-3-2.15-7.14-1.85-10-4.27a.47.47,0,0,0-.32-.12c-.4-.75-.84-1.46-1.16-2.07a23.54,23.54,0,0,1-1.6-4.21c-.13-.47-.21-1.07-.35-1.63-.32-2.17-.87-4.47-.44-6.63a.41.41,0,0,0,0-.11c.28-.58.57-1.14.89-1.7l6,3.46a.69.69,0,0,0,1-.26h0c.27-.5,27.29-49.86,37.4-62.14,9.75-11.84,7.8-15.11,5.72-18.58l-.51-.86c-1.82-3.27-16.47-22.79-20.26-27.83a5.71,5.71,0,0,0,3.16-1.23.65.65,0,0,0,.24-.35,195,195,0,0,1,20.22-46.57,25,25,0,0,1,3.2-4.12,31.48,31.48,0,0,1,3.94-2.64,27.53,27.53,0,0,0,5.53-4,.41.41,0,0,0,.1-.13,23.84,23.84,0,0,0,1.86-4.12,31.56,31.56,0,0,1,1.28-3.07h0c23,10.57,59.91,23.22,61.89,23.89a.71.71,0,0,0,.9-.44v0l.77-2.48,3.29,1.16a.73.73,0,0,0,.56,0,.71.71,0,0,0,.35-.43l1-3.34c1.1-.16,2.23-.24,3.33-.31.73-.05,1.47-.1,2.2-.17,1.77-.18,4-.4,5.58-1.8s2.21-4,2.55-5.85.89-4.28,1.44-6.75c.82-3.7,1.67-7.53,2.11-10.51.21-1.4.41-2.8.59-4.2,0-.2.09-.46.14-.73a7.65,7.65,0,0,0,.25-2.18c.14-1,.71-4.94.8-5.74a2.56,2.56,0,0,0-.43-1.86m-19.17-14a3.51,3.51,0,0,0,.94-.58.46.46,0,0,0,.15-.27,23.82,23.82,0,0,0,.37-4.22,29.08,29.08,0,0,1,1.38-6.77c.27-.91,4.32-10.24,6.05-14.23.43-1,.75-1.73.9-2.08.4-.92,1-1.36,1.36-1.32s.47.38.54.92c.18,1.39-1.69,7.67-2.45,9.53l-.25.6a4,4,0,0,0-1.69,2.49s-.52,1.38-1.06,2.85a13.2,13.2,0,0,0-.5,1.6,19.3,19.3,0,0,1-.78,2.33,10.42,10.42,0,0,0-.42,4.83.46.46,0,0,0,.46.4h.07a.47.47,0,0,0,.41-.53h0a9.81,9.81,0,0,1,.37-4.34,18.71,18.71,0,0,0,.81-2.43,14.94,14.94,0,0,1,.48-1.52c.54-1.46,1.06-2.84,1.08-2.89a3,3,0,0,1,1.3-2,1.66,1.66,0,0,1,1.21.22,1.23,1.23,0,0,1,.41,1c.1,1.94-.77,4.1-1.73,6.16a.56.56,0,0,0,0,.12,7.26,7.26,0,0,0,.1,2.67c0,.12.07.27.12.44.42,1.49,1.41,5-.12,7.41-.39.61-.77,1.25-1.14,1.87-1.26,2.09-2.56,4.25-3.65,4.7-.67.28-3.41,1.3-5.69,2.06l-.23-8.6c.43-.13,1-.32,1.25-.42m-2.68.15.37,13.22h-1.8c-.07-1.6-.18-3.18-.29-4.73-.19-2.72-.38-5.51-.36-8.4ZM260,242.57c13.47,4.16,30.75,5.18,45.94,5.18,5.26,0,10.27-.12,14.8-.28a93.85,93.85,0,0,0,.32,9.92c.16,2.14.31,4.35.35,6.55L267,262.81l-1.56-.93a6.49,6.49,0,0,1-1.06-.74c-1-5.16-2-10.49-3.44-15.65-.32-1-.69-2-1.11-3a.75.75,0,0,0,.2.1m-13.52-24.5c1.92,1.89,9.62,10,10.95,19.21a76,76,0,0,0-12.7-17.85Zm-6.73-1.51a73.34,73.34,0,0,1,17.91,24.53h0s.42.92.87,2c-7.68-10.51-20-22.12-22.75-24.7,1.3-.67,2.61-1.29,4-1.83M44,448.91a50.27,50.27,0,0,0,12.86,12c-6.3-3-14-8.23-15-9.77A23.64,23.64,0,0,1,44,448.91M68.16,469c-.7.51-1.41,1-2.13,1.48s0,1.73.72,1.22,1.55-1.05,2.3-1.6a43.48,43.48,0,0,0,3.16,3.48c2.35,2.26,9,3.82,12.52,4.66.89.21,1.8.43,2,.51a1.1,1.1,0,0,1,.53,1c-.08.36-.91,2.13-10,2.13-13.21,0-29.21-13.11-29.37-13.24a.71.71,0,0,0-1,.09.72.72,0,0,0-.12.21l-1.1,3-13.58-5.1c.57-2,2.47-8.44,4.16-10.58A25.77,25.77,0,0,1,40.75,452c2.48,3.21,16.86,12,22.28,12.39q1.28.61,2.64,1.2a.89.89,0,0,0,.08.17s.28.4.67.92a21.24,21.24,0,0,0-2.49,1.52c-.77.48-.06,1.7.72,1.22l1.4-.88a5.41,5.41,0,0,1,1.25-.68h0c.26.34.54.7.85,1.08m121,.06q.28,1,.66,1.92c.45,1.12,1,2.17,1.55,3.26a32.62,32.62,0,0,1,1.09,3.48.52.52,0,0,0,.66.35.51.51,0,0,0,.35-.35,3.7,3.7,0,0,0-.06-2.5c2.53,1.95,6.19,1.91,8.76,3.86.8.6,2.2,2.05,1.37,3.15-.67.87-2.4.55-3.25.35-2.24-.53-4.44-1.38-6.63-2.08l-6.86-2.17a25.29,25.29,0,0,1-6.51-2.72,22.81,22.81,0,0,1-4.42-4c-1.39-1.59-2.46-3.38-3.77-5a.68.68,0,0,0-.68-.28.38.38,0,0,0-.29.06,5.18,5.18,0,0,0-1.34,1.38c-.33.42-.65.85-1,1.29l-.07-.09c-1.7-1.66-3.6-3.13-5.35-4.74-.82-.75-1.62-1.52-2.41-2.31-.46-.44-.89-1-1.4-1.46a.47.47,0,0,1-.08-.66l0,0a13.79,13.79,0,0,0,1.06-1.48c.57-.8,1.14-1.59,1.69-2.4s1.18-1.71,1.83-2.51c.43-.52.95-1,1.37-1.5.89-.68,1.79-1.34,2.72-2,2.18,2.68,5.66,4.33,8.68,5.86A28,28,0,0,0,188,458.77a10,10,0,0,0-.11,2.25,10.74,10.74,0,0,1-3.53.13c-.6-.08-.85.83-.25.91A12.07,12.07,0,0,0,188,462c.05.53.13,1.07.21,1.6a19.38,19.38,0,0,1-3.49.14c-.6,0-.6.91,0,.94a19.05,19.05,0,0,0,3.62-.16c.1.75.38,2.8.8,4.54m-.78-11.19a26.45,26.45,0,0,1-11-2.95c-2.85-1.43-6.42-3.09-8.45-5.64a15.3,15.3,0,0,0,2.87-2.7l17.31,9.93c-.25.45-.5.9-.72,1.36m49.92-78.59c.17.31.35.61.53.9,1.81,3,3.52,5.88-5.6,16.94-9.57,11.63-34,55.89-37.2,61.73l-25-14.37c6.26-12.5,29.17-43.74,33.8-48.93.81-.91,1.58-1.73,2.32-2.52,2.62-2.78,4.51-4.79,4.3-6.8a3.9,3.9,0,0,0-1.9-2.74c-3.52-2.48-23.85-17.63-28.06-20.77a56,56,0,0,1,9.87-6.05.71.71,0,0,0-.56-1.3c-7.47,3.25-18.54,12.57-31.35,23.36-4.77,4-9.7,8.16-14.77,12.27-10.6,8.6-18.6,14.45-25,19.14-4.77,3.48-8.53,6.24-11.53,8.8-8,6.8-37.62,41.32-41.31,45.62a50.76,50.76,0,0,1-22.42-17.62A275.59,275.59,0,0,1,99.8,392.83c1.83-1.31,4.13-3.12,6.72-5.31a10.72,10.72,0,0,1,8.73,3.42c.42.45,1.09-.22.67-.66a11.68,11.68,0,0,0-8.29-3.72c13.71-11.82,34.44-33.32,38.69-49.32,3.87-14.57,8.14-22.3,9.77-24.93A23.78,23.78,0,0,0,159,316.8l.06.06a109,109,0,0,0,25.16,18.83,5.86,5.86,0,0,0,1.39.86,5.28,5.28,0,0,1,.53.27c6.64,3.64,13.26,6.54,20.27,9.6,2.34,1,4.76,2.09,7.21,3.19a16.22,16.22,0,0,0,3.75,1.06c2,2.6,18.94,25.18,20.85,28.57m25.47-116.8a8.08,8.08,0,0,0,1,.67c.55.31,1.31.77,2.27,1.36a193.24,193.24,0,0,0,50.43,22l8.44,2.77-5.44,17.57c-6.82-2.35-61.88-21.51-75.61-31.43-14.34-10.37-14.9-23.73-14.91-23.87a.71.71,0,0,0-1.41,0c0,.58.55,14.18,15.49,25a90.58,90.58,0,0,0,13.51,7.37,30.33,30.33,0,0,0-1.33,3.17,22.81,22.81,0,0,1-1.7,3.81,27.23,27.23,0,0,1-5.2,3.72,33.32,33.32,0,0,0-4.14,2.79l0,0a26.82,26.82,0,0,0-3.42,4.39,196.8,196.8,0,0,0-20.32,46.7,5,5,0,0,1-3.43.78h0a14,14,0,0,1-3.64-1c-2.42-1.09-4.85-2.15-7.19-3.17-7-3.06-13.57-5.94-20.16-9.55-.19-.11-.39-.2-.58-.3a4.21,4.21,0,0,1-1.09-.67l-.16-.12a110.34,110.34,0,0,1-15.63-10.33c1.78-2.2,14.7-18.08,19.94-23.5a.71.71,0,0,0,0-1,.7.7,0,0,0-1,0c-5.29,5.46-18.26,21.4-20,23.6q-4.28-3.5-8.17-7.39c-1.67-2.09-3.57-4.82-3.6-7.5a14.84,14.84,0,0,1,3.14-7.17,145.68,145.68,0,0,1,14.8-14.91c6.78-6.18,13.78-12.57,19.26-21.05a82.11,82.11,0,0,0,5.9-11.6,72.14,72.14,0,0,1,6.82-12.92c4.79-6.23,10.71-10.58,16.34-14.47,1.41-.87,2.79-1.75,4.11-2.6,2.55-1.62,5-3.2,7.55-4.58,2,1.83,18.36,17.06,25.64,28.83.86,3.37,1.57,6.8,2.23,10.22a1.27,1.27,0,0,1,.06.28c0,.22.08.43.13.65,0,0,.4,2.81,1.21,3.38M325.34,305l-2.62-.93,4.32-14,2.32.8Zm20.17-40.57c-.07.57-.4,3-.63,4.52a1.15,1.15,0,0,0-.44-.15,1.46,1.46,0,0,0-1.22.45,2.93,2.93,0,0,0-.62,1.2c-.53,1.58-1.15,3.17-1.74,4.71-.71,1.83-1.45,3.73-2.05,5.64a.47.47,0,0,0,.9.29c.59-1.88,1.32-3.77,2-5.59.6-1.55,1.21-3.15,1.75-4.75a2.35,2.35,0,0,1,.41-.84.54.54,0,0,1,.43-.17.36.36,0,0,1,.27.18,1.15,1.15,0,0,1,.1.33l0,.09a.49.49,0,0,0,0,.24,9.47,9.47,0,0,1-.24,1.67c-.06.3-.12.58-.15.8-.19,1.4-.39,2.8-.59,4.19-.44,2.95-1.29,6.77-2.1,10.45-.55,2.47-1.07,4.8-1.44,6.78s-.88,4.1-2.26,5.31-3.4,1.41-5,1.58c-.71.07-1.45.11-2.17.16-1,.06-2,.13-3,.26l3.11-10.91c1.14-2.78,2.6-5.51,4-8.16l.4-.76a70.6,70.6,0,0,0,4.43-11.33l2.78-8.58a4.48,4.48,0,0,1,.8-1.64,1,1,0,0,1,1.81.51,3.31,3.31,0,0,1-.05,1.13,1.46,1.46,0,0,0-.55,0c-1.1.18-1.5,1.47-1.64,1.95s-.39,1.25-.58,1.88a100.57,100.57,0,0,1-4.43,12.52.47.47,0,1,0,.86.4,101.06,101.06,0,0,0,4.48-12.65l.57-1.87c.25-.83.54-1.24.9-1.3a.72.72,0,0,1,.63.29,1.78,1.78,0,0,1,.24,1.19" transform="translate(0 -0.01)"/><path id="Path_5247" data-name="Path 5247" class="cls-7" d="M231.45,306.47l-19.8-10.26a.71.71,0,0,0-.94.29l-4,7.11a.72.72,0,0,0,.27,1h0l20,10.2a.71.71,0,0,0,.94-.3l3.79-7.06a.7.7,0,0,0-.29-1h0M227,313.21l-18.72-9.55,3.3-5.88,18.54,9.61Z" transform="translate(0 -0.01)"/><path id="Path_5248" data-name="Path 5248" class="cls-7" d="M248.92,243.47a22.42,22.42,0,0,0-10.63-1.87c-.6.05-.6,1,0,1a21,21,0,0,1,8.83,1.22c2.74,1,6,2.38,7.46,5a.47.47,0,0,0,.65.14.48.48,0,0,0,.17-.62c-1.39-2.46-4-3.78-6.47-4.85" transform="translate(0 -0.01)"/><path id="Path_5249" data-name="Path 5249" class="cls-7" d="M303,297a1,1,0,1,0,1,1h0a1,1,0,0,0-1-1h0" transform="translate(0 -0.01)"/><path id="Path_5250" data-name="Path 5250" class="cls-7" d="M306.41,298a1,1,0,1,0,1,1h0a1,1,0,0,0-1-1h0" transform="translate(0 -0.01)"/><path id="Path_5251" data-name="Path 5251" class="cls-7" d="M309.88,299a1,1,0,1,0,1,1h0a1,1,0,0,0-1-1h0" transform="translate(0 -0.01)"/><path id="Path_5252" data-name="Path 5252" class="cls-7" d="M207.17,280.42a21.14,21.14,0,0,1-13.62-6.17c-.44-.42-1.11.25-.67.66a22.19,22.19,0,0,0,14.29,6.46c.61,0,.61-.93,0-.95" transform="translate(0 -0.01)"/><path id="Path_5253" data-name="Path 5253" class="cls-7" d="M217.59,266.85c-.6,0-.61,1,0,.95,4.58-.29,10.71-.68,14.61,2.11.5.36,1-.46.48-.81-4.05-2.9-10.39-2.55-15.09-2.25" transform="translate(0 -0.01)"/><path id="Path_5254" data-name="Path 5254" class="cls-7" d="M238.25,379.25c.17.31.35.61.53.9,1.81,3,3.52,5.88-5.6,16.94-9.57,11.63-34,55.89-37.2,61.73l-25-14.36c6.27-12.5,29.17-43.74,33.8-48.93.81-.91,1.58-1.73,2.33-2.53,2.61-2.77,4.5-4.78,4.3-6.8a3.88,3.88,0,0,0-1.91-2.74c-3.52-2.47-23.84-17.62-28.06-20.76a56.49,56.49,0,0,1,9.88-6.05.71.71,0,0,0-.57-1.3c-7.47,3.25-18.53,12.57-31.35,23.35-4.77,4-9.7,8.17-14.77,12.28-10.6,8.6-18.6,14.44-25,19.14-4.77,3.48-8.54,6.23-11.53,8.79-8,6.81-37.62,41.32-41.31,45.62a50.7,50.7,0,0,1-22.42-17.61A275.33,275.33,0,0,1,99.8,392.84c1.84-1.32,4.13-3.13,6.72-5.32a10.79,10.79,0,0,1,8.74,3.43c.42.44,1.08-.23.66-.67a11.71,11.71,0,0,0-8.29-3.71c13.71-11.82,34.44-33.33,38.69-49.33,3.87-14.57,8.14-22.3,9.78-24.93A22.71,22.71,0,0,0,159,316.8l.05.06a108.88,108.88,0,0,0,25.17,18.84,5.29,5.29,0,0,0,1.38.85l.53.27c6.64,3.65,13.26,6.54,20.27,9.61,2.34,1,4.76,2.08,7.21,3.18a15.76,15.76,0,0,0,3.75,1.07c2,2.6,18.94,25.17,20.85,28.57" transform="translate(0 -0.01)"/><path id="Path_5255" data-name="Path 5255" class="cls-10" d="M181.23,334.83a46.36,46.36,0,0,1-21.62,5.76c-.6,0-.6,1,0,1a47.62,47.62,0,0,0,22.1-5.89.47.47,0,0,0,.14-.65.48.48,0,0,0-.62-.17" transform="translate(0 -0.01)"/><path id="Path_5256" data-name="Path 5256" class="cls-10" d="M212.27,390.3c4.83,2.81,11.82.93,16.5-1.29.55-.26.07-1.07-.47-.81-4.37,2.07-11.05,3.91-15.55,1.28a.48.48,0,0,0-.48.82" transform="translate(0 -0.01)"/><path id="Path_5257" data-name="Path 5257" class="cls-10" d="M205.85,359.77a37.44,37.44,0,0,0,7.32-3.47c.51-.32,0-1.13-.48-.81a37.14,37.14,0,0,1-7.09,3.37c-.57.2-.33,1.11.25.91" transform="translate(0 -0.01)"/><path id="Path_5258" data-name="Path 5258" class="cls-10" d="M211,359.88a15.61,15.61,0,0,1-5.15,1.94c-.6.11-.35,1,.25.91a16.25,16.25,0,0,0,5.38-2,.47.47,0,0,0,.14-.65.48.48,0,0,0-.62-.17" transform="translate(0 -0.01)"/><path id="Path_5259" data-name="Path 5259" class="cls-10" d="M180.51,365.16a.92.92,0,0,1-.57-1.64,110.64,110.64,0,0,1,13.23-8.61.92.92,0,0,1,.6,1.73A122.57,122.57,0,0,0,181.08,365a.9.9,0,0,1-.57.2" transform="translate(0 -0.01)"/><path id="Path_5260" data-name="Path 5260" class="cls-10" d="M115.9,390.75c-2.87-3.15-8-4.34-12.09-4.71-.61-.05-.6.89,0,.95,3.8.34,8.75,1.49,11.42,4.43.41.45,1.08-.22.67-.67" transform="translate(0 -0.01)"/><path id="Path_5261" data-name="Path 5261" class="cls-10" d="M326.86,248.65a3.36,3.36,0,0,0,.94-.58.46.46,0,0,0,.15-.27,23.82,23.82,0,0,0,.37-4.22,29,29,0,0,1,1.38-6.77c.28-.91,4.33-10.24,6.06-14.23l.9-2.08c.4-.92,1-1.37,1.36-1.32s.46.38.53.92c.19,1.39-1.68,7.67-2.45,9.53-.11.27-.19.47-.25.6a3.94,3.94,0,0,0-1.68,2.49l-1.07,2.84c-.24.66-.37,1.14-.5,1.6a18.88,18.88,0,0,1-.78,2.34,10.54,10.54,0,0,0-.42,4.83.47.47,0,0,0,.47.4h.07a.46.46,0,0,0,.4-.53h0a9.78,9.78,0,0,1,.36-4.33,18.9,18.9,0,0,0,.82-2.44,15.54,15.54,0,0,1,.47-1.51c.55-1.47,1.07-2.85,1.08-2.89a3,3,0,0,1,1.3-2,1.65,1.65,0,0,1,1.21.21,1.31,1.31,0,0,1,.42,1c.1,1.93-.78,4.1-1.74,6.15a.65.65,0,0,0,0,.13,7.49,7.49,0,0,0,.1,2.67c0,.12.08.26.12.44.43,1.49,1.41,5-.12,7.4-.39.62-.77,1.26-1.14,1.88-1.26,2.09-2.56,4.25-3.64,4.7-.68.28-3.41,1.3-5.69,2.06l-.24-8.6c.44-.14,1-.32,1.26-.42" transform="translate(0 -0.01)"/><path id="Path_5262" data-name="Path 5262" class="cls-10" d="M345.53,264.45c-.07.58-.4,3-.63,4.52a1.26,1.26,0,0,0-.44-.14,1.44,1.44,0,0,0-1.22.45,2.84,2.84,0,0,0-.62,1.19c-.53,1.58-1.15,3.17-1.74,4.71-.71,1.84-1.45,3.74-2.05,5.65a.47.47,0,0,0,.33.58.48.48,0,0,0,.57-.3c.59-1.88,1.32-3.77,2-5.59.6-1.55,1.21-3.15,1.75-4.75a2.43,2.43,0,0,1,.41-.84.54.54,0,0,1,.43-.17.39.39,0,0,1,.27.18,1.15,1.15,0,0,1,.1.33l0,.09a.47.47,0,0,0,0,.24,9.21,9.21,0,0,1-.24,1.67c-.06.3-.12.58-.15.8-.19,1.4-.39,2.8-.59,4.19-.44,3-1.29,6.77-2.1,10.45-.55,2.47-1.07,4.8-1.45,6.78s-.87,4.1-2.25,5.31-3.4,1.42-5,1.58c-.72.07-1.46.12-2.17.16-1,.07-2,.13-3,.26l3.11-10.91c1.14-2.78,2.6-5.51,4-8.16l.4-.76a70.6,70.6,0,0,0,4.43-11.33l2.78-8.57a4.44,4.44,0,0,1,.8-1.65,1.18,1.18,0,0,1,1.28-.37,1.16,1.16,0,0,1,.53.88,3.3,3.3,0,0,1-.05,1.13,1.7,1.7,0,0,0-.55,0c-1.1.18-1.5,1.47-1.64,1.95s-.39,1.25-.58,1.88a101.29,101.29,0,0,1-4.43,12.53.47.47,0,0,0,.86.39h0a101.49,101.49,0,0,0,4.48-12.64l.57-1.88c.25-.83.54-1.24.89-1.3a.73.73,0,0,1,.64.3,1.74,1.74,0,0,1,.24,1.18" transform="translate(0 -0.01)"/><path id="Path_5263" data-name="Path 5263" class="cls-10" d="M68.16,469c-.7.51-1.41,1-2.13,1.48s0,1.73.72,1.22,1.55-1.05,2.3-1.6a43.62,43.62,0,0,0,3.16,3.49c2.35,2.26,9,3.82,12.52,4.66.89.21,1.8.42,2,.51a1.08,1.08,0,0,1,.53,1c-.08.35-.91,2.13-10,2.13-13.22,0-29.22-13.11-29.38-13.25a.71.71,0,0,0-1,.09,1.13,1.13,0,0,0-.12.21l-1.1,3L32.11,466.8c.58-2,2.48-8.44,4.17-10.57a25.48,25.48,0,0,1,4.48-4.2c2.48,3.22,16.86,12,22.28,12.39.85.42,1.73.82,2.63,1.2a.76.76,0,0,0,.09.18l.67.92a19.2,19.2,0,0,0-2.49,1.51c-.77.48-.06,1.71.72,1.22l1.4-.87a5.34,5.34,0,0,1,1.24-.68h0l.84,1.08" transform="translate(0 -0.01)"/><path id="Path_5264" data-name="Path 5264" class="cls-10" d="M189.12,469q.28,1,.66,1.92c.45,1.12,1,2.17,1.55,3.26a32.56,32.56,0,0,1,1.08,3.48.54.54,0,0,0,.67.35.51.51,0,0,0,.35-.35,3.76,3.76,0,0,0-.06-2.5c2.53,1.95,6.19,1.91,8.76,3.86.79.6,2.2,2.05,1.37,3.15-.67.87-2.4.55-3.25.35-2.24-.53-4.44-1.39-6.63-2.08l-6.86-2.17a25.5,25.5,0,0,1-6.51-2.72,22.52,22.52,0,0,1-4.42-4c-1.39-1.59-2.47-3.38-3.78-5a.66.66,0,0,0-.67-.28.38.38,0,0,0-.29.06,5,5,0,0,0-1.34,1.38c-.33.42-.66.85-1,1.29l-.07-.09c-1.7-1.66-3.6-3.13-5.35-4.74-.82-.76-1.62-1.52-2.41-2.31-.46-.44-.89-1-1.4-1.46a.47.47,0,0,1-.08-.66l0,0a13.79,13.79,0,0,0,1.06-1.48c.57-.8,1.14-1.59,1.69-2.4s1.18-1.71,1.83-2.51c.42-.52.94-1,1.37-1.5.88-.68,1.79-1.34,2.71-2,2.19,2.68,5.66,4.33,8.69,5.86A28,28,0,0,0,188,458.77a11.28,11.28,0,0,0-.11,2.25,10.67,10.67,0,0,1-3.52.13c-.6-.08-.86.83-.26.91A12.13,12.13,0,0,0,188,462c.05.54.12,1.07.2,1.6a17.61,17.61,0,0,1-3.48.14c-.61,0-.61.92,0,.95a19.91,19.91,0,0,0,3.62-.16,45,45,0,0,0,.8,4.54" transform="translate(0 -0.01)"/><g id="Group_1185" data-name="Group 1185" class="cls-3"><g id="Group_1184" data-name="Group 1184"><g class="cls-11"><g id="Group_1183" data-name="Group 1183"><path id="Path_5265" data-name="Path 5265" class="cls-5" d="M1284.53,481.83c0,10.62,58.44,19.22,130.53,19.22s130.53-8.6,130.53-19.22-58.44-19.22-130.53-19.22-130.53,8.61-130.53,19.22" transform="translate(0 -0.01)"/></g></g></g></g><rect id="Rectangle_2400" data-name="Rectangle 2400" class="cls-5" x="1301.21" y="214.25" width="0.93" height="2.83" transform="translate(0.55 434.59) rotate(-18.96)"/><path id="Path_5266" data-name="Path 5266" class="cls-5" d="M1317.49,306.89a.68.68,0,0,0,0,.54l3.79,7.06a.71.71,0,0,0,1,.3l20-10.2a.7.7,0,0,0,.31-.95v0l-4-7.11a.7.7,0,0,0-.94-.28l-19.79,10.25a.69.69,0,0,0-.35.42m1.64.51,18.54-9.61,3.3,5.87-18.72,9.56Z" transform="translate(0 -0.01)"/><path id="Path_5267" data-name="Path 5267" class="cls-5" d="M1300.36,243.47A22.45,22.45,0,0,1,1311,241.6c.6.05.61,1,0,1a21.09,21.09,0,0,0-8.83,1.22c-2.74,1-6,2.38-7.45,5a.48.48,0,0,1-.66.14.47.47,0,0,1-.16-.62c1.39-2.46,4-3.78,6.47-4.85" transform="translate(0 -0.01)"/><path id="Path_5268" data-name="Path 5268" class="cls-7" d="M1246.34,297a1,1,0,1,1-1,1h0a1,1,0,0,1,1-1" transform="translate(0 -0.01)"/><path id="Path_5269" data-name="Path 5269" class="cls-7" d="M1242.87,298a1,1,0,1,1-1,1h0a1,1,0,0,1,1-1h0" transform="translate(0 -0.01)"/><path id="Path_5270" data-name="Path 5270" class="cls-7" d="M1239.41,299a1,1,0,1,1-1,1h0a1,1,0,0,1,1-1h0" transform="translate(0 -0.01)"/><path id="Path_5271" data-name="Path 5271" class="cls-5" d="M1342.12,280.42a21.14,21.14,0,0,0,13.62-6.17c.44-.42,1.11.25.66.66a22.16,22.16,0,0,1-14.28,6.46c-.61,0-.61-.93,0-.95" transform="translate(0 -0.01)"/><path id="Path_5272" data-name="Path 5272" class="cls-5" d="M1331.7,266.85c.6,0,.61,1,0,.95-4.58-.29-10.71-.68-14.61,2.11-.5.36-1-.46-.48-.81,4-2.9,10.38-2.55,15.09-2.25" transform="translate(0 -0.01)"/><path id="Path_5273" data-name="Path 5273" class="cls-12" d="M1331.88,350.68a15.84,15.84,0,0,0,3.76-1.07c2.44-1.1,4.87-2.16,7.21-3.18,7-3.07,13.62-6,20.26-9.61l.53-.27a5.12,5.12,0,0,0,1.39-.86,108.56,108.56,0,0,0,25.17-18.83l0-.06a22.71,22.71,0,0,0,2.94-4.49c1.64,2.63,5.91,10.36,9.78,24.93,4.25,16,25,37.51,38.69,49.33a11.71,11.71,0,0,0-8.3,3.71c-.42.44.25,1.11.67.67a10.77,10.77,0,0,1,8.74-3.43c2.58,2.19,4.88,4,6.72,5.32A275.28,275.28,0,0,1,1505,446.92a50.75,50.75,0,0,1-22.42,17.61c-3.69-4.3-33.35-38.81-41.31-45.62-3-2.56-6.76-5.31-11.53-8.79-6.43-4.7-14.43-10.54-25-19.14-5.06-4.11-10-8.26-14.76-12.28-12.82-10.79-23.88-20.1-31.35-23.35a.71.71,0,0,0-.62,1.28l0,0a56,56,0,0,1,9.87,6.05c-4.21,3.14-24.53,18.29-28,20.76a3.9,3.9,0,0,0-1.91,2.75c-.2,2,1.69,4,4.3,6.8.75.79,1.52,1.61,2.33,2.52,4.63,5.19,27.53,36.43,33.8,48.93l-25,14.37c-3.21-5.85-27.64-50.1-37.2-61.73-9.12-11.07-7.41-13.92-5.6-16.94.17-.3.35-.6.53-.9,1.9-3.41,18.88-26,20.84-28.58" transform="translate(0 -0.01)"/><path id="Path_5274" data-name="Path 5274" class="cls-7" d="M1368.06,334.83a46.32,46.32,0,0,0,21.61,5.76c.61,0,.61,1,0,1a47.58,47.58,0,0,1-22.09-5.89.47.47,0,0,1-.15-.65.49.49,0,0,1,.63-.17" transform="translate(0 -0.01)"/><path id="Path_5275" data-name="Path 5275" class="cls-7" d="M1337,390.3c-4.82,2.81-11.81.93-16.5-1.29-.54-.26-.06-1.07.48-.81,4.37,2.07,11,3.91,15.55,1.28a.48.48,0,0,1,.48.82" transform="translate(0 -0.01)"/><path id="Path_5276" data-name="Path 5276" class="cls-7" d="M1343.44,359.77a37.44,37.44,0,0,1-7.32-3.47c-.51-.32,0-1.13.48-.81a36.86,36.86,0,0,0,7.09,3.37c.57.2.32,1.11-.25.91" transform="translate(0 -0.01)"/><path id="Path_5277" data-name="Path 5277" class="cls-7" d="M1338.33,359.88a15.61,15.61,0,0,0,5.15,1.94c.6.11.34,1-.25.91a16.25,16.25,0,0,1-5.38-2,.47.47,0,0,1-.14-.65.48.48,0,0,1,.62-.17" transform="translate(0 -0.01)"/><path id="Path_5280" data-name="Path 5280" class="cls-5" d="M1290.77,240.29a.77.77,0,0,1-.61-.3c-2.13-2.77-8.31-6.27-8.37-6.31a.76.76,0,0,1,.75-1.33c.26.15,6.51,3.69,8.83,6.7a.77.77,0,0,1-.14,1.08.76.76,0,0,1-.46.16" transform="translate(0 -0.01)"/><path id="Path_5281" data-name="Path 5281" class="cls-7" d="M1518.71,467.05c-.1-.36-2.4-8.94-4.6-11.7a28,28,0,0,0-5.42-5,24.66,24.66,0,0,0-2.55-2.66l.31-.49a.73.73,0,0,0,0-.8,276.72,276.72,0,0,0-56.09-54.76c-11.42-8.2-40.87-35.61-46-54.81-4.52-17-9.48-24.7-10.52-26.2a8.13,8.13,0,0,0,.37-2.35s0-.08,0-.12a16.22,16.22,0,0,0-3.46-7.88,144.6,144.6,0,0,0-15-15.06c-7-6.4-13.64-12.45-19-20.78a78.8,78.8,0,0,1-5.8-11.4,73.9,73.9,0,0,0-7-13.19c-4.94-6.41-11-10.83-16.71-14.81-1.44-.89-2.81-1.76-4.13-2.6-4.47-2.86-8.7-5.55-13.5-7.4a.68.68,0,0,0-.72.13c-1.15,1-2.28,2.08-3.39,3.19l-2.34-1.83a.7.7,0,0,0-.91,0c-.51.47-12.5,11.58-12,24l-1.4.57c-18.19,5.63-43.53,5.44-61,4.82h-.18l-.05,0-.08,0,0,0-.07,0s0,0,0,0l-.06.05,0,0,0,.06,0,.06a.09.09,0,0,0,0,.06l0,.07s0,0,0,.07a.15.15,0,0,0,0,.07s0,0,0,0v.06l0,.7-2.7-.11a.72.72,0,0,0-.52.19.68.68,0,0,0-.22.5v0c-.38-.11-.76-.24-.9-.3a3.2,3.2,0,0,1-.57-.32,23.84,23.84,0,0,1-.32-3.86c0-2.17-1.27-6.58-1.42-7.07-.26-.84-3.08-7.39-6.1-14.33-.43-1-.75-1.73-.9-2.08-.55-1.27-1.47-2-2.36-1.88-.34.05-1.16.31-1.34,1.73-.23,1.72,1.81,8.3,2.51,10l0,.07a2.28,2.28,0,0,0-1.21.44,2.17,2.17,0,0,0-.78,1.69c-.11,2.12.8,4.4,1.8,6.54a6.43,6.43,0,0,1-.09,2.23c0,.11-.07.25-.11.41-.46,1.61-1.53,5.38.23,8.17.38.61.76,1.24,1.13,1.85,1.46,2.43,2.72,4.52,4.09,5.09.73.3,3.65,1.4,6,2.18l-.11,4.05a.71.71,0,0,0,.69.73h2.5c0,.41,0,.82,0,1.23a.71.71,0,0,0,.71.71h0l52.72-1.1a190.87,190.87,0,0,1-48.43,20.84l-9.13,3a.71.71,0,0,0-.49.63l-2.89,1c-1.1-2.55-2.42-5-3.71-7.46l-.4-.76a68.74,68.74,0,0,1-4.37-11.18l-2.79-8.57a5,5,0,0,0-1-2,1.9,1.9,0,0,0-3.44,1,4.21,4.21,0,0,0,.14,1.73l-.14.16a2.58,2.58,0,0,0-.43,1.87c.08.79.66,4.76.8,5.73a7.61,7.61,0,0,0,.25,2.18c0,.28.11.53.14.73.18,1.4.38,2.8.59,4.2.44,3,1.29,6.82,2.11,10.52.55,2.46,1.07,4.79,1.44,6.75s.81,4.31,2.55,5.84,3.8,1.63,5.58,1.8c.73.08,1.48.12,2.2.17,1.1.07,2.23.15,3.33.31l1,3.34a.72.72,0,0,0,.88.49l0,0,3.29-1.16.77,2.49a.71.71,0,0,0,.88.47h0c2-.68,38.91-13.32,61.88-23.89h0a28.46,28.46,0,0,1,1.29,3.07,24.84,24.84,0,0,0,1.85,4.11.76.76,0,0,0,.11.14,27.88,27.88,0,0,0,5.53,4,31.55,31.55,0,0,1,3.94,2.65,24.18,24.18,0,0,1,3.2,4.12,195.15,195.15,0,0,1,20.22,46.56.68.68,0,0,0,.24.36,5.7,5.7,0,0,0,3.16,1.22c-3.79,5-18.44,24.57-20.26,27.83-.17.3-.34.58-.51.87-2.08,3.46-4,6.73,5.72,18.57,10.11,12.29,37.13,61.64,37.4,62.14a.67.67,0,0,0,.43.34.58.58,0,0,0,.19,0,.64.64,0,0,0,.35-.1l6-3.45c.32.55.61,1.11.89,1.7a.4.4,0,0,0,0,.11c.43,2.16-.12,4.46-.44,6.62-.14.57-.22,1.17-.35,1.63a23.64,23.64,0,0,1-1.6,4.22c-.32.61-.75,1.32-1.16,2.06a.5.5,0,0,0-.32.13c-2.87,2.41-7,2.11-10,4.27a5.26,5.26,0,0,0-2.43,3.66,2.8,2.8,0,0,0,2.35,2.84c1.77.44,3.59-.13,5.27-.65l6.63-2.09c4-1.26,8.31-2.19,11.84-4.5a26,26,0,0,0,8.17-8.82,27.75,27.75,0,0,0,1.61,2.29.72.72,0,0,0,1,.13.66.66,0,0,0,.16-.17l3.72-3.31c.53-.46,1-.92,1.55-1.38l0,0h0l.41-.37q1.34-1.2,2.61-2.46c.71-.7,1.74-1.4,2-2.41a2.42,2.42,0,0,0,0-.76,6.67,6.67,0,0,0-1.6-2.63c-.66-.91-1.32-1.81-2-2.7-.9-1.17-2-2.75-3.46-3.38-.9-.69-1.82-1.36-2.77-2a.55.55,0,0,0-.18-.22,14.78,14.78,0,0,1-3-2.68l1.25-.72a.7.7,0,0,0,.28-.92c-5.85-12.16-29.57-44.54-34.31-49.85-.82-.93-1.64-1.79-2.35-2.55-2.27-2.41-4.07-4.31-3.93-5.69a2.64,2.64,0,0,1,1.32-1.72c3.64-2.57,25.15-18.6,28.43-21.05,5.81,4.32,12.59,10,19.94,16.21,4.77,4,9.71,8.18,14.79,12.3,10.62,8.62,18.64,14.47,25.08,19.18,4.74,3.46,8.49,6.2,11.44,8.73,8.1,6.92,40.13,44.26,41.45,45.8a59.82,59.82,0,0,1-5.68,6.73c-2.07,2-8.68,3.56-11.86,4.3a19.43,19.43,0,0,0-2.24.59,2.47,2.47,0,0,0-1.34,2.58c.47,2.18,4.18,3.25,11.35,3.25,12.18,0,26.06-10.25,29.5-12.95l1,2.76a.72.72,0,0,0,.91.43h0l14.86-5.58a.71.71,0,0,0,.43-.85M1223.45,257.67c-2.28-.76-5-1.78-5.69-2.06-1.09-.45-2.39-2.61-3.64-4.7-.38-.62-.76-1.26-1.15-1.87-1.53-2.43-.54-5.92-.12-7.41.05-.17.09-.32.12-.44a7.26,7.26,0,0,0,.1-2.67.56.56,0,0,0,0-.12c-1-2.06-1.84-4.22-1.74-6.16a1.27,1.27,0,0,1,.42-1,1.71,1.71,0,0,1,1.21-.22,3,3,0,0,1,1.3,2c0,.05.54,1.43,1.08,2.89a13.4,13.4,0,0,1,.48,1.52,20.36,20.36,0,0,0,.81,2.43,9.81,9.81,0,0,1,.37,4.34.46.46,0,0,0,.39.53h.08a.46.46,0,0,0,.46-.4,10.42,10.42,0,0,0-.42-4.83,19.3,19.3,0,0,1-.78-2.33,14.82,14.82,0,0,0-.5-1.6c-.54-1.47-1.06-2.85-1.06-2.85a4,4,0,0,0-1.69-2.49c0-.13-.14-.33-.25-.6-.76-1.86-2.63-8.14-2.45-9.53.07-.54.27-.88.54-.92s1,.4,1.36,1.32c.15.35.47,1.1.9,2.08,1.73,4,5.78,13.32,6.06,14.23a30.15,30.15,0,0,1,1.38,6.77,23.81,23.81,0,0,0,.36,4.22.46.46,0,0,0,.15.27,3.51,3.51,0,0,0,.94.58c.24.1.83.29,1.26.42Zm3.37-.38c-.11,1.55-.21,3.14-.28,4.73h-1.8l.36-13.22,2.08.09c0,2.89-.17,5.69-.36,8.4m280.64,193.84c-1,1.54-8.69,6.78-15,9.76a49.92,49.92,0,0,0,12.86-12,25,25,0,0,1,2.14,2.23M1302.82,218.07l1.73,1.35a75.94,75.94,0,0,0-12.68,17.86c1.33-9.21,9-17.32,11-19.21m-11.19,23h0a73.48,73.48,0,0,1,17.91-24.52c1.36.54,2.67,1.15,4,1.82-2.79,2.59-15.07,14.19-22.74,24.71.44-1.08.85-2,.86-2h0M1227.89,264c0-2.2.19-4.41.34-6.55a91.25,91.25,0,0,0,.33-9.92c4.52.15,9.53.27,14.8.27,15.19,0,32.47-1,45.94-5.18a.75.75,0,0,0,.2-.1,27.48,27.48,0,0,0-1.11,3c-1.44,5.16-2.46,10.49-3.44,15.65a7.67,7.67,0,0,1-1.06.73l-1.56.93Zm-9.35,37.59c-.71,0-1.45-.09-2.17-.16-1.63-.17-3.67-.37-5-1.58s-1.85-3.21-2.25-5.31-.89-4.31-1.44-6.78c-.82-3.68-1.67-7.5-2.1-10.45-.21-1.39-.4-2.79-.59-4.19,0-.22-.09-.5-.15-.8a8.41,8.41,0,0,1-.24-1.66.52.52,0,0,0,0-.25.62.62,0,0,0,0-.09,1,1,0,0,1,.1-.33.32.32,0,0,1,.27-.17.5.5,0,0,1,.43.16,2.25,2.25,0,0,1,.4.84c.54,1.6,1.16,3.2,1.76,4.75.7,1.82,1.43,3.71,2,5.59a.48.48,0,0,0,.61.29.46.46,0,0,0,.29-.57c-.6-1.91-1.33-3.81-2-5.65-.6-1.54-1.21-3.13-1.74-4.71a3.16,3.16,0,0,0-.62-1.19,1.46,1.46,0,0,0-1.23-.45,1.41,1.41,0,0,0-.44.14c-.22-1.56-.56-3.94-.62-4.52a1.68,1.68,0,0,1,.23-1.18.73.73,0,0,1,.64-.29c.36,0,.64.47.89,1.29.2.62.39,1.25.58,1.88a100.87,100.87,0,0,0,4.47,12.64.47.47,0,1,0,.87-.37v0a101.29,101.29,0,0,1-4.43-12.53l-.57-1.88c-.15-.48-.55-1.77-1.65-1.95a1.7,1.7,0,0,0-.55,0,3.3,3.3,0,0,1,0-1.13,1,1,0,0,1,1-1,1,1,0,0,1,.85.48,4.33,4.33,0,0,1,.8,1.64l2.78,8.57A70.18,70.18,0,0,0,1214,282l.4.75c1.41,2.65,2.86,5.39,4,8.16l3.12,10.92c-1-.13-2-.2-3-.26m5.39,3.48-4-14.1,2.33-.8,4.32,14Zm104,43.51a196.62,196.62,0,0,0-20.32-46.7,26.88,26.88,0,0,0-3.41-4.39s0,0,0-.05a32.89,32.89,0,0,0-4.14-2.78,26.92,26.92,0,0,1-5.2-3.72,23.18,23.18,0,0,1-1.7-3.81,30.33,30.33,0,0,0-1.33-3.17,89.74,89.74,0,0,0,13.51-7.38c14.94-10.79,15.48-24.4,15.49-25a.71.71,0,1,0-1.41,0c0,.13-.57,13.5-14.91,23.86-13.73,9.93-68.79,29.08-75.61,31.44l-5.44-17.58,8.44-2.77a192.58,192.58,0,0,0,50.43-22l2.27-1.36a8,8,0,0,0,1-.66c.82-.57,1.22-3.38,1.22-3.38,0-.21.09-.43.13-.65a.87.87,0,0,1,0-.28c.67-3.42,1.37-6.85,2.24-10.22,7.28-11.77,23.64-27,25.63-28.83,2.53,1.39,5,3,7.55,4.58,1.33.85,2.7,1.73,4.12,2.6,5.62,3.9,11.55,8.24,16.34,14.47a72.34,72.34,0,0,1,6.81,12.91,81.11,81.11,0,0,0,5.91,11.6c5.48,8.49,12.48,14.88,19.26,21.06a146.71,146.71,0,0,1,14.8,14.91,14.85,14.85,0,0,1,3.14,7.16c0,2.68-1.93,5.41-3.6,7.5a110.15,110.15,0,0,1-8.17,7.4c-1.78-2.2-14.75-18.14-20-23.6a.71.71,0,0,0-1,1c5.24,5.42,18.16,21.3,20,23.5a110.34,110.34,0,0,1-15.63,10.33l-.16.12a4.38,4.38,0,0,1-1.09.67c-.2.1-.4.19-.59.3-6.58,3.61-13.17,6.5-20.15,9.55-2.35,1-4.77,2.08-7.19,3.17a14,14,0,0,1-3.65,1h0a5,5,0,0,1-3.43-.77m55.89,103.27c.42.53.94,1,1.36,1.5.66.8,1.24,1.66,1.83,2.51l1.69,2.4a15.85,15.85,0,0,0,1.06,1.48.47.47,0,0,1,0,.67l0,0a19.14,19.14,0,0,0-1.4,1.46c-.79.78-1.6,1.55-2.42,2.3-1.74,1.62-3.65,3.08-5.34,4.74l-.08.1c-.31-.44-.64-.87-1-1.3a5,5,0,0,0-1.33-1.38.49.49,0,0,0-.29-.06.71.71,0,0,0-.68.28c-1.31,1.64-2.38,3.44-3.77,5a22.49,22.49,0,0,1-4.42,4,25,25,0,0,1-6.52,2.72l-6.86,2.18c-2.18.69-4.39,1.55-6.62,2.07-.86.2-2.59.53-3.26-.35-.83-1.09.58-2.54,1.37-3.14,2.58-1.95,6.23-1.92,8.76-3.86a3.83,3.83,0,0,0-.06,2.5.54.54,0,0,0,1,0,35,35,0,0,1,1.08-3.48c.52-1.09,1.1-2.15,1.55-3.27.26-.63.47-1.27.67-1.91.42-1.74.7-3.79.8-4.54a19,19,0,0,0,3.61.16c.61,0,.61-1,0-.94a19.27,19.27,0,0,1-3.48-.14c.08-.54.15-1.07.21-1.6a12.06,12.06,0,0,0,3.84.09c.6-.08.34-1-.25-.91a10.47,10.47,0,0,1-3.53-.13,10.58,10.58,0,0,0-.11-2.25,28.07,28.07,0,0,0,11.19-3.06c3-1.53,6.5-3.18,8.68-5.86.93.62,1.83,1.28,2.72,2m-3.43-2.56c-2,2.55-5.6,4.21-8.45,5.64a26.65,26.65,0,0,1-11,3c-.23-.47-.47-.92-.72-1.37l17.31-9.93a15,15,0,0,0,2.87,2.7m60.82-30.34c-3-2.56-6.76-5.31-11.53-8.79-6.42-4.7-14.43-10.54-25-19.14-5.06-4.11-10-8.26-14.76-12.28-12.82-10.78-23.88-20.1-31.35-23.35a.71.71,0,0,0-.57,1.3,56.49,56.49,0,0,1,9.88,6c-4.22,3.14-24.54,18.29-28.06,20.76a3.9,3.9,0,0,0-1.91,2.74c-.2,2,1.69,4,4.3,6.8.75.8,1.52,1.62,2.33,2.53,4.63,5.19,27.53,36.43,33.8,48.93l-25,14.36c-3.21-5.84-27.63-50.1-37.2-61.73-9.11-11.07-7.4-13.92-5.6-16.94.18-.3.36-.6.53-.9,1.9-3.4,18.89-26,20.85-28.58a16.22,16.22,0,0,0,3.75-1.06c2.45-1.1,4.87-2.16,7.21-3.19,7-3.06,13.63-6,20.27-9.6.17-.1.35-.18.53-.27a5.8,5.8,0,0,0,1.38-.86,108.84,108.84,0,0,0,25.17-18.83l0-.06a23,23,0,0,0,2.94-4.49c1.64,2.63,5.91,10.36,9.78,24.93,4.25,16,25,37.51,38.69,49.33a11.63,11.63,0,0,0-8.29,3.71c-.42.44.25,1.11.66.67a10.76,10.76,0,0,1,8.74-3.43c2.59,2.19,4.88,4,6.72,5.32A275.54,275.54,0,0,1,1505,446.92a50.76,50.76,0,0,1-22.42,17.62c-3.69-4.3-33.35-38.81-41.31-45.62m62.35,53-1.1-3a.71.71,0,0,0-.91-.42.72.72,0,0,0-.21.12c-.16.13-16.17,13.24-29.38,13.24-9,0-9.89-1.77-10-2.13a1.06,1.06,0,0,1,.53-1c.18-.08,1.1-.3,2-.51,3.56-.84,10.17-2.4,12.52-4.66a41.67,41.67,0,0,0,3.16-3.48c.76.55,1.53,1.09,2.31,1.6s1.47-.72.71-1.22-1.43-1-2.13-1.48l.85-1.09h0a5.34,5.34,0,0,1,1.24.68l1.41.88c.78.48,1.49-.74.71-1.23a19.64,19.64,0,0,0-2.49-1.51c.4-.53.64-.87.68-.92a.89.89,0,0,0,.08-.17c.91-.39,1.79-.79,2.63-1.2,5.43-.39,19.81-9.18,22.29-12.39a25.36,25.36,0,0,1,4.47,4.19c1.69,2.14,3.6,8.55,4.17,10.57Z" transform="translate(0 -0.01)"/><path id="Path_5282" data-name="Path 5282" class="cls-8" d="M1264.15,226.43a4.15,4.15,0,0,1,3.45,1.14c.65.58,1.24,1.7,2.09,2s1.53-.34,2-1a15.21,15.21,0,0,0,1.22-2.5c1.63-2.18,2.31-5.08,3-7.67.6-2.39,1.35-5.61-.91-7.36a5.35,5.35,0,0,0,1.41-.43,10,10,0,0,0,1.38-.61,6.48,6.48,0,0,0-.3,1.74,9.37,9.37,0,0,0,0,1.06.31.31,0,0,0,0,.19,33.93,33.93,0,0,0,4.33,10.2c1,1.59,2.27,3.46,1.52,5.4-.3.77-.78,1.45-1.12,2.2a12.69,12.69,0,0,0-.76,2.33,45,45,0,0,0-.38,5.18,8.54,8.54,0,0,1-1.72,4.18c-2,2.54-5.6,4-8.46,2-3.38-2.36-3.91-7.34-3.26-11.12a.34.34,0,0,0,.24,0c1.17-.8,1.12-2.74.41-3.82a3.4,3.4,0,0,0-3.72-1.4,14.52,14.52,0,0,1-.33-1.62" transform="translate(0 -0.01)"/><path id="Path_5283" data-name="Path 5283" class="cls-8" d="M1265.94,193.43c.17.33,2.21,8.91,2.63,10.67a1.85,1.85,0,0,0,.25.58l.7,1.08a1.76,1.76,0,0,0,.73.65l2.57,1.29a1.86,1.86,0,0,0,1.35.12l12.1-3.55a1.82,1.82,0,0,1,1.64.3,13.89,13.89,0,0,1,3.56,3.69,50.39,50.39,0,0,1,2.65,6.57,1.86,1.86,0,0,0,2.32,1.16l3.56-1.14a1.84,1.84,0,0,0,1.29-1.84l-.3-8.15a1.52,1.52,0,0,0-.12-.59c-.66-1.73-4.1-10.7-4.21-10.78s-3.83-9.09-12.73-9-18.37,8.72-18.37,8.72" transform="translate(0 -0.01)"/><path id="Path_5284" data-name="Path 5284" class="cls-8" d="M1259.64,185.05a19.18,19.18,0,0,0-3.91,7.51c-1,4.15,0,6.19.1,6.45s2.32,2.87,2.32,2.87,11.57-15.37,22.85-17,15.14,7.5,15.36,7.92,4.1,10.4,4.5,12.2c0,0,2.46-8.52,1-12.47s-7-19.2-28.55-14.27c0,0-7-.29-13.64,6.82" transform="translate(0 -0.01)"/><path id="Path_5285" data-name="Path 5285" class="cls-5" d="M1265.39,220.37c-.53,0-1.37-.87-1.74-1.21a11.23,11.23,0,0,1-1.42-1.65,31.37,31.37,0,0,1-2.2-3.87.26.26,0,0,0,0-.08c0-.27.71-.44.94-.52a6.71,6.71,0,0,1,1.07-.27,17.84,17.84,0,0,0,1.82,3.56c.41.65.84,1.3,1.24,2,.23.39.47.79.67,1.2s.59.95-.41.88" transform="translate(0 -0.01)"/><path id="Path_5286" data-name="Path 5286" class="cls-5" d="M1285.92,203.91c-2.38-.72-5,1.62-5.12,4a.19.19,0,0,0,.36.1c.92-1.7,2.46-4.19,4.81-3.13,2,.91,2.26,3.45,2.27,5.39a11.38,11.38,0,0,1-1,5.66,2.79,2.79,0,0,1-2.56,1.67c-1.07-.12-1.34-1.22-2.12-1.73-.15-.1-.4-.05-.41.16a2.8,2.8,0,0,0,1.76,2.45,3,3,0,0,0,3.06-.65c2-1.75,2.18-5.07,2.16-7.51s-.48-5.56-3.19-6.38" transform="translate(0 -0.01)"/><path id="Path_5287" data-name="Path 5287" class="cls-5" d="M1285.11,207.41a.22.22,0,0,0-.12-.28.2.2,0,0,0-.25.06c-1.38,1.71-1.19,4.06-.36,6,.25.58.69,1.34,1.45,1a1.79,1.79,0,0,0,.91-1.77c-.27-1-1.24-.76-1.78-.1a7.1,7.1,0,0,1-.36-1.58,6.87,6.87,0,0,1,.51-3.32" transform="translate(0 -0.01)"/><path id="Path_5288" data-name="Path 5288" class="cls-5" d="M1295.69,190.58a12.78,12.78,0,0,0-3.47-3.78,14.32,14.32,0,0,0-4-2.08,9.75,9.75,0,0,0-4.54-.6.34.34,0,0,0-.28.38.34.34,0,0,0,.27.28,36.33,36.33,0,0,1,4.26.93,13.82,13.82,0,0,1,3.63,1.9,16,16,0,0,1,3.19,3.28,18.79,18.79,0,0,1,2.19,4.45.26.26,0,0,0,.34.13.26.26,0,0,0,.15-.25,12.17,12.17,0,0,0-1.75-4.65" transform="translate(0 -0.01)"/><path id="Path_5289" data-name="Path 5289" class="cls-5" d="M1294.85,186.22c-.22-.13-.4.21-.22.37a13.32,13.32,0,0,1,3.38,4.87c.83,2,1.11,4.15,1.78,6.2.1.33.55.17.55-.13-.07-4.17-1.73-9.13-5.49-11.31" transform="translate(0 -0.01)"/><path id="Path_5290" data-name="Path 5290" class="cls-5" d="M1279.45,204.86s7.5-2.76,13.33-1.77c0,0,3.82.57,2.32,2s-3,.27-3.93.14-4.29-1-5.83-.88-5.75,1.31-5.75,1.26-.14-.78-.14-.78" transform="translate(0 -0.01)"/><path id="Path_5291" data-name="Path 5291" class="cls-5" d="M1273.19,207.09l-1.33.54c-5.14,2.14-9.52,4.38-9.52,4.38l1.13,1.7,17.36-6.1a7.5,7.5,0,0,0,1.67-2.27c.46-1.17,3-1.54,3-1.54-2.88-.13-7.74,1.47-12.26,3.29" transform="translate(0 -0.01)"/><path id="Path_5292" data-name="Path 5292" class="cls-5" d="M1273.05,207.61a.43.43,0,0,1-.44-.08,4.05,4.05,0,0,0-1.95-.57,2.69,2.69,0,0,1-2.23-2c-2.62-9.4-2.63-9.54-2.64-9.6a.44.44,0,0,1,.37-.49.43.43,0,0,1,.48.36c.06.26,1.06,3.89,2.62,9.5a1.84,1.84,0,0,0,1.52,1.32,4.81,4.81,0,0,1,2.4.78.43.43,0,0,1,0,.61h0a.35.35,0,0,1-.17.12" transform="translate(0 -0.01)"/><path id="Path_5293" data-name="Path 5293" class="cls-5" d="M1298.51,210.73a5.58,5.58,0,0,0-2.27.74.22.22,0,0,0-.12.29.23.23,0,0,0,.29.13h0l1.1-.38a7,7,0,0,0,1.09-.36.22.22,0,0,0,.12-.29.23.23,0,0,0-.21-.13" transform="translate(0 -0.01)"/><path id="Path_5294" data-name="Path 5294" class="cls-5" d="M1298.92,212.08a3,3,0,0,0-1,.23,2.9,2.9,0,0,0-.93.38.24.24,0,0,0,0,.33.23.23,0,0,0,.19.09,3.41,3.41,0,0,0,1-.24,3.11,3.11,0,0,0,.92-.39.22.22,0,0,0,.05-.31.22.22,0,0,0-.21-.09" transform="translate(0 -0.01)"/><path id="Path_5295" data-name="Path 5295" class="cls-5" d="M1268.55,195.67a.17.17,0,0,0-.24,0,.17.17,0,0,0-.06.14,38.68,38.68,0,0,0,1.15,3.71c.37,1.34.6,2.71,1,4,.06.2.36.11.35-.08a21.66,21.66,0,0,0-.83-4,15.2,15.2,0,0,0-1.36-3.81" transform="translate(0 -0.01)"/><path id="Path_5296" data-name="Path 5296" class="cls-5" d="M1270.69,197c0-.07-.2-.06-.2,0a5.53,5.53,0,0,0,.35,1.65,17.5,17.5,0,0,0,.58,2.12.14.14,0,0,0,.18.07.16.16,0,0,0,.08-.13,9.06,9.06,0,0,0-.34-1.94,5.09,5.09,0,0,0-.65-1.82" transform="translate(0 -0.01)"/><path id="Path_5297" data-name="Path 5297" class="cls-5" d="M1271.76,201.56a.13.13,0,0,0-.19,0,.14.14,0,0,0,0,.06.82.82,0,0,0,.06.38c0,.12.05.25.1.38a.12.12,0,0,0,.16.06.12.12,0,0,0,.06-.06.77.77,0,0,0-.17-.85" transform="translate(0 -0.01)"/><path id="Path_5298" data-name="Path 5298" class="cls-5" d="M1273.39,184.76a15.3,15.3,0,0,0-6.89,3.45c-.2.17,0,.49.24.33a23,23,0,0,1,3.33-2.09c1.1-.55,2.27-.9,3.39-1.41a.15.15,0,0,0-.07-.28" transform="translate(0 -0.01)"/><path id="Path_5299" data-name="Path 5299" class="cls-5" d="M1281.87,179a14.66,14.66,0,0,0-5.37.72.18.18,0,0,0-.09.22.19.19,0,0,0,.17.1c.88-.05,1.75-.26,2.63-.36s1.78-.07,2.65-.23a.23.23,0,0,0,0-.45" transform="translate(0 -0.01)"/><path id="Path_5300" data-name="Path 5300" class="cls-5" d="M1268.37,234.76a10.93,10.93,0,0,0,1.58,7.36c.08.12.26,0,.22-.12a25.86,25.86,0,0,1-1.14-3.66,32.61,32.61,0,0,1-.27-3.57.2.2,0,0,0-.22-.16.2.2,0,0,0-.17.15" transform="translate(0 -0.01)"/><path id="Path_5301" data-name="Path 5301" class="cls-5" d="M1269.7,234.27c-.52.44-.41,1.13-.36,1.75a7,7,0,0,0,.66,2.74c.09.18.4.14.37-.09a21.38,21.38,0,0,1-.39-4.22c0-.15-.15-.29-.28-.18" transform="translate(0 -0.01)"/><path id="Path_5302" data-name="Path 5302" class="cls-5" d="M1278.92,219a9.41,9.41,0,0,0-.88-1.66c-.1-.13-.34-.06-.3.12a7.83,7.83,0,0,0,.67,1.74,6.77,6.77,0,0,0,.92,1.64c.1.11.34.06.3-.12a7.58,7.58,0,0,0-.7-1.72" transform="translate(0 -0.01)"/><path id="Path_5303" data-name="Path 5303" class="cls-5" d="M1280,221.48a.09.09,0,0,0-.14.1,11.12,11.12,0,0,0,.86,1.64c.35.61.68,1.22,1.07,1.81,0,.09.18,0,.15-.08a9.82,9.82,0,0,0-1.94-3.47" transform="translate(0 -0.01)"/><path id="Path_5304" data-name="Path 5304" class="cls-5" d="M1301.53,215l.47-.21a20.71,20.71,0,0,1-.79-6.17c0-4.36,1.16-8.58,1.41-12.91a.5.5,0,0,0,.12-.33,16.81,16.81,0,0,0-2.2-7.07,22.28,22.28,0,0,0-4.45-5.76,21.16,21.16,0,0,0-13.52-5.94,48.17,48.17,0,0,0-7.4.49,30.57,30.57,0,0,0-7.68,1.68,20.85,20.85,0,0,0-10.2,8.9c-2.35,4-4,10.3-.55,14.11l0,.09a.34.34,0,0,0,.2.17l.4.37a1.07,1.07,0,0,1,.55.16,11.53,11.53,0,0,0,.37,2c.19,1,.39,2,.51,3,.25,1.95.36,3.9.56,5.86a.33.33,0,0,0,.15.25c.39,1,.83,2,1.32,3a.15.15,0,0,0-.1.12c-.27,1.27,0,2.63-.18,3.93a15.74,15.74,0,0,0-.45,3.49,2.87,2.87,0,0,0,1.16,2.11,3,3,0,0,0,2,.32l0,0,.07.06a5.63,5.63,0,0,0,.1.92,6.58,6.58,0,0,0,.64,1.77,2.65,2.65,0,0,0,1.81,1.1,2.18,2.18,0,0,0,1.06,2.66c-.81,3.59-.44,8.07,2.1,10.92a6.53,6.53,0,0,0,8.41,1.21,9.48,9.48,0,0,0,4.5-8.17.86.86,0,0,1,0-.16l0-.62c0-.22,0-.43,0-.64l.1-1.22A11.42,11.42,0,0,1,1283,231a18.76,18.76,0,0,0,1.2-2.47,4.52,4.52,0,0,0,0-2.42c-.55-2.23-2.22-4.16-3.29-6.17a40.9,40.9,0,0,1-2.84-7.16.31.31,0,0,0,0-.1,7,7,0,0,1-.08-1,10.5,10.5,0,0,1,.3-1.92.2.2,0,0,0,0-.13h0c.08-.07,0-.24-.09-.22a16.87,16.87,0,0,0-1.94.63,5.06,5.06,0,0,0-1.9.72.19.19,0,0,0,0,.09.2.2,0,0,0,0,.23,7.58,7.58,0,0,1,1.28,3.74,9.81,9.81,0,0,1-.41,2.79h0c-.11.42-.22.83-.32,1.24a1.21,1.21,0,0,0,0,.18c-.84,2.72-2.4,6.12-2.42,6.23h0c-.46.84-.91,1.7-1.41,2.54-.22.37-.47,1-1.08.72a.71.71,0,0,1-.14-.1,16.31,16.31,0,0,0-1.44-1.44,5.31,5.31,0,0,0-2.25-1.12h0a6.09,6.09,0,0,0-2.17-.08c-.84-.28-1.77.25-2.46-.5s-.52-2-.35-2.93a12.85,12.85,0,0,0,.16-5,12.64,12.64,0,0,0,1.08,1.55c.77.94,2.36,2.66,3.74,2.38,1.65-.34.38-2.41-.07-3.19a55.56,55.56,0,0,1-3.2-5.81.4.4,0,0,0-.44-.25.41.41,0,0,0-.19,0,4.84,4.84,0,0,0-2.06.62c0-.4,0-.81,0-1.22l0-.61a31.12,31.12,0,0,0-.51-3.33c-.2-1-.39-2-.6-3a8.37,8.37,0,0,0-.59-2.26c3.24-3.55,6.31-7.28,10-10.38a31,31,0,0,1,13.2-6.63c.42-.1.38-.76-.08-.7-5,.6-9.58,3.35-13.36,6.47a65.65,65.65,0,0,0-9.43,9.93,40.45,40.45,0,0,1,2.63-5.47,26.49,26.49,0,0,1,1.92-2.75,12.84,12.84,0,0,0,2-2.43.13.13,0,0,0-.06-.17.12.12,0,0,0-.1,0,6.86,6.86,0,0,0-2.28,2.07,29.85,29.85,0,0,0-2.12,2.77,20.48,20.48,0,0,0-2.69,5.52,5.27,5.27,0,0,1,0-1.05,9.28,9.28,0,0,1,.56-2.28,27.42,27.42,0,0,1,2-4,61,61,0,0,1,5.6-7.68c.14-.16-.09-.41-.26-.27a28.61,28.61,0,0,0-6.37,8,22.17,22.17,0,0,0-2.06,4.48,6.82,6.82,0,0,0-.31,2.69,11.11,11.11,0,0,1,.73-6.34c.45-1.15,1-2.27,1.48-3.41.4-.94,1.2-2.14,1.18-3.18a.1.1,0,0,0-.1-.1s0,0-.07,0a4.33,4.33,0,0,0-.92,1.56c-.14.29-.33.67-.46,1a48.9,48.9,0,0,0-2,4.74,14.14,14.14,0,0,0-.8,4.22c-1-3.31,0-7.07,1.77-10.15a20.4,20.4,0,0,1,9.46-8.48,25.82,25.82,0,0,1,7-1.75c2.19-.29,4.38-.6,6.59-.69a17.45,17.45,0,0,1,6.87.94,24.24,24.24,0,0,1,6.52,3.81,20.08,20.08,0,0,1,4.86,5.76,28.8,28.8,0,0,1,2.57,7.37.41.41,0,0,0,.45.33,58.6,58.6,0,0,0-1.25,6.28,43.12,43.12,0,0,0-.64,6.8,22.48,22.48,0,0,0,.54,5.24,19.81,19.81,0,0,0-2.68.94c-.83.27-1.71.47-2.54.76a.39.39,0,0,1-.51-.24.5.5,0,0,1,0-.12,10.61,10.61,0,0,0-1.37-4.72,23,23,0,0,0-1.78-2.67c-.45-.59-1-1.54-1.83-1.58a.17.17,0,0,0-.18.13v0a5.48,5.48,0,0,0,1,1.94c.56.88,1.15,1.76,1.63,2.69a30.68,30.68,0,0,1,1.7,5.39.35.35,0,0,0,.32.25.36.36,0,0,0,.14,0,12.5,12.5,0,0,0,3.62-.91,16.18,16.18,0,0,0,2.61-.92Zm-37.38,11.48a4.17,4.17,0,0,1,3.46,1.14c.64.58,1.23,1.7,2.09,2s1.52-.35,1.94-1a13.77,13.77,0,0,0,1.22-2.5c1.63-2.17,2.31-5.07,3-7.67.6-2.39,1.35-5.61-.91-7.36a5.35,5.35,0,0,0,1.41-.43,11.42,11.42,0,0,0,1.39-.6,6,6,0,0,0-.3,1.73,6.25,6.25,0,0,0,0,1.06.31.31,0,0,0,0,.19,34.13,34.13,0,0,0,4.33,10.21c1,1.58,2.27,3.45,1.52,5.4-.3.76-.78,1.45-1.11,2.2a12.63,12.63,0,0,0-.77,2.32,47.31,47.31,0,0,0-.38,5.19,8.42,8.42,0,0,1-1.72,4.17c-2,2.54-5.6,4-8.45,2-3.38-2.36-3.92-7.34-3.27-11.11a.33.33,0,0,0,.24,0c1.17-.79,1.12-2.74.42-3.82a3.43,3.43,0,0,0-3.73-1.4,14.52,14.52,0,0,1-.33-1.62m3.33,3.25a2.68,2.68,0,0,1,0,2.82l0,0a1.68,1.68,0,0,1-.89-2,1.59,1.59,0,0,1,0-.38l-.12-.23c-.66-.55-1.4-.49-1.81-1.4v0a3.68,3.68,0,0,1,2.86,1.25" transform="translate(0 -0.01)"/><path id="Path_5305" data-name="Path 5305" class="cls-10" d="M1223.44,257.67c-2.27-.76-5-1.78-5.68-2.06-1.09-.45-2.39-2.61-3.65-4.7-.37-.62-.75-1.26-1.14-1.87-1.53-2.43-.54-5.92-.12-7.41.05-.17.09-.32.12-.44a7.27,7.27,0,0,0,.1-2.67.56.56,0,0,0,0-.12c-1-2.06-1.84-4.22-1.74-6.16a1.27,1.27,0,0,1,.42-1,1.66,1.66,0,0,1,1.21-.22,3,3,0,0,1,1.3,2c0,.05.53,1.43,1.08,2.89a15.84,15.84,0,0,1,.48,1.52,18.71,18.71,0,0,0,.81,2.43,9.66,9.66,0,0,1,.36,4.34.48.48,0,0,0,.4.53h.08a.46.46,0,0,0,.46-.4,10.55,10.55,0,0,0-.42-4.83,19.3,19.3,0,0,1-.78-2.33c-.13-.47-.26-.95-.5-1.6-.54-1.47-1.06-2.85-1.06-2.85a4,4,0,0,0-1.69-2.49c0-.13-.14-.33-.25-.6-.76-1.86-2.63-8.14-2.45-9.53.07-.54.27-.88.53-.92s1,.4,1.37,1.32c.15.35.47,1.1.9,2.08,1.73,4,5.78,13.32,6.06,14.23a30.15,30.15,0,0,1,1.38,6.77,23.81,23.81,0,0,0,.36,4.22.46.46,0,0,0,.15.27,3.51,3.51,0,0,0,.94.58c.24.1.82.29,1.26.42Z" transform="translate(0 -0.01)"/><path id="Path_5306" data-name="Path 5306" class="cls-10" d="M1218.55,301.54c-.72,0-1.46-.09-2.17-.16-1.64-.17-3.67-.37-5-1.58s-1.86-3.21-2.26-5.31-.89-4.31-1.44-6.78c-.82-3.68-1.67-7.5-2.1-10.45-.2-1.39-.4-2.79-.59-4.19,0-.22-.09-.5-.15-.8a9.34,9.34,0,0,1-.24-1.67.61.61,0,0,0,0-.24l0-.09a.91.91,0,0,1,.1-.33.36.36,0,0,1,.27-.18.54.54,0,0,1,.43.17,2.35,2.35,0,0,1,.41.84c.53,1.6,1.15,3.2,1.75,4.75.71,1.82,1.44,3.71,2,5.59a.47.47,0,0,0,.9-.28c-.6-1.91-1.34-3.81-2-5.65-.59-1.54-1.21-3.13-1.74-4.71a3,3,0,0,0-.62-1.19,1.44,1.44,0,0,0-1.22-.45,1.39,1.39,0,0,0-.45.14c-.22-1.56-.56-3.94-.62-4.52a1.69,1.69,0,0,1,.24-1.18.71.71,0,0,1,.63-.3c.36.06.64.47.9,1.3l.57,1.88a101.49,101.49,0,0,0,4.48,12.64.45.45,0,0,0,.43.27.51.51,0,0,0,.2,0,.47.47,0,0,0,.23-.62h0a101.29,101.29,0,0,1-4.43-12.53c-.19-.63-.38-1.25-.58-1.88s-.54-1.77-1.64-1.95a1.46,1.46,0,0,0-.55,0,3.31,3.31,0,0,1,0-1.13,1,1,0,0,1,1-1,1,1,0,0,1,.84.48,4.17,4.17,0,0,1,.79,1.64l2.79,8.57A70.6,70.6,0,0,0,1214,282l.4.76c1.41,2.65,2.87,5.39,4,8.16l3.11,10.91c-1-.12-2-.19-3-.25" transform="translate(0 -0.01)"/><path id="Path_5307" data-name="Path 5307" class="cls-10" d="M1383.85,451.81c.42.52.94,1,1.37,1.5.65.8,1.24,1.66,1.82,2.51l1.69,2.4a17.29,17.29,0,0,0,1.06,1.48.47.47,0,0,1,0,.67l0,0c-.51.43-1,1-1.4,1.46-.79.79-1.6,1.56-2.41,2.31-1.75,1.61-3.65,3.08-5.35,4.74l-.07.09c-.32-.44-.64-.87-1-1.29a5,5,0,0,0-1.34-1.38.38.38,0,0,0-.29-.06.68.68,0,0,0-.68.28c-1.3,1.64-2.38,3.43-3.77,5a22.81,22.81,0,0,1-4.42,4,25.29,25.29,0,0,1-6.51,2.72l-6.86,2.17c-2.19.7-4.39,1.55-6.63,2.08-.85.2-2.59.52-3.25-.35-.84-1.09.57-2.55,1.37-3.15,2.57-1.95,6.23-1.91,8.76-3.86a3.76,3.76,0,0,0-.07,2.5.54.54,0,0,0,.67.35.51.51,0,0,0,.35-.35,35,35,0,0,1,1.08-3.48c.52-1.09,1.1-2.14,1.55-3.26a19,19,0,0,0,.67-1.92c.42-1.74.7-3.78.8-4.53a19.91,19.91,0,0,0,3.62.16c.6,0,.6-1,0-1a18.51,18.51,0,0,1-3.49-.14c.08-.53.16-1.07.21-1.6a12.07,12.07,0,0,0,3.84.1c.6-.09.34-1-.25-.91a10.74,10.74,0,0,1-3.53-.13,10.58,10.58,0,0,0-.11-2.25,28.07,28.07,0,0,0,11.19-3.06c3-1.53,6.5-3.18,8.68-5.86.93.62,1.83,1.28,2.72,2" transform="translate(0 -0.01)"/><path id="Path_5308" data-name="Path 5308" class="cls-10" d="M1503.59,471.9l-1.1-3a.71.71,0,0,0-.91-.42l-.21.12c-.16.13-16.16,13.24-29.37,13.24-9.06,0-9.89-1.77-10-2.13a1.11,1.11,0,0,1,.53-1c.18-.08,1.1-.3,2-.5,3.55-.84,10.17-2.4,12.52-4.66a43.62,43.62,0,0,0,3.16-3.49c.75.55,1.52,1.09,2.3,1.61s1.48-.73.72-1.23-1.43-1-2.13-1.48l.84-1.08h0a5.74,5.74,0,0,1,1.24.68l1.4.88c.78.49,1.49-.74.72-1.22a19.71,19.71,0,0,0-2.49-1.52c.39-.52.63-.86.67-.92a.56.56,0,0,0,.09-.17c.9-.38,1.78-.78,2.63-1.2,5.42-.39,19.8-9.18,22.28-12.39a25.42,25.42,0,0,1,4.48,4.19c1.69,2.14,3.6,8.55,4.17,10.58Z" transform="translate(0 -0.01)"/></g></g></g></g></g></g></g></g></svg>