<svg xmlns="http://www.w3.org/2000/svg" xmlns:xlink="http://www.w3.org/1999/xlink" viewBox="0 0 267.46 57.22"><defs><style>.cls-1{fill:none;}.cls-2{clip-path:url(#clip-path);}.cls-3{fill:#ffd729;}</style><clipPath id="clip-path" transform="translate(-2.7 -14)"><rect class="cls-1" x="103.68" y="-92.57" width="62.79" height="266.42" transform="translate(85.09 172.54) rotate(-85.99)"/></clipPath></defs><g id="Layer_2" data-name="Layer 2"><g id="Layer_1-2" data-name="Layer 1"><g id="Group_1160" data-name="Group 1160"><g class="cls-2"><g id="Group_1152-2" data-name="Group 1152-2"><path id="Path_5201-2" data-name="Path 5201-2" class="cls-3" d="M270.16,18.64c-13.58,23.07-78.94,50-124.14,52.17C97.09,73.19,69.79,65.65,15.14,34.26c.53,3.87,1.09,6.88,1.33,9.92a56.91,56.91,0,0,1,.21,9.94c-.1,1-2,2.55-3.13,2.6a4.22,4.22,0,0,1-3.26-2.39C7.66,45,5.23,35.52,2.91,26.06c-.77-3.16.53-5.34,4-5.9C19.47,18.1,32,15.88,44.67,14.1c3-.42,6.17.6,10.11,1.05C51,23,44.28,21.5,39.24,23.26c-5.32,1.87-11,2.8-17.72,4.43A150.58,150.58,0,0,0,68.26,53.13C128.82,73.62,186.6,65.49,242,35.22c7.2-3.94,13.95-8.72,21-13,1.9-1.16,4-2,7.22-3.56" transform="translate(-2.7 -14)"/></g></g></g></g></g></svg>