<svg xmlns="http://www.w3.org/2000/svg" xmlns:xlink="http://www.w3.org/1999/xlink" width="1615.786" height="1106.185" viewBox="0 0 1615.786 1106.185">
  <defs>
    <clipPath id="clip-path">
      <rect id="Rectangle_2387" data-name="Rectangle 2387" width="266.295" height="62.762" fill="#ffd729"/>
    </clipPath>
    <clipPath id="clip-path-5">
      <rect id="Rectangle_2402" data-name="Rectangle 2402" width="1545.594" height="501.996" fill="none"/>
    </clipPath>
    <clipPath id="clip-path-7">
      <rect id="Rectangle_2395" data-name="Rectangle 2395" width="479.808" height="38.44" fill="none"/>
    </clipPath>
    <clipPath id="clip-path-10">
      <rect id="Rectangle_2398" data-name="Rectangle 2398" width="261.068" height="38.44" fill="none"/>
    </clipPath>
    <clipPath id="clip-path-11">
      <rect id="Rectangle_2399" data-name="Rectangle 2399" width="261.069" height="38.44" fill="none"/>
    </clipPath>
  </defs>
  <g id="Group_1302" data-name="Group 1302" transform="translate(-157.976 -2903.789)">
    <g id="Group_1153" data-name="Group 1153" transform="matrix(0.998, 0.07, -0.07, 0.998, 807.109, 2903.789)">
      <g id="Group_1152" data-name="Group 1152" transform="translate(0 0)" clip-path="url(#clip-path)">
        <path id="Path_5201" data-name="Path 5201" d="M0,62.762C11.922,38.808,75.212,7.407,120.127,2.058c48.617-5.789,76.366-.179,133.053,27.291-.8-3.815-1.564-6.779-2.022-9.79a57.229,57.229,0,0,1-.9-9.9c.025-1.026,1.811-2.682,2.94-2.817A4.218,4.218,0,0,1,256.621,9c3.277,9.167,6.356,18.405,9.33,27.675.992,3.094-.158,5.363-3.535,6.162-12.417,2.931-24.8,6.019-37.271,8.684-2.94.629-6.186-.167-10.153-.346,3.191-8.053,10.026-7.059,14.927-9.172,5.179-2.235,10.754-3.554,17.364-5.656a150.78,150.78,0,0,0-48.384-22.1C137.075-1.941,80.038,10.206,26.949,44.261c-6.912,4.434-13.308,9.668-20,14.445C5.135,60,3.1,60.969,0,62.762" transform="translate(0 0)" fill="#ffd729"/>
      </g>
    </g>
    <g id="Group_1160" data-name="Group 1160" transform="matrix(0.998, 0.07, -0.07, 0.998, 807.109, 3928.789)">
      <g id="Group_1152-2" data-name="Group 1152" transform="translate(0 0)" clip-path="url(#clip-path)">
        <path id="Path_5201-2" data-name="Path 5201" d="M266.295,0c-11.922,23.953-75.212,55.355-120.127,60.7C97.55,66.493,69.8,60.882,13.114,33.413c.8,3.815,1.564,6.779,2.022,9.79a57.229,57.229,0,0,1,.9,9.9c-.025,1.026-1.811,2.682-2.94,2.817a4.218,4.218,0,0,1-3.417-2.159C6.4,44.594,3.318,35.355.344,26.086c-.992-3.094.158-5.364,3.535-6.162C16.3,16.993,28.676,13.9,41.149,11.24c2.94-.629,6.186.167,10.153.346-3.191,8.053-10.026,7.059-14.927,9.172-5.179,2.235-10.754,3.554-17.364,5.656a150.78,150.78,0,0,0,48.384,22.1C129.219,64.7,186.256,52.556,239.346,18.5c6.912-4.434,13.308-9.668,20-14.445C261.159,2.765,263.2,1.792,266.295,0" transform="translate(0 0)" fill="#ffd729"/>
      </g>
    </g>
    <g id="Group_1157" data-name="Group 1157" transform="matrix(0.035, 0.999, -0.999, 0.035, 1764.468, 3258.1)">
      <g id="Group_1152-3" data-name="Group 1152" transform="translate(0 0)" clip-path="url(#clip-path)">
        <path id="Path_5201-3" data-name="Path 5201" d="M0,62.762C11.922,38.808,75.212,7.407,120.127,2.058c48.617-5.789,76.366-.179,133.053,27.291-.8-3.815-1.564-6.779-2.022-9.79a57.229,57.229,0,0,1-.9-9.9c.025-1.026,1.811-2.682,2.94-2.817A4.218,4.218,0,0,1,256.621,9c3.277,9.167,6.356,18.405,9.33,27.675.992,3.094-.158,5.363-3.535,6.162-12.417,2.931-24.8,6.019-37.271,8.684-2.94.629-6.186-.167-10.153-.346,3.191-8.053,10.026-7.059,14.927-9.172,5.179-2.235,10.754-3.554,17.364-5.656a150.78,150.78,0,0,0-48.384-22.1C137.075-1.941,80.038,10.206,26.949,44.261c-6.912,4.434-13.308,9.668-20,14.445C5.135,60,3.1,60.969,0,62.762" transform="translate(0 0)" fill="#ffd729"/>
      </g>
    </g>
    <g id="Group_1159" data-name="Group 1159" transform="translate(157.976 3526.937) rotate(-80)">
      <g id="Group_1152-4" data-name="Group 1152" transform="translate(0)" clip-path="url(#clip-path)">
        <path id="Path_5201-4" data-name="Path 5201" d="M0,62.762C11.922,38.809,75.212,7.407,120.127,2.058c48.617-5.789,76.366-.179,133.053,27.291-.8-3.815-1.564-6.78-2.022-9.79a57.23,57.23,0,0,1-.9-9.9c.025-1.026,1.811-2.682,2.94-2.817A4.218,4.218,0,0,1,256.621,9c3.277,9.167,6.356,18.406,9.33,27.675.992,3.094-.158,5.364-3.535,6.162-12.417,2.931-24.8,6.019-37.271,8.684-2.94.629-6.186-.167-10.153-.346,3.191-8.053,10.026-7.059,14.927-9.172,5.179-2.235,10.754-3.554,17.364-5.656a150.779,150.779,0,0,0-48.384-22.1C137.075-1.941,80.038,10.206,26.949,44.262c-6.912,4.434-13.308,9.668-20,14.445C5.135,60,3.1,60.97,0,62.762" transform="translate(0 0)" fill="#ffd729"/>
      </g>
    </g>
    <g id="Group_1189" data-name="Group 1189" transform="translate(187.203 3150.263)">
      <g id="Group_1188" data-name="Group 1188" clip-path="url(#clip-path-5)">
        <g id="Group_1179" data-name="Group 1179">
          <g id="Group_1178" data-name="Group 1178" clip-path="url(#clip-path-5)">
            <g id="Group_1174" data-name="Group 1174" transform="translate(774.95 462.611)" opacity="0.2">
              <g id="Group_1173" data-name="Group 1173">
                <g id="Group_1172" data-name="Group 1172" clip-path="url(#clip-path-7)">
                  <path id="Path_5228" data-name="Path 5228" d="M1157.218,710.03c0,10.615,107.408,19.22,239.9,19.22s239.9-8.605,239.9-19.22-107.409-19.22-239.9-19.22-239.9,8.605-239.9,19.22" transform="translate(-1157.219 -690.81)" fill="#053366"/>
                </g>
              </g>
            </g>
            <g id="Group_1177" data-name="Group 1177" transform="translate(295.142 462.611)" opacity="0.2">
              <g id="Group_1176" data-name="Group 1176">
                <g id="Group_1175" data-name="Group 1175" clip-path="url(#clip-path-7)">
                  <path id="Path_5229" data-name="Path 5229" d="M440.73,710.03c0,10.615,107.408,19.22,239.9,19.22s239.9-8.605,239.9-19.22-107.409-19.22-239.9-19.22-239.9,8.605-239.9,19.22" transform="translate(-440.73 -690.81)" fill="#053366"/>
                </g>
              </g>
            </g>
            <path id="Path_5230" data-name="Path 5230" d="M850.071,233.994a57.523,57.523,0,0,1,25.4,5.546,13.322,13.322,0,0,0,19.069-12.006V98.908H764.657a13.786,13.786,0,0,1-12.71-19.086,57.807,57.807,0,1,0-106.891.083,13.765,13.765,0,0,1-12.744,19H502.432V447.367a37.319,37.319,0,0,0,37.319,37.319H857.218a37.319,37.319,0,0,0,37.319-37.319v-91.3A13.339,13.339,0,0,0,875.4,344.084a57.809,57.809,0,1,1-25.332-110.09" transform="translate(-165.971 0)" fill="#024778"/>
            <path id="Path_5231" data-name="Path 5231" d="M1321.95,182.715a57.534,57.534,0,0,1,5.528-25.359,13.35,13.35,0,0,0-12.03-19.107H1186.864v130.39a13.424,13.424,0,0,1-18.615,12.4,57.807,57.807,0,1,0,.079,106.5,13.407,13.407,0,0,1,18.536,12.433V530.354h348.458a37.319,37.319,0,0,0,37.319-37.319V175.568a37.319,37.319,0,0,0-37.319-37.319h-91.263a13.367,13.367,0,0,0-12,19.171,57.809,57.809,0,1,1-110.108,25.295" transform="translate(-359.39 -45.668)" fill="#ffd729"/>
          </g>
        </g>
        <g id="Group_1187" data-name="Group 1187">
          <g id="Group_1186" data-name="Group 1186" clip-path="url(#clip-path-5)">
            <g id="Group_1182" data-name="Group 1182" transform="translate(0 463.557)" opacity="0.2">
              <g id="Group_1181" data-name="Group 1181">
                <g id="Group_1180" data-name="Group 1180" clip-path="url(#clip-path-10)">
                  <path id="Path_5232" data-name="Path 5232" d="M0,711.441c0,10.615,58.442,19.22,130.534,19.22s130.535-8.605,130.535-19.22-58.442-19.22-130.535-19.22S0,700.826,0,711.441" transform="translate(0 -692.221)" fill="#053366"/>
                </g>
              </g>
            </g>
            <path id="Path_5233" data-name="Path 5233" d="M368.43,308.05v0l.131.064a8.981,8.981,0,0,0,7.724-.569,6.151,6.151,0,0,0,2.664-3.749c.416-1.392,1.339-5.9,3.814-4.581a.367.367,0,0,0,.277.02c-.029.207-.049.413-.059.614-.116,2.308.069,6.012,1.809,7.743a3.07,3.07,0,0,0,5.235-1.365c.189-.622-.7-1.234-1.152-.692-.383.457-.93,1.3-1.57,1.4-1.086.168-1.688-1.146-1.929-1.94a16.221,16.221,0,0,1-.664-4.236c-.04-1.411.226-4.329,2.363-3.96,1.313.227,2.357,1.607,2.916,2.707a.292.292,0,0,0,.37.113c.121.757.3,1.518.384,2.229.155,1.411.157,2.839.345,4.244a.359.359,0,0,0,.346.328c.084.4.678.355.788-.007.726-2.395,2.472-4.342,3.7-6.46a.315.315,0,0,0,.042-.21c.9.353,1.787.708,2.665,1.077q2.58,1.086,5.156,2.183a34.164,34.164,0,0,0,4.626,1.88c-.184.241-.366.481-.552.714a9.487,9.487,0,0,0-1.982,3.038.5.5,0,0,0,.715.567,8.869,8.869,0,0,0,2.33-2.655,15.42,15.42,0,0,0,2.019-3.308c.157-.414-.394-.634-.678-.407a7.708,7.708,0,0,0-.974.954c-.015-.011-.027-.024-.043-.035a28.109,28.109,0,0,0-4.785-2.191q-2.454-1.04-4.912-2.07c-.93-.39-1.862-.8-2.8-1.215a.434.434,0,0,0,.167-.1,11.8,11.8,0,0,0,1.289-1.888,8.492,8.492,0,0,1,2.025-1.933,6.005,6.005,0,0,0,2,.291,5.359,5.359,0,0,0,2.419-.658c.835-.463,1.38-1.262,2.162-1.781a3.256,3.256,0,0,1,.931-.413l.005.015a14.4,14.4,0,0,1,1.466,7.307c-.044.636-.118,1.269-.2,1.9a1.007,1.007,0,0,0-.056.394,1.374,1.374,0,0,0,.113.607.531.531,0,0,0,.222.224.607.607,0,0,0,.42.12.592.592,0,0,0,.426-.28.671.671,0,0,0,.119-.325l.044.035c.45-3.559.642-7.121-1.374-10.226a3.917,3.917,0,0,0,2.7-1.124,3.332,3.332,0,0,0,.678-2.365.409.409,0,0,0,.136-.371c-.549-3.283-2.782-6.816-6.2-7.64a12.862,12.862,0,0,0-2.345-.175,5.715,5.715,0,0,1-2.993-1.453,26.641,26.641,0,0,0-5.3-2.4c-3.619-1.449-7.442-2.93-11.408-2.754-2.987.133-6.292,1.119-7.976,3.711-2.077-1.19-4.634.424-5.954,2.1a19.3,19.3,0,0,0-3.752,8.724,40.551,40.551,0,0,0-.238,9.48c.217,3.232.376,6.51.8,9.722a.614.614,0,0,0,.421.526m43.98-18.745a2.258,2.258,0,0,1-2.165,1.648,7.115,7.115,0,0,0-3.185.683c-1.283.793-1.974,1.938-3.6,2.09-1.5.141-2.438-.719-3.787-1.058a.365.365,0,0,0-.448.437,2.281,2.281,0,0,0,1.069,1.359,5.981,5.981,0,0,0-1.587,1.351,6.988,6.988,0,0,0-1.6,2.422.419.419,0,0,0,.02.3,63.3,63.3,0,0,0-6.754-2.664.707.707,0,0,0-.879.522,3.847,3.847,0,0,0-1.663-.612c-2.1-.208-3.3,1.5-3.735,3.307a2.2,2.2,0,0,0-2.863-.127,5.96,5.96,0,0,0-2.267,3.52c-.68,2.234-1.294,4.07-3.721,4.791a9.56,9.56,0,0,1-5.706-.15c-.113-5.248-1.039-10.477-.724-15.736a21.285,21.285,0,0,1,2.138-8.336c1.215-2.419,3.108-5.409,6.219-4.339a.418.418,0,0,0,.541-.185.608.608,0,0,0,.177-.1,12.112,12.112,0,0,1,8.656-3.089c3.512.163,6.819,1.6,10.074,2.789a21.142,21.142,0,0,1,5.077,2.37,5.828,5.828,0,0,0,3.782,1.2c3.943-.028,5.509,3.212,6.941,6.286a4.679,4.679,0,0,1,0,1.326" transform="translate(-120.943 -90.272)" fill="#024778"/>
            <path id="Path_5234" data-name="Path 5234" d="M399.168,307.343c1.018-.94,2.887-.067,3.98.377.927.376,1.83.81,2.757,1.186.636.258,1.1.287,1.367.932a.1.1,0,0,1-.04.137c-1.029.741-2.938-.421-3.964-.838a13.905,13.905,0,0,0-2.277-.751c-.715-.155-1.353-.145-1.831-.741a.218.218,0,0,1,.007-.3" transform="translate(-131.838 -101.388)" fill="#fff"/>
            <path id="Path_5235" data-name="Path 5235" d="M397.22,313.244a.427.427,0,0,1,.827-.207,5.135,5.135,0,0,1,.208,3.023,1.115,1.115,0,0,1-1.846.623,1.006,1.006,0,0,1,.5-1.64.865.865,0,0,1,.479.058c.006-.092.01-.185.013-.274a6.569,6.569,0,0,0-.184-1.583" transform="translate(-130.865 -103.307)" fill="#053366"/>
            <path id="Path_5236" data-name="Path 5236" d="M370.857,283.306a21.278,21.278,0,0,0-2.138,8.335c-.315,5.26.611,10.489.725,15.737a9.558,9.558,0,0,0,5.706.149c2.427-.721,3.042-2.557,3.721-4.791a5.964,5.964,0,0,1,2.268-3.519,2.2,2.2,0,0,1,2.863.127c.437-1.809,1.635-3.516,3.735-3.308a3.861,3.861,0,0,1,1.663.612.707.707,0,0,1,.879-.522,63.193,63.193,0,0,1,6.754,2.665.424.424,0,0,1-.02-.3,7.01,7.01,0,0,1,1.6-2.422,6,6,0,0,1,1.587-1.351,2.282,2.282,0,0,1-1.069-1.359.365.365,0,0,1,.448-.436c1.349.339,2.283,1.2,3.788,1.057,1.629-.152,2.32-1.3,3.6-2.089a7.121,7.121,0,0,1,3.184-.684,2.257,2.257,0,0,0,2.165-1.647,4.655,4.655,0,0,0,0-1.326c-1.432-3.074-3-6.314-6.941-6.287a5.826,5.826,0,0,1-3.782-1.2,21.185,21.185,0,0,0-5.077-2.37c-3.255-1.193-6.562-2.625-10.073-2.789a12.12,12.12,0,0,0-8.657,3.089.584.584,0,0,1-.176.1.418.418,0,0,1-.541.185c-3.112-1.07-5.005,1.919-6.22,4.339" transform="translate(-121.779 -91.032)" fill="#024778"/>
            <path id="Path_5237" data-name="Path 5237" d="M379.3,283.551c-1.5-1.123-3.568,2.672-3.926,3.711-.062.18.193.378.311.19.865-1.38,1.768-3.425,3.554-3.693a.12.12,0,0,0,.061-.209" transform="translate(-123.997 -93.599)" fill="#fff"/>
            <path id="Path_5238" data-name="Path 5238" d="M392.9,277.886c-2.031-.554-5.886-.138-7,1.957a.151.151,0,0,0,.225.181,7.526,7.526,0,0,1,3.282-1.635,19.549,19.549,0,0,1,3.487-.269c.145-.005.121-.2,0-.234" transform="translate(-127.473 -91.722)" fill="#fff"/>
            <path id="Path_5239" data-name="Path 5239" d="M426.93,293.46c.6-5.945-7.039-7.853-11.537-6.865-.187.041-.234.362-.005.369,2.456.072,4.913-.089,7.2,1a6.8,6.8,0,0,1,3.919,5.491.214.214,0,0,0,.422.006" transform="translate(-137.166 -94.59)" fill="#fff"/>
            <path id="Path_5240" data-name="Path 5240" d="M423.569,294.912c-.431-2.217-3.365-3.413-5.312-3.891a10.314,10.314,0,0,0-7.567.92c-.192.111-.015.4.179.329,3.925-1.4,10.018-1.44,12.379,2.768.087.155.354.044.321-.125" transform="translate(-135.638 -96.026)" fill="#fff"/>
            <path id="Path_5241" data-name="Path 5241" d="M421.245,296.882c-3.119-2.073-8.7-2.71-11.745-.192a.218.218,0,0,0,.256.352,9.663,9.663,0,0,1,5.854-1.286c1.927.189,3.644,1.077,5.521,1.386.136.022.238-.177.114-.26" transform="translate(-135.243 -97.466)" fill="#fff"/>
            <path id="Path_5242" data-name="Path 5242" d="M405.992,314.331a2.788,2.788,0,0,0-.8-.35,3.351,3.351,0,0,0-.852-.214c-.127-.006-.228.156-.108.246a3.261,3.261,0,0,0,.782.374,2.836,2.836,0,0,0,.848.246c.155.009.281-.194.133-.3" transform="translate(-133.513 -103.648)" fill="#fff"/>
            <path id="Path_5243" data-name="Path 5243" d="M405.779,316.1a.6.6,0,0,0-.346-.149.156.156,0,0,0-.12.274.593.593,0,0,0,.344.153.159.159,0,0,0,.122-.278" transform="translate(-133.871 -104.369)" fill="#fff"/>
            <path id="Path_5244" data-name="Path 5244" d="M419.289,330.107a16.594,16.594,0,0,1-.637-3.963l-.025.005a.82.82,0,0,0-.362-.761.594.594,0,0,0-.759.119.641.641,0,0,0-.259.343,1.431,1.431,0,0,0-.049.417l-.007,0c0,.032,0,.064.005.1s0,.074,0,.111a.99.99,0,0,0,.017.167,17.935,17.935,0,0,0,.487,3.395c.254,1.024,1.59,3.524.173,4.17-.79.359-1.641-.429-2.393.1a.56.56,0,0,0-.217.744.064.064,0,0,0,.008.011c-.125.145-.247.291-.366.439-.033.041-.063.08-.091.12a21.773,21.773,0,0,0-1.611,2.132,11.9,11.9,0,0,0-1.3-.852c-.608-.461-1.049-1.264-1.714-1.605-.232-.119-.609.012-.581.324.078.851.888,1.5,1.562,1.957a3.56,3.56,0,0,0,1.688.707c-.421.66-.818,1.334-1.193,2.008-1.083,1.948-1.675,4.412-4.078,5.067-3.936,1.073-7.488-2.315-11.285-2.822l-.007,0c-1-.2-1.586-2.9-1.586-2.9-.218-1.392-.133-2.813-.357-4.195-.091-.558-.862-.376-.912.106a13.175,13.175,0,0,0,.409,4.485,12.334,12.334,0,0,0,.519,1.637l-.007-.008s.561,1.469.656,1.666l0,0a1.03,1.03,0,0,0,.256.394,33.054,33.054,0,0,0,3.485,1.151c1.172.41,2.307.915,3.475,1.336a9.037,9.037,0,0,0,5.872.437c2.017-.66,2.89-2.161,3.682-4.023a51.044,51.044,0,0,1,3.91-7l.084-.115a3.654,3.654,0,0,0,2.028.262,2.437,2.437,0,0,0,2.162-1.834c.344-1.307-.332-2.594-.683-3.82" transform="translate(-129.949 -107.457)" fill="#053366"/>
            <path id="Path_5245" data-name="Path 5245" d="M393.36,351.623c-1.506.657-2.967,2.422-4.025,3.64a9.863,9.863,0,0,0-2.361,3.89l.928.125v-.018a.473.473,0,0,0-.945,0v.018c0,.516.824.663.927.126a9.264,9.264,0,0,1,2.286-3.663c.972-1.094,2.294-2.7,3.666-3.3.556-.242.076-1.057-.477-.816" transform="translate(-127.825 -116.139)" fill="#053366"/>
            <path id="Path_5246" data-name="Path 5246" d="M361.1,368.763a1.614,1.614,0,0,0-.138-.157,4.307,4.307,0,0,0,.138-1.736,1.906,1.906,0,0,0-3.443-1.013,5.167,5.167,0,0,0-1,1.992l-2.789,8.572A69.413,69.413,0,0,1,349.51,387.6l-.4.757c-1.29,2.422-2.618,4.915-3.718,7.458l-2.89-1a.709.709,0,0,0-.484-.628l-9.128-3a190.781,190.781,0,0,1-48.434-20.837l52.717,1.1h.015a.708.708,0,0,0,.709-.713c0-.41-.015-.819-.025-1.229h2.476a.708.708,0,0,0,.708-.728l-.112-4.055c2.377-.782,5.293-1.87,6.024-2.174,1.371-.569,2.631-2.664,4.089-5.09.369-.614.745-1.242,1.132-1.854,1.756-2.784.688-6.558.232-8.17-.046-.163-.086-.3-.115-.415a6.421,6.421,0,0,1-.09-2.223c1-2.145,1.907-4.419,1.8-6.542a2.171,2.171,0,0,0-.781-1.691,2.221,2.221,0,0,0-1.207-.435c.01-.023.019-.047.029-.07.7-1.708,2.743-8.29,2.516-10.012-.188-1.423-1-1.686-1.344-1.733-.891-.122-1.815.614-2.36,1.878-.153.355-.474,1.1-.9,2.082-3.013,6.944-5.838,13.486-6.1,14.329-.151.495-1.477,4.9-1.422,7.069a23.049,23.049,0,0,1-.321,3.862,2.913,2.913,0,0,1-.569.317c-.142.062-.528.189-.9.306v-.044a.7.7,0,0,0-.224-.5.7.7,0,0,0-.513-.19l-2.7.114c.008-.232.013-.463.025-.7,0-.01,0-.02,0-.03a.158.158,0,0,0,0-.031c0-.013,0-.026,0-.04a.65.65,0,0,0-.01-.073c-.005-.023-.01-.044-.017-.066s-.015-.044-.023-.066-.019-.042-.031-.063-.021-.038-.032-.056-.029-.04-.045-.06-.025-.03-.039-.044a.626.626,0,0,0-.058-.053c-.015-.012-.028-.023-.044-.034s-.046-.029-.07-.042a.537.537,0,0,0-.048-.024.653.653,0,0,0-.079-.029c-.017-.005-.035-.011-.054-.015a.637.637,0,0,0-.081-.012c-.012,0-.024-.005-.036-.006s-.02,0-.03,0-.021,0-.031,0c-17.482.626-42.827.81-61.021-4.816a.71.71,0,0,0-.886.467.678.678,0,0,0-.019.1c-.218-.511-.4-.915-.49-1.12.483-12.466-11.507-23.58-12.02-24.049a.709.709,0,0,0-.915-.035l-2.337,1.83c-1.1-1.112-2.234-2.182-3.388-3.191a.7.7,0,0,0-.72-.128c-4.8,1.845-9.023,4.541-13.5,7.4-1.323.844-2.691,1.716-4.129,2.6-5.749,3.98-11.773,8.4-16.708,14.818a73.374,73.374,0,0,0-6.969,13.184,79.961,79.961,0,0,1-5.8,11.4c-5.374,8.33-12,14.376-19.018,20.778a146.043,146.043,0,0,0-14.95,15.063,16.221,16.221,0,0,0-3.453,7.884.744.744,0,0,0-.009.116,8.223,8.223,0,0,0,.364,2.352c-1.041,1.494-6,9.192-10.514,26.2-5.1,19.2-34.553,46.611-45.977,54.809a276.778,276.778,0,0,0-56.088,54.763.708.708,0,0,0-.046.791c.029.05.134.222.308.488a24.5,24.5,0,0,0-2.55,2.671,27.729,27.729,0,0,0-5.426,4.945c-2.188,2.764-4.5,11.341-4.6,11.7a.708.708,0,0,0,.435.846l14.859,5.586a.71.71,0,0,0,.915-.421l1-2.758c3.439,2.7,17.32,12.944,29.5,12.944,7.173,0,10.885-1.064,11.349-3.253a2.451,2.451,0,0,0-1.341-2.572,18.169,18.169,0,0,0-2.234-.59c-3.179-.75-9.794-2.311-11.862-4.3a60.717,60.717,0,0,1-5.679-6.738c1.321-1.542,33.347-38.88,41.446-45.8,2.955-2.527,6.7-5.263,11.443-8.728,6.442-4.706,14.459-10.563,25.087-19.183,5.076-4.117,10.012-8.273,14.786-12.292,7.353-6.19,14.124-11.89,19.937-16.213,3.278,2.445,24.791,18.482,28.435,21.047a2.621,2.621,0,0,1,1.312,1.726c.139,1.371-1.653,3.275-3.923,5.685-.718.762-1.532,1.626-2.355,2.549-4.735,5.308-28.457,37.692-34.312,49.851a.71.71,0,0,0,.286.922l1.246.714a14.588,14.588,0,0,1-2.961,2.689.48.48,0,0,0-.177.215c-.946.629-1.862,1.3-2.764,1.987-1.427.637-2.561,2.211-3.465,3.384-.685.889-1.343,1.8-2,2.7a6.765,6.765,0,0,0-1.6,2.624,2.253,2.253,0,0,0,0,.763c.247,1.013,1.277,1.717,1.992,2.415q1.28,1.251,2.606,2.453l.414.375h0l.018.016c.508.46,1.023.923,1.548,1.379l3.725,3.318a.727.727,0,0,0,1.178.035,26.451,26.451,0,0,0,1.61-2.289,26.03,26.03,0,0,0,8.167,8.815c3.535,2.308,7.863,3.24,11.846,4.5,2.208.7,4.414,1.4,6.624,2.092,1.68.523,3.5,1.092,5.271.655a2.8,2.8,0,0,0,2.35-2.845,5.264,5.264,0,0,0-2.432-3.662c-3.034-2.155-7.133-1.854-10.009-4.271a.478.478,0,0,0-.32-.123c-.4-.747-.839-1.452-1.154-2.065a23.192,23.192,0,0,1-1.6-4.215c-.133-.462-.21-1.066-.357-1.629-.319-2.163-.861-4.467-.439-6.627a.511.511,0,0,0,.007-.109c.272-.578.571-1.142.887-1.7l6.027,3.459a.708.708,0,0,0,.975-.275c.272-.5,27.285-49.852,37.4-62.138,9.751-11.84,7.793-15.11,5.72-18.573-.171-.286-.344-.574-.51-.869-1.826-3.261-16.472-22.785-20.264-27.827a5.72,5.72,0,0,0,3.163-1.225.7.7,0,0,0,.238-.358,195.229,195.229,0,0,1,20.22-46.565,25.277,25.277,0,0,1,3.2-4.12,31.716,31.716,0,0,1,3.942-2.643,27.775,27.775,0,0,0,5.527-3.994.7.7,0,0,0,.106-.136,24.175,24.175,0,0,0,1.854-4.115,29.676,29.676,0,0,1,1.286-3.07v0c22.974,10.568,59.906,23.217,61.882,23.892a.709.709,0,0,0,.907-.461l.769-2.486,3.283,1.161a.715.715,0,0,0,.562-.038.71.71,0,0,0,.356-.435l.952-3.337c1.1-.162,2.235-.241,3.338-.312.723-.047,1.469-.1,2.2-.168,1.769-.175,3.972-.394,5.573-1.8,1.738-1.533,2.211-4.027,2.555-5.848.37-1.959.888-4.284,1.436-6.746.823-3.7,1.676-7.53,2.115-10.518q.31-2.1.591-4.2c.027-.2.082-.455.139-.731a7.779,7.779,0,0,0,.246-2.176c.14-.969.715-4.943.8-5.737a2.6,2.6,0,0,0-.427-1.865m-19.171-14.038a3.505,3.505,0,0,0,.941-.578.478.478,0,0,0,.148-.267,24.22,24.22,0,0,0,.366-4.223,29.348,29.348,0,0,1,1.38-6.77c.277-.908,4.329-10.243,6.058-14.228.428-.985.751-1.73.9-2.085.4-.922,1-1.363,1.361-1.315.265.037.465.381.536.921.183,1.384-1.688,7.668-2.452,9.529-.108.265-.195.468-.25.6a3.938,3.938,0,0,0-1.687,2.49s-.52,1.381-1.065,2.843c-.243.651-.375,1.133-.5,1.6a18.294,18.294,0,0,1-.78,2.334,10.579,10.579,0,0,0-.421,4.829.472.472,0,0,0,.467.4.522.522,0,0,0,.072-.005.473.473,0,0,0,.4-.538,9.748,9.748,0,0,1,.362-4.332,19.161,19.161,0,0,0,.815-2.439,15.907,15.907,0,0,1,.476-1.519c.546-1.461,1.065-2.841,1.079-2.886a2.993,2.993,0,0,1,1.3-1.984,1.7,1.7,0,0,1,1.211.219,1.28,1.28,0,0,1,.417.994c.1,1.937-.777,4.1-1.739,6.156a.508.508,0,0,0-.038.125,7.378,7.378,0,0,0,.1,2.671c.031.118.072.264.121.436.422,1.491,1.41,4.98-.121,7.409-.39.617-.77,1.251-1.142,1.871-1.257,2.091-2.557,4.254-3.642,4.7-.674.281-3.411,1.3-5.689,2.06l-.237-8.6c.433-.131,1.022-.316,1.257-.421m-2.682.155.364,13.217h-1.8c-.07-1.6-.177-3.179-.286-4.727-.192-2.717-.385-5.511-.358-8.4Zm-64.189-6.234c13.468,4.165,30.742,5.184,45.932,5.184,5.266,0,10.276-.123,14.8-.28a92.484,92.484,0,0,0,.329,9.92c.151,2.142.307,4.35.346,6.553l-54.434-1.138c-.623-.378-1.144-.69-1.558-.925a7.487,7.487,0,0,1-1.063-.737c-.982-5.161-2-10.491-3.437-15.651a29.915,29.915,0,0,0-1.108-3.026.7.7,0,0,0,.2.1m-13.522-24.5c1.917,1.893,9.619,10,10.946,19.211A76.121,76.121,0,0,0,259.813,325.5Zm-6.725-1.505a73.476,73.476,0,0,1,17.911,24.526v0l0,.005c.007.017.415.917.861,2-7.679-10.515-19.96-22.122-22.743-24.707,1.3-.668,2.61-1.286,3.968-1.826M59.034,554.982a49.98,49.98,0,0,0,12.86,11.989c-6.308-2.986-14.033-8.226-15-9.764a23.64,23.64,0,0,1,2.139-2.225m24.2,20.062q-1.052.762-2.132,1.481c-.757.5-.048,1.729.715,1.223q1.172-.776,2.306-1.605a42.668,42.668,0,0,0,3.162,3.486c2.348,2.258,8.965,3.82,12.519,4.659.886.209,1.8.425,1.984.506a1.087,1.087,0,0,1,.53.982c-.075.356-.91,2.13-9.963,2.13-13.214,0-29.218-13.111-29.378-13.243a.709.709,0,0,0-1.118.3l-1.1,3.014-13.581-5.106c.573-2.024,2.476-8.437,4.168-10.574a25.4,25.4,0,0,1,4.476-4.191c2.478,3.21,16.859,12,22.284,12.389q1.272.618,2.631,1.2a.7.7,0,0,0,.087.172c.035.051.28.393.671.92a19.948,19.948,0,0,0-2.491,1.513c-.772.481-.062,1.708.715,1.223l1.406-.877a5.41,5.41,0,0,1,1.243-.68l.013-.005c.26.339.543.7.846,1.084m120.952.062c.194.648.413,1.288.666,1.916.451,1.121,1.035,2.174,1.55,3.265a33.94,33.94,0,0,1,1.083,3.477.532.532,0,0,0,1.018,0,3.79,3.79,0,0,0-.063-2.5c2.53,1.948,6.185,1.91,8.762,3.861.792.6,2.2,2.053,1.369,3.145-.668.874-2.4.553-3.255.352-2.235-.526-4.437-1.383-6.625-2.077l-6.859-2.173a25.248,25.248,0,0,1-6.513-2.719,22.66,22.66,0,0,1-4.421-4.019c-1.389-1.588-2.464-3.383-3.774-5.024a.681.681,0,0,0-.675-.277.407.407,0,0,0-.289.058,4.958,4.958,0,0,0-1.338,1.383c-.329.423-.657.853-.972,1.291a.481.481,0,0,0-.071-.093c-1.7-1.66-3.6-3.127-5.347-4.738q-1.229-1.132-2.416-2.306c-.453-.447-.884-1.04-1.4-1.462a.473.473,0,0,1-.053-.693,15.173,15.173,0,0,0,1.059-1.479c.566-.8,1.134-1.593,1.69-2.4.589-.851,1.175-1.706,1.828-2.511.423-.52.945-.978,1.369-1.5.885-.68,1.787-1.337,2.716-1.958,2.186,2.679,5.66,4.332,8.685,5.859a27.985,27.985,0,0,0,11.183,3.057,11.065,11.065,0,0,0-.11,2.255,10.546,10.546,0,0,1-3.526.126c-.595-.082-.852.828-.251.911a11.934,11.934,0,0,0,3.843-.094c.052.535.127,1.07.207,1.6a18.706,18.706,0,0,1-3.484.14c-.607-.031-.606.913,0,.945a19.71,19.71,0,0,0,3.616-.159c.1.751.378,2.8.8,4.535M203.4,563.92a26.717,26.717,0,0,1-11.011-2.95c-2.853-1.437-6.418-3.093-8.449-5.646a15.4,15.4,0,0,0,2.87-2.7l17.311,9.934c-.254.447-.5.9-.721,1.361m49.919-78.595c.172.307.352.607.53.9,1.809,3.022,3.518,5.876-5.6,16.945-9.572,11.623-34,55.884-37.2,61.725l-25.033-14.367c6.267-12.5,29.17-43.738,33.8-48.932.811-.909,1.582-1.728,2.329-2.521,2.616-2.778,4.506-4.785,4.3-6.8a3.906,3.906,0,0,0-1.907-2.742c-3.52-2.477-23.843-17.624-28.058-20.766a56.189,56.189,0,0,1,9.873-6.048.709.709,0,0,0-.565-1.3c-7.47,3.249-18.537,12.566-31.352,23.355-4.769,4.015-9.7,8.166-14.767,12.275-10.6,8.6-18.6,14.443-25.029,19.14-4.767,3.482-8.532,6.233-11.528,8.795-7.96,6.805-37.622,41.318-41.309,45.618a50.748,50.748,0,0,1-22.421-17.614,275.312,275.312,0,0,1,55.486-54.077c1.836-1.317,4.133-3.129,6.718-5.319a10.758,10.758,0,0,1,8.738,3.428c.419.443,1.086-.226.668-.668a11.678,11.678,0,0,0-8.293-3.711c13.713-11.822,34.44-33.327,38.69-49.328,3.87-14.571,8.138-22.3,9.775-24.928a23.281,23.281,0,0,0,2.94,4.489.713.713,0,0,0,.052.058,108.842,108.842,0,0,0,25.169,18.832,5.543,5.543,0,0,0,1.388.859c.177.087.356.174.528.269,6.641,3.644,13.259,6.541,20.266,9.606,2.342,1.025,4.764,2.085,7.209,3.184a16.034,16.034,0,0,0,3.757,1.064c1.958,2.6,18.941,25.177,20.843,28.574m25.472-116.8a8.221,8.221,0,0,0,.986.666c.55.313,1.309.773,2.268,1.357a192.73,192.73,0,0,0,50.432,22l8.434,2.772-5.434,17.573c-6.822-2.353-61.886-21.512-75.616-31.434-14.342-10.364-14.9-23.73-14.906-23.863a.708.708,0,0,0-1.416.039c.015.574.555,14.177,15.491,24.972a90.628,90.628,0,0,0,13.51,7.376,31.338,31.338,0,0,0-1.329,3.172,23.147,23.147,0,0,1-1.7,3.808,27.1,27.1,0,0,1-5.2,3.72,33.035,33.035,0,0,0-4.143,2.789c-.016.013-.032.027-.048.043a26.74,26.74,0,0,0-3.415,4.391,196.694,196.694,0,0,0-20.318,46.7,4.953,4.953,0,0,1-3.431.771c-.017,0-.034,0-.052,0a13.794,13.794,0,0,1-3.64-.992c-2.424-1.09-4.849-2.152-7.195-3.178-6.977-3.052-13.566-5.936-20.152-9.55-.192-.105-.39-.2-.587-.3a4.194,4.194,0,0,1-1.087-.662.7.7,0,0,0-.159-.12,110.668,110.668,0,0,1-15.631-10.331c1.783-2.2,14.7-18.086,19.945-23.5a.709.709,0,0,0-1.019-.986c-5.284,5.458-18.252,21.405-20.03,23.6a109.376,109.376,0,0,1-8.169-7.392c-1.669-2.09-3.571-4.82-3.6-7.5a14.848,14.848,0,0,1,3.145-7.165,144.96,144.96,0,0,1,14.8-14.908c6.774-6.181,13.78-12.572,19.254-21.056a81.116,81.116,0,0,0,5.907-11.6,72.371,72.371,0,0,1,6.813-12.917c4.793-6.231,10.717-10.576,16.343-14.472,1.416-.871,2.789-1.747,4.116-2.594,2.55-1.627,5.02-3.2,7.55-4.583,1.988,1.83,18.352,17.058,25.633,28.829.863,3.37,1.57,6.8,2.234,10.216a1.09,1.09,0,0,1,.056.285c.042.216.086.433.127.65,0,0,.4,2.811,1.219,3.378m61.637,42.568-2.626-.928,4.323-13.979,2.326.8Zm20.165-40.567c-.062.575-.4,2.958-.624,4.517a1.289,1.289,0,0,0-.441-.143,1.46,1.46,0,0,0-1.225.451,3.018,3.018,0,0,0-.619,1.194c-.529,1.579-1.144,3.169-1.739,4.707-.712,1.838-1.447,3.738-2.046,5.649a.472.472,0,0,0,.9.283c.589-1.88,1.319-3.767,2.025-5.59.6-1.548,1.218-3.148,1.753-4.748a2.3,2.3,0,0,1,.409-.843.527.527,0,0,1,.431-.164.339.339,0,0,1,.267.175.963.963,0,0,1,.1.33c-.007.055-.013.09-.014.093a.467.467,0,0,0,.038.242,9.15,9.15,0,0,1-.242,1.668c-.062.3-.121.577-.15.8q-.282,2.1-.591,4.19c-.435,2.954-1.283,6.765-2.1,10.45-.55,2.47-1.069,4.8-1.442,6.776-.4,2.107-.871,4.1-2.253,5.316s-3.406,1.411-5.041,1.573c-.717.071-1.456.119-2.171.165-.984.064-1.992.131-2.993.259l3.113-10.914c1.142-2.773,2.6-5.508,4.007-8.158l.4-.758a70.024,70.024,0,0,0,4.429-11.332l2.788-8.573a4.381,4.381,0,0,1,.794-1.643,1.175,1.175,0,0,1,1.282-.375,1.163,1.163,0,0,1,.531.879,3.334,3.334,0,0,1-.053,1.134,1.479,1.479,0,0,0-.548-.019c-1.1.181-1.5,1.465-1.644,1.948q-.288.94-.575,1.88a100.369,100.369,0,0,1-4.43,12.525.472.472,0,0,0,.859.393,101.431,101.431,0,0,0,4.476-12.643q.285-.94.574-1.878c.252-.824.537-1.235.894-1.294a.722.722,0,0,1,.637.292,1.743,1.743,0,0,1,.235,1.187" transform="translate(-15.07 -106.075)" fill="#024778"/>
            <path id="Path_5247" data-name="Path 5247" d="M333.373,452.547,313.58,442.292a.71.71,0,0,0-.944.283l-3.995,7.115a.708.708,0,0,0,.3.978l20,10.2a.708.708,0,0,0,.946-.3l3.79-7.06a.71.71,0,0,0-.3-.964m-4.412,6.743-18.723-9.551,3.3-5.874,18.546,9.609Z" transform="translate(-101.925 -146.078)" fill="#024778"/>
            <path id="Path_5248" data-name="Path 5248" d="M366.247,362.618a22.537,22.537,0,0,0-10.63-1.868c-.6.046-.607.99,0,.945a21.224,21.224,0,0,1,8.829,1.221c2.741.986,5.964,2.385,7.458,5.031a.473.473,0,0,0,.816-.477c-1.388-2.457-3.958-3.777-6.472-4.852" transform="translate(-117.323 -119.149)" fill="#024778"/>
            <path id="Path_5249" data-name="Path 5249" d="M451.891,443.43a1.011,1.011,0,1,0,1.01,1.011,1.01,1.01,0,0,0-1.01-1.011" transform="translate(-148.941 -146.48)" fill="#024778"/>
            <path id="Path_5250" data-name="Path 5250" d="M457.065,444.94a1.011,1.011,0,1,0,1.01,1.011,1.01,1.01,0,0,0-1.01-1.011" transform="translate(-150.651 -146.979)" fill="#024778"/>
            <path id="Path_5251" data-name="Path 5251" d="M462.239,446.449a1.011,1.011,0,1,0,1.011,1.01,1.01,1.01,0,0,0-1.011-1.01" transform="translate(-152.36 -147.478)" fill="#024778"/>
            <path id="Path_5252" data-name="Path 5252" d="M302.245,415.636a21.132,21.132,0,0,1-13.619-6.172c-.443-.417-1.112.25-.668.668a22.151,22.151,0,0,0,14.287,6.45c.608.024.607-.921,0-.945" transform="translate(-95.074 -135.217)" fill="#024778"/>
            <path id="Path_5253" data-name="Path 5253" d="M324.694,398.391c-.6.038-.608.983,0,.945,4.583-.29,10.709-.678,14.617,2.115.5.354.968-.465.477-.816-4.045-2.891-10.385-2.541-15.094-2.244" transform="translate(-107.108 -131.539)" fill="#024778"/>
            <path id="Path_5254" data-name="Path 5254" d="M260.108,533.309c.172.307.352.607.53.9,1.809,3.022,3.518,5.876-5.6,16.945-9.571,11.622-33.994,55.884-37.2,61.724L192.8,598.517c6.267-12.5,29.17-43.739,33.8-48.932.811-.909,1.582-1.728,2.329-2.521,2.616-2.778,4.506-4.785,4.3-6.8a3.906,3.906,0,0,0-1.907-2.742c-3.52-2.477-23.843-17.624-28.058-20.766a56.152,56.152,0,0,1,9.873-6.047.709.709,0,0,0-.565-1.3c-7.469,3.249-18.537,12.566-31.351,23.355-4.769,4.015-9.7,8.166-14.767,12.275-10.6,8.6-18.6,14.443-25.029,19.14-4.767,3.482-8.532,6.233-11.528,8.795-7.96,6.805-37.622,41.318-41.309,45.618a50.743,50.743,0,0,1-22.421-17.614A275.313,275.313,0,0,1,121.66,546.9c1.836-1.317,4.133-3.128,6.718-5.318a10.76,10.76,0,0,1,8.738,3.428c.419.443,1.086-.226.668-.668a11.678,11.678,0,0,0-8.293-3.711c13.713-11.821,34.44-33.327,38.69-49.328,3.87-14.57,8.138-22.3,9.775-24.928a23.282,23.282,0,0,0,2.94,4.489.54.54,0,0,0,.052.058,108.861,108.861,0,0,0,25.168,18.833,5.6,5.6,0,0,0,1.388.859c.177.086.356.173.528.268,6.641,3.644,13.259,6.541,20.266,9.606,2.341,1.025,4.763,2.085,7.208,3.184a16,16,0,0,0,3.757,1.064c1.957,2.6,18.941,25.177,20.843,28.574" transform="translate(-21.86 -154.06)" fill="#024778"/>
            <path id="Path_5255" data-name="Path 5255" d="M259.743,499.969a46.443,46.443,0,0,1-21.618,5.761c-.606.021-.609.966,0,.945a47.5,47.5,0,0,0,22.095-5.89.473.473,0,0,0-.477-.816" transform="translate(-78.511 -165.136)" fill="#fff"/>
            <path id="Path_5256" data-name="Path 5256" d="M316.871,581.767c4.825,2.811,11.812.934,16.5-1.286.549-.26.07-1.075-.477-.816-4.368,2.069-11.049,3.907-15.547,1.286a.473.473,0,0,0-.477.816" transform="translate(-104.598 -191.467)" fill="#fff"/>
            <path id="Path_5257" data-name="Path 5257" d="M307.108,535.089a37.436,37.436,0,0,0,7.316-3.466c.517-.318.043-1.136-.477-.816a36.267,36.267,0,0,1-7.09,3.371c-.571.2-.325,1.112.251.911" transform="translate(-101.258 -175.32)" fill="#fff"/>
            <path id="Path_5258" data-name="Path 5258" d="M312.313,537.373a15.715,15.715,0,0,1-5.152,1.939c-.6.113-.344,1.023.251.911a16.458,16.458,0,0,0,5.377-2.034.473.473,0,0,0-.477-.816" transform="translate(-101.353 -177.49)" fill="#fff"/>
            <path id="Path_5259" data-name="Path 5259" d="M269.1,540.216a.919.919,0,0,1-.573-1.638,110.442,110.442,0,0,1,13.229-8.607.919.919,0,0,1,.6,1.728,123.5,123.5,0,0,0-12.687,8.318.914.914,0,0,1-.571.2" transform="translate(-88.59 -175.058)" fill="#fff"/>
            <path id="Path_5260" data-name="Path 5260" d="M166.881,581.176c-2.863-3.149-8.033-4.34-12.091-4.705-.605-.055-.6.89,0,.944,3.8.342,8.75,1.489,11.424,4.429.41.451,1.076-.219.668-.668" transform="translate(-50.983 -190.428)" fill="#fff"/>
            <path id="Path_5261" data-name="Path 5261" d="M487.479,356.767a3.467,3.467,0,0,0,.941-.579.467.467,0,0,0,.148-.266,24.128,24.128,0,0,0,.366-4.224,29.385,29.385,0,0,1,1.38-6.77c.277-.908,4.329-10.243,6.058-14.228.427-.985.751-1.73.9-2.085.4-.922,1-1.363,1.362-1.315.264.036.465.381.536.921.183,1.384-1.688,7.667-2.453,9.529-.108.265-.194.467-.249.6a3.936,3.936,0,0,0-1.687,2.49s-.518,1.382-1.065,2.843c-.243.651-.375,1.134-.5,1.6a18.33,18.33,0,0,1-.78,2.334,10.594,10.594,0,0,0-.42,4.829.472.472,0,0,0,.466.4.443.443,0,0,0,.072-.006.472.472,0,0,0,.4-.538,9.759,9.759,0,0,1,.362-4.332,19.3,19.3,0,0,0,.816-2.438,15.733,15.733,0,0,1,.476-1.519c.546-1.461,1.065-2.841,1.079-2.886a3,3,0,0,1,1.3-1.984,1.7,1.7,0,0,1,1.211.219,1.276,1.276,0,0,1,.417.994c.1,1.936-.776,4.1-1.738,6.156a.5.5,0,0,0-.038.124,7.363,7.363,0,0,0,.1,2.671c.03.118.072.265.12.437.423,1.49,1.41,4.98-.121,7.409-.39.618-.769,1.251-1.142,1.871-1.257,2.091-2.556,4.254-3.642,4.7-.674.28-3.411,1.3-5.689,2.06l-.237-8.6c.434-.131,1.022-.317,1.257-.421" transform="translate(-160.616 -108.118)" fill="#fff"/>
            <path id="Path_5262" data-name="Path 5262" d="M507.2,392.691c-.062.575-.4,2.958-.624,4.517a1.29,1.29,0,0,0-.441-.143,1.461,1.461,0,0,0-1.226.451,3.018,3.018,0,0,0-.619,1.194c-.529,1.579-1.144,3.169-1.739,4.707-.712,1.838-1.447,3.738-2.046,5.649a.472.472,0,0,0,.9.283c.589-1.88,1.319-3.767,2.025-5.59.6-1.548,1.218-3.148,1.753-4.748a2.3,2.3,0,0,1,.409-.843.527.527,0,0,1,.431-.164.339.339,0,0,1,.267.175.963.963,0,0,1,.1.33c-.007.055-.013.09-.014.093a.467.467,0,0,0,.037.242,9.152,9.152,0,0,1-.242,1.668c-.062.3-.121.577-.15.8q-.282,2.1-.591,4.19c-.435,2.954-1.283,6.765-2.1,10.45-.55,2.47-1.069,4.8-1.442,6.776-.4,2.107-.871,4.1-2.253,5.316s-3.406,1.411-5.041,1.573c-.717.071-1.456.119-2.171.165-.984.064-1.992.131-2.993.259l3.113-10.914c1.142-2.773,2.6-5.508,4.007-8.158l.4-.758a70.023,70.023,0,0,0,4.429-11.332l2.789-8.573a4.381,4.381,0,0,1,.794-1.643,1.176,1.176,0,0,1,1.282-.375,1.163,1.163,0,0,1,.531.879,3.333,3.333,0,0,1-.053,1.134,1.48,1.48,0,0,0-.548-.019c-1.1.181-1.5,1.465-1.644,1.948q-.288.94-.575,1.88a100.367,100.367,0,0,1-4.43,12.525.472.472,0,0,0,.859.393,101.426,101.426,0,0,0,4.476-12.643q.285-.94.574-1.878c.253-.824.537-1.235.894-1.294a.722.722,0,0,1,.637.292,1.743,1.743,0,0,1,.235,1.187" transform="translate(-161.673 -128.239)" fill="#fff"/>
            <path id="Path_5263" data-name="Path 5263" d="M84.006,691.95c-.7.508-1.41,1-2.132,1.481-.757.5-.048,1.729.715,1.224q1.172-.775,2.306-1.6a42.668,42.668,0,0,0,3.162,3.486c2.348,2.258,8.965,3.82,12.519,4.659.886.209,1.8.425,1.985.506a1.092,1.092,0,0,1,.53.982c-.076.356-.91,2.13-9.963,2.13-13.214,0-29.217-13.111-29.378-13.244a.708.708,0,0,0-1.118.3l-1.1,3.013L47.956,689.78c.573-2.024,2.477-8.437,4.168-10.574a25.45,25.45,0,0,1,4.476-4.191c2.479,3.211,16.859,12,22.284,12.389q1.272.618,2.632,1.2a.673.673,0,0,0,.086.173c.036.051.281.393.671.92a19.973,19.973,0,0,0-2.49,1.513c-.773.481-.062,1.708.715,1.224l1.406-.877a5.394,5.394,0,0,1,1.242-.68l.013-.005c.26.339.543.7.846,1.084" transform="translate(-15.842 -222.981)" fill="#fff"/>
            <path id="Path_5264" data-name="Path 5264" d="M267.729,690.935c.194.648.413,1.288.666,1.916.451,1.121,1.035,2.174,1.55,3.265a34,34,0,0,1,1.083,3.478.532.532,0,0,0,1.018,0,3.79,3.79,0,0,0-.063-2.5c2.53,1.949,6.185,1.911,8.762,3.861.792.6,2.2,2.052,1.369,3.145-.668.874-2.4.553-3.255.352-2.235-.526-4.437-1.384-6.625-2.077l-6.859-2.174a25.246,25.246,0,0,1-6.513-2.719,22.66,22.66,0,0,1-4.421-4.019c-1.389-1.587-2.464-3.383-3.774-5.024a.681.681,0,0,0-.675-.277.407.407,0,0,0-.289.058,4.967,4.967,0,0,0-1.338,1.383c-.329.423-.657.853-.972,1.291a.482.482,0,0,0-.071-.093c-1.7-1.66-3.6-3.127-5.347-4.738q-1.229-1.132-2.416-2.306c-.453-.447-.884-1.04-1.4-1.462a.473.473,0,0,1-.053-.693,15.179,15.179,0,0,0,1.059-1.479c.566-.8,1.134-1.593,1.69-2.4.589-.852,1.175-1.707,1.828-2.511.423-.521.945-.979,1.369-1.5.885-.68,1.787-1.337,2.716-1.958,2.186,2.679,5.66,4.333,8.685,5.859a27.987,27.987,0,0,0,11.183,3.057,11.063,11.063,0,0,0-.111,2.255,10.514,10.514,0,0,1-3.526.126c-.595-.082-.852.828-.251.911a11.932,11.932,0,0,0,3.843-.094c.052.536.127,1.07.207,1.6a18.639,18.639,0,0,1-3.484.14c-.607-.031-.606.914,0,.945a19.772,19.772,0,0,0,3.616-.158c.1.751.378,2.794.8,4.534" transform="translate(-78.613 -221.904)" fill="#fff"/>
            <g id="Group_1185" data-name="Group 1185" transform="translate(1284.525 462.611)" opacity="0.2">
              <g id="Group_1184" data-name="Group 1184">
                <g id="Group_1183" data-name="Group 1183" clip-path="url(#clip-path-11)">
                  <path id="Path_5265" data-name="Path 5265" d="M1918.161,710.03c0,10.615,58.442,19.22,130.534,19.22s130.534-8.605,130.534-19.22-58.442-19.22-130.534-19.22-130.534,8.605-130.534,19.22" transform="translate(-1918.161 -690.81)" fill="#053366"/>
                </g>
              </g>
            </g>
            <rect id="Rectangle_2400" data-name="Rectangle 2400" width="0.926" height="2.831" transform="translate(1300.776 214.478) rotate(-18.959)" fill="#053366"/>
            <path id="Path_5266" data-name="Path 5266" d="M1967.37,452.968a.7.7,0,0,0,.053.544l3.79,7.06a.709.709,0,0,0,.946.3l20-10.2a.708.708,0,0,0,.3-.978l-3.995-7.115a.71.71,0,0,0-.944-.282l-19.792,10.255a.707.707,0,0,0-.351.42m1.641.508,18.546-9.61,3.3,5.874-18.723,9.551Z" transform="translate(-649.88 -146.079)" fill="#053366"/>
            <path id="Path_5267" data-name="Path 5267" d="M1938.586,362.618a22.537,22.537,0,0,1,10.63-1.868c.6.046.607.99,0,.945a21.224,21.224,0,0,0-8.829,1.221c-2.741.986-5.964,2.385-7.458,5.031a.473.473,0,0,1-.816-.477c1.388-2.457,3.958-3.777,6.472-4.852" transform="translate(-638.223 -119.149)" fill="#053366"/>
            <path id="Path_5268" data-name="Path 5268" d="M1860.639,443.43a1.011,1.011,0,1,1-1.01,1.011,1.011,1.011,0,0,1,1.01-1.011" transform="translate(-614.3 -146.48)" fill="#024778"/>
            <path id="Path_5269" data-name="Path 5269" d="M1855.465,444.94a1.011,1.011,0,1,1-1.011,1.011,1.01,1.01,0,0,1,1.011-1.011" transform="translate(-612.591 -146.979)" fill="#024778"/>
            <path id="Path_5270" data-name="Path 5270" d="M1850.291,446.449a1.011,1.011,0,1,1-1.01,1.01,1.01,1.01,0,0,1,1.01-1.01" transform="translate(-610.882 -147.478)" fill="#024778"/>
            <path id="Path_5271" data-name="Path 5271" d="M2003.936,415.636a21.133,21.133,0,0,0,13.619-6.172c.443-.417,1.112.25.667.668a22.148,22.148,0,0,1-14.287,6.45c-.608.024-.607-.921,0-.945" transform="translate(-661.82 -135.217)" fill="#053366"/>
            <path id="Path_5272" data-name="Path 5272" d="M1981.061,398.391c.6.038.608.983,0,.945-4.583-.29-10.709-.678-14.617,2.115-.5.354-.968-.465-.477-.816,4.045-2.891,10.385-2.541,15.094-2.244" transform="translate(-649.359 -131.539)" fill="#053366"/>
            <path id="Path_5273" data-name="Path 5273" d="M1977.627,504.736a16.035,16.035,0,0,0,3.757-1.064c2.445-1.1,4.867-2.16,7.209-3.184,7.007-3.066,13.625-5.962,20.266-9.606.172-.094.351-.181.529-.269a5.557,5.557,0,0,0,1.388-.859,108.851,108.851,0,0,0,25.168-18.832.673.673,0,0,0,.052-.058,23.239,23.239,0,0,0,2.94-4.489c1.637,2.626,5.905,10.357,9.775,24.928,4.25,16,24.977,37.506,38.69,49.328a11.678,11.678,0,0,0-8.294,3.711c-.418.442.25,1.111.667.668a10.759,10.759,0,0,1,8.738-3.428c2.586,2.19,4.883,4,6.718,5.319a275.33,275.33,0,0,1,55.487,54.077,50.756,50.756,0,0,1-22.422,17.614c-3.687-4.3-33.349-38.812-41.309-45.618-3-2.562-6.762-5.312-11.528-8.795-6.429-4.7-14.43-10.543-25.03-19.14-5.067-4.109-10-8.26-14.766-12.275-12.815-10.79-23.882-20.107-31.352-23.355a.709.709,0,1,0-.564,1.3,56.192,56.192,0,0,1,9.873,6.048c-4.214,3.142-24.538,18.289-28.058,20.766a3.906,3.906,0,0,0-1.906,2.742c-.2,2.014,1.686,4.021,4.3,6.8.747.792,1.518,1.612,2.329,2.521,4.632,5.194,27.535,36.435,33.8,48.932l-25.033,14.367c-3.209-5.841-27.633-50.1-37.2-61.725-9.115-11.068-7.407-13.922-5.6-16.945.178-.3.358-.6.53-.9,1.9-3.4,18.886-25.974,20.843-28.574" transform="translate(-645.744 -154.06)" fill="#fed729"/>
            <path id="Path_5274" data-name="Path 5274" d="M2042.545,499.969a46.446,46.446,0,0,0,21.618,5.761c.606.021.609.966,0,.945a47.5,47.5,0,0,1-22.095-5.89.473.473,0,0,1,.477-.816" transform="translate(-674.49 -165.136)" fill="#024778"/>
            <path id="Path_5275" data-name="Path 5275" d="M1988.283,581.767c-4.826,2.811-11.812.934-16.5-1.286-.549-.26-.07-1.075.478-.816,4.367,2.069,11.048,3.907,15.546,1.286a.473.473,0,0,1,.478.816" transform="translate(-651.268 -191.467)" fill="#024778"/>
            <path id="Path_5276" data-name="Path 5276" d="M2002.415,535.089a37.419,37.419,0,0,1-7.316-3.466c-.517-.318-.043-1.136.477-.816a36.268,36.268,0,0,0,7.09,3.371c.57.2.325,1.112-.251.911" transform="translate(-658.977 -175.32)" fill="#024778"/>
            <path id="Path_5277" data-name="Path 5277" d="M1998.157,537.373a15.715,15.715,0,0,0,5.152,1.939c.6.113.344,1.023-.252.911a16.46,16.46,0,0,1-5.377-2.034.473.473,0,0,1,.477-.816" transform="translate(-659.828 -177.49)" fill="#024778"/>
            <path id="Path_5280" data-name="Path 5280" d="M1922.859,354.854a.765.765,0,0,1-.607-.3c-2.131-2.768-8.312-6.271-8.375-6.306a.766.766,0,0,1,.752-1.334c.265.149,6.517,3.695,8.836,6.706a.766.766,0,0,1-.606,1.233" transform="translate(-632.091 -114.565)" fill="#053366"/>
            <path id="Path_5281" data-name="Path 5281" d="M2112.038,573.125c-.1-.364-2.409-8.94-4.6-11.7a27.757,27.757,0,0,0-5.426-4.945,24.545,24.545,0,0,0-2.55-2.67c.174-.267.278-.439.308-.489a.708.708,0,0,0-.046-.791,276.724,276.724,0,0,0-56.088-54.763c-11.423-8.2-40.877-35.613-45.977-54.81-4.517-17-9.473-24.7-10.514-26.2a8.217,8.217,0,0,0,.364-2.351.671.671,0,0,0-.009-.117,16.22,16.22,0,0,0-3.452-7.884,146.174,146.174,0,0,0-14.95-15.063c-7.016-6.4-13.644-12.448-19.018-20.778a79.963,79.963,0,0,1-5.8-11.4,73.375,73.375,0,0,0-6.969-13.184c-4.935-6.417-10.959-10.837-16.708-14.817-1.438-.887-2.806-1.759-4.129-2.6-4.475-2.855-8.7-5.551-13.5-7.4a.7.7,0,0,0-.721.129c-1.153,1.009-2.282,2.079-3.388,3.19l-2.337-1.83a.709.709,0,0,0-.915.035c-.513.469-12.5,11.578-12.02,24.042l-1.395.565c-18.193,5.626-43.538,5.442-61.021,4.816-.011,0-.021,0-.031,0l-.03,0-.036.006a.81.81,0,0,0-.082.012l-.054.015a.653.653,0,0,0-.079.029l-.048.024a.57.57,0,0,0-.07.043c-.015.011-.03.021-.044.033a.736.736,0,0,0-.058.053l-.039.044a.625.625,0,0,0-.044.06c-.012.018-.023.037-.033.056a.551.551,0,0,0-.03.064.586.586,0,0,0-.023.066c-.007.021-.012.044-.017.066s-.007.048-.01.073,0,.027-.005.04,0,.021,0,.031,0,.02,0,.031c.011.233.017.463.026.7l-2.7-.113a.693.693,0,0,0-.513.19.708.708,0,0,0-.224.5v.044c-.376-.117-.763-.244-.9-.306a2.929,2.929,0,0,1-.569-.317,23.052,23.052,0,0,1-.321-3.862c.055-2.17-1.27-6.574-1.422-7.069-.257-.843-3.082-7.385-6.1-14.329-.427-.984-.749-1.727-.9-2.082-.543-1.264-1.467-2-2.359-1.878-.341.047-1.155.311-1.343,1.733-.228,1.722,1.813,8.3,2.515,10.012.009.024.019.048.029.07a2.227,2.227,0,0,0-1.207.435,2.174,2.174,0,0,0-.781,1.691c-.11,2.123.795,4.4,1.8,6.542a6.4,6.4,0,0,1-.09,2.223c-.028.112-.068.251-.114.414-.457,1.612-1.525,5.385.231,8.17.386.612.763,1.24,1.132,1.854,1.457,2.426,2.716,4.521,4.089,5.089.731.3,3.646,1.393,6.024,2.174l-.112,4.055a.708.708,0,0,0,.708.728h2.476c-.01.41-.023.819-.025,1.229a.709.709,0,0,0,.708.712h.015l52.717-1.1a190.812,190.812,0,0,1-48.433,20.837l-9.129,3a.706.706,0,0,0-.484.628l-2.89,1c-1.1-2.543-2.428-5.037-3.719-7.458l-.4-.757a69.361,69.361,0,0,1-4.366-11.181l-2.788-8.572a5.162,5.162,0,0,0-1-1.992,1.906,1.906,0,0,0-3.443,1.013,4.294,4.294,0,0,0,.138,1.736,1.74,1.74,0,0,0-.139.157,2.6,2.6,0,0,0-.427,1.865c.084.794.658,4.768.8,5.737a7.782,7.782,0,0,0,.246,2.177c.058.275.112.526.139.731q.282,2.1.591,4.2c.441,2.988,1.292,6.816,2.116,10.518.548,2.462,1.065,4.788,1.436,6.746.344,1.821.816,4.315,2.556,5.848,1.6,1.411,3.8,1.629,5.572,1.8.733.072,1.48.121,2.2.168,1.1.071,2.236.15,3.338.312l.952,3.337a.71.71,0,0,0,.917.473l3.283-1.161.769,2.486a.707.707,0,0,0,.905.461c1.978-.675,38.91-13.324,61.883-23.892v0a29.734,29.734,0,0,1,1.286,3.07,24.233,24.233,0,0,0,1.854,4.115.7.7,0,0,0,.106.136,27.733,27.733,0,0,0,5.528,3.994,31.749,31.749,0,0,1,3.942,2.643,25.2,25.2,0,0,1,3.2,4.12,195.216,195.216,0,0,1,20.22,46.565.714.714,0,0,0,.238.359,5.725,5.725,0,0,0,3.164,1.224c-3.792,5.041-18.438,24.565-20.264,27.827-.165.295-.338.583-.509.869-2.074,3.464-4.032,6.733,5.719,18.573,10.117,12.286,37.131,61.641,37.4,62.138a.708.708,0,0,0,.43.342.694.694,0,0,0,.192.027.709.709,0,0,0,.353-.094l6.027-3.459c.317.555.615,1.118.887,1.7a.506.506,0,0,0,.007.109c.422,2.16-.119,4.464-.439,6.627-.147.563-.224,1.167-.357,1.629a23.221,23.221,0,0,1-1.6,4.216c-.315.613-.75,1.318-1.154,2.065a.483.483,0,0,0-.32.123c-2.877,2.418-6.975,2.117-10.01,4.271a5.264,5.264,0,0,0-2.432,3.662,2.8,2.8,0,0,0,2.351,2.845c1.766.437,3.59-.133,5.271-.656,2.211-.689,4.416-1.395,6.624-2.092,3.983-1.258,8.311-2.189,11.846-4.5a26.028,26.028,0,0,0,8.167-8.815,26.565,26.565,0,0,0,1.61,2.289.727.727,0,0,0,1.178-.035l3.725-3.317c.525-.455,1.04-.919,1.548-1.38l.018-.015h0l.414-.375q1.326-1.2,2.607-2.453c.714-.7,1.744-1.4,1.991-2.416a2.238,2.238,0,0,0,0-.763,6.774,6.774,0,0,0-1.6-2.624c-.661-.906-1.32-1.814-2-2.7-.9-1.173-2.038-2.746-3.466-3.384-.9-.689-1.818-1.358-2.764-1.987a.476.476,0,0,0-.177-.215,14.565,14.565,0,0,1-2.961-2.689l1.246-.715a.709.709,0,0,0,.285-.922c-5.855-12.159-29.577-44.543-34.312-49.851-.823-.923-1.637-1.787-2.355-2.549-2.27-2.41-4.063-4.313-3.923-5.684a2.622,2.622,0,0,1,1.312-1.727c3.644-2.565,25.157-18.6,28.435-21.047,5.813,4.323,12.585,10.023,19.938,16.213,4.773,4.019,9.71,8.175,14.786,12.292,10.628,8.62,18.645,14.477,25.086,19.183,4.743,3.465,8.488,6.2,11.443,8.728,8.1,6.924,40.125,44.262,41.446,45.8a60.656,60.656,0,0,1-5.679,6.738c-2.068,1.99-8.683,3.551-11.862,4.3a17.946,17.946,0,0,0-2.235.59,2.452,2.452,0,0,0-1.341,2.571c.464,2.189,4.177,3.253,11.349,3.253,12.182,0,26.062-10.249,29.5-12.945l1,2.758a.709.709,0,0,0,.916.421l14.858-5.586a.708.708,0,0,0,.435-.846M1816.769,363.744c-2.278-.759-5.015-1.78-5.689-2.061-1.085-.45-2.384-2.612-3.641-4.7-.373-.62-.753-1.254-1.143-1.871-1.532-2.429-.543-5.918-.121-7.409.048-.171.09-.318.12-.436a7.365,7.365,0,0,0,.1-2.671.469.469,0,0,0-.039-.124c-.962-2.053-1.838-4.22-1.738-6.156a1.279,1.279,0,0,1,.417-.994,1.7,1.7,0,0,1,1.211-.219,3,3,0,0,1,1.3,1.984c.015.045.533,1.425,1.08,2.886a15.724,15.724,0,0,1,.476,1.518,19.285,19.285,0,0,0,.815,2.439,9.765,9.765,0,0,1,.363,4.332.472.472,0,0,0,.4.538.534.534,0,0,0,.072.005.472.472,0,0,0,.466-.4,10.6,10.6,0,0,0-.42-4.829,18.325,18.325,0,0,1-.78-2.334,16.676,16.676,0,0,0-.5-1.6c-.547-1.463-1.065-2.843-1.065-2.843a3.933,3.933,0,0,0-1.687-2.49c-.055-.129-.141-.333-.249-.6-.765-1.862-2.636-8.145-2.453-9.529.072-.54.272-.885.536-.921.36-.048.966.394,1.362,1.315.153.356.475,1.1.9,2.085,1.73,3.986,5.781,13.32,6.058,14.228a29.385,29.385,0,0,1,1.38,6.77,24.217,24.217,0,0,0,.366,4.223.472.472,0,0,0,.149.267,3.489,3.489,0,0,0,.941.579c.235.1.823.289,1.257.421Zm3.379-.374c-.11,1.548-.217,3.131-.286,4.727h-1.8l.364-13.217,2.075.087c.027,2.892-.166,5.686-.358,8.4m280.639,193.837c-.966,1.54-8.691,6.778-15,9.764a50,50,0,0,0,12.861-11.988,23.638,23.638,0,0,1,2.138,2.224M1896.142,324.145l1.728,1.353a76.118,76.118,0,0,0-12.675,17.857c1.327-9.208,9.03-17.318,10.947-19.211m-11.188,23.023v0a73.476,73.476,0,0,1,17.911-24.526c1.358.54,2.673,1.159,3.968,1.826-2.784,2.584-15.065,14.192-22.744,24.707.447-1.082.854-1.982.862-2v-.005m-63.739,22.855c.039-2.2.195-4.412.346-6.554a92.485,92.485,0,0,0,.33-9.919c4.52.156,9.53.279,14.8.279,15.19,0,32.465-1.019,45.933-5.184a.711.711,0,0,0,.2-.1,30.058,30.058,0,0,0-1.108,3.026c-1.436,5.16-2.456,10.49-3.437,15.651a7.481,7.481,0,0,1-1.063.737c-.413.234-.933.546-1.557.925Zm-9.345,37.593c-.715-.046-1.455-.094-2.171-.165-1.635-.162-3.668-.364-5.041-1.573s-1.853-3.209-2.252-5.315c-.373-1.973-.892-4.306-1.442-6.776-.82-3.686-1.668-7.5-2.1-10.451q-.308-2.092-.589-4.189c-.03-.224-.088-.5-.151-.8a9.1,9.1,0,0,1-.241-1.667.464.464,0,0,0,.036-.242s-.005-.038-.013-.093a.946.946,0,0,1,.1-.329.339.339,0,0,1,.267-.175.524.524,0,0,1,.43.163,2.3,2.3,0,0,1,.408.843c.536,1.6,1.155,3.2,1.754,4.748.706,1.824,1.436,3.71,2.026,5.591a.472.472,0,0,0,.9-.283c-.6-1.91-1.335-3.811-2.046-5.649-.6-1.538-1.211-3.127-1.739-4.706a3.043,3.043,0,0,0-.62-1.195,1.466,1.466,0,0,0-1.227-.451,1.29,1.29,0,0,0-.441.143c-.224-1.559-.562-3.942-.624-4.517a1.736,1.736,0,0,1,.235-1.187.721.721,0,0,1,.636-.292c.358.059.641.47.895,1.294q.289.938.575,1.878a101.226,101.226,0,0,0,4.475,12.643.472.472,0,1,0,.858-.393,100.626,100.626,0,0,1-4.43-12.525q-.286-.941-.575-1.881c-.149-.483-.544-1.767-1.645-1.948a1.476,1.476,0,0,0-.547.02,3.353,3.353,0,0,1-.054-1.135.973.973,0,0,1,1.813-.5,4.37,4.37,0,0,1,.794,1.643l2.788,8.573a70.091,70.091,0,0,0,4.43,11.332l.4.758c1.412,2.65,2.865,5.385,4.007,8.158l3.113,10.914c-1-.128-2.009-.195-2.993-.258m5.385,3.478-4.023-14.1,2.326-.8,4.322,13.979Zm104.033,43.513a196.7,196.7,0,0,0-20.319-46.7,26.763,26.763,0,0,0-3.415-4.391c-.015-.015-.031-.029-.047-.043a33.082,33.082,0,0,0-4.143-2.788,27.052,27.052,0,0,1-5.195-3.72,23.1,23.1,0,0,1-1.7-3.808,31.351,31.351,0,0,0-1.329-3.172,90.635,90.635,0,0,0,13.51-7.376c14.936-10.794,15.476-24.4,15.492-24.973a.708.708,0,0,0-1.416-.039c0,.134-.564,13.5-14.906,23.864-13.729,9.923-68.794,29.082-75.615,31.434l-5.434-17.573,8.433-2.772a192.749,192.749,0,0,0,50.433-22c.96-.583,1.717-1.045,2.267-1.357a8.221,8.221,0,0,0,.986-.666c.817-.567,1.219-3.378,1.219-3.378.042-.216.085-.433.127-.65a1.137,1.137,0,0,1,.056-.285c.664-3.412,1.371-6.845,2.235-10.216,7.281-11.771,23.645-27,25.633-28.829,2.529,1.386,5,2.956,7.55,4.583,1.328.847,2.7,1.722,4.116,2.594,5.625,3.9,11.55,8.24,16.343,14.471a72.345,72.345,0,0,1,6.813,12.916,81.083,81.083,0,0,0,5.907,11.6c5.474,8.484,12.479,14.875,19.254,21.056a145.115,145.115,0,0,1,14.8,14.908,14.858,14.858,0,0,1,3.145,7.166c-.027,2.679-1.93,5.41-3.6,7.5a109.262,109.262,0,0,1-8.169,7.392c-1.779-2.192-14.747-18.139-20.03-23.6a.709.709,0,0,0-1.019.986c5.24,5.413,18.161,21.3,19.944,23.5a110.6,110.6,0,0,1-15.63,10.331.7.7,0,0,0-.16.12,4.2,4.2,0,0,1-1.087.662c-.2.1-.4.194-.587.3-6.585,3.614-13.175,6.5-20.152,9.551-2.346,1.026-4.771,2.087-7.195,3.178a13.807,13.807,0,0,1-3.641.992c-.017,0-.034,0-.052,0a4.952,4.952,0,0,1-3.431-.771m55.884,103.278c.424.523.946.981,1.369,1.5.653.8,1.239,1.659,1.828,2.511.557.8,1.125,1.6,1.691,2.4a15.086,15.086,0,0,0,1.059,1.479.473.473,0,0,1-.053.693c-.516.422-.948,1.015-1.4,1.462q-1.187,1.174-2.416,2.306c-1.748,1.611-3.65,3.078-5.347,4.738a.511.511,0,0,0-.071.093c-.315-.438-.642-.868-.971-1.291a4.988,4.988,0,0,0-1.338-1.383.408.408,0,0,0-.289-.058.682.682,0,0,0-.676.277c-1.31,1.641-2.385,3.437-3.774,5.024a22.646,22.646,0,0,1-4.422,4.019,25.249,25.249,0,0,1-6.513,2.719l-6.859,2.174c-2.188.693-4.389,1.55-6.624,2.077-.855.2-2.588.522-3.256-.352-.835-1.092.577-2.545,1.37-3.145,2.577-1.95,6.231-1.912,8.761-3.861a3.79,3.79,0,0,0-.063,2.5.532.532,0,0,0,1.018,0,34.167,34.167,0,0,1,1.083-3.478c.515-1.092,1.1-2.144,1.55-3.265.253-.628.472-1.268.666-1.916.421-1.74.7-3.784.8-4.534a19.761,19.761,0,0,0,3.615.158c.606-.031.608-.976,0-.945a18.646,18.646,0,0,1-3.484-.14c.08-.533.155-1.068.207-1.6a11.936,11.936,0,0,0,3.844.094c.6-.082.344-.992-.251-.911a10.532,10.532,0,0,1-3.526-.126,11.015,11.015,0,0,0-.11-2.255,27.982,27.982,0,0,0,11.183-3.057c3.026-1.526,6.5-3.18,8.685-5.859.929.621,1.831,1.278,2.716,1.958m-3.429-2.561c-2.031,2.553-5.6,4.209-8.449,5.646a26.725,26.725,0,0,1-11.011,2.951q-.339-.693-.721-1.362l17.31-9.935a15.386,15.386,0,0,0,2.871,2.7m60.824-30.334c-3-2.562-6.762-5.312-11.528-8.795-6.429-4.7-14.43-10.542-25.03-19.139-5.067-4.11-10-8.261-14.766-12.276-12.815-10.789-23.882-20.107-31.352-23.355a.709.709,0,0,0-.564,1.3,56.157,56.157,0,0,1,9.873,6.047c-4.214,3.142-24.538,18.289-28.058,20.766a3.906,3.906,0,0,0-1.907,2.742c-.2,2.014,1.686,4.021,4.3,6.8.747.792,1.518,1.612,2.329,2.521,4.632,5.194,27.535,36.435,33.8,48.932L1946.636,564.9c-3.209-5.84-27.633-50.1-37.2-61.724-9.115-11.069-7.407-13.923-5.6-16.945.178-.3.358-.6.53-.9,1.9-3.4,18.886-25.974,20.843-28.574a16,16,0,0,0,3.757-1.064c2.445-1.1,4.867-2.16,7.209-3.184,7.007-3.066,13.625-5.962,20.266-9.606.172-.094.351-.181.528-.268a5.6,5.6,0,0,0,1.388-.859,108.891,108.891,0,0,0,25.169-18.833.61.61,0,0,0,.052-.058,23.246,23.246,0,0,0,2.94-4.489c1.637,2.626,5.905,10.358,9.776,24.928,4.25,16,24.976,37.506,38.69,49.328a11.679,11.679,0,0,0-8.294,3.711c-.418.442.25,1.111.668.668a10.76,10.76,0,0,1,8.738-3.428c2.586,2.19,4.882,4,6.718,5.318a275.3,275.3,0,0,1,55.486,54.078,50.743,50.743,0,0,1-22.42,17.614c-3.687-4.3-33.349-38.812-41.309-45.618m62.349,52.991-1.1-3.014a.709.709,0,0,0-1.118-.3c-.16.133-16.165,13.243-29.378,13.243-9.052,0-9.887-1.774-9.963-2.13a1.09,1.09,0,0,1,.53-.982c.182-.081,1.1-.3,1.984-.506,3.555-.839,10.171-2.4,12.52-4.658a42.611,42.611,0,0,0,3.162-3.486q1.135.829,2.306,1.605c.763.506,1.473-.723.715-1.224q-1.082-.717-2.132-1.481c.3-.381.586-.745.846-1.083l.013.006a5.388,5.388,0,0,1,1.243.68l1.406.877c.777.484,1.487-.742.715-1.224a19.888,19.888,0,0,0-2.49-1.513c.391-.526.635-.869.671-.92a.7.7,0,0,0,.086-.172q1.36-.577,2.631-1.2c5.425-.393,19.806-9.178,22.284-12.389a25.358,25.358,0,0,1,4.476,4.191c1.692,2.136,3.6,8.55,4.169,10.573Z" transform="translate(-593.324 -106.075)" fill="#024778"/>
            <path id="Path_5282" data-name="Path 5282" d="M1887.728,330a4.167,4.167,0,0,1,3.458,1.145c.645.577,1.231,1.7,2.09,1.992s1.526-.348,1.944-1.034a14.68,14.68,0,0,0,1.222-2.5c1.627-2.175,2.31-5.076,2.958-7.67.6-2.391,1.353-5.607-.909-7.362a5.453,5.453,0,0,0,1.409-.425,10.933,10.933,0,0,0,1.386-.608,6.277,6.277,0,0,0-.3,1.734,6.609,6.609,0,0,0,0,1.061.3.3,0,0,0-.014.188,33.945,33.945,0,0,0,4.332,10.207c1,1.583,2.27,3.452,1.517,5.4-.3.765-.78,1.45-1.114,2.2a12.606,12.606,0,0,0-.769,2.326,46.681,46.681,0,0,0-.376,5.181,8.5,8.5,0,0,1-1.718,4.177c-1.957,2.541-5.606,3.978-8.457,1.989-3.381-2.359-3.919-7.34-3.263-11.114a.3.3,0,0,0,.236-.046c1.171-.793,1.122-2.736.417-3.82a3.429,3.429,0,0,0-3.725-1.4,12.75,12.75,0,0,1-.329-1.616" transform="translate(-623.582 -103.574)" fill="#ffd729"/>
            <path id="Path_5283" data-name="Path 5283" d="M1890.223,284.434c.169.336,2.208,8.915,2.625,10.669a1.838,1.838,0,0,0,.249.581l.705,1.087a1.862,1.862,0,0,0,.728.65l2.57,1.282a1.856,1.856,0,0,0,1.351.121l12.1-3.549a1.853,1.853,0,0,1,1.638.3,13.918,13.918,0,0,1,3.56,3.693,50.631,50.631,0,0,1,2.652,6.57,1.855,1.855,0,0,0,2.319,1.161l3.564-1.14a1.856,1.856,0,0,0,1.289-1.837l-.3-8.153a1.859,1.859,0,0,0-.121-.593c-.662-1.729-4.1-10.7-4.211-10.775s-3.836-9.09-12.73-9-18.368,8.715-18.368,8.715" transform="translate(-624.279 -91.007)" fill="#ffd729"/>
            <path id="Path_5284" data-name="Path 5284" d="M1878.864,272.486A19.148,19.148,0,0,0,1874.95,280c-.956,4.144,0,6.189.1,6.451s2.324,2.867,2.324,2.867,11.566-15.374,22.844-17.028,15.149,7.5,15.363,7.923,4.1,10.4,4.5,12.2c0,0,2.463-8.523.975-12.471s-7.029-19.2-28.555-14.277c0,0-7-.289-13.64,6.825" transform="translate(-619.222 -87.438)" fill="#ffd729"/>
            <path id="Path_5285" data-name="Path 5285" d="M1886.948,325.324c-.53-.038-1.374-.873-1.737-1.212a10.989,10.989,0,0,1-1.42-1.643,30.228,30.228,0,0,1-2.2-3.876.274.274,0,0,0,.023-.078c.036-.269.713-.438.942-.522a8.115,8.115,0,0,1,1.073-.269,17.958,17.958,0,0,0,1.818,3.557c.41.654.839,1.3,1.238,1.961.236.392.468.789.67,1.2s.588.954-.41.881" transform="translate(-621.556 -104.955)" fill="#053366"/>
            <path id="Path_5286" data-name="Path 5286" d="M1917.716,304.424c-2.379-.719-4.976,1.621-5.116,3.963a.187.187,0,0,0,.354.1c.927-1.7,2.465-4.189,4.816-3.134,2.031.911,2.253,3.456,2.27,5.392a11.413,11.413,0,0,1-1.025,5.667,2.813,2.813,0,0,1-2.557,1.67c-1.073-.123-1.342-1.223-2.125-1.736-.143-.094-.395-.049-.408.159a2.813,2.813,0,0,0,1.766,2.457,3.019,3.019,0,0,0,3.058-.656c1.99-1.747,2.177-5.065,2.164-7.506-.013-2.407-.488-5.562-3.2-6.38" transform="translate(-631.798 -100.518)" fill="#053366"/>
            <path id="Path_5287" data-name="Path 5287" d="M1918.348,309.572a.217.217,0,0,0-.368-.221c-1.376,1.713-1.191,4.059-.36,6,.249.582.693,1.344,1.448.994a1.791,1.791,0,0,0,.919-1.767c-.271-1.041-1.248-.763-1.781-.1a7.107,7.107,0,0,1-.366-1.584,6.93,6.93,0,0,1,.508-3.321" transform="translate(-633.242 -102.163)" fill="#053366"/>
            <path id="Path_5288" data-name="Path 5288" d="M1928.769,281.362a12.713,12.713,0,0,0-3.469-3.778,14.234,14.234,0,0,0-3.984-2.083,9.8,9.8,0,0,0-4.542-.594.332.332,0,0,0-.017.655,36.528,36.528,0,0,1,4.268.933,13.872,13.872,0,0,1,3.63,1.9,15.886,15.886,0,0,1,3.184,3.284,18.619,18.619,0,0,1,2.194,4.441.256.256,0,0,0,.49-.118,12.068,12.068,0,0,0-1.754-4.643" transform="translate(-633.082 -90.784)" fill="#053366"/>
            <path id="Path_5289" data-name="Path 5289" d="M1933.434,278.063c-.222-.129-.4.213-.222.368a13.443,13.443,0,0,1,3.385,4.874c.829,2,1.106,4.152,1.774,6.2.107.327.558.171.553-.133-.066-4.163-1.728-9.127-5.489-11.31" transform="translate(-638.584 -91.845)" fill="#053366"/>
            <path id="Path_5290" data-name="Path 5290" d="M1910.578,304.933s7.5-2.754,13.327-1.773c0,0,3.829.58,2.325,2.038s-2.981.267-3.926.14-4.29-1.037-5.831-.883-5.754,1.309-5.751,1.257-.144-.779-.144-.779" transform="translate(-631.13 -100.075)" fill="#053366"/>
            <path id="Path_5291" data-name="Path 5291" d="M1895.878,307.617l-1.331.544c-5.141,2.14-9.521,4.379-9.521,4.379l1.137,1.7,17.352-6.1a7.391,7.391,0,0,0,1.674-2.271c.457-1.167,2.951-1.538,2.951-1.538-2.878-.128-7.738,1.467-12.262,3.284" transform="translate(-622.69 -100.53)" fill="#053366"/>
            <path id="Path_5292" data-name="Path 5292" d="M1897.445,303.764a.433.433,0,0,1-.439-.075,4.048,4.048,0,0,0-1.956-.579,2.689,2.689,0,0,1-2.23-1.943c-2.614-9.4-2.632-9.54-2.64-9.6a.433.433,0,0,1,.856-.131c.058.259,1.059,3.891,2.618,9.5a1.823,1.823,0,0,0,1.513,1.317,4.868,4.868,0,0,1,2.4.78.433.433,0,0,1,.046.611.427.427,0,0,1-.171.121" transform="translate(-624.391 -96.154)" fill="#053366"/>
            <path id="Path_5293" data-name="Path 5293" d="M1937.861,314.679a5.467,5.467,0,0,0-2.268.74.223.223,0,0,0,.162.416c.371-.113.733-.259,1.1-.377a7.389,7.389,0,0,0,1.1-.362.218.218,0,0,0-.1-.417" transform="translate(-639.35 -103.949)" fill="#053366"/>
            <path id="Path_5294" data-name="Path 5294" d="M1938.672,316.7a3.138,3.138,0,0,0-.985.226,3.093,3.093,0,0,0-.925.384.232.232,0,0,0,.161.413,3.175,3.175,0,0,0,.984-.236,3.025,3.025,0,0,0,.92-.392.222.222,0,0,0-.154-.4" transform="translate(-639.749 -104.618)" fill="#053366"/>
            <path id="Path_5295" data-name="Path 5295" d="M1894.154,292.155a.17.17,0,0,0-.3.119c.224,1.256.8,2.483,1.146,3.714.376,1.335.607,2.708.992,4.04.059.2.367.113.352-.085a21.031,21.031,0,0,0-.832-3.976,15.1,15.1,0,0,0-1.353-3.811" transform="translate(-625.604 -96.486)" fill="#053366"/>
            <path id="Path_5296" data-name="Path 5296" d="M1897.4,294.137c-.052-.07-.2-.052-.2.049a5.865,5.865,0,0,0,.349,1.655,19.978,19.978,0,0,0,.579,2.117.136.136,0,0,0,.26-.063,8.621,8.621,0,0,0-.337-1.937,5.077,5.077,0,0,0-.652-1.822" transform="translate(-626.712 -97.15)" fill="#053366"/>
            <path id="Path_5297" data-name="Path 5297" d="M1898.989,300.968a.13.13,0,0,0-.207.08.873.873,0,0,0,.06.38c.045.125.052.256.1.381a.123.123,0,0,0,.225,0,.768.768,0,0,0-.175-.846" transform="translate(-627.233 -99.412)" fill="#053366"/>
            <path id="Path_5298" data-name="Path 5298" d="M1898.1,275.9a15.281,15.281,0,0,0-6.89,3.451c-.2.163.033.483.243.325a22.018,22.018,0,0,1,3.328-2.083c1.1-.552,2.27-.908,3.386-1.414.143-.064.1-.3-.068-.28" transform="translate(-624.709 -91.138)" fill="#053366"/>
            <path id="Path_5299" data-name="Path 5299" d="M1911.5,267.281a9.962,9.962,0,0,0-2.723.117,9.83,9.83,0,0,0-2.65.61.163.163,0,0,0,.076.313c.882-.042,1.755-.255,2.633-.354s1.784-.075,2.651-.23a.231.231,0,0,0,.013-.456" transform="translate(-629.626 -88.274)" fill="#053366"/>
            <path id="Path_5300" data-name="Path 5300" d="M1893.972,350.491a10.867,10.867,0,0,0,1.58,7.361c.081.121.262.009.218-.12a25.492,25.492,0,0,1-1.143-3.66,34.141,34.141,0,0,1-.272-3.571.194.194,0,0,0-.382-.011" transform="translate(-625.599 -115.728)" fill="#053366"/>
            <path id="Path_5301" data-name="Path 5301" d="M1895.818,349.816c-.512.438-.405,1.132-.36,1.751a7.122,7.122,0,0,0,.662,2.734c.092.184.4.14.372-.09a20.692,20.692,0,0,1-.385-4.219c.013-.146-.159-.287-.289-.175" transform="translate(-626.122 -115.543)" fill="#053366"/>
            <path id="Path_5302" data-name="Path 5302" d="M1909.206,326.221a9.189,9.189,0,0,0-.887-1.661c-.1-.124-.336-.053-.3.119a7.691,7.691,0,0,0,.675,1.743,6.682,6.682,0,0,0,.923,1.642c.1.111.334.06.3-.116a7.564,7.564,0,0,0-.706-1.727" transform="translate(-630.283 -107.193)" fill="#053366"/>
            <path id="Path_5303" data-name="Path 5303" d="M1911.312,330.728c-.066-.066-.162.025-.136.1a10.1,10.1,0,0,0,.863,1.634c.344.611.68,1.225,1.063,1.813.056.085.185.006.153-.084a9.763,9.763,0,0,0-1.943-3.464" transform="translate(-631.326 -109.244)" fill="#053366"/>
            <path id="Path_5304" data-name="Path 5304" d="M1920.486,302.037l.465-.209a20.636,20.636,0,0,1-.793-6.168c-.021-4.364,1.163-8.584,1.414-12.909a.506.506,0,0,0,.115-.333,16.624,16.624,0,0,0-2.2-7.068,22.13,22.13,0,0,0-4.447-5.764,21.186,21.186,0,0,0-13.521-5.939,48.313,48.313,0,0,0-7.4.492,30.53,30.53,0,0,0-7.68,1.683,20.87,20.87,0,0,0-10.2,8.9c-2.351,4-4.02,10.292-.551,14.108.015.029.029.059.045.088a.339.339,0,0,0,.2.172q.189.189.4.368a.3.3,0,0,0,.311.049.287.287,0,0,0,.233.107,11.478,11.478,0,0,0,.376,2c.193.992.386,1.986.511,2.989.244,1.956.36,3.908.553,5.865a.318.318,0,0,0,.157.245,28.713,28.713,0,0,0,1.321,3.01.172.172,0,0,0-.108.123c-.269,1.27-.023,2.635-.177,3.927a15.527,15.527,0,0,0-.451,3.495,2.861,2.861,0,0,0,1.162,2.108,2.967,2.967,0,0,0,1.971.319l.025-.022a.408.408,0,0,0,.078.066,4.756,4.756,0,0,0,.1.92,6.548,6.548,0,0,0,.633,1.769,2.659,2.659,0,0,0,1.815,1.1,2.19,2.19,0,0,0,1.056,2.662c-.808,3.588-.44,8.069,2.1,10.918a6.535,6.535,0,0,0,8.416,1.21,9.49,9.49,0,0,0,4.5-8.168c0-.055,0-.108.006-.163l.021-.621c.007-.214.01-.431.021-.642l.1-1.216a11.158,11.158,0,0,1,.926-3.427,19.54,19.54,0,0,0,1.2-2.472,4.582,4.582,0,0,0,.005-2.417c-.548-2.236-2.227-4.165-3.291-6.174a41.164,41.164,0,0,1-2.84-7.159.322.322,0,0,0-.055-.1,8.717,8.717,0,0,1-.081-1.027,12.237,12.237,0,0,1,.3-1.923.212.212,0,0,0-.014-.131l.005,0c.086-.071.041-.243-.085-.219a16.962,16.962,0,0,0-1.938.625,5.264,5.264,0,0,0-1.9.719.155.155,0,0,0-.052.094.2.2,0,0,0-.008.236,7.545,7.545,0,0,1,1.276,3.731,10,10,0,0,1-.407,2.794v0c-.109.419-.223.833-.326,1.238-.015.06-.033.119-.049.179-.834,2.72-2.4,6.119-2.414,6.232h0c-.467.846-.918,1.706-1.412,2.537-.224.378-.47.964-1.078.722a.427.427,0,0,1-.143-.1,16.713,16.713,0,0,0-1.444-1.434,5.283,5.283,0,0,0-2.25-1.125h0a5.974,5.974,0,0,0-2.167-.076c-.838-.279-1.77.248-2.463-.5-.727-.791-.518-1.983-.346-2.934a12.832,12.832,0,0,0,.156-4.982,12,12,0,0,0,1.084,1.555c.774.934,2.358,2.657,3.736,2.377,1.657-.338.379-2.411-.07-3.189a57.945,57.945,0,0,1-3.2-5.807.394.394,0,0,0-.441-.248.439.439,0,0,0-.185-.029,4.924,4.924,0,0,0-2.061.622c.005-.4-.007-.812-.031-1.222l-.046-.608a30.042,30.042,0,0,0-.511-3.324c-.2-.992-.394-1.988-.606-2.979a8.408,8.408,0,0,0-.581-2.253c3.233-3.556,6.307-7.282,10-10.379a30.823,30.823,0,0,1,13.191-6.634c.429-.1.389-.755-.073-.7-4.949.6-9.583,3.346-13.364,6.472A65.726,65.726,0,0,0,1877.58,288a40.832,40.832,0,0,1,2.636-5.476,25.963,25.963,0,0,1,1.919-2.746,12.875,12.875,0,0,0,1.979-2.432.131.131,0,0,0-.165-.176,6.778,6.778,0,0,0-2.28,2.073,28.992,28.992,0,0,0-2.119,2.766,20.5,20.5,0,0,0-2.688,5.522,5.057,5.057,0,0,1-.028-1.057,9,9,0,0,1,.558-2.28,26.9,26.9,0,0,1,1.992-4.021,59.784,59.784,0,0,1,5.6-7.68c.133-.163-.094-.41-.262-.27a28.518,28.518,0,0,0-6.371,7.977,21.882,21.882,0,0,0-2.059,4.478,6.823,6.823,0,0,0-.309,2.691,11.037,11.037,0,0,1,.729-6.338c.452-1.154.982-2.275,1.475-3.411.409-.945,1.2-2.137,1.183-3.18a.1.1,0,0,0-.171-.076,4.4,4.4,0,0,0-.922,1.565c-.137.285-.322.674-.451.962a47.513,47.513,0,0,0-1.988,4.74,14.147,14.147,0,0,0-.793,4.214c-1.008-3.307.031-7.062,1.762-10.147a20.459,20.459,0,0,1,9.464-8.483,25.765,25.765,0,0,1,7.023-1.745c2.187-.293,4.382-.6,6.589-.69a17.516,17.516,0,0,1,6.864.934,24.489,24.489,0,0,1,6.529,3.814,20.1,20.1,0,0,1,4.855,5.763,28.968,28.968,0,0,1,2.572,7.369.4.4,0,0,0,.447.325,60.23,60.23,0,0,0-1.25,6.286,43.417,43.417,0,0,0-.643,6.8,22.756,22.756,0,0,0,.546,5.241,18.967,18.967,0,0,0-2.682.933c-.825.271-1.707.473-2.539.767a.4.4,0,0,1-.532-.359,10.564,10.564,0,0,0-1.373-4.722,21.7,21.7,0,0,0-1.78-2.677c-.446-.583-1.019-1.534-1.829-1.576a.153.153,0,0,0-.174.165,5.373,5.373,0,0,0,1.022,1.937c.557.883,1.141,1.76,1.623,2.685a30.638,30.638,0,0,1,1.7,5.391.369.369,0,0,0,.326.253.444.444,0,0,0,.141.022,12.3,12.3,0,0,0,3.613-.915,15.943,15.943,0,0,0,2.611-.917ZM1883.1,313.516a4.169,4.169,0,0,1,3.458,1.144c.645.577,1.231,1.7,2.09,1.993s1.527-.349,1.944-1.034a14.705,14.705,0,0,0,1.222-2.5c1.627-2.175,2.31-5.076,2.958-7.67.6-2.391,1.354-5.607-.909-7.362a5.44,5.44,0,0,0,1.41-.425,10.968,10.968,0,0,0,1.385-.607,6.273,6.273,0,0,0-.3,1.734,6.618,6.618,0,0,0,0,1.061.3.3,0,0,0-.014.188,33.941,33.941,0,0,0,4.332,10.207c1,1.583,2.27,3.452,1.517,5.4-.3.765-.779,1.449-1.114,2.2a12.63,12.63,0,0,0-.769,2.326,46.87,46.87,0,0,0-.376,5.182,8.5,8.5,0,0,1-1.718,4.177c-1.958,2.541-5.606,3.978-8.457,1.988-3.381-2.359-3.919-7.34-3.263-11.114a.3.3,0,0,0,.236-.046c1.171-.792,1.122-2.736.417-3.82a3.427,3.427,0,0,0-3.725-1.4,12.794,12.794,0,0,1-.329-1.616m3.322,3.245a2.673,2.673,0,0,1,.022,2.817.222.222,0,0,0-.025-.017,1.674,1.674,0,0,1-.895-2.017,1.591,1.591,0,0,1-.013-.383l-.129-.233c-.654-.551-1.4-.484-1.807-1.4l-.005-.013a3.607,3.607,0,0,1,2.852,1.248" transform="translate(-618.951 -87.088)" fill="#053366"/>
            <path id="Path_5305" data-name="Path 5305" d="M1820.671,365.787c-2.277-.759-5.015-1.78-5.689-2.061-1.085-.449-2.385-2.612-3.642-4.7-.372-.62-.753-1.253-1.142-1.871-1.532-2.428-.544-5.918-.121-7.409.048-.172.09-.319.121-.437a7.4,7.4,0,0,0,.1-2.671.5.5,0,0,0-.039-.124c-.962-2.053-1.838-4.22-1.739-6.156a1.277,1.277,0,0,1,.417-.994,1.691,1.691,0,0,1,1.211-.219,3,3,0,0,1,1.3,1.984c.014.044.533,1.424,1.08,2.886.228.611.348,1.051.476,1.519a19.178,19.178,0,0,0,.815,2.438,9.755,9.755,0,0,1,.362,4.332.472.472,0,0,0,.4.538.431.431,0,0,0,.072.005.472.472,0,0,0,.466-.4,10.572,10.572,0,0,0-.42-4.829,18.36,18.36,0,0,1-.78-2.334c-.128-.467-.26-.95-.5-1.6-.546-1.462-1.065-2.843-1.065-2.843a3.936,3.936,0,0,0-1.687-2.49c-.054-.129-.141-.332-.249-.6-.765-1.862-2.635-8.146-2.453-9.529.072-.54.273-.885.536-.921.36-.048.966.393,1.362,1.315.153.356.476,1.1.9,2.085,1.73,3.986,5.782,13.32,6.059,14.228a29.417,29.417,0,0,1,1.38,6.77,24.093,24.093,0,0,0,.366,4.224.466.466,0,0,0,.148.266,3.468,3.468,0,0,0,.941.579c.235.1.823.289,1.257.421Z" transform="translate(-597.227 -108.118)" fill="#fff"/>
            <path id="Path_5306" data-name="Path 5306" d="M1812.337,429.78c-.715-.046-1.454-.094-2.171-.165-1.635-.162-3.668-.364-5.041-1.573s-1.854-3.209-2.252-5.315c-.373-1.973-.892-4.306-1.442-6.776-.82-3.686-1.668-7.5-2.1-10.45q-.309-2.093-.59-4.19c-.03-.224-.088-.5-.151-.8a9.142,9.142,0,0,1-.242-1.667.463.463,0,0,0,.037-.242s-.006-.038-.014-.094a.977.977,0,0,1,.1-.33.343.343,0,0,1,.268-.175.529.529,0,0,1,.43.163,2.311,2.311,0,0,1,.408.844c.535,1.6,1.155,3.2,1.754,4.747.706,1.824,1.435,3.71,2.025,5.591a.472.472,0,0,0,.9-.283c-.6-1.911-1.334-3.811-2.046-5.649-.595-1.538-1.21-3.127-1.739-4.706a3.025,3.025,0,0,0-.62-1.194,1.465,1.465,0,0,0-1.226-.451,1.308,1.308,0,0,0-.441.143c-.224-1.559-.562-3.942-.623-4.516a1.737,1.737,0,0,1,.234-1.187.722.722,0,0,1,.637-.292c.357.058.641.469.895,1.293q.289.939.574,1.878a101.31,101.31,0,0,0,4.476,12.643.472.472,0,0,0,.429.276.465.465,0,0,0,.2-.043.472.472,0,0,0,.233-.626,100.528,100.528,0,0,1-4.431-12.525q-.286-.94-.574-1.881c-.149-.483-.544-1.767-1.645-1.947a1.48,1.48,0,0,0-.548.019,3.336,3.336,0,0,1-.053-1.135.974.974,0,0,1,1.813-.5,4.372,4.372,0,0,1,.793,1.643l2.789,8.572a70.069,70.069,0,0,0,4.43,11.332l.4.759c1.411,2.649,2.865,5.385,4.007,8.157l3.113,10.914c-1-.128-2.009-.195-2.993-.258" transform="translate(-593.79 -128.239)" fill="#fff"/>
            <path id="Path_5307" data-name="Path 5307" d="M2047.577,673.714c.423.523.945.982,1.368,1.5.653.8,1.239,1.659,1.828,2.511.556.8,1.125,1.6,1.691,2.4a15.111,15.111,0,0,0,1.059,1.479.472.472,0,0,1-.052.693c-.516.423-.947,1.015-1.4,1.462q-1.188,1.174-2.416,2.306c-1.749,1.611-3.651,3.078-5.347,4.739a.438.438,0,0,0-.07.093c-.315-.439-.642-.869-.972-1.292a4.983,4.983,0,0,0-1.337-1.383.41.41,0,0,0-.289-.058.684.684,0,0,0-.676.277c-1.309,1.641-2.385,3.437-3.774,5.024a22.652,22.652,0,0,1-4.421,4.019,25.249,25.249,0,0,1-6.514,2.719l-6.858,2.174c-2.189.693-4.39,1.55-6.624,2.077-.857.2-2.589.522-3.257-.352-.834-1.092.578-2.545,1.37-3.145,2.575-1.95,6.23-1.912,8.761-3.861a3.787,3.787,0,0,0-.063,2.5.532.532,0,0,0,1.017,0,34.167,34.167,0,0,1,1.083-3.478c.514-1.092,1.1-2.144,1.549-3.265.253-.628.472-1.268.666-1.916.422-1.739.7-3.784.8-4.534a19.663,19.663,0,0,0,3.616.158c.605-.031.607-.976,0-.944a18.7,18.7,0,0,1-3.484-.141c.08-.533.154-1.068.206-1.6a11.9,11.9,0,0,0,3.843.094c.6-.082.344-.992-.251-.911a10.514,10.514,0,0,1-3.526-.126,11.061,11.061,0,0,0-.11-2.254,27.984,27.984,0,0,0,11.183-3.058c3.025-1.526,6.5-3.18,8.685-5.859.929.621,1.832,1.278,2.717,1.958" transform="translate(-663.729 -221.904)" fill="#fff"/>
            <path id="Path_5308" data-name="Path 5308" d="M2224.785,694.886l-1.1-3.014a.709.709,0,0,0-1.118-.3c-.16.133-16.165,13.243-29.378,13.243-9.053,0-9.888-1.774-9.963-2.13a1.09,1.09,0,0,1,.53-.982c.182-.081,1.1-.3,1.984-.506,3.554-.839,10.171-2.4,12.519-4.658a42.522,42.522,0,0,0,3.162-3.486q1.135.829,2.306,1.605c.763.506,1.473-.723.715-1.224q-1.082-.717-2.132-1.481c.3-.381.586-.745.846-1.083l.013.006a5.381,5.381,0,0,1,1.243.68l1.406.877c.777.484,1.487-.742.715-1.224a19.888,19.888,0,0,0-2.49-1.513c.39-.526.635-.869.671-.92a.7.7,0,0,0,.086-.172q1.36-.577,2.631-1.2c5.425-.393,19.806-9.178,22.284-12.389a25.366,25.366,0,0,1,4.476,4.191c1.692,2.136,3.6,8.55,4.169,10.573Z" transform="translate(-721.193 -222.981)" fill="#fff"/>
          </g>
        </g>
      </g>
    </g>
  </g>
</svg>
